<svg xmlns="http://www.w3.org/2000/svg" xmlns:xlink="http://www.w3.org/1999/xlink" contentStyleType="text/css" data-diagram-type="CLASS" height="413px" preserveAspectRatio="none" style="width:635px;height:413px;background:#FFFFFF;" version="1.1" viewBox="0 0 635 413" width="635px" zoomAndPan="magnify"><defs/><g><!--cluster  --><g class="cluster" data-entity=" " data-source-line="24" data-uid="ent0002" id="cluster_ "><rect fill="none" height="400.19" rx="2.5" ry="2.5" style="stroke:none;stroke-width:1.5;" width="622" x="7" y="7"/><text fill="#000000" font-family="sans-serif" font-size="14" font-weight="bold" lengthAdjust="spacing" textLength="4.874" x="315.563" y="21.9951">&#160;</text></g><!--class portal--><g class="entity" data-entity="portal" data-source-line="25" data-uid="ent0003" id="entity_portal"><rect fill="#90EE90" height="42.2969" rx="2.5" ry="2.5" style="stroke:#181818;stroke-width:0.5;" width="150" x="133" y="42"/><text fill="#000000" font-family="sans-serif" font-size="14" lengthAdjust="spacing" textLength="40.7217" x="187.6392" y="59.9951">Portal</text><line style="stroke:#181818;stroke-width:0.5;" x1="134" x2="282" y1="68.2969" y2="68.2969"/><line style="stroke:#181818;stroke-width:0.5;" x1="134" x2="282" y1="76.2969" y2="76.2969"/></g><!--class organization--><g class="entity" data-entity="organization" data-source-line="30" data-uid="ent0004" id="entity_organization"><rect fill="#90EE90" height="42.2969" rx="2.5" ry="2.5" style="stroke:#181818;stroke-width:0.5;" width="150" x="243" y="144.3"/><text fill="#000000" font-family="sans-serif" font-size="14" lengthAdjust="spacing" textLength="89.749" x="273.1255" y="162.2951">Organization</text><line style="stroke:#181818;stroke-width:0.5;" x1="244" x2="392" y1="170.5969" y2="170.5969"/><line style="stroke:#181818;stroke-width:0.5;" x1="244" x2="392" y1="178.5969" y2="178.5969"/></g><!--class game--><g class="entity" data-entity="game" data-source-line="31" data-uid="ent0005" id="entity_game"><rect fill="#90EE90" height="42.2969" rx="2.5" ry="2.5" style="stroke:#181818;stroke-width:0.5;" width="150" x="463" y="144.3"/><text fill="#000000" font-family="sans-serif" font-size="14" lengthAdjust="spacing" textLength="105.6768" x="485.1616" y="162.2951">Game Instance</text><line style="stroke:#181818;stroke-width:0.5;" x1="464" x2="612" y1="170.5969" y2="170.5969"/><line style="stroke:#181818;stroke-width:0.5;" x1="464" x2="612" y1="178.5969" y2="178.5969"/></g><!--class session--><g class="entity" data-entity="session" data-source-line="36" data-uid="ent0006" id="entity_session"><rect fill="#90EE90" height="42.2969" rx="2.5" ry="2.5" style="stroke:#181818;stroke-width:0.5;" width="150" x="243" y="246.6"/><text fill="#000000" font-family="sans-serif" font-size="14" lengthAdjust="spacing" textLength="99.5449" x="268.2275" y="264.5951">Game Session</text><line style="stroke:#181818;stroke-width:0.5;" x1="244" x2="392" y1="272.8969" y2="272.8969"/><line style="stroke:#181818;stroke-width:0.5;" x1="244" x2="392" y1="280.8969" y2="280.8969"/></g><!--class padmin--><g class="entity" data-entity="padmin" data-source-line="41" data-uid="ent0007" id="entity_padmin"><rect fill="#ADD8E6" height="42.2969" rx="2.5" ry="2.5" style="stroke:#181818;stroke-width:0.5;" width="150" x="23" y="144.3"/><text fill="#000000" font-family="sans-serif" font-size="14" lengthAdjust="spacing" textLength="90.0361" x="52.9819" y="162.2951">Portal Admin</text><line style="stroke:#181818;stroke-width:0.5;" x1="24" x2="172" y1="170.5969" y2="170.5969"/><line style="stroke:#181818;stroke-width:0.5;" x1="24" x2="172" y1="178.5969" y2="178.5969"/></g><!--class oadmin--><g class="entity" data-entity="oadmin" data-source-line="42" data-uid="ent0008" id="entity_oadmin"><rect fill="#ADD8E6" height="42.2969" rx="2.5" ry="2.5" style="stroke:#181818;stroke-width:0.5;" width="150" x="23" y="246.6"/><text fill="#000000" font-family="sans-serif" font-size="14" lengthAdjust="spacing" textLength="74.9766" x="60.5117" y="264.5951">Org Admin</text><line style="stroke:#181818;stroke-width:0.5;" x1="24" x2="172" y1="272.8969" y2="272.8969"/><line style="stroke:#181818;stroke-width:0.5;" x1="24" x2="172" y1="280.8969" y2="280.8969"/></g><!--class sadmin--><g class="entity" data-entity="sadmin" data-source-line="43" data-uid="ent0009" id="entity_sadmin"><rect fill="#ADD8E6" height="42.2969" rx="2.5" ry="2.5" style="stroke:#181818;stroke-width:0.5;" width="150" x="23" y="348.89"/><text fill="#000000" font-family="sans-serif" font-size="14" lengthAdjust="spacing" textLength="102.7305" x="46.6348" y="366.8851">Session Admin</text><line style="stroke:#181818;stroke-width:0.5;" x1="24" x2="172" y1="375.1869" y2="375.1869"/><line style="stroke:#181818;stroke-width:0.5;" x1="24" x2="172" y1="383.1869" y2="383.1869"/></g><!--class designer--><g class="entity" data-entity="designer" data-source-line="44" data-uid="ent0010" id="entity_designer"><rect fill="#ADD8E6" height="42.2969" rx="2.5" ry="2.5" style="stroke:#181818;stroke-width:0.5;" width="150" x="463" y="42"/><text fill="#000000" font-family="sans-serif" font-size="14" lengthAdjust="spacing" textLength="108.835" x="483.5825" y="59.9951">Game Designer</text><line style="stroke:#181818;stroke-width:0.5;" x1="464" x2="612" y1="68.2969" y2="68.2969"/><line style="stroke:#181818;stroke-width:0.5;" x1="464" x2="612" y1="76.2969" y2="76.2969"/></g><!--class facilitator--><g class="entity" data-entity="facilitator" data-source-line="45" data-uid="ent0011" id="entity_facilitator"><rect fill="#ADD8E6" height="42.2969" rx="2.5" ry="2.5" style="stroke:#181818;stroke-width:0.5;" width="150" x="243" y="348.89"/><text fill="#000000" font-family="sans-serif" font-size="14" lengthAdjust="spacing" textLength="69.877" x="283.0615" y="366.8851">Facilitator</text><line style="stroke:#181818;stroke-width:0.5;" x1="244" x2="392" y1="375.1869" y2="375.1869"/><line style="stroke:#181818;stroke-width:0.5;" x1="244" x2="392" y1="383.1869" y2="383.1869"/></g><!--class analyst--><g class="entity" data-entity="analyst" data-source-line="46" data-uid="ent0012" id="entity_analyst"><rect fill="#ADD8E6" height="42.2969" rx="2.5" ry="2.5" style="stroke:#181818;stroke-width:0.5;" width="150" x="463" y="246.6"/><text fill="#000000" font-family="sans-serif" font-size="14" lengthAdjust="spacing" textLength="89.8652" x="493.0674" y="264.5951">Data Analyst</text><line style="stroke:#181818;stroke-width:0.5;" x1="464" x2="612" y1="272.8969" y2="272.8969"/><line style="stroke:#181818;stroke-width:0.5;" x1="464" x2="612" y1="280.8969" y2="280.8969"/></g><!--class player--><g class="entity" data-entity="player" data-source-line="47" data-uid="ent0013" id="entity_player"><rect fill="#ADD8E6" height="42.2969" rx="2.5" ry="2.5" style="stroke:#181818;stroke-width:0.5;" width="150" x="463" y="348.89"/><text fill="#000000" font-family="sans-serif" font-size="14" lengthAdjust="spacing" textLength="89.6943" x="493.1528" y="366.8851">Game Player</text><line style="stroke:#181818;stroke-width:0.5;" x1="464" x2="612" y1="375.1869" y2="375.1869"/><line style="stroke:#181818;stroke-width:0.5;" x1="464" x2="612" y1="383.1869" y2="383.1869"/></g><!--link game to session--><g class="link" data-entity-1="game" data-entity-2="session" data-source-line="56" data-uid="lnk14" id="link_game_session"><path codeLine="56" d="M454.72,166.19 C441.39,166.19 439.67,166.19 439.67,166.19 C439.67,166.19 439.67,261.19 439.67,261.19 C439.67,261.19 436.21,261.19 411.32,261.19" fill="none" id="game-session" style="stroke:#181818;stroke-width:1;"/><line style="stroke:#181818;stroke-width:1;" x1="458.72" x2="458.72" y1="162.19" y2="170.19"/><line style="stroke:#181818;stroke-width:1;" x1="455.72" x2="455.72" y1="162.19" y2="170.19"/><line style="stroke:#181818;stroke-width:1;" x1="454.72" x2="462.72" y1="166.19" y2="166.19"/><line style="stroke:#181818;stroke-width:1;" x1="401.32" x2="393.32" y1="261.19" y2="267.19"/><line style="stroke:#181818;stroke-width:1;" x1="401.32" x2="393.32" y1="261.19" y2="255.19"/><line style="stroke:#181818;stroke-width:1;" x1="401.32" x2="393.32" y1="261.19" y2="261.19"/><ellipse cx="407.32" cy="261.19" fill="none" rx="4" ry="4" style="stroke:#181818;stroke-width:1;"/></g><!--link portal to padmin--><g class="link" data-entity-1="portal" data-entity-2="padmin" data-source-line="57" data-uid="lnk15" id="link_portal_padmin"><path codeLine="57" d="M153,92.35 C153,109.79 153,118.4 153,135.93" fill="none" id="portal-padmin" style="stroke:#181818;stroke-width:1;"/><line style="stroke:#181818;stroke-width:1;" x1="149" x2="157" y1="88.35" y2="88.35"/><line style="stroke:#181818;stroke-width:1;" x1="149" x2="157" y1="91.35" y2="91.35"/><line style="stroke:#181818;stroke-width:1;" x1="153" x2="153" y1="92.35" y2="84.35"/><line style="stroke:#181818;stroke-width:1;" x1="153" x2="161" y1="135.93" y2="143.93"/><line style="stroke:#181818;stroke-width:1;" x1="153" x2="145" y1="135.93" y2="143.93"/><line style="stroke:#181818;stroke-width:1;" x1="153" x2="153" y1="135.93" y2="143.93"/></g><!--link portal to organization--><g class="link" data-entity-1="portal" data-entity-2="organization" data-source-line="58" data-uid="lnk16" id="link_portal_organization"><path codeLine="58" d="M263,92.35 C263,109.79 263,108.4 263,125.93" fill="none" id="portal-organization" style="stroke:#181818;stroke-width:1;"/><line style="stroke:#181818;stroke-width:1;" x1="259" x2="267" y1="88.35" y2="88.35"/><line style="stroke:#181818;stroke-width:1;" x1="259" x2="267" y1="91.35" y2="91.35"/><line style="stroke:#181818;stroke-width:1;" x1="263" x2="263" y1="92.35" y2="84.35"/><line style="stroke:#181818;stroke-width:1;" x1="263" x2="269" y1="135.93" y2="143.93"/><line style="stroke:#181818;stroke-width:1;" x1="263" x2="257" y1="135.93" y2="143.93"/><line style="stroke:#181818;stroke-width:1;" x1="263" x2="263" y1="135.93" y2="143.93"/><ellipse cx="263" cy="129.93" fill="none" rx="4" ry="4" style="stroke:#181818;stroke-width:1;"/></g><!--link organization to oadmin--><g class="link" data-entity-1="organization" data-entity-2="oadmin" data-source-line="59" data-uid="lnk17" id="link_organization_oadmin"><path codeLine="59" d="M234.68,166.19 C209.79,166.19 196.33,166.19 196.33,166.19 C196.33,166.19 196.33,261.19 196.33,261.19 C196.33,261.19 204.61,261.19 191.28,261.19" fill="none" id="organization-oadmin" style="stroke:#181818;stroke-width:1;"/><line style="stroke:#181818;stroke-width:1;" x1="238.68" x2="238.68" y1="162.19" y2="170.19"/><line style="stroke:#181818;stroke-width:1;" x1="235.68" x2="235.68" y1="162.19" y2="170.19"/><line style="stroke:#181818;stroke-width:1;" x1="234.68" x2="242.68" y1="166.19" y2="166.19"/><line style="stroke:#181818;stroke-width:1;" x1="181.28" x2="173.28" y1="261.19" y2="267.19"/><line style="stroke:#181818;stroke-width:1;" x1="181.28" x2="173.28" y1="261.19" y2="255.19"/><line style="stroke:#181818;stroke-width:1;" x1="181.28" x2="173.28" y1="261.19" y2="261.19"/><ellipse cx="187.28" cy="261.19" fill="none" rx="4" ry="4" style="stroke:#181818;stroke-width:1;"/></g><!--link organization to session--><g class="link" data-entity-1="organization" data-entity-2="session" data-source-line="60" data-uid="lnk18" id="link_organization_session"><path codeLine="60" d="M318,194.64 C318,212.08 318,210.7 318,228.22" fill="none" id="organization-session" style="stroke:#181818;stroke-width:1;"/><line style="stroke:#181818;stroke-width:1;" x1="314" x2="322" y1="190.64" y2="190.64"/><line style="stroke:#181818;stroke-width:1;" x1="314" x2="322" y1="193.64" y2="193.64"/><line style="stroke:#181818;stroke-width:1;" x1="318" x2="318" y1="194.64" y2="186.64"/><line style="stroke:#181818;stroke-width:1;" x1="318" x2="324" y1="238.22" y2="246.22"/><line style="stroke:#181818;stroke-width:1;" x1="318" x2="312" y1="238.22" y2="246.22"/><line style="stroke:#181818;stroke-width:1;" x1="318" x2="318" y1="238.22" y2="246.22"/><ellipse cx="318" cy="232.22" fill="none" rx="4" ry="4" style="stroke:#181818;stroke-width:1;"/></g><!--link session to player--><g class="link" data-entity-1="session" data-entity-2="player" data-source-line="61" data-uid="lnk19" id="link_session_player"><path codeLine="61" d="M401.28,275.19 C414.61,275.19 416.33,275.19 416.33,275.19 C416.33,275.19 416.33,370.19 416.33,370.19 C416.33,370.19 429.79,370.19 454.68,370.19" fill="none" id="session-player" style="stroke:#181818;stroke-width:1;"/><line style="stroke:#181818;stroke-width:1;" x1="397.28" x2="397.28" y1="279.19" y2="271.19"/><line style="stroke:#181818;stroke-width:1;" x1="400.28" x2="400.28" y1="279.19" y2="271.19"/><line style="stroke:#181818;stroke-width:1;" x1="401.28" x2="393.28" y1="275.19" y2="275.19"/><line style="stroke:#181818;stroke-width:1;" x1="454.68" x2="462.68" y1="370.19" y2="362.19"/><line style="stroke:#181818;stroke-width:1;" x1="454.68" x2="462.68" y1="370.19" y2="378.19"/><line style="stroke:#181818;stroke-width:1;" x1="454.68" x2="462.68" y1="370.19" y2="370.19"/></g><!--link session to facilitator--><g class="link" data-entity-1="session" data-entity-2="facilitator" data-source-line="62" data-uid="lnk20" id="link_session_facilitator"><path codeLine="62" d="M318,296.94 C318,314.38 318,322.99 318,340.52" fill="none" id="session-facilitator" style="stroke:#181818;stroke-width:1;"/><line style="stroke:#181818;stroke-width:1;" x1="314" x2="322" y1="292.94" y2="292.94"/><line style="stroke:#181818;stroke-width:1;" x1="314" x2="322" y1="295.94" y2="295.94"/><line style="stroke:#181818;stroke-width:1;" x1="318" x2="318" y1="296.94" y2="288.94"/><line style="stroke:#181818;stroke-width:1;" x1="318" x2="326" y1="340.52" y2="348.52"/><line style="stroke:#181818;stroke-width:1;" x1="318" x2="310" y1="340.52" y2="348.52"/><line style="stroke:#181818;stroke-width:1;" x1="318" x2="318" y1="340.52" y2="348.52"/></g><!--link session to sadmin--><g class="link" data-entity-1="session" data-entity-2="sadmin" data-source-line="63" data-uid="lnk21" id="link_session_sadmin"><path codeLine="63" d="M234.72,275.19 C221.39,275.19 219.67,275.19 219.67,275.19 C219.67,275.19 219.67,370.19 219.67,370.19 C219.67,370.19 216.21,370.19 191.32,370.19" fill="none" id="session-sadmin" style="stroke:#181818;stroke-width:1;"/><line style="stroke:#181818;stroke-width:1;" x1="238.72" x2="238.72" y1="271.19" y2="279.19"/><line style="stroke:#181818;stroke-width:1;" x1="235.72" x2="235.72" y1="271.19" y2="279.19"/><line style="stroke:#181818;stroke-width:1;" x1="234.72" x2="242.72" y1="275.19" y2="275.19"/><line style="stroke:#181818;stroke-width:1;" x1="181.32" x2="173.32" y1="370.19" y2="376.19"/><line style="stroke:#181818;stroke-width:1;" x1="181.32" x2="173.32" y1="370.19" y2="364.19"/><line style="stroke:#181818;stroke-width:1;" x1="181.32" x2="173.32" y1="370.19" y2="370.19"/><ellipse cx="187.32" cy="370.19" fill="none" rx="4" ry="4" style="stroke:#181818;stroke-width:1;"/></g><!--link designer to game--><g class="link" data-entity-1="designer" data-entity-2="game" data-source-line="64" data-uid="lnk22" id="link_designer_game"><path codeLine="64" d="M538,102.35 C538,119.79 538,108.4 538,125.93" fill="none" id="designer-game" style="stroke:#181818;stroke-width:1;"/><line style="stroke:#181818;stroke-width:1;" x1="538" x2="532" y1="92.35" y2="84.35"/><line style="stroke:#181818;stroke-width:1;" x1="538" x2="544" y1="92.35" y2="84.35"/><line style="stroke:#181818;stroke-width:1;" x1="538" x2="538" y1="92.35" y2="84.35"/><ellipse cx="538" cy="98.35" fill="none" rx="4" ry="4" style="stroke:#181818;stroke-width:1;"/><line style="stroke:#181818;stroke-width:1;" x1="538" x2="544" y1="135.93" y2="143.93"/><line style="stroke:#181818;stroke-width:1;" x1="538" x2="532" y1="135.93" y2="143.93"/><line style="stroke:#181818;stroke-width:1;" x1="538" x2="538" y1="135.93" y2="143.93"/><ellipse cx="538" cy="129.93" fill="none" rx="4" ry="4" style="stroke:#181818;stroke-width:1;"/></g><!--link game to analyst--><g class="link" data-entity-1="game" data-entity-2="analyst" data-source-line="65" data-uid="lnk23" id="link_game_analyst"><path codeLine="65" d="M538,204.64 C538,222.08 538,210.7 538,228.22" fill="none" id="game-analyst" style="stroke:#181818;stroke-width:1;"/><line style="stroke:#181818;stroke-width:1;" x1="538" x2="532" y1="194.64" y2="186.64"/><line style="stroke:#181818;stroke-width:1;" x1="538" x2="544" y1="194.64" y2="186.64"/><line style="stroke:#181818;stroke-width:1;" x1="538" x2="538" y1="194.64" y2="186.64"/><ellipse cx="538" cy="200.64" fill="none" rx="4" ry="4" style="stroke:#181818;stroke-width:1;"/><line style="stroke:#181818;stroke-width:1;" x1="538" x2="544" y1="238.22" y2="246.22"/><line style="stroke:#181818;stroke-width:1;" x1="538" x2="532" y1="238.22" y2="246.22"/><line style="stroke:#181818;stroke-width:1;" x1="538" x2="538" y1="238.22" y2="246.22"/><ellipse cx="538" cy="232.22" fill="none" rx="4" ry="4" style="stroke:#181818;stroke-width:1;"/></g><!--SRC=[ZLHTQrf147ttLmmMwfCGqwO5mO8n92aKAZ6GXzA7oTtntiLrzxAxbXhZV-z-NRFNcfieoExCcJdpSTO1J2OJk17g4GNCb5poqbjw5MS41TU5e9vPSLcZnZK8BibkQmAbRQKoXrIC3DNmzImpQfGhR_oI6siiLbZImcu5WQR2eYnR78oMk17sdlxQgU2bN9EqKBWVqXdAtRdTmgu7xdEfD2CzKq9fk1IE85YlbRGB_aGmEW_tEJB6PGaNCSR1IgqsaiMuXufRwkqpYZMNCu76F71cAnXTd9tmtH8lA-ixx0tWtZLidDyNdDeqi7IvFK_jgFyVmua6x4kMauNc_hsdzGlyWLlIC1h3t6q6XGaxR3ZwxXjvqjJw4TK7D5278tmGlf5I4ydZhETZ-AbBbFm9BLVIm4UumJMznP7712QL6LfyUPJF3D-bSR8eA8ILtj9HtgSnBCYOK5btHI5tmeRK9fwxidyUmvqIzBw1mfGvOSIneZ-cp8zYGyUpoR2g4viApl2c4n-wl2BZdWxfW6Vfybh4DHPSS8jMHVpovVvQo1LQXAb4iJKsn60yTnOr5twaSJpXcACFSx_bZ944OlxrMELIk2TK4FmXRNdXXeo7VmM_aq6ZuE6lAaJ-7dvhISqXMihBSKa03X9KTigLgheZ4TLVyJgA8KGyFm-7QdS0frAyTPSaaDiSibLPgwu64ADEkHgMHhQ99epoo9YjiENnMIB1GHHx5So-dTXJCgID_WC0]--></g></svg>