<svg xmlns="http://www.w3.org/2000/svg" xmlns:xlink="http://www.w3.org/1999/xlink" contentStyleType="text/css" data-diagram-type="CLASS" height="441px" preserveAspectRatio="none" style="width:622px;height:441px;background:#FFFFFF;" version="1.1" viewBox="0 0 622 441" width="622px" zoomAndPan="magnify"><defs/><g><!--class portal--><g class="entity" data-entity="portal" data-source-line="7" data-uid="ent0002" id="entity_portal"><rect fill="#90EE90" height="42.2969" rx="2.5" ry="2.5" style="stroke:#181818;stroke-width:0.5;" width="47.166" x="209.13" y="84"/><text fill="#000000" font-family="sans-serif" font-size="14" lengthAdjust="spacing" textLength="41.166" x="212.13" y="101.9951">portal</text><line style="stroke:#181818;stroke-width:0.5;" x1="210.13" x2="255.296" y1="110.2969" y2="110.2969"/><line style="stroke:#181818;stroke-width:0.5;" x1="210.13" x2="255.296" y1="118.2969" y2="118.2969"/></g><!--class organization--><g class="entity" data-entity="organization" data-source-line="8" data-uid="ent0003" id="entity_organization"><rect fill="#90EE90" height="42.2969" rx="2.5" ry="2.5" style="stroke:#181818;stroke-width:0.5;" width="93.2949" x="351.8" y="7"/><text fill="#000000" font-family="sans-serif" font-size="14" lengthAdjust="spacing" textLength="87.2949" x="354.8" y="24.9951">organization</text><line style="stroke:#181818;stroke-width:0.5;" x1="352.8" x2="444.0949" y1="33.2969" y2="33.2969"/><line style="stroke:#181818;stroke-width:0.5;" x1="352.8" x2="444.0949" y1="41.2969" y2="41.2969"/></g><!--class game--><g class="entity" data-entity="game" data-source-line="9" data-uid="ent0004" id="entity_game"><rect fill="#90EE90" height="42.2969" rx="2.5" ry="2.5" style="stroke:#181818;stroke-width:0.5;" width="109.4756" x="177.98" y="276"/><text fill="#000000" font-family="sans-serif" font-size="14" lengthAdjust="spacing" textLength="103.4756" x="180.98" y="293.9951">game instance</text><line style="stroke:#181818;stroke-width:0.5;" x1="178.98" x2="286.4556" y1="302.2969" y2="302.2969"/><line style="stroke:#181818;stroke-width:0.5;" x1="178.98" x2="286.4556" y1="310.2969" y2="310.2969"/></g><!--class session--><g class="entity" data-entity="session" data-source-line="10" data-uid="ent0005" id="entity_session"><rect fill="#90EE90" height="42.2969" rx="2.5" ry="2.5" style="stroke:#181818;stroke-width:0.5;" width="101.9902" x="347.46" y="315"/><text fill="#000000" font-family="sans-serif" font-size="14" lengthAdjust="spacing" textLength="95.9902" x="350.46" y="332.9951">game session</text><line style="stroke:#181818;stroke-width:0.5;" x1="348.46" x2="448.4502" y1="341.2969" y2="341.2969"/><line style="stroke:#181818;stroke-width:0.5;" x1="348.46" x2="448.4502" y1="349.2969" y2="349.2969"/></g><!--class padmin--><g class="entity" data-entity="padmin" data-source-line="12" data-uid="ent0006" id="entity_padmin"><rect fill="#ADD8E6" height="42.2969" rx="2.5" ry="2.5" style="stroke:#181818;stroke-width:0.5;" width="95.4824" x="350.71" y="161"/><text fill="#000000" font-family="sans-serif" font-size="14" lengthAdjust="spacing" textLength="89.4824" x="353.71" y="178.9951">portal admin</text><line style="stroke:#181818;stroke-width:0.5;" x1="351.71" x2="445.1924" y1="187.2969" y2="187.2969"/><line style="stroke:#181818;stroke-width:0.5;" x1="351.71" x2="445.1924" y1="195.2969" y2="195.2969"/></g><!--class oadmin--><g class="entity" data-entity="oadmin" data-source-line="13" data-uid="ent0007" id="entity_oadmin"><rect fill="#ADD8E6" height="42.2969" rx="2.5" ry="2.5" style="stroke:#181818;stroke-width:0.5;" width="77.5244" x="359.69" y="84"/><text fill="#000000" font-family="sans-serif" font-size="14" lengthAdjust="spacing" textLength="71.5244" x="362.69" y="101.9951">org admin</text><line style="stroke:#181818;stroke-width:0.5;" x1="360.69" x2="436.2144" y1="110.2969" y2="110.2969"/><line style="stroke:#181818;stroke-width:0.5;" x1="360.69" x2="436.2144" y1="118.2969" y2="118.2969"/></g><!--class sadmin--><g class="entity" data-entity="sadmin" data-source-line="14" data-uid="ent0008" id="entity_sadmin"><rect fill="#ADD8E6" height="42.2969" rx="2.5" ry="2.5" style="stroke:#181818;stroke-width:0.5;" width="106.1396" x="509.45" y="238"/><text fill="#000000" font-family="sans-serif" font-size="14" lengthAdjust="spacing" textLength="100.1396" x="512.45" y="255.9951">session admin</text><line style="stroke:#181818;stroke-width:0.5;" x1="510.45" x2="614.5896" y1="264.2969" y2="264.2969"/><line style="stroke:#181818;stroke-width:0.5;" x1="510.45" x2="614.5896" y1="272.2969" y2="272.2969"/></g><!--class designer--><g class="entity" data-entity="designer" data-source-line="15" data-uid="ent0009" id="entity_designer"><rect fill="#ADD8E6" height="42.2969" rx="2.5" ry="2.5" style="stroke:#181818;stroke-width:0.5;" width="110.9795" x="7" y="276"/><text fill="#000000" font-family="sans-serif" font-size="14" lengthAdjust="spacing" textLength="104.9795" x="10" y="293.9951">game designer</text><line style="stroke:#181818;stroke-width:0.5;" x1="8" x2="116.9795" y1="302.2969" y2="302.2969"/><line style="stroke:#181818;stroke-width:0.5;" x1="8" x2="116.9795" y1="310.2969" y2="310.2969"/></g><!--class facilitator--><g class="entity" data-entity="facilitator" data-source-line="16" data-uid="ent0010" id="entity_facilitator"><rect fill="#ADD8E6" height="42.2969" rx="2.5" ry="2.5" style="stroke:#181818;stroke-width:0.5;" width="72.7529" x="526.14" y="315"/><text fill="#000000" font-family="sans-serif" font-size="14" lengthAdjust="spacing" textLength="66.7529" x="529.14" y="332.9951">facilitator</text><line style="stroke:#181818;stroke-width:0.5;" x1="527.14" x2="597.8929" y1="341.2969" y2="341.2969"/><line style="stroke:#181818;stroke-width:0.5;" x1="527.14" x2="597.8929" y1="349.2969" y2="349.2969"/></g><!--class analyst--><g class="entity" data-entity="analyst" data-source-line="17" data-uid="ent0011" id="entity_analyst"><rect fill="#ADD8E6" height="42.2969" rx="2.5" ry="2.5" style="stroke:#181818;stroke-width:0.5;" width="92.9736" x="351.96" y="238"/><text fill="#000000" font-family="sans-serif" font-size="14" lengthAdjust="spacing" textLength="86.9736" x="354.96" y="255.9951">data analyst</text><line style="stroke:#181818;stroke-width:0.5;" x1="352.96" x2="443.9336" y1="264.2969" y2="264.2969"/><line style="stroke:#181818;stroke-width:0.5;" x1="352.96" x2="443.9336" y1="272.2969" y2="272.2969"/></g><!--class player--><g class="entity" data-entity="player" data-source-line="18" data-uid="ent0012" id="entity_player"><rect fill="#ADD8E6" height="42.2969" rx="2.5" ry="2.5" style="stroke:#181818;stroke-width:0.5;" width="94.1768" x="515.43" y="392"/><text fill="#000000" font-family="sans-serif" font-size="14" lengthAdjust="spacing" textLength="88.1768" x="518.43" y="409.9951">game player</text><line style="stroke:#181818;stroke-width:0.5;" x1="516.43" x2="608.6068" y1="418.2969" y2="418.2969"/><line style="stroke:#181818;stroke-width:0.5;" x1="516.43" x2="608.6068" y1="426.2969" y2="426.2969"/></g><!--link game to session--><g class="link" data-entity-1="game" data-entity-2="session" data-source-line="21" data-uid="lnk13" id="link_game_session"><path codeLine="21" d="M295.95,297.65 C344.2,297.65 398.58,297.65 398.58,297.65 C398.58,297.65 398.58,287.83 398.58,296.65" fill="none" id="game-session" style="stroke:#181818;stroke-width:1;"/><line style="stroke:#181818;stroke-width:1;" x1="291.95" x2="291.95" y1="301.65" y2="293.65"/><line style="stroke:#181818;stroke-width:1;" x1="294.95" x2="294.95" y1="301.65" y2="293.65"/><line style="stroke:#181818;stroke-width:1;" x1="295.95" x2="287.95" y1="297.65" y2="297.65"/><line style="stroke:#181818;stroke-width:1;" x1="398.58" x2="404.58" y1="306.65" y2="314.65"/><line style="stroke:#181818;stroke-width:1;" x1="398.58" x2="392.58" y1="306.65" y2="314.65"/><line style="stroke:#181818;stroke-width:1;" x1="398.58" x2="398.58" y1="306.65" y2="314.65"/><ellipse cx="398.58" cy="300.65" fill="none" rx="4" ry="4" style="stroke:#181818;stroke-width:1;"/></g><!--link portal to padmin--><g class="link" data-entity-1="portal" data-entity-2="padmin" data-source-line="22" data-uid="lnk14" id="link_portal_padmin"><path codeLine="22" d="M264.79,112.2 C300.31,112.2 354.58,112.2 354.58,112.2 C354.58,112.2 354.58,132.21 354.58,152.78" fill="none" id="portal-padmin" style="stroke:#181818;stroke-width:1;"/><line style="stroke:#181818;stroke-width:1;" x1="260.79" x2="260.79" y1="116.2" y2="108.2"/><line style="stroke:#181818;stroke-width:1;" x1="263.79" x2="263.79" y1="116.2" y2="108.2"/><line style="stroke:#181818;stroke-width:1;" x1="264.79" x2="256.79" y1="112.2" y2="112.2"/><line style="stroke:#181818;stroke-width:1;" x1="354.58" x2="362.58" y1="152.78" y2="160.78"/><line style="stroke:#181818;stroke-width:1;" x1="354.58" x2="346.58" y1="152.78" y2="160.78"/><line style="stroke:#181818;stroke-width:1;" x1="354.58" x2="354.58" y1="152.78" y2="160.78"/></g><!--link portal to organization--><g class="link" data-entity-1="portal" data-entity-2="organization" data-source-line="23" data-uid="lnk15" id="link_portal_organization"><path codeLine="23" d="M264.79,98.1 C301.08,98.1 357.58,98.1 357.58,98.1 C357.58,98.1 357.58,88.09 357.58,67.52" fill="none" id="portal-organization" style="stroke:#181818;stroke-width:1;"/><line style="stroke:#181818;stroke-width:1;" x1="260.79" x2="260.79" y1="102.1" y2="94.1"/><line style="stroke:#181818;stroke-width:1;" x1="263.79" x2="263.79" y1="102.1" y2="94.1"/><line style="stroke:#181818;stroke-width:1;" x1="264.79" x2="256.79" y1="98.1" y2="98.1"/><line style="stroke:#181818;stroke-width:1;" x1="357.58" x2="351.58" y1="57.52" y2="49.52"/><line style="stroke:#181818;stroke-width:1;" x1="357.58" x2="363.58" y1="57.52" y2="49.52"/><line style="stroke:#181818;stroke-width:1;" x1="357.58" x2="357.58" y1="57.52" y2="49.52"/><ellipse cx="357.58" cy="63.52" fill="none" rx="4" ry="4" style="stroke:#181818;stroke-width:1;"/></g><!--link organization to oadmin--><g class="link" data-entity-1="organization" data-entity-2="oadmin" data-source-line="24" data-uid="lnk16" id="link_organization_oadmin"><path codeLine="24" d="M398.58,57.6 C398.58,68.19 398.58,54.94 398.58,65.55" fill="none" id="organization-oadmin" style="stroke:#181818;stroke-width:1;"/><line style="stroke:#181818;stroke-width:1;" x1="394.58" x2="402.58" y1="53.6" y2="53.6"/><line style="stroke:#181818;stroke-width:1;" x1="394.58" x2="402.58" y1="56.6" y2="56.6"/><line style="stroke:#181818;stroke-width:1;" x1="398.58" x2="398.58" y1="57.6" y2="49.6"/><line style="stroke:#181818;stroke-width:1;" x1="398.58" x2="404.58" y1="75.55" y2="83.55"/><line style="stroke:#181818;stroke-width:1;" x1="398.58" x2="392.58" y1="75.55" y2="83.55"/><line style="stroke:#181818;stroke-width:1;" x1="398.58" x2="398.58" y1="75.55" y2="83.55"/><ellipse cx="398.58" cy="69.55" fill="none" rx="4" ry="4" style="stroke:#181818;stroke-width:1;"/></g><!--link organization to session--><g class="link" data-entity-1="organization" data-entity-2="session" data-source-line="25" data-uid="lnk17" id="link_organization_session"><path codeLine="25" d="M453.5,35.2 C466.73,35.2 469.58,35.2 469.58,35.2 C469.58,35.2 469.58,343.2 469.58,343.2 C469.58,343.2 478.99,343.2 467.77,343.2" fill="none" id="organization-session" style="stroke:#181818;stroke-width:1;"/><line style="stroke:#181818;stroke-width:1;" x1="449.5" x2="449.5" y1="39.2" y2="31.2"/><line style="stroke:#181818;stroke-width:1;" x1="452.5" x2="452.5" y1="39.2" y2="31.2"/><line style="stroke:#181818;stroke-width:1;" x1="453.5" x2="445.5" y1="35.2" y2="35.2"/><line style="stroke:#181818;stroke-width:1;" x1="457.77" x2="449.77" y1="343.2" y2="349.2"/><line style="stroke:#181818;stroke-width:1;" x1="457.77" x2="449.77" y1="343.2" y2="337.2"/><line style="stroke:#181818;stroke-width:1;" x1="457.77" x2="449.77" y1="343.2" y2="343.2"/><ellipse cx="463.77" cy="343.2" fill="none" rx="4" ry="4" style="stroke:#181818;stroke-width:1;"/></g><!--link organization to session--><g class="link" data-entity-1="organization" data-entity-2="session" data-source-line="29" data-uid="lnk21" id="link_organization_session"><path codeLine="29" d="M453.35,21.1 C475.68,21.1 489.58,21.1 489.58,21.1 C489.58,21.1 489.58,350.25 489.58,350.25 C489.58,350.25 478.55,350.25 457.88,350.25" fill="none" id="organization-session-1" style="stroke:#181818;stroke-width:1;"/><line style="stroke:#181818;stroke-width:1;" x1="449.35" x2="449.35" y1="25.1" y2="17.1"/><line style="stroke:#181818;stroke-width:1;" x1="452.35" x2="452.35" y1="25.1" y2="17.1"/><line style="stroke:#181818;stroke-width:1;" x1="453.35" x2="445.35" y1="21.1" y2="21.1"/><line style="stroke:#181818;stroke-width:1;" x1="457.88" x2="449.88" y1="350.25" y2="358.25"/><line style="stroke:#181818;stroke-width:1;" x1="457.88" x2="449.88" y1="350.25" y2="342.25"/><line style="stroke:#181818;stroke-width:1;" x1="457.88" x2="449.88" y1="350.25" y2="350.25"/></g><!--link session to player--><g class="link" data-entity-1="session" data-entity-2="player" data-source-line="26" data-uid="lnk18" id="link_session_player"><path codeLine="26" d="M457.82,336.15 C490.84,336.15 519.58,336.15 519.58,336.15 C519.58,336.15 519.58,360.92 519.58,383.7" fill="none" id="session-player" style="stroke:#181818;stroke-width:1;"/><line style="stroke:#181818;stroke-width:1;" x1="453.82" x2="453.82" y1="340.15" y2="332.15"/><line style="stroke:#181818;stroke-width:1;" x1="456.82" x2="456.82" y1="340.15" y2="332.15"/><line style="stroke:#181818;stroke-width:1;" x1="457.82" x2="449.82" y1="336.15" y2="336.15"/><line style="stroke:#181818;stroke-width:1;" x1="519.58" x2="527.58" y1="383.7" y2="391.7"/><line style="stroke:#181818;stroke-width:1;" x1="519.58" x2="511.58" y1="383.7" y2="391.7"/><line style="stroke:#181818;stroke-width:1;" x1="519.58" x2="519.58" y1="383.7" y2="391.7"/></g><!--link session to facilitator--><g class="link" data-entity-1="session" data-entity-2="facilitator" data-source-line="27" data-uid="lnk19" id="link_session_facilitator"><path codeLine="27" d="M457.91,329.1 C482.53,329.1 495.44,329.1 517.8,329.1" fill="none" id="session-facilitator" style="stroke:#181818;stroke-width:1;"/><line style="stroke:#181818;stroke-width:1;" x1="453.91" x2="453.91" y1="333.1" y2="325.1"/><line style="stroke:#181818;stroke-width:1;" x1="456.91" x2="456.91" y1="333.1" y2="325.1"/><line style="stroke:#181818;stroke-width:1;" x1="457.91" x2="449.91" y1="329.1" y2="329.1"/><line style="stroke:#181818;stroke-width:1;" x1="517.8" x2="525.8" y1="329.1" y2="321.1"/><line style="stroke:#181818;stroke-width:1;" x1="517.8" x2="525.8" y1="329.1" y2="337.1"/><line style="stroke:#181818;stroke-width:1;" x1="517.8" x2="525.8" y1="329.1" y2="329.1"/></g><!--link session to sadmin--><g class="link" data-entity-1="session" data-entity-2="sadmin" data-source-line="28" data-uid="lnk20" id="link_session_sadmin"><path codeLine="28" d="M457.66,322.05 C491.85,322.05 522.58,322.05 522.58,322.05 C522.58,322.05 522.58,316.99 522.58,298.8" fill="none" id="session-sadmin" style="stroke:#181818;stroke-width:1;"/><line style="stroke:#181818;stroke-width:1;" x1="453.66" x2="453.66" y1="326.05" y2="318.05"/><line style="stroke:#181818;stroke-width:1;" x1="456.66" x2="456.66" y1="326.05" y2="318.05"/><line style="stroke:#181818;stroke-width:1;" x1="457.66" x2="449.66" y1="322.05" y2="322.05"/><line style="stroke:#181818;stroke-width:1;" x1="522.58" x2="516.58" y1="288.8" y2="280.8"/><line style="stroke:#181818;stroke-width:1;" x1="522.58" x2="528.58" y1="288.8" y2="280.8"/><line style="stroke:#181818;stroke-width:1;" x1="522.58" x2="522.58" y1="288.8" y2="280.8"/><ellipse cx="522.58" cy="294.8" fill="none" rx="4" ry="4" style="stroke:#181818;stroke-width:1;"/></g><!--link designer to game--><g class="link" data-entity-1="designer" data-entity-2="game" data-source-line="30" data-uid="lnk22" id="link_designer_game"><path codeLine="30" d="M136.23,297.15 C155.33,297.15 140.68,297.15 159.72,297.15" fill="none" id="designer-game" style="stroke:#181818;stroke-width:1;"/><line style="stroke:#181818;stroke-width:1;" x1="126.23" x2="118.23" y1="297.15" y2="303.15"/><line style="stroke:#181818;stroke-width:1;" x1="126.23" x2="118.23" y1="297.15" y2="291.15"/><line style="stroke:#181818;stroke-width:1;" x1="126.23" x2="118.23" y1="297.15" y2="297.15"/><ellipse cx="132.23" cy="297.15" fill="none" rx="4" ry="4" style="stroke:#181818;stroke-width:1;"/><line style="stroke:#181818;stroke-width:1;" x1="169.72" x2="177.72" y1="297.15" y2="291.15"/><line style="stroke:#181818;stroke-width:1;" x1="169.72" x2="177.72" y1="297.15" y2="303.15"/><line style="stroke:#181818;stroke-width:1;" x1="169.72" x2="177.72" y1="297.15" y2="297.15"/><ellipse cx="163.72" cy="297.15" fill="none" rx="4" ry="4" style="stroke:#181818;stroke-width:1;"/></g><!--link game to analyst--><g class="link" data-entity-1="game" data-entity-2="analyst" data-source-line="31" data-uid="lnk23" id="link_game_analyst"><path codeLine="31" d="M272.58,257.67 C272.58,248.12 272.58,257 272.58,257 C272.58,257 297.8,257 333.58,257" fill="none" id="game-analyst" style="stroke:#181818;stroke-width:1;"/><line style="stroke:#181818;stroke-width:1;" x1="272.58" x2="278.58" y1="267.67" y2="275.67"/><line style="stroke:#181818;stroke-width:1;" x1="272.58" x2="266.58" y1="267.67" y2="275.67"/><line style="stroke:#181818;stroke-width:1;" x1="272.58" x2="272.58" y1="267.67" y2="275.67"/><ellipse cx="272.58" cy="261.67" fill="none" rx="4" ry="4" style="stroke:#181818;stroke-width:1;"/><line style="stroke:#181818;stroke-width:1;" x1="343.58" x2="351.58" y1="257" y2="251"/><line style="stroke:#181818;stroke-width:1;" x1="343.58" x2="351.58" y1="257" y2="263"/><line style="stroke:#181818;stroke-width:1;" x1="343.58" x2="351.58" y1="257" y2="257"/><ellipse cx="337.58" cy="257" fill="none" rx="4" ry="4" style="stroke:#181818;stroke-width:1;"/></g><!--SRC=[VPBBbeCW38RtF4LEPz6LBp1l4p7QJ14ya5auRTzz5C7ILjtbyd-vmHcqiortwi8DWMQl3QbmPJkWnnuCMv9n871UBauPQWN4WUVk8j2m9otih59dSFNFv0H5LbX6E0qJWUO4660nuQj6VVqsCzfv8hjAdU_GyX_EfI9G1lQn3di2ja7GQefSZ1ph0uMGsoJxatXR0h3fUK66Q9P4RNwftAGGkqqnhEhS_qc4u_9nWuO2TvPy1BApYxIesR2Wk0Ke_5scGK50YsOC4g5a7yyr61pJL8lv8Pz-YISJNpMeoDplLULk-I5KElSSlQLJbx59MVuCzV9D9i6SNw2DJEwHZvwQn4dVWiMDNZ9pbUtwrRF- -Y8F5ubvpsNP54Z7_0S0]--></g></svg>