<svg xmlns="http://www.w3.org/2000/svg" xmlns:xlink="http://www.w3.org/1999/xlink" contentStyleType="text/css" data-diagram-type="CLASS" height="363px" preserveAspectRatio="none" style="width:727px;height:363px;background:#FFFFFF;" version="1.1" viewBox="0 0 727 363" width="727px" zoomAndPan="magnify"><defs/><g><!--class portal--><g class="entity" data-entity="portal" data-source-line="6" data-uid="ent0002" id="entity_portal"><rect fill="#90EE90" height="42.2969" rx="2.5" ry="2.5" style="stroke:#181818;stroke-width:0.5;" width="47.166" x="95.16" y="109.3"/><text fill="#000000" font-family="sans-serif" font-size="14" lengthAdjust="spacing" textLength="41.166" x="98.16" y="127.2951">portal</text><line style="stroke:#181818;stroke-width:0.5;" x1="96.16" x2="141.326" y1="135.5969" y2="135.5969"/><line style="stroke:#181818;stroke-width:0.5;" x1="96.16" x2="141.326" y1="143.5969" y2="143.5969"/></g><!--class organization--><g class="entity" data-entity="organization" data-source-line="7" data-uid="ent0003" id="entity_organization"><rect fill="#90EE90" height="42.2969" rx="2.5" ry="2.5" style="stroke:#181818;stroke-width:0.5;" width="93.2949" x="137.09" y="211.6"/><text fill="#000000" font-family="sans-serif" font-size="14" lengthAdjust="spacing" textLength="87.2949" x="140.09" y="229.5951">organization</text><line style="stroke:#181818;stroke-width:0.5;" x1="138.09" x2="229.3849" y1="237.8969" y2="237.8969"/><line style="stroke:#181818;stroke-width:0.5;" x1="138.09" x2="229.3849" y1="245.8969" y2="245.8969"/></g><!--class game--><g class="entity" data-entity="game" data-source-line="8" data-uid="ent0004" id="entity_game"><rect fill="#90EE90" height="42.2969" rx="2.5" ry="2.5" style="stroke:#181818;stroke-width:0.5;" width="109.4756" x="435" y="109.3"/><text fill="#000000" font-family="sans-serif" font-size="14" lengthAdjust="spacing" textLength="103.4756" x="438" y="127.2951">game instance</text><line style="stroke:#181818;stroke-width:0.5;" x1="436" x2="543.4756" y1="135.5969" y2="135.5969"/><line style="stroke:#181818;stroke-width:0.5;" x1="436" x2="543.4756" y1="143.5969" y2="143.5969"/></g><!--class session--><g class="entity" data-entity="session" data-source-line="9" data-uid="ent0005" id="entity_session"><rect fill="#90EE90" height="42.2969" rx="2.5" ry="2.5" style="stroke:#181818;stroke-width:0.5;" width="101.9902" x="504.75" y="211.6"/><text fill="#000000" font-family="sans-serif" font-size="14" lengthAdjust="spacing" textLength="95.9902" x="507.75" y="229.5951">game session</text><line style="stroke:#181818;stroke-width:0.5;" x1="505.75" x2="605.7402" y1="237.8969" y2="237.8969"/><line style="stroke:#181818;stroke-width:0.5;" x1="505.75" x2="605.7402" y1="245.8969" y2="245.8969"/></g><!--class padmin--><g class="entity" data-entity="padmin" data-source-line="11" data-uid="ent0006" id="entity_padmin"><rect fill="#ADD8E6" height="42.2969" rx="2.5" ry="2.5" style="stroke:#181818;stroke-width:0.5;" width="95.4824" x="7" y="211.6"/><text fill="#000000" font-family="sans-serif" font-size="14" lengthAdjust="spacing" textLength="89.4824" x="10" y="229.5951">portal admin</text><line style="stroke:#181818;stroke-width:0.5;" x1="8" x2="101.4824" y1="237.8969" y2="237.8969"/><line style="stroke:#181818;stroke-width:0.5;" x1="8" x2="101.4824" y1="245.8969" y2="245.8969"/></g><!--class oadmin--><g class="entity" data-entity="oadmin" data-source-line="12" data-uid="ent0007" id="entity_oadmin"><rect fill="#ADD8E6" height="42.2969" rx="2.5" ry="2.5" style="stroke:#181818;stroke-width:0.5;" width="77.5244" x="264.98" y="211.6"/><text fill="#000000" font-family="sans-serif" font-size="14" lengthAdjust="spacing" textLength="71.5244" x="267.98" y="229.5951">org admin</text><line style="stroke:#181818;stroke-width:0.5;" x1="265.98" x2="341.5044" y1="237.8969" y2="237.8969"/><line style="stroke:#181818;stroke-width:0.5;" x1="265.98" x2="341.5044" y1="245.8969" y2="245.8969"/></g><!--class sadmin--><g class="entity" data-entity="sadmin" data-source-line="13" data-uid="ent0008" id="entity_sadmin"><rect fill="#ADD8E6" height="42.2969" rx="2.5" ry="2.5" style="stroke:#181818;stroke-width:0.5;" width="106.1396" x="378.67" y="313.89"/><text fill="#000000" font-family="sans-serif" font-size="14" lengthAdjust="spacing" textLength="100.1396" x="381.67" y="331.8851">session admin</text><line style="stroke:#181818;stroke-width:0.5;" x1="379.67" x2="483.8096" y1="340.1869" y2="340.1869"/><line style="stroke:#181818;stroke-width:0.5;" x1="379.67" x2="483.8096" y1="348.1869" y2="348.1869"/></g><!--class designer--><g class="entity" data-entity="designer" data-source-line="14" data-uid="ent0009" id="entity_designer"><rect fill="#ADD8E6" height="42.2969" rx="2.5" ry="2.5" style="stroke:#181818;stroke-width:0.5;" width="110.9795" x="434.25" y="7"/><text fill="#000000" font-family="sans-serif" font-size="14" lengthAdjust="spacing" textLength="104.9795" x="437.25" y="24.9951">game designer</text><line style="stroke:#181818;stroke-width:0.5;" x1="435.25" x2="544.2295" y1="33.2969" y2="33.2969"/><line style="stroke:#181818;stroke-width:0.5;" x1="435.25" x2="544.2295" y1="41.2969" y2="41.2969"/></g><!--class facilitator--><g class="entity" data-entity="facilitator" data-source-line="15" data-uid="ent0010" id="entity_facilitator"><rect fill="#ADD8E6" height="42.2969" rx="2.5" ry="2.5" style="stroke:#181818;stroke-width:0.5;" width="72.7529" x="519.36" y="313.89"/><text fill="#000000" font-family="sans-serif" font-size="14" lengthAdjust="spacing" textLength="66.7529" x="522.36" y="331.8851">facilitator</text><line style="stroke:#181818;stroke-width:0.5;" x1="520.36" x2="591.1129" y1="340.1869" y2="340.1869"/><line style="stroke:#181818;stroke-width:0.5;" x1="520.36" x2="591.1129" y1="348.1869" y2="348.1869"/></g><!--class analyst--><g class="entity" data-entity="analyst" data-source-line="16" data-uid="ent0011" id="entity_analyst"><rect fill="#ADD8E6" height="42.2969" rx="2.5" ry="2.5" style="stroke:#181818;stroke-width:0.5;" width="92.9736" x="377.25" y="211.6"/><text fill="#000000" font-family="sans-serif" font-size="14" lengthAdjust="spacing" textLength="86.9736" x="380.25" y="229.5951">data analyst</text><line style="stroke:#181818;stroke-width:0.5;" x1="378.25" x2="469.2236" y1="237.8969" y2="237.8969"/><line style="stroke:#181818;stroke-width:0.5;" x1="378.25" x2="469.2236" y1="245.8969" y2="245.8969"/></g><!--class player--><g class="entity" data-entity="player" data-source-line="17" data-uid="ent0012" id="entity_player"><rect fill="#ADD8E6" height="42.2969" rx="2.5" ry="2.5" style="stroke:#181818;stroke-width:0.5;" width="94.1768" x="626.65" y="313.89"/><text fill="#000000" font-family="sans-serif" font-size="14" lengthAdjust="spacing" textLength="88.1768" x="629.65" y="331.8851">game player</text><line style="stroke:#181818;stroke-width:0.5;" x1="627.65" x2="719.8268" y1="340.1869" y2="340.1869"/><line style="stroke:#181818;stroke-width:0.5;" x1="627.65" x2="719.8268" y1="348.1869" y2="348.1869"/></g><!--link game to session--><g class="link" data-entity-1="game" data-entity-2="session" data-source-line="20" data-uid="lnk13" id="link_game_session"><path codeLine="20" d="M524.61,159.64 C524.61,177.08 524.61,175.7 524.61,193.22" fill="none" id="game-session" style="stroke:#181818;stroke-width:1;"/><line style="stroke:#181818;stroke-width:1;" x1="520.61" x2="528.61" y1="155.64" y2="155.64"/><line style="stroke:#181818;stroke-width:1;" x1="520.61" x2="528.61" y1="158.64" y2="158.64"/><line style="stroke:#181818;stroke-width:1;" x1="524.61" x2="524.61" y1="159.64" y2="151.64"/><line style="stroke:#181818;stroke-width:1;" x1="524.61" x2="530.61" y1="203.22" y2="211.22"/><line style="stroke:#181818;stroke-width:1;" x1="524.61" x2="518.61" y1="203.22" y2="211.22"/><line style="stroke:#181818;stroke-width:1;" x1="524.61" x2="524.61" y1="203.22" y2="211.22"/><ellipse cx="524.61" cy="197.22" fill="none" rx="4" ry="4" style="stroke:#181818;stroke-width:1;"/></g><!--link portal to padmin--><g class="link" data-entity-1="portal" data-entity-2="padmin" data-source-line="21" data-uid="lnk14" id="link_portal_padmin"><path codeLine="21" d="M98.82,159.64 C98.82,177.08 98.82,185.7 98.82,203.22" fill="none" id="portal-padmin" style="stroke:#181818;stroke-width:1;"/><line style="stroke:#181818;stroke-width:1;" x1="94.82" x2="102.82" y1="155.64" y2="155.64"/><line style="stroke:#181818;stroke-width:1;" x1="94.82" x2="102.82" y1="158.64" y2="158.64"/><line style="stroke:#181818;stroke-width:1;" x1="98.82" x2="98.82" y1="159.64" y2="151.64"/><line style="stroke:#181818;stroke-width:1;" x1="98.82" x2="106.82" y1="203.22" y2="211.22"/><line style="stroke:#181818;stroke-width:1;" x1="98.82" x2="90.82" y1="203.22" y2="211.22"/><line style="stroke:#181818;stroke-width:1;" x1="98.82" x2="98.82" y1="203.22" y2="211.22"/></g><!--link portal to organization--><g class="link" data-entity-1="portal" data-entity-2="organization" data-source-line="22" data-uid="lnk15" id="link_portal_organization"><path codeLine="22" d="M119.79,159.74 C119.79,189.83 119.79,233.19 119.79,233.19 C119.79,233.19 109.17,233.19 118.93,233.19" fill="none" id="portal-organization" style="stroke:#181818;stroke-width:1;"/><line style="stroke:#181818;stroke-width:1;" x1="115.79" x2="123.79" y1="155.74" y2="155.74"/><line style="stroke:#181818;stroke-width:1;" x1="115.79" x2="123.79" y1="158.74" y2="158.74"/><line style="stroke:#181818;stroke-width:1;" x1="119.79" x2="119.79" y1="159.74" y2="151.74"/><line style="stroke:#181818;stroke-width:1;" x1="128.93" x2="136.93" y1="233.19" y2="227.19"/><line style="stroke:#181818;stroke-width:1;" x1="128.93" x2="136.93" y1="233.19" y2="239.19"/><line style="stroke:#181818;stroke-width:1;" x1="128.93" x2="136.93" y1="233.19" y2="233.19"/><ellipse cx="122.93" cy="233.19" fill="none" rx="4" ry="4" style="stroke:#181818;stroke-width:1;"/></g><!--link organization to oadmin--><g class="link" data-entity-1="organization" data-entity-2="oadmin" data-source-line="23" data-uid="lnk16" id="link_organization_oadmin"><path codeLine="23" d="M238.82,233.19 C249.99,233.19 235.78,233.19 246.54,233.19" fill="none" id="organization-oadmin" style="stroke:#181818;stroke-width:1;"/><line style="stroke:#181818;stroke-width:1;" x1="234.82" x2="234.82" y1="237.19" y2="229.19"/><line style="stroke:#181818;stroke-width:1;" x1="237.82" x2="237.82" y1="237.19" y2="229.19"/><line style="stroke:#181818;stroke-width:1;" x1="238.82" x2="230.82" y1="233.19" y2="233.19"/><line style="stroke:#181818;stroke-width:1;" x1="256.54" x2="264.54" y1="233.19" y2="227.19"/><line style="stroke:#181818;stroke-width:1;" x1="256.54" x2="264.54" y1="233.19" y2="239.19"/><line style="stroke:#181818;stroke-width:1;" x1="256.54" x2="264.54" y1="233.19" y2="233.19"/><ellipse cx="250.54" cy="233.19" fill="none" rx="4" ry="4" style="stroke:#181818;stroke-width:1;"/></g><!--link organization to session--><g class="link" data-entity-1="organization" data-entity-2="session" data-source-line="24" data-uid="lnk17" id="link_organization_session"><path codeLine="24" d="M199.29,261.95 C199.29,272.15 199.29,274.19 199.29,274.19 C199.29,274.19 508.4,274.19 508.4,274.19 C508.4,274.19 508.4,282.15 508.4,271.95" fill="none" id="organization-session" style="stroke:#181818;stroke-width:1;"/><line style="stroke:#181818;stroke-width:1;" x1="195.29" x2="203.29" y1="257.95" y2="257.95"/><line style="stroke:#181818;stroke-width:1;" x1="195.29" x2="203.29" y1="260.95" y2="260.95"/><line style="stroke:#181818;stroke-width:1;" x1="199.29" x2="199.29" y1="261.95" y2="253.95"/><line style="stroke:#181818;stroke-width:1;" x1="508.4" x2="502.4" y1="261.95" y2="253.95"/><line style="stroke:#181818;stroke-width:1;" x1="508.4" x2="514.4" y1="261.95" y2="253.95"/><line style="stroke:#181818;stroke-width:1;" x1="508.4" x2="508.4" y1="261.95" y2="253.95"/><ellipse cx="508.4" cy="267.95" fill="none" rx="4" ry="4" style="stroke:#181818;stroke-width:1;"/></g><!--link organization to session--><g class="link" data-entity-1="organization" data-entity-2="session" data-source-line="28" data-uid="lnk21" id="link_organization_session"><path codeLine="28" d="M168.19,262.24 C168.19,279.95 168.19,294.19 168.19,294.19 C168.19,294.19 512.06,294.19 512.06,294.19 C512.06,294.19 512.06,279.95 512.06,262.24" fill="none" id="organization-session-1" style="stroke:#181818;stroke-width:1;"/><line style="stroke:#181818;stroke-width:1;" x1="164.19" x2="172.19" y1="258.24" y2="258.24"/><line style="stroke:#181818;stroke-width:1;" x1="164.19" x2="172.19" y1="261.24" y2="261.24"/><line style="stroke:#181818;stroke-width:1;" x1="168.19" x2="168.19" y1="262.24" y2="254.24"/><line style="stroke:#181818;stroke-width:1;" x1="512.06" x2="504.06" y1="262.24" y2="254.24"/><line style="stroke:#181818;stroke-width:1;" x1="512.06" x2="520.06" y1="262.24" y2="254.24"/><line style="stroke:#181818;stroke-width:1;" x1="512.06" x2="512.06" y1="262.24" y2="254.24"/></g><!--link session to player--><g class="link" data-entity-1="session" data-entity-2="player" data-source-line="25" data-uid="lnk18" id="link_session_player"><path codeLine="25" d="M599.43,261.97 C599.43,291.98 599.43,335.19 599.43,335.19 C599.43,335.19 603.69,335.19 618.26,335.19" fill="none" id="session-player" style="stroke:#181818;stroke-width:1;"/><line style="stroke:#181818;stroke-width:1;" x1="595.43" x2="603.43" y1="257.97" y2="257.97"/><line style="stroke:#181818;stroke-width:1;" x1="595.43" x2="603.43" y1="260.97" y2="260.97"/><line style="stroke:#181818;stroke-width:1;" x1="599.43" x2="599.43" y1="261.97" y2="253.97"/><line style="stroke:#181818;stroke-width:1;" x1="618.26" x2="626.26" y1="335.19" y2="327.19"/><line style="stroke:#181818;stroke-width:1;" x1="618.26" x2="626.26" y1="335.19" y2="343.19"/><line style="stroke:#181818;stroke-width:1;" x1="618.26" x2="626.26" y1="335.19" y2="335.19"/></g><!--link session to facilitator--><g class="link" data-entity-1="session" data-entity-2="facilitator" data-source-line="26" data-uid="lnk19" id="link_session_facilitator"><path codeLine="26" d="M555.74,261.94 C555.74,279.38 555.74,287.99 555.74,305.52" fill="none" id="session-facilitator" style="stroke:#181818;stroke-width:1;"/><line style="stroke:#181818;stroke-width:1;" x1="551.74" x2="559.74" y1="257.94" y2="257.94"/><line style="stroke:#181818;stroke-width:1;" x1="551.74" x2="559.74" y1="260.94" y2="260.94"/><line style="stroke:#181818;stroke-width:1;" x1="555.74" x2="555.74" y1="261.94" y2="253.94"/><line style="stroke:#181818;stroke-width:1;" x1="555.74" x2="563.74" y1="305.52" y2="313.52"/><line style="stroke:#181818;stroke-width:1;" x1="555.74" x2="547.74" y1="305.52" y2="313.52"/><line style="stroke:#181818;stroke-width:1;" x1="555.74" x2="555.74" y1="305.52" y2="313.52"/></g><!--link session to sadmin--><g class="link" data-entity-1="session" data-entity-2="sadmin" data-source-line="27" data-uid="lnk20" id="link_session_sadmin"><path codeLine="27" d="M515.71,261.97 C515.71,291.98 515.71,335.19 515.71,335.19 C515.71,335.19 519.58,335.19 502.92,335.19" fill="none" id="session-sadmin" style="stroke:#181818;stroke-width:1;"/><line style="stroke:#181818;stroke-width:1;" x1="511.71" x2="519.71" y1="257.97" y2="257.97"/><line style="stroke:#181818;stroke-width:1;" x1="511.71" x2="519.71" y1="260.97" y2="260.97"/><line style="stroke:#181818;stroke-width:1;" x1="515.71" x2="515.71" y1="261.97" y2="253.97"/><line style="stroke:#181818;stroke-width:1;" x1="492.92" x2="484.92" y1="335.19" y2="341.19"/><line style="stroke:#181818;stroke-width:1;" x1="492.92" x2="484.92" y1="335.19" y2="329.19"/><line style="stroke:#181818;stroke-width:1;" x1="492.92" x2="484.92" y1="335.19" y2="335.19"/><ellipse cx="498.92" cy="335.19" fill="none" rx="4" ry="4" style="stroke:#181818;stroke-width:1;"/></g><!--link designer to game--><g class="link" data-entity-1="designer" data-entity-2="game" data-source-line="29" data-uid="lnk22" id="link_designer_game"><path codeLine="29" d="M489.74,67.35 C489.74,84.79 489.74,73.4 489.74,90.93" fill="none" id="designer-game" style="stroke:#181818;stroke-width:1;"/><line style="stroke:#181818;stroke-width:1;" x1="489.74" x2="483.74" y1="57.35" y2="49.35"/><line style="stroke:#181818;stroke-width:1;" x1="489.74" x2="495.74" y1="57.35" y2="49.35"/><line style="stroke:#181818;stroke-width:1;" x1="489.74" x2="489.74" y1="57.35" y2="49.35"/><ellipse cx="489.74" cy="63.35" fill="none" rx="4" ry="4" style="stroke:#181818;stroke-width:1;"/><line style="stroke:#181818;stroke-width:1;" x1="489.74" x2="495.74" y1="100.93" y2="108.93"/><line style="stroke:#181818;stroke-width:1;" x1="489.74" x2="483.74" y1="100.93" y2="108.93"/><line style="stroke:#181818;stroke-width:1;" x1="489.74" x2="489.74" y1="100.93" y2="108.93"/><ellipse cx="489.74" cy="94.93" fill="none" rx="4" ry="4" style="stroke:#181818;stroke-width:1;"/></g><!--link game to analyst--><g class="link" data-entity-1="game" data-entity-2="analyst" data-source-line="30" data-uid="lnk23" id="link_game_analyst"><path codeLine="30" d="M452.62,169.64 C452.62,187.08 452.62,175.7 452.62,193.22" fill="none" id="game-analyst" style="stroke:#181818;stroke-width:1;"/><line style="stroke:#181818;stroke-width:1;" x1="452.62" x2="446.62" y1="159.64" y2="151.64"/><line style="stroke:#181818;stroke-width:1;" x1="452.62" x2="458.62" y1="159.64" y2="151.64"/><line style="stroke:#181818;stroke-width:1;" x1="452.62" x2="452.62" y1="159.64" y2="151.64"/><ellipse cx="452.62" cy="165.64" fill="none" rx="4" ry="4" style="stroke:#181818;stroke-width:1;"/><line style="stroke:#181818;stroke-width:1;" x1="452.62" x2="458.62" y1="203.22" y2="211.22"/><line style="stroke:#181818;stroke-width:1;" x1="452.62" x2="446.62" y1="203.22" y2="211.22"/><line style="stroke:#181818;stroke-width:1;" x1="452.62" x2="452.62" y1="203.22" y2="211.22"/><ellipse cx="452.62" cy="197.22" fill="none" rx="4" ry="4" style="stroke:#181818;stroke-width:1;"/></g><!--SRC=[VPBBbeCW38RtF4LEPz6LBp1l4p75J14ym2oSjky-oiNILjs5vFzovGpIcWihqND78Db9JS9VsOpeS03DXi8q4bWNUYl46MpxGp9uGIPmcE0qpX7K9q0FoOIl5kNrMxFgWt94PfLQfz3m7mQs9WArOnzJE12myG6DfCX5px7Ua_UbJBO_YRSX0Bk14p96ioPQ_Klr99NORefXLPVwJy8VfuyJTEHP6N8HA8zTv8AIDGSCDW7LUvVfC22WGJtv4A5i7_SrQfnoLydyaC-_n96EL_KYClTxqzXREOJ8wrwyjxpgsZShwvyXNhx9B5ZY2Tg8b1fbwRb8xFJDMUte9R9asSxVFFEl5tdOI2npfc6p8o_p7m00]--></g></svg>