<svg xmlns="http://www.w3.org/2000/svg" xmlns:xlink="http://www.w3.org/1999/xlink" contentStyleType="text/css" data-diagram-type="CLASS" height="287px" preserveAspectRatio="none" style="width:622px;height:287px;background:#FFFFFF;" version="1.1" viewBox="0 0 622 287" width="622px" zoomAndPan="magnify"><defs/><g><!--class portal--><g class="entity" data-entity="portal" data-source-line="7" data-uid="ent0002" id="entity_portal"><rect fill="#F1F1F1" height="42.2969" rx="2.5" ry="2.5" style="stroke:#181818;stroke-width:0.5;" width="47.166" x="38.91" y="84"/><text fill="#000000" font-family="sans-serif" font-size="14" lengthAdjust="spacing" textLength="41.166" x="41.91" y="101.9951">portal</text><line style="stroke:#181818;stroke-width:0.5;" x1="39.91" x2="85.076" y1="110.2969" y2="110.2969"/><line style="stroke:#181818;stroke-width:0.5;" x1="39.91" x2="85.076" y1="118.2969" y2="118.2969"/></g><!--class organization--><g class="entity" data-entity="organization" data-source-line="8" data-uid="ent0003" id="entity_organization"><rect fill="#F1F1F1" height="42.2969" rx="2.5" ry="2.5" style="stroke:#181818;stroke-width:0.5;" width="93.2949" x="186.07" y="7"/><text fill="#000000" font-family="sans-serif" font-size="14" lengthAdjust="spacing" textLength="87.2949" x="189.07" y="24.9951">organization</text><line style="stroke:#181818;stroke-width:0.5;" x1="187.07" x2="278.3649" y1="33.2969" y2="33.2969"/><line style="stroke:#181818;stroke-width:0.5;" x1="187.07" x2="278.3649" y1="41.2969" y2="41.2969"/></g><!--class game--><g class="entity" data-entity="game" data-source-line="9" data-uid="ent0004" id="entity_game"><rect fill="#F1F1F1" height="42.2969" rx="2.5" ry="2.5" style="stroke:#181818;stroke-width:0.5;" width="109.4756" x="177.98" y="238"/><text fill="#000000" font-family="sans-serif" font-size="14" lengthAdjust="spacing" textLength="103.4756" x="180.98" y="255.9951">game instance</text><line style="stroke:#181818;stroke-width:0.5;" x1="178.98" x2="286.4556" y1="264.2969" y2="264.2969"/><line style="stroke:#181818;stroke-width:0.5;" x1="178.98" x2="286.4556" y1="272.2969" y2="272.2969"/></g><!--class session--><g class="entity" data-entity="session" data-source-line="10" data-uid="ent0005" id="entity_session"><rect fill="#F1F1F1" height="42.2969" rx="2.5" ry="2.5" style="stroke:#181818;stroke-width:0.5;" width="101.9902" x="347.46" y="81"/><text fill="#000000" font-family="sans-serif" font-size="14" lengthAdjust="spacing" textLength="95.9902" x="350.46" y="98.9951">game session</text><line style="stroke:#181818;stroke-width:0.5;" x1="348.46" x2="448.4502" y1="107.2969" y2="107.2969"/><line style="stroke:#181818;stroke-width:0.5;" x1="348.46" x2="448.4502" y1="115.2969" y2="115.2969"/></g><!--class padmin--><g class="entity" data-entity="padmin" data-source-line="12" data-uid="ent0006" id="entity_padmin"><rect fill="#F1F1F1" height="42.2969" rx="2.5" ry="2.5" style="stroke:#181818;stroke-width:0.5;" width="95.4824" x="184.98" y="161"/><text fill="#000000" font-family="sans-serif" font-size="14" lengthAdjust="spacing" textLength="89.4824" x="187.98" y="178.9951">portal admin</text><line style="stroke:#181818;stroke-width:0.5;" x1="185.98" x2="279.4624" y1="187.2969" y2="187.2969"/><line style="stroke:#181818;stroke-width:0.5;" x1="185.98" x2="279.4624" y1="195.2969" y2="195.2969"/></g><!--class oadmin--><g class="entity" data-entity="oadmin" data-source-line="13" data-uid="ent0007" id="entity_oadmin"><rect fill="#F1F1F1" height="42.2969" rx="2.5" ry="2.5" style="stroke:#181818;stroke-width:0.5;" width="77.5244" x="193.96" y="84"/><text fill="#000000" font-family="sans-serif" font-size="14" lengthAdjust="spacing" textLength="71.5244" x="196.96" y="101.9951">org admin</text><line style="stroke:#181818;stroke-width:0.5;" x1="194.96" x2="270.4844" y1="110.2969" y2="110.2969"/><line style="stroke:#181818;stroke-width:0.5;" x1="194.96" x2="270.4844" y1="118.2969" y2="118.2969"/></g><!--class sadmin--><g class="entity" data-entity="sadmin" data-source-line="14" data-uid="ent0008" id="entity_sadmin"><rect fill="#F1F1F1" height="42.2969" rx="2.5" ry="2.5" style="stroke:#181818;stroke-width:0.5;" width="106.1396" x="509.45" y="25"/><text fill="#000000" font-family="sans-serif" font-size="14" lengthAdjust="spacing" textLength="100.1396" x="512.45" y="42.9951">session admin</text><line style="stroke:#181818;stroke-width:0.5;" x1="510.45" x2="614.5896" y1="51.2969" y2="51.2969"/><line style="stroke:#181818;stroke-width:0.5;" x1="510.45" x2="614.5896" y1="59.2969" y2="59.2969"/></g><!--class designer--><g class="entity" data-entity="designer" data-source-line="15" data-uid="ent0009" id="entity_designer"><rect fill="#F1F1F1" height="42.2969" rx="2.5" ry="2.5" style="stroke:#181818;stroke-width:0.5;" width="110.9795" x="7" y="238"/><text fill="#000000" font-family="sans-serif" font-size="14" lengthAdjust="spacing" textLength="104.9795" x="10" y="255.9951">game designer</text><line style="stroke:#181818;stroke-width:0.5;" x1="8" x2="116.9795" y1="264.2969" y2="264.2969"/><line style="stroke:#181818;stroke-width:0.5;" x1="8" x2="116.9795" y1="272.2969" y2="272.2969"/></g><!--class facilitator--><g class="entity" data-entity="facilitator" data-source-line="16" data-uid="ent0010" id="entity_facilitator"><rect fill="#F1F1F1" height="42.2969" rx="2.5" ry="2.5" style="stroke:#181818;stroke-width:0.5;" width="72.7529" x="526.14" y="232"/><text fill="#000000" font-family="sans-serif" font-size="14" lengthAdjust="spacing" textLength="66.7529" x="529.14" y="249.9951">facilitator</text><line style="stroke:#181818;stroke-width:0.5;" x1="527.14" x2="597.8929" y1="258.2969" y2="258.2969"/><line style="stroke:#181818;stroke-width:0.5;" x1="527.14" x2="597.8929" y1="266.2969" y2="266.2969"/></g><!--class analyst--><g class="entity" data-entity="analyst" data-source-line="17" data-uid="ent0011" id="entity_analyst"><rect fill="#F1F1F1" height="42.2969" rx="2.5" ry="2.5" style="stroke:#181818;stroke-width:0.5;" width="92.9736" x="351.96" y="229"/><text fill="#000000" font-family="sans-serif" font-size="14" lengthAdjust="spacing" textLength="86.9736" x="354.96" y="246.9951">data analyst</text><line style="stroke:#181818;stroke-width:0.5;" x1="352.96" x2="443.9336" y1="255.2969" y2="255.2969"/><line style="stroke:#181818;stroke-width:0.5;" x1="352.96" x2="443.9336" y1="263.2969" y2="263.2969"/></g><!--class player--><g class="entity" data-entity="player" data-source-line="18" data-uid="ent0012" id="entity_player"><rect fill="#F1F1F1" height="42.2969" rx="2.5" ry="2.5" style="stroke:#181818;stroke-width:0.5;" width="94.1768" x="515.43" y="120"/><text fill="#000000" font-family="sans-serif" font-size="14" lengthAdjust="spacing" textLength="88.1768" x="518.43" y="137.9951">game player</text><line style="stroke:#181818;stroke-width:0.5;" x1="516.43" x2="608.6068" y1="146.2969" y2="146.2969"/><line style="stroke:#181818;stroke-width:0.5;" x1="516.43" x2="608.6068" y1="154.2969" y2="154.2969"/></g><!--link portal to padmin--><g class="link" data-entity-1="portal" data-entity-2="padmin" data-source-line="21" data-uid="lnk13" id="link_portal_padmin"><path codeLine="21" d="M94.4,112.2 C131.21,112.2 189.58,112.2 189.58,112.2 C189.58,112.2 189.58,132.21 189.58,152.78" fill="none" id="portal-padmin" style="stroke:#181818;stroke-width:1;"/><line style="stroke:#181818;stroke-width:1;" x1="90.4" x2="90.4" y1="116.2" y2="108.2"/><line style="stroke:#181818;stroke-width:1;" x1="93.4" x2="93.4" y1="116.2" y2="108.2"/><line style="stroke:#181818;stroke-width:1;" x1="94.4" x2="86.4" y1="112.2" y2="112.2"/><line style="stroke:#181818;stroke-width:1;" x1="189.58" x2="197.58" y1="152.78" y2="160.78"/><line style="stroke:#181818;stroke-width:1;" x1="189.58" x2="181.58" y1="152.78" y2="160.78"/><line style="stroke:#181818;stroke-width:1;" x1="189.58" x2="189.58" y1="152.78" y2="160.78"/></g><!--link organization to oadmin--><g class="link" data-entity-1="organization" data-entity-2="oadmin" data-source-line="22" data-uid="lnk14" id="link_organization_oadmin"><path codeLine="22" d="M233.58,57.6 C233.58,68.19 233.58,54.94 233.58,65.55" fill="none" id="organization-oadmin" style="stroke:#181818;stroke-width:1;"/><line style="stroke:#181818;stroke-width:1;" x1="229.58" x2="237.58" y1="53.6" y2="53.6"/><line style="stroke:#181818;stroke-width:1;" x1="229.58" x2="237.58" y1="56.6" y2="56.6"/><line style="stroke:#181818;stroke-width:1;" x1="233.58" x2="233.58" y1="57.6" y2="49.6"/><line style="stroke:#181818;stroke-width:1;" x1="233.58" x2="239.58" y1="75.55" y2="83.55"/><line style="stroke:#181818;stroke-width:1;" x1="233.58" x2="227.58" y1="75.55" y2="83.55"/><line style="stroke:#181818;stroke-width:1;" x1="233.58" x2="233.58" y1="75.55" y2="83.55"/><ellipse cx="233.58" cy="69.55" fill="none" rx="4" ry="4" style="stroke:#181818;stroke-width:1;"/></g><!--link portal to organization--><g class="link" data-entity-1="portal" data-entity-2="organization" data-source-line="23" data-uid="lnk15" id="link_portal_organization"><path codeLine="23" d="M94.47,98.1 C131.8,98.1 191.58,98.1 191.58,98.1 C191.58,98.1 191.58,88.09 191.58,67.52" fill="none" id="portal-organization" style="stroke:#181818;stroke-width:1;"/><line style="stroke:#181818;stroke-width:1;" x1="90.47" x2="90.47" y1="102.1" y2="94.1"/><line style="stroke:#181818;stroke-width:1;" x1="93.47" x2="93.47" y1="102.1" y2="94.1"/><line style="stroke:#181818;stroke-width:1;" x1="94.47" x2="86.47" y1="98.1" y2="98.1"/><line style="stroke:#181818;stroke-width:1;" x1="191.58" x2="185.58" y1="57.52" y2="49.52"/><line style="stroke:#181818;stroke-width:1;" x1="191.58" x2="197.58" y1="57.52" y2="49.52"/><line style="stroke:#181818;stroke-width:1;" x1="191.58" x2="191.58" y1="57.52" y2="49.52"/><ellipse cx="191.58" cy="63.52" fill="none" rx="4" ry="4" style="stroke:#181818;stroke-width:1;"/></g><!--link designer to game--><g class="link" data-entity-1="designer" data-entity-2="game" data-source-line="24" data-uid="lnk16" id="link_designer_game"><path codeLine="24" d="M136.23,259.15 C155.33,259.15 140.68,259.15 159.72,259.15" fill="none" id="designer-game" style="stroke:#181818;stroke-width:1;"/><line style="stroke:#181818;stroke-width:1;" x1="126.23" x2="118.23" y1="259.15" y2="265.15"/><line style="stroke:#181818;stroke-width:1;" x1="126.23" x2="118.23" y1="259.15" y2="253.15"/><line style="stroke:#181818;stroke-width:1;" x1="126.23" x2="118.23" y1="259.15" y2="259.15"/><ellipse cx="132.23" cy="259.15" fill="none" rx="4" ry="4" style="stroke:#181818;stroke-width:1;"/><line style="stroke:#181818;stroke-width:1;" x1="169.72" x2="177.72" y1="259.15" y2="253.15"/><line style="stroke:#181818;stroke-width:1;" x1="169.72" x2="177.72" y1="259.15" y2="265.15"/><line style="stroke:#181818;stroke-width:1;" x1="169.72" x2="177.72" y1="259.15" y2="259.15"/><ellipse cx="163.72" cy="259.15" fill="none" rx="4" ry="4" style="stroke:#181818;stroke-width:1;"/></g><!--link game to session--><g class="link" data-entity-1="game" data-entity-2="session" data-source-line="25" data-uid="lnk17" id="link_game_session"><path codeLine="25" d="M295.91,254.65 C307.14,254.65 307.58,254.65 307.58,254.65 C307.58,254.65 307.58,113.48 307.58,113.48 C307.58,113.48 308.56,113.48 329.18,113.48" fill="none" id="game-session" style="stroke:#181818;stroke-width:1;"/><line style="stroke:#181818;stroke-width:1;" x1="291.91" x2="291.91" y1="258.65" y2="250.65"/><line style="stroke:#181818;stroke-width:1;" x1="294.91" x2="294.91" y1="258.65" y2="250.65"/><line style="stroke:#181818;stroke-width:1;" x1="295.91" x2="287.91" y1="254.65" y2="254.65"/><line style="stroke:#181818;stroke-width:1;" x1="339.18" x2="347.18" y1="113.48" y2="107.48"/><line style="stroke:#181818;stroke-width:1;" x1="339.18" x2="347.18" y1="113.48" y2="119.48"/><line style="stroke:#181818;stroke-width:1;" x1="339.18" x2="347.18" y1="113.48" y2="113.48"/><ellipse cx="333.18" cy="113.48" fill="none" rx="4" ry="4" style="stroke:#181818;stroke-width:1;"/></g><!--link session to organization--><g class="link" data-entity-1="session" data-entity-2="organization" data-source-line="26" data-uid="lnk18" id="link_session_organization"><path codeLine="26" d="M339.19,93.83 C306.25,93.83 277.58,93.83 277.58,93.83 C277.58,93.83 277.58,76.81 277.58,57.66" fill="none" id="session-organization" style="stroke:#181818;stroke-width:1;"/><line style="stroke:#181818;stroke-width:1;" x1="339.19" x2="347.19" y1="93.83" y2="85.83"/><line style="stroke:#181818;stroke-width:1;" x1="339.19" x2="347.19" y1="93.83" y2="101.83"/><line style="stroke:#181818;stroke-width:1;" x1="339.19" x2="347.19" y1="93.83" y2="93.83"/><line style="stroke:#181818;stroke-width:1;" x1="273.58" x2="281.58" y1="53.66" y2="53.66"/><line style="stroke:#181818;stroke-width:1;" x1="273.58" x2="281.58" y1="56.66" y2="56.66"/><line style="stroke:#181818;stroke-width:1;" x1="277.58" x2="277.58" y1="57.66" y2="49.66"/></g><!--link organization to session--><g class="link" data-entity-1="organization" data-entity-2="session" data-source-line="34" data-uid="lnk26" id="link_organization_session"><path codeLine="34" d="M274.58,57.58 C274.58,79.91 274.58,103.65 274.58,103.65 C274.58,103.65 304.96,103.65 339,103.65" fill="none" id="organization-session" style="stroke:#181818;stroke-width:1;"/><line style="stroke:#181818;stroke-width:1;" x1="270.58" x2="278.58" y1="53.58" y2="53.58"/><line style="stroke:#181818;stroke-width:1;" x1="270.58" x2="278.58" y1="56.58" y2="56.58"/><line style="stroke:#181818;stroke-width:1;" x1="274.58" x2="274.58" y1="57.58" y2="49.58"/><line style="stroke:#181818;stroke-width:1;" x1="339" x2="347" y1="103.65" y2="95.65"/><line style="stroke:#181818;stroke-width:1;" x1="339" x2="347" y1="103.65" y2="111.65"/><line style="stroke:#181818;stroke-width:1;" x1="339" x2="347" y1="103.65" y2="103.65"/></g><!--link game to player--><g class="link" data-entity-1="game" data-entity-2="player" data-source-line="27" data-uid="lnk19" id="link_game_player"><path codeLine="27" d="M295.9,262.98 C316.77,262.98 327.58,262.98 327.58,262.98 C327.58,262.98 327.58,143.65 327.58,143.65 C327.58,143.65 428.33,143.65 496.97,143.65" fill="none" id="game-player" style="stroke:#181818;stroke-width:1;"/><line style="stroke:#181818;stroke-width:1;" x1="291.9" x2="291.9" y1="266.98" y2="258.98"/><line style="stroke:#181818;stroke-width:1;" x1="294.9" x2="294.9" y1="266.98" y2="258.98"/><line style="stroke:#181818;stroke-width:1;" x1="295.9" x2="287.9" y1="262.98" y2="262.98"/><line style="stroke:#181818;stroke-width:1;" x1="506.97" x2="514.97" y1="143.65" y2="137.65"/><line style="stroke:#181818;stroke-width:1;" x1="506.97" x2="514.97" y1="143.65" y2="149.65"/><line style="stroke:#181818;stroke-width:1;" x1="506.97" x2="514.97" y1="143.65" y2="143.65"/><ellipse cx="500.97" cy="143.65" fill="none" rx="4" ry="4" style="stroke:#181818;stroke-width:1;"/></g><!--link game to facilitator--><g class="link" data-entity-1="game" data-entity-2="facilitator" data-source-line="28" data-uid="lnk20" id="link_game_facilitator"><path codeLine="28" d="M233.58,229.65 C233.58,218.9 233.58,216.15 233.58,216.15 C233.58,216.15 562.58,216.15 562.58,216.15 C562.58,216.15 562.58,205.49 562.58,213.63" fill="none" id="game-facilitator" style="stroke:#181818;stroke-width:1;"/><line style="stroke:#181818;stroke-width:1;" x1="237.58" x2="229.58" y1="233.65" y2="233.65"/><line style="stroke:#181818;stroke-width:1;" x1="237.58" x2="229.58" y1="230.65" y2="230.65"/><line style="stroke:#181818;stroke-width:1;" x1="233.58" x2="233.58" y1="229.65" y2="237.65"/><line style="stroke:#181818;stroke-width:1;" x1="562.58" x2="568.58" y1="223.63" y2="231.63"/><line style="stroke:#181818;stroke-width:1;" x1="562.58" x2="556.58" y1="223.63" y2="231.63"/><line style="stroke:#181818;stroke-width:1;" x1="562.58" x2="562.58" y1="223.63" y2="231.63"/><ellipse cx="562.58" cy="217.63" fill="none" rx="4" ry="4" style="stroke:#181818;stroke-width:1;"/></g><!--link game to analyst--><g class="link" data-entity-1="game" data-entity-2="analyst" data-source-line="29" data-uid="lnk21" id="link_game_analyst"><path codeLine="29" d="M305.9,246.33 C326.53,246.33 313.73,246.33 333.54,246.33" fill="none" id="game-analyst" style="stroke:#181818;stroke-width:1;"/><line style="stroke:#181818;stroke-width:1;" x1="295.9" x2="287.9" y1="246.33" y2="252.33"/><line style="stroke:#181818;stroke-width:1;" x1="295.9" x2="287.9" y1="246.33" y2="240.33"/><line style="stroke:#181818;stroke-width:1;" x1="295.9" x2="287.9" y1="246.33" y2="246.33"/><ellipse cx="301.9" cy="246.33" fill="none" rx="4" ry="4" style="stroke:#181818;stroke-width:1;"/><line style="stroke:#181818;stroke-width:1;" x1="343.54" x2="351.54" y1="246.33" y2="240.33"/><line style="stroke:#181818;stroke-width:1;" x1="343.54" x2="351.54" y1="246.33" y2="252.33"/><line style="stroke:#181818;stroke-width:1;" x1="343.54" x2="351.54" y1="246.33" y2="246.33"/><ellipse cx="337.54" cy="246.33" fill="none" rx="4" ry="4" style="stroke:#181818;stroke-width:1;"/></g><!--link session to player--><g class="link" data-entity-1="session" data-entity-2="player" data-source-line="30" data-uid="lnk22" id="link_session_player"><path codeLine="30" d="M457.93,94 C506.07,94 562.58,94 562.58,94 C562.58,94 562.58,99.11 562.58,111.51" fill="none" id="session-player" style="stroke:#181818;stroke-width:1;"/><line style="stroke:#181818;stroke-width:1;" x1="453.93" x2="453.93" y1="98" y2="90"/><line style="stroke:#181818;stroke-width:1;" x1="456.93" x2="456.93" y1="98" y2="90"/><line style="stroke:#181818;stroke-width:1;" x1="457.93" x2="449.93" y1="94" y2="94"/><line style="stroke:#181818;stroke-width:1;" x1="562.58" x2="570.58" y1="111.51" y2="119.51"/><line style="stroke:#181818;stroke-width:1;" x1="562.58" x2="554.58" y1="111.51" y2="119.51"/><line style="stroke:#181818;stroke-width:1;" x1="562.58" x2="562.58" y1="111.51" y2="119.51"/></g><!--link session to facilitator--><g class="link" data-entity-1="session" data-entity-2="facilitator" data-source-line="31" data-uid="lnk23" id="link_session_facilitator"><path codeLine="31" d="M457.83,107 C473.94,107 479.58,107 479.58,107 C479.58,107 479.58,251.65 479.58,251.65 C479.58,251.65 495.68,251.65 517.9,251.65" fill="none" id="session-facilitator" style="stroke:#181818;stroke-width:1;"/><line style="stroke:#181818;stroke-width:1;" x1="453.83" x2="453.83" y1="111" y2="103"/><line style="stroke:#181818;stroke-width:1;" x1="456.83" x2="456.83" y1="111" y2="103"/><line style="stroke:#181818;stroke-width:1;" x1="457.83" x2="449.83" y1="107" y2="107"/><line style="stroke:#181818;stroke-width:1;" x1="517.9" x2="525.9" y1="251.65" y2="243.65"/><line style="stroke:#181818;stroke-width:1;" x1="517.9" x2="525.9" y1="251.65" y2="259.65"/><line style="stroke:#181818;stroke-width:1;" x1="517.9" x2="525.9" y1="251.65" y2="251.65"/></g><!--link session to sadmin--><g class="link" data-entity-1="session" data-entity-2="sadmin" data-source-line="32" data-uid="lnk24" id="link_session_sadmin"><path codeLine="32" d="M398.58,72.74 C398.58,61.61 398.58,58.3 398.58,58.3 C398.58,58.3 443.43,58.3 491.29,58.3" fill="none" id="session-sadmin" style="stroke:#181818;stroke-width:1;"/><line style="stroke:#181818;stroke-width:1;" x1="402.58" x2="394.58" y1="76.74" y2="76.74"/><line style="stroke:#181818;stroke-width:1;" x1="402.58" x2="394.58" y1="73.74" y2="73.74"/><line style="stroke:#181818;stroke-width:1;" x1="398.58" x2="398.58" y1="72.74" y2="80.74"/><line style="stroke:#181818;stroke-width:1;" x1="501.29" x2="509.29" y1="58.3" y2="52.3"/><line style="stroke:#181818;stroke-width:1;" x1="501.29" x2="509.29" y1="58.3" y2="64.3"/><line style="stroke:#181818;stroke-width:1;" x1="501.29" x2="509.29" y1="58.3" y2="58.3"/><ellipse cx="495.29" cy="58.3" fill="none" rx="4" ry="4" style="stroke:#181818;stroke-width:1;"/></g><!--link organization to sadmin--><g class="link" data-entity-1="organization" data-entity-2="sadmin" data-source-line="33" data-uid="lnk25" id="link_organization_sadmin"><path codeLine="33" d="M287.62,37.15 C348.26,37.15 437.61,37.15 501.22,37.15" fill="none" id="organization-sadmin" style="stroke:#181818;stroke-width:1;"/><line style="stroke:#181818;stroke-width:1;" x1="283.62" x2="283.62" y1="41.15" y2="33.15"/><line style="stroke:#181818;stroke-width:1;" x1="286.62" x2="286.62" y1="41.15" y2="33.15"/><line style="stroke:#181818;stroke-width:1;" x1="287.62" x2="279.62" y1="37.15" y2="37.15"/><line style="stroke:#181818;stroke-width:1;" x1="501.22" x2="509.22" y1="37.15" y2="29.15"/><line style="stroke:#181818;stroke-width:1;" x1="501.22" x2="509.22" y1="37.15" y2="45.15"/><line style="stroke:#181818;stroke-width:1;" x1="501.22" x2="509.22" y1="37.15" y2="37.15"/></g><!--SRC=[VP11TeKW34Ndh2BdJnovg1IZfaNmG2PMtNiLqCAtfxEGN5vUNWFQsPu7DN97eDbhGofyiPtHumI6BSao4pWlerE6UW5nu7aO1Jhsf8MTLQe1z_5vF88YAomBlERZ1veNO81KmWhxFNL-GClVUFwEJDceo04d0hP1q6gAQEmya40XN6AvZj2R8S1kuaJDiNotLG3k1k0cBkbVAZnbeg6E0W-MV8IkHuNrgDcmeBW45U-Awr0GqA9PWaGmry-Tiy4bRqnbYg01JoP66rIEOTlQTiqHg2hyO-BMV7j9dys2K_T9kul3qu2ABZATer9NP7lRRbkjKUB9SDKg0adzl2hVVoldOv90tImboidfx-_ZstydIU87]--></g></svg>