<svg xmlns="http://www.w3.org/2000/svg" xmlns:xlink="http://www.w3.org/1999/xlink" contentStyleType="text/css" data-diagram-type="CLASS" height="248px" preserveAspectRatio="none" style="width:622px;height:248px;background:#FFFFFF;" version="1.1" viewBox="0 0 622 248" width="622px" zoomAndPan="magnify"><defs/><g><!--class portal--><g class="entity" data-entity="portal" data-source-line="7" data-uid="ent0002" id="entity_portal"><rect fill="#90EE90" height="42.2969" rx="2.5" ry="2.5" style="stroke:#181818;stroke-width:0.5;" width="47.166" x="38.91" y="84"/><text fill="#000000" font-family="sans-serif" font-size="14" lengthAdjust="spacing" textLength="41.166" x="41.91" y="101.9951">portal</text><line style="stroke:#181818;stroke-width:0.5;" x1="39.91" x2="85.076" y1="110.2969" y2="110.2969"/><line style="stroke:#181818;stroke-width:0.5;" x1="39.91" x2="85.076" y1="118.2969" y2="118.2969"/></g><!--class organization--><g class="entity" data-entity="organization" data-source-line="8" data-uid="ent0003" id="entity_organization"><rect fill="#90EE90" height="42.2969" rx="2.5" ry="2.5" style="stroke:#181818;stroke-width:0.5;" width="93.2949" x="186.07" y="45"/><text fill="#000000" font-family="sans-serif" font-size="14" lengthAdjust="spacing" textLength="87.2949" x="189.07" y="62.9951">organization</text><line style="stroke:#181818;stroke-width:0.5;" x1="187.07" x2="278.3649" y1="71.2969" y2="71.2969"/><line style="stroke:#181818;stroke-width:0.5;" x1="187.07" x2="278.3649" y1="79.2969" y2="79.2969"/></g><!--class game--><g class="entity" data-entity="game" data-source-line="9" data-uid="ent0004" id="entity_game"><rect fill="#90EE90" height="42.2969" rx="2.5" ry="2.5" style="stroke:#181818;stroke-width:0.5;" width="109.4756" x="177.98" y="199"/><text fill="#000000" font-family="sans-serif" font-size="14" lengthAdjust="spacing" textLength="103.4756" x="180.98" y="216.9951">game instance</text><line style="stroke:#181818;stroke-width:0.5;" x1="178.98" x2="286.4556" y1="225.2969" y2="225.2969"/><line style="stroke:#181818;stroke-width:0.5;" x1="178.98" x2="286.4556" y1="233.2969" y2="233.2969"/></g><!--class session--><g class="entity" data-entity="session" data-source-line="10" data-uid="ent0005" id="entity_session"><rect fill="#90EE90" height="42.2969" rx="2.5" ry="2.5" style="stroke:#181818;stroke-width:0.5;" width="101.9902" x="347.46" y="84"/><text fill="#000000" font-family="sans-serif" font-size="14" lengthAdjust="spacing" textLength="95.9902" x="350.46" y="101.9951">game session</text><line style="stroke:#181818;stroke-width:0.5;" x1="348.46" x2="448.4502" y1="110.2969" y2="110.2969"/><line style="stroke:#181818;stroke-width:0.5;" x1="348.46" x2="448.4502" y1="118.2969" y2="118.2969"/></g><!--class padmin--><g class="entity" data-entity="padmin" data-source-line="12" data-uid="ent0006" id="entity_padmin"><rect fill="#ADD8E6" height="42.2969" rx="2.5" ry="2.5" style="stroke:#181818;stroke-width:0.5;" width="95.4824" x="184.98" y="122"/><text fill="#000000" font-family="sans-serif" font-size="14" lengthAdjust="spacing" textLength="89.4824" x="187.98" y="139.9951">portal admin</text><line style="stroke:#181818;stroke-width:0.5;" x1="185.98" x2="279.4624" y1="148.2969" y2="148.2969"/><line style="stroke:#181818;stroke-width:0.5;" x1="185.98" x2="279.4624" y1="156.2969" y2="156.2969"/></g><!--class oadmin--><g class="entity" data-entity="oadmin" data-source-line="13" data-uid="ent0007" id="entity_oadmin"><rect fill="#ADD8E6" height="42.2969" rx="2.5" ry="2.5" style="stroke:#181818;stroke-width:0.5;" width="77.5244" x="359.69" y="7"/><text fill="#000000" font-family="sans-serif" font-size="14" lengthAdjust="spacing" textLength="71.5244" x="362.69" y="24.9951">org admin</text><line style="stroke:#181818;stroke-width:0.5;" x1="360.69" x2="436.2144" y1="33.2969" y2="33.2969"/><line style="stroke:#181818;stroke-width:0.5;" x1="360.69" x2="436.2144" y1="41.2969" y2="41.2969"/></g><!--class sadmin--><g class="entity" data-entity="sadmin" data-source-line="14" data-uid="ent0008" id="entity_sadmin"><rect fill="#ADD8E6" height="42.2969" rx="2.5" ry="2.5" style="stroke:#181818;stroke-width:0.5;" width="106.1396" x="509.45" y="7"/><text fill="#000000" font-family="sans-serif" font-size="14" lengthAdjust="spacing" textLength="100.1396" x="512.45" y="24.9951">session admin</text><line style="stroke:#181818;stroke-width:0.5;" x1="510.45" x2="614.5896" y1="33.2969" y2="33.2969"/><line style="stroke:#181818;stroke-width:0.5;" x1="510.45" x2="614.5896" y1="41.2969" y2="41.2969"/></g><!--class designer--><g class="entity" data-entity="designer" data-source-line="15" data-uid="ent0009" id="entity_designer"><rect fill="#ADD8E6" height="42.2969" rx="2.5" ry="2.5" style="stroke:#181818;stroke-width:0.5;" width="110.9795" x="7" y="199"/><text fill="#000000" font-family="sans-serif" font-size="14" lengthAdjust="spacing" textLength="104.9795" x="10" y="216.9951">game designer</text><line style="stroke:#181818;stroke-width:0.5;" x1="8" x2="116.9795" y1="225.2969" y2="225.2969"/><line style="stroke:#181818;stroke-width:0.5;" x1="8" x2="116.9795" y1="233.2969" y2="233.2969"/></g><!--class facilitator--><g class="entity" data-entity="facilitator" data-source-line="16" data-uid="ent0010" id="entity_facilitator"><rect fill="#ADD8E6" height="42.2969" rx="2.5" ry="2.5" style="stroke:#181818;stroke-width:0.5;" width="72.7529" x="526.14" y="84"/><text fill="#000000" font-family="sans-serif" font-size="14" lengthAdjust="spacing" textLength="66.7529" x="529.14" y="101.9951">facilitator</text><line style="stroke:#181818;stroke-width:0.5;" x1="527.14" x2="597.8929" y1="110.2969" y2="110.2969"/><line style="stroke:#181818;stroke-width:0.5;" x1="527.14" x2="597.8929" y1="118.2969" y2="118.2969"/></g><!--class analyst--><g class="entity" data-entity="analyst" data-source-line="17" data-uid="ent0011" id="entity_analyst"><rect fill="#ADD8E6" height="42.2969" rx="2.5" ry="2.5" style="stroke:#181818;stroke-width:0.5;" width="92.9736" x="351.96" y="199"/><text fill="#000000" font-family="sans-serif" font-size="14" lengthAdjust="spacing" textLength="86.9736" x="354.96" y="216.9951">data analyst</text><line style="stroke:#181818;stroke-width:0.5;" x1="352.96" x2="443.9336" y1="225.2969" y2="225.2969"/><line style="stroke:#181818;stroke-width:0.5;" x1="352.96" x2="443.9336" y1="233.2969" y2="233.2969"/></g><!--class player--><g class="entity" data-entity="player" data-source-line="18" data-uid="ent0012" id="entity_player"><rect fill="#ADD8E6" height="42.2969" rx="2.5" ry="2.5" style="stroke:#181818;stroke-width:0.5;" width="94.1768" x="515.43" y="161"/><text fill="#000000" font-family="sans-serif" font-size="14" lengthAdjust="spacing" textLength="88.1768" x="518.43" y="178.9951">game player</text><line style="stroke:#181818;stroke-width:0.5;" x1="516.43" x2="608.6068" y1="187.2969" y2="187.2969"/><line style="stroke:#181818;stroke-width:0.5;" x1="516.43" x2="608.6068" y1="195.2969" y2="195.2969"/></g><!--link game to session--><g class="link" data-entity-1="game" data-entity-2="session" data-source-line="21" data-uid="lnk13" id="link_game_session"><path codeLine="21" d="M295.9,227.2 C312.11,227.2 317.58,227.2 317.58,227.2 C317.58,227.2 317.58,104.65 317.58,104.65 C317.58,104.65 313.19,104.65 329.24,104.65" fill="none" id="game-session" style="stroke:#181818;stroke-width:1;"/><line style="stroke:#181818;stroke-width:1;" x1="291.9" x2="291.9" y1="231.2" y2="223.2"/><line style="stroke:#181818;stroke-width:1;" x1="294.9" x2="294.9" y1="231.2" y2="223.2"/><line style="stroke:#181818;stroke-width:1;" x1="295.9" x2="287.9" y1="227.2" y2="227.2"/><line style="stroke:#181818;stroke-width:1;" x1="339.24" x2="347.24" y1="104.65" y2="98.65"/><line style="stroke:#181818;stroke-width:1;" x1="339.24" x2="347.24" y1="104.65" y2="110.65"/><line style="stroke:#181818;stroke-width:1;" x1="339.24" x2="347.24" y1="104.65" y2="104.65"/><ellipse cx="333.24" cy="104.65" fill="none" rx="4" ry="4" style="stroke:#181818;stroke-width:1;"/></g><!--link portal to padmin--><g class="link" data-entity-1="portal" data-entity-2="padmin" data-source-line="22" data-uid="lnk14" id="link_portal_padmin"><path codeLine="22" d="M62.58,134.64 C62.58,144.18 62.58,145.3 62.58,145.3 C62.58,145.3 126.55,145.3 176.87,145.3" fill="none" id="portal-padmin" style="stroke:#181818;stroke-width:1;"/><line style="stroke:#181818;stroke-width:1;" x1="58.58" x2="66.58" y1="130.64" y2="130.64"/><line style="stroke:#181818;stroke-width:1;" x1="58.58" x2="66.58" y1="133.64" y2="133.64"/><line style="stroke:#181818;stroke-width:1;" x1="62.58" x2="62.58" y1="134.64" y2="126.64"/><line style="stroke:#181818;stroke-width:1;" x1="176.87" x2="184.87" y1="145.3" y2="137.3"/><line style="stroke:#181818;stroke-width:1;" x1="176.87" x2="184.87" y1="145.3" y2="153.3"/><line style="stroke:#181818;stroke-width:1;" x1="176.87" x2="184.87" y1="145.3" y2="145.3"/></g><!--link portal to organization--><g class="link" data-entity-1="portal" data-entity-2="organization" data-source-line="23" data-uid="lnk15" id="link_portal_organization"><path codeLine="23" d="M62.58,75.87 C62.58,66.04 62.58,64.5 62.58,64.5 C62.58,64.5 117.42,64.5 167.78,64.5" fill="none" id="portal-organization" style="stroke:#181818;stroke-width:1;"/><line style="stroke:#181818;stroke-width:1;" x1="66.58" x2="58.58" y1="79.87" y2="79.87"/><line style="stroke:#181818;stroke-width:1;" x1="66.58" x2="58.58" y1="76.87" y2="76.87"/><line style="stroke:#181818;stroke-width:1;" x1="62.58" x2="62.58" y1="75.87" y2="83.87"/><line style="stroke:#181818;stroke-width:1;" x1="177.78" x2="185.78" y1="64.5" y2="58.5"/><line style="stroke:#181818;stroke-width:1;" x1="177.78" x2="185.78" y1="64.5" y2="70.5"/><line style="stroke:#181818;stroke-width:1;" x1="177.78" x2="185.78" y1="64.5" y2="64.5"/><ellipse cx="171.78" cy="64.5" fill="none" rx="4" ry="4" style="stroke:#181818;stroke-width:1;"/></g><!--link organization to oadmin--><g class="link" data-entity-1="organization" data-entity-2="oadmin" data-source-line="24" data-uid="lnk16" id="link_organization_oadmin"><path codeLine="24" d="M287.8,57.98 C336.84,57.98 398.58,57.98 398.58,57.98 C398.58,57.98 398.58,72.29 398.58,67.51" fill="none" id="organization-oadmin" style="stroke:#181818;stroke-width:1;"/><line style="stroke:#181818;stroke-width:1;" x1="283.8" x2="283.8" y1="61.98" y2="53.98"/><line style="stroke:#181818;stroke-width:1;" x1="286.8" x2="286.8" y1="61.98" y2="53.98"/><line style="stroke:#181818;stroke-width:1;" x1="287.8" x2="279.8" y1="57.98" y2="57.98"/><line style="stroke:#181818;stroke-width:1;" x1="398.58" x2="392.58" y1="57.51" y2="49.51"/><line style="stroke:#181818;stroke-width:1;" x1="398.58" x2="404.58" y1="57.51" y2="49.51"/><line style="stroke:#181818;stroke-width:1;" x1="398.58" x2="398.58" y1="57.51" y2="49.51"/><ellipse cx="398.58" cy="63.51" fill="none" rx="4" ry="4" style="stroke:#181818;stroke-width:1;"/></g><!--link organization to session--><g class="link" data-entity-1="organization" data-entity-2="session" data-source-line="25" data-uid="lnk17" id="link_organization_session"><path codeLine="25" d="M287.7,75.33 C320.92,75.33 351.58,75.33 351.58,75.33 C351.58,75.33 351.58,61.01 351.58,65.79" fill="none" id="organization-session" style="stroke:#181818;stroke-width:1;"/><line style="stroke:#181818;stroke-width:1;" x1="283.7" x2="283.7" y1="79.33" y2="71.33"/><line style="stroke:#181818;stroke-width:1;" x1="286.7" x2="286.7" y1="79.33" y2="71.33"/><line style="stroke:#181818;stroke-width:1;" x1="287.7" x2="279.7" y1="75.33" y2="75.33"/><line style="stroke:#181818;stroke-width:1;" x1="351.58" x2="357.58" y1="75.79" y2="83.79"/><line style="stroke:#181818;stroke-width:1;" x1="351.58" x2="345.58" y1="75.79" y2="83.79"/><line style="stroke:#181818;stroke-width:1;" x1="351.58" x2="351.58" y1="75.79" y2="83.79"/><ellipse cx="351.58" cy="69.79" fill="none" rx="4" ry="4" style="stroke:#181818;stroke-width:1;"/></g><!--link organization to session--><g class="link" data-entity-1="organization" data-entity-2="session" data-source-line="29" data-uid="lnk21" id="link_organization_session"><path codeLine="29" d="M287.55,66.65 C322.62,66.65 356.58,66.65 356.58,66.65 C356.58,66.65 356.58,66.83 356.58,75.65" fill="none" id="organization-session-1" style="stroke:#181818;stroke-width:1;"/><line style="stroke:#181818;stroke-width:1;" x1="283.55" x2="283.55" y1="70.65" y2="62.65"/><line style="stroke:#181818;stroke-width:1;" x1="286.55" x2="286.55" y1="70.65" y2="62.65"/><line style="stroke:#181818;stroke-width:1;" x1="287.55" x2="279.55" y1="66.65" y2="66.65"/><line style="stroke:#181818;stroke-width:1;" x1="356.58" x2="364.58" y1="75.65" y2="83.65"/><line style="stroke:#181818;stroke-width:1;" x1="356.58" x2="348.58" y1="75.65" y2="83.65"/><line style="stroke:#181818;stroke-width:1;" x1="356.58" x2="356.58" y1="75.65" y2="83.65"/></g><!--link session to player--><g class="link" data-entity-1="session" data-entity-2="player" data-source-line="26" data-uid="lnk18" id="link_session_player"><path codeLine="26" d="M457.6,112.2 C491.43,112.2 521.58,112.2 521.58,112.2 C521.58,112.2 521.58,132.21 521.58,152.78" fill="none" id="session-player" style="stroke:#181818;stroke-width:1;"/><line style="stroke:#181818;stroke-width:1;" x1="453.6" x2="453.6" y1="116.2" y2="108.2"/><line style="stroke:#181818;stroke-width:1;" x1="456.6" x2="456.6" y1="116.2" y2="108.2"/><line style="stroke:#181818;stroke-width:1;" x1="457.6" x2="449.6" y1="112.2" y2="112.2"/><line style="stroke:#181818;stroke-width:1;" x1="521.58" x2="529.58" y1="152.78" y2="160.78"/><line style="stroke:#181818;stroke-width:1;" x1="521.58" x2="513.58" y1="152.78" y2="160.78"/><line style="stroke:#181818;stroke-width:1;" x1="521.58" x2="521.58" y1="152.78" y2="160.78"/></g><!--link session to facilitator--><g class="link" data-entity-1="session" data-entity-2="facilitator" data-source-line="27" data-uid="lnk19" id="link_session_facilitator"><path codeLine="27" d="M457.91,98.1 C482.53,98.1 495.44,98.1 517.8,98.1" fill="none" id="session-facilitator" style="stroke:#181818;stroke-width:1;"/><line style="stroke:#181818;stroke-width:1;" x1="453.91" x2="453.91" y1="102.1" y2="94.1"/><line style="stroke:#181818;stroke-width:1;" x1="456.91" x2="456.91" y1="102.1" y2="94.1"/><line style="stroke:#181818;stroke-width:1;" x1="457.91" x2="449.91" y1="98.1" y2="98.1"/><line style="stroke:#181818;stroke-width:1;" x1="517.8" x2="525.8" y1="98.1" y2="90.1"/><line style="stroke:#181818;stroke-width:1;" x1="517.8" x2="525.8" y1="98.1" y2="106.1"/><line style="stroke:#181818;stroke-width:1;" x1="517.8" x2="525.8" y1="98.1" y2="98.1"/></g><!--link session to sadmin--><g class="link" data-entity-1="session" data-entity-2="sadmin" data-source-line="28" data-uid="lnk20" id="link_session_sadmin"><path codeLine="28" d="M443.58,75.7 C443.58,52.92 443.58,28.15 443.58,28.15 C443.58,28.15 459.4,28.15 490.96,28.15" fill="none" id="session-sadmin" style="stroke:#181818;stroke-width:1;"/><line style="stroke:#181818;stroke-width:1;" x1="447.58" x2="439.58" y1="79.7" y2="79.7"/><line style="stroke:#181818;stroke-width:1;" x1="447.58" x2="439.58" y1="76.7" y2="76.7"/><line style="stroke:#181818;stroke-width:1;" x1="443.58" x2="443.58" y1="75.7" y2="83.7"/><line style="stroke:#181818;stroke-width:1;" x1="500.96" x2="508.96" y1="28.15" y2="22.15"/><line style="stroke:#181818;stroke-width:1;" x1="500.96" x2="508.96" y1="28.15" y2="34.15"/><line style="stroke:#181818;stroke-width:1;" x1="500.96" x2="508.96" y1="28.15" y2="28.15"/><ellipse cx="494.96" cy="28.15" fill="none" rx="4" ry="4" style="stroke:#181818;stroke-width:1;"/></g><!--link designer to game--><g class="link" data-entity-1="designer" data-entity-2="game" data-source-line="30" data-uid="lnk22" id="link_designer_game"><path codeLine="30" d="M136.23,220.15 C155.33,220.15 140.68,220.15 159.72,220.15" fill="none" id="designer-game" style="stroke:#181818;stroke-width:1;"/><line style="stroke:#181818;stroke-width:1;" x1="126.23" x2="118.23" y1="220.15" y2="226.15"/><line style="stroke:#181818;stroke-width:1;" x1="126.23" x2="118.23" y1="220.15" y2="214.15"/><line style="stroke:#181818;stroke-width:1;" x1="126.23" x2="118.23" y1="220.15" y2="220.15"/><ellipse cx="132.23" cy="220.15" fill="none" rx="4" ry="4" style="stroke:#181818;stroke-width:1;"/><line style="stroke:#181818;stroke-width:1;" x1="169.72" x2="177.72" y1="220.15" y2="214.15"/><line style="stroke:#181818;stroke-width:1;" x1="169.72" x2="177.72" y1="220.15" y2="226.15"/><line style="stroke:#181818;stroke-width:1;" x1="169.72" x2="177.72" y1="220.15" y2="220.15"/><ellipse cx="163.72" cy="220.15" fill="none" rx="4" ry="4" style="stroke:#181818;stroke-width:1;"/></g><!--link game to analyst--><g class="link" data-entity-1="game" data-entity-2="analyst" data-source-line="31" data-uid="lnk23" id="link_game_analyst"><path codeLine="31" d="M305.9,213.1 C326.53,213.1 313.73,213.1 333.54,213.1" fill="none" id="game-analyst" style="stroke:#181818;stroke-width:1;"/><line style="stroke:#181818;stroke-width:1;" x1="295.9" x2="287.9" y1="213.1" y2="219.1"/><line style="stroke:#181818;stroke-width:1;" x1="295.9" x2="287.9" y1="213.1" y2="207.1"/><line style="stroke:#181818;stroke-width:1;" x1="295.9" x2="287.9" y1="213.1" y2="213.1"/><ellipse cx="301.9" cy="213.1" fill="none" rx="4" ry="4" style="stroke:#181818;stroke-width:1;"/><line style="stroke:#181818;stroke-width:1;" x1="343.54" x2="351.54" y1="213.1" y2="207.1"/><line style="stroke:#181818;stroke-width:1;" x1="343.54" x2="351.54" y1="213.1" y2="219.1"/><line style="stroke:#181818;stroke-width:1;" x1="343.54" x2="351.54" y1="213.1" y2="213.1"/><ellipse cx="337.54" cy="213.1" fill="none" rx="4" ry="4" style="stroke:#181818;stroke-width:1;"/></g><!--SRC=[VP99TeCm38RtFeLUkiWg5-XjX154ZR5vjhgWIUvUy42S0NQI_7yQVGJjRCUzEdDBeDbhGofSs8xeSG33bcGQ2PoNirE6EW5nuBa_2xJiIGixgzGHNFCpEq6H5PO93kDCe3a01aWcV3MeBzzcGNjFP5UfyprQ_iCbLGJgm3RMuq30DWXQJP6BaNrze11AcMo_4oz30BO39sICPaqqvfVgIIgn-oY6LLtgFuYmdpvEq5BWtfAFG74saGur6nOKbu3AtsHQ50IqQAOW4ShsVb-ZmIbtbSmt-VnBF9burQ0YSxkTJkvQ3g7okfVeDQ-wZitA-cUefszI18dwz5IgbBNdCh7Nbs2rfQUN9Sj6WKV-zIPt5ubbqZHk3kHr_WC0]--></g></svg>