<svg xmlns="http://www.w3.org/2000/svg" xmlns:xlink="http://www.w3.org/1999/xlink" contentStyleType="text/css" data-diagram-type="CLASS" height="363px" preserveAspectRatio="none" style="width:382px;height:363px;background:#FFFFFF;" version="1.1" viewBox="0 0 382 363" width="382px" zoomAndPan="magnify"><defs/><g><!--class portal--><g class="entity" data-entity="portal" data-source-line="6" data-uid="ent0002" id="entity_portal"><rect fill="#90EE90" height="42.2969" rx="2.5" ry="2.5" style="stroke:#181818;stroke-width:0.5;" width="47.166" x="95.49" y="7"/><text fill="#000000" font-family="sans-serif" font-size="14" lengthAdjust="spacing" textLength="41.166" x="98.49" y="24.9951">portal</text><line style="stroke:#181818;stroke-width:0.5;" x1="96.49" x2="141.656" y1="33.2969" y2="33.2969"/><line style="stroke:#181818;stroke-width:0.5;" x1="96.49" x2="141.656" y1="41.2969" y2="41.2969"/></g><!--class organization--><g class="entity" data-entity="organization" data-source-line="7" data-uid="ent0003" id="entity_organization"><rect fill="#90EE90" height="42.2969" rx="2.5" ry="2.5" style="stroke:#181818;stroke-width:0.5;" width="93.2949" x="7.42" y="109.3"/><text fill="#000000" font-family="sans-serif" font-size="14" lengthAdjust="spacing" textLength="87.2949" x="10.42" y="127.2951">organization</text><line style="stroke:#181818;stroke-width:0.5;" x1="8.42" x2="99.7149" y1="135.5969" y2="135.5969"/><line style="stroke:#181818;stroke-width:0.5;" x1="8.42" x2="99.7149" y1="143.5969" y2="143.5969"/></g><!--class game--><g class="entity" data-entity="game" data-source-line="8" data-uid="ent0004" id="entity_game"><rect fill="#90EE90" height="42.2969" rx="2.5" ry="2.5" style="stroke:#181818;stroke-width:0.5;" width="109.4756" x="265.33" y="109.3"/><text fill="#000000" font-family="sans-serif" font-size="14" lengthAdjust="spacing" textLength="103.4756" x="268.33" y="127.2951">game instance</text><line style="stroke:#181818;stroke-width:0.5;" x1="266.33" x2="373.8056" y1="135.5969" y2="135.5969"/><line style="stroke:#181818;stroke-width:0.5;" x1="266.33" x2="373.8056" y1="143.5969" y2="143.5969"/></g><!--class session--><g class="entity" data-entity="session" data-source-line="9" data-uid="ent0005" id="entity_session"><rect fill="#90EE90" height="42.2969" rx="2.5" ry="2.5" style="stroke:#181818;stroke-width:0.5;" width="101.9902" x="133.07" y="211.6"/><text fill="#000000" font-family="sans-serif" font-size="14" lengthAdjust="spacing" textLength="95.9902" x="136.07" y="229.5951">game session</text><line style="stroke:#181818;stroke-width:0.5;" x1="134.07" x2="234.0602" y1="237.8969" y2="237.8969"/><line style="stroke:#181818;stroke-width:0.5;" x1="134.07" x2="234.0602" y1="245.8969" y2="245.8969"/></g><!--class padmin--><g class="entity" data-entity="padmin" data-source-line="11" data-uid="ent0006" id="entity_padmin"><rect fill="#ADD8E6" height="42.2969" rx="2.5" ry="2.5" style="stroke:#181818;stroke-width:0.5;" width="95.4824" x="135.33" y="109.3"/><text fill="#000000" font-family="sans-serif" font-size="14" lengthAdjust="spacing" textLength="89.4824" x="138.33" y="127.2951">portal admin</text><line style="stroke:#181818;stroke-width:0.5;" x1="136.33" x2="229.8124" y1="135.5969" y2="135.5969"/><line style="stroke:#181818;stroke-width:0.5;" x1="136.33" x2="229.8124" y1="143.5969" y2="143.5969"/></g><!--class oadmin--><g class="entity" data-entity="oadmin" data-source-line="12" data-uid="ent0007" id="entity_oadmin"><rect fill="#ADD8E6" height="42.2969" rx="2.5" ry="2.5" style="stroke:#181818;stroke-width:0.5;" width="77.5244" x="15.31" y="211.6"/><text fill="#000000" font-family="sans-serif" font-size="14" lengthAdjust="spacing" textLength="71.5244" x="18.31" y="229.5951">org admin</text><line style="stroke:#181818;stroke-width:0.5;" x1="16.31" x2="91.8344" y1="237.8969" y2="237.8969"/><line style="stroke:#181818;stroke-width:0.5;" x1="16.31" x2="91.8344" y1="245.8969" y2="245.8969"/></g><!--class sadmin--><g class="entity" data-entity="sadmin" data-source-line="13" data-uid="ent0008" id="entity_sadmin"><rect fill="#ADD8E6" height="42.2969" rx="2.5" ry="2.5" style="stroke:#181818;stroke-width:0.5;" width="106.1396" x="7" y="313.89"/><text fill="#000000" font-family="sans-serif" font-size="14" lengthAdjust="spacing" textLength="100.1396" x="10" y="331.8851">session admin</text><line style="stroke:#181818;stroke-width:0.5;" x1="8" x2="112.1396" y1="340.1869" y2="340.1869"/><line style="stroke:#181818;stroke-width:0.5;" x1="8" x2="112.1396" y1="348.1869" y2="348.1869"/></g><!--class designer--><g class="entity" data-entity="designer" data-source-line="14" data-uid="ent0009" id="entity_designer"><rect fill="#ADD8E6" height="42.2969" rx="2.5" ry="2.5" style="stroke:#181818;stroke-width:0.5;" width="110.9795" x="264.58" y="7"/><text fill="#000000" font-family="sans-serif" font-size="14" lengthAdjust="spacing" textLength="104.9795" x="267.58" y="24.9951">game designer</text><line style="stroke:#181818;stroke-width:0.5;" x1="265.58" x2="374.5595" y1="33.2969" y2="33.2969"/><line style="stroke:#181818;stroke-width:0.5;" x1="265.58" x2="374.5595" y1="41.2969" y2="41.2969"/></g><!--class facilitator--><g class="entity" data-entity="facilitator" data-source-line="15" data-uid="ent0010" id="entity_facilitator"><rect fill="#ADD8E6" height="42.2969" rx="2.5" ry="2.5" style="stroke:#181818;stroke-width:0.5;" width="72.7529" x="147.69" y="313.89"/><text fill="#000000" font-family="sans-serif" font-size="14" lengthAdjust="spacing" textLength="66.7529" x="150.69" y="331.8851">facilitator</text><line style="stroke:#181818;stroke-width:0.5;" x1="148.69" x2="219.4429" y1="340.1869" y2="340.1869"/><line style="stroke:#181818;stroke-width:0.5;" x1="148.69" x2="219.4429" y1="348.1869" y2="348.1869"/></g><!--class analyst--><g class="entity" data-entity="analyst" data-source-line="16" data-uid="ent0011" id="entity_analyst"><rect fill="#ADD8E6" height="42.2969" rx="2.5" ry="2.5" style="stroke:#181818;stroke-width:0.5;" width="92.9736" x="273.58" y="211.6"/><text fill="#000000" font-family="sans-serif" font-size="14" lengthAdjust="spacing" textLength="86.9736" x="276.58" y="229.5951">data analyst</text><line style="stroke:#181818;stroke-width:0.5;" x1="274.58" x2="365.5536" y1="237.8969" y2="237.8969"/><line style="stroke:#181818;stroke-width:0.5;" x1="274.58" x2="365.5536" y1="245.8969" y2="245.8969"/></g><!--class player--><g class="entity" data-entity="player" data-source-line="17" data-uid="ent0012" id="entity_player"><rect fill="#ADD8E6" height="42.2969" rx="2.5" ry="2.5" style="stroke:#181818;stroke-width:0.5;" width="94.1768" x="254.98" y="313.89"/><text fill="#000000" font-family="sans-serif" font-size="14" lengthAdjust="spacing" textLength="88.1768" x="257.98" y="331.8851">game player</text><line style="stroke:#181818;stroke-width:0.5;" x1="255.98" x2="348.1568" y1="340.1869" y2="340.1869"/><line style="stroke:#181818;stroke-width:0.5;" x1="255.98" x2="348.1568" y1="348.1869" y2="348.1869"/></g><!--link game to session--><g class="link" data-entity-1="game" data-entity-2="session" data-source-line="20" data-uid="lnk13" id="link_game_session"><path codeLine="20" d="M269.46,159.7 C269.46,187.9 269.46,226.19 269.46,226.19 C269.46,226.19 271.4,226.19 253.22,226.19" fill="none" id="game-session" style="stroke:#181818;stroke-width:1;"/><line style="stroke:#181818;stroke-width:1;" x1="265.46" x2="273.46" y1="155.7" y2="155.7"/><line style="stroke:#181818;stroke-width:1;" x1="265.46" x2="273.46" y1="158.7" y2="158.7"/><line style="stroke:#181818;stroke-width:1;" x1="269.46" x2="269.46" y1="159.7" y2="151.7"/><line style="stroke:#181818;stroke-width:1;" x1="243.22" x2="235.22" y1="226.19" y2="232.19"/><line style="stroke:#181818;stroke-width:1;" x1="243.22" x2="235.22" y1="226.19" y2="220.19"/><line style="stroke:#181818;stroke-width:1;" x1="243.22" x2="235.22" y1="226.19" y2="226.19"/><ellipse cx="249.22" cy="226.19" fill="none" rx="4" ry="4" style="stroke:#181818;stroke-width:1;"/></g><!--link portal to padmin--><g class="link" data-entity-1="portal" data-entity-2="padmin" data-source-line="21" data-uid="lnk14" id="link_portal_padmin"><path codeLine="21" d="M138.99,57.35 C138.99,74.79 138.99,83.4 138.99,100.93" fill="none" id="portal-padmin" style="stroke:#181818;stroke-width:1;"/><line style="stroke:#181818;stroke-width:1;" x1="134.99" x2="142.99" y1="53.35" y2="53.35"/><line style="stroke:#181818;stroke-width:1;" x1="134.99" x2="142.99" y1="56.35" y2="56.35"/><line style="stroke:#181818;stroke-width:1;" x1="138.99" x2="138.99" y1="57.35" y2="49.35"/><line style="stroke:#181818;stroke-width:1;" x1="138.99" x2="146.99" y1="100.93" y2="108.93"/><line style="stroke:#181818;stroke-width:1;" x1="138.99" x2="130.99" y1="100.93" y2="108.93"/><line style="stroke:#181818;stroke-width:1;" x1="138.99" x2="138.99" y1="100.93" y2="108.93"/></g><!--link portal to organization--><g class="link" data-entity-1="portal" data-entity-2="organization" data-source-line="22" data-uid="lnk15" id="link_portal_organization"><path codeLine="22" d="M109,57.5 C109,87.68 109,131.19 109,131.19 C109,131.19 123.78,131.19 118.89,131.19" fill="none" id="portal-organization" style="stroke:#181818;stroke-width:1;"/><line style="stroke:#181818;stroke-width:1;" x1="105" x2="113" y1="53.5" y2="53.5"/><line style="stroke:#181818;stroke-width:1;" x1="105" x2="113" y1="56.5" y2="56.5"/><line style="stroke:#181818;stroke-width:1;" x1="109" x2="109" y1="57.5" y2="49.5"/><line style="stroke:#181818;stroke-width:1;" x1="108.89" x2="100.89" y1="131.19" y2="137.19"/><line style="stroke:#181818;stroke-width:1;" x1="108.89" x2="100.89" y1="131.19" y2="125.19"/><line style="stroke:#181818;stroke-width:1;" x1="108.89" x2="100.89" y1="131.19" y2="131.19"/><ellipse cx="114.89" cy="131.19" fill="none" rx="4" ry="4" style="stroke:#181818;stroke-width:1;"/></g><!--link organization to oadmin--><g class="link" data-entity-1="organization" data-entity-2="oadmin" data-source-line="23" data-uid="lnk16" id="link_organization_oadmin"><path codeLine="23" d="M54.07,159.64 C54.07,177.08 54.07,175.7 54.07,193.22" fill="none" id="organization-oadmin" style="stroke:#181818;stroke-width:1;"/><line style="stroke:#181818;stroke-width:1;" x1="50.07" x2="58.07" y1="155.64" y2="155.64"/><line style="stroke:#181818;stroke-width:1;" x1="50.07" x2="58.07" y1="158.64" y2="158.64"/><line style="stroke:#181818;stroke-width:1;" x1="54.07" x2="54.07" y1="159.64" y2="151.64"/><line style="stroke:#181818;stroke-width:1;" x1="54.07" x2="60.07" y1="203.22" y2="211.22"/><line style="stroke:#181818;stroke-width:1;" x1="54.07" x2="48.07" y1="203.22" y2="211.22"/><line style="stroke:#181818;stroke-width:1;" x1="54.07" x2="54.07" y1="203.22" y2="211.22"/><ellipse cx="54.07" cy="197.22" fill="none" rx="4" ry="4" style="stroke:#181818;stroke-width:1;"/></g><!--link organization to session--><g class="link" data-entity-1="organization" data-entity-2="session" data-source-line="24" data-uid="lnk17" id="link_organization_session"><path codeLine="24" d="M96.77,159.7 C96.77,187.9 96.77,226.19 96.77,226.19 C96.77,226.19 95.78,226.19 114.78,226.19" fill="none" id="organization-session" style="stroke:#181818;stroke-width:1;"/><line style="stroke:#181818;stroke-width:1;" x1="92.77" x2="100.77" y1="155.7" y2="155.7"/><line style="stroke:#181818;stroke-width:1;" x1="92.77" x2="100.77" y1="158.7" y2="158.7"/><line style="stroke:#181818;stroke-width:1;" x1="96.77" x2="96.77" y1="159.7" y2="151.7"/><line style="stroke:#181818;stroke-width:1;" x1="124.78" x2="132.78" y1="226.19" y2="220.19"/><line style="stroke:#181818;stroke-width:1;" x1="124.78" x2="132.78" y1="226.19" y2="232.19"/><line style="stroke:#181818;stroke-width:1;" x1="124.78" x2="132.78" y1="226.19" y2="226.19"/><ellipse cx="118.78" cy="226.19" fill="none" rx="4" ry="4" style="stroke:#181818;stroke-width:1;"/></g><!--link session to player--><g class="link" data-entity-1="session" data-entity-2="player" data-source-line="25" data-uid="lnk18" id="link_session_player"><path codeLine="25" d="M243.41,240.19 C256.91,240.19 259.78,240.19 259.78,240.19 C259.78,240.19 259.78,277.53 259.78,305.52" fill="none" id="session-player" style="stroke:#181818;stroke-width:1;"/><line style="stroke:#181818;stroke-width:1;" x1="239.41" x2="239.41" y1="244.19" y2="236.19"/><line style="stroke:#181818;stroke-width:1;" x1="242.41" x2="242.41" y1="244.19" y2="236.19"/><line style="stroke:#181818;stroke-width:1;" x1="243.41" x2="235.41" y1="240.19" y2="240.19"/><line style="stroke:#181818;stroke-width:1;" x1="259.78" x2="267.78" y1="305.52" y2="313.52"/><line style="stroke:#181818;stroke-width:1;" x1="259.78" x2="251.78" y1="305.52" y2="313.52"/><line style="stroke:#181818;stroke-width:1;" x1="259.78" x2="259.78" y1="305.52" y2="313.52"/></g><!--link session to facilitator--><g class="link" data-entity-1="session" data-entity-2="facilitator" data-source-line="26" data-uid="lnk19" id="link_session_facilitator"><path codeLine="26" d="M184.07,261.94 C184.07,279.38 184.07,287.99 184.07,305.52" fill="none" id="session-facilitator" style="stroke:#181818;stroke-width:1;"/><line style="stroke:#181818;stroke-width:1;" x1="180.07" x2="188.07" y1="257.94" y2="257.94"/><line style="stroke:#181818;stroke-width:1;" x1="180.07" x2="188.07" y1="260.94" y2="260.94"/><line style="stroke:#181818;stroke-width:1;" x1="184.07" x2="184.07" y1="261.94" y2="253.94"/><line style="stroke:#181818;stroke-width:1;" x1="184.07" x2="192.07" y1="305.52" y2="313.52"/><line style="stroke:#181818;stroke-width:1;" x1="184.07" x2="176.07" y1="305.52" y2="313.52"/><line style="stroke:#181818;stroke-width:1;" x1="184.07" x2="184.07" y1="305.52" y2="313.52"/></g><!--link session to sadmin--><g class="link" data-entity-1="session" data-entity-2="sadmin" data-source-line="27" data-uid="lnk20" id="link_session_sadmin"><path codeLine="27" d="M125.01,240.19 C109.68,240.19 104.86,240.19 104.86,240.19 C104.86,240.19 104.86,267.53 104.86,295.52" fill="none" id="session-sadmin" style="stroke:#181818;stroke-width:1;"/><line style="stroke:#181818;stroke-width:1;" x1="129.01" x2="129.01" y1="236.19" y2="244.19"/><line style="stroke:#181818;stroke-width:1;" x1="126.01" x2="126.01" y1="236.19" y2="244.19"/><line style="stroke:#181818;stroke-width:1;" x1="125.01" x2="133.01" y1="240.19" y2="240.19"/><line style="stroke:#181818;stroke-width:1;" x1="104.86" x2="110.86" y1="305.52" y2="313.52"/><line style="stroke:#181818;stroke-width:1;" x1="104.86" x2="98.86" y1="305.52" y2="313.52"/><line style="stroke:#181818;stroke-width:1;" x1="104.86" x2="104.86" y1="305.52" y2="313.52"/><ellipse cx="104.86" cy="299.52" fill="none" rx="4" ry="4" style="stroke:#181818;stroke-width:1;"/></g><!--link designer to game--><g class="link" data-entity-1="designer" data-entity-2="game" data-source-line="28" data-uid="lnk21" id="link_designer_game"><path codeLine="28" d="M320.07,67.35 C320.07,84.79 320.07,73.4 320.07,90.93" fill="none" id="designer-game" style="stroke:#181818;stroke-width:1;"/><line style="stroke:#181818;stroke-width:1;" x1="320.07" x2="314.07" y1="57.35" y2="49.35"/><line style="stroke:#181818;stroke-width:1;" x1="320.07" x2="326.07" y1="57.35" y2="49.35"/><line style="stroke:#181818;stroke-width:1;" x1="320.07" x2="320.07" y1="57.35" y2="49.35"/><ellipse cx="320.07" cy="63.35" fill="none" rx="4" ry="4" style="stroke:#181818;stroke-width:1;"/><line style="stroke:#181818;stroke-width:1;" x1="320.07" x2="326.07" y1="100.93" y2="108.93"/><line style="stroke:#181818;stroke-width:1;" x1="320.07" x2="314.07" y1="100.93" y2="108.93"/><line style="stroke:#181818;stroke-width:1;" x1="320.07" x2="320.07" y1="100.93" y2="108.93"/><ellipse cx="320.07" cy="94.93" fill="none" rx="4" ry="4" style="stroke:#181818;stroke-width:1;"/></g><!--link game to analyst--><g class="link" data-entity-1="game" data-entity-2="analyst" data-source-line="29" data-uid="lnk22" id="link_game_analyst"><path codeLine="29" d="M320.07,169.64 C320.07,187.08 320.07,175.7 320.07,193.22" fill="none" id="game-analyst" style="stroke:#181818;stroke-width:1;"/><line style="stroke:#181818;stroke-width:1;" x1="320.07" x2="314.07" y1="159.64" y2="151.64"/><line style="stroke:#181818;stroke-width:1;" x1="320.07" x2="326.07" y1="159.64" y2="151.64"/><line style="stroke:#181818;stroke-width:1;" x1="320.07" x2="320.07" y1="159.64" y2="151.64"/><ellipse cx="320.07" cy="165.64" fill="none" rx="4" ry="4" style="stroke:#181818;stroke-width:1;"/><line style="stroke:#181818;stroke-width:1;" x1="320.07" x2="326.07" y1="203.22" y2="211.22"/><line style="stroke:#181818;stroke-width:1;" x1="320.07" x2="314.07" y1="203.22" y2="211.22"/><line style="stroke:#181818;stroke-width:1;" x1="320.07" x2="320.07" y1="203.22" y2="211.22"/><ellipse cx="320.07" cy="197.22" fill="none" rx="4" ry="4" style="stroke:#181818;stroke-width:1;"/></g><!--SRC=[VP9BTiCW34Ndh48d7MIK3NGtCbQ86Wm-e0xSf7klpSSb7ticdjv57pY2zkxCHbsu9z0Sj2KLh-n633Y0PKSoZGG-oCKhTGJVVP6MgCW9omI7SSwWFG16o25yTAYldvRDHKmWSglL1uEEVr3OkmIqmZPcS21W5mMTfiGbPTyVASPQfiIlnDCGWFt06HbJs1AT_QPsaiRitvfXTTVw_qJSlpvDq5DauoWae1usaJDgjYmeFWFDUPFfKH3GePsY9AZ4-tsD5gVILGvVxFCl2MJJgqQLcFlzTFAt-X2gh7jHRsNLhJOxsv-X7hv9DMJgNQfMgMilPLAlJsApfOVCSaiki2x-roTv6IVFL8Ioipy0]--></g></svg>