<svg xmlns="http://www.w3.org/2000/svg" xmlns:xlink="http://www.w3.org/1999/xlink" contentStyleType="text/css" data-diagram-type="CLASS" height="363px" preserveAspectRatio="none" style="width:449px;height:363px;background:#FFFFFF;" version="1.1" viewBox="0 0 449 363" width="449px" zoomAndPan="magnify"><defs/><g><!--class portal--><g class="entity" data-entity="portal" data-source-line="6" data-uid="ent0002" id="entity_portal"><rect fill="#90EE90" height="42.2969" rx="2.5" ry="2.5" style="stroke:#181818;stroke-width:0.5;" width="47.166" x="162.49" y="7"/><text fill="#000000" font-family="sans-serif" font-size="14" lengthAdjust="spacing" textLength="41.166" x="165.49" y="24.9951">portal</text><line style="stroke:#181818;stroke-width:0.5;" x1="163.49" x2="208.656" y1="33.2969" y2="33.2969"/><line style="stroke:#181818;stroke-width:0.5;" x1="163.49" x2="208.656" y1="41.2969" y2="41.2969"/></g><!--class organization--><g class="entity" data-entity="organization" data-source-line="7" data-uid="ent0003" id="entity_organization"><rect fill="#90EE90" height="42.2969" rx="2.5" ry="2.5" style="stroke:#181818;stroke-width:0.5;" width="93.2949" x="74.42" y="109.3"/><text fill="#000000" font-family="sans-serif" font-size="14" lengthAdjust="spacing" textLength="87.2949" x="77.42" y="127.2951">organization</text><line style="stroke:#181818;stroke-width:0.5;" x1="75.42" x2="166.7149" y1="135.5969" y2="135.5969"/><line style="stroke:#181818;stroke-width:0.5;" x1="75.42" x2="166.7149" y1="143.5969" y2="143.5969"/></g><!--class game--><g class="entity" data-entity="game" data-source-line="8" data-uid="ent0004" id="entity_game"><rect fill="#90EE90" height="42.2969" rx="2.5" ry="2.5" style="stroke:#181818;stroke-width:0.5;" width="109.4756" x="332.33" y="109.3"/><text fill="#000000" font-family="sans-serif" font-size="14" lengthAdjust="spacing" textLength="103.4756" x="335.33" y="127.2951">game instance</text><line style="stroke:#181818;stroke-width:0.5;" x1="333.33" x2="440.8056" y1="135.5969" y2="135.5969"/><line style="stroke:#181818;stroke-width:0.5;" x1="333.33" x2="440.8056" y1="143.5969" y2="143.5969"/></g><!--class session--><g class="entity" data-entity="session" data-source-line="9" data-uid="ent0005" id="entity_session"><rect fill="#90EE90" height="42.2969" rx="2.5" ry="2.5" style="stroke:#181818;stroke-width:0.5;" width="101.9902" x="133.07" y="211.6"/><text fill="#000000" font-family="sans-serif" font-size="14" lengthAdjust="spacing" textLength="95.9902" x="136.07" y="229.5951">game session</text><line style="stroke:#181818;stroke-width:0.5;" x1="134.07" x2="234.0602" y1="237.8969" y2="237.8969"/><line style="stroke:#181818;stroke-width:0.5;" x1="134.07" x2="234.0602" y1="245.8969" y2="245.8969"/></g><!--class padmin--><g class="entity" data-entity="padmin" data-source-line="11" data-uid="ent0006" id="entity_padmin"><rect fill="#ADD8E6" height="42.2969" rx="2.5" ry="2.5" style="stroke:#181818;stroke-width:0.5;" width="95.4824" x="202.33" y="109.3"/><text fill="#000000" font-family="sans-serif" font-size="14" lengthAdjust="spacing" textLength="89.4824" x="205.33" y="127.2951">portal admin</text><line style="stroke:#181818;stroke-width:0.5;" x1="203.33" x2="296.8124" y1="135.5969" y2="135.5969"/><line style="stroke:#181818;stroke-width:0.5;" x1="203.33" x2="296.8124" y1="143.5969" y2="143.5969"/></g><!--class oadmin--><g class="entity" data-entity="oadmin" data-source-line="12" data-uid="ent0007" id="entity_oadmin"><rect fill="#ADD8E6" height="42.2969" rx="2.5" ry="2.5" style="stroke:#181818;stroke-width:0.5;" width="77.5244" x="20.31" y="211.6"/><text fill="#000000" font-family="sans-serif" font-size="14" lengthAdjust="spacing" textLength="71.5244" x="23.31" y="229.5951">org admin</text><line style="stroke:#181818;stroke-width:0.5;" x1="21.31" x2="96.8344" y1="237.8969" y2="237.8969"/><line style="stroke:#181818;stroke-width:0.5;" x1="21.31" x2="96.8344" y1="245.8969" y2="245.8969"/></g><!--class sadmin--><g class="entity" data-entity="sadmin" data-source-line="13" data-uid="ent0008" id="entity_sadmin"><rect fill="#ADD8E6" height="42.2969" rx="2.5" ry="2.5" style="stroke:#181818;stroke-width:0.5;" width="106.1396" x="7" y="313.89"/><text fill="#000000" font-family="sans-serif" font-size="14" lengthAdjust="spacing" textLength="100.1396" x="10" y="331.8851">session admin</text><line style="stroke:#181818;stroke-width:0.5;" x1="8" x2="112.1396" y1="340.1869" y2="340.1869"/><line style="stroke:#181818;stroke-width:0.5;" x1="8" x2="112.1396" y1="348.1869" y2="348.1869"/></g><!--class designer--><g class="entity" data-entity="designer" data-source-line="14" data-uid="ent0009" id="entity_designer"><rect fill="#ADD8E6" height="42.2969" rx="2.5" ry="2.5" style="stroke:#181818;stroke-width:0.5;" width="110.9795" x="331.58" y="7"/><text fill="#000000" font-family="sans-serif" font-size="14" lengthAdjust="spacing" textLength="104.9795" x="334.58" y="24.9951">game designer</text><line style="stroke:#181818;stroke-width:0.5;" x1="332.58" x2="441.5595" y1="33.2969" y2="33.2969"/><line style="stroke:#181818;stroke-width:0.5;" x1="332.58" x2="441.5595" y1="41.2969" y2="41.2969"/></g><!--class facilitator--><g class="entity" data-entity="facilitator" data-source-line="15" data-uid="ent0010" id="entity_facilitator"><rect fill="#ADD8E6" height="42.2969" rx="2.5" ry="2.5" style="stroke:#181818;stroke-width:0.5;" width="72.7529" x="147.69" y="313.89"/><text fill="#000000" font-family="sans-serif" font-size="14" lengthAdjust="spacing" textLength="66.7529" x="150.69" y="331.8851">facilitator</text><line style="stroke:#181818;stroke-width:0.5;" x1="148.69" x2="219.4429" y1="340.1869" y2="340.1869"/><line style="stroke:#181818;stroke-width:0.5;" x1="148.69" x2="219.4429" y1="348.1869" y2="348.1869"/></g><!--class analyst--><g class="entity" data-entity="analyst" data-source-line="16" data-uid="ent0011" id="entity_analyst"><rect fill="#ADD8E6" height="42.2969" rx="2.5" ry="2.5" style="stroke:#181818;stroke-width:0.5;" width="92.9736" x="340.58" y="211.6"/><text fill="#000000" font-family="sans-serif" font-size="14" lengthAdjust="spacing" textLength="86.9736" x="343.58" y="229.5951">data analyst</text><line style="stroke:#181818;stroke-width:0.5;" x1="341.58" x2="432.5536" y1="237.8969" y2="237.8969"/><line style="stroke:#181818;stroke-width:0.5;" x1="341.58" x2="432.5536" y1="245.8969" y2="245.8969"/></g><!--class player--><g class="entity" data-entity="player" data-source-line="17" data-uid="ent0012" id="entity_player"><rect fill="#ADD8E6" height="42.2969" rx="2.5" ry="2.5" style="stroke:#181818;stroke-width:0.5;" width="94.1768" x="254.98" y="313.89"/><text fill="#000000" font-family="sans-serif" font-size="14" lengthAdjust="spacing" textLength="88.1768" x="257.98" y="331.8851">game player</text><line style="stroke:#181818;stroke-width:0.5;" x1="255.98" x2="348.1568" y1="340.1869" y2="340.1869"/><line style="stroke:#181818;stroke-width:0.5;" x1="255.98" x2="348.1568" y1="348.1869" y2="348.1869"/></g><!--link game to session--><g class="link" data-entity-1="game" data-entity-2="session" data-source-line="20" data-uid="lnk13" id="link_game_session"><path codeLine="20" d="M336.46,159.74 C336.46,189.83 336.46,233.19 336.46,233.19 C336.46,233.19 297.51,233.19 253.24,233.19" fill="none" id="game-session" style="stroke:#181818;stroke-width:1;"/><line style="stroke:#181818;stroke-width:1;" x1="332.46" x2="340.46" y1="155.74" y2="155.74"/><line style="stroke:#181818;stroke-width:1;" x1="332.46" x2="340.46" y1="158.74" y2="158.74"/><line style="stroke:#181818;stroke-width:1;" x1="336.46" x2="336.46" y1="159.74" y2="151.74"/><line style="stroke:#181818;stroke-width:1;" x1="243.24" x2="235.24" y1="233.19" y2="239.19"/><line style="stroke:#181818;stroke-width:1;" x1="243.24" x2="235.24" y1="233.19" y2="227.19"/><line style="stroke:#181818;stroke-width:1;" x1="243.24" x2="235.24" y1="233.19" y2="233.19"/><ellipse cx="249.24" cy="233.19" fill="none" rx="4" ry="4" style="stroke:#181818;stroke-width:1;"/></g><!--link portal to padmin--><g class="link" data-entity-1="portal" data-entity-2="padmin" data-source-line="21" data-uid="lnk14" id="link_portal_padmin"><path codeLine="21" d="M205.99,57.35 C205.99,74.79 205.99,83.4 205.99,100.93" fill="none" id="portal-padmin" style="stroke:#181818;stroke-width:1;"/><line style="stroke:#181818;stroke-width:1;" x1="201.99" x2="209.99" y1="53.35" y2="53.35"/><line style="stroke:#181818;stroke-width:1;" x1="201.99" x2="209.99" y1="56.35" y2="56.35"/><line style="stroke:#181818;stroke-width:1;" x1="205.99" x2="205.99" y1="57.35" y2="49.35"/><line style="stroke:#181818;stroke-width:1;" x1="205.99" x2="213.99" y1="100.93" y2="108.93"/><line style="stroke:#181818;stroke-width:1;" x1="205.99" x2="197.99" y1="100.93" y2="108.93"/><line style="stroke:#181818;stroke-width:1;" x1="205.99" x2="205.99" y1="100.93" y2="108.93"/></g><!--link portal to organization--><g class="link" data-entity-1="portal" data-entity-2="organization" data-source-line="22" data-uid="lnk15" id="link_portal_organization"><path codeLine="22" d="M185.02,57.5 C185.02,87.68 185.02,131.19 185.02,131.19 C185.02,131.19 195.64,131.19 185.88,131.19" fill="none" id="portal-organization" style="stroke:#181818;stroke-width:1;"/><line style="stroke:#181818;stroke-width:1;" x1="181.02" x2="189.02" y1="53.5" y2="53.5"/><line style="stroke:#181818;stroke-width:1;" x1="181.02" x2="189.02" y1="56.5" y2="56.5"/><line style="stroke:#181818;stroke-width:1;" x1="185.02" x2="185.02" y1="57.5" y2="49.5"/><line style="stroke:#181818;stroke-width:1;" x1="175.88" x2="167.88" y1="131.19" y2="137.19"/><line style="stroke:#181818;stroke-width:1;" x1="175.88" x2="167.88" y1="131.19" y2="125.19"/><line style="stroke:#181818;stroke-width:1;" x1="175.88" x2="167.88" y1="131.19" y2="131.19"/><ellipse cx="181.88" cy="131.19" fill="none" rx="4" ry="4" style="stroke:#181818;stroke-width:1;"/></g><!--link organization to oadmin--><g class="link" data-entity-1="organization" data-entity-2="oadmin" data-source-line="23" data-uid="lnk16" id="link_organization_oadmin"><path codeLine="23" d="M86.13,159.64 C86.13,177.08 86.13,175.7 86.13,193.22" fill="none" id="organization-oadmin" style="stroke:#181818;stroke-width:1;"/><line style="stroke:#181818;stroke-width:1;" x1="82.13" x2="90.13" y1="155.64" y2="155.64"/><line style="stroke:#181818;stroke-width:1;" x1="82.13" x2="90.13" y1="158.64" y2="158.64"/><line style="stroke:#181818;stroke-width:1;" x1="86.13" x2="86.13" y1="159.64" y2="151.64"/><line style="stroke:#181818;stroke-width:1;" x1="86.13" x2="92.13" y1="203.22" y2="211.22"/><line style="stroke:#181818;stroke-width:1;" x1="86.13" x2="80.13" y1="203.22" y2="211.22"/><line style="stroke:#181818;stroke-width:1;" x1="86.13" x2="86.13" y1="203.22" y2="211.22"/><ellipse cx="86.13" cy="197.22" fill="none" rx="4" ry="4" style="stroke:#181818;stroke-width:1;"/></g><!--link organization to session--><g class="link" data-entity-1="organization" data-entity-2="session" data-source-line="24" data-uid="lnk17" id="link_organization_session"><path codeLine="24" d="M144.62,159.64 C144.62,177.08 144.62,175.7 144.62,193.22" fill="none" id="organization-session" style="stroke:#181818;stroke-width:1;"/><line style="stroke:#181818;stroke-width:1;" x1="140.62" x2="148.62" y1="155.64" y2="155.64"/><line style="stroke:#181818;stroke-width:1;" x1="140.62" x2="148.62" y1="158.64" y2="158.64"/><line style="stroke:#181818;stroke-width:1;" x1="144.62" x2="144.62" y1="159.64" y2="151.64"/><line style="stroke:#181818;stroke-width:1;" x1="144.62" x2="150.62" y1="203.22" y2="211.22"/><line style="stroke:#181818;stroke-width:1;" x1="144.62" x2="138.62" y1="203.22" y2="211.22"/><line style="stroke:#181818;stroke-width:1;" x1="144.62" x2="144.62" y1="203.22" y2="211.22"/><ellipse cx="144.62" cy="197.22" fill="none" rx="4" ry="4" style="stroke:#181818;stroke-width:1;"/></g><!--link organization to session--><g class="link" data-entity-1="organization" data-entity-2="session" data-source-line="28" data-uid="lnk21" id="link_organization_session"><path codeLine="28" d="M156.17,159.64 C156.17,177.08 156.17,185.7 156.17,203.22" fill="none" id="organization-session-1" style="stroke:#181818;stroke-width:1;"/><line style="stroke:#181818;stroke-width:1;" x1="152.17" x2="160.17" y1="155.64" y2="155.64"/><line style="stroke:#181818;stroke-width:1;" x1="152.17" x2="160.17" y1="158.64" y2="158.64"/><line style="stroke:#181818;stroke-width:1;" x1="156.17" x2="156.17" y1="159.64" y2="151.64"/><line style="stroke:#181818;stroke-width:1;" x1="156.17" x2="164.17" y1="203.22" y2="211.22"/><line style="stroke:#181818;stroke-width:1;" x1="156.17" x2="148.17" y1="203.22" y2="211.22"/><line style="stroke:#181818;stroke-width:1;" x1="156.17" x2="156.17" y1="203.22" y2="211.22"/></g><!--link session to player--><g class="link" data-entity-1="session" data-entity-2="player" data-source-line="25" data-uid="lnk18" id="link_session_player"><path codeLine="25" d="M227.76,261.97 C227.76,291.98 227.76,335.19 227.76,335.19 C227.76,335.19 232.02,335.19 246.58,335.19" fill="none" id="session-player" style="stroke:#181818;stroke-width:1;"/><line style="stroke:#181818;stroke-width:1;" x1="223.76" x2="231.76" y1="257.97" y2="257.97"/><line style="stroke:#181818;stroke-width:1;" x1="223.76" x2="231.76" y1="260.97" y2="260.97"/><line style="stroke:#181818;stroke-width:1;" x1="227.76" x2="227.76" y1="261.97" y2="253.97"/><line style="stroke:#181818;stroke-width:1;" x1="246.58" x2="254.58" y1="335.19" y2="327.19"/><line style="stroke:#181818;stroke-width:1;" x1="246.58" x2="254.58" y1="335.19" y2="343.19"/><line style="stroke:#181818;stroke-width:1;" x1="246.58" x2="254.58" y1="335.19" y2="335.19"/></g><!--link session to facilitator--><g class="link" data-entity-1="session" data-entity-2="facilitator" data-source-line="26" data-uid="lnk19" id="link_session_facilitator"><path codeLine="26" d="M184.07,261.94 C184.07,279.38 184.07,287.99 184.07,305.52" fill="none" id="session-facilitator" style="stroke:#181818;stroke-width:1;"/><line style="stroke:#181818;stroke-width:1;" x1="180.07" x2="188.07" y1="257.94" y2="257.94"/><line style="stroke:#181818;stroke-width:1;" x1="180.07" x2="188.07" y1="260.94" y2="260.94"/><line style="stroke:#181818;stroke-width:1;" x1="184.07" x2="184.07" y1="261.94" y2="253.94"/><line style="stroke:#181818;stroke-width:1;" x1="184.07" x2="192.07" y1="305.52" y2="313.52"/><line style="stroke:#181818;stroke-width:1;" x1="184.07" x2="176.07" y1="305.52" y2="313.52"/><line style="stroke:#181818;stroke-width:1;" x1="184.07" x2="184.07" y1="305.52" y2="313.52"/></g><!--link session to sadmin--><g class="link" data-entity-1="session" data-entity-2="sadmin" data-source-line="27" data-uid="lnk20" id="link_session_sadmin"><path codeLine="27" d="M124.97,233.19 C109.96,233.19 105.49,233.19 105.49,233.19 C105.49,233.19 105.49,265.54 105.49,295.44" fill="none" id="session-sadmin" style="stroke:#181818;stroke-width:1;"/><line style="stroke:#181818;stroke-width:1;" x1="128.97" x2="128.97" y1="229.19" y2="237.19"/><line style="stroke:#181818;stroke-width:1;" x1="125.97" x2="125.97" y1="229.19" y2="237.19"/><line style="stroke:#181818;stroke-width:1;" x1="124.97" x2="132.97" y1="233.19" y2="233.19"/><line style="stroke:#181818;stroke-width:1;" x1="105.49" x2="111.49" y1="305.44" y2="313.44"/><line style="stroke:#181818;stroke-width:1;" x1="105.49" x2="99.49" y1="305.44" y2="313.44"/><line style="stroke:#181818;stroke-width:1;" x1="105.49" x2="105.49" y1="305.44" y2="313.44"/><ellipse cx="105.49" cy="299.44" fill="none" rx="4" ry="4" style="stroke:#181818;stroke-width:1;"/></g><!--link designer to game--><g class="link" data-entity-1="designer" data-entity-2="game" data-source-line="29" data-uid="lnk22" id="link_designer_game"><path codeLine="29" d="M387.07,67.35 C387.07,84.79 387.07,73.4 387.07,90.93" fill="none" id="designer-game" style="stroke:#181818;stroke-width:1;"/><line style="stroke:#181818;stroke-width:1;" x1="387.07" x2="381.07" y1="57.35" y2="49.35"/><line style="stroke:#181818;stroke-width:1;" x1="387.07" x2="393.07" y1="57.35" y2="49.35"/><line style="stroke:#181818;stroke-width:1;" x1="387.07" x2="387.07" y1="57.35" y2="49.35"/><ellipse cx="387.07" cy="63.35" fill="none" rx="4" ry="4" style="stroke:#181818;stroke-width:1;"/><line style="stroke:#181818;stroke-width:1;" x1="387.07" x2="393.07" y1="100.93" y2="108.93"/><line style="stroke:#181818;stroke-width:1;" x1="387.07" x2="381.07" y1="100.93" y2="108.93"/><line style="stroke:#181818;stroke-width:1;" x1="387.07" x2="387.07" y1="100.93" y2="108.93"/><ellipse cx="387.07" cy="94.93" fill="none" rx="4" ry="4" style="stroke:#181818;stroke-width:1;"/></g><!--link game to analyst--><g class="link" data-entity-1="game" data-entity-2="analyst" data-source-line="30" data-uid="lnk23" id="link_game_analyst"><path codeLine="30" d="M387.07,169.64 C387.07,187.08 387.07,175.7 387.07,193.22" fill="none" id="game-analyst" style="stroke:#181818;stroke-width:1;"/><line style="stroke:#181818;stroke-width:1;" x1="387.07" x2="381.07" y1="159.64" y2="151.64"/><line style="stroke:#181818;stroke-width:1;" x1="387.07" x2="393.07" y1="159.64" y2="151.64"/><line style="stroke:#181818;stroke-width:1;" x1="387.07" x2="387.07" y1="159.64" y2="151.64"/><ellipse cx="387.07" cy="165.64" fill="none" rx="4" ry="4" style="stroke:#181818;stroke-width:1;"/><line style="stroke:#181818;stroke-width:1;" x1="387.07" x2="393.07" y1="203.22" y2="211.22"/><line style="stroke:#181818;stroke-width:1;" x1="387.07" x2="381.07" y1="203.22" y2="211.22"/><line style="stroke:#181818;stroke-width:1;" x1="387.07" x2="387.07" y1="203.22" y2="211.22"/><ellipse cx="387.07" cy="197.22" fill="none" rx="4" ry="4" style="stroke:#181818;stroke-width:1;"/></g><!--SRC=[VP9BTiCW34Ndh48d7MIK3NGtCbQm6Wm-e0xS97klZS4X7ticf7VHzmZQkpCRrN5Be3beIofUs0qOi0VBZcGS27oGpYjr1D_ya9Qeo0dB28TXYg0z04POJFXgK5- -BPjEJ21ogzG7Wux_KDYx1DIERSnWJy0k2ZfDYKkUVNsa64kQRByJBqq0jZqlo93CccZiBzMTL6B_KGohkkH_477_-zH1Iv6Dev20yjX4pgZPig3u1QZUcqoBWe0ExHWbGTdUhskmEEQg5lDDFbr989ks6bLYRhVJoL_B8bGUz-ozvb7NlabPNuPwEfCYMAXFePAbZ3sdIRM-EAifFKNcNpOIFFvVTtBtYPWxNThDZZpEVm00]--></g></svg>