<svg xmlns="http://www.w3.org/2000/svg" xmlns:xlink="http://www.w3.org/1999/xlink" contentStyleType="text/css" data-diagram-type="CLASS" height="359px" preserveAspectRatio="none" style="width:620px;height:359px;background:#FFFFFF;" version="1.1" viewBox="0 0 620 359" width="620px" zoomAndPan="magnify"><defs/><g><!--class Actor--><g class="entity" data-entity="Actor" data-source-line="1" data-uid="ent0002" id="entity_Actor"><rect fill="#F1F1F1" height="80.5938" rx="2.5" ry="2.5" style="stroke:#181818;stroke-width:0.5;" width="217.748" x="250.91" y="7"/><ellipse cx="336.9915" cy="23" fill="#A9DCDF" rx="11" ry="11" style="stroke:#181818;stroke-width:1;"/><path d="M337.1009,18.3438 L335.9447,23.4219 L338.2728,23.4219 L337.1009,18.3438 Z M335.6165,16.1094 L338.6009,16.1094 L341.9603,28.5 L339.5072,28.5 L338.7415,25.4375 L335.4603,25.4375 L334.7103,28.5 L332.2728,28.5 L335.6165,16.1094 Z " fill="#000000"/><text fill="#000000" font-family="sans-serif" font-size="14" font-style="italic" lengthAdjust="spacing" textLength="37.085" x="357.4915" y="27.8467">Actor</text><line style="stroke:#181818;stroke-width:0.5;" x1="251.91" x2="467.658" y1="39" y2="39"/><line style="stroke:#181818;stroke-width:0.5;" x1="251.91" x2="467.658" y1="47" y2="47"/><text fill="#000000" font-family="sans-serif" font-size="14" lengthAdjust="spacing" textLength="205.748" x="256.91" y="63.9951">void receiveContent(content)</text><text fill="#000000" font-family="sans-serif" font-size="14" lengthAdjust="spacing" textLength="187.9473" x="256.91" y="80.292">void sendContent(content)</text></g><!--class Model--><g class="entity" data-entity="Model" data-source-line="6" data-uid="ent0003" id="entity_Model"><rect fill="#F1F1F1" height="48" rx="2.5" ry="2.5" style="stroke:#181818;stroke-width:0.5;" width="74.0342" x="141.77" y="23.29"/><ellipse cx="156.77" cy="39.29" fill="#A9DCDF" rx="11" ry="11" style="stroke:#181818;stroke-width:1;"/><path d="M156.8794,34.6338 L155.7231,39.7119 L158.0513,39.7119 L156.8794,34.6338 Z M155.395,32.3994 L158.3794,32.3994 L161.7388,44.79 L159.2856,44.79 L158.52,41.7275 L155.2388,41.7275 L154.4888,44.79 L152.0513,44.79 L155.395,32.3994 Z " fill="#000000"/><text fill="#000000" font-family="sans-serif" font-size="14" font-style="italic" lengthAdjust="spacing" textLength="42.0342" x="170.77" y="44.1367">Model</text><line style="stroke:#181818;stroke-width:0.5;" x1="142.77" x2="214.8042" y1="55.29" y2="55.29"/><line style="stroke:#181818;stroke-width:0.5;" x1="142.77" x2="214.8042" y1="63.29" y2="63.29"/></g><!--class Simulator--><g class="entity" data-entity="Simulator" data-source-line="9" data-uid="ent0004" id="entity_Simulator"><rect fill="#F1F1F1" height="48" rx="2.5" ry="2.5" style="stroke:#181818;stroke-width:0.5;" width="99.5664" x="7" y="23.29"/><ellipse cx="22" cy="39.29" fill="#A9DCDF" rx="11" ry="11" style="stroke:#181818;stroke-width:1;"/><path d="M22.1094,34.6338 L20.9531,39.7119 L23.2813,39.7119 L22.1094,34.6338 Z M20.625,32.3994 L23.6094,32.3994 L26.9688,44.79 L24.5156,44.79 L23.75,41.7275 L20.4688,41.7275 L19.7188,44.79 L17.2813,44.79 L20.625,32.3994 Z " fill="#000000"/><text fill="#000000" font-family="sans-serif" font-size="14" font-style="italic" lengthAdjust="spacing" textLength="67.5664" x="36" y="44.1367">Simulator</text><line style="stroke:#181818;stroke-width:0.5;" x1="8" x2="105.5664" y1="55.29" y2="55.29"/><line style="stroke:#181818;stroke-width:0.5;" x1="8" x2="105.5664" y1="63.29" y2="63.29"/></g><!--class Role--><g class="entity" data-entity="Role" data-source-line="12" data-uid="ent0005" id="entity_Role"><rect fill="#F1F1F1" height="48" rx="2.5" ry="2.5" style="stroke:#181818;stroke-width:0.5;" width="62.7959" x="328.39" y="147.59"/><ellipse cx="343.39" cy="163.59" fill="#A9DCDF" rx="11" ry="11" style="stroke:#181818;stroke-width:1;"/><path d="M343.4994,158.9338 L342.3431,164.0119 L344.6713,164.0119 L343.4994,158.9338 Z M342.015,156.6994 L344.9994,156.6994 L348.3588,169.09 L345.9056,169.09 L345.14,166.0275 L341.8588,166.0275 L341.1088,169.09 L338.6713,169.09 L342.015,156.6994 Z " fill="#000000"/><text fill="#000000" font-family="sans-serif" font-size="14" font-style="italic" lengthAdjust="spacing" textLength="30.7959" x="357.39" y="168.4367">Role</text><line style="stroke:#181818;stroke-width:0.5;" x1="329.39" x2="390.1859" y1="179.59" y2="179.59"/><line style="stroke:#181818;stroke-width:0.5;" x1="329.39" x2="390.1859" y1="187.59" y2="187.59"/></g><!--class ContentHandler--><g class="entity" data-entity="ContentHandler" data-source-line="15" data-uid="ent0006" id="entity_ContentHandler"><rect fill="#F1F1F1" height="48" rx="2.5" ry="2.5" style="stroke:#181818;stroke-width:0.5;" width="142.8037" x="150.38" y="147.59"/><ellipse cx="165.38" cy="163.59" fill="#A9DCDF" rx="11" ry="11" style="stroke:#181818;stroke-width:1;"/><path d="M165.4894,158.9338 L164.3331,164.0119 L166.6613,164.0119 L165.4894,158.9338 Z M164.005,156.6994 L166.9894,156.6994 L170.3488,169.09 L167.8956,169.09 L167.13,166.0275 L163.8488,166.0275 L163.0988,169.09 L160.6613,169.09 L164.005,156.6994 Z " fill="#000000"/><text fill="#000000" font-family="sans-serif" font-size="14" font-style="italic" lengthAdjust="spacing" textLength="110.8037" x="179.38" y="168.4367">ContentHandler</text><line style="stroke:#181818;stroke-width:0.5;" x1="151.38" x2="292.1837" y1="179.59" y2="179.59"/><line style="stroke:#181818;stroke-width:0.5;" x1="151.38" x2="292.1837" y1="187.59" y2="187.59"/></g><!--class AutonomousProcess--><g class="entity" data-entity="AutonomousProcess" data-source-line="18" data-uid="ent0007" id="entity_AutonomousProcess"><rect fill="#F1F1F1" height="48" rx="2.5" ry="2.5" style="stroke:#181818;stroke-width:0.5;" width="173.9756" x="425.8" y="147.59"/><ellipse cx="440.8" cy="163.59" fill="#A9DCDF" rx="11" ry="11" style="stroke:#181818;stroke-width:1;"/><path d="M440.9094,158.9338 L439.7531,164.0119 L442.0813,164.0119 L440.9094,158.9338 Z M439.425,156.6994 L442.4094,156.6994 L445.7688,169.09 L443.3156,169.09 L442.55,166.0275 L439.2688,166.0275 L438.5188,169.09 L436.0813,169.09 L439.425,156.6994 Z " fill="#000000"/><text fill="#000000" font-family="sans-serif" font-size="14" font-style="italic" lengthAdjust="spacing" textLength="141.9756" x="454.8" y="168.4367">AutonomousProcess</text><line style="stroke:#181818;stroke-width:0.5;" x1="426.8" x2="598.7756" y1="179.59" y2="179.59"/><line style="stroke:#181818;stroke-width:0.5;" x1="426.8" x2="598.7756" y1="187.59" y2="187.59"/></g><!--class Content--><g class="entity" data-entity="Content" data-source-line="21" data-uid="ent0008" id="entity_Content"><rect fill="#F1F1F1" height="96.8906" rx="2.5" ry="2.5" style="stroke:#181818;stroke-width:0.5;" width="137.583" x="152.99" y="255.59"/><ellipse cx="190.4469" cy="271.59" fill="#B4A7E5" rx="11" ry="11" style="stroke:#181818;stroke-width:1;"/><path d="M186.3688,267.3556 L186.3688,265.1994 L193.7594,265.1994 L193.7594,267.3556 L191.2907,267.3556 L191.2907,275.4338 L193.7594,275.4338 L193.7594,277.59 L186.3688,277.59 L186.3688,275.4338 L188.8376,275.4338 L188.8376,267.3556 L186.3688,267.3556 Z " fill="#000000"/><text fill="#000000" font-family="sans-serif" font-size="14" font-style="italic" lengthAdjust="spacing" textLength="55.6787" x="209.4374" y="276.4367">Content</text><line style="stroke:#181818;stroke-width:0.5;" x1="153.99" x2="289.573" y1="287.59" y2="287.59"/><line style="stroke:#181818;stroke-width:0.5;" x1="153.99" x2="289.573" y1="295.59" y2="295.59"/><text fill="#000000" font-family="sans-serif" font-size="14" lengthAdjust="spacing" textLength="100.4951" x="158.99" y="312.5851">Actor sender()</text><text fill="#000000" font-family="sans-serif" font-size="14" lengthAdjust="spacing" textLength="109.6826" x="158.99" y="328.882">Actor receiver()</text><text fill="#000000" font-family="sans-serif" font-size="14" lengthAdjust="spacing" textLength="125.583" x="158.99" y="345.1789">Time timestamp()</text></g><!--class Geography--><g class="entity" data-entity="Geography" data-source-line="30" data-uid="ent0014" id="entity_Geography"><rect fill="#F1F1F1" height="48" rx="2.5" ry="2.5" style="stroke:#181818;stroke-width:0.5;" width="109.2939" x="504.14" y="23.29"/><ellipse cx="519.14" cy="39.29" fill="#ADD1B2" rx="11" ry="11" style="stroke:#181818;stroke-width:1;"/><path d="M522.1088,44.9306 Q521.5306,45.2275 520.89,45.3681 Q520.2494,45.5244 519.5463,45.5244 Q517.0463,45.5244 515.7181,43.8838 Q514.4056,42.2275 514.4056,39.1025 Q514.4056,35.9775 515.7181,34.3213 Q517.0463,32.665 519.5463,32.665 Q520.2494,32.665 520.89,32.8213 Q521.5463,32.9775 522.1088,33.2744 L522.1088,35.9931 Q521.4838,35.415 520.89,35.1494 Q520.2963,34.8681 519.6713,34.8681 Q518.3275,34.8681 517.64,35.9463 Q516.9525,37.0088 516.9525,39.1025 Q516.9525,41.1963 517.64,42.2744 Q518.3275,43.3369 519.6713,43.3369 Q520.2963,43.3369 520.89,43.0713 Q521.4838,42.79 522.1088,42.2119 L522.1088,44.9306 Z " fill="#000000"/><text fill="#000000" font-family="sans-serif" font-size="14" lengthAdjust="spacing" textLength="77.2939" x="533.14" y="44.1367">Geography</text><line style="stroke:#181818;stroke-width:0.5;" x1="505.14" x2="612.4339" y1="55.29" y2="55.29"/><line style="stroke:#181818;stroke-width:0.5;" x1="505.14" x2="612.4339" y1="63.29" y2="63.29"/></g><!--reverse link Actor to Role--><g class="link" data-entity-1="Actor" data-entity-2="Role" data-source-line="27" data-uid="lnk9" id="link_Actor_Role"><path codeLine="27" d="M359.78,100 C359.78,119.53 359.78,130.4 359.78,147.11" fill="none" id="Actor-backto-Role" style="stroke:#181818;stroke-width:1;"/><polygon fill="#181818" points="359.78,88,355.78,94,359.78,100,363.78,94,359.78,88" style="stroke:#181818;stroke-width:1;"/></g><!--link Model to Actor--><g class="link" data-entity-1="Model" data-entity-2="Actor" data-source-line="28" data-uid="lnk11" id="link_Model_Actor"><path codeLine="28" d="M216.26,47.29 C227.66,47.29 239.06,47.29 250.46,47.29" fill="none" id="Model-Actor" style="stroke:#181818;stroke-width:1;"/></g><!--link Simulator to Model--><g class="link" data-entity-1="Simulator" data-entity-2="Model" data-source-line="29" data-uid="lnk13" id="link_Simulator_Model"><path codeLine="29" d="M106.82,47.29 C118.35,47.29 129.87,47.29 141.4,47.29" fill="none" id="Simulator-Model" style="stroke:#181818;stroke-width:1;"/></g><!--link Actor to Geography--><g class="link" data-entity-1="Actor" data-entity-2="Geography" data-source-line="30" data-uid="lnk15" id="link_Actor_Geography"><path codeLine="30" d="M469,47.29 C480.57,47.29 492.15,47.29 503.72,47.29" fill="none" id="Actor-Geography" style="stroke:#181818;stroke-width:1;"/></g><!--link ContentHandler to Role--><g class="link" data-entity-1="ContentHandler" data-entity-2="Role" data-source-line="31" data-uid="lnk17" id="link_ContentHandler_Role"><path codeLine="31" d="M293.48,171.59 C304.96,171.59 304.44,171.59 315.93,171.59" fill="none" id="ContentHandler-to-Role" style="stroke:#181818;stroke-width:1;"/><polygon fill="#181818" points="327.93,171.59,321.93,167.59,315.93,171.59,321.93,175.59,327.93,171.59" style="stroke:#181818;stroke-width:1;"/></g><!--reverse link Role to AutonomousProcess--><g class="link" data-entity-1="Role" data-entity-2="AutonomousProcess" data-source-line="32" data-uid="lnk18" id="link_Role_AutonomousProcess"><path codeLine="32" d="M403.46,171.59 C414.83,171.59 414.21,171.59 425.58,171.59" fill="none" id="Role-backto-AutonomousProcess" style="stroke:#181818;stroke-width:1;"/><polygon fill="#181818" points="391.46,171.59,397.46,175.59,403.46,171.59,397.46,167.59,391.46,171.59" style="stroke:#181818;stroke-width:1;"/></g><!--link ContentHandler to Content--><g class="link" data-entity-1="ContentHandler" data-entity-2="Content" data-source-line="33" data-uid="lnk19" id="link_ContentHandler_Content"><path codeLine="33" d="M221.78,195.91 C221.78,212.4 221.78,235.08 221.78,255.33" fill="none" id="ContentHandler-Content" style="stroke:#181818;stroke-width:1;"/></g><!--SRC=[RP113i8W44Ntd89bsuH361UwCJ7g1KOObOGo3T0cndXtAPGcjTr0PlwVFppWxeC36RWqu3tVoK2EVnZd0sd57KhK0-x91hIXalckY-pHgfNsPGoMeITIQ6BeMhdgjZUGLwxL2ndS5AQTHx3AuFRihWzagQNUdnr9z3wPT9np3v1O8X9gXXvXq5Nrt9ZWS-kcM-GX7Zv0srK9CziQ8T9Bfr8OaO5PnXxh6RDudE07fAU3xlLc2RCPVKkk8aJpYeRzVO5Gy_GF]--></g></svg>