<svg xmlns="http://www.w3.org/2000/svg" xmlns:xlink="http://www.w3.org/1999/xlink" contentStyleType="text/css" data-diagram-type="CLASS" height="300px" preserveAspectRatio="none" style="width:1048px;height:300px;background:#FFFFFF;" version="1.1" viewBox="0 0 1048 300" width="1048px" zoomAndPan="magnify"><defs/><g><!--class Actor--><g class="entity" data-entity="Actor" data-source-line="3" data-uid="ent0002" id="entity_Actor"><rect fill="#F1F1F1" height="48" rx="2.5" ry="2.5" style="stroke:#181818;stroke-width:0.5;" width="69.085" x="353.52" y="7"/><ellipse cx="368.52" cy="23" fill="#A9DCDF" rx="11" ry="11" style="stroke:#181818;stroke-width:1;"/><path d="M368.6294,18.3438 L367.4731,23.4219 L369.8013,23.4219 L368.6294,18.3438 Z M367.145,16.1094 L370.1294,16.1094 L373.4888,28.5 L371.0356,28.5 L370.27,25.4375 L366.9888,25.4375 L366.2388,28.5 L363.8013,28.5 L367.145,16.1094 Z " fill="#000000"/><text fill="#000000" font-family="sans-serif" font-size="14" font-style="italic" lengthAdjust="spacing" textLength="37.085" x="382.52" y="27.8467">Actor</text><line style="stroke:#181818;stroke-width:0.5;" x1="354.52" x2="421.605" y1="39" y2="39"/><line style="stroke:#181818;stroke-width:0.5;" x1="354.52" x2="421.605" y1="47" y2="47"/></g><!--class ContentStoreInterface--><g class="entity" data-entity="ContentStoreInterface" data-source-line="6" data-uid="ent0003" id="entity_ContentStoreInterface"><rect fill="#F1F1F1" height="178.375" rx="2.5" ry="2.5" style="stroke:#181818;stroke-width:0.5;" width="281.2539" x="247.44" y="115"/><ellipse cx="305.983" cy="131" fill="#B4A7E5" rx="11" ry="11" style="stroke:#181818;stroke-width:1;"/><path d="M301.9048,126.7656 L301.9048,124.6094 L309.2955,124.6094 L309.2955,126.7656 L306.8267,126.7656 L306.8267,134.8438 L309.2955,134.8438 L309.2955,137 L301.9048,137 L301.9048,134.8438 L304.3736,134.8438 L304.3736,126.7656 L301.9048,126.7656 Z " fill="#000000"/><text fill="#000000" font-family="sans-serif" font-size="14" font-style="italic" lengthAdjust="spacing" textLength="155.668" x="326.483" y="135.8467">ContentStoreInterface</text><line style="stroke:#181818;stroke-width:0.5;" x1="248.44" x2="527.6939" y1="147" y2="147"/><line style="stroke:#181818;stroke-width:0.5;" x1="248.44" x2="527.6939" y1="155" y2="155"/><text fill="#000000" font-family="sans-serif" font-size="14" lengthAdjust="spacing" textLength="219.8027" x="253.44" y="171.9951">void addContent(content, sent)</text><text fill="#000000" font-family="sans-serif" font-size="14" lengthAdjust="spacing" textLength="242.1357" x="253.44" y="188.292">void addContent(messageId, sent)</text><text fill="#000000" font-family="sans-serif" font-size="14" lengthAdjust="spacing" textLength="246.9209" x="253.44" y="204.5889">void removeContent(content, sent)</text><text fill="#000000" font-family="sans-serif" font-size="14" lengthAdjust="spacing" textLength="269.2539" x="253.44" y="220.8857">void removeContent(messageId, sent)</text><text fill="#000000" font-family="sans-serif" font-size="14" lengthAdjust="spacing" textLength="247.1396" x="253.44" y="237.1826">void removeAllContent(groupingId)</text><text fill="#000000" font-family="sans-serif" font-size="14" lengthAdjust="spacing" textLength="257.79" x="253.44" y="253.4795">List getContentList(groupingId, sent)</text><text fill="#000000" font-family="sans-serif" font-size="14" lengthAdjust="spacing" textLength="223.3779" x="253.44" y="269.7764">boolean contains(content, sent)</text><text fill="#000000" font-family="sans-serif" font-size="14" lengthAdjust="spacing" textLength="245.7109" x="253.44" y="286.0732">boolean contains(messageId, sent)</text></g><!--class ContentStoreFull--><g class="entity" data-entity="ContentStoreFull" data-source-line="17" data-uid="ent0004" id="entity_ContentStoreFull"><rect fill="#F1F1F1" height="96.8906" rx="2.5" ry="2.5" style="stroke:#181818;stroke-width:0.5;" width="443.5186" x="598.31" y="155.75"/><ellipse cx="756.9721" cy="171.75" fill="#ADD1B2" rx="11" ry="11" style="stroke:#181818;stroke-width:1;"/><path d="M759.9409,177.3906 Q759.3627,177.6875 758.7221,177.8281 Q758.0815,177.9844 757.3784,177.9844 Q754.8784,177.9844 753.5502,176.3438 Q752.2377,174.6875 752.2377,171.5625 Q752.2377,168.4375 753.5502,166.7813 Q754.8784,165.125 757.3784,165.125 Q758.0815,165.125 758.7221,165.2813 Q759.3784,165.4375 759.9409,165.7344 L759.9409,168.4531 Q759.3159,167.875 758.7221,167.6094 Q758.1284,167.3281 757.5034,167.3281 Q756.1596,167.3281 755.4721,168.4063 Q754.7846,169.4688 754.7846,171.5625 Q754.7846,173.6563 755.4721,174.7344 Q756.1596,175.7969 757.5034,175.7969 Q758.1284,175.7969 758.7221,175.5313 Q759.3159,175.25 759.9409,174.6719 L759.9409,177.3906 Z " fill="#000000"/><text fill="#000000" font-family="sans-serif" font-size="14" lengthAdjust="spacing" textLength="117.6943" x="777.4721" y="176.5967">ContentStoreFull</text><line style="stroke:#181818;stroke-width:0.5;" x1="599.31" x2="1040.8286" y1="187.75" y2="187.75"/><text fill="#000000" font-family="sans-serif" font-size="14" lengthAdjust="spacing" textLength="304.001" x="604.31" y="204.7451">Map&lt;Long, Content&gt; groupingContentMap</text><text fill="#000000" font-family="sans-serif" font-size="14" lengthAdjust="spacing" textLength="431.5186" x="604.31" y="221.042">Map&lt;Class&lt;Content&gt;, List&lt;Content&gt;&gt; receivedContentMap</text><text fill="#000000" font-family="sans-serif" font-size="14" lengthAdjust="spacing" textLength="401.4336" x="604.31" y="237.3389">Map&lt;Class&lt;Content&gt;, List&lt;Content&gt;&gt; sentContentMap</text><line style="stroke:#181818;stroke-width:0.5;" x1="599.31" x2="1040.8286" y1="244.6406" y2="244.6406"/></g><!--class ContentStoreEmpty--><g class="entity" data-entity="ContentStoreEmpty" data-source-line="25" data-uid="ent0007" id="entity_ContentStoreEmpty"><rect fill="#F1F1F1" height="48" rx="2.5" ry="2.5" style="stroke:#181818;stroke-width:0.5;" width="170.1338" x="7" y="180.19"/><ellipse cx="22" cy="196.19" fill="#ADD1B2" rx="11" ry="11" style="stroke:#181818;stroke-width:1;"/><path d="M24.9688,201.8306 Q24.3906,202.1275 23.75,202.2681 Q23.1094,202.4244 22.4063,202.4244 Q19.9063,202.4244 18.5781,200.7838 Q17.2656,199.1275 17.2656,196.0025 Q17.2656,192.8775 18.5781,191.2213 Q19.9063,189.565 22.4063,189.565 Q23.1094,189.565 23.75,189.7213 Q24.4063,189.8775 24.9688,190.1744 L24.9688,192.8931 Q24.3438,192.315 23.75,192.0494 Q23.1563,191.7681 22.5313,191.7681 Q21.1875,191.7681 20.5,192.8463 Q19.8125,193.9088 19.8125,196.0025 Q19.8125,198.0963 20.5,199.1744 Q21.1875,200.2369 22.5313,200.2369 Q23.1563,200.2369 23.75,199.9713 Q24.3438,199.69 24.9688,199.1119 L24.9688,201.8306 Z " fill="#000000"/><text fill="#000000" font-family="sans-serif" font-size="14" lengthAdjust="spacing" textLength="138.1338" x="36" y="201.0367">ContentStoreEmpty</text><line style="stroke:#181818;stroke-width:0.5;" x1="8" x2="176.1338" y1="212.19" y2="212.19"/><line style="stroke:#181818;stroke-width:0.5;" x1="8" x2="176.1338" y1="220.19" y2="220.19"/></g><!--link Actor to ContentStoreInterface--><g class="link" data-entity-1="Actor" data-entity-2="ContentStoreInterface" data-source-line="23" data-uid="lnk5" id="link_Actor_ContentStoreInterface"><path codeLine="23" d="M388.07,55.45 C388.07,71.11 388.07,92.79 388.07,114.72" fill="none" id="Actor-ContentStoreInterface" style="stroke:#181818;stroke-width:1;"/></g><!--reverse link ContentStoreInterface to ContentStoreFull--><g class="link" data-entity-1="ContentStoreInterface" data-entity-2="ContentStoreFull" data-source-line="24" data-uid="lnk6" id="link_ContentStoreInterface_ContentStoreFull"><path codeLine="24" d="M546.97,204.19 C570,204.19 575.03,204.19 598.05,204.19" fill="none" id="ContentStoreInterface-backto-ContentStoreFull" style="stroke:#181818;stroke-width:1;stroke-dasharray:7,7;"/><polygon fill="none" points="528.97,204.19,546.97,210.19,546.97,198.19,528.97,204.19" style="stroke:#181818;stroke-width:1;"/></g><!--link ContentStoreEmpty to ContentStoreInterface--><g class="link" data-entity-1="ContentStoreEmpty" data-entity-2="ContentStoreInterface" data-source-line="25" data-uid="lnk9" id="link_ContentStoreEmpty_ContentStoreInterface"><path codeLine="25" d="M177.63,204.19 C200.78,204.19 205.94,204.19 229.09,204.19" fill="none" id="ContentStoreEmpty-to-ContentStoreInterface" style="stroke:#181818;stroke-width:1;stroke-dasharray:7,7;"/><polygon fill="none" points="247.09,204.19,229.09,198.19,229.09,210.19,247.09,204.19" style="stroke:#181818;stroke-width:1;"/></g><!--SRC=[bPB1QiCm38RlVWeTDqX3Rxk4GYaR1BhJda2rDMFcsCPo0wFRkyzfaYvhGc0Nsv8-YL-I-SEuW14RS5uHKu2dhH1uuXHH9f0McM4lauzm4Tz269SelgCaEFZyTEajXwY-UIy2eFL60Ier40-olmlWV3uk00qnewPQtI6H6j_IUfc_p7gblRKZgAC_1-DqhJhcQ3Y1fZH4EtD2_DOwUMy97NHIq3YUQveHCqLvYFrKfmDyELjxdTqhXkhedIx6y0v68OCZ4mDtwCfK8rTSkxYPkzop9DEI-czU9tEIa_Ns-z-epVBInV9NgBxACfRbhCyLtDxXpqr8dpy0]--></g></svg>