<svg xmlns="http://www.w3.org/2000/svg" xmlns:xlink="http://www.w3.org/1999/xlink" contentStyleType="text/css" data-diagram-type="SEQUENCE" height="1104px" preserveAspectRatio="none" style="width:1607px;height:1104px;background:#FFFFFF;" version="1.1" viewBox="0 0 1607 1104" width="1607px" zoomAndPan="magnify"><defs><filter height="1" id="b1pmmu9dyhwz7x0" width="1" x="0" y="0"><feFlood flood-color="#FFFF00" result="flood"/><feComposite in="SourceGraphic" in2="flood" operator="over"/></filter></defs><g><rect fill="#DDDDDD" height="1092.2422" style="stroke:#181818;stroke-width:0.5;" width="87.7207" x="11" y="6"/><text fill="#000000" font-family="sans-serif" font-size="13" font-weight="bold" lengthAdjust="spacing" textLength="59.5981" x="25.0613" y="18.0669">Banking</text><rect fill="#ADD8E6" height="1092.2422" style="stroke:#181818;stroke-width:0.5;" width="550.7241" x="120.7207" y="6"/><text fill="#000000" font-family="sans-serif" font-size="13" font-weight="bold" lengthAdjust="spacing" textLength="544.7241" x="123.7207" y="18.0669">Buyer = Consuming + Purchasing + Warehousing + Financing + Receiving</text><rect fill="#DDDDDD" height="1092.2422" style="stroke:#181818;stroke-width:0.5;" width="100.9619" x="693.4448" y="6"/><text fill="#000000" font-family="sans-serif" font-size="13" font-weight="bold" lengthAdjust="spacing" textLength="73.3408" x="707.2554" y="18.0669">Searching</text><rect fill="#ADD8E6" height="1092.2422" style="stroke:#181818;stroke-width:0.5;" width="462.9976" x="816.4067" y="6"/><text fill="#000000" font-family="sans-serif" font-size="13" font-weight="bold" lengthAdjust="spacing" textLength="404.7837" x="845.5137" y="18.0669">Seller = Selling + Warehousing + Financing + Shipping</text><rect fill="#DDDDDD" height="1092.2422" style="stroke:#181818;stroke-width:0.5;" width="299.2871" x="1302.3442" y="6"/><text fill="#000000" font-family="sans-serif" font-size="13" font-weight="bold" lengthAdjust="spacing" textLength="293.2871" x="1305.3442" y="18.0669">Transporter = Transporting + Financing</text><g><title>Consuming1</title><rect fill="#FFFFFF" height="849.9844" style="stroke:#181818;stroke-width:1;" width="10" x="172.6184" y="66.4297"/></g><g><title>Purchasing1</title><rect fill="#FFFFFF" height="378.7266" style="stroke:#181818;stroke-width:1;" width="10" x="283.4417" y="87.5625"/></g><g><title>Warehousing1</title><rect fill="#FFFFFF" height="29.1328" style="stroke:#181818;stroke-width:1;" width="10" x="400.9539" y="887.2813"/></g><g><title>Financing1</title><rect fill="#FFFFFF" height="71.2656" style="stroke:#181818;stroke-width:1;" width="10" x="513.6912" y="595.8203"/></g><g><title>Receiving1</title><rect fill="#FFFFFF" height="44.2656" style="stroke:#181818;stroke-width:1;" width="10" x="614.6433" y="843.0156"/></g><g><title>Searching2</title><rect fill="#FFFFFF" height="29.1328" style="stroke:#181818;stroke-width:1;" width="10" x="738.9258" y="116.6953"/></g><g><title>Selling3</title><rect fill="#FFFFFF" height="174.7969" style="stroke:#181818;stroke-width:1;" width="10" x="850.3247" y="174.9609"/></g><g><title>Selling3</title><rect fill="#FFFFFF" height="187.7969" style="stroke:#181818;stroke-width:1;" width="10" x="850.3247" y="378.8906"/></g><g><title>Financing3</title><rect fill="#FFFFFF" height="129.5313" style="stroke:#181818;stroke-width:1;" width="10" x="992.7954" y="566.6875"/></g><g><title>Financing3</title><rect fill="#FFFFFF" height="71.2656" style="stroke:#181818;stroke-width:1;" width="10" x="992.7954" y="945.5469"/></g><g><title>Warehousing3</title><rect fill="#FFFFFF" height="29.1328" style="stroke:#181818;stroke-width:1;" width="10" x="1105.5327" y="204.0938"/></g><g><title>Warehousing3</title><rect fill="#FFFFFF" height="29.1328" style="stroke:#181818;stroke-width:1;" width="10" x="1105.5327" y="408.0234"/></g><g><title>Warehousing3</title><rect fill="#FFFFFF" height="187.7969" style="stroke:#181818;stroke-width:1;" width="10" x="1105.5327" y="537.5547"/></g><g><title>Shipping3</title><rect fill="#FFFFFF" height="44.2656" style="stroke:#181818;stroke-width:1;" width="10" x="1228.4146" y="725.3516"/></g><g><title>Transporting4</title><rect fill="#FFFFFF" height="29.1328" style="stroke:#181818;stroke-width:1;" width="10" x="1395.7668" y="262.3594"/></g><g><title>Transporting4</title><rect fill="#FFFFFF" height="73.3984" style="stroke:#181818;stroke-width:1;" width="10" x="1395.7668" y="769.6172"/></g><g><title>Financing4</title><rect fill="#FFFFFF" height="232.0625" style="stroke:#181818;stroke-width:1;" width="10" x="1509.1018" y="813.8828"/></g><g><title>Banking1</title><rect fill="#000000" fill-opacity="0.00000" height="1007.5156" width="8" x="50.8604" y="56.4297"/><line style="stroke:#181818;stroke-width:0.5;stroke-dasharray:5,5;" x1="54" x2="54" y1="56.4297" y2="1063.9453"/></g><g><title>Consuming1</title><rect fill="#000000" fill-opacity="0.00000" height="1007.5156" width="8" x="173.6184" y="56.4297"/><line style="stroke:#181818;stroke-width:0.5;stroke-dasharray:5,5;" x1="176.8308" x2="176.8308" y1="56.4297" y2="1063.9453"/></g><g><title>Purchasing1</title><rect fill="#000000" fill-opacity="0.00000" height="1007.5156" width="8" x="284.4417" y="56.4297"/><line style="stroke:#181818;stroke-width:0.5;stroke-dasharray:5,5;" x1="288.406" x2="288.406" y1="56.4297" y2="1063.9453"/></g><g><title>Warehousing1</title><rect fill="#000000" fill-opacity="0.00000" height="1007.5156" width="8" x="401.9539" y="56.4297"/><line style="stroke:#181818;stroke-width:0.5;stroke-dasharray:5,5;" x1="405.4773" x2="405.4773" y1="56.4297" y2="1063.9453"/></g><g><title>Financing1</title><rect fill="#000000" fill-opacity="0.00000" height="1007.5156" width="8" x="514.6912" y="56.4297"/><line style="stroke:#181818;stroke-width:0.5;stroke-dasharray:5,5;" x1="518.4304" x2="518.4304" y1="56.4297" y2="1063.9453"/></g><g><title>Receiving1</title><rect fill="#000000" fill-opacity="0.00000" height="1007.5156" width="8" x="615.6433" y="56.4297"/><line style="stroke:#181818;stroke-width:0.5;stroke-dasharray:5,5;" x1="618.9519" x2="618.9519" y1="56.4297" y2="1063.9453"/></g><g><title>Searching2</title><rect fill="#000000" fill-opacity="0.00000" height="1007.5156" width="8" x="739.9258" y="56.4297"/><line style="stroke:#181818;stroke-width:0.5;stroke-dasharray:5,5;" x1="743.4448" x2="743.4448" y1="56.4297" y2="1063.9453"/></g><g><title>Selling3</title><rect fill="#000000" fill-opacity="0.00000" height="1007.5156" width="8" x="851.3247" y="56.4297"/><line style="stroke:#181818;stroke-width:0.5;stroke-dasharray:5,5;" x1="854.4067" x2="854.4067" y1="56.4297" y2="1063.9453"/></g><g><title>Financing3</title><rect fill="#000000" fill-opacity="0.00000" height="1007.5156" width="8" x="993.7954" y="56.4297"/><line style="stroke:#181818;stroke-width:0.5;stroke-dasharray:5,5;" x1="997.5347" x2="997.5347" y1="56.4297" y2="1063.9453"/></g><g><title>Warehousing3</title><rect fill="#000000" fill-opacity="0.00000" height="1007.5156" width="8" x="1106.5327" y="56.4297"/><line style="stroke:#181818;stroke-width:0.5;stroke-dasharray:5,5;" x1="1110.0562" x2="1110.0562" y1="56.4297" y2="1063.9453"/></g><g><title>Shipping3</title><rect fill="#000000" fill-opacity="0.00000" height="1007.5156" width="8" x="1229.4146" y="56.4297"/><line style="stroke:#181818;stroke-width:0.5;stroke-dasharray:5,5;" x1="1232.4248" x2="1232.4248" y1="56.4297" y2="1063.9453"/></g><g><title>Transporting4</title><rect fill="#000000" fill-opacity="0.00000" height="1007.5156" width="8" x="1396.7668" y="56.4297"/><line style="stroke:#181818;stroke-width:0.5;stroke-dasharray:5,5;" x1="1400.613" x2="1400.613" y1="56.4297" y2="1063.9453"/></g><g><title>Financing4</title><rect fill="#000000" fill-opacity="0.00000" height="1007.5156" width="8" x="1510.1018" y="56.4297"/><line style="stroke:#181818;stroke-width:0.5;stroke-dasharray:5,5;" x1="1513.8411" x2="1513.8411" y1="56.4297" y2="1063.9453"/></g><g class="participant participant-head" data-participant="BR0"><rect fill="#E2E2F0" height="30.2969" rx="2.5" ry="2.5" style="stroke:#181818;stroke-width:0.5;" width="79.7207" x="15" y="25.1328"/><text fill="#000000" font-family="sans-serif" font-size="14" lengthAdjust="spacing" textLength="65.7207" x="22" y="45.1279">Banking1</text></g><g class="participant participant-tail" data-participant="BR0"><rect fill="#E2E2F0" height="30.2969" rx="2.5" ry="2.5" style="stroke:#181818;stroke-width:0.5;" width="79.7207" x="15" y="1062.9453"/><text fill="#000000" font-family="sans-serif" font-size="14" lengthAdjust="spacing" textLength="65.7207" x="22" y="1082.9404">Banking1</text></g><g class="participant participant-head" data-participant="CR1"><rect fill="#E2E2F0" height="30.2969" rx="2.5" ry="2.5" style="stroke:#181818;stroke-width:0.5;" width="101.5752" x="126.8308" y="25.1328"/><text fill="#000000" font-family="sans-serif" font-size="14" lengthAdjust="spacing" textLength="87.5752" x="133.8308" y="45.1279">Consuming1</text></g><g class="participant participant-tail" data-participant="CR1"><rect fill="#E2E2F0" height="30.2969" rx="2.5" ry="2.5" style="stroke:#181818;stroke-width:0.5;" width="101.5752" x="126.8308" y="1062.9453"/><text fill="#000000" font-family="sans-serif" font-size="14" lengthAdjust="spacing" textLength="87.5752" x="133.8308" y="1082.9404">Consuming1</text></g><g class="participant participant-head" data-participant="PR1"><rect fill="#E2E2F0" height="30.2969" rx="2.5" ry="2.5" style="stroke:#181818;stroke-width:0.5;" width="100.0713" x="238.406" y="25.1328"/><text fill="#000000" font-family="sans-serif" font-size="14" lengthAdjust="spacing" textLength="86.0713" x="245.406" y="45.1279">Purchasing1</text></g><g class="participant participant-tail" data-participant="PR1"><rect fill="#E2E2F0" height="30.2969" rx="2.5" ry="2.5" style="stroke:#181818;stroke-width:0.5;" width="100.0713" x="238.406" y="1062.9453"/><text fill="#000000" font-family="sans-serif" font-size="14" lengthAdjust="spacing" textLength="86.0713" x="245.406" y="1082.9404">Purchasing1</text></g><g class="participant participant-head" data-participant="WR1"><rect fill="#E2E2F0" height="30.2969" rx="2.5" ry="2.5" style="stroke:#181818;stroke-width:0.5;" width="114.9531" x="348.4773" y="25.1328"/><text fill="#000000" font-family="sans-serif" font-size="14" lengthAdjust="spacing" textLength="100.9531" x="355.4773" y="45.1279">Warehousing1</text></g><g class="participant participant-tail" data-participant="WR1"><rect fill="#E2E2F0" height="30.2969" rx="2.5" ry="2.5" style="stroke:#181818;stroke-width:0.5;" width="114.9531" x="348.4773" y="1062.9453"/><text fill="#000000" font-family="sans-serif" font-size="14" lengthAdjust="spacing" textLength="100.9531" x="355.4773" y="1082.9404">Warehousing1</text></g><g class="participant participant-head" data-participant="FR1"><rect fill="#E2E2F0" height="30.2969" rx="2.5" ry="2.5" style="stroke:#181818;stroke-width:0.5;" width="90.5215" x="473.4304" y="25.1328"/><text fill="#000000" font-family="sans-serif" font-size="14" lengthAdjust="spacing" textLength="76.5215" x="480.4304" y="45.1279">Financing1</text></g><g class="participant participant-tail" data-participant="FR1"><rect fill="#E2E2F0" height="30.2969" rx="2.5" ry="2.5" style="stroke:#181818;stroke-width:0.5;" width="90.5215" x="473.4304" y="1062.9453"/><text fill="#000000" font-family="sans-serif" font-size="14" lengthAdjust="spacing" textLength="76.5215" x="480.4304" y="1082.9404">Financing1</text></g><g class="participant participant-head" data-participant="RR1"><rect fill="#E2E2F0" height="30.2969" rx="2.5" ry="2.5" style="stroke:#181818;stroke-width:0.5;" width="91.3828" x="573.9519" y="25.1328"/><text fill="#000000" font-family="sans-serif" font-size="14" lengthAdjust="spacing" textLength="77.3828" x="580.9519" y="45.1279">Receiving1</text></g><g class="participant participant-tail" data-participant="RR1"><rect fill="#E2E2F0" height="30.2969" rx="2.5" ry="2.5" style="stroke:#181818;stroke-width:0.5;" width="91.3828" x="573.9519" y="1062.9453"/><text fill="#000000" font-family="sans-serif" font-size="14" lengthAdjust="spacing" textLength="77.3828" x="580.9519" y="1082.9404">Receiving1</text></g><g class="participant participant-head" data-participant="SR2"><rect fill="#E2E2F0" height="30.2969" rx="2.5" ry="2.5" style="stroke:#181818;stroke-width:0.5;" width="92.9619" x="697.4448" y="25.1328"/><text fill="#000000" font-family="sans-serif" font-size="14" lengthAdjust="spacing" textLength="78.9619" x="704.4448" y="45.1279">Searching2</text></g><g class="participant participant-tail" data-participant="SR2"><rect fill="#E2E2F0" height="30.2969" rx="2.5" ry="2.5" style="stroke:#181818;stroke-width:0.5;" width="92.9619" x="697.4448" y="1062.9453"/><text fill="#000000" font-family="sans-serif" font-size="14" lengthAdjust="spacing" textLength="78.9619" x="704.4448" y="1082.9404">Searching2</text></g><g class="participant participant-head" data-participant="SR3"><rect fill="#E2E2F0" height="30.2969" rx="2.5" ry="2.5" style="stroke:#181818;stroke-width:0.5;" width="69.8359" x="820.4067" y="25.1328"/><text fill="#000000" font-family="sans-serif" font-size="14" lengthAdjust="spacing" textLength="55.8359" x="827.4067" y="45.1279">Selling3</text></g><g class="participant participant-tail" data-participant="SR3"><rect fill="#E2E2F0" height="30.2969" rx="2.5" ry="2.5" style="stroke:#181818;stroke-width:0.5;" width="69.8359" x="820.4067" y="1062.9453"/><text fill="#000000" font-family="sans-serif" font-size="14" lengthAdjust="spacing" textLength="55.8359" x="827.4067" y="1082.9404">Selling3</text></g><g class="participant participant-head" data-participant="FR3"><rect fill="#E2E2F0" height="30.2969" rx="2.5" ry="2.5" style="stroke:#181818;stroke-width:0.5;" width="90.5215" x="952.5347" y="25.1328"/><text fill="#000000" font-family="sans-serif" font-size="14" lengthAdjust="spacing" textLength="76.5215" x="959.5347" y="45.1279">Financing3</text></g><g class="participant participant-tail" data-participant="FR3"><rect fill="#E2E2F0" height="30.2969" rx="2.5" ry="2.5" style="stroke:#181818;stroke-width:0.5;" width="90.5215" x="952.5347" y="1062.9453"/><text fill="#000000" font-family="sans-serif" font-size="14" lengthAdjust="spacing" textLength="76.5215" x="959.5347" y="1082.9404">Financing3</text></g><g class="participant participant-head" data-participant="WR3"><rect fill="#E2E2F0" height="30.2969" rx="2.5" ry="2.5" style="stroke:#181818;stroke-width:0.5;" width="114.9531" x="1053.0562" y="25.1328"/><text fill="#000000" font-family="sans-serif" font-size="14" lengthAdjust="spacing" textLength="100.9531" x="1060.0562" y="45.1279">Warehousing3</text></g><g class="participant participant-tail" data-participant="WR3"><rect fill="#E2E2F0" height="30.2969" rx="2.5" ry="2.5" style="stroke:#181818;stroke-width:0.5;" width="114.9531" x="1053.0562" y="1062.9453"/><text fill="#000000" font-family="sans-serif" font-size="14" lengthAdjust="spacing" textLength="100.9531" x="1060.0562" y="1082.9404">Warehousing3</text></g><g class="participant participant-head" data-participant="ShR3"><rect fill="#E2E2F0" height="30.2969" rx="2.5" ry="2.5" style="stroke:#181818;stroke-width:0.5;" width="83.9795" x="1191.4248" y="25.1328"/><text fill="#000000" font-family="sans-serif" font-size="14" lengthAdjust="spacing" textLength="69.9795" x="1198.4248" y="45.1279">Shipping3</text></g><g class="participant participant-tail" data-participant="ShR3"><rect fill="#E2E2F0" height="30.2969" rx="2.5" ry="2.5" style="stroke:#181818;stroke-width:0.5;" width="83.9795" x="1191.4248" y="1062.9453"/><text fill="#000000" font-family="sans-serif" font-size="14" lengthAdjust="spacing" textLength="69.9795" x="1198.4248" y="1082.9404">Shipping3</text></g><g class="participant participant-head" data-participant="TR4"><rect fill="#E2E2F0" height="30.2969" rx="2.5" ry="2.5" style="stroke:#181818;stroke-width:0.5;" width="112.3076" x="1344.613" y="25.1328"/><text fill="#000000" font-family="sans-serif" font-size="14" lengthAdjust="spacing" textLength="98.3076" x="1351.613" y="45.1279">Transporting4</text></g><g class="participant participant-tail" data-participant="TR4"><rect fill="#E2E2F0" height="30.2969" rx="2.5" ry="2.5" style="stroke:#181818;stroke-width:0.5;" width="112.3076" x="1344.613" y="1062.9453"/><text fill="#000000" font-family="sans-serif" font-size="14" lengthAdjust="spacing" textLength="98.3076" x="1351.613" y="1082.9404">Transporting4</text></g><g class="participant participant-head" data-participant="FR4"><rect fill="#E2E2F0" height="30.2969" rx="2.5" ry="2.5" style="stroke:#181818;stroke-width:0.5;" width="90.5215" x="1468.8411" y="25.1328"/><text fill="#000000" font-family="sans-serif" font-size="14" lengthAdjust="spacing" textLength="76.5215" x="1475.8411" y="45.1279">Financing4</text></g><g class="participant participant-tail" data-participant="FR4"><rect fill="#E2E2F0" height="30.2969" rx="2.5" ry="2.5" style="stroke:#181818;stroke-width:0.5;" width="90.5215" x="1468.8411" y="1062.9453"/><text fill="#000000" font-family="sans-serif" font-size="14" lengthAdjust="spacing" textLength="76.5215" x="1475.8411" y="1082.9404">Financing4</text></g><g><title>Consuming1</title><rect fill="#FFFFFF" height="849.9844" style="stroke:#181818;stroke-width:1;" width="10" x="172.6184" y="66.4297"/></g><g><title>Purchasing1</title><rect fill="#FFFFFF" height="378.7266" style="stroke:#181818;stroke-width:1;" width="10" x="283.4417" y="87.5625"/></g><g><title>Warehousing1</title><rect fill="#FFFFFF" height="29.1328" style="stroke:#181818;stroke-width:1;" width="10" x="400.9539" y="887.2813"/></g><g><title>Financing1</title><rect fill="#FFFFFF" height="71.2656" style="stroke:#181818;stroke-width:1;" width="10" x="513.6912" y="595.8203"/></g><g><title>Receiving1</title><rect fill="#FFFFFF" height="44.2656" style="stroke:#181818;stroke-width:1;" width="10" x="614.6433" y="843.0156"/></g><g><title>Searching2</title><rect fill="#FFFFFF" height="29.1328" style="stroke:#181818;stroke-width:1;" width="10" x="738.9258" y="116.6953"/></g><g><title>Selling3</title><rect fill="#FFFFFF" height="174.7969" style="stroke:#181818;stroke-width:1;" width="10" x="850.3247" y="174.9609"/></g><g><title>Selling3</title><rect fill="#FFFFFF" height="187.7969" style="stroke:#181818;stroke-width:1;" width="10" x="850.3247" y="378.8906"/></g><g><title>Financing3</title><rect fill="#FFFFFF" height="129.5313" style="stroke:#181818;stroke-width:1;" width="10" x="992.7954" y="566.6875"/></g><g><title>Financing3</title><rect fill="#FFFFFF" height="71.2656" style="stroke:#181818;stroke-width:1;" width="10" x="992.7954" y="945.5469"/></g><g><title>Warehousing3</title><rect fill="#FFFFFF" height="29.1328" style="stroke:#181818;stroke-width:1;" width="10" x="1105.5327" y="204.0938"/></g><g><title>Warehousing3</title><rect fill="#FFFFFF" height="29.1328" style="stroke:#181818;stroke-width:1;" width="10" x="1105.5327" y="408.0234"/></g><g><title>Warehousing3</title><rect fill="#FFFFFF" height="187.7969" style="stroke:#181818;stroke-width:1;" width="10" x="1105.5327" y="537.5547"/></g><g><title>Shipping3</title><rect fill="#FFFFFF" height="44.2656" style="stroke:#181818;stroke-width:1;" width="10" x="1228.4146" y="725.3516"/></g><g><title>Transporting4</title><rect fill="#FFFFFF" height="29.1328" style="stroke:#181818;stroke-width:1;" width="10" x="1395.7668" y="262.3594"/></g><g><title>Transporting4</title><rect fill="#FFFFFF" height="73.3984" style="stroke:#181818;stroke-width:1;" width="10" x="1395.7668" y="769.6172"/></g><g><title>Financing4</title><rect fill="#FFFFFF" height="232.0625" style="stroke:#181818;stroke-width:1;" width="10" x="1509.1018" y="813.8828"/></g><g class="message" data-participant-1="CR1" data-participant-2="PR1"><polygon fill="#181818" points="271.4417,83.5625,281.4417,87.5625,271.4417,91.5625,275.4417,87.5625" style="stroke:#181818;stroke-width:1;"/><line style="stroke:#181818;stroke-width:1;" x1="182.6184" x2="277.4417" y1="87.5625" y2="87.5625"/><text fill="#000000" font-family="sans-serif" font-size="13" lengthAdjust="spacing" textLength="55.1294" x="205.4653" y="82.4966">Demand</text></g><g class="message" data-participant-1="PR1" data-participant-2="SR2"><polygon fill="#181818" points="726.9258,112.6953,736.9258,116.6953,726.9258,120.6953,730.9258,116.6953" style="stroke:#181818;stroke-width:1;"/><line style="stroke:#181818;stroke-width:1;" x1="293.4417" x2="732.9258" y1="116.6953" y2="116.6953"/><text fill="#000000" font-family="sans-serif" font-size="13" lengthAdjust="spacing" textLength="98.3379" x="467.0148" y="111.6294">SearchRequest</text></g><g class="message" data-participant-1="SR2" data-participant-2="PR1"><polygon fill="#181818" points="304.4417,141.8281,294.4417,145.8281,304.4417,149.8281,300.4417,145.8281" style="stroke:#181818;stroke-width:1;"/><line style="stroke:#181818;stroke-width:1;stroke-dasharray:2,2;" x1="298.4417" x2="742.9258" y1="145.8281" y2="145.8281"/><text fill="#000000" font-family="sans-serif" font-size="13" lengthAdjust="spacing" textLength="92.8281" x="472.2697" y="140.7622">SearchAnswer</text></g><g class="message" data-participant-1="PR1" data-participant-2="SR3"><polygon fill="#181818" points="838.3247,170.9609,848.3247,174.9609,838.3247,178.9609,842.3247,174.9609" style="stroke:#181818;stroke-width:1;"/><line style="stroke:#181818;stroke-width:1;" x1="293.4417" x2="844.3247" y1="174.9609" y2="174.9609"/><text fill="#000000" font-family="sans-serif" font-size="13" lengthAdjust="spacing" textLength="113.6865" x="515.0399" y="169.895">RequestForQuote</text></g><g class="message" data-participant-1="SR3" data-participant-2="WR3"><polygon fill="#181818" points="1093.5327,200.0938,1103.5327,204.0938,1093.5327,208.0938,1097.5327,204.0938" style="stroke:#181818;stroke-width:1;"/><line style="stroke:#181818;stroke-width:1;" x1="860.3247" x2="1099.5327" y1="204.0938" y2="204.0938"/><text fill="#000000" font-family="sans-serif" font-size="13" lengthAdjust="spacing" textLength="155.0034" x="905.427" y="199.0278">InventoryQuoteRequest</text></g><g class="message" data-participant-1="WR3" data-participant-2="SR3"><polygon fill="#181818" points="871.3247,229.2266,861.3247,233.2266,871.3247,237.2266,867.3247,233.2266" style="stroke:#181818;stroke-width:1;"/><line style="stroke:#181818;stroke-width:1;stroke-dasharray:2,2;" x1="865.3247" x2="1109.5327" y1="233.2266" y2="233.2266"/><text fill="#000000" font-family="sans-serif" font-size="13" lengthAdjust="spacing" textLength="101.6133" x="934.6221" y="228.1606">InventoryQuote</text></g><g class="message" data-participant-1="SR3" data-participant-2="TR4"><polygon fill="#181818" points="1383.7668,258.3594,1393.7668,262.3594,1383.7668,266.3594,1387.7668,262.3594" style="stroke:#181818;stroke-width:1;"/><line style="stroke:#181818;stroke-width:1;" x1="860.3247" x2="1389.7668" y1="262.3594" y2="262.3594"/><text fill="#000000" font-family="sans-serif" font-size="13" lengthAdjust="spacing" textLength="155.8223" x="1050.1346" y="257.2935">TransportQuoteRequest</text></g><g class="message" data-participant-1="TR4" data-participant-2="SR3"><polygon fill="#181818" points="871.3247,287.4922,861.3247,291.4922,871.3247,295.4922,867.3247,291.4922" style="stroke:#181818;stroke-width:1;"/><line style="stroke:#181818;stroke-width:1;stroke-dasharray:2,2;" x1="865.3247" x2="1399.7668" y1="291.4922" y2="291.4922"/><text fill="#000000" font-family="sans-serif" font-size="13" lengthAdjust="spacing" textLength="102.4321" x="1079.3297" y="286.4263">TransportQuote</text></g><g class="message" data-participant-1="SR3" data-participant-2="PR1"><polygon fill="#181818" points="304.4417,316.625,294.4417,320.625,304.4417,324.625,300.4417,320.625" style="stroke:#181818;stroke-width:1;"/><line style="stroke:#181818;stroke-width:1;stroke-dasharray:2,2;" x1="298.4417" x2="849.3247" y1="320.625" y2="320.625"/><text fill="#000000" font-family="sans-serif" font-size="13" lengthAdjust="spacing" textLength="57.1987" x="543.2838" y="315.5591">QuoteNo</text></g><g class="message" data-participant-1="SR3" data-participant-2="PR1"><polygon fill="#181818" points="304.4417,345.7578,294.4417,349.7578,304.4417,353.7578,300.4417,349.7578" style="stroke:#181818;stroke-width:1;"/><line style="stroke:#181818;stroke-width:1;stroke-dasharray:2,2;" x1="298.4417" x2="854.3247" y1="349.7578" y2="349.7578"/><text fill="#000000" font-family="sans-serif" font-size="13" lengthAdjust="spacing" textLength="39.5205" x="554.6229" y="344.6919">Quote</text></g><g class="message" data-participant-1="PR1" data-participant-2="SR3"><polygon fill="#181818" points="838.3247,374.8906,848.3247,378.8906,838.3247,382.8906,842.3247,378.8906" style="stroke:#181818;stroke-width:1;"/><line style="stroke:#181818;stroke-width:1;" x1="293.4417" x2="844.3247" y1="378.8906" y2="378.8906"/><text fill="#000000" font-family="sans-serif" font-size="13" lengthAdjust="spacing" textLength="135.0718" x="504.3473" y="373.8247">OrderBasedOnQuote</text></g><g class="message" data-participant-1="SR3" data-participant-2="WR3"><polygon fill="#181818" points="1093.5327,404.0234,1103.5327,408.0234,1093.5327,412.0234,1097.5327,408.0234" style="stroke:#181818;stroke-width:1;"/><line style="stroke:#181818;stroke-width:1;" x1="860.3247" x2="1099.5327" y1="408.0234" y2="408.0234"/><text fill="#000000" font-family="sans-serif" font-size="13" lengthAdjust="spacing" textLength="193.1909" x="886.3333" y="402.9575">InventoryReservationRequest</text></g><g class="message" data-participant-1="WR3" data-participant-2="SR3"><polygon fill="#181818" points="871.3247,433.1563,861.3247,437.1563,871.3247,441.1563,867.3247,437.1563" style="stroke:#181818;stroke-width:1;"/><line style="stroke:#181818;stroke-width:1;stroke-dasharray:2,2;" x1="865.3247" x2="1109.5327" y1="437.1563" y2="437.1563"/><text fill="#000000" font-family="sans-serif" font-size="13" lengthAdjust="spacing" textLength="139.8008" x="915.5283" y="432.0903">InventoryReservation</text></g><g class="message" data-participant-1="SR3" data-participant-2="PR1"><polygon fill="#181818" points="299.4417,462.2891,289.4417,466.2891,299.4417,470.2891,295.4417,466.2891" style="stroke:#181818;stroke-width:1;"/><line style="stroke:#181818;stroke-width:1;stroke-dasharray:2,2;" x1="293.4417" x2="849.3247" y1="466.2891" y2="466.2891"/><text fill="#000000" font-family="sans-serif" font-size="13" lengthAdjust="spacing" textLength="121.5068" x="508.6298" y="461.2231">OrderConfirmation</text></g><g class="message" data-participant-1="SR3" data-participant-2="SR3"><line style="stroke:#181818;stroke-width:1;" x1="860.3247" x2="902.3247" y1="495.4219" y2="495.4219"/><line style="stroke:#181818;stroke-width:1;" x1="902.3247" x2="902.3247" y1="495.4219" y2="508.4219"/><line style="stroke:#181818;stroke-width:1;" x1="861.3247" x2="902.3247" y1="508.4219" y2="508.4219"/><polygon fill="#181818" points="871.3247,504.4219,861.3247,508.4219,871.3247,512.4219,867.3247,508.4219" style="stroke:#181818;stroke-width:1;"/><text fill="#000000" font-family="sans-serif" font-size="13" lengthAdjust="spacing" textLength="27.3076" x="867.3247" y="490.356">wait</text><path d="M904.098,481.5052 C901.7146,481.5052 899.7646,483.4552 899.7646,485.8385 C899.7646,488.2219 901.7146,490.1719 904.098,490.1719 C906.4813,490.1719 908.4313,488.2219 908.4313,485.8385 C908.4313,483.4552 906.4813,481.5052 904.098,481.5052 M904.098,482.5885 C905.8963,482.5885 907.348,484.0402 907.348,485.8385 C907.348,487.6369 905.8963,489.0885 904.098,489.0885 C902.2996,489.0885 900.848,487.6369 900.848,485.8385 C900.848,484.0402 902.2996,482.5885 904.098,482.5885 M903.5563,483.6719 L903.5563,486.0769 L903.7296,486.2177 L904.2713,486.7594 L904.6396,487.171 L905.4196,486.391 L905.008,486.0227 L904.6396,485.6544 L904.6396,483.6935 L903.5563,483.6935" fill="#000000"/></g><g class="message" data-participant-1="SR3" data-participant-2="WR3"><polygon fill="#181818" points="1093.5327,533.5547,1103.5327,537.5547,1093.5327,541.5547,1097.5327,537.5547" style="stroke:#181818;stroke-width:1;"/><line style="stroke:#181818;stroke-width:1;" x1="860.3247" x2="1099.5327" y1="537.5547" y2="537.5547"/><text fill="#000000" font-family="sans-serif" font-size="13" lengthAdjust="spacing" textLength="166.8608" x="899.4983" y="532.4888">InventoryReleaseRequest</text></g><g class="message" data-participant-1="SR3" data-participant-2="FR3"><polygon fill="#181818" points="980.7954,562.6875,990.7954,566.6875,980.7954,570.6875,984.7954,566.6875" style="stroke:#181818;stroke-width:1;"/><line style="stroke:#181818;stroke-width:1;" x1="855.3247" x2="986.7954" y1="566.6875" y2="566.6875"/><text fill="#000000" font-family="sans-serif" font-size="13" lengthAdjust="spacing" textLength="113.4707" x="867.3247" y="561.6216">InventoryRelease</text></g><g class="message" data-participant-1="FR3" data-participant-2="FR1"><polygon fill="#181818" points="534.6912,591.8203,524.6912,595.8203,534.6912,599.8203,530.6912,595.8203" style="stroke:#181818;stroke-width:1;"/><line style="stroke:#181818;stroke-width:1;" x1="528.6912" x2="991.7954" y1="595.8203" y2="595.8203"/><text fill="#000000" font-family="sans-serif" font-size="13" lengthAdjust="spacing" textLength="46.4775" x="735.0045" y="590.7544">Invoice</text></g><g class="message" data-participant-1="FR1" data-participant-2="FR1"><line style="stroke:#181818;stroke-width:1;" x1="523.6912" x2="565.6912" y1="624.9531" y2="624.9531"/><line style="stroke:#181818;stroke-width:1;" x1="565.6912" x2="565.6912" y1="624.9531" y2="637.9531"/><line style="stroke:#181818;stroke-width:1;" x1="524.6912" x2="565.6912" y1="637.9531" y2="637.9531"/><polygon fill="#181818" points="534.6912,633.9531,524.6912,637.9531,534.6912,641.9531,530.6912,637.9531" style="stroke:#181818;stroke-width:1;"/><text fill="#000000" font-family="sans-serif" font-size="13" lengthAdjust="spacing" textLength="27.3076" x="530.6912" y="619.8872">wait</text><path d="M567.4644,611.0365 C565.0811,611.0365 563.1311,612.9865 563.1311,615.3698 C563.1311,617.7531 565.0811,619.7031 567.4644,619.7031 C569.8478,619.7031 571.7978,617.7531 571.7978,615.3698 C571.7978,612.9865 569.8478,611.0365 567.4644,611.0365 M567.4644,612.1198 C569.2628,612.1198 570.7144,613.5715 570.7144,615.3698 C570.7144,617.1681 569.2628,618.6198 567.4644,618.6198 C565.6661,618.6198 564.2144,617.1681 564.2144,615.3698 C564.2144,613.5715 565.6661,612.1198 567.4644,612.1198 M566.9228,613.2031 L566.9228,615.6081 L567.0961,615.749 L567.6378,616.2906 L568.0061,616.7023 L568.7861,615.9223 L568.3744,615.554 L568.0061,615.1856 L568.0061,613.2248 L566.9228,613.2248" fill="#000000"/></g><g class="message" data-participant-1="FR1" data-participant-2="FR3"><polygon fill="#181818" points="980.7954,663.0859,990.7954,667.0859,980.7954,671.0859,984.7954,667.0859" style="stroke:#181818;stroke-width:1;"/><line style="stroke:#181818;stroke-width:1;stroke-dasharray:2,2;" x1="518.6912" x2="986.7954" y1="667.0859" y2="667.0859"/><text fill="#000000" font-family="sans-serif" font-size="13" lengthAdjust="spacing" textLength="57.4971" x="726.9948" y="662.02">Payment</text></g><g class="message" data-participant-1="FR3" data-participant-2="BR0"><polygon fill="#181818" points="65.8604,692.2188,55.8604,696.2188,65.8604,700.2188,61.8604,696.2188" style="stroke:#181818;stroke-width:1;"/><line style="stroke:#181818;stroke-width:1;" x1="59.8604" x2="996.7954" y1="696.2188" y2="696.2188"/><text fill="#000000" font-family="sans-serif" font-size="13" lengthAdjust="spacing" textLength="86.8359" x="482.9099" y="691.1528">BankTransfer</text></g><g class="message" data-participant-1="WR3" data-participant-2="ShR3"><polygon fill="#181818" points="1216.4146,721.3516,1226.4146,725.3516,1216.4146,729.3516,1220.4146,725.3516" style="stroke:#181818;stroke-width:1;"/><line style="stroke:#181818;stroke-width:1;" x1="1110.5327" x2="1222.4146" y1="725.3516" y2="725.3516"/><text fill="#000000" font-family="sans-serif" font-size="13" lengthAdjust="spacing" textLength="93.8818" x="1122.5327" y="720.2856">ShippingOrder</text></g><g class="message" data-participant-1="ShR3" data-participant-2="TR4"><polygon fill="#181818" points="1383.7668,765.6172,1393.7668,769.6172,1383.7668,773.6172,1387.7668,769.6172" style="stroke:#181818;stroke-width:1;"/><line style="stroke:#181818;stroke-width:1;" x1="1233.4146" x2="1389.7668" y1="769.6172" y2="769.6172"/><text fill="#000000" font-family="sans-serif" font-size="13" lengthAdjust="spacing" textLength="100.0835" x="1264.549" y="749.4185">TransportOrder</text><text fill="#000000" font-family="sans-serif" font-size="13" lengthAdjust="spacing" textLength="10.1372" x="1274.4164" y="764.5513">&amp;</text><text fill="#000000" filter="url(#b1pmmu9dyhwz7x0)" font-family="sans-serif" font-size="13" font-weight="bold" lengthAdjust="spacing" textLength="70.2114" x="1288.6859" y="764.5513">Shipment</text></g><g class="message" data-participant-1="TR4" data-participant-2="FR4"><polygon fill="#181818" points="1497.1018,809.8828,1507.1018,813.8828,1497.1018,817.8828,1501.1018,813.8828" style="stroke:#181818;stroke-width:1;"/><line style="stroke:#181818;stroke-width:1;" x1="1405.7668" x2="1503.1018" y1="813.8828" y2="813.8828"/><text fill="#000000" font-family="sans-serif" font-size="13" lengthAdjust="spacing" textLength="62.9116" x="1425.9785" y="793.6841">Transport</text><text fill="#000000" font-family="sans-serif" font-size="13" lengthAdjust="spacing" textLength="84.335" x="1415.2668" y="808.8169">Confirmation</text></g><g class="message" data-participant-1="TR4" data-participant-2="RR1"><polygon fill="#181818" points="635.6433,839.0156,625.6433,843.0156,635.6433,847.0156,631.6433,843.0156" style="stroke:#181818;stroke-width:1;"/><line style="stroke:#181818;stroke-width:1;" x1="629.6433" x2="1399.7668" y1="843.0156" y2="843.0156"/><text fill="#000000" font-family="sans-serif" font-size="13" lengthAdjust="spacing" textLength="116.873" x="902.5624" y="837.9497">TransportDelivery</text><path d="M1028.9011,829.099 C1026.5178,829.099 1024.5678,831.049 1024.5678,833.4323 C1024.5678,835.8156 1026.5178,837.7656 1028.9011,837.7656 C1031.2845,837.7656 1033.2345,835.8156 1033.2345,833.4323 C1033.2345,831.049 1031.2845,829.099 1028.9011,829.099 M1028.9011,830.1823 C1030.6995,830.1823 1032.1511,831.634 1032.1511,833.4323 C1032.1511,835.2306 1030.6995,836.6823 1028.9011,836.6823 C1027.1028,836.6823 1025.6511,835.2306 1025.6511,833.4323 C1025.6511,831.634 1027.1028,830.1823 1028.9011,830.1823 M1028.3595,831.2656 L1028.3595,833.6706 L1028.5328,833.8115 L1029.0745,834.3531 L1029.4428,834.7648 L1030.2228,833.9848 L1029.8111,833.6165 L1029.4428,833.2481 L1029.4428,831.2873 L1028.3595,831.2873" fill="#000000"/><text fill="#000000" font-family="sans-serif" font-size="13" lengthAdjust="spacing" textLength="10.1372" x="1038.3668" y="837.9497">&amp;</text><text fill="#000000" filter="url(#b1pmmu9dyhwz7x0)" font-family="sans-serif" font-size="13" font-weight="bold" lengthAdjust="spacing" textLength="70.2114" x="1052.6363" y="837.9497">Shipment</text></g><g class="message" data-participant-1="RR1" data-participant-2="WR1"><polygon fill="#181818" points="421.9539,883.2813,411.9539,887.2813,421.9539,891.2813,417.9539,887.2813" style="stroke:#181818;stroke-width:1;"/><line style="stroke:#181818;stroke-width:1;" x1="415.9539" x2="618.6433" y1="887.2813" y2="887.2813"/><text fill="#000000" font-family="sans-serif" font-size="13" lengthAdjust="spacing" textLength="96.6812" x="466.958" y="867.0825">InventoryEntry</text><text fill="#000000" font-family="sans-serif" font-size="13" lengthAdjust="spacing" textLength="10.1372" x="475.1243" y="882.2153">&amp;</text><text fill="#000000" filter="url(#b1pmmu9dyhwz7x0)" font-family="sans-serif" font-size="13" font-weight="bold" lengthAdjust="spacing" textLength="70.2114" x="489.3938" y="882.2153">Shipment</text></g><g class="message" data-participant-1="WR1" data-participant-2="CR1"><polygon fill="#181818" points="188.6184,912.4141,178.6184,916.4141,188.6184,920.4141,184.6184,916.4141" style="stroke:#181818;stroke-width:1;"/><line style="stroke:#181818;stroke-width:1;" x1="182.6184" x2="404.9539" y1="916.4141" y2="916.4141"/><text fill="#000000" font-family="sans-serif" font-size="13" lengthAdjust="spacing" textLength="68.7388" x="257.4167" y="911.3481">Fulfillment</text></g><g class="message" data-participant-1="FR4" data-participant-2="FR3"><polygon fill="#181818" points="1013.7954,941.5469,1003.7954,945.5469,1013.7954,949.5469,1009.7954,945.5469" style="stroke:#181818;stroke-width:1;"/><line style="stroke:#181818;stroke-width:1;" x1="1007.7954" x2="1508.1018" y1="945.5469" y2="945.5469"/><text fill="#000000" font-family="sans-serif" font-size="13" lengthAdjust="spacing" textLength="117.6284" x="1197.1344" y="940.481">TrannsportInvoice</text></g><g class="message" data-participant-1="FR3" data-participant-2="FR3"><line style="stroke:#181818;stroke-width:1;" x1="1002.7954" x2="1044.7954" y1="974.6797" y2="974.6797"/><line style="stroke:#181818;stroke-width:1;" x1="1044.7954" x2="1044.7954" y1="974.6797" y2="987.6797"/><line style="stroke:#181818;stroke-width:1;" x1="1003.7954" x2="1044.7954" y1="987.6797" y2="987.6797"/><polygon fill="#181818" points="1013.7954,983.6797,1003.7954,987.6797,1013.7954,991.6797,1009.7954,987.6797" style="stroke:#181818;stroke-width:1;"/><text fill="#000000" font-family="sans-serif" font-size="13" lengthAdjust="spacing" textLength="27.3076" x="1009.7954" y="969.6138">wait</text><path d="M1046.5687,960.763 C1044.1854,960.763 1042.2354,962.713 1042.2354,965.0964 C1042.2354,967.4797 1044.1854,969.4297 1046.5687,969.4297 C1048.952,969.4297 1050.902,967.4797 1050.902,965.0964 C1050.902,962.713 1048.952,960.763 1046.5687,960.763 M1046.5687,961.8464 C1048.367,961.8464 1049.8187,963.298 1049.8187,965.0964 C1049.8187,966.8947 1048.367,968.3464 1046.5687,968.3464 C1044.7704,968.3464 1043.3187,966.8947 1043.3187,965.0964 C1043.3187,963.298 1044.7704,961.8464 1046.5687,961.8464 M1046.027,962.9297 L1046.027,965.3347 L1046.2004,965.4755 L1046.742,966.0172 L1047.1104,966.4289 L1047.8904,965.6489 L1047.4787,965.2805 L1047.1104,964.9122 L1047.1104,962.9514 L1046.027,962.9514" fill="#000000"/></g><g class="message" data-participant-1="FR3" data-participant-2="FR4"><polygon fill="#181818" points="1497.1018,1012.8125,1507.1018,1016.8125,1497.1018,1020.8125,1501.1018,1016.8125" style="stroke:#181818;stroke-width:1;"/><line style="stroke:#181818;stroke-width:1;stroke-dasharray:2,2;" x1="997.7954" x2="1503.1018" y1="1016.8125" y2="1016.8125"/><text fill="#000000" font-family="sans-serif" font-size="13" lengthAdjust="spacing" textLength="120.4087" x="1193.2443" y="1011.7466">TransportPayment</text></g><g class="message" data-participant-1="FR4" data-participant-2="BR0"><polygon fill="#181818" points="65.8604,1041.9453,55.8604,1045.9453,65.8604,1049.9453,61.8604,1045.9453" style="stroke:#181818;stroke-width:1;"/><line style="stroke:#181818;stroke-width:1;" x1="59.8604" x2="1513.1018" y1="1045.9453" y2="1045.9453"/><text fill="#000000" font-family="sans-serif" font-size="13" lengthAdjust="spacing" textLength="86.8359" x="741.0631" y="1040.8794">BankTransfer</text></g><!--SRC=[bLHTRzem57tFhx0wgI_JjARX2J6aGXTfqhQoK2alVJ791Io2pUo4bdy_VyMn4s3jGwbpFywzzznZYnsX1ypn7itOsmAN9Q4R5Dz5mja5_6s05l0BXC0RUAZ8Xg82Q0qyYbRi3TtCC9NHcvj89jIa80TCQsIDCS82pRAx26Y9P7IRqfo0eszepgXezghcPxHeUB75mdpacCEMDVOh9HJJmfmpA80SLJtqwIVPREjPrK1Gse7gulCi3hnT6UrUzDnUOUtFUtxNYlQcFQzhBaOFIvH9RpZt4h2iFY3BcUyLw3Ax7wHLbUPB7Vv7q79B3eTh_5YGnDHApe-NcF6II-GaXfpGtvOsq5lf3UTuvfYA0-Er7iPzzMO8kV6ZHWhtEHkTRtbaMXvrHN5HaoEkGOj0_g4lKxNmCNg4FQPbX92BK3f0wbV5o0sCxL8o9NzHIvyNh3Qa31pgXbCR-K35gxmJ7aWoHZOzPVnFmshemoJQ8F-hX5mb_A17URSOF-bulxgNcDj4rq6OvODAjiOTXzT05Qy1Q9ZLWROaQlDlvZFHHVPuUE8by1aMK3xHZpAHWG0kmmYZ7-R3onqEe9kIhyMQy7qRKa9F4gufFSSh9ZMQt1OLAtRJQorN88SzAvuyd3KzbsYdyPfPkX6TANMcj8MADHGZ1Go3OsjIuR4B7mxa8jhc5lYqbzqvfzTLXsfRa4_zMB_zMZnhVHzw6KcaRRbbTQjAj0-7tiXm-7mul7vTZ4qTXrBNK2yKtQB92XUxyKc-UknrEbbDLJ4rqEJhQdfkA0_wxFL0wcm8z0k-q9wK1X3f429JEt0GZr2H8_2JMyXxkm_wzpjrnipRVsRsdrkv6ELzfpK_lP-leA8F7YZTD-UcwbnLJPjgJQega5Llu_5G1dDFRIDtTnHxXhwBqayyONUNxfBq4ojzVxbNxq0ITlMEEp3w1m00]--></g></svg>