<svg xmlns="http://www.w3.org/2000/svg" xmlns:xlink="http://www.w3.org/1999/xlink" contentStyleType="text/css" data-diagram-type="SEQUENCE" height="1104px" preserveAspectRatio="none" style="width:1580px;height:1104px;background:#FFFFFF;" version="1.1" viewBox="0 0 1580 1104" width="1580px" zoomAndPan="magnify"><defs><filter height="1" id="b1hnncojsg6b7a0" width="1" x="0" y="0"><feFlood flood-color="#FFFF00" result="flood"/><feComposite in="SourceGraphic" in2="flood" operator="over"/></filter></defs><g><rect fill="#DDDDDD" height="1092.2422" style="stroke:#181818;stroke-width:0.5;" width="87.7207" x="11" y="6"/><text fill="#000000" font-family="sans-serif" font-size="13" font-weight="bold" lengthAdjust="spacing" textLength="59.5981" x="25.0613" y="18.0669">Banking</text><rect fill="#ADD8E6" height="1092.2422" style="stroke:#181818;stroke-width:0.5;" width="550.7241" x="120.7207" y="6"/><text fill="#000000" font-family="sans-serif" font-size="13" font-weight="bold" lengthAdjust="spacing" textLength="544.7241" x="123.7207" y="18.0669">Buyer = Consuming + Purchasing + Warehousing + Financing + Receiving</text><rect fill="#DDDDDD" height="1092.2422" style="stroke:#181818;stroke-width:0.5;" width="100.9619" x="693.4448" y="6"/><text fill="#000000" font-family="sans-serif" font-size="13" font-weight="bold" lengthAdjust="spacing" textLength="73.3408" x="707.2554" y="18.0669">Searching</text><rect fill="#ADD8E6" height="1092.2422" style="stroke:#181818;stroke-width:0.5;" width="429.9805" x="816.4067" y="6"/><text fill="#000000" font-family="sans-serif" font-size="13" font-weight="bold" lengthAdjust="spacing" textLength="404.7837" x="829.0051" y="18.0669">Seller = Selling + Warehousing + Financing + Shipping</text><rect fill="#DDDDDD" height="1092.2422" style="stroke:#181818;stroke-width:0.5;" width="299.2871" x="1274.7734" y="6"/><text fill="#000000" font-family="sans-serif" font-size="13" font-weight="bold" lengthAdjust="spacing" textLength="293.2871" x="1277.7734" y="18.0669">Transporter = Transporting + Financing</text><g><title>Consuming1</title><rect fill="#FFFFFF" height="849.9844" style="stroke:#181818;stroke-width:1;" width="10" x="172.6184" y="66.4297"/></g><g><title>Purchasing1</title><rect fill="#FFFFFF" height="378.7266" style="stroke:#181818;stroke-width:1;" width="10" x="283.4417" y="87.5625"/></g><g><title>Warehousing1</title><rect fill="#FFFFFF" height="29.1328" style="stroke:#181818;stroke-width:1;" width="10" x="400.9539" y="887.2813"/></g><g><title>Financing1</title><rect fill="#FFFFFF" height="71.2656" style="stroke:#181818;stroke-width:1;" width="10" x="513.6912" y="595.8203"/></g><g><title>Receiving1</title><rect fill="#FFFFFF" height="44.2656" style="stroke:#181818;stroke-width:1;" width="10" x="614.6433" y="843.0156"/></g><g><title>Searching2</title><rect fill="#FFFFFF" height="29.1328" style="stroke:#181818;stroke-width:1;" width="10" x="738.9258" y="116.6953"/></g><g><title>Selling3</title><rect fill="#FFFFFF" height="174.7969" style="stroke:#181818;stroke-width:1;" width="10" x="850.3247" y="174.9609"/></g><g><title>Selling3</title><rect fill="#FFFFFF" height="187.7969" style="stroke:#181818;stroke-width:1;" width="10" x="850.3247" y="378.8906"/></g><g><title>Financing3</title><rect fill="#FFFFFF" height="129.5313" style="stroke:#181818;stroke-width:1;" width="10" x="942.8711" y="566.6875"/></g><g><title>Financing3</title><rect fill="#FFFFFF" height="71.2656" style="stroke:#181818;stroke-width:1;" width="10" x="942.8711" y="945.5469"/></g><g><title>Warehousing3</title><rect fill="#FFFFFF" height="29.1328" style="stroke:#181818;stroke-width:1;" width="10" x="1072.5156" y="204.0938"/></g><g><title>Warehousing3</title><rect fill="#FFFFFF" height="29.1328" style="stroke:#181818;stroke-width:1;" width="10" x="1072.5156" y="408.0234"/></g><g><title>Warehousing3</title><rect fill="#FFFFFF" height="187.7969" style="stroke:#181818;stroke-width:1;" width="10" x="1072.5156" y="537.5547"/></g><g><title>Shipping3</title><rect fill="#FFFFFF" height="44.2656" style="stroke:#181818;stroke-width:1;" width="10" x="1195.3975" y="725.3516"/></g><g><title>Transporting4</title><rect fill="#FFFFFF" height="29.1328" style="stroke:#181818;stroke-width:1;" width="10" x="1368.196" y="262.3594"/></g><g><title>Transporting4</title><rect fill="#FFFFFF" height="73.3984" style="stroke:#181818;stroke-width:1;" width="10" x="1368.196" y="769.6172"/></g><g><title>Financing4</title><rect fill="#FFFFFF" height="232.0625" style="stroke:#181818;stroke-width:1;" width="10" x="1481.531" y="813.8828"/></g><g><title>Banking1</title><rect fill="#000000" fill-opacity="0.00000" height="1007.5156" width="8" x="50.8604" y="56.4297"/><line style="stroke:#181818;stroke-width:0.5;stroke-dasharray:5,5;" x1="54" x2="54" y1="56.4297" y2="1063.9453"/></g><g><title>Consuming1</title><rect fill="#000000" fill-opacity="0.00000" height="1007.5156" width="8" x="173.6184" y="56.4297"/><line style="stroke:#181818;stroke-width:0.5;stroke-dasharray:5,5;" x1="176.8308" x2="176.8308" y1="56.4297" y2="1063.9453"/></g><g><title>Purchasing1</title><rect fill="#000000" fill-opacity="0.00000" height="1007.5156" width="8" x="284.4417" y="56.4297"/><line style="stroke:#181818;stroke-width:0.5;stroke-dasharray:5,5;" x1="288.406" x2="288.406" y1="56.4297" y2="1063.9453"/></g><g><title>Warehousing1</title><rect fill="#000000" fill-opacity="0.00000" height="1007.5156" width="8" x="401.9539" y="56.4297"/><line style="stroke:#181818;stroke-width:0.5;stroke-dasharray:5,5;" x1="405.4773" x2="405.4773" y1="56.4297" y2="1063.9453"/></g><g><title>Financing1</title><rect fill="#000000" fill-opacity="0.00000" height="1007.5156" width="8" x="514.6912" y="56.4297"/><line style="stroke:#181818;stroke-width:0.5;stroke-dasharray:5,5;" x1="518.4304" x2="518.4304" y1="56.4297" y2="1063.9453"/></g><g><title>Receiving1</title><rect fill="#000000" fill-opacity="0.00000" height="1007.5156" width="8" x="615.6433" y="56.4297"/><line style="stroke:#181818;stroke-width:0.5;stroke-dasharray:5,5;" x1="618.9519" x2="618.9519" y1="56.4297" y2="1063.9453"/></g><g><title>Searching2</title><rect fill="#000000" fill-opacity="0.00000" height="1007.5156" width="8" x="739.9258" y="56.4297"/><line style="stroke:#181818;stroke-width:0.5;stroke-dasharray:5,5;" x1="743.4448" x2="743.4448" y1="56.4297" y2="1063.9453"/></g><g><title>Selling3</title><rect fill="#000000" fill-opacity="0.00000" height="1007.5156" width="8" x="851.3247" y="56.4297"/><line style="stroke:#181818;stroke-width:0.5;stroke-dasharray:5,5;" x1="854.4067" x2="854.4067" y1="56.4297" y2="1063.9453"/></g><g><title>Financing3</title><rect fill="#000000" fill-opacity="0.00000" height="1007.5156" width="8" x="943.8711" y="56.4297"/><line style="stroke:#181818;stroke-width:0.5;stroke-dasharray:5,5;" x1="947.6104" x2="947.6104" y1="56.4297" y2="1063.9453"/></g><g><title>Warehousing3</title><rect fill="#000000" fill-opacity="0.00000" height="1007.5156" width="8" x="1073.5156" y="56.4297"/><line style="stroke:#181818;stroke-width:0.5;stroke-dasharray:5,5;" x1="1077.0391" x2="1077.0391" y1="56.4297" y2="1063.9453"/></g><g><title>Shipping3</title><rect fill="#000000" fill-opacity="0.00000" height="1007.5156" width="8" x="1196.3975" y="56.4297"/><line style="stroke:#181818;stroke-width:0.5;stroke-dasharray:5,5;" x1="1199.4077" x2="1199.4077" y1="56.4297" y2="1063.9453"/></g><g><title>Transporting4</title><rect fill="#000000" fill-opacity="0.00000" height="1007.5156" width="8" x="1369.196" y="56.4297"/><line style="stroke:#181818;stroke-width:0.5;stroke-dasharray:5,5;" x1="1373.0422" x2="1373.0422" y1="56.4297" y2="1063.9453"/></g><g><title>Financing4</title><rect fill="#000000" fill-opacity="0.00000" height="1007.5156" width="8" x="1482.531" y="56.4297"/><line style="stroke:#181818;stroke-width:0.5;stroke-dasharray:5,5;" x1="1486.2703" x2="1486.2703" y1="56.4297" y2="1063.9453"/></g><g class="participant participant-head" data-participant="BR0"><rect fill="#E2E2F0" height="30.2969" rx="2.5" ry="2.5" style="stroke:#181818;stroke-width:0.5;" width="79.7207" x="15" y="25.1328"/><text fill="#000000" font-family="sans-serif" font-size="14" lengthAdjust="spacing" textLength="65.7207" x="22" y="45.1279">Banking1</text></g><g class="participant participant-tail" data-participant="BR0"><rect fill="#E2E2F0" height="30.2969" rx="2.5" ry="2.5" style="stroke:#181818;stroke-width:0.5;" width="79.7207" x="15" y="1062.9453"/><text fill="#000000" font-family="sans-serif" font-size="14" lengthAdjust="spacing" textLength="65.7207" x="22" y="1082.9404">Banking1</text></g><g class="participant participant-head" data-participant="CR1"><rect fill="#E2E2F0" height="30.2969" rx="2.5" ry="2.5" style="stroke:#181818;stroke-width:0.5;" width="101.5752" x="126.8308" y="25.1328"/><text fill="#000000" font-family="sans-serif" font-size="14" lengthAdjust="spacing" textLength="87.5752" x="133.8308" y="45.1279">Consuming1</text></g><g class="participant participant-tail" data-participant="CR1"><rect fill="#E2E2F0" height="30.2969" rx="2.5" ry="2.5" style="stroke:#181818;stroke-width:0.5;" width="101.5752" x="126.8308" y="1062.9453"/><text fill="#000000" font-family="sans-serif" font-size="14" lengthAdjust="spacing" textLength="87.5752" x="133.8308" y="1082.9404">Consuming1</text></g><g class="participant participant-head" data-participant="PR1"><rect fill="#E2E2F0" height="30.2969" rx="2.5" ry="2.5" style="stroke:#181818;stroke-width:0.5;" width="100.0713" x="238.406" y="25.1328"/><text fill="#000000" font-family="sans-serif" font-size="14" lengthAdjust="spacing" textLength="86.0713" x="245.406" y="45.1279">Purchasing1</text></g><g class="participant participant-tail" data-participant="PR1"><rect fill="#E2E2F0" height="30.2969" rx="2.5" ry="2.5" style="stroke:#181818;stroke-width:0.5;" width="100.0713" x="238.406" y="1062.9453"/><text fill="#000000" font-family="sans-serif" font-size="14" lengthAdjust="spacing" textLength="86.0713" x="245.406" y="1082.9404">Purchasing1</text></g><g class="participant participant-head" data-participant="WR1"><rect fill="#E2E2F0" height="30.2969" rx="2.5" ry="2.5" style="stroke:#181818;stroke-width:0.5;" width="114.9531" x="348.4773" y="25.1328"/><text fill="#000000" font-family="sans-serif" font-size="14" lengthAdjust="spacing" textLength="100.9531" x="355.4773" y="45.1279">Warehousing1</text></g><g class="participant participant-tail" data-participant="WR1"><rect fill="#E2E2F0" height="30.2969" rx="2.5" ry="2.5" style="stroke:#181818;stroke-width:0.5;" width="114.9531" x="348.4773" y="1062.9453"/><text fill="#000000" font-family="sans-serif" font-size="14" lengthAdjust="spacing" textLength="100.9531" x="355.4773" y="1082.9404">Warehousing1</text></g><g class="participant participant-head" data-participant="FR1"><rect fill="#E2E2F0" height="30.2969" rx="2.5" ry="2.5" style="stroke:#181818;stroke-width:0.5;" width="90.5215" x="473.4304" y="25.1328"/><text fill="#000000" font-family="sans-serif" font-size="14" lengthAdjust="spacing" textLength="76.5215" x="480.4304" y="45.1279">Financing1</text></g><g class="participant participant-tail" data-participant="FR1"><rect fill="#E2E2F0" height="30.2969" rx="2.5" ry="2.5" style="stroke:#181818;stroke-width:0.5;" width="90.5215" x="473.4304" y="1062.9453"/><text fill="#000000" font-family="sans-serif" font-size="14" lengthAdjust="spacing" textLength="76.5215" x="480.4304" y="1082.9404">Financing1</text></g><g class="participant participant-head" data-participant="RR1"><rect fill="#E2E2F0" height="30.2969" rx="2.5" ry="2.5" style="stroke:#181818;stroke-width:0.5;" width="91.3828" x="573.9519" y="25.1328"/><text fill="#000000" font-family="sans-serif" font-size="14" lengthAdjust="spacing" textLength="77.3828" x="580.9519" y="45.1279">Receiving1</text></g><g class="participant participant-tail" data-participant="RR1"><rect fill="#E2E2F0" height="30.2969" rx="2.5" ry="2.5" style="stroke:#181818;stroke-width:0.5;" width="91.3828" x="573.9519" y="1062.9453"/><text fill="#000000" font-family="sans-serif" font-size="14" lengthAdjust="spacing" textLength="77.3828" x="580.9519" y="1082.9404">Receiving1</text></g><g class="participant participant-head" data-participant="SR2"><rect fill="#E2E2F0" height="30.2969" rx="2.5" ry="2.5" style="stroke:#181818;stroke-width:0.5;" width="92.9619" x="697.4448" y="25.1328"/><text fill="#000000" font-family="sans-serif" font-size="14" lengthAdjust="spacing" textLength="78.9619" x="704.4448" y="45.1279">Searching2</text></g><g class="participant participant-tail" data-participant="SR2"><rect fill="#E2E2F0" height="30.2969" rx="2.5" ry="2.5" style="stroke:#181818;stroke-width:0.5;" width="92.9619" x="697.4448" y="1062.9453"/><text fill="#000000" font-family="sans-serif" font-size="14" lengthAdjust="spacing" textLength="78.9619" x="704.4448" y="1082.9404">Searching2</text></g><g class="participant participant-head" data-participant="SR3"><rect fill="#E2E2F0" height="30.2969" rx="2.5" ry="2.5" style="stroke:#181818;stroke-width:0.5;" width="69.8359" x="820.4067" y="25.1328"/><text fill="#000000" font-family="sans-serif" font-size="14" lengthAdjust="spacing" textLength="55.8359" x="827.4067" y="45.1279">Selling3</text></g><g class="participant participant-tail" data-participant="SR3"><rect fill="#E2E2F0" height="30.2969" rx="2.5" ry="2.5" style="stroke:#181818;stroke-width:0.5;" width="69.8359" x="820.4067" y="1062.9453"/><text fill="#000000" font-family="sans-serif" font-size="14" lengthAdjust="spacing" textLength="55.8359" x="827.4067" y="1082.9404">Selling3</text></g><g class="participant participant-head" data-participant="FR3"><rect fill="#E2E2F0" height="30.2969" rx="2.5" ry="2.5" style="stroke:#181818;stroke-width:0.5;" width="90.5215" x="902.6104" y="25.1328"/><text fill="#000000" font-family="sans-serif" font-size="14" lengthAdjust="spacing" textLength="76.5215" x="909.6104" y="45.1279">Financing3</text></g><g class="participant participant-tail" data-participant="FR3"><rect fill="#E2E2F0" height="30.2969" rx="2.5" ry="2.5" style="stroke:#181818;stroke-width:0.5;" width="90.5215" x="902.6104" y="1062.9453"/><text fill="#000000" font-family="sans-serif" font-size="14" lengthAdjust="spacing" textLength="76.5215" x="909.6104" y="1082.9404">Financing3</text></g><g class="participant participant-head" data-participant="WR3"><rect fill="#E2E2F0" height="30.2969" rx="2.5" ry="2.5" style="stroke:#181818;stroke-width:0.5;" width="114.9531" x="1020.0391" y="25.1328"/><text fill="#000000" font-family="sans-serif" font-size="14" lengthAdjust="spacing" textLength="100.9531" x="1027.0391" y="45.1279">Warehousing3</text></g><g class="participant participant-tail" data-participant="WR3"><rect fill="#E2E2F0" height="30.2969" rx="2.5" ry="2.5" style="stroke:#181818;stroke-width:0.5;" width="114.9531" x="1020.0391" y="1062.9453"/><text fill="#000000" font-family="sans-serif" font-size="14" lengthAdjust="spacing" textLength="100.9531" x="1027.0391" y="1082.9404">Warehousing3</text></g><g class="participant participant-head" data-participant="ShR3"><rect fill="#E2E2F0" height="30.2969" rx="2.5" ry="2.5" style="stroke:#181818;stroke-width:0.5;" width="83.9795" x="1158.4077" y="25.1328"/><text fill="#000000" font-family="sans-serif" font-size="14" lengthAdjust="spacing" textLength="69.9795" x="1165.4077" y="45.1279">Shipping3</text></g><g class="participant participant-tail" data-participant="ShR3"><rect fill="#E2E2F0" height="30.2969" rx="2.5" ry="2.5" style="stroke:#181818;stroke-width:0.5;" width="83.9795" x="1158.4077" y="1062.9453"/><text fill="#000000" font-family="sans-serif" font-size="14" lengthAdjust="spacing" textLength="69.9795" x="1165.4077" y="1082.9404">Shipping3</text></g><g class="participant participant-head" data-participant="TR4"><rect fill="#E2E2F0" height="30.2969" rx="2.5" ry="2.5" style="stroke:#181818;stroke-width:0.5;" width="112.3076" x="1317.0422" y="25.1328"/><text fill="#000000" font-family="sans-serif" font-size="14" lengthAdjust="spacing" textLength="98.3076" x="1324.0422" y="45.1279">Transporting4</text></g><g class="participant participant-tail" data-participant="TR4"><rect fill="#E2E2F0" height="30.2969" rx="2.5" ry="2.5" style="stroke:#181818;stroke-width:0.5;" width="112.3076" x="1317.0422" y="1062.9453"/><text fill="#000000" font-family="sans-serif" font-size="14" lengthAdjust="spacing" textLength="98.3076" x="1324.0422" y="1082.9404">Transporting4</text></g><g class="participant participant-head" data-participant="FR4"><rect fill="#E2E2F0" height="30.2969" rx="2.5" ry="2.5" style="stroke:#181818;stroke-width:0.5;" width="90.5215" x="1441.2703" y="25.1328"/><text fill="#000000" font-family="sans-serif" font-size="14" lengthAdjust="spacing" textLength="76.5215" x="1448.2703" y="45.1279">Financing4</text></g><g class="participant participant-tail" data-participant="FR4"><rect fill="#E2E2F0" height="30.2969" rx="2.5" ry="2.5" style="stroke:#181818;stroke-width:0.5;" width="90.5215" x="1441.2703" y="1062.9453"/><text fill="#000000" font-family="sans-serif" font-size="14" lengthAdjust="spacing" textLength="76.5215" x="1448.2703" y="1082.9404">Financing4</text></g><g><title>Consuming1</title><rect fill="#FFFFFF" height="849.9844" style="stroke:#181818;stroke-width:1;" width="10" x="172.6184" y="66.4297"/></g><g><title>Purchasing1</title><rect fill="#FFFFFF" height="378.7266" style="stroke:#181818;stroke-width:1;" width="10" x="283.4417" y="87.5625"/></g><g><title>Warehousing1</title><rect fill="#FFFFFF" height="29.1328" style="stroke:#181818;stroke-width:1;" width="10" x="400.9539" y="887.2813"/></g><g><title>Financing1</title><rect fill="#FFFFFF" height="71.2656" style="stroke:#181818;stroke-width:1;" width="10" x="513.6912" y="595.8203"/></g><g><title>Receiving1</title><rect fill="#FFFFFF" height="44.2656" style="stroke:#181818;stroke-width:1;" width="10" x="614.6433" y="843.0156"/></g><g><title>Searching2</title><rect fill="#FFFFFF" height="29.1328" style="stroke:#181818;stroke-width:1;" width="10" x="738.9258" y="116.6953"/></g><g><title>Selling3</title><rect fill="#FFFFFF" height="174.7969" style="stroke:#181818;stroke-width:1;" width="10" x="850.3247" y="174.9609"/></g><g><title>Selling3</title><rect fill="#FFFFFF" height="187.7969" style="stroke:#181818;stroke-width:1;" width="10" x="850.3247" y="378.8906"/></g><g><title>Financing3</title><rect fill="#FFFFFF" height="129.5313" style="stroke:#181818;stroke-width:1;" width="10" x="942.8711" y="566.6875"/></g><g><title>Financing3</title><rect fill="#FFFFFF" height="71.2656" style="stroke:#181818;stroke-width:1;" width="10" x="942.8711" y="945.5469"/></g><g><title>Warehousing3</title><rect fill="#FFFFFF" height="29.1328" style="stroke:#181818;stroke-width:1;" width="10" x="1072.5156" y="204.0938"/></g><g><title>Warehousing3</title><rect fill="#FFFFFF" height="29.1328" style="stroke:#181818;stroke-width:1;" width="10" x="1072.5156" y="408.0234"/></g><g><title>Warehousing3</title><rect fill="#FFFFFF" height="187.7969" style="stroke:#181818;stroke-width:1;" width="10" x="1072.5156" y="537.5547"/></g><g><title>Shipping3</title><rect fill="#FFFFFF" height="44.2656" style="stroke:#181818;stroke-width:1;" width="10" x="1195.3975" y="725.3516"/></g><g><title>Transporting4</title><rect fill="#FFFFFF" height="29.1328" style="stroke:#181818;stroke-width:1;" width="10" x="1368.196" y="262.3594"/></g><g><title>Transporting4</title><rect fill="#FFFFFF" height="73.3984" style="stroke:#181818;stroke-width:1;" width="10" x="1368.196" y="769.6172"/></g><g><title>Financing4</title><rect fill="#FFFFFF" height="232.0625" style="stroke:#181818;stroke-width:1;" width="10" x="1481.531" y="813.8828"/></g><g class="message" data-participant-1="CR1" data-participant-2="PR1"><polygon fill="#181818" points="271.4417,83.5625,281.4417,87.5625,271.4417,91.5625,275.4417,87.5625" style="stroke:#181818;stroke-width:1;"/><line style="stroke:#181818;stroke-width:1;" x1="182.6184" x2="277.4417" y1="87.5625" y2="87.5625"/><text fill="#000000" font-family="sans-serif" font-size="13" lengthAdjust="spacing" textLength="55.1294" x="205.4653" y="82.4966">Demand</text></g><g class="message" data-participant-1="PR1" data-participant-2="SR2"><polygon fill="#181818" points="726.9258,112.6953,736.9258,116.6953,726.9258,120.6953,730.9258,116.6953" style="stroke:#181818;stroke-width:1;"/><line style="stroke:#181818;stroke-width:1;" x1="293.4417" x2="732.9258" y1="116.6953" y2="116.6953"/><text fill="#000000" font-family="sans-serif" font-size="13" lengthAdjust="spacing" textLength="98.3379" x="467.0148" y="111.6294">SearchRequest</text></g><g class="message" data-participant-1="SR2" data-participant-2="PR1"><polygon fill="#181818" points="304.4417,141.8281,294.4417,145.8281,304.4417,149.8281,300.4417,145.8281" style="stroke:#181818;stroke-width:1;"/><line style="stroke:#181818;stroke-width:1;stroke-dasharray:2,2;" x1="298.4417" x2="742.9258" y1="145.8281" y2="145.8281"/><text fill="#000000" font-family="sans-serif" font-size="13" lengthAdjust="spacing" textLength="92.8281" x="472.2697" y="140.7622">SearchAnswer</text></g><g class="message" data-participant-1="PR1" data-participant-2="SR3"><polygon fill="#181818" points="838.3247,170.9609,848.3247,174.9609,838.3247,178.9609,842.3247,174.9609" style="stroke:#181818;stroke-width:1;"/><line style="stroke:#181818;stroke-width:1;" x1="293.4417" x2="844.3247" y1="174.9609" y2="174.9609"/><text fill="#000000" font-family="sans-serif" font-size="13" lengthAdjust="spacing" textLength="113.6865" x="515.0399" y="169.895">RequestForQuote</text></g><g class="message" data-participant-1="SR3" data-participant-2="WR3"><polygon fill="#181818" points="1060.5156,200.0938,1070.5156,204.0938,1060.5156,208.0938,1064.5156,204.0938" style="stroke:#181818;stroke-width:1;"/><line style="stroke:#181818;stroke-width:1;" x1="860.3247" x2="1066.5156" y1="204.0938" y2="204.0938"/><text fill="#000000" font-family="sans-serif" font-size="13" lengthAdjust="spacing" textLength="155.0034" x="888.9185" y="199.0278">InventoryQuoteRequest</text></g><g class="message" data-participant-1="WR3" data-participant-2="SR3"><polygon fill="#181818" points="871.3247,229.2266,861.3247,233.2266,871.3247,237.2266,867.3247,233.2266" style="stroke:#181818;stroke-width:1;"/><line style="stroke:#181818;stroke-width:1;stroke-dasharray:2,2;" x1="865.3247" x2="1076.5156" y1="233.2266" y2="233.2266"/><text fill="#000000" font-family="sans-serif" font-size="13" lengthAdjust="spacing" textLength="101.6133" x="918.1135" y="228.1606">InventoryQuote</text></g><g class="message" data-participant-1="SR3" data-participant-2="TR4"><polygon fill="#181818" points="1356.196,258.3594,1366.196,262.3594,1356.196,266.3594,1360.196,262.3594" style="stroke:#181818;stroke-width:1;"/><line style="stroke:#181818;stroke-width:1;" x1="860.3247" x2="1362.196" y1="262.3594" y2="262.3594"/><text fill="#000000" font-family="sans-serif" font-size="13" lengthAdjust="spacing" textLength="155.8223" x="1036.3492" y="257.2935">TransportQuoteRequest</text></g><g class="message" data-participant-1="TR4" data-participant-2="SR3"><polygon fill="#181818" points="871.3247,287.4922,861.3247,291.4922,871.3247,295.4922,867.3247,291.4922" style="stroke:#181818;stroke-width:1;"/><line style="stroke:#181818;stroke-width:1;stroke-dasharray:2,2;" x1="865.3247" x2="1372.196" y1="291.4922" y2="291.4922"/><text fill="#000000" font-family="sans-serif" font-size="13" lengthAdjust="spacing" textLength="102.4321" x="1065.5443" y="286.4263">TransportQuote</text></g><g class="message" data-participant-1="SR3" data-participant-2="PR1"><polygon fill="#181818" points="304.4417,316.625,294.4417,320.625,304.4417,324.625,300.4417,320.625" style="stroke:#181818;stroke-width:1;"/><line style="stroke:#181818;stroke-width:1;stroke-dasharray:2,2;" x1="298.4417" x2="849.3247" y1="320.625" y2="320.625"/><text fill="#000000" font-family="sans-serif" font-size="13" lengthAdjust="spacing" textLength="57.1987" x="543.2838" y="315.5591">NoQuote</text></g><g class="message" data-participant-1="SR3" data-participant-2="PR1"><polygon fill="#181818" points="304.4417,345.7578,294.4417,349.7578,304.4417,353.7578,300.4417,349.7578" style="stroke:#181818;stroke-width:1;"/><line style="stroke:#181818;stroke-width:1;stroke-dasharray:2,2;" x1="298.4417" x2="854.3247" y1="349.7578" y2="349.7578"/><text fill="#000000" font-family="sans-serif" font-size="13" lengthAdjust="spacing" textLength="39.5205" x="554.6229" y="344.6919">Quote</text></g><g class="message" data-participant-1="PR1" data-participant-2="SR3"><polygon fill="#181818" points="838.3247,374.8906,848.3247,378.8906,838.3247,382.8906,842.3247,378.8906" style="stroke:#181818;stroke-width:1;"/><line style="stroke:#181818;stroke-width:1;" x1="293.4417" x2="844.3247" y1="378.8906" y2="378.8906"/><text fill="#000000" font-family="sans-serif" font-size="13" lengthAdjust="spacing" textLength="135.0718" x="504.3473" y="373.8247">OrderBasedOnQuote</text></g><g class="message" data-participant-1="SR3" data-participant-2="WR3"><polygon fill="#181818" points="1060.5156,404.0234,1070.5156,408.0234,1060.5156,412.0234,1064.5156,408.0234" style="stroke:#181818;stroke-width:1;"/><line style="stroke:#181818;stroke-width:1;" x1="860.3247" x2="1066.5156" y1="408.0234" y2="408.0234"/><text fill="#000000" font-family="sans-serif" font-size="13" lengthAdjust="spacing" textLength="193.1909" x="869.8247" y="402.9575">InventoryReservationRequest</text></g><g class="message" data-participant-1="WR3" data-participant-2="SR3"><polygon fill="#181818" points="871.3247,433.1563,861.3247,437.1563,871.3247,441.1563,867.3247,437.1563" style="stroke:#181818;stroke-width:1;"/><line style="stroke:#181818;stroke-width:1;stroke-dasharray:2,2;" x1="865.3247" x2="1076.5156" y1="437.1563" y2="437.1563"/><text fill="#000000" font-family="sans-serif" font-size="13" lengthAdjust="spacing" textLength="139.8008" x="899.0198" y="432.0903">InventoryReservation</text></g><g class="message" data-participant-1="SR3" data-participant-2="PR1"><polygon fill="#181818" points="299.4417,462.2891,289.4417,466.2891,299.4417,470.2891,295.4417,466.2891" style="stroke:#181818;stroke-width:1;"/><line style="stroke:#181818;stroke-width:1;stroke-dasharray:2,2;" x1="293.4417" x2="849.3247" y1="466.2891" y2="466.2891"/><text fill="#000000" font-family="sans-serif" font-size="13" lengthAdjust="spacing" textLength="121.5068" x="508.6298" y="461.2231">OrderConfirmation</text></g><g class="message" data-participant-1="SR3" data-participant-2="SR3"><line style="stroke:#181818;stroke-width:1;" x1="860.3247" x2="902.3247" y1="495.4219" y2="495.4219"/><line style="stroke:#181818;stroke-width:1;" x1="902.3247" x2="902.3247" y1="495.4219" y2="508.4219"/><line style="stroke:#181818;stroke-width:1;" x1="861.3247" x2="902.3247" y1="508.4219" y2="508.4219"/><polygon fill="#181818" points="871.3247,504.4219,861.3247,508.4219,871.3247,512.4219,867.3247,508.4219" style="stroke:#181818;stroke-width:1;"/><text fill="#000000" font-family="sans-serif" font-size="13" lengthAdjust="spacing" textLength="27.3076" x="867.3247" y="490.356">wait</text><path d="M904.098,481.5052 C901.7146,481.5052 899.7646,483.4552 899.7646,485.8385 C899.7646,488.2219 901.7146,490.1719 904.098,490.1719 C906.4813,490.1719 908.4313,488.2219 908.4313,485.8385 C908.4313,483.4552 906.4813,481.5052 904.098,481.5052 M904.098,482.5885 C905.8963,482.5885 907.348,484.0402 907.348,485.8385 C907.348,487.6369 905.8963,489.0885 904.098,489.0885 C902.2996,489.0885 900.848,487.6369 900.848,485.8385 C900.848,484.0402 902.2996,482.5885 904.098,482.5885 M903.5563,483.6719 L903.5563,486.0769 L903.7296,486.2177 L904.2713,486.7594 L904.6396,487.171 L905.4196,486.391 L905.008,486.0227 L904.6396,485.6544 L904.6396,483.6935 L903.5563,483.6935" fill="#000000"/></g><g class="message" data-participant-1="SR3" data-participant-2="WR3"><polygon fill="#181818" points="1060.5156,533.5547,1070.5156,537.5547,1060.5156,541.5547,1064.5156,537.5547" style="stroke:#181818;stroke-width:1;"/><line style="stroke:#181818;stroke-width:1;" x1="860.3247" x2="1066.5156" y1="537.5547" y2="537.5547"/><text fill="#000000" font-family="sans-serif" font-size="13" lengthAdjust="spacing" textLength="113.4707" x="909.6848" y="532.4888">InventoryRelease</text></g><g class="message" data-participant-1="SR3" data-participant-2="FR3"><polygon fill="#181818" points="930.8711,562.6875,940.8711,566.6875,930.8711,570.6875,934.8711,566.6875" style="stroke:#181818;stroke-width:1;"/><line style="stroke:#181818;stroke-width:1;" x1="855.3247" x2="936.8711" y1="566.6875" y2="566.6875"/><text fill="#000000" font-family="sans-serif" font-size="13" lengthAdjust="spacing" textLength="63.5464" x="867.3247" y="561.6216">IRFinance</text></g><g class="message" data-participant-1="FR3" data-participant-2="FR1"><polygon fill="#181818" points="534.6912,591.8203,524.6912,595.8203,534.6912,599.8203,530.6912,595.8203" style="stroke:#181818;stroke-width:1;"/><line style="stroke:#181818;stroke-width:1;" x1="528.6912" x2="941.8711" y1="595.8203" y2="595.8203"/><text fill="#000000" font-family="sans-serif" font-size="13" lengthAdjust="spacing" textLength="46.4775" x="710.0424" y="590.7544">Invoice</text></g><g class="message" data-participant-1="FR1" data-participant-2="FR1"><line style="stroke:#181818;stroke-width:1;" x1="523.6912" x2="565.6912" y1="624.9531" y2="624.9531"/><line style="stroke:#181818;stroke-width:1;" x1="565.6912" x2="565.6912" y1="624.9531" y2="637.9531"/><line style="stroke:#181818;stroke-width:1;" x1="524.6912" x2="565.6912" y1="637.9531" y2="637.9531"/><polygon fill="#181818" points="534.6912,633.9531,524.6912,637.9531,534.6912,641.9531,530.6912,637.9531" style="stroke:#181818;stroke-width:1;"/><text fill="#000000" font-family="sans-serif" font-size="13" lengthAdjust="spacing" textLength="27.3076" x="530.6912" y="619.8872">wait</text><path d="M567.4644,611.0365 C565.0811,611.0365 563.1311,612.9865 563.1311,615.3698 C563.1311,617.7531 565.0811,619.7031 567.4644,619.7031 C569.8478,619.7031 571.7978,617.7531 571.7978,615.3698 C571.7978,612.9865 569.8478,611.0365 567.4644,611.0365 M567.4644,612.1198 C569.2628,612.1198 570.7144,613.5715 570.7144,615.3698 C570.7144,617.1681 569.2628,618.6198 567.4644,618.6198 C565.6661,618.6198 564.2144,617.1681 564.2144,615.3698 C564.2144,613.5715 565.6661,612.1198 567.4644,612.1198 M566.9228,613.2031 L566.9228,615.6081 L567.0961,615.749 L567.6378,616.2906 L568.0061,616.7023 L568.7861,615.9223 L568.3744,615.554 L568.0061,615.1856 L568.0061,613.2248 L566.9228,613.2248" fill="#000000"/></g><g class="message" data-participant-1="FR1" data-participant-2="FR3"><polygon fill="#181818" points="930.8711,663.0859,940.8711,667.0859,930.8711,671.0859,934.8711,667.0859" style="stroke:#181818;stroke-width:1;"/><line style="stroke:#181818;stroke-width:1;stroke-dasharray:2,2;" x1="518.6912" x2="936.8711" y1="667.0859" y2="667.0859"/><text fill="#000000" font-family="sans-serif" font-size="13" lengthAdjust="spacing" textLength="57.4971" x="702.0326" y="662.02">Payment</text></g><g class="message" data-participant-1="FR3" data-participant-2="BR0"><polygon fill="#181818" points="65.8604,692.2188,55.8604,696.2188,65.8604,700.2188,61.8604,696.2188" style="stroke:#181818;stroke-width:1;"/><line style="stroke:#181818;stroke-width:1;" x1="59.8604" x2="946.8711" y1="696.2188" y2="696.2188"/><text fill="#000000" font-family="sans-serif" font-size="13" lengthAdjust="spacing" textLength="86.8359" x="457.9478" y="691.1528">BankTransfer</text></g><g class="message" data-participant-1="WR3" data-participant-2="ShR3"><polygon fill="#181818" points="1183.3975,721.3516,1193.3975,725.3516,1183.3975,729.3516,1187.3975,725.3516" style="stroke:#181818;stroke-width:1;"/><line style="stroke:#181818;stroke-width:1;" x1="1077.5156" x2="1189.3975" y1="725.3516" y2="725.3516"/><text fill="#000000" font-family="sans-serif" font-size="13" lengthAdjust="spacing" textLength="93.8818" x="1089.5156" y="720.2856">ShippingOrder</text></g><g class="message" data-participant-1="ShR3" data-participant-2="TR4"><polygon fill="#181818" points="1356.196,765.6172,1366.196,769.6172,1356.196,773.6172,1360.196,769.6172" style="stroke:#181818;stroke-width:1;"/><line style="stroke:#181818;stroke-width:1;" x1="1200.3975" x2="1362.196" y1="769.6172" y2="769.6172"/><text fill="#000000" font-family="sans-serif" font-size="13" lengthAdjust="spacing" textLength="105.5298" x="1231.5319" y="749.4185">TransportPickup</text><text fill="#000000" font-family="sans-serif" font-size="13" lengthAdjust="spacing" textLength="10.1372" x="1244.1224" y="764.5513">&amp;</text><text fill="#000000" filter="url(#b1hnncojsg6b7a0)" font-family="sans-serif" font-size="13" font-weight="bold" lengthAdjust="spacing" textLength="70.2114" x="1258.392" y="764.5513">Shipment</text></g><g class="message" data-participant-1="TR4" data-participant-2="FR4"><polygon fill="#181818" points="1469.531,809.8828,1479.531,813.8828,1469.531,817.8828,1473.531,813.8828" style="stroke:#181818;stroke-width:1;"/><line style="stroke:#181818;stroke-width:1;" x1="1378.196" x2="1475.531" y1="813.8828" y2="813.8828"/><text fill="#000000" font-family="sans-serif" font-size="13" lengthAdjust="spacing" textLength="62.9116" x="1398.4077" y="793.6841">Transport</text><text fill="#000000" font-family="sans-serif" font-size="13" lengthAdjust="spacing" textLength="84.335" x="1387.696" y="808.8169">Confirmation</text></g><g class="message" data-participant-1="TR4" data-participant-2="RR1"><polygon fill="#181818" points="635.6433,839.0156,625.6433,843.0156,635.6433,847.0156,631.6433,843.0156" style="stroke:#181818;stroke-width:1;"/><line style="stroke:#181818;stroke-width:1;" x1="629.6433" x2="1372.196" y1="843.0156" y2="843.0156"/><text fill="#000000" font-family="sans-serif" font-size="13" lengthAdjust="spacing" textLength="116.873" x="888.777" y="837.9497">TransportDelivery</text><path d="M1015.1157,829.099 C1012.7324,829.099 1010.7824,831.049 1010.7824,833.4323 C1010.7824,835.8156 1012.7324,837.7656 1015.1157,837.7656 C1017.4991,837.7656 1019.4491,835.8156 1019.4491,833.4323 C1019.4491,831.049 1017.4991,829.099 1015.1157,829.099 M1015.1157,830.1823 C1016.9141,830.1823 1018.3657,831.634 1018.3657,833.4323 C1018.3657,835.2306 1016.9141,836.6823 1015.1157,836.6823 C1013.3174,836.6823 1011.8657,835.2306 1011.8657,833.4323 C1011.8657,831.634 1013.3174,830.1823 1015.1157,830.1823 M1014.5741,831.2656 L1014.5741,833.6706 L1014.7474,833.8115 L1015.2891,834.3531 L1015.6574,834.7648 L1016.4374,833.9848 L1016.0257,833.6165 L1015.6574,833.2481 L1015.6574,831.2873 L1014.5741,831.2873" fill="#000000"/><text fill="#000000" font-family="sans-serif" font-size="13" lengthAdjust="spacing" textLength="10.1372" x="1024.5814" y="837.9497">&amp;</text><text fill="#000000" filter="url(#b1hnncojsg6b7a0)" font-family="sans-serif" font-size="13" font-weight="bold" lengthAdjust="spacing" textLength="70.2114" x="1038.8509" y="837.9497">Shipment</text></g><g class="message" data-participant-1="RR1" data-participant-2="WR1"><polygon fill="#181818" points="421.9539,883.2813,411.9539,887.2813,421.9539,891.2813,417.9539,887.2813" style="stroke:#181818;stroke-width:1;"/><line style="stroke:#181818;stroke-width:1;" x1="415.9539" x2="618.6433" y1="887.2813" y2="887.2813"/><text fill="#000000" font-family="sans-serif" font-size="13" lengthAdjust="spacing" textLength="96.6812" x="466.958" y="867.0825">InventoryEntry</text><text fill="#000000" font-family="sans-serif" font-size="13" lengthAdjust="spacing" textLength="10.1372" x="475.1243" y="882.2153">&amp;</text><text fill="#000000" filter="url(#b1hnncojsg6b7a0)" font-family="sans-serif" font-size="13" font-weight="bold" lengthAdjust="spacing" textLength="70.2114" x="489.3938" y="882.2153">Shipment</text></g><g class="message" data-participant-1="WR1" data-participant-2="CR1"><polygon fill="#181818" points="188.6184,912.4141,178.6184,916.4141,188.6184,920.4141,184.6184,916.4141" style="stroke:#181818;stroke-width:1;"/><line style="stroke:#181818;stroke-width:1;" x1="182.6184" x2="404.9539" y1="916.4141" y2="916.4141"/><text fill="#000000" font-family="sans-serif" font-size="13" lengthAdjust="spacing" textLength="53.9614" x="264.8054" y="911.3481">Delivery</text></g><g class="message" data-participant-1="FR4" data-participant-2="FR3"><polygon fill="#181818" points="963.8711,941.5469,953.8711,945.5469,963.8711,949.5469,959.8711,945.5469" style="stroke:#181818;stroke-width:1;"/><line style="stroke:#181818;stroke-width:1;" x1="957.8711" x2="1480.531" y1="945.5469" y2="945.5469"/><text fill="#000000" font-family="sans-serif" font-size="13" lengthAdjust="spacing" textLength="46.4775" x="1193.9623" y="940.481">Invoice</text></g><g class="message" data-participant-1="FR3" data-participant-2="FR3"><line style="stroke:#181818;stroke-width:1;" x1="952.8711" x2="994.8711" y1="974.6797" y2="974.6797"/><line style="stroke:#181818;stroke-width:1;" x1="994.8711" x2="994.8711" y1="974.6797" y2="987.6797"/><line style="stroke:#181818;stroke-width:1;" x1="953.8711" x2="994.8711" y1="987.6797" y2="987.6797"/><polygon fill="#181818" points="963.8711,983.6797,953.8711,987.6797,963.8711,991.6797,959.8711,987.6797" style="stroke:#181818;stroke-width:1;"/><text fill="#000000" font-family="sans-serif" font-size="13" lengthAdjust="spacing" textLength="27.3076" x="959.8711" y="969.6138">wait</text><path d="M996.6444,960.763 C994.261,960.763 992.311,962.713 992.311,965.0964 C992.311,967.4797 994.261,969.4297 996.6444,969.4297 C999.0277,969.4297 1000.9777,967.4797 1000.9777,965.0964 C1000.9777,962.713 999.0277,960.763 996.6444,960.763 M996.6444,961.8464 C998.4427,961.8464 999.8944,963.298 999.8944,965.0964 C999.8944,966.8947 998.4427,968.3464 996.6444,968.3464 C994.846,968.3464 993.3944,966.8947 993.3944,965.0964 C993.3944,963.298 994.846,961.8464 996.6444,961.8464 M996.1027,962.9297 L996.1027,965.3347 L996.276,965.4755 L996.8177,966.0172 L997.186,966.4289 L997.966,965.6489 L997.5544,965.2805 L997.186,964.9122 L997.186,962.9514 L996.1027,962.9514" fill="#000000"/></g><g class="message" data-participant-1="FR3" data-participant-2="FR4"><polygon fill="#181818" points="1469.531,1012.8125,1479.531,1016.8125,1469.531,1020.8125,1473.531,1016.8125" style="stroke:#181818;stroke-width:1;"/><line style="stroke:#181818;stroke-width:1;stroke-dasharray:2,2;" x1="947.8711" x2="1475.531" y1="1016.8125" y2="1016.8125"/><text fill="#000000" font-family="sans-serif" font-size="13" lengthAdjust="spacing" textLength="57.4971" x="1185.9525" y="1011.7466">Payment</text></g><g class="message" data-participant-1="FR4" data-participant-2="BR0"><polygon fill="#181818" points="65.8604,1041.9453,55.8604,1045.9453,65.8604,1049.9453,61.8604,1045.9453" style="stroke:#181818;stroke-width:1;"/><line style="stroke:#181818;stroke-width:1;" x1="59.8604" x2="1485.531" y1="1045.9453" y2="1045.9453"/><text fill="#000000" font-family="sans-serif" font-size="13" lengthAdjust="spacing" textLength="86.8359" x="727.2777" y="1040.8794">BankTransfer</text></g><!--SRC=[bLJ9Rjim4BthAuWKoAKe6aKw6Ow1sAc00ctZoW5qoOMM9ZPXcNH9oOd_ljn4aPAp7U9GixmtCtmSiIFqW3dUepbxMUAg8dI3ugj8EBk0VotG4dw347W3jpNPK5G2RO17qPgze8ivfZ9wSn79X8QKv81fWwmnHbYWUNuL0QsGZEvIsXDmT8CMZ8fshpY_ecNBooqMvgF07BQijLyPePYMvfn32UIe-D2NNsIpRUPr2m6r0zNaYpmEl3sDTYy7RezO-uk1tvMYlTd0wugBqUqAvT8Rzhq2BDb7mtBcQmMwogz7QNMjvwKExmrejIM7mrlpiI29uKhEjvUOzfBNXfEOuOJ-Zjf0RwKtxEE1OoeEZ3Uw6VSrw26SZH-LAjo7F3rVScfAJdjIN3RaY1lG8f1_wDjCNVW4tS4Uqof2o4Ke7I3rgsBa3KpifUHA_gAHFYzOtP0oS6XQJctaBHNFyaru8Ca4sVICyRyjQs08asY3_AyI2fNmanxbssByfEDzTY-ni8ckWZ3B1vNJclGpV0jKpJK03RDwq6w8VrZli2czOJ27Uru1dsC1rJtzx2Ho4C1b667qq_FmSiSDwABajdWYVD-5L32GX2jAz_6CIOEcbsNDojtihP9haCr6Pwkq6PdEo8rymTRlqQzSKywKELFMOSIQbH67u0N7rgJ2OnS-Ri55T5KjyMal6t5EhweUrPOWb_j4RtijboVz0WOPIQHjXPtZLb5qgqBVmRZvOjoytYV6fevZSIz9kMiFZnHTekaQbxl9IIuwzZoRhcUAJNKq_RwUdUlAmpxx8f0wcmdwZ8zqe9uHH3Q6oDKbE8WxgCaH-CdTo4Uh3-htAtN6t1D0RWHGMBqObVwW3JzzV5u1emyUQDmt5uPrOLQkQVGyN9_d6HUUrjB-oRmczyGJS__2NfDxOkMUlYFt92pX0t9F_mC0]--></g></svg>