<svg xmlns="http://www.w3.org/2000/svg" xmlns:xlink="http://www.w3.org/1999/xlink" contentStyleType="text/css" data-diagram-type="SEQUENCE" height="900px" preserveAspectRatio="none" style="width:1607px;height:900px;background:#FFFFFF;" version="1.1" viewBox="0 0 1607 900" width="1607px" zoomAndPan="magnify"><defs><filter height="1" id="bdyame2cwf9p20" width="1" x="0" y="0"><feFlood flood-color="#FFFF00" result="flood"/><feComposite in="SourceGraphic" in2="flood" operator="over"/></filter></defs><g><rect fill="#DDDDDD" height="888.3125" style="stroke:#181818;stroke-width:0.5;" width="87.7207" x="11" y="6"/><text fill="#000000" font-family="sans-serif" font-size="13" font-weight="bold" lengthAdjust="spacing" textLength="59.5981" x="25.0613" y="18.0669">Banking</text><rect fill="#ADD8E6" height="888.3125" style="stroke:#181818;stroke-width:0.5;" width="550.7241" x="120.7207" y="6"/><text fill="#000000" font-family="sans-serif" font-size="13" font-weight="bold" lengthAdjust="spacing" textLength="544.7241" x="123.7207" y="18.0669">Buyer = Consuming + Purchasing + Warehousing + Financing + Receiving</text><rect fill="#DDDDDD" height="888.3125" style="stroke:#181818;stroke-width:0.5;" width="100.9619" x="693.4448" y="6"/><text fill="#000000" font-family="sans-serif" font-size="13" font-weight="bold" lengthAdjust="spacing" textLength="73.3408" x="707.2554" y="18.0669">Searching</text><rect fill="#ADD8E6" height="888.3125" style="stroke:#181818;stroke-width:0.5;" width="462.9976" x="816.4067" y="6"/><text fill="#000000" font-family="sans-serif" font-size="13" font-weight="bold" lengthAdjust="spacing" textLength="404.7837" x="845.5137" y="18.0669">Seller = Selling + Warehousing + Financing + Shipping</text><rect fill="#DDDDDD" height="888.3125" style="stroke:#181818;stroke-width:0.5;" width="299.2871" x="1302.3442" y="6"/><text fill="#000000" font-family="sans-serif" font-size="13" font-weight="bold" lengthAdjust="spacing" textLength="293.2871" x="1305.3442" y="18.0669">Transporter = Transporting + Financing</text><g><title>Consuming1</title><rect fill="#FFFFFF" height="646.0547" style="stroke:#181818;stroke-width:1;" width="10" x="172.6184" y="66.4297"/></g><g><title>Purchasing1</title><rect fill="#FFFFFF" height="174.7969" style="stroke:#181818;stroke-width:1;" width="10" x="283.4417" y="87.5625"/></g><g><title>Warehousing1</title><rect fill="#FFFFFF" height="29.1328" style="stroke:#181818;stroke-width:1;" width="10" x="400.9539" y="683.3516"/></g><g><title>Financing1</title><rect fill="#FFFFFF" height="71.2656" style="stroke:#181818;stroke-width:1;" width="10" x="513.6912" y="391.8906"/></g><g><title>Receiving1</title><rect fill="#FFFFFF" height="44.2656" style="stroke:#181818;stroke-width:1;" width="10" x="614.6433" y="639.0859"/></g><g><title>Selling3</title><rect fill="#FFFFFF" height="246.0625" style="stroke:#181818;stroke-width:1;" width="10" x="850.3247" y="116.6953"/></g><g><title>Financing3</title><rect fill="#FFFFFF" height="129.5313" style="stroke:#181818;stroke-width:1;" width="10" x="992.7954" y="362.7578"/></g><g><title>Financing3</title><rect fill="#FFFFFF" height="71.2656" style="stroke:#181818;stroke-width:1;" width="10" x="992.7954" y="741.6172"/></g><g><title>Warehousing3</title><rect fill="#FFFFFF" height="29.1328" style="stroke:#181818;stroke-width:1;" width="10" x="1105.5327" y="145.8281"/></g><g><title>Warehousing3</title><rect fill="#FFFFFF" height="187.7969" style="stroke:#181818;stroke-width:1;" width="10" x="1105.5327" y="333.625"/></g><g><title>Shipping3</title><rect fill="#FFFFFF" height="44.2656" style="stroke:#181818;stroke-width:1;" width="10" x="1228.4146" y="521.4219"/></g><g><title>Transporting4</title><rect fill="#FFFFFF" height="29.1328" style="stroke:#181818;stroke-width:1;" width="10" x="1395.7668" y="204.0938"/></g><g><title>Transporting4</title><rect fill="#FFFFFF" height="73.3984" style="stroke:#181818;stroke-width:1;" width="10" x="1395.7668" y="565.6875"/></g><g><title>Financing4</title><rect fill="#FFFFFF" height="232.0625" style="stroke:#181818;stroke-width:1;" width="10" x="1509.1018" y="609.9531"/></g><g><title>Banking1</title><rect fill="#000000" fill-opacity="0.00000" height="803.5859" width="8" x="50.8604" y="56.4297"/><line style="stroke:#181818;stroke-width:0.5;stroke-dasharray:5,5;" x1="54" x2="54" y1="56.4297" y2="860.0156"/></g><g><title>Consuming1</title><rect fill="#000000" fill-opacity="0.00000" height="803.5859" width="8" x="173.6184" y="56.4297"/><line style="stroke:#181818;stroke-width:0.5;stroke-dasharray:5,5;" x1="176.8308" x2="176.8308" y1="56.4297" y2="860.0156"/></g><g><title>Purchasing1</title><rect fill="#000000" fill-opacity="0.00000" height="803.5859" width="8" x="284.4417" y="56.4297"/><line style="stroke:#181818;stroke-width:0.5;stroke-dasharray:5,5;" x1="288.406" x2="288.406" y1="56.4297" y2="860.0156"/></g><g><title>Warehousing1</title><rect fill="#000000" fill-opacity="0.00000" height="803.5859" width="8" x="401.9539" y="56.4297"/><line style="stroke:#181818;stroke-width:0.5;stroke-dasharray:5,5;" x1="405.4773" x2="405.4773" y1="56.4297" y2="860.0156"/></g><g><title>Financing1</title><rect fill="#000000" fill-opacity="0.00000" height="803.5859" width="8" x="514.6912" y="56.4297"/><line style="stroke:#181818;stroke-width:0.5;stroke-dasharray:5,5;" x1="518.4304" x2="518.4304" y1="56.4297" y2="860.0156"/></g><g><title>Receiving1</title><rect fill="#000000" fill-opacity="0.00000" height="803.5859" width="8" x="615.6433" y="56.4297"/><line style="stroke:#181818;stroke-width:0.5;stroke-dasharray:5,5;" x1="618.9519" x2="618.9519" y1="56.4297" y2="860.0156"/></g><g><title>Searching2</title><rect fill="#000000" fill-opacity="0.00000" height="803.5859" width="8" x="739.9258" y="56.4297"/><line style="stroke:#181818;stroke-width:0.5;stroke-dasharray:5,5;" x1="743.4448" x2="743.4448" y1="56.4297" y2="860.0156"/></g><g><title>Selling3</title><rect fill="#000000" fill-opacity="0.00000" height="803.5859" width="8" x="851.3247" y="56.4297"/><line style="stroke:#181818;stroke-width:0.5;stroke-dasharray:5,5;" x1="854.4067" x2="854.4067" y1="56.4297" y2="860.0156"/></g><g><title>Financing3</title><rect fill="#000000" fill-opacity="0.00000" height="803.5859" width="8" x="993.7954" y="56.4297"/><line style="stroke:#181818;stroke-width:0.5;stroke-dasharray:5,5;" x1="997.5347" x2="997.5347" y1="56.4297" y2="860.0156"/></g><g><title>Warehousing3</title><rect fill="#000000" fill-opacity="0.00000" height="803.5859" width="8" x="1106.5327" y="56.4297"/><line style="stroke:#181818;stroke-width:0.5;stroke-dasharray:5,5;" x1="1110.0562" x2="1110.0562" y1="56.4297" y2="860.0156"/></g><g><title>Shipping3</title><rect fill="#000000" fill-opacity="0.00000" height="803.5859" width="8" x="1229.4146" y="56.4297"/><line style="stroke:#181818;stroke-width:0.5;stroke-dasharray:5,5;" x1="1232.4248" x2="1232.4248" y1="56.4297" y2="860.0156"/></g><g><title>Transporting4</title><rect fill="#000000" fill-opacity="0.00000" height="803.5859" width="8" x="1396.7668" y="56.4297"/><line style="stroke:#181818;stroke-width:0.5;stroke-dasharray:5,5;" x1="1400.613" x2="1400.613" y1="56.4297" y2="860.0156"/></g><g><title>Financing4</title><rect fill="#000000" fill-opacity="0.00000" height="803.5859" width="8" x="1510.1018" y="56.4297"/><line style="stroke:#181818;stroke-width:0.5;stroke-dasharray:5,5;" x1="1513.8411" x2="1513.8411" y1="56.4297" y2="860.0156"/></g><g class="participant participant-head" data-participant="BR0"><rect fill="#E2E2F0" height="30.2969" rx="2.5" ry="2.5" style="stroke:#181818;stroke-width:0.5;" width="79.7207" x="15" y="25.1328"/><text fill="#000000" font-family="sans-serif" font-size="14" lengthAdjust="spacing" textLength="65.7207" x="22" y="45.1279">Banking1</text></g><g class="participant participant-tail" data-participant="BR0"><rect fill="#E2E2F0" height="30.2969" rx="2.5" ry="2.5" style="stroke:#181818;stroke-width:0.5;" width="79.7207" x="15" y="859.0156"/><text fill="#000000" font-family="sans-serif" font-size="14" lengthAdjust="spacing" textLength="65.7207" x="22" y="879.0107">Banking1</text></g><g class="participant participant-head" data-participant="CR1"><rect fill="#E2E2F0" height="30.2969" rx="2.5" ry="2.5" style="stroke:#181818;stroke-width:0.5;" width="101.5752" x="126.8308" y="25.1328"/><text fill="#000000" font-family="sans-serif" font-size="14" lengthAdjust="spacing" textLength="87.5752" x="133.8308" y="45.1279">Consuming1</text></g><g class="participant participant-tail" data-participant="CR1"><rect fill="#E2E2F0" height="30.2969" rx="2.5" ry="2.5" style="stroke:#181818;stroke-width:0.5;" width="101.5752" x="126.8308" y="859.0156"/><text fill="#000000" font-family="sans-serif" font-size="14" lengthAdjust="spacing" textLength="87.5752" x="133.8308" y="879.0107">Consuming1</text></g><g class="participant participant-head" data-participant="PR1"><rect fill="#E2E2F0" height="30.2969" rx="2.5" ry="2.5" style="stroke:#181818;stroke-width:0.5;" width="100.0713" x="238.406" y="25.1328"/><text fill="#000000" font-family="sans-serif" font-size="14" lengthAdjust="spacing" textLength="86.0713" x="245.406" y="45.1279">Purchasing1</text></g><g class="participant participant-tail" data-participant="PR1"><rect fill="#E2E2F0" height="30.2969" rx="2.5" ry="2.5" style="stroke:#181818;stroke-width:0.5;" width="100.0713" x="238.406" y="859.0156"/><text fill="#000000" font-family="sans-serif" font-size="14" lengthAdjust="spacing" textLength="86.0713" x="245.406" y="879.0107">Purchasing1</text></g><g class="participant participant-head" data-participant="WR1"><rect fill="#E2E2F0" height="30.2969" rx="2.5" ry="2.5" style="stroke:#181818;stroke-width:0.5;" width="114.9531" x="348.4773" y="25.1328"/><text fill="#000000" font-family="sans-serif" font-size="14" lengthAdjust="spacing" textLength="100.9531" x="355.4773" y="45.1279">Warehousing1</text></g><g class="participant participant-tail" data-participant="WR1"><rect fill="#E2E2F0" height="30.2969" rx="2.5" ry="2.5" style="stroke:#181818;stroke-width:0.5;" width="114.9531" x="348.4773" y="859.0156"/><text fill="#000000" font-family="sans-serif" font-size="14" lengthAdjust="spacing" textLength="100.9531" x="355.4773" y="879.0107">Warehousing1</text></g><g class="participant participant-head" data-participant="FR1"><rect fill="#E2E2F0" height="30.2969" rx="2.5" ry="2.5" style="stroke:#181818;stroke-width:0.5;" width="90.5215" x="473.4304" y="25.1328"/><text fill="#000000" font-family="sans-serif" font-size="14" lengthAdjust="spacing" textLength="76.5215" x="480.4304" y="45.1279">Financing1</text></g><g class="participant participant-tail" data-participant="FR1"><rect fill="#E2E2F0" height="30.2969" rx="2.5" ry="2.5" style="stroke:#181818;stroke-width:0.5;" width="90.5215" x="473.4304" y="859.0156"/><text fill="#000000" font-family="sans-serif" font-size="14" lengthAdjust="spacing" textLength="76.5215" x="480.4304" y="879.0107">Financing1</text></g><g class="participant participant-head" data-participant="RR1"><rect fill="#E2E2F0" height="30.2969" rx="2.5" ry="2.5" style="stroke:#181818;stroke-width:0.5;" width="91.3828" x="573.9519" y="25.1328"/><text fill="#000000" font-family="sans-serif" font-size="14" lengthAdjust="spacing" textLength="77.3828" x="580.9519" y="45.1279">Receiving1</text></g><g class="participant participant-tail" data-participant="RR1"><rect fill="#E2E2F0" height="30.2969" rx="2.5" ry="2.5" style="stroke:#181818;stroke-width:0.5;" width="91.3828" x="573.9519" y="859.0156"/><text fill="#000000" font-family="sans-serif" font-size="14" lengthAdjust="spacing" textLength="77.3828" x="580.9519" y="879.0107">Receiving1</text></g><g class="participant participant-head" data-participant="SR2"><rect fill="#E2E2F0" height="30.2969" rx="2.5" ry="2.5" style="stroke:#181818;stroke-width:0.5;" width="92.9619" x="697.4448" y="25.1328"/><text fill="#000000" font-family="sans-serif" font-size="14" lengthAdjust="spacing" textLength="78.9619" x="704.4448" y="45.1279">Searching2</text></g><g class="participant participant-tail" data-participant="SR2"><rect fill="#E2E2F0" height="30.2969" rx="2.5" ry="2.5" style="stroke:#181818;stroke-width:0.5;" width="92.9619" x="697.4448" y="859.0156"/><text fill="#000000" font-family="sans-serif" font-size="14" lengthAdjust="spacing" textLength="78.9619" x="704.4448" y="879.0107">Searching2</text></g><g class="participant participant-head" data-participant="SR3"><rect fill="#E2E2F0" height="30.2969" rx="2.5" ry="2.5" style="stroke:#181818;stroke-width:0.5;" width="69.8359" x="820.4067" y="25.1328"/><text fill="#000000" font-family="sans-serif" font-size="14" lengthAdjust="spacing" textLength="55.8359" x="827.4067" y="45.1279">Selling3</text></g><g class="participant participant-tail" data-participant="SR3"><rect fill="#E2E2F0" height="30.2969" rx="2.5" ry="2.5" style="stroke:#181818;stroke-width:0.5;" width="69.8359" x="820.4067" y="859.0156"/><text fill="#000000" font-family="sans-serif" font-size="14" lengthAdjust="spacing" textLength="55.8359" x="827.4067" y="879.0107">Selling3</text></g><g class="participant participant-head" data-participant="FR3"><rect fill="#E2E2F0" height="30.2969" rx="2.5" ry="2.5" style="stroke:#181818;stroke-width:0.5;" width="90.5215" x="952.5347" y="25.1328"/><text fill="#000000" font-family="sans-serif" font-size="14" lengthAdjust="spacing" textLength="76.5215" x="959.5347" y="45.1279">Financing3</text></g><g class="participant participant-tail" data-participant="FR3"><rect fill="#E2E2F0" height="30.2969" rx="2.5" ry="2.5" style="stroke:#181818;stroke-width:0.5;" width="90.5215" x="952.5347" y="859.0156"/><text fill="#000000" font-family="sans-serif" font-size="14" lengthAdjust="spacing" textLength="76.5215" x="959.5347" y="879.0107">Financing3</text></g><g class="participant participant-head" data-participant="WR3"><rect fill="#E2E2F0" height="30.2969" rx="2.5" ry="2.5" style="stroke:#181818;stroke-width:0.5;" width="114.9531" x="1053.0562" y="25.1328"/><text fill="#000000" font-family="sans-serif" font-size="14" lengthAdjust="spacing" textLength="100.9531" x="1060.0562" y="45.1279">Warehousing3</text></g><g class="participant participant-tail" data-participant="WR3"><rect fill="#E2E2F0" height="30.2969" rx="2.5" ry="2.5" style="stroke:#181818;stroke-width:0.5;" width="114.9531" x="1053.0562" y="859.0156"/><text fill="#000000" font-family="sans-serif" font-size="14" lengthAdjust="spacing" textLength="100.9531" x="1060.0562" y="879.0107">Warehousing3</text></g><g class="participant participant-head" data-participant="ShR3"><rect fill="#E2E2F0" height="30.2969" rx="2.5" ry="2.5" style="stroke:#181818;stroke-width:0.5;" width="83.9795" x="1191.4248" y="25.1328"/><text fill="#000000" font-family="sans-serif" font-size="14" lengthAdjust="spacing" textLength="69.9795" x="1198.4248" y="45.1279">Shipping3</text></g><g class="participant participant-tail" data-participant="ShR3"><rect fill="#E2E2F0" height="30.2969" rx="2.5" ry="2.5" style="stroke:#181818;stroke-width:0.5;" width="83.9795" x="1191.4248" y="859.0156"/><text fill="#000000" font-family="sans-serif" font-size="14" lengthAdjust="spacing" textLength="69.9795" x="1198.4248" y="879.0107">Shipping3</text></g><g class="participant participant-head" data-participant="TR4"><rect fill="#E2E2F0" height="30.2969" rx="2.5" ry="2.5" style="stroke:#181818;stroke-width:0.5;" width="112.3076" x="1344.613" y="25.1328"/><text fill="#000000" font-family="sans-serif" font-size="14" lengthAdjust="spacing" textLength="98.3076" x="1351.613" y="45.1279">Transporting4</text></g><g class="participant participant-tail" data-participant="TR4"><rect fill="#E2E2F0" height="30.2969" rx="2.5" ry="2.5" style="stroke:#181818;stroke-width:0.5;" width="112.3076" x="1344.613" y="859.0156"/><text fill="#000000" font-family="sans-serif" font-size="14" lengthAdjust="spacing" textLength="98.3076" x="1351.613" y="879.0107">Transporting4</text></g><g class="participant participant-head" data-participant="FR4"><rect fill="#E2E2F0" height="30.2969" rx="2.5" ry="2.5" style="stroke:#181818;stroke-width:0.5;" width="90.5215" x="1468.8411" y="25.1328"/><text fill="#000000" font-family="sans-serif" font-size="14" lengthAdjust="spacing" textLength="76.5215" x="1475.8411" y="45.1279">Financing4</text></g><g class="participant participant-tail" data-participant="FR4"><rect fill="#E2E2F0" height="30.2969" rx="2.5" ry="2.5" style="stroke:#181818;stroke-width:0.5;" width="90.5215" x="1468.8411" y="859.0156"/><text fill="#000000" font-family="sans-serif" font-size="14" lengthAdjust="spacing" textLength="76.5215" x="1475.8411" y="879.0107">Financing4</text></g><g><title>Consuming1</title><rect fill="#FFFFFF" height="646.0547" style="stroke:#181818;stroke-width:1;" width="10" x="172.6184" y="66.4297"/></g><g><title>Purchasing1</title><rect fill="#FFFFFF" height="174.7969" style="stroke:#181818;stroke-width:1;" width="10" x="283.4417" y="87.5625"/></g><g><title>Warehousing1</title><rect fill="#FFFFFF" height="29.1328" style="stroke:#181818;stroke-width:1;" width="10" x="400.9539" y="683.3516"/></g><g><title>Financing1</title><rect fill="#FFFFFF" height="71.2656" style="stroke:#181818;stroke-width:1;" width="10" x="513.6912" y="391.8906"/></g><g><title>Receiving1</title><rect fill="#FFFFFF" height="44.2656" style="stroke:#181818;stroke-width:1;" width="10" x="614.6433" y="639.0859"/></g><g><title>Selling3</title><rect fill="#FFFFFF" height="246.0625" style="stroke:#181818;stroke-width:1;" width="10" x="850.3247" y="116.6953"/></g><g><title>Financing3</title><rect fill="#FFFFFF" height="129.5313" style="stroke:#181818;stroke-width:1;" width="10" x="992.7954" y="362.7578"/></g><g><title>Financing3</title><rect fill="#FFFFFF" height="71.2656" style="stroke:#181818;stroke-width:1;" width="10" x="992.7954" y="741.6172"/></g><g><title>Warehousing3</title><rect fill="#FFFFFF" height="29.1328" style="stroke:#181818;stroke-width:1;" width="10" x="1105.5327" y="145.8281"/></g><g><title>Warehousing3</title><rect fill="#FFFFFF" height="187.7969" style="stroke:#181818;stroke-width:1;" width="10" x="1105.5327" y="333.625"/></g><g><title>Shipping3</title><rect fill="#FFFFFF" height="44.2656" style="stroke:#181818;stroke-width:1;" width="10" x="1228.4146" y="521.4219"/></g><g><title>Transporting4</title><rect fill="#FFFFFF" height="29.1328" style="stroke:#181818;stroke-width:1;" width="10" x="1395.7668" y="204.0938"/></g><g><title>Transporting4</title><rect fill="#FFFFFF" height="73.3984" style="stroke:#181818;stroke-width:1;" width="10" x="1395.7668" y="565.6875"/></g><g><title>Financing4</title><rect fill="#FFFFFF" height="232.0625" style="stroke:#181818;stroke-width:1;" width="10" x="1509.1018" y="609.9531"/></g><g class="message" data-participant-1="CR1" data-participant-2="PR1"><polygon fill="#181818" points="271.4417,83.5625,281.4417,87.5625,271.4417,91.5625,275.4417,87.5625" style="stroke:#181818;stroke-width:1;"/><line style="stroke:#181818;stroke-width:1;" x1="182.6184" x2="277.4417" y1="87.5625" y2="87.5625"/><text fill="#000000" font-family="sans-serif" font-size="13" lengthAdjust="spacing" textLength="55.1294" x="205.4653" y="82.4966">Demand</text></g><g class="message" data-participant-1="PR1" data-participant-2="SR3"><polygon fill="#181818" points="838.3247,112.6953,848.3247,116.6953,838.3247,120.6953,842.3247,116.6953" style="stroke:#181818;stroke-width:1;"/><line style="stroke:#181818;stroke-width:1;" x1="293.4417" x2="844.3247" y1="116.6953" y2="116.6953"/><text fill="#000000" font-family="sans-serif" font-size="13" lengthAdjust="spacing" textLength="110.7476" x="516.5094" y="111.6294">OrderStandalone</text></g><g class="message" data-participant-1="SR3" data-participant-2="WR3"><polygon fill="#181818" points="1093.5327,141.8281,1103.5327,145.8281,1093.5327,149.8281,1097.5327,145.8281" style="stroke:#181818;stroke-width:1;"/><line style="stroke:#181818;stroke-width:1;" x1="860.3247" x2="1099.5327" y1="145.8281" y2="145.8281"/><text fill="#000000" font-family="sans-serif" font-size="13" lengthAdjust="spacing" textLength="193.1909" x="886.3333" y="140.7622">InventoryReservationRequest</text></g><g class="message" data-participant-1="WR3" data-participant-2="SR3"><polygon fill="#181818" points="871.3247,170.9609,861.3247,174.9609,871.3247,178.9609,867.3247,174.9609" style="stroke:#181818;stroke-width:1;"/><line style="stroke:#181818;stroke-width:1;stroke-dasharray:2,2;" x1="865.3247" x2="1109.5327" y1="174.9609" y2="174.9609"/><text fill="#000000" font-family="sans-serif" font-size="13" lengthAdjust="spacing" textLength="139.8008" x="915.5283" y="169.895">InventoryReservation</text></g><g class="message" data-participant-1="SR3" data-participant-2="TR4"><polygon fill="#181818" points="1383.7668,200.0938,1393.7668,204.0938,1383.7668,208.0938,1387.7668,204.0938" style="stroke:#181818;stroke-width:1;"/><line style="stroke:#181818;stroke-width:1;" x1="860.3247" x2="1389.7668" y1="204.0938" y2="204.0938"/><text fill="#000000" font-family="sans-serif" font-size="13" lengthAdjust="spacing" textLength="155.8223" x="1050.1346" y="199.0278">TransportQuoteRequest</text></g><g class="message" data-participant-1="TR4" data-participant-2="SR3"><polygon fill="#181818" points="871.3247,229.2266,861.3247,233.2266,871.3247,237.2266,867.3247,233.2266" style="stroke:#181818;stroke-width:1;"/><line style="stroke:#181818;stroke-width:1;stroke-dasharray:2,2;" x1="865.3247" x2="1399.7668" y1="233.2266" y2="233.2266"/><text fill="#000000" font-family="sans-serif" font-size="13" lengthAdjust="spacing" textLength="102.4321" x="1079.3297" y="228.1606">TransportQuote</text></g><g class="message" data-participant-1="SR3" data-participant-2="PR1"><polygon fill="#181818" points="299.4417,258.3594,289.4417,262.3594,299.4417,266.3594,295.4417,262.3594" style="stroke:#181818;stroke-width:1;"/><line style="stroke:#181818;stroke-width:1;stroke-dasharray:2,2;" x1="293.4417" x2="849.3247" y1="262.3594" y2="262.3594"/><text fill="#000000" font-family="sans-serif" font-size="13" lengthAdjust="spacing" textLength="121.5068" x="508.6298" y="257.2935">OrderConfirmation</text></g><g class="message" data-participant-1="SR3" data-participant-2="SR3"><line style="stroke:#181818;stroke-width:1;" x1="860.3247" x2="902.3247" y1="291.4922" y2="291.4922"/><line style="stroke:#181818;stroke-width:1;" x1="902.3247" x2="902.3247" y1="291.4922" y2="304.4922"/><line style="stroke:#181818;stroke-width:1;" x1="861.3247" x2="902.3247" y1="304.4922" y2="304.4922"/><polygon fill="#181818" points="871.3247,300.4922,861.3247,304.4922,871.3247,308.4922,867.3247,304.4922" style="stroke:#181818;stroke-width:1;"/><text fill="#000000" font-family="sans-serif" font-size="13" lengthAdjust="spacing" textLength="27.3076" x="867.3247" y="286.4263">wait</text><path d="M904.098,277.5755 C901.7146,277.5755 899.7646,279.5255 899.7646,281.9089 C899.7646,284.2922 901.7146,286.2422 904.098,286.2422 C906.4813,286.2422 908.4313,284.2922 908.4313,281.9089 C908.4313,279.5255 906.4813,277.5755 904.098,277.5755 M904.098,278.6589 C905.8963,278.6589 907.348,280.1105 907.348,281.9089 C907.348,283.7072 905.8963,285.1589 904.098,285.1589 C902.2996,285.1589 900.848,283.7072 900.848,281.9089 C900.848,280.1105 902.2996,278.6589 904.098,278.6589 M903.5563,279.7422 L903.5563,282.1472 L903.7296,282.288 L904.2713,282.8297 L904.6396,283.2414 L905.4196,282.4614 L905.008,282.093 L904.6396,281.7247 L904.6396,279.7639 L903.5563,279.7639" fill="#000000"/></g><g class="message" data-participant-1="SR3" data-participant-2="WR3"><polygon fill="#181818" points="1093.5327,329.625,1103.5327,333.625,1093.5327,337.625,1097.5327,333.625" style="stroke:#181818;stroke-width:1;"/><line style="stroke:#181818;stroke-width:1;" x1="860.3247" x2="1099.5327" y1="333.625" y2="333.625"/><text fill="#000000" font-family="sans-serif" font-size="13" lengthAdjust="spacing" textLength="166.8608" x="899.4983" y="328.5591">InventoryReleaseRequest</text></g><g class="message" data-participant-1="SR3" data-participant-2="FR3"><polygon fill="#181818" points="980.7954,358.7578,990.7954,362.7578,980.7954,366.7578,984.7954,362.7578" style="stroke:#181818;stroke-width:1;"/><line style="stroke:#181818;stroke-width:1;" x1="855.3247" x2="986.7954" y1="362.7578" y2="362.7578"/><text fill="#000000" font-family="sans-serif" font-size="13" lengthAdjust="spacing" textLength="113.4707" x="867.3247" y="357.6919">InventoryRelease</text></g><g class="message" data-participant-1="FR3" data-participant-2="FR1"><polygon fill="#181818" points="534.6912,387.8906,524.6912,391.8906,534.6912,395.8906,530.6912,391.8906" style="stroke:#181818;stroke-width:1;"/><line style="stroke:#181818;stroke-width:1;" x1="528.6912" x2="991.7954" y1="391.8906" y2="391.8906"/><text fill="#000000" font-family="sans-serif" font-size="13" lengthAdjust="spacing" textLength="46.4775" x="735.0045" y="386.8247">Invoice</text></g><g class="message" data-participant-1="FR1" data-participant-2="FR1"><line style="stroke:#181818;stroke-width:1;" x1="523.6912" x2="565.6912" y1="421.0234" y2="421.0234"/><line style="stroke:#181818;stroke-width:1;" x1="565.6912" x2="565.6912" y1="421.0234" y2="434.0234"/><line style="stroke:#181818;stroke-width:1;" x1="524.6912" x2="565.6912" y1="434.0234" y2="434.0234"/><polygon fill="#181818" points="534.6912,430.0234,524.6912,434.0234,534.6912,438.0234,530.6912,434.0234" style="stroke:#181818;stroke-width:1;"/><text fill="#000000" font-family="sans-serif" font-size="13" lengthAdjust="spacing" textLength="27.3076" x="530.6912" y="415.9575">wait</text><path d="M567.4644,407.1068 C565.0811,407.1068 563.1311,409.0568 563.1311,411.4401 C563.1311,413.8234 565.0811,415.7734 567.4644,415.7734 C569.8478,415.7734 571.7978,413.8234 571.7978,411.4401 C571.7978,409.0568 569.8478,407.1068 567.4644,407.1068 M567.4644,408.1901 C569.2628,408.1901 570.7144,409.6418 570.7144,411.4401 C570.7144,413.2384 569.2628,414.6901 567.4644,414.6901 C565.6661,414.6901 564.2144,413.2384 564.2144,411.4401 C564.2144,409.6418 565.6661,408.1901 567.4644,408.1901 M566.9228,409.2734 L566.9228,411.6784 L567.0961,411.8193 L567.6378,412.3609 L568.0061,412.7726 L568.7861,411.9926 L568.3744,411.6243 L568.0061,411.2559 L568.0061,409.2951 L566.9228,409.2951" fill="#000000"/></g><g class="message" data-participant-1="FR1" data-participant-2="FR3"><polygon fill="#181818" points="980.7954,459.1563,990.7954,463.1563,980.7954,467.1563,984.7954,463.1563" style="stroke:#181818;stroke-width:1;"/><line style="stroke:#181818;stroke-width:1;stroke-dasharray:2,2;" x1="518.6912" x2="986.7954" y1="463.1563" y2="463.1563"/><text fill="#000000" font-family="sans-serif" font-size="13" lengthAdjust="spacing" textLength="57.4971" x="726.9948" y="458.0903">Payment</text></g><g class="message" data-participant-1="FR3" data-participant-2="BR0"><polygon fill="#181818" points="65.8604,488.2891,55.8604,492.2891,65.8604,496.2891,61.8604,492.2891" style="stroke:#181818;stroke-width:1;"/><line style="stroke:#181818;stroke-width:1;" x1="59.8604" x2="996.7954" y1="492.2891" y2="492.2891"/><text fill="#000000" font-family="sans-serif" font-size="13" lengthAdjust="spacing" textLength="86.8359" x="482.9099" y="487.2231">BankTransfer</text></g><g class="message" data-participant-1="WR3" data-participant-2="ShR3"><polygon fill="#181818" points="1216.4146,517.4219,1226.4146,521.4219,1216.4146,525.4219,1220.4146,521.4219" style="stroke:#181818;stroke-width:1;"/><line style="stroke:#181818;stroke-width:1;" x1="1110.5327" x2="1222.4146" y1="521.4219" y2="521.4219"/><text fill="#000000" font-family="sans-serif" font-size="13" lengthAdjust="spacing" textLength="93.8818" x="1122.5327" y="516.356">ShippingOrder</text></g><g class="message" data-participant-1="ShR3" data-participant-2="TR4"><polygon fill="#181818" points="1383.7668,561.6875,1393.7668,565.6875,1383.7668,569.6875,1387.7668,565.6875" style="stroke:#181818;stroke-width:1;"/><line style="stroke:#181818;stroke-width:1;" x1="1233.4146" x2="1389.7668" y1="565.6875" y2="565.6875"/><text fill="#000000" font-family="sans-serif" font-size="13" lengthAdjust="spacing" textLength="100.0835" x="1264.549" y="545.4888">TransportOrder</text><text fill="#000000" font-family="sans-serif" font-size="13" lengthAdjust="spacing" textLength="10.1372" x="1274.4164" y="560.6216">&amp;</text><text fill="#000000" filter="url(#bdyame2cwf9p20)" font-family="sans-serif" font-size="13" font-weight="bold" lengthAdjust="spacing" textLength="70.2114" x="1288.6859" y="560.6216">Shipment</text></g><g class="message" data-participant-1="TR4" data-participant-2="FR4"><polygon fill="#181818" points="1497.1018,605.9531,1507.1018,609.9531,1497.1018,613.9531,1501.1018,609.9531" style="stroke:#181818;stroke-width:1;"/><line style="stroke:#181818;stroke-width:1;" x1="1405.7668" x2="1503.1018" y1="609.9531" y2="609.9531"/><text fill="#000000" font-family="sans-serif" font-size="13" lengthAdjust="spacing" textLength="62.9116" x="1425.9785" y="589.7544">Transport</text><text fill="#000000" font-family="sans-serif" font-size="13" lengthAdjust="spacing" textLength="84.335" x="1415.2668" y="604.8872">Confirmation</text></g><g class="message" data-participant-1="TR4" data-participant-2="RR1"><polygon fill="#181818" points="635.6433,635.0859,625.6433,639.0859,635.6433,643.0859,631.6433,639.0859" style="stroke:#181818;stroke-width:1;"/><line style="stroke:#181818;stroke-width:1;" x1="629.6433" x2="1399.7668" y1="639.0859" y2="639.0859"/><text fill="#000000" font-family="sans-serif" font-size="13" lengthAdjust="spacing" textLength="116.873" x="902.5624" y="634.02">TransportDelivery</text><path d="M1028.9011,625.1693 C1026.5178,625.1693 1024.5678,627.1193 1024.5678,629.5026 C1024.5678,631.8859 1026.5178,633.8359 1028.9011,633.8359 C1031.2845,633.8359 1033.2345,631.8859 1033.2345,629.5026 C1033.2345,627.1193 1031.2845,625.1693 1028.9011,625.1693 M1028.9011,626.2526 C1030.6995,626.2526 1032.1511,627.7043 1032.1511,629.5026 C1032.1511,631.3009 1030.6995,632.7526 1028.9011,632.7526 C1027.1028,632.7526 1025.6511,631.3009 1025.6511,629.5026 C1025.6511,627.7043 1027.1028,626.2526 1028.9011,626.2526 M1028.3595,627.3359 L1028.3595,629.7409 L1028.5328,629.8818 L1029.0745,630.4234 L1029.4428,630.8351 L1030.2228,630.0551 L1029.8111,629.6868 L1029.4428,629.3184 L1029.4428,627.3576 L1028.3595,627.3576" fill="#000000"/><text fill="#000000" font-family="sans-serif" font-size="13" lengthAdjust="spacing" textLength="10.1372" x="1038.3668" y="634.02">&amp;</text><text fill="#000000" filter="url(#bdyame2cwf9p20)" font-family="sans-serif" font-size="13" font-weight="bold" lengthAdjust="spacing" textLength="70.2114" x="1052.6363" y="634.02">Shipment</text></g><g class="message" data-participant-1="RR1" data-participant-2="WR1"><polygon fill="#181818" points="421.9539,679.3516,411.9539,683.3516,421.9539,687.3516,417.9539,683.3516" style="stroke:#181818;stroke-width:1;"/><line style="stroke:#181818;stroke-width:1;" x1="415.9539" x2="618.6433" y1="683.3516" y2="683.3516"/><text fill="#000000" font-family="sans-serif" font-size="13" lengthAdjust="spacing" textLength="96.6812" x="466.958" y="663.1528">InventoryEntry</text><text fill="#000000" font-family="sans-serif" font-size="13" lengthAdjust="spacing" textLength="10.1372" x="475.1243" y="678.2856">&amp;</text><text fill="#000000" filter="url(#bdyame2cwf9p20)" font-family="sans-serif" font-size="13" font-weight="bold" lengthAdjust="spacing" textLength="70.2114" x="489.3938" y="678.2856">Shipment</text></g><g class="message" data-participant-1="WR1" data-participant-2="CR1"><polygon fill="#181818" points="188.6184,708.4844,178.6184,712.4844,188.6184,716.4844,184.6184,712.4844" style="stroke:#181818;stroke-width:1;"/><line style="stroke:#181818;stroke-width:1;" x1="182.6184" x2="404.9539" y1="712.4844" y2="712.4844"/><text fill="#000000" font-family="sans-serif" font-size="13" lengthAdjust="spacing" textLength="68.7388" x="257.4167" y="707.4185">Fulfillment</text></g><g class="message" data-participant-1="FR4" data-participant-2="FR3"><polygon fill="#181818" points="1013.7954,737.6172,1003.7954,741.6172,1013.7954,745.6172,1009.7954,741.6172" style="stroke:#181818;stroke-width:1;"/><line style="stroke:#181818;stroke-width:1;" x1="1007.7954" x2="1508.1018" y1="741.6172" y2="741.6172"/><text fill="#000000" font-family="sans-serif" font-size="13" lengthAdjust="spacing" textLength="117.6284" x="1197.1344" y="736.5513">TrannsportInvoice</text></g><g class="message" data-participant-1="FR3" data-participant-2="FR3"><line style="stroke:#181818;stroke-width:1;" x1="1002.7954" x2="1044.7954" y1="770.75" y2="770.75"/><line style="stroke:#181818;stroke-width:1;" x1="1044.7954" x2="1044.7954" y1="770.75" y2="783.75"/><line style="stroke:#181818;stroke-width:1;" x1="1003.7954" x2="1044.7954" y1="783.75" y2="783.75"/><polygon fill="#181818" points="1013.7954,779.75,1003.7954,783.75,1013.7954,787.75,1009.7954,783.75" style="stroke:#181818;stroke-width:1;"/><text fill="#000000" font-family="sans-serif" font-size="13" lengthAdjust="spacing" textLength="27.3076" x="1009.7954" y="765.6841">wait</text><path d="M1046.5687,756.8333 C1044.1854,756.8333 1042.2354,758.7833 1042.2354,761.1667 C1042.2354,763.55 1044.1854,765.5 1046.5687,765.5 C1048.952,765.5 1050.902,763.55 1050.902,761.1667 C1050.902,758.7833 1048.952,756.8333 1046.5687,756.8333 M1046.5687,757.9167 C1048.367,757.9167 1049.8187,759.3683 1049.8187,761.1667 C1049.8187,762.965 1048.367,764.4167 1046.5687,764.4167 C1044.7704,764.4167 1043.3187,762.965 1043.3187,761.1667 C1043.3187,759.3683 1044.7704,757.9167 1046.5687,757.9167 M1046.027,759 L1046.027,761.405 L1046.2004,761.5458 L1046.742,762.0875 L1047.1104,762.4992 L1047.8904,761.7192 L1047.4787,761.3508 L1047.1104,760.9825 L1047.1104,759.0217 L1046.027,759.0217" fill="#000000"/></g><g class="message" data-participant-1="FR3" data-participant-2="FR4"><polygon fill="#181818" points="1497.1018,808.8828,1507.1018,812.8828,1497.1018,816.8828,1501.1018,812.8828" style="stroke:#181818;stroke-width:1;"/><line style="stroke:#181818;stroke-width:1;stroke-dasharray:2,2;" x1="997.7954" x2="1503.1018" y1="812.8828" y2="812.8828"/><text fill="#000000" font-family="sans-serif" font-size="13" lengthAdjust="spacing" textLength="120.4087" x="1193.2443" y="807.8169">TransportPayment</text></g><g class="message" data-participant-1="FR4" data-participant-2="BR0"><polygon fill="#181818" points="65.8604,838.0156,55.8604,842.0156,65.8604,846.0156,61.8604,842.0156" style="stroke:#181818;stroke-width:1;"/><line style="stroke:#181818;stroke-width:1;" x1="59.8604" x2="1513.1018" y1="842.0156" y2="842.0156"/><text fill="#000000" font-family="sans-serif" font-size="13" lengthAdjust="spacing" textLength="86.8359" x="741.0631" y="836.9497">BankTransfer</text></g><!--SRC=[ZLHDRvj04BtpAqQfb4jLDGHEbcifTefKgLLT78bBBciyjbV6YxiiJlZttGzOTi5EVOW3y_7Up9iPgWDb9yB94URb-v9iDfJj87m8Ackly6-DBCTVM5LaXqy5tJ78aGdaGR0kt-5kJfYCtjq5Ca7Gd9u84z0QGo0LpDE70Da6P7INKZV8uHiiIbRLHyNv6POrp_UaCYyPuRWlw_OjeOomt3odc2CzApxuz9Fkzc9UrEXHMr1DlaX3pzlJQFTou7Q8jJyR-6qfsfiClBQu49vMa4glt_SAYMGVYMNDZmfqbJwEqef2wwKU_YVGQazFfu_qQK4YmnLTRYyoxKNNn8cCEBw_epRGU-dr-tZXX5MdaWlTZ7qRzE1huqR52lSbZI-N79kIuvwKv8AUYK2z1F8FlipKm2VmZ4V2DW60ZL1x0EfNnKXL9l2RRv2lX8mZHSbGUfrmfPiooFyg8LC9FzXPdaN9cnGhv3ACbYnLrrC97UkaPsqw04THStOnroMGJKzwAVxKfS0hq4eU3zhFwa4xBNIVycQsb1yxtWqEXB65Q6dU21KmlS-BCZ_CFjAXG59vXOuKQ1EJIubj7qunAwkRDINMb7HGeOOgQOxZuB0rgV3GXeyRiX5TSKlI76LrrkbKrQEs9SWFtaH_0RNsM_cb76L4WRPbhQfxHT6TZvx8kFbitBo-CMDJZ-DDqL2l3EvXkYRvOTB8so_VPjFrJ96fXgPVrxDBJJdG5xSBrBCHq2LyPODL6a4aOuXKpS12F6D1pyWREv1Rg_VgTokrnjIPVshcdxNhOZRlEnEykLqlZz45zpRTDMU6TQ5OaxhOqgBmrcemyN2y1Wjdss9xEqez8z_LrO-SnUwFxjhgH-tgkyFzy0OYlweRRY3-1m00]--></g></svg>