<svg xmlns="http://www.w3.org/2000/svg" xmlns:xlink="http://www.w3.org/1999/xlink" contentStyleType="text/css" data-diagram-type="CLASS" height="284px" preserveAspectRatio="none" style="width:716px;height:284px;background:#FFFFFF;" version="1.1" viewBox="0 0 716 284" width="716px" zoomAndPan="magnify"><defs/><g><!--class ProductAmount--><g class="entity" data-entity="ProductAmount" data-source-line="3" data-uid="ent0002" id="entity_ProductAmount"><rect fill="#F1F1F1" height="80.5938" rx="2.5" ry="2.5" style="stroke:#181818;stroke-width:0.5;" width="140.7256" x="474.35" y="197.19"/><ellipse cx="489.35" cy="213.19" fill="#ADD1B2" rx="11" ry="11" style="stroke:#181818;stroke-width:1;"/><path d="M492.3188,218.8306 Q491.7406,219.1275 491.1,219.2681 Q490.4594,219.4244 489.7563,219.4244 Q487.2563,219.4244 485.9281,217.7837 Q484.6156,216.1275 484.6156,213.0025 Q484.6156,209.8775 485.9281,208.2212 Q487.2563,206.565 489.7563,206.565 Q490.4594,206.565 491.1,206.7212 Q491.7563,206.8775 492.3188,207.1744 L492.3188,209.8931 Q491.6938,209.315 491.1,209.0494 Q490.5063,208.7681 489.8813,208.7681 Q488.5375,208.7681 487.85,209.8462 Q487.1625,210.9087 487.1625,213.0025 Q487.1625,215.0962 487.85,216.1744 Q488.5375,217.2369 489.8813,217.2369 Q490.5063,217.2369 491.1,216.9712 Q491.6938,216.69 492.3188,216.1119 L492.3188,218.8306 Z " fill="#000000"/><text fill="#000000" font-family="sans-serif" font-size="14" lengthAdjust="spacing" textLength="108.7256" x="503.35" y="218.0367">ProductAmount</text><line style="stroke:#181818;stroke-width:0.5;" x1="475.35" x2="614.0756" y1="229.19" y2="229.19"/><text fill="#000000" font-family="sans-serif" font-size="14" lengthAdjust="spacing" textLength="112.3145" x="480.35" y="246.1851">Product product</text><text fill="#000000" font-family="sans-serif" font-size="14" lengthAdjust="spacing" textLength="106.1826" x="480.35" y="262.482">double amount</text><line style="stroke:#181818;stroke-width:0.5;" x1="475.35" x2="614.0756" y1="269.7837" y2="269.7837"/></g><!--class Product--><g class="entity" data-entity="Product" data-source-line="8" data-uid="ent0003" id="entity_Product"><rect fill="#F1F1F1" height="113.1875" rx="2.5" ry="2.5" style="stroke:#181818;stroke-width:0.5;" width="148.5137" x="357.46" y="7"/><ellipse cx="400.7217" cy="23" fill="#ADD1B2" rx="11" ry="11" style="stroke:#181818;stroke-width:1;"/><path d="M403.6904,28.6406 Q403.1123,28.9375 402.4717,29.0781 Q401.831,29.2344 401.1279,29.2344 Q398.6279,29.2344 397.2998,27.5938 Q395.9873,25.9375 395.9873,22.8125 Q395.9873,19.6875 397.2998,18.0313 Q398.6279,16.375 401.1279,16.375 Q401.831,16.375 402.4717,16.5313 Q403.1279,16.6875 403.6904,16.9844 L403.6904,19.7031 Q403.0654,19.125 402.4717,18.8594 Q401.8779,18.5781 401.2529,18.5781 Q399.9092,18.5781 399.2217,19.6563 Q398.5342,20.7188 398.5342,22.8125 Q398.5342,24.9063 399.2217,25.9844 Q399.9092,27.0469 401.2529,27.0469 Q401.8779,27.0469 402.4717,26.7813 Q403.0654,26.5 403.6904,25.9219 L403.6904,28.6406 Z " fill="#000000"/><text fill="#000000" font-family="sans-serif" font-size="14" lengthAdjust="spacing" textLength="53.71" x="421.002" y="27.8467">Product</text><line style="stroke:#181818;stroke-width:0.5;" x1="358.46" x2="504.9737" y1="39" y2="39"/><text fill="#000000" font-family="sans-serif" font-size="14" lengthAdjust="spacing" textLength="85.9346" x="363.46" y="55.9951">String name</text><text fill="#000000" font-family="sans-serif" font-size="14" lengthAdjust="spacing" textLength="136.5137" x="363.46" y="72.292">Volume avgVolume</text><text fill="#000000" font-family="sans-serif" font-size="14" lengthAdjust="spacing" textLength="100.6934" x="363.46" y="88.5889">Mass avgMass</text><text fill="#000000" font-family="sans-serif" font-size="14" lengthAdjust="spacing" textLength="111.0156" x="363.46" y="104.8857">Money avgPrice</text><line style="stroke:#181818;stroke-width:0.5;" x1="358.46" x2="504.9737" y1="112.1875" y2="112.1875"/></g><!--class WeightSku--><g class="entity" data-entity="WeightSku" data-source-line="15" data-uid="ent0004" id="entity_WeightSku"><rect fill="#F1F1F1" height="64.2969" rx="2.5" ry="2.5" style="stroke:#181818;stroke-width:0.5;" width="129.4346" x="7" y="205.33"/><ellipse cx="31.8877" cy="221.33" fill="#ADD1B2" rx="11" ry="11" style="stroke:#181818;stroke-width:1;"/><path d="M34.8564,226.9706 Q34.2783,227.2675 33.6377,227.4081 Q32.9971,227.5644 32.2939,227.5644 Q29.7939,227.5644 28.4658,225.9237 Q27.1533,224.2675 27.1533,221.1425 Q27.1533,218.0175 28.4658,216.3612 Q29.7939,214.705 32.2939,214.705 Q32.9971,214.705 33.6377,214.8612 Q34.2939,215.0175 34.8564,215.3144 L34.8564,218.0331 Q34.2314,217.455 33.6377,217.1894 Q33.0439,216.9081 32.4189,216.9081 Q31.0752,216.9081 30.3877,217.9862 Q29.7002,219.0487 29.7002,221.1425 Q29.7002,223.2362 30.3877,224.3144 Q31.0752,225.3769 32.4189,225.3769 Q33.0439,225.3769 33.6377,225.1112 Q34.2314,224.83 34.8564,224.2519 L34.8564,226.9706 Z " fill="#000000"/><text fill="#000000" font-family="sans-serif" font-size="14" lengthAdjust="spacing" textLength="75.4619" x="48.085" y="226.1767">WeightSku</text><line style="stroke:#181818;stroke-width:0.5;" x1="8" x2="135.4346" y1="237.33" y2="237.33"/><text fill="#000000" font-family="sans-serif" font-size="14" lengthAdjust="spacing" textLength="117.4346" x="13" y="254.3251">double weightKg</text><line style="stroke:#181818;stroke-width:0.5;" x1="8" x2="135.4346" y1="261.6269" y2="261.6269"/></g><!--class VolumeSku--><g class="entity" data-entity="VolumeSku" data-source-line="19" data-uid="ent0005" id="entity_VolumeSku"><rect fill="#F1F1F1" height="64.2969" rx="2.5" ry="2.5" style="stroke:#181818;stroke-width:0.5;" width="137.0156" x="206.21" y="205.33"/><ellipse cx="232.9065" cy="221.33" fill="#ADD1B2" rx="11" ry="11" style="stroke:#181818;stroke-width:1;"/><path d="M235.8752,226.9706 Q235.2971,227.2675 234.6565,227.4081 Q234.0159,227.5644 233.3127,227.5644 Q230.8127,227.5644 229.4846,225.9237 Q228.1721,224.2675 228.1721,221.1425 Q228.1721,218.0175 229.4846,216.3612 Q230.8127,214.705 233.3127,214.705 Q234.0159,214.705 234.6565,214.8612 Q235.3127,215.0175 235.8752,215.3144 L235.8752,218.0331 Q235.2502,217.455 234.6565,217.1894 Q234.0627,216.9081 233.4377,216.9081 Q232.094,216.9081 231.4065,217.9862 Q230.719,219.0487 230.719,221.1425 Q230.719,223.2362 231.4065,224.3144 Q232.094,225.3769 233.4377,225.3769 Q234.0627,225.3769 234.6565,225.1112 Q235.2502,224.83 235.8752,224.2519 L235.8752,226.9706 Z " fill="#000000"/><text fill="#000000" font-family="sans-serif" font-size="14" lengthAdjust="spacing" textLength="79.0234" x="249.5057" y="226.1767">VolumeSku</text><line style="stroke:#181818;stroke-width:0.5;" x1="207.21" x2="342.2256" y1="237.33" y2="237.33"/><text fill="#000000" font-family="sans-serif" font-size="14" lengthAdjust="spacing" textLength="125.0156" x="212.21" y="254.3251">double volumeM3</text><line style="stroke:#181818;stroke-width:0.5;" x1="207.21" x2="342.2256" y1="261.6269" y2="261.6269"/></g><!--class Sku--><g class="entity" data-entity="Sku" data-source-line="23" data-uid="ent0006" id="entity_Sku"><rect fill="#F1F1F1" height="48" rx="2.5" ry="2.5" style="stroke:#181818;stroke-width:0.5;" width="57.8672" x="192.78" y="39.59"/><ellipse cx="207.78" cy="55.59" fill="#ADD1B2" rx="11" ry="11" style="stroke:#181818;stroke-width:1;"/><path d="M210.7488,61.2306 Q210.1706,61.5275 209.53,61.6681 Q208.8894,61.8244 208.1863,61.8244 Q205.6863,61.8244 204.3581,60.1837 Q203.0456,58.5275 203.0456,55.4025 Q203.0456,52.2775 204.3581,50.6212 Q205.6863,48.965 208.1863,48.965 Q208.8894,48.965 209.53,49.1212 Q210.1863,49.2775 210.7488,49.5744 L210.7488,52.2931 Q210.1238,51.715 209.53,51.4494 Q208.9363,51.1681 208.3113,51.1681 Q206.9675,51.1681 206.28,52.2462 Q205.5925,53.3087 205.5925,55.4025 Q205.5925,57.4962 206.28,58.5744 Q206.9675,59.6369 208.3113,59.6369 Q208.9363,59.6369 209.53,59.3712 Q210.1238,59.09 210.7488,58.5119 L210.7488,61.2306 Z " fill="#000000"/><text fill="#000000" font-family="sans-serif" font-size="14" lengthAdjust="spacing" textLength="25.8672" x="221.78" y="60.4367">Sku</text><line style="stroke:#181818;stroke-width:0.5;" x1="193.78" x2="249.6472" y1="71.59" y2="71.59"/><line style="stroke:#181818;stroke-width:0.5;" x1="193.78" x2="249.6472" y1="79.59" y2="79.59"/></g><!--class BillOfMaterials--><g class="entity" data-entity="BillOfMaterials" data-source-line="26" data-uid="ent0011" id="entity_BillOfMaterials"><rect fill="#F1F1F1" height="48" rx="2.5" ry="2.5" style="stroke:#181818;stroke-width:0.5;" width="133.3906" x="576.02" y="39.59"/><ellipse cx="591.02" cy="55.59" fill="#ADD1B2" rx="11" ry="11" style="stroke:#181818;stroke-width:1;"/><path d="M593.9888,61.2306 Q593.4106,61.5275 592.77,61.6681 Q592.1294,61.8244 591.4263,61.8244 Q588.9263,61.8244 587.5981,60.1837 Q586.2856,58.5275 586.2856,55.4025 Q586.2856,52.2775 587.5981,50.6212 Q588.9263,48.965 591.4263,48.965 Q592.1294,48.965 592.77,49.1212 Q593.4263,49.2775 593.9888,49.5744 L593.9888,52.2931 Q593.3638,51.715 592.77,51.4494 Q592.1763,51.1681 591.5513,51.1681 Q590.2075,51.1681 589.52,52.2462 Q588.8325,53.3087 588.8325,55.4025 Q588.8325,57.4962 589.52,58.5744 Q590.2075,59.6369 591.5513,59.6369 Q592.1763,59.6369 592.77,59.3712 Q593.3638,59.09 593.9888,58.5119 L593.9888,61.2306 Z " fill="#000000"/><text fill="#000000" font-family="sans-serif" font-size="14" lengthAdjust="spacing" textLength="101.3906" x="605.02" y="60.4367">BillOfMaterials</text><line style="stroke:#181818;stroke-width:0.5;" x1="577.02" x2="708.4106" y1="71.59" y2="71.59"/><line style="stroke:#181818;stroke-width:0.5;" x1="577.02" x2="708.4106" y1="79.59" y2="79.59"/></g><!--link Sku to Product--><g class="link" data-entity-1="Sku" data-entity-2="Product" data-source-line="23" data-uid="lnk8" id="link_Sku_Product"><path codeLine="23" d="M250.92,63.59 C278.3,63.59 320.42,63.59 357.12,63.59" fill="none" id="Sku-Product" style="stroke:#181818;stroke-width:1;"/><polygon fill="#000000" points="285.56,52.1564,294.6051,55.0953,294.6051,49.2175,285.56,52.1564" style="stroke:#000000;stroke-width:1;"/><text fill="#000000" font-family="sans-serif" font-size="13" lengthAdjust="spacing" textLength="22.9785" x="299.56" y="56.6569">has</text></g><!--reverse link Sku to VolumeSku--><g class="link" data-entity-1="Sku" data-entity-2="VolumeSku" data-source-line="24" data-uid="lnk9" id="link_Sku_VolumeSku"><path codeLine="24" d="M234.1699,104.9721 C243.4899,135.2221 254.54,171.05 264.99,204.93" fill="none" id="Sku-backto-VolumeSku" style="stroke:#181818;stroke-width:1;"/><polygon fill="none" points="228.87,87.77,228.4359,106.7387,239.904,103.2054,228.87,87.77" style="stroke:#181818;stroke-width:1;"/></g><!--reverse link Sku to WeightSku--><g class="link" data-entity-1="Sku" data-entity-2="WeightSku" data-source-line="25" data-uid="lnk10" id="link_Sku_WeightSku"><path codeLine="25" d="M189.6569,101.3339 C163.2669,131.5839 128.82,171.05 99.25,204.93" fill="none" id="Sku-backto-WeightSku" style="stroke:#181818;stroke-width:1;"/><polygon fill="none" points="201.49,87.77,185.1356,97.3895,194.1782,105.2782,201.49,87.77" style="stroke:#181818;stroke-width:1;"/></g><!--link Product to BillOfMaterials--><g class="link" data-entity-1="Product" data-entity-2="BillOfMaterials" data-source-line="26" data-uid="lnk12" id="link_Product_BillOfMaterials"><path codeLine="26" d="M506.31,63.59 C529.4,63.59 552.49,63.59 575.58,63.59" fill="none" id="Product-BillOfMaterials" style="stroke:#181818;stroke-width:1;"/><text fill="#000000" font-family="sans-serif" font-size="13" lengthAdjust="spacing" textLength="24.8066" x="542.9687" y="59.8438">0..1</text></g><!--reverse link BillOfMaterials to ProductAmount--><g class="link" data-entity-1="BillOfMaterials" data-entity-2="ProductAmount" data-source-line="27" data-uid="lnk13" id="link_BillOfMaterials_ProductAmount"><path codeLine="27" d="M623.558,98.1956 C607.628,126.1456 586.53,163.15 567.27,196.92" fill="none" id="BillOfMaterials-backto-ProductAmount" style="stroke:#181818;stroke-width:1;"/><polygon fill="#181818" points="629.5,87.77,623.0538,91.0021,623.558,98.1956,630.0042,94.9635,629.5,87.77" style="stroke:#181818;stroke-width:1;"/><text fill="#000000" font-family="sans-serif" font-size="13" lengthAdjust="spacing" textLength="61.0327" x="594.72" y="163.2569">materials</text></g><!--link ProductAmount to Product--><g class="link" data-entity-1="ProductAmount" data-entity-2="Product" data-source-line="28" data-uid="lnk14" id="link_ProductAmount_Product"><path codeLine="28" d="M518.58,196.73 C503.68,174.06 484.77,145.3 468.41,120.4" fill="none" id="ProductAmount-Product" style="stroke:#181818;stroke-width:1;"/></g><!--SRC=[NP3B2i8m54Jt-OfBbq94SI682BgLOg6WwzZ6DZIFaeSYwh-Rf6gmgvivcPaROZecUwA90AbgQcWFonb25IV6GA5LxIgx5Sf92my4NmBzC3sfbJjp2YHwq6iKZQ7IQYORa4HGhuwAE-43rsOuUPI7X0TX1gaalGTTQ5RHr7cYh6bjsRdO-bbyYt3V9DjGEx9T8ymNmVPz6-OOWcq56sY9GU6yVcAS6XBwxKvf7GY6R3QTpZFOCSuFbvnOgXdX1eqqJ7p9_t-kGFpS_pV9-WO0]--></g></svg>