<svg xmlns="http://www.w3.org/2000/svg" xmlns:xlink="http://www.w3.org/1999/xlink" contentStyleType="text/css" data-diagram-type="CLASS" height="393px" preserveAspectRatio="none" style="width:803px;height:393px;background:#FFFFFF;" version="1.1" viewBox="0 0 803 393" width="803px" zoomAndPan="magnify"><defs/><g><!--class Shipment--><g class="entity" data-entity="Shipment" data-source-line="3" data-uid="ent0002" id="entity_Shipment"><rect fill="#F1F1F1" height="113.1875" rx="2.5" ry="2.5" style="stroke:#181818;stroke-width:0.5;" width="137.8564" x="305.64" y="7"/><ellipse cx="338.0582" cy="23" fill="#ADD1B2" rx="11" ry="11" style="stroke:#181818;stroke-width:1;"/><path d="M341.0269,28.6406 Q340.4488,28.9375 339.8082,29.0781 Q339.1675,29.2344 338.4644,29.2344 Q335.9644,29.2344 334.6363,27.5938 Q333.3238,25.9375 333.3238,22.8125 Q333.3238,19.6875 334.6363,18.0313 Q335.9644,16.375 338.4644,16.375 Q339.1675,16.375 339.8082,16.5313 Q340.4644,16.6875 341.0269,16.9844 L341.0269,19.7031 Q340.4019,19.125 339.8082,18.8594 Q339.2144,18.5781 338.5894,18.5781 Q337.2457,18.5781 336.5582,19.6563 Q335.8707,20.7188 335.8707,22.8125 Q335.8707,24.9063 336.5582,25.9844 Q337.2457,27.0469 338.5894,27.0469 Q339.2144,27.0469 339.8082,26.7813 Q340.4019,26.5 341.0269,25.9219 L341.0269,28.6406 Z " fill="#000000"/><text fill="#000000" font-family="sans-serif" font-size="14" lengthAdjust="spacing" textLength="67.1494" x="355.9289" y="27.8467">Shipment</text><line style="stroke:#181818;stroke-width:0.5;" x1="306.64" x2="442.4964" y1="39" y2="39"/><text fill="#000000" font-family="sans-serif" font-size="14" lengthAdjust="spacing" textLength="118.583" x="311.64" y="55.9951">Time createTime</text><text fill="#000000" font-family="sans-serif" font-size="14" lengthAdjust="spacing" textLength="89.1064" x="311.64" y="72.292">Money value</text><text fill="#000000" font-family="sans-serif" font-size="14" lengthAdjust="spacing" textLength="121.6182" x="311.64" y="88.5889">boolean inTransit</text><text fill="#000000" font-family="sans-serif" font-size="14" lengthAdjust="spacing" textLength="125.8564" x="311.64" y="104.8857">boolean delivered</text><line style="stroke:#181818;stroke-width:0.5;" x1="306.64" x2="442.4964" y1="112.1875" y2="112.1875"/></g><!--class NamedLocation--><g class="entity" data-entity="NamedLocation" data-source-line="10" data-uid="ent0003" id="entity_NamedLocation"><rect fill="#F1F1F1" height="96.8906" rx="2.5" ry="2.5" style="stroke:#181818;stroke-width:0.5;" width="171.8789" x="599.63" y="15.15"/><ellipse cx="628.2337" cy="31.15" fill="#B4A7E5" rx="11" ry="11" style="stroke:#181818;stroke-width:1;"/><path d="M624.1556,26.9156 L624.1556,24.7594 L631.5462,24.7594 L631.5462,26.9156 L629.0775,26.9156 L629.0775,34.9937 L631.5462,34.9937 L631.5462,37.15 L624.1556,37.15 L624.1556,34.9937 L626.6243,34.9937 L626.6243,26.9156 L624.1556,26.9156 Z " fill="#000000"/><text fill="#000000" font-family="sans-serif" font-size="14" font-style="italic" lengthAdjust="spacing" textLength="109.6484" x="645.2568" y="35.9967">NamedLocation</text><line style="stroke:#181818;stroke-width:0.5;" x1="600.63" x2="770.5089" y1="47.15" y2="47.15"/><line style="stroke:#181818;stroke-width:0.5;" x1="600.63" x2="770.5089" y1="55.15" y2="55.15"/><text fill="#000000" font-family="sans-serif" font-size="14" lengthAdjust="spacing" textLength="119.8477" x="605.63" y="72.1451">String getname()</text><text fill="#000000" font-family="sans-serif" font-size="14" lengthAdjust="spacing" textLength="159.8789" x="605.63" y="88.442">String getDescription()</text><text fill="#000000" font-family="sans-serif" font-size="14" lengthAdjust="spacing" textLength="150.876" x="605.63" y="104.7389">Point2d getLocation()</text></g><!--class Order--><g class="entity" data-entity="Order" data-source-line="16" data-uid="ent0004" id="entity_Order"><rect fill="#F1F1F1" height="48" rx="2.5" ry="2.5" style="stroke:#181818;stroke-width:0.5;" width="72.0313" x="338.55" y="213.48"/><ellipse cx="353.55" cy="229.48" fill="#B4A7E5" rx="11" ry="11" style="stroke:#181818;stroke-width:1;"/><path d="M349.4719,225.2456 L349.4719,223.0894 L356.8625,223.0894 L356.8625,225.2456 L354.3938,225.2456 L354.3938,233.3237 L356.8625,233.3237 L356.8625,235.48 L349.4719,235.48 L349.4719,233.3237 L351.9406,233.3237 L351.9406,225.2456 L349.4719,225.2456 Z " fill="#000000"/><text fill="#000000" font-family="sans-serif" font-size="14" font-style="italic" lengthAdjust="spacing" textLength="40.0313" x="367.55" y="234.3267">Order</text><line style="stroke:#181818;stroke-width:0.5;" x1="339.55" x2="409.5813" y1="245.48" y2="245.48"/><line style="stroke:#181818;stroke-width:0.5;" x1="339.55" x2="409.5813" y1="253.48" y2="253.48"/></g><!--class ProductContent--><g class="entity" data-entity="ProductContent" data-source-line="19" data-uid="ent0005" id="entity_ProductContent"><rect fill="#F1F1F1" height="80.5938" rx="2.5" ry="2.5" style="stroke:#181818;stroke-width:0.5;" width="157.7832" x="480.67" y="197.19"/><ellipse cx="503.0475" cy="213.19" fill="#B4A7E5" rx="11" ry="11" style="stroke:#181818;stroke-width:1;"/><path d="M498.9694,208.9556 L498.9694,206.7994 L506.36,206.7994 L506.36,208.9556 L503.8913,208.9556 L503.8913,217.0337 L506.36,217.0337 L506.36,219.19 L498.9694,219.19 L498.9694,217.0337 L501.4382,217.0337 L501.4382,208.9556 L498.9694,208.9556 Z " fill="#000000"/><text fill="#000000" font-family="sans-serif" font-size="14" font-style="italic" lengthAdjust="spacing" textLength="109.3887" x="518.687" y="218.0367">ProductContent</text><line style="stroke:#181818;stroke-width:0.5;" x1="481.67" x2="637.4532" y1="229.19" y2="229.19"/><line style="stroke:#181818;stroke-width:0.5;" x1="481.67" x2="637.4532" y1="237.19" y2="237.19"/><text fill="#000000" font-family="sans-serif" font-size="14" lengthAdjust="spacing" textLength="145.7832" x="486.67" y="254.1851">Product getProduct()</text><text fill="#000000" font-family="sans-serif" font-size="14" lengthAdjust="spacing" textLength="141.0938" x="486.67" y="270.482">double getAmount()</text></g><!--class Content--><g class="entity" data-entity="Content" data-source-line="24" data-uid="ent0006" id="entity_Content"><rect fill="#F1F1F1" height="48" rx="2.5" ry="2.5" style="stroke:#181818;stroke-width:0.5;" width="87.6787" x="708.73" y="213.48"/><ellipse cx="723.73" cy="229.48" fill="#B4A7E5" rx="11" ry="11" style="stroke:#181818;stroke-width:1;"/><path d="M719.6519,225.2456 L719.6519,223.0894 L727.0425,223.0894 L727.0425,225.2456 L724.5738,225.2456 L724.5738,233.3237 L727.0425,233.3237 L727.0425,235.48 L719.6519,235.48 L719.6519,233.3237 L722.1206,233.3237 L722.1206,225.2456 L719.6519,225.2456 Z " fill="#000000"/><text fill="#000000" font-family="sans-serif" font-size="14" font-style="italic" lengthAdjust="spacing" textLength="55.6787" x="737.73" y="234.3267">Content</text><line style="stroke:#181818;stroke-width:0.5;" x1="709.73" x2="795.4087" y1="245.48" y2="245.48"/><line style="stroke:#181818;stroke-width:0.5;" x1="709.73" x2="795.4087" y1="253.48" y2="253.48"/></g><!--class WarehousingActor--><g class="entity" data-entity="WarehousingActor" data-source-line="27" data-uid="ent0007" id="entity_WarehousingActor"><rect fill="#F1F1F1" height="48" rx="2.5" ry="2.5" style="stroke:#181818;stroke-width:0.5;" width="161.1309" x="7" y="39.59"/><ellipse cx="22" cy="55.59" fill="#ADD1B2" rx="11" ry="11" style="stroke:#181818;stroke-width:1;"/><path d="M24.9688,61.2306 Q24.3906,61.5275 23.75,61.6681 Q23.1094,61.8244 22.4063,61.8244 Q19.9063,61.8244 18.5781,60.1837 Q17.2656,58.5275 17.2656,55.4025 Q17.2656,52.2775 18.5781,50.6212 Q19.9063,48.965 22.4063,48.965 Q23.1094,48.965 23.75,49.1212 Q24.4063,49.2775 24.9688,49.5744 L24.9688,52.2931 Q24.3438,51.715 23.75,51.4494 Q23.1563,51.1681 22.5313,51.1681 Q21.1875,51.1681 20.5,52.2462 Q19.8125,53.3087 19.8125,55.4025 Q19.8125,57.4962 20.5,58.5744 Q21.1875,59.6369 22.5313,59.6369 Q23.1563,59.6369 23.75,59.3712 Q24.3438,59.09 24.9688,58.5119 L24.9688,61.2306 Z " fill="#000000"/><text fill="#000000" font-family="sans-serif" font-size="14" lengthAdjust="spacing" textLength="129.1309" x="36" y="60.4367">WarehousingActor</text><line style="stroke:#181818;stroke-width:0.5;" x1="8" x2="167.1309" y1="71.59" y2="71.59"/><line style="stroke:#181818;stroke-width:0.5;" x1="8" x2="167.1309" y1="79.59" y2="79.59"/></g><!--class Actor--><g class="entity" data-entity="Actor" data-source-line="35" data-uid="ent0015" id="entity_Actor"><rect fill="#F1F1F1" height="48" rx="2.5" ry="2.5" style="stroke:#181818;stroke-width:0.5;" width="69.085" x="53.02" y="213.48"/><ellipse cx="68.02" cy="229.48" fill="#ADD1B2" rx="11" ry="11" style="stroke:#181818;stroke-width:1;"/><path d="M70.9888,235.1206 Q70.4106,235.4175 69.77,235.5581 Q69.1294,235.7144 68.4263,235.7144 Q65.9263,235.7144 64.5981,234.0737 Q63.2856,232.4175 63.2856,229.2925 Q63.2856,226.1675 64.5981,224.5112 Q65.9263,222.855 68.4263,222.855 Q69.1294,222.855 69.77,223.0112 Q70.4263,223.1675 70.9888,223.4644 L70.9888,226.1831 Q70.3638,225.605 69.77,225.3394 Q69.1763,225.0581 68.5513,225.0581 Q67.2075,225.0581 66.52,226.1362 Q65.8325,227.1987 65.8325,229.2925 Q65.8325,231.3862 66.52,232.4644 Q67.2075,233.5269 68.5513,233.5269 Q69.1763,233.5269 69.77,233.2612 Q70.3638,232.98 70.9888,232.4019 L70.9888,235.1206 Z " fill="#000000"/><text fill="#000000" font-family="sans-serif" font-size="14" lengthAdjust="spacing" textLength="37.085" x="82.02" y="234.3267">Actor</text><line style="stroke:#181818;stroke-width:0.5;" x1="54.02" x2="121.105" y1="245.48" y2="245.48"/><line style="stroke:#181818;stroke-width:0.5;" x1="54.02" x2="121.105" y1="253.48" y2="253.48"/></g><!--class Product--><g class="entity" data-entity="Product" data-source-line="38" data-uid="ent0019" id="entity_Product"><rect fill="#F1F1F1" height="48" rx="2.5" ry="2.5" style="stroke:#181818;stroke-width:0.5;" width="85.71" x="516.71" y="338.78"/><ellipse cx="531.71" cy="354.78" fill="#ADD1B2" rx="11" ry="11" style="stroke:#181818;stroke-width:1;"/><path d="M534.6788,360.4206 Q534.1006,360.7175 533.46,360.8581 Q532.8194,361.0144 532.1163,361.0144 Q529.6163,361.0144 528.2881,359.3738 Q526.9756,357.7175 526.9756,354.5925 Q526.9756,351.4675 528.2881,349.8113 Q529.6163,348.155 532.1163,348.155 Q532.8194,348.155 533.46,348.3113 Q534.1163,348.4675 534.6788,348.7644 L534.6788,351.4831 Q534.0538,350.905 533.46,350.6394 Q532.8663,350.3581 532.2413,350.3581 Q530.8975,350.3581 530.21,351.4363 Q529.5225,352.4988 529.5225,354.5925 Q529.5225,356.6863 530.21,357.7644 Q530.8975,358.8269 532.2413,358.8269 Q532.8663,358.8269 533.46,358.5613 Q534.0538,358.28 534.6788,357.7019 L534.6788,360.4206 Z " fill="#000000"/><text fill="#000000" font-family="sans-serif" font-size="14" lengthAdjust="spacing" textLength="53.71" x="545.71" y="359.6267">Product</text><line style="stroke:#181818;stroke-width:0.5;" x1="517.71" x2="601.42" y1="370.78" y2="370.78"/><line style="stroke:#181818;stroke-width:0.5;" x1="517.71" x2="601.42" y1="378.78" y2="378.78"/></g><!--link WarehousingActor to Shipment--><g class="link" data-entity-1="WarehousingActor" data-entity-2="Shipment" data-source-line="27" data-uid="lnk9" id="link_WarehousingActor_Shipment"><path codeLine="27" d="M168.5,79.63 C199.14,83.87 234.34,86.53 266.38,83.59 C279.03,82.43 292.41,80.53 305.28,78.34" fill="none" id="WarehousingActor-Shipment" style="stroke:#181818;stroke-width:1;"/><polygon fill="#000000" points="207.3802,75.2036,216.4526,78.0571,216.3972,72.1795,207.3802,75.2036" style="stroke:#000000;stroke-width:1;"/><text fill="#000000" font-family="sans-serif" font-size="13" lengthAdjust="spacing" textLength="44.605" x="221.38" y="79.6569">sender</text></g><!--link WarehousingActor to Shipment--><g class="link" data-entity-1="WarehousingActor" data-entity-2="Shipment" data-source-line="28" data-uid="lnk11" id="link_WarehousingActor_Shipment"><path codeLine="28" d="M168.27,63.59 C211.38,63.59 263.9,63.59 305.17,63.59" fill="none" id="WarehousingActor-Shipment-1" style="stroke:#181818;stroke-width:1;"/><polygon fill="#000000" points="202.88,52.1564,211.9251,55.0953,211.9251,49.2175,202.88,52.1564" style="stroke:#000000;stroke-width:1;"/><text fill="#000000" font-family="sans-serif" font-size="13" lengthAdjust="spacing" textLength="53.1362" x="216.88" y="56.6569">receiver</text></g><!--link Shipment to NamedLocation--><g class="link" data-entity-1="Shipment" data-entity-2="NamedLocation" data-source-line="30" data-uid="lnk12" id="link_Shipment_NamedLocation"><path codeLine="30" d="M443.74,77.03 C460.63,79.75 478.69,82.21 495.56,83.59 C529.61,86.39 567.02,83.7 599.57,79.48" fill="none" id="Shipment-NamedLocation" style="stroke:#181818;stroke-width:1;"/><polygon fill="#000000" points="505.5594,75.235,496.5616,72.1543,496.4692,78.0314,505.5594,75.235" style="stroke:#000000;stroke-width:1;"/><text fill="#000000" font-family="sans-serif" font-size="13" lengthAdjust="spacing" textLength="37.0132" x="509.56" y="79.6569">origin</text></g><!--link Shipment to NamedLocation--><g class="link" data-entity-1="Shipment" data-entity-2="NamedLocation" data-source-line="31" data-uid="lnk13" id="link_Shipment_NamedLocation"><path codeLine="31" d="M443.97,63.59 C489.8,63.59 550.2,63.59 599.14,63.59" fill="none" id="Shipment-NamedLocation-1" style="stroke:#181818;stroke-width:1;"/><polygon fill="#000000" points="488.06,52.1564,479.0149,49.2175,479.0149,55.0953,488.06,52.1564" style="stroke:#000000;stroke-width:1;"/><text fill="#000000" font-family="sans-serif" font-size="13" lengthAdjust="spacing" textLength="72.8394" x="492.06" y="56.6569">destination</text></g><!--link Shipment to Order--><g class="link" data-entity-1="Shipment" data-entity-2="Order" data-source-line="33" data-uid="lnk14" id="link_Shipment_Order"><path codeLine="33" d="M374.57,120.4 C374.57,151.77 374.57,189.27 374.57,212.99" fill="none" id="Shipment-Order" style="stroke:#181818;stroke-width:1;"/><polygon fill="#000000" points="379.57,163.7564,382.5089,154.7113,376.6311,154.7113,379.57,163.7564" style="stroke:#000000;stroke-width:1;"/><text fill="#000000" font-family="sans-serif" font-size="13" lengthAdjust="spacing" textLength="68.2627" x="388.57" y="163.2569">belongs to</text></g><!--link WarehousingActor to Actor--><g class="link" data-entity-1="WarehousingActor" data-entity-2="Actor" data-source-line="35" data-uid="lnk16" id="link_WarehousingActor_Actor"><path codeLine="35" d="M87.57,87.77 C87.57,120.58 87.57,162.21 87.57,195.12" fill="none" id="WarehousingActor-to-Actor" style="stroke:#181818;stroke-width:1;"/><polygon fill="none" points="87.57,213.12,93.57,195.12,81.57,195.12,87.57,213.12" style="stroke:#181818;stroke-width:1;"/></g><!--link Order to ProductContent--><g class="link" data-entity-1="Order" data-entity-2="ProductContent" data-source-line="36" data-uid="lnk17" id="link_Order_ProductContent"><path codeLine="36" d="M411.06,237.48 C434.17,237.48 439.27,237.48 462.38,237.48" fill="none" id="Order-to-ProductContent" style="stroke:#181818;stroke-width:1;"/><polygon fill="none" points="480.38,237.48,462.38,231.48,462.38,243.48,480.38,237.48" style="stroke:#181818;stroke-width:1;"/></g><!--link ProductContent to Content--><g class="link" data-entity-1="ProductContent" data-entity-2="Content" data-source-line="37" data-uid="lnk18" id="link_ProductContent_Content"><path codeLine="37" d="M638.73,237.48 C662,237.48 667.27,237.48 690.54,237.48" fill="none" id="ProductContent-to-Content" style="stroke:#181818;stroke-width:1;"/><polygon fill="none" points="708.54,237.48,690.54,231.48,690.54,243.48,708.54,237.48" style="stroke:#181818;stroke-width:1;"/></g><!--link ProductContent to Product--><g class="link" data-entity-1="ProductContent" data-entity-2="Product" data-source-line="38" data-uid="lnk20" id="link_ProductContent_Product"><path codeLine="38" d="M559.57,278.17 C559.57,298.03 559.57,321.37 559.57,338.34" fill="none" id="ProductContent-Product" style="stroke:#181818;stroke-width:1;"/></g><!--SRC=[ZP5FImGn3CNl_HGvwc50l0WU5XOz-cTX5pntspW6EycGTXP4_UwciwFkh8ZUqbzUNzBN_4pSU_KTi4JCsCF5cNCX-PnX_KHzXrpWrG5ig4C8YhvWBOtS2kCBx7mQwcahaj0p46_KSwPom28csg5YTE_E4HVKHnyGxdo7yKQ2BoGy3baN9MwXnSBMEpcTeMlCGQcluh6p4hCwZxNrQM9yDk5U8wevp-1A9GwXN8cHwN4JgbPJEKw8CcmJLhhiPE1oRFzjOVWhhIOryE0LdsJ8jleo556uX0LaP5ld7qB5W3MmGrDjZlAgGb5gYVzIsRyMul5yw1YRAP-gsM8IRZCKSUx7JYPzMy1Ok_qL6sHadgGx2dQl-QrfqoVq0G00]--></g></svg>