<svg xmlns="http://www.w3.org/2000/svg" xmlns:xlink="http://www.w3.org/1999/xlink" contentStyleType="text/css" data-diagram-type="CLASS" height="665px" preserveAspectRatio="none" style="width:1035px;height:665px;background:#FFFFFF;" version="1.1" viewBox="0 0 1035 665" width="1035px" zoomAndPan="magnify"><defs/><g><!--class NamedLocation--><g class="entity" data-entity="NamedLocation" data-source-line="4" data-uid="ent0002" id="entity_NamedLocation"><rect fill="#F1F1F1" height="96.8906" rx="2.5" ry="2.5" style="stroke:#181818;stroke-width:0.5;" width="171.8789" x="7" y="273.3"/><ellipse cx="35.6037" cy="289.3" fill="#B4A7E5" rx="11" ry="11" style="stroke:#181818;stroke-width:1;"/><path d="M31.5256,285.0656 L31.5256,282.9094 L38.9162,282.9094 L38.9162,285.0656 L36.4475,285.0656 L36.4475,293.1437 L38.9162,293.1437 L38.9162,295.3 L31.5256,295.3 L31.5256,293.1437 L33.9943,293.1437 L33.9943,285.0656 L31.5256,285.0656 Z " fill="#000000"/><text fill="#000000" font-family="sans-serif" font-size="14" font-style="italic" lengthAdjust="spacing" textLength="109.6484" x="52.6268" y="294.1467">NamedLocation</text><line style="stroke:#181818;stroke-width:0.5;" x1="8" x2="177.8789" y1="305.3" y2="305.3"/><line style="stroke:#181818;stroke-width:0.5;" x1="8" x2="177.8789" y1="313.3" y2="313.3"/><text fill="#000000" font-family="sans-serif" font-size="14" lengthAdjust="spacing" textLength="119.8477" x="13" y="330.2951">String getname()</text><text fill="#000000" font-family="sans-serif" font-size="14" lengthAdjust="spacing" textLength="159.8789" x="13" y="346.592">String getDescription()</text><text fill="#000000" font-family="sans-serif" font-size="14" lengthAdjust="spacing" textLength="150.876" x="13" y="362.8889">Point2d getLocation()</text></g><!--class StochasticTransportOption--><g class="entity" data-entity="StochasticTransportOption" data-source-line="10" data-uid="ent0003" id="entity_StochasticTransportOption"><rect fill="#F1F1F1" height="48" rx="2.5" ry="2.5" style="stroke:#181818;stroke-width:0.5;" width="218.9355" x="490.47" y="132"/><ellipse cx="505.47" cy="148" fill="#ADD1B2" rx="11" ry="11" style="stroke:#181818;stroke-width:1;"/><path d="M508.4388,153.6406 Q507.8606,153.9375 507.22,154.0781 Q506.5794,154.2344 505.8763,154.2344 Q503.3763,154.2344 502.0481,152.5938 Q500.7356,150.9375 500.7356,147.8125 Q500.7356,144.6875 502.0481,143.0313 Q503.3763,141.375 505.8763,141.375 Q506.5794,141.375 507.22,141.5313 Q507.8763,141.6875 508.4388,141.9844 L508.4388,144.7031 Q507.8138,144.125 507.22,143.8594 Q506.6263,143.5781 506.0013,143.5781 Q504.6575,143.5781 503.97,144.6563 Q503.2825,145.7188 503.2825,147.8125 Q503.2825,149.9063 503.97,150.9844 Q504.6575,152.0469 506.0013,152.0469 Q506.6263,152.0469 507.22,151.7813 Q507.8138,151.5 508.4388,150.9219 L508.4388,153.6406 Z " fill="#000000"/><text fill="#000000" font-family="sans-serif" font-size="14" lengthAdjust="spacing" textLength="186.9355" x="519.47" y="152.8467">StochasticTransportOption</text><line style="stroke:#181818;stroke-width:0.5;" x1="491.47" x2="708.4055" y1="164" y2="164"/><line style="stroke:#181818;stroke-width:0.5;" x1="491.47" x2="708.4055" y1="172" y2="172"/></g><!--class StochasticTransportOptionStep--><g class="entity" data-entity="StochasticTransportOptionStep" data-source-line="13" data-uid="ent0004" id="entity_StochasticTransportOptionStep"><rect fill="#F1F1F1" height="129.4844" rx="2.5" ry="2.5" style="stroke:#181818;stroke-width:0.5;" width="423.8447" x="315.02" y="257"/><ellipse cx="413.2866" cy="273" fill="#ADD1B2" rx="11" ry="11" style="stroke:#181818;stroke-width:1;"/><path d="M416.2554,278.6406 Q415.6772,278.9375 415.0366,279.0781 Q414.396,279.2344 413.6929,279.2344 Q411.1929,279.2344 409.8647,277.5937 Q408.5522,275.9375 408.5522,272.8125 Q408.5522,269.6875 409.8647,268.0312 Q411.1929,266.375 413.6929,266.375 Q414.396,266.375 415.0366,266.5312 Q415.6929,266.6875 416.2554,266.9844 L416.2554,269.7031 Q415.6304,269.125 415.0366,268.8594 Q414.4429,268.5781 413.8179,268.5781 Q412.4741,268.5781 411.7866,269.6562 Q411.0991,270.7187 411.0991,272.8125 Q411.0991,274.9062 411.7866,275.9844 Q412.4741,277.0469 413.8179,277.0469 Q414.4429,277.0469 415.0366,276.7812 Q415.6304,276.5 416.2554,275.9219 L416.2554,278.6406 Z " fill="#000000"/><text fill="#000000" font-family="sans-serif" font-size="14" lengthAdjust="spacing" textLength="218.8115" x="433.7866" y="277.8467">StochasticTransportOptionStep</text><line style="stroke:#181818;stroke-width:0.5;" x1="316.02" x2="737.8647" y1="289" y2="289"/><text fill="#000000" font-family="sans-serif" font-size="14" lengthAdjust="spacing" textLength="371.9023" x="321.02" y="305.9951">Map&lt;Sku, Dist&lt;Duration&gt;&gt; estimatedLoadingTimes</text><text fill="#000000" font-family="sans-serif" font-size="14" lengthAdjust="spacing" textLength="387.1123" x="321.02" y="322.292">Map&lt;Sku, Dist&lt;Duration&gt;&gt; estimatedUnloadingTimes</text><text fill="#000000" font-family="sans-serif" font-size="14" lengthAdjust="spacing" textLength="353.9443" x="321.02" y="338.5889">Map&lt;Sku, Dist&lt;Money&gt;&gt; estimatedLoadingCosts</text><text fill="#000000" font-family="sans-serif" font-size="14" lengthAdjust="spacing" textLength="369.1543" x="321.02" y="354.8857">Map&lt;Sku, Dist&lt;Money&gt;&gt; estimatedUnloadingCosts</text><text fill="#000000" font-family="sans-serif" font-size="14" lengthAdjust="spacing" textLength="411.8447" x="321.02" y="371.1826">Map&lt;Sku, Dist&lt;Money&gt;&gt; estimatedTransportCostsPerKm</text><line style="stroke:#181818;stroke-width:0.5;" x1="316.02" x2="737.8647" y1="378.4844" y2="378.4844"/></g><!--class WarehousingActor--><g class="entity" data-entity="WarehousingActor" data-source-line="21" data-uid="ent0005" id="entity_WarehousingActor"><rect fill="#F1F1F1" height="48" rx="2.5" ry="2.5" style="stroke:#181818;stroke-width:0.5;" width="161.1309" x="519.37" y="7"/><ellipse cx="534.37" cy="23" fill="#ADD1B2" rx="11" ry="11" style="stroke:#181818;stroke-width:1;"/><path d="M537.3388,28.6406 Q536.7606,28.9375 536.12,29.0781 Q535.4794,29.2344 534.7763,29.2344 Q532.2763,29.2344 530.9481,27.5938 Q529.6356,25.9375 529.6356,22.8125 Q529.6356,19.6875 530.9481,18.0313 Q532.2763,16.375 534.7763,16.375 Q535.4794,16.375 536.12,16.5313 Q536.7763,16.6875 537.3388,16.9844 L537.3388,19.7031 Q536.7138,19.125 536.12,18.8594 Q535.5263,18.5781 534.9013,18.5781 Q533.5575,18.5781 532.87,19.6563 Q532.1825,20.7188 532.1825,22.8125 Q532.1825,24.9063 532.87,25.9844 Q533.5575,27.0469 534.9013,27.0469 Q535.5263,27.0469 536.12,26.7813 Q536.7138,26.5 537.3388,25.9219 L537.3388,28.6406 Z " fill="#000000"/><text fill="#000000" font-family="sans-serif" font-size="14" lengthAdjust="spacing" textLength="129.1309" x="548.37" y="27.8467">WarehousingActor</text><line style="stroke:#181818;stroke-width:0.5;" x1="520.37" x2="679.5009" y1="39" y2="39"/><line style="stroke:#181818;stroke-width:0.5;" x1="520.37" x2="679.5009" y1="47" y2="47"/></g><!--class TransportingActor--><g class="entity" data-entity="TransportingActor" data-source-line="24" data-uid="ent0006" id="entity_TransportingActor"><rect fill="#F1F1F1" height="48" rx="2.5" ry="2.5" style="stroke:#181818;stroke-width:0.5;" width="158.4854" x="859.7" y="132"/><ellipse cx="874.7" cy="148" fill="#ADD1B2" rx="11" ry="11" style="stroke:#181818;stroke-width:1;"/><path d="M877.6688,153.6406 Q877.0906,153.9375 876.45,154.0781 Q875.8094,154.2344 875.1063,154.2344 Q872.6063,154.2344 871.2781,152.5938 Q869.9656,150.9375 869.9656,147.8125 Q869.9656,144.6875 871.2781,143.0313 Q872.6063,141.375 875.1063,141.375 Q875.8094,141.375 876.45,141.5313 Q877.1063,141.6875 877.6688,141.9844 L877.6688,144.7031 Q877.0438,144.125 876.45,143.8594 Q875.8563,143.5781 875.2313,143.5781 Q873.8875,143.5781 873.2,144.6563 Q872.5125,145.7188 872.5125,147.8125 Q872.5125,149.9063 873.2,150.9844 Q873.8875,152.0469 875.2313,152.0469 Q875.8563,152.0469 876.45,151.7813 Q877.0438,151.5 877.6688,150.9219 L877.6688,153.6406 Z " fill="#000000"/><text fill="#000000" font-family="sans-serif" font-size="14" lengthAdjust="spacing" textLength="126.4854" x="888.7" y="152.8467">TransportingActor</text><line style="stroke:#181818;stroke-width:0.5;" x1="860.7" x2="1017.1854" y1="164" y2="164"/><line style="stroke:#181818;stroke-width:0.5;" x1="860.7" x2="1017.1854" y1="172" y2="172"/></g><!--class TransportingRole--><g class="entity" data-entity="TransportingRole" data-source-line="27" data-uid="ent0007" id="entity_TransportingRole"><rect fill="#F1F1F1" height="48" rx="2.5" ry="2.5" style="stroke:#181818;stroke-width:0.5;" width="152.1963" x="875.84" y="297.75"/><ellipse cx="890.84" cy="313.75" fill="#ADD1B2" rx="11" ry="11" style="stroke:#181818;stroke-width:1;"/><path d="M893.8088,319.3906 Q893.2306,319.6875 892.59,319.8281 Q891.9494,319.9844 891.2463,319.9844 Q888.7463,319.9844 887.4181,318.3437 Q886.1056,316.6875 886.1056,313.5625 Q886.1056,310.4375 887.4181,308.7812 Q888.7463,307.125 891.2463,307.125 Q891.9494,307.125 892.59,307.2812 Q893.2463,307.4375 893.8088,307.7344 L893.8088,310.4531 Q893.1838,309.875 892.59,309.6094 Q891.9963,309.3281 891.3713,309.3281 Q890.0275,309.3281 889.34,310.4062 Q888.6525,311.4687 888.6525,313.5625 Q888.6525,315.6562 889.34,316.7344 Q890.0275,317.7969 891.3713,317.7969 Q891.9963,317.7969 892.59,317.5312 Q893.1838,317.25 893.8088,316.6719 L893.8088,319.3906 Z " fill="#000000"/><text fill="#000000" font-family="sans-serif" font-size="14" lengthAdjust="spacing" textLength="120.1963" x="904.84" y="318.5967">TransportingRole</text><line style="stroke:#181818;stroke-width:0.5;" x1="876.84" x2="1027.0363" y1="329.75" y2="329.75"/><line style="stroke:#181818;stroke-width:0.5;" x1="876.84" x2="1027.0363" y1="337.75" y2="337.75"/></g><!--class TransportMode--><g class="entity" data-entity="TransportMode" data-source-line="30" data-uid="ent0008" id="entity_TransportMode"><rect fill="#F1F1F1" height="194.6719" rx="2.5" ry="2.5" style="stroke:#181818;stroke-width:0.5;" width="200.1045" x="426.89" y="463.49"/><ellipse cx="469.884" cy="479.49" fill="#ADD1B2" rx="11" ry="11" style="stroke:#181818;stroke-width:1;"/><path d="M472.8528,485.1306 Q472.2747,485.4275 471.634,485.5681 Q470.9934,485.7244 470.2903,485.7244 Q467.7903,485.7244 466.4622,484.0838 Q465.1497,482.4275 465.1497,479.3025 Q465.1497,476.1775 466.4622,474.5213 Q467.7903,472.865 470.2903,472.865 Q470.9934,472.865 471.634,473.0213 Q472.2903,473.1775 472.8528,473.4744 L472.8528,476.1931 Q472.2278,475.615 471.634,475.3494 Q471.0403,475.0681 470.4153,475.0681 Q469.0715,475.0681 468.384,476.1463 Q467.6965,477.2088 467.6965,479.3025 Q467.6965,481.3963 468.384,482.4744 Q469.0715,483.5369 470.4153,483.5369 Q471.0403,483.5369 471.634,483.2713 Q472.2278,482.99 472.8528,482.4119 L472.8528,485.1306 Z " fill="#000000"/><text fill="#000000" font-family="sans-serif" font-size="14" lengthAdjust="spacing" textLength="105.8955" x="490.1049" y="484.3367">TransportMode</text><line style="stroke:#181818;stroke-width:0.5;" x1="427.89" x2="625.9945" y1="495.49" y2="495.49"/><text fill="#000000" font-family="sans-serif" font-size="14" lengthAdjust="spacing" textLength="117.9746" x="432.89" y="512.4851">Speed avgSpeed</text><text fill="#000000" font-family="sans-serif" font-size="14" lengthAdjust="spacing" textLength="188.1045" x="432.89" y="528.782">Duration avgHandlingTime</text><text fill="#000000" font-family="sans-serif" font-size="14" lengthAdjust="spacing" textLength="139.2549" x="432.89" y="545.0789">boolean continental</text><text fill="#000000" font-family="sans-serif" font-size="14" lengthAdjust="spacing" textLength="171.876" x="432.89" y="561.3757">boolean intercontinental</text><line style="stroke:#181818;stroke-width:0.5;" x1="427.89" x2="625.9945" y1="568.6775" y2="568.6775"/><text fill="#000000" font-family="sans-serif" font-size="14" lengthAdjust="spacing" text-decoration="underline" textLength="178.917" x="432.89" y="585.6726">TransportMode AIRPLANE</text><text fill="#000000" font-family="sans-serif" font-size="14" lengthAdjust="spacing" text-decoration="underline" textLength="157.8281" x="432.89" y="601.9695">TransportMode TRUCK</text><text fill="#000000" font-family="sans-serif" font-size="14" lengthAdjust="spacing" text-decoration="underline" textLength="142.3311" x="432.89" y="618.2664">TransportMode SHIP</text><text fill="#000000" font-family="sans-serif" font-size="14" lengthAdjust="spacing" text-decoration="underline" textLength="141.5791" x="432.89" y="634.5632">TransportMode RAIL</text><text fill="#000000" font-family="sans-serif" font-size="14" lengthAdjust="spacing" text-decoration="underline" textLength="158.9492" x="432.89" y="650.8601">TransportMode BARGE</text></g><!--link WarehousingActor to StochasticTransportOption--><g class="link" data-entity-1="WarehousingActor" data-entity-2="StochasticTransportOption" data-source-line="43" data-uid="lnk10" id="link_WarehousingActor_StochasticTransportOption"><path codeLine="43" d="M558.48,55.22 C541.98,67.72 528.66,84.22 536.94,102 C542.37,113.67 551.77,123.68 561.67,131.76" fill="none" id="WarehousingActor-StochasticTransportOption" style="stroke:#181818;stroke-width:1;"/><polygon fill="#000000" points="541.7318,88.5707,539.1721,97.7304,545.0448,97.4856,541.7318,88.5707" style="stroke:#000000;stroke-width:1;"/><text fill="#000000" font-family="sans-serif" font-size="13" lengthAdjust="spacing" textLength="43.0308" x="550.94" y="98.0669">pickup</text></g><!--link WarehousingActor to StochasticTransportOption--><g class="link" data-entity-1="WarehousingActor" data-entity-2="StochasticTransportOption" data-source-line="44" data-uid="lnk12" id="link_WarehousingActor_StochasticTransportOption"><path codeLine="44" d="M601.55,55.47 C602.11,64.68 602.67,75.33 602.94,85 C603.38,100.57 602.63,118.07 601.77,131.68" fill="none" id="WarehousingActor-StochasticTransportOption-1" style="stroke:#181818;stroke-width:1;"/><polygon fill="#000000" points="608.9256,88.5664,606.0128,97.62,611.8906,97.603,608.9256,88.5664" style="stroke:#000000;stroke-width:1;"/><text fill="#000000" font-family="sans-serif" font-size="13" lengthAdjust="spacing" textLength="52.2031" x="617.94" y="98.0669">delivery</text></g><!--link StochasticTransportOption to TransportingActor--><g class="link" data-entity-1="StochasticTransportOption" data-entity-2="TransportingActor" data-source-line="45" data-uid="lnk13" id="link_StochasticTransportOption_TransportingActor"><path codeLine="45" d="M709.53,156 C758.28,156 814.62,156 859.26,156" fill="none" id="StochasticTransportOption-TransportingActor" style="stroke:#181818;stroke-width:1;"/><polygon fill="#000000" points="750.05,144.5664,741.0049,141.6275,741.0049,147.5053,750.05,144.5664" style="stroke:#000000;stroke-width:1;"/><text fill="#000000" font-family="sans-serif" font-size="13" lengthAdjust="spacing" textLength="74.8071" x="754.05" y="149.0669">responsible</text></g><!--reverse link StochasticTransportOption to StochasticTransportOptionStep--><g class="link" data-entity-1="StochasticTransportOption" data-entity-2="StochasticTransportOptionStep" data-source-line="46" data-uid="lnk14" id="link_StochasticTransportOption_StochasticTransportOptionStep"><path codeLine="46" d="M584.5946,191.4205 C575.7246,211.3205 567.46,229.86 555.5,256.68" fill="none" id="StochasticTransportOption-backto-StochasticTransportOptionStep" style="stroke:#181818;stroke-width:1;"/><polygon fill="#181818" points="589.48,180.46,583.3838,184.3118,584.5946,191.4205,590.6908,187.5687,589.48,180.46" style="stroke:#181818;stroke-width:1;"/><polygon fill="#000000" points="577.904,223.1331,584.2714,216.0686,578.9029,213.6751,577.904,223.1331" style="stroke:#000000;stroke-width:1;"/><text fill="#000000" font-family="sans-serif" font-size="13" lengthAdjust="spacing" textLength="69.0308" x="588.94" y="223.0669">consists of</text></g><!--link NamedLocation to StochasticTransportOptionStep--><g class="link" data-entity-1="NamedLocation" data-entity-2="StochasticTransportOptionStep" data-source-line="47" data-uid="lnk16" id="link_NamedLocation_StochasticTransportOptionStep"><path codeLine="47" d="M179.14,337.08 C193.08,339.02 207.38,340.69 220.95,341.75 C251.2,344.1 283.15,344.41 314.55,343.47" fill="none" id="NamedLocation-StochasticTransportOptionStep" style="stroke:#181818;stroke-width:1;"/><polygon fill="#000000" points="220.9556,333.0807,229.8521,336.4427,230.1291,330.5714,220.9556,333.0807" style="stroke:#000000;stroke-width:1;"/><text fill="#000000" font-family="sans-serif" font-size="13" lengthAdjust="spacing" textLength="37.0132" x="234.95" y="337.8169">origin</text></g><!--link NamedLocation to StochasticTransportOptionStep--><g class="link" data-entity-1="NamedLocation" data-entity-2="StochasticTransportOptionStep" data-source-line="48" data-uid="lnk18" id="link_NamedLocation_StochasticTransportOptionStep"><path codeLine="48" d="M179.2,321.75 C218.38,321.75 266.63,321.75 314.58,321.75" fill="none" id="NamedLocation-StochasticTransportOptionStep-1" style="stroke:#181818;stroke-width:1;"/><polygon fill="#000000" points="203.45,310.3164,212.4951,313.2553,212.4951,307.3775,203.45,310.3164" style="stroke:#000000;stroke-width:1;"/><text fill="#000000" font-family="sans-serif" font-size="13" lengthAdjust="spacing" textLength="72.8394" x="217.45" y="314.8169">destination</text></g><!--link StochasticTransportOptionStep to TransportMode--><g class="link" data-entity-1="StochasticTransportOptionStep" data-entity-2="TransportMode" data-source-line="49" data-uid="lnk19" id="link_StochasticTransportOptionStep_TransportMode"><path codeLine="49" d="M526.94,386.9 C526.94,410.35 526.94,437.43 526.94,463.09" fill="none" id="StochasticTransportOptionStep-TransportMode" style="stroke:#181818;stroke-width:1;"/><polygon fill="#000000" points="531.94,430.0564,534.8789,421.0113,529.0011,421.0113,531.94,430.0564" style="stroke:#000000;stroke-width:1;"/><text fill="#000000" font-family="sans-serif" font-size="13" lengthAdjust="spacing" textLength="29.7832" x="540.94" y="429.5569">uses</text></g><!--link StochasticTransportOptionStep to TransportingRole--><g class="link" data-entity-1="StochasticTransportOptionStep" data-entity-2="TransportingRole" data-source-line="50" data-uid="lnk20" id="link_StochasticTransportOptionStep_TransportingRole"><path codeLine="50" d="M739.13,321.75 C788.15,321.75 837.2,321.75 875.83,321.75" fill="none" id="StochasticTransportOptionStep-TransportingRole" style="stroke:#181818;stroke-width:1;"/><polygon fill="#000000" points="773.85,310.3164,764.8049,307.3775,764.8049,313.2553,773.85,310.3164" style="stroke:#000000;stroke-width:1;"/><text fill="#000000" font-family="sans-serif" font-size="13" lengthAdjust="spacing" textLength="72.395" x="777.85" y="314.8169">belongs  to</text></g><!--link TransportingActor to TransportingRole--><g class="link" data-entity-1="TransportingActor" data-entity-2="TransportingRole" data-source-line="51" data-uid="lnk21" id="link_TransportingActor_TransportingRole"><path codeLine="51" d="M940.8,180.46 C943.27,211.59 947.61,266.22 950.08,297.33" fill="none" id="TransportingActor-TransportingRole" style="stroke:#181818;stroke-width:1;"/><polygon fill="#000000" points="949.3358,223.5507,951.5495,214.3014,945.6901,214.7666,949.3358,223.5507" style="stroke:#000000;stroke-width:1;"/><text fill="#000000" font-family="sans-serif" font-size="13" lengthAdjust="spacing" textLength="22.9785" x="957.94" y="223.0669">has</text></g><!--SRC=[dLHDR-8m4BtdLyonNMsaLQLULXLI2gk2W2vAg3WYOm_1mh4jswbKLVtlEyws50eXg9SecJVlFS-7uxTIM-PO1Te8z6ZXzbVYTy62LTXNpFk55643QwOy9edK0TsQSOH7miN4S1QaqV2Q01J1ILr2YK4JTdLz41gWvqxQcDmWCqDIDo927o8KVqiI7Zs9QFY6-I3vt37jhN7Xhtrtwaug0bKJZpHbzgxOrZzX87su6zIkCUhr08bLiH0hO8AEE9SL-ei8JrgTeqoDnfSJ1dtZmmNPE_KBytU5D_apTEFgipyBvd1ZQazo6G_6xVTkH-m2SwFm93QbhVa_TuieW3sNpGi5FjeMOqEcXNhl5a4hGt9C0pUQn547flQYpNOTGilbafw7fjaedqsonp_mwWCPyRUZZ7d-r1-tmyLmD6j7ysmqQGNli_nXpvZQqhwgQPqUp-0tzC1AlgtjTvW2bNn6ztAEwz8JquraXnJJNguKdk7_I4NQSRMY68zAj7DWridvx5IbN_uMaM-SBAN-5bN4zTVDTmSVOYs70um2jQURsyNyqiRc7aJo2fNHfGS89ZdkSzh28gT_]--></g></svg>