<svg xmlns="http://www.w3.org/2000/svg" xmlns:xlink="http://www.w3.org/1999/xlink" contentStyleType="text/css" data-diagram-type="CLASS" height="665px" preserveAspectRatio="none" style="width:1557px;height:665px;background:#FFFFFF;" version="1.1" viewBox="0 0 1557 665" width="1557px" zoomAndPan="magnify"><defs/><g><!--class NamedLocation--><g class="entity" data-entity="NamedLocation" data-source-line="4" data-uid="ent0002" id="entity_NamedLocation"><rect fill="#F1F1F1" height="96.8906" rx="2.5" ry="2.5" style="stroke:#181818;stroke-width:0.5;" width="423.8447" x="7" y="273.3"/><ellipse cx="159.8481" cy="289.3" fill="#B4A7E5" rx="11" ry="11" style="stroke:#181818;stroke-width:1;"/><path d="M155.77,285.0656 L155.77,282.9094 L163.1606,282.9094 L163.1606,285.0656 L160.6919,285.0656 L160.6919,293.1437 L163.1606,293.1437 L163.1606,295.3 L155.77,295.3 L155.77,293.1437 L158.2388,293.1437 L158.2388,285.0656 L155.77,285.0656 Z " fill="#000000"/><text fill="#000000" font-family="sans-serif" font-size="14" font-style="italic" lengthAdjust="spacing" textLength="109.6484" x="180.3481" y="294.1467">NamedLocation</text><line style="stroke:#181818;stroke-width:0.5;" x1="8" x2="429.8447" y1="305.3" y2="305.3"/><line style="stroke:#181818;stroke-width:0.5;" x1="8" x2="429.8447" y1="313.3" y2="313.3"/><text fill="#000000" font-family="sans-serif" font-size="14" lengthAdjust="spacing" textLength="119.8477" x="13" y="330.2951">String getname()</text><text fill="#000000" font-family="sans-serif" font-size="14" lengthAdjust="spacing" textLength="159.8789" x="13" y="346.592">String getDescription()</text><text fill="#000000" font-family="sans-serif" font-size="14" lengthAdjust="spacing" textLength="150.876" x="13" y="362.8889">Point2d getLocation()</text></g><!--class StochasticTransportOption--><g class="entity" data-entity="StochasticTransportOption" data-source-line="10" data-uid="ent0003" id="entity_StochasticTransportOption"><rect fill="#F1F1F1" height="48" rx="2.5" ry="2.5" style="stroke:#181818;stroke-width:0.5;" width="423.8447" x="566" y="132"/><ellipse cx="680.2046" cy="148" fill="#ADD1B2" rx="11" ry="11" style="stroke:#181818;stroke-width:1;"/><path d="M683.1733,153.6406 Q682.5952,153.9375 681.9546,154.0781 Q681.314,154.2344 680.6108,154.2344 Q678.1108,154.2344 676.7827,152.5938 Q675.4702,150.9375 675.4702,147.8125 Q675.4702,144.6875 676.7827,143.0313 Q678.1108,141.375 680.6108,141.375 Q681.314,141.375 681.9546,141.5313 Q682.6108,141.6875 683.1733,141.9844 L683.1733,144.7031 Q682.5483,144.125 681.9546,143.8594 Q681.3608,143.5781 680.7358,143.5781 Q679.3921,143.5781 678.7046,144.6563 Q678.0171,145.7188 678.0171,147.8125 Q678.0171,149.9063 678.7046,150.9844 Q679.3921,152.0469 680.7358,152.0469 Q681.3608,152.0469 681.9546,151.7813 Q682.5483,151.5 683.1733,150.9219 L683.1733,153.6406 Z " fill="#000000"/><text fill="#000000" font-family="sans-serif" font-size="14" lengthAdjust="spacing" textLength="186.9355" x="700.7046" y="152.8467">StochasticTransportOption</text><line style="stroke:#181818;stroke-width:0.5;" x1="567" x2="988.8447" y1="164" y2="164"/><line style="stroke:#181818;stroke-width:0.5;" x1="567" x2="988.8447" y1="172" y2="172"/></g><!--class StochasticTransportOptionStep--><g class="entity" data-entity="StochasticTransportOptionStep" data-source-line="13" data-uid="ent0004" id="entity_StochasticTransportOptionStep"><rect fill="#F1F1F1" height="129.4844" rx="2.5" ry="2.5" style="stroke:#181818;stroke-width:0.5;" width="423.8447" x="567" y="257"/><ellipse cx="665.2666" cy="273" fill="#ADD1B2" rx="11" ry="11" style="stroke:#181818;stroke-width:1;"/><path d="M668.2354,278.6406 Q667.6572,278.9375 667.0166,279.0781 Q666.376,279.2344 665.6729,279.2344 Q663.1729,279.2344 661.8447,277.5937 Q660.5322,275.9375 660.5322,272.8125 Q660.5322,269.6875 661.8447,268.0312 Q663.1729,266.375 665.6729,266.375 Q666.376,266.375 667.0166,266.5312 Q667.6729,266.6875 668.2354,266.9844 L668.2354,269.7031 Q667.6104,269.125 667.0166,268.8594 Q666.4229,268.5781 665.7979,268.5781 Q664.4541,268.5781 663.7666,269.6562 Q663.0791,270.7187 663.0791,272.8125 Q663.0791,274.9062 663.7666,275.9844 Q664.4541,277.0469 665.7979,277.0469 Q666.4229,277.0469 667.0166,276.7812 Q667.6104,276.5 668.2354,275.9219 L668.2354,278.6406 Z " fill="#000000"/><text fill="#000000" font-family="sans-serif" font-size="14" lengthAdjust="spacing" textLength="218.8115" x="685.7666" y="277.8467">StochasticTransportOptionStep</text><line style="stroke:#181818;stroke-width:0.5;" x1="568" x2="989.8447" y1="289" y2="289"/><text fill="#000000" font-family="sans-serif" font-size="14" lengthAdjust="spacing" textLength="371.9023" x="573" y="305.9951">Map&lt;Sku, Dist&lt;Duration&gt;&gt; estimatedLoadingTimes</text><text fill="#000000" font-family="sans-serif" font-size="14" lengthAdjust="spacing" textLength="387.1123" x="573" y="322.292">Map&lt;Sku, Dist&lt;Duration&gt;&gt; estimatedUnloadingTimes</text><text fill="#000000" font-family="sans-serif" font-size="14" lengthAdjust="spacing" textLength="353.9443" x="573" y="338.5889">Map&lt;Sku, Dist&lt;Money&gt;&gt; estimatedLoadingCosts</text><text fill="#000000" font-family="sans-serif" font-size="14" lengthAdjust="spacing" textLength="369.1543" x="573" y="354.8857">Map&lt;Sku, Dist&lt;Money&gt;&gt; estimatedUnloadingCosts</text><text fill="#000000" font-family="sans-serif" font-size="14" lengthAdjust="spacing" textLength="411.8447" x="573" y="371.1826">Map&lt;Sku, Dist&lt;Money&gt;&gt; estimatedTransportCostsPerKm</text><line style="stroke:#181818;stroke-width:0.5;" x1="568" x2="989.8447" y1="378.4844" y2="378.4844"/></g><!--class WarehousingActor--><g class="entity" data-entity="WarehousingActor" data-source-line="21" data-uid="ent0005" id="entity_WarehousingActor"><rect fill="#F1F1F1" height="48" rx="2.5" ry="2.5" style="stroke:#181818;stroke-width:0.5;" width="423.8447" x="566" y="7"/><ellipse cx="709.1069" cy="23" fill="#ADD1B2" rx="11" ry="11" style="stroke:#181818;stroke-width:1;"/><path d="M712.0757,28.6406 Q711.4976,28.9375 710.8569,29.0781 Q710.2163,29.2344 709.5132,29.2344 Q707.0132,29.2344 705.6851,27.5938 Q704.3726,25.9375 704.3726,22.8125 Q704.3726,19.6875 705.6851,18.0313 Q707.0132,16.375 709.5132,16.375 Q710.2163,16.375 710.8569,16.5313 Q711.5132,16.6875 712.0757,16.9844 L712.0757,19.7031 Q711.4507,19.125 710.8569,18.8594 Q710.2632,18.5781 709.6382,18.5781 Q708.2944,18.5781 707.6069,19.6563 Q706.9194,20.7188 706.9194,22.8125 Q706.9194,24.9063 707.6069,25.9844 Q708.2944,27.0469 709.6382,27.0469 Q710.2632,27.0469 710.8569,26.7813 Q711.4507,26.5 712.0757,25.9219 L712.0757,28.6406 Z " fill="#000000"/><text fill="#000000" font-family="sans-serif" font-size="14" lengthAdjust="spacing" textLength="129.1309" x="729.6069" y="27.8467">WarehousingActor</text><line style="stroke:#181818;stroke-width:0.5;" x1="567" x2="988.8447" y1="39" y2="39"/><line style="stroke:#181818;stroke-width:0.5;" x1="567" x2="988.8447" y1="47" y2="47"/></g><!--class TransportingActor--><g class="entity" data-entity="TransportingActor" data-source-line="24" data-uid="ent0006" id="entity_TransportingActor"><rect fill="#F1F1F1" height="48" rx="2.5" ry="2.5" style="stroke:#181818;stroke-width:0.5;" width="423.8447" x="1128" y="132"/><ellipse cx="1272.4297" cy="148" fill="#ADD1B2" rx="11" ry="11" style="stroke:#181818;stroke-width:1;"/><path d="M1275.3984,153.6406 Q1274.8203,153.9375 1274.1797,154.0781 Q1273.5391,154.2344 1272.8359,154.2344 Q1270.3359,154.2344 1269.0078,152.5938 Q1267.6953,150.9375 1267.6953,147.8125 Q1267.6953,144.6875 1269.0078,143.0313 Q1270.3359,141.375 1272.8359,141.375 Q1273.5391,141.375 1274.1797,141.5313 Q1274.8359,141.6875 1275.3984,141.9844 L1275.3984,144.7031 Q1274.7734,144.125 1274.1797,143.8594 Q1273.5859,143.5781 1272.9609,143.5781 Q1271.6172,143.5781 1270.9297,144.6563 Q1270.2422,145.7188 1270.2422,147.8125 Q1270.2422,149.9063 1270.9297,150.9844 Q1271.6172,152.0469 1272.9609,152.0469 Q1273.5859,152.0469 1274.1797,151.7813 Q1274.7734,151.5 1275.3984,150.9219 L1275.3984,153.6406 Z " fill="#000000"/><text fill="#000000" font-family="sans-serif" font-size="14" lengthAdjust="spacing" textLength="126.4854" x="1292.9297" y="152.8467">TransportingActor</text><line style="stroke:#181818;stroke-width:0.5;" x1="1129" x2="1550.8447" y1="164" y2="164"/><line style="stroke:#181818;stroke-width:0.5;" x1="1129" x2="1550.8447" y1="172" y2="172"/></g><!--class TransportingRole--><g class="entity" data-entity="TransportingRole" data-source-line="27" data-uid="ent0007" id="entity_TransportingRole"><rect fill="#F1F1F1" height="48" rx="2.5" ry="2.5" style="stroke:#181818;stroke-width:0.5;" width="423.8447" x="1127" y="297.75"/><ellipse cx="1274.5742" cy="313.75" fill="#ADD1B2" rx="11" ry="11" style="stroke:#181818;stroke-width:1;"/><path d="M1277.543,319.3906 Q1276.9648,319.6875 1276.3242,319.8281 Q1275.6836,319.9844 1274.9805,319.9844 Q1272.4805,319.9844 1271.1523,318.3437 Q1269.8398,316.6875 1269.8398,313.5625 Q1269.8398,310.4375 1271.1523,308.7812 Q1272.4805,307.125 1274.9805,307.125 Q1275.6836,307.125 1276.3242,307.2812 Q1276.9805,307.4375 1277.543,307.7344 L1277.543,310.4531 Q1276.918,309.875 1276.3242,309.6094 Q1275.7305,309.3281 1275.1055,309.3281 Q1273.7617,309.3281 1273.0742,310.4062 Q1272.3867,311.4687 1272.3867,313.5625 Q1272.3867,315.6562 1273.0742,316.7344 Q1273.7617,317.7969 1275.1055,317.7969 Q1275.7305,317.7969 1276.3242,317.5312 Q1276.918,317.25 1277.543,316.6719 L1277.543,319.3906 Z " fill="#000000"/><text fill="#000000" font-family="sans-serif" font-size="14" lengthAdjust="spacing" textLength="120.1963" x="1295.0742" y="318.5967">TransportingRole</text><line style="stroke:#181818;stroke-width:0.5;" x1="1128" x2="1549.8447" y1="329.75" y2="329.75"/><line style="stroke:#181818;stroke-width:0.5;" x1="1128" x2="1549.8447" y1="337.75" y2="337.75"/></g><!--class TransportMode--><g class="entity" data-entity="TransportMode" data-source-line="30" data-uid="ent0008" id="entity_TransportMode"><rect fill="#F1F1F1" height="194.6719" rx="2.5" ry="2.5" style="stroke:#181818;stroke-width:0.5;" width="423.8447" x="567" y="463.49"/><ellipse cx="721.7246" cy="479.49" fill="#ADD1B2" rx="11" ry="11" style="stroke:#181818;stroke-width:1;"/><path d="M724.6934,485.1306 Q724.1152,485.4275 723.4746,485.5681 Q722.834,485.7244 722.1309,485.7244 Q719.6309,485.7244 718.3027,484.0838 Q716.9902,482.4275 716.9902,479.3025 Q716.9902,476.1775 718.3027,474.5213 Q719.6309,472.865 722.1309,472.865 Q722.834,472.865 723.4746,473.0213 Q724.1309,473.1775 724.6934,473.4744 L724.6934,476.1931 Q724.0684,475.615 723.4746,475.3494 Q722.8809,475.0681 722.2559,475.0681 Q720.9121,475.0681 720.2246,476.1463 Q719.5371,477.2088 719.5371,479.3025 Q719.5371,481.3963 720.2246,482.4744 Q720.9121,483.5369 722.2559,483.5369 Q722.8809,483.5369 723.4746,483.2713 Q724.0684,482.99 724.6934,482.4119 L724.6934,485.1306 Z " fill="#000000"/><text fill="#000000" font-family="sans-serif" font-size="14" lengthAdjust="spacing" textLength="105.8955" x="742.2246" y="484.3367">TransportMode</text><line style="stroke:#181818;stroke-width:0.5;" x1="568" x2="989.8447" y1="495.49" y2="495.49"/><text fill="#000000" font-family="sans-serif" font-size="14" lengthAdjust="spacing" textLength="117.9746" x="573" y="512.4851">Speed avgSpeed</text><text fill="#000000" font-family="sans-serif" font-size="14" lengthAdjust="spacing" textLength="188.1045" x="573" y="528.782">Duration avgHandlingTime</text><text fill="#000000" font-family="sans-serif" font-size="14" lengthAdjust="spacing" textLength="139.2549" x="573" y="545.0789">boolean continental</text><text fill="#000000" font-family="sans-serif" font-size="14" lengthAdjust="spacing" textLength="171.876" x="573" y="561.3757">boolean intercontinental</text><line style="stroke:#181818;stroke-width:0.5;" x1="568" x2="989.8447" y1="568.6775" y2="568.6775"/><text fill="#000000" font-family="sans-serif" font-size="14" lengthAdjust="spacing" text-decoration="underline" textLength="178.917" x="573" y="585.6726">TransportMode AIRPLANE</text><text fill="#000000" font-family="sans-serif" font-size="14" lengthAdjust="spacing" text-decoration="underline" textLength="157.8281" x="573" y="601.9695">TransportMode TRUCK</text><text fill="#000000" font-family="sans-serif" font-size="14" lengthAdjust="spacing" text-decoration="underline" textLength="142.3311" x="573" y="618.2664">TransportMode SHIP</text><text fill="#000000" font-family="sans-serif" font-size="14" lengthAdjust="spacing" text-decoration="underline" textLength="141.5791" x="573" y="634.5632">TransportMode RAIL</text><text fill="#000000" font-family="sans-serif" font-size="14" lengthAdjust="spacing" text-decoration="underline" textLength="158.9492" x="573" y="650.8601">TransportMode BARGE</text></g><!--link WarehousingActor to StochasticTransportOption--><g class="link" data-entity-1="WarehousingActor" data-entity-2="StochasticTransportOption" data-source-line="43" data-uid="lnk10" id="link_WarehousingActor_StochasticTransportOption"><path codeLine="43" d="M739.66,55.25 C729.75,63.33 720.35,73.34 714.92,85 C706.64,102.79 719.97,119.28 736.46,131.79" fill="none" id="WarehousingActor-StochasticTransportOption" style="stroke:#181818;stroke-width:1;"/><polygon fill="#000000" points="720.1289,88.5708,716.8147,97.4852,722.6874,97.7307,720.1289,88.5708" style="stroke:#000000;stroke-width:1;"/><text fill="#000000" font-family="sans-serif" font-size="13" lengthAdjust="spacing" textLength="43.0308" x="728.92" y="98.0669">pickup</text></g><!--link WarehousingActor to StochasticTransportOption--><g class="link" data-entity-1="WarehousingActor" data-entity-2="StochasticTransportOption" data-source-line="44" data-uid="lnk12" id="link_WarehousingActor_StochasticTransportOption"><path codeLine="44" d="M779.54,55.47 C780.09,64.68 780.65,75.33 780.92,85 C781.36,100.57 780.61,118.07 779.75,131.68" fill="none" id="WarehousingActor-StochasticTransportOption-1" style="stroke:#181818;stroke-width:1;"/><polygon fill="#000000" points="786.9062,88.5664,783.9922,97.6196,789.8701,97.6034,786.9062,88.5664" style="stroke:#000000;stroke-width:1;"/><text fill="#000000" font-family="sans-serif" font-size="13" lengthAdjust="spacing" textLength="52.2031" x="795.92" y="98.0669">delivery</text></g><!--link StochasticTransportOption to TransportingActor--><g class="link" data-entity-1="StochasticTransportOption" data-entity-2="TransportingActor" data-source-line="45" data-uid="lnk13" id="link_StochasticTransportOption_TransportingActor"><path codeLine="45" d="M989.99,156 C1035.08,156 1082.7,156 1127.8,156" fill="none" id="StochasticTransportOption-TransportingActor" style="stroke:#181818;stroke-width:1;"/><polygon fill="#000000" points="1024.42,144.5664,1015.3749,141.6275,1015.3749,147.5053,1024.42,144.5664" style="stroke:#000000;stroke-width:1;"/><text fill="#000000" font-family="sans-serif" font-size="13" lengthAdjust="spacing" textLength="74.8071" x="1028.42" y="149.0669">responsible</text></g><!--reverse link StochasticTransportOption to StochasticTransportOptionStep--><g class="link" data-entity-1="StochasticTransportOption" data-entity-2="StochasticTransportOptionStep" data-source-line="46" data-uid="lnk14" id="link_StochasticTransportOption_StochasticTransportOptionStep"><path codeLine="46" d="M778.1424,192.4598 C778.2624,212.3598 778.37,229.86 778.53,256.68" fill="none" id="StochasticTransportOption-backto-StochasticTransportOptionStep" style="stroke:#181818;stroke-width:1;"/><polygon fill="#181818" points="778.07,180.46,774.1063,186.484,778.1424,192.4598,782.1061,186.4358,778.07,180.46" style="stroke:#181818;stroke-width:1;"/><polygon fill="#000000" points="783.9502,223.5663,786.8345,214.5037,780.9567,214.5391,783.9502,223.5663" style="stroke:#000000;stroke-width:1;"/><text fill="#000000" font-family="sans-serif" font-size="13" lengthAdjust="spacing" textLength="69.0308" x="792.92" y="223.0669">consists of</text></g><!--link NamedLocation to StochasticTransportOptionStep--><g class="link" data-entity-1="NamedLocation" data-entity-2="StochasticTransportOptionStep" data-source-line="47" data-uid="lnk16" id="link_NamedLocation_StochasticTransportOptionStep"><path codeLine="47" d="M431.24,339.71 C445.34,340.52 459.33,341.21 472.92,341.75 C503.24,342.94 535.23,342.61 566.65,341.37" fill="none" id="NamedLocation-StochasticTransportOptionStep" style="stroke:#181818;stroke-width:1;"/><polygon fill="#000000" points="472.9204,333.2551,481.9288,336.3047,482.0008,330.4273,472.9204,333.2551" style="stroke:#000000;stroke-width:1;"/><text fill="#000000" font-family="sans-serif" font-size="13" lengthAdjust="spacing" textLength="37.0132" x="486.92" y="337.8169">origin</text></g><!--link NamedLocation to StochasticTransportOptionStep--><g class="link" data-entity-1="NamedLocation" data-entity-2="StochasticTransportOptionStep" data-source-line="48" data-uid="lnk18" id="link_NamedLocation_StochasticTransportOptionStep"><path codeLine="48" d="M431.03,321.75 C475.46,321.75 522.31,321.75 566.73,321.75" fill="none" id="NamedLocation-StochasticTransportOptionStep-1" style="stroke:#181818;stroke-width:1;"/><polygon fill="#000000" points="455.42,310.3164,464.4651,313.2553,464.4651,307.3775,455.42,310.3164" style="stroke:#000000;stroke-width:1;"/><text fill="#000000" font-family="sans-serif" font-size="13" lengthAdjust="spacing" textLength="72.8394" x="469.42" y="314.8169">destination</text></g><!--link StochasticTransportOptionStep to TransportMode--><g class="link" data-entity-1="StochasticTransportOptionStep" data-entity-2="TransportMode" data-source-line="49" data-uid="lnk19" id="link_StochasticTransportOptionStep_TransportMode"><path codeLine="49" d="M778.92,386.9 C778.92,410.35 778.92,437.43 778.92,463.09" fill="none" id="StochasticTransportOptionStep-TransportMode" style="stroke:#181818;stroke-width:1;"/><polygon fill="#000000" points="783.92,430.0564,786.8589,421.0113,780.9811,421.0113,783.92,430.0564" style="stroke:#000000;stroke-width:1;"/><text fill="#000000" font-family="sans-serif" font-size="13" lengthAdjust="spacing" textLength="29.7832" x="792.92" y="429.5569">uses</text></g><!--link StochasticTransportOptionStep to TransportingRole--><g class="link" data-entity-1="StochasticTransportOptionStep" data-entity-2="TransportingRole" data-source-line="50" data-uid="lnk20" id="link_StochasticTransportOptionStep_TransportingRole"><path codeLine="50" d="M991.03,321.75 C1035.46,321.75 1082.31,321.75 1126.73,321.75" fill="none" id="StochasticTransportOptionStep-TransportingRole" style="stroke:#181818;stroke-width:1;"/><polygon fill="#000000" points="1025.42,310.3164,1016.3749,307.3775,1016.3749,313.2553,1025.42,310.3164" style="stroke:#000000;stroke-width:1;"/><text fill="#000000" font-family="sans-serif" font-size="13" lengthAdjust="spacing" textLength="72.395" x="1029.42" y="314.8169">belongs  to</text></g><!--link TransportingActor to TransportingRole--><g class="link" data-entity-1="TransportingActor" data-entity-2="TransportingRole" data-source-line="51" data-uid="lnk21" id="link_TransportingActor_TransportingRole"><path codeLine="51" d="M1339.78,180.46 C1339.59,211.59 1339.26,266.22 1339.07,297.33" fill="none" id="TransportingActor-TransportingRole" style="stroke:#181818;stroke-width:1;"/><polygon fill="#000000" points="1343.8896,223.5663,1346.8834,214.5392,1341.0057,214.5035,1343.8896,223.5663" style="stroke:#000000;stroke-width:1;"/><text fill="#000000" font-family="sans-serif" font-size="13" lengthAdjust="spacing" textLength="22.9785" x="1352.92" y="223.0669">has</text></g><!--SRC=[dLHTIyCm57tlhxYFAXP4y4LaK3VHuQQZdVWuikJQXQL9I591nF_kJTMvkNKTlfJsddlEoVr8_L9gonohG1k17YrSd2L-5InOXNt5l7-M8YmWk1gJHEg0xeLnX0U2nSXm5gJHy9u05C59NKA9GHDsTBmH6g3dJjgOt20JGrBd8a8_8XJ_I18UBObe-8Bv8FdKCUsjSU7HVZjr9nM1Yeb76ZDxLIphKnX87wu6jMkCUZr0ObKin0gOe2DEPON-8CAJLlieOwFnROT1t_XmGFPA_S3yLU5D_WJTVVNRdsVcS65gJt8P3yQjzsv5x09pet0dDgQb-PgxHHJ0NilcXG8_ROknEwQ5-kuMGND3Sam3Dvh4KGUcrgBDTcr2izcCdfkcsJ2VZBA76tZtWOpunrR6D7_gtxV3nTrmqexcsN3K2bvd-UsQCRMbVLNJEjsUmINqm4g-hEr_c0ALV4Ntje_hqXtJZMI75DDUpXNkuP-a8ksuMb6CHoNQEJ0loVxiLAL__XQHRvmifVuNLSJrryrt1nzYBPi3Z0ArfvlRnVpJnkOUHF8SbT6b1mWcsUvpsi8Yfqy0]--></g></svg>