<svg xmlns="http://www.w3.org/2000/svg" xmlns:xlink="http://www.w3.org/1999/xlink" contentStyleType="text/css" data-diagram-type="CLASS" height="398px" preserveAspectRatio="none" style="width:430px;height:398px;background:#FFFFFF;" version="1.1" viewBox="0 0 430 398" width="430px" zoomAndPan="magnify"><defs/><g><!--class TransportPreference--><g class="entity" data-entity="TransportPreference" data-source-line="3" data-uid="ent0002" id="entity_TransportPreference"><rect fill="#F1F1F1" height="48" rx="2.5" ry="2.5" style="stroke:#181818;stroke-width:0.5;" width="175.6572" x="19.22" y="39.59"/><ellipse cx="34.22" cy="55.59" fill="#FF8F00" rx="11" ry="11" style="stroke:#181818;stroke-width:1;"/><path d="M35.4231,55.7306 Q35.7825,55.8088 36.0481,56.09 Q36.3294,56.3556 36.72,57.1369 L38.9544,61.59 L36.2669,61.59 L34.7669,58.465 Q34.7044,58.3244 34.595,58.09 Q33.9388,56.6994 33.0481,56.6994 L32.2669,56.6994 L32.2669,61.59 L29.8294,61.59 L29.8294,49.1994 L33.3606,49.1994 Q35.7513,49.1994 36.7825,50.0431 Q37.8294,50.8869 37.8294,52.7931 Q37.8294,54.0744 37.2044,54.84 Q36.595,55.59 35.4231,55.7306 Z M32.2669,51.2619 L32.2669,54.6369 L33.4231,54.6369 Q34.4388,54.6369 34.8606,54.2463 Q35.2981,53.84 35.2981,52.9338 Q35.2981,52.0431 34.8606,51.6525 Q34.4388,51.2619 33.4231,51.2619 L32.2669,51.2619 Z " fill="#000000"/><text fill="#000000" font-family="sans-serif" font-size="14" lengthAdjust="spacing" textLength="143.6572" x="48.22" y="60.4367">TransportPreference</text><line style="stroke:#181818;stroke-width:0.5;" x1="20.22" x2="193.8772" y1="71.59" y2="71.59"/><line style="stroke:#181818;stroke-width:0.5;" x1="20.22" x2="193.8772" y1="79.59" y2="79.59"/></g><!--class CostTimeImportance--><g class="entity" data-entity="CostTimeImportance" data-source-line="6" data-uid="ent0003" id="entity_CostTimeImportance"><rect fill="#F1F1F1" height="113.1875" rx="2.5" ry="2.5" style="stroke:#181818;stroke-width:0.5;" width="178.043" x="245.03" y="7"/><ellipse cx="260.03" cy="23" fill="#EB937F" rx="11" ry="11" style="stroke:#181818;stroke-width:1;"/><path d="M264.1394,29 L256.4206,29 L256.4206,16.6094 L264.1394,16.6094 L264.1394,18.7656 L258.8738,18.7656 L258.8738,21.4375 L263.6394,21.4375 L263.6394,23.5938 L258.8738,23.5938 L258.8738,26.8438 L264.1394,26.8438 L264.1394,29 Z " fill="#000000"/><text fill="#000000" font-family="sans-serif" font-size="14" lengthAdjust="spacing" textLength="146.043" x="274.03" y="27.8467">CostTimeImportance</text><line style="stroke:#181818;stroke-width:0.5;" x1="246.03" x2="422.073" y1="39" y2="39"/><text fill="#000000" font-family="sans-serif" font-size="14" lengthAdjust="spacing" textLength="38.2334" x="251.03" y="55.9951">COST</text><text fill="#000000" font-family="sans-serif" font-size="14" lengthAdjust="spacing" textLength="33.6055" x="251.03" y="72.292">TIME</text><text fill="#000000" font-family="sans-serif" font-size="14" lengthAdjust="spacing" textLength="71.0186" x="251.03" y="88.5889">DISTANCE</text><text fill="#000000" font-family="sans-serif" font-size="14" lengthAdjust="spacing" textLength="40.8105" x="251.03" y="104.8857">NONE</text><line style="stroke:#181818;stroke-width:0.5;" x1="246.03" x2="422.073" y1="112.1875" y2="112.1875"/></g><!--class TransportMode--><g class="entity" data-entity="TransportMode" data-source-line="13" data-uid="ent0004" id="entity_TransportMode"><rect fill="#F1F1F1" height="194.6719" rx="2.5" ry="2.5" style="stroke:#181818;stroke-width:0.5;" width="200.1045" x="7" y="197.19"/><ellipse cx="49.994" cy="213.19" fill="#ADD1B2" rx="11" ry="11" style="stroke:#181818;stroke-width:1;"/><path d="M52.9628,218.8306 Q52.3847,219.1275 51.744,219.2681 Q51.1034,219.4244 50.4003,219.4244 Q47.9003,219.4244 46.5722,217.7838 Q45.2597,216.1275 45.2597,213.0025 Q45.2597,209.8775 46.5722,208.2213 Q47.9003,206.565 50.4003,206.565 Q51.1034,206.565 51.744,206.7213 Q52.4003,206.8775 52.9628,207.1744 L52.9628,209.8931 Q52.3378,209.315 51.744,209.0494 Q51.1503,208.7681 50.5253,208.7681 Q49.1815,208.7681 48.494,209.8463 Q47.8065,210.9088 47.8065,213.0025 Q47.8065,215.0963 48.494,216.1744 Q49.1815,217.2369 50.5253,217.2369 Q51.1503,217.2369 51.744,216.9713 Q52.3378,216.69 52.9628,216.1119 L52.9628,218.8306 Z " fill="#000000"/><text fill="#000000" font-family="sans-serif" font-size="14" lengthAdjust="spacing" textLength="105.8955" x="70.2149" y="218.0367">TransportMode</text><line style="stroke:#181818;stroke-width:0.5;" x1="8" x2="206.1045" y1="229.19" y2="229.19"/><text fill="#000000" font-family="sans-serif" font-size="14" lengthAdjust="spacing" textLength="117.9746" x="13" y="246.1851">Speed avgSpeed</text><text fill="#000000" font-family="sans-serif" font-size="14" lengthAdjust="spacing" textLength="188.1045" x="13" y="262.482">Duration avgHandlingTime</text><text fill="#000000" font-family="sans-serif" font-size="14" lengthAdjust="spacing" textLength="139.2549" x="13" y="278.7789">boolean continental</text><text fill="#000000" font-family="sans-serif" font-size="14" lengthAdjust="spacing" textLength="171.876" x="13" y="295.0757">boolean intercontinental</text><line style="stroke:#181818;stroke-width:0.5;" x1="8" x2="206.1045" y1="302.3775" y2="302.3775"/><text fill="#000000" font-family="sans-serif" font-size="14" lengthAdjust="spacing" text-decoration="underline" textLength="178.917" x="13" y="319.3726">TransportMode AIRPLANE</text><text fill="#000000" font-family="sans-serif" font-size="14" lengthAdjust="spacing" text-decoration="underline" textLength="157.8281" x="13" y="335.6695">TransportMode TRUCK</text><text fill="#000000" font-family="sans-serif" font-size="14" lengthAdjust="spacing" text-decoration="underline" textLength="142.3311" x="13" y="351.9664">TransportMode SHIP</text><text fill="#000000" font-family="sans-serif" font-size="14" lengthAdjust="spacing" text-decoration="underline" textLength="141.5791" x="13" y="368.2632">TransportMode RAIL</text><text fill="#000000" font-family="sans-serif" font-size="14" lengthAdjust="spacing" text-decoration="underline" textLength="158.9492" x="13" y="384.5601">TransportMode BARGE</text></g><!--class Sku--><g class="entity" data-entity="Sku" data-source-line="26" data-uid="ent0005" id="entity_Sku"><rect fill="#F1F1F1" height="48" rx="2.5" ry="2.5" style="stroke:#181818;stroke-width:0.5;" width="57.8672" x="342.12" y="270.52"/><ellipse cx="357.12" cy="286.52" fill="#ADD1B2" rx="11" ry="11" style="stroke:#181818;stroke-width:1;"/><path d="M360.0888,292.1606 Q359.5106,292.4575 358.87,292.5981 Q358.2294,292.7544 357.5263,292.7544 Q355.0263,292.7544 353.6981,291.1138 Q352.3856,289.4575 352.3856,286.3325 Q352.3856,283.2075 353.6981,281.5513 Q355.0263,279.895 357.5263,279.895 Q358.2294,279.895 358.87,280.0513 Q359.5263,280.2075 360.0888,280.5044 L360.0888,283.2231 Q359.4638,282.645 358.87,282.3794 Q358.2763,282.0981 357.6513,282.0981 Q356.3075,282.0981 355.62,283.1763 Q354.9325,284.2388 354.9325,286.3325 Q354.9325,288.4263 355.62,289.5044 Q356.3075,290.5669 357.6513,290.5669 Q358.2763,290.5669 358.87,290.3013 Q359.4638,290.02 360.0888,289.4419 L360.0888,292.1606 Z " fill="#000000"/><text fill="#000000" font-family="sans-serif" font-size="14" lengthAdjust="spacing" textLength="25.8672" x="371.12" y="291.3667">Sku</text><line style="stroke:#181818;stroke-width:0.5;" x1="343.12" x2="398.9872" y1="302.52" y2="302.52"/><line style="stroke:#181818;stroke-width:0.5;" x1="343.12" x2="398.9872" y1="310.52" y2="310.52"/></g><!--link TransportPreference to CostTimeImportance--><g class="link" data-entity-1="TransportPreference" data-entity-2="CostTimeImportance" data-source-line="29" data-uid="lnk6" id="link_TransportPreference_CostTimeImportance"><path codeLine="29" d="M195.28,63.59 C211.72,63.59 228.17,63.59 244.61,63.59" fill="none" id="TransportPreference-CostTimeImportance" style="stroke:#181818;stroke-width:1;"/></g><!--reverse link TransportPreference to TransportMode--><g class="link" data-entity-1="TransportPreference" data-entity-2="TransportMode" data-source-line="30" data-uid="lnk7" id="link_TransportPreference_TransportMode"><path codeLine="30" d="M107.05,99.81 C107.05,125.5 107.05,156.59 107.05,196.71" fill="none" id="TransportPreference-backto-TransportMode" style="stroke:#181818;stroke-width:1;"/><polygon fill="#181818" points="107.05,87.81,103.05,93.81,107.05,99.81,111.05,93.81,107.05,87.81" style="stroke:#181818;stroke-width:1;"/><polygon fill="#000000" points="112.05,163.7564,114.9889,154.7113,109.1111,154.7113,112.05,163.7564" style="stroke:#000000;stroke-width:1;"/><text fill="#000000" font-family="sans-serif" font-size="13" lengthAdjust="spacing" textLength="61.1089" x="121.05" y="163.2569">preferred</text></g><!--reverse link TransportMode to Sku--><g class="link" data-entity-1="TransportMode" data-entity-2="Sku" data-source-line="31" data-uid="lnk8" id="link_TransportMode_Sku"><path codeLine="31" d="M219.24,294.52 C267.23,294.52 309.18,294.52 341.62,294.52" fill="none" id="TransportMode-backto-Sku" style="stroke:#181818;stroke-width:1;"/><polygon fill="#181818" points="207.24,294.52,213.24,298.52,219.24,294.52,213.24,290.52,207.24,294.52" style="stroke:#181818;stroke-width:1;"/><polygon fill="#000000" points="241.61,283.0864,232.5649,280.1475,232.5649,286.0253,241.61,283.0864" style="stroke:#000000;stroke-width:1;"/><text fill="#000000" font-family="sans-serif" font-size="13" lengthAdjust="spacing" textLength="71.792" x="245.61" y="287.5869">can handle</text></g><!--SRC=[TP11JyCm38Nl_HK-Jwh4XGi7f58g5h5rLHFELKZDYDOwLP9ocVRVIJe9LcXFjlmz-rdFdJGDqieUoBJeS83xkoIng8njGLX9RZ3MLnO_q28fX7DoIHAaiOVSE2zqZwoF4dc50Fc1Yr04snUXF3CkiZAFRNaeYxYiEkdSx-rzy9qM-O3OWlmwJatS7Qtqsb2SRIMrdQPZD0petPWE9O4ov3KXUTdTJ3Lvj7FKD4ryQcQQiRhQPMK1P-U3aRhyKuZwBNzTntpBgdLQPsot2f-o-kN6-2SMVXgl4Izbdzfq8VL5wIPjqp-M3_08mwIm8TuvsyJJqJkAL8ZmC-QDtm00]--></g></svg>