<svg xmlns="http://www.w3.org/2000/svg" xmlns:xlink="http://www.w3.org/1999/xlink" contentStyleType="text/css" data-diagram-type="CLASS" height="507px" preserveAspectRatio="none" style="width:888px;height:507px;background:#FFFFFF;" version="1.1" viewBox="0 0 888 507" width="888px" zoomAndPan="magnify"><defs/><g><!--class NamedLocation--><g class="entity" data-entity="NamedLocation" data-source-line="4" data-uid="ent0002" id="entity_NamedLocation"><rect fill="#F1F1F1" height="96.8906" rx="2.5" ry="2.5" style="stroke:#181818;stroke-width:0.5;" width="200.1045" x="7" y="132"/><ellipse cx="48.3052" cy="148" fill="#B4A7E5" rx="11" ry="11" style="stroke:#181818;stroke-width:1;"/><path d="M44.2271,143.7656 L44.2271,141.6094 L51.6177,141.6094 L51.6177,143.7656 L49.149,143.7656 L49.149,151.8438 L51.6177,151.8438 L51.6177,154 L44.2271,154 L44.2271,151.8438 L46.6958,151.8438 L46.6958,143.7656 L44.2271,143.7656 Z " fill="#000000"/><text fill="#000000" font-family="sans-serif" font-size="14" font-style="italic" lengthAdjust="spacing" textLength="109.6484" x="68.1508" y="152.8467">NamedLocation</text><line style="stroke:#181818;stroke-width:0.5;" x1="8" x2="206.1045" y1="164" y2="164"/><line style="stroke:#181818;stroke-width:0.5;" x1="8" x2="206.1045" y1="172" y2="172"/><text fill="#000000" font-family="sans-serif" font-size="14" lengthAdjust="spacing" textLength="119.8477" x="13" y="188.9951">String getname()</text><text fill="#000000" font-family="sans-serif" font-size="14" lengthAdjust="spacing" textLength="159.8789" x="13" y="205.292">String getDescription()</text><text fill="#000000" font-family="sans-serif" font-size="14" lengthAdjust="spacing" textLength="150.876" x="13" y="221.5889">Point2d getLocation()</text></g><!--class TransportOption--><g class="entity" data-entity="TransportOption" data-source-line="10" data-uid="ent0003" id="entity_TransportOption"><rect fill="#F1F1F1" height="48" rx="2.5" ry="2.5" style="stroke:#181818;stroke-width:0.5;" width="200.1045" x="343" y="7"/><ellipse cx="382.1334" cy="23" fill="#ADD1B2" rx="11" ry="11" style="stroke:#181818;stroke-width:1;"/><path d="M385.1022,28.6406 Q384.5241,28.9375 383.8834,29.0781 Q383.2428,29.2344 382.5397,29.2344 Q380.0397,29.2344 378.7116,27.5938 Q377.3991,25.9375 377.3991,22.8125 Q377.3991,19.6875 378.7116,18.0313 Q380.0397,16.375 382.5397,16.375 Q383.2428,16.375 383.8834,16.5313 Q384.5397,16.6875 385.1022,16.9844 L385.1022,19.7031 Q384.4772,19.125 383.8834,18.8594 Q383.2897,18.5781 382.6647,18.5781 Q381.3209,18.5781 380.6334,19.6563 Q379.9459,20.7188 379.9459,22.8125 Q379.9459,24.9063 380.6334,25.9844 Q381.3209,27.0469 382.6647,27.0469 Q383.2897,27.0469 383.8834,26.7813 Q384.4772,26.5 385.1022,25.9219 L385.1022,28.6406 Z " fill="#000000"/><text fill="#000000" font-family="sans-serif" font-size="14" lengthAdjust="spacing" textLength="114.4746" x="401.4964" y="27.8467">TransportOption</text><line style="stroke:#181818;stroke-width:0.5;" x1="344" x2="542.1045" y1="39" y2="39"/><line style="stroke:#181818;stroke-width:0.5;" x1="344" x2="542.1045" y1="47" y2="47"/></g><!--class TransportOptionStep--><g class="entity" data-entity="TransportOptionStep" data-source-line="13" data-uid="ent0004" id="entity_TransportOptionStep"><rect fill="#F1F1F1" height="48" rx="2.5" ry="2.5" style="stroke:#181818;stroke-width:0.5;" width="200.1045" x="344" y="156.44"/><ellipse cx="368.7893" cy="172.44" fill="#ADD1B2" rx="11" ry="11" style="stroke:#181818;stroke-width:1;"/><path d="M371.758,178.0806 Q371.1799,178.3775 370.5393,178.5181 Q369.8986,178.6744 369.1955,178.6744 Q366.6955,178.6744 365.3674,177.0338 Q364.0549,175.3775 364.0549,172.2525 Q364.0549,169.1275 365.3674,167.4713 Q366.6955,165.815 369.1955,165.815 Q369.8986,165.815 370.5393,165.9713 Q371.1955,166.1275 371.758,166.4244 L371.758,169.1431 Q371.133,168.565 370.5393,168.2994 Q369.9455,168.0181 369.3205,168.0181 Q367.9768,168.0181 367.2893,169.0963 Q366.6018,170.1588 366.6018,172.2525 Q366.6018,174.3463 367.2893,175.4244 Q367.9768,176.4869 369.3205,176.4869 Q369.9455,176.4869 370.5393,176.2213 Q371.133,175.94 371.758,175.3619 L371.758,178.0806 Z " fill="#000000"/><text fill="#000000" font-family="sans-serif" font-size="14" lengthAdjust="spacing" textLength="146.3506" x="384.9646" y="177.2867">TransportOptionStep</text><line style="stroke:#181818;stroke-width:0.5;" x1="345" x2="543.1045" y1="188.44" y2="188.44"/><line style="stroke:#181818;stroke-width:0.5;" x1="345" x2="543.1045" y1="196.44" y2="196.44"/></g><!--class WarehousingActor--><g class="entity" data-entity="WarehousingActor" data-source-line="16" data-uid="ent0005" id="entity_WarehousingActor"><rect fill="#F1F1F1" height="48" rx="2.5" ry="2.5" style="stroke:#181818;stroke-width:0.5;" width="200.1045" x="26" y="7"/><ellipse cx="58.5381" cy="23" fill="#ADD1B2" rx="11" ry="11" style="stroke:#181818;stroke-width:1;"/><path d="M61.5069,28.6406 Q60.9288,28.9375 60.2881,29.0781 Q59.6475,29.2344 58.9444,29.2344 Q56.4444,29.2344 55.1163,27.5938 Q53.8038,25.9375 53.8038,22.8125 Q53.8038,19.6875 55.1163,18.0313 Q56.4444,16.375 58.9444,16.375 Q59.6475,16.375 60.2881,16.5313 Q60.9444,16.6875 61.5069,16.9844 L61.5069,19.7031 Q60.8819,19.125 60.2881,18.8594 Q59.6944,18.5781 59.0694,18.5781 Q57.7256,18.5781 57.0381,19.6563 Q56.3506,20.7188 56.3506,22.8125 Q56.3506,24.9063 57.0381,25.9844 Q57.7256,27.0469 59.0694,27.0469 Q59.6944,27.0469 60.2881,26.7813 Q60.8819,26.5 61.5069,25.9219 L61.5069,28.6406 Z " fill="#000000"/><text fill="#000000" font-family="sans-serif" font-size="14" lengthAdjust="spacing" textLength="129.1309" x="76.4355" y="27.8467">WarehousingActor</text><line style="stroke:#181818;stroke-width:0.5;" x1="27" x2="225.1045" y1="39" y2="39"/><line style="stroke:#181818;stroke-width:0.5;" x1="27" x2="225.1045" y1="47" y2="47"/></g><!--class TransportingActor--><g class="entity" data-entity="TransportingActor" data-source-line="19" data-uid="ent0006" id="entity_TransportingActor"><rect fill="#F1F1F1" height="48" rx="2.5" ry="2.5" style="stroke:#181818;stroke-width:0.5;" width="200.1045" x="682" y="7"/><ellipse cx="715.7286" cy="23" fill="#ADD1B2" rx="11" ry="11" style="stroke:#181818;stroke-width:1;"/><path d="M718.6974,28.6406 Q718.1192,28.9375 717.4786,29.0781 Q716.838,29.2344 716.1349,29.2344 Q713.6349,29.2344 712.3067,27.5938 Q710.9942,25.9375 710.9942,22.8125 Q710.9942,19.6875 712.3067,18.0313 Q713.6349,16.375 716.1349,16.375 Q716.838,16.375 717.4786,16.5313 Q718.1349,16.6875 718.6974,16.9844 L718.6974,19.7031 Q718.0724,19.125 717.4786,18.8594 Q716.8849,18.5781 716.2599,18.5781 Q714.9161,18.5781 714.2286,19.6563 Q713.5411,20.7188 713.5411,22.8125 Q713.5411,24.9063 714.2286,25.9844 Q714.9161,27.0469 716.2599,27.0469 Q716.8849,27.0469 717.4786,26.7813 Q718.0724,26.5 718.6974,25.9219 L718.6974,28.6406 Z " fill="#000000"/><text fill="#000000" font-family="sans-serif" font-size="14" lengthAdjust="spacing" textLength="126.4854" x="733.8905" y="27.8467">TransportingActor</text><line style="stroke:#181818;stroke-width:0.5;" x1="683" x2="881.1045" y1="39" y2="39"/><line style="stroke:#181818;stroke-width:0.5;" x1="683" x2="881.1045" y1="47" y2="47"/></g><!--class TransportingRole--><g class="entity" data-entity="TransportingRole" data-source-line="22" data-uid="ent0007" id="entity_TransportingRole"><rect fill="#F1F1F1" height="48" rx="2.5" ry="2.5" style="stroke:#181818;stroke-width:0.5;" width="200.1045" x="681" y="156.44"/><ellipse cx="717.5587" cy="172.44" fill="#ADD1B2" rx="11" ry="11" style="stroke:#181818;stroke-width:1;"/><path d="M720.5274,178.0806 Q719.9493,178.3775 719.3087,178.5181 Q718.6681,178.6744 717.9649,178.6744 Q715.4649,178.6744 714.1368,177.0338 Q712.8243,175.3775 712.8243,172.2525 Q712.8243,169.1275 714.1368,167.4713 Q715.4649,165.815 717.9649,165.815 Q718.6681,165.815 719.3087,165.9713 Q719.9649,166.1275 720.5274,166.4244 L720.5274,169.1431 Q719.9024,168.565 719.3087,168.2994 Q718.7149,168.0181 718.0899,168.0181 Q716.7462,168.0181 716.0587,169.0963 Q715.3712,170.1588 715.3712,172.2525 Q715.3712,174.3463 716.0587,175.4244 Q716.7462,176.4869 718.0899,176.4869 Q718.7149,176.4869 719.3087,176.2213 Q719.9024,175.94 720.5274,175.3619 L720.5274,178.0806 Z " fill="#000000"/><text fill="#000000" font-family="sans-serif" font-size="14" lengthAdjust="spacing" textLength="120.1963" x="736.3495" y="177.2867">TransportingRole</text><line style="stroke:#181818;stroke-width:0.5;" x1="682" x2="880.1045" y1="188.44" y2="188.44"/><line style="stroke:#181818;stroke-width:0.5;" x1="682" x2="880.1045" y1="196.44" y2="196.44"/></g><!--class TransportMode--><g class="entity" data-entity="TransportMode" data-source-line="25" data-uid="ent0008" id="entity_TransportMode"><rect fill="#F1F1F1" height="194.6719" rx="2.5" ry="2.5" style="stroke:#181818;stroke-width:0.5;" width="200.1045" x="344" y="305.89"/><ellipse cx="386.994" cy="321.89" fill="#ADD1B2" rx="11" ry="11" style="stroke:#181818;stroke-width:1;"/><path d="M389.9628,327.5306 Q389.3847,327.8275 388.744,327.9681 Q388.1034,328.1244 387.4003,328.1244 Q384.9003,328.1244 383.5722,326.4838 Q382.2597,324.8275 382.2597,321.7025 Q382.2597,318.5775 383.5722,316.9213 Q384.9003,315.265 387.4003,315.265 Q388.1034,315.265 388.744,315.4213 Q389.4003,315.5775 389.9628,315.8744 L389.9628,318.5931 Q389.3378,318.015 388.744,317.7494 Q388.1503,317.4681 387.5253,317.4681 Q386.1815,317.4681 385.494,318.5463 Q384.8065,319.6088 384.8065,321.7025 Q384.8065,323.7963 385.494,324.8744 Q386.1815,325.9369 387.5253,325.9369 Q388.1503,325.9369 388.744,325.6713 Q389.3378,325.39 389.9628,324.8119 L389.9628,327.5306 Z " fill="#000000"/><text fill="#000000" font-family="sans-serif" font-size="14" lengthAdjust="spacing" textLength="105.8955" x="407.2149" y="326.7367">TransportMode</text><line style="stroke:#181818;stroke-width:0.5;" x1="345" x2="543.1045" y1="337.89" y2="337.89"/><text fill="#000000" font-family="sans-serif" font-size="14" lengthAdjust="spacing" textLength="117.9746" x="350" y="354.8851">Speed avgSpeed</text><text fill="#000000" font-family="sans-serif" font-size="14" lengthAdjust="spacing" textLength="188.1045" x="350" y="371.182">Duration avgHandlingTime</text><text fill="#000000" font-family="sans-serif" font-size="14" lengthAdjust="spacing" textLength="139.2549" x="350" y="387.4789">boolean continental</text><text fill="#000000" font-family="sans-serif" font-size="14" lengthAdjust="spacing" textLength="171.876" x="350" y="403.7757">boolean intercontinental</text><line style="stroke:#181818;stroke-width:0.5;" x1="345" x2="543.1045" y1="411.0775" y2="411.0775"/><text fill="#000000" font-family="sans-serif" font-size="14" lengthAdjust="spacing" text-decoration="underline" textLength="178.917" x="350" y="428.0726">TransportMode AIRPLANE</text><text fill="#000000" font-family="sans-serif" font-size="14" lengthAdjust="spacing" text-decoration="underline" textLength="157.8281" x="350" y="444.3695">TransportMode TRUCK</text><text fill="#000000" font-family="sans-serif" font-size="14" lengthAdjust="spacing" text-decoration="underline" textLength="142.3311" x="350" y="460.6664">TransportMode SHIP</text><text fill="#000000" font-family="sans-serif" font-size="14" lengthAdjust="spacing" text-decoration="underline" textLength="141.5791" x="350" y="476.9632">TransportMode RAIL</text><text fill="#000000" font-family="sans-serif" font-size="14" lengthAdjust="spacing" text-decoration="underline" textLength="158.9492" x="350" y="493.2601">TransportMode BARGE</text></g><!--link WarehousingActor to TransportOption--><g class="link" data-entity-1="WarehousingActor" data-entity-2="TransportOption" data-source-line="38" data-uid="lnk10" id="link_WarehousingActor_TransportOption"><path codeLine="38" d="M226.27,48.03 C236.14,49.24 246.03,50.27 255.55,51 C283.95,53.18 314.7,51.57 342.93,48.49" fill="none" id="WarehousingActor-TransportOption" style="stroke:#181818;stroke-width:1;"/><polygon fill="#000000" points="255.55,42.5467,264.5835,45.5213,264.6066,39.6435,255.55,42.5467" style="stroke:#000000;stroke-width:1;"/><text fill="#000000" font-family="sans-serif" font-size="13" lengthAdjust="spacing" textLength="43.0308" x="269.55" y="47.0669">pickup</text></g><!--link WarehousingActor to TransportOption--><g class="link" data-entity-1="WarehousingActor" data-entity-2="TransportOption" data-source-line="39" data-uid="lnk12" id="link_WarehousingActor_TransportOption"><path codeLine="39" d="M226.35,31 C263.45,31 305.48,31 342.59,31" fill="none" id="WarehousingActor-TransportOption-1" style="stroke:#181818;stroke-width:1;"/><polygon fill="#000000" points="251.05,19.5664,260.0951,22.5053,260.0951,16.6275,251.05,19.5664" style="stroke:#000000;stroke-width:1;"/><text fill="#000000" font-family="sans-serif" font-size="13" lengthAdjust="spacing" textLength="52.2031" x="265.05" y="24.0669">delivery</text></g><!--link TransportOption to TransportingActor--><g class="link" data-entity-1="TransportOption" data-entity-2="TransportingActor" data-source-line="40" data-uid="lnk13" id="link_TransportOption_TransportingActor"><path codeLine="40" d="M543.39,31 C587.02,31 638.04,31 681.68,31" fill="none" id="TransportOption-TransportingActor" style="stroke:#181818;stroke-width:1;"/><polygon fill="#000000" points="578.05,19.5664,569.0049,16.6275,569.0049,22.5053,578.05,19.5664" style="stroke:#000000;stroke-width:1;"/><text fill="#000000" font-family="sans-serif" font-size="13" lengthAdjust="spacing" textLength="74.8071" x="582.05" y="24.0669">responsible</text></g><!--reverse link TransportOption to TransportOptionStep--><g class="link" data-entity-1="TransportOption" data-entity-2="TransportOptionStep" data-source-line="41" data-uid="lnk14" id="link_TransportOption_TransportOptionStep"><path codeLine="41" d="M443.2926,67.3597 C443.4826,94.9697 443.71,128.63 443.89,156.19" fill="none" id="TransportOption-backto-TransportOptionStep" style="stroke:#181818;stroke-width:1;"/><polygon fill="#181818" points="443.21,55.36,439.2514,61.3874,443.2926,67.3597,447.2512,61.3323,443.21,55.36" style="stroke:#181818;stroke-width:1;"/><polygon fill="#000000" points="449.0836,98.5663,451.9617,89.5016,446.0839,89.5412,449.0836,98.5663" style="stroke:#000000;stroke-width:1;"/><text fill="#000000" font-family="sans-serif" font-size="13" lengthAdjust="spacing" textLength="69.0308" x="458.05" y="98.0669">consists of</text></g><!--link NamedLocation to TransportOptionStep--><g class="link" data-entity-1="NamedLocation" data-entity-2="TransportOptionStep" data-source-line="42" data-uid="lnk16" id="link_NamedLocation_TransportOptionStep"><path codeLine="42" d="M207.3,196.3 C221.45,198.02 235.85,199.49 249.55,200.44 C280.2,202.58 313.48,200.71 343.71,197.39" fill="none" id="NamedLocation-TransportOptionStep" style="stroke:#181818;stroke-width:1;"/><polygon fill="#000000" points="249.5502,191.9665,258.5715,194.9776,258.6184,189.0999,249.5502,191.9665" style="stroke:#000000;stroke-width:1;"/><text fill="#000000" font-family="sans-serif" font-size="13" lengthAdjust="spacing" textLength="37.0132" x="263.55" y="196.5069">origin</text></g><!--link NamedLocation to TransportOptionStep--><g class="link" data-entity-1="NamedLocation" data-entity-2="TransportOptionStep" data-source-line="43" data-uid="lnk18" id="link_NamedLocation_TransportOptionStep"><path codeLine="43" d="M207.25,180.44 C250.32,180.44 300.56,180.44 343.66,180.44" fill="none" id="NamedLocation-TransportOptionStep-1" style="stroke:#181818;stroke-width:1;"/><polygon fill="#000000" points="232.05,169.0064,241.0951,171.9453,241.0951,166.0675,232.05,169.0064" style="stroke:#000000;stroke-width:1;"/><text fill="#000000" font-family="sans-serif" font-size="13" lengthAdjust="spacing" textLength="72.8394" x="246.05" y="173.5069">destination</text></g><!--link TransportOptionStep to TransportMode--><g class="link" data-entity-1="TransportOptionStep" data-entity-2="TransportMode" data-source-line="44" data-uid="lnk19" id="link_TransportOptionStep_TransportMode"><path codeLine="44" d="M444.05,204.65 C444.05,228.79 444.05,268.19 444.05,305.48" fill="none" id="TransportOptionStep-TransportMode" style="stroke:#181818;stroke-width:1;"/><polygon fill="#000000" points="449.05,272.4564,451.9889,263.4113,446.1111,263.4113,449.05,272.4564" style="stroke:#000000;stroke-width:1;"/><text fill="#000000" font-family="sans-serif" font-size="13" lengthAdjust="spacing" textLength="29.7832" x="458.05" y="271.9569">uses</text></g><!--link TransportOptionStep to TransportingRole--><g class="link" data-entity-1="TransportOptionStep" data-entity-2="TransportingRole" data-source-line="45" data-uid="lnk20" id="link_TransportOptionStep_TransportingRole"><path codeLine="45" d="M544.25,180.44 C587.32,180.44 637.56,180.44 680.66,180.44" fill="none" id="TransportOptionStep-TransportingRole" style="stroke:#181818;stroke-width:1;"/><polygon fill="#000000" points="579.05,169.0064,570.0049,166.0675,570.0049,171.9453,579.05,169.0064" style="stroke:#000000;stroke-width:1;"/><text fill="#000000" font-family="sans-serif" font-size="13" lengthAdjust="spacing" textLength="72.395" x="583.05" y="173.5069">belongs  to</text></g><!--link TransportingActor to TransportingRole--><g class="link" data-entity-1="TransportingActor" data-entity-2="TransportingRole" data-source-line="46" data-uid="lnk21" id="link_TransportingActor_TransportingRole"><path codeLine="46" d="M781.89,55.36 C781.71,82.97 781.4,128.63 781.21,156.19" fill="none" id="TransportingActor-TransportingRole" style="stroke:#181818;stroke-width:1;"/><polygon fill="#000000" points="786.0163,98.5663,789.0161,89.5412,783.1384,89.5016,786.0163,98.5663" style="stroke:#000000;stroke-width:1;"/><text fill="#000000" font-family="sans-serif" font-size="13" lengthAdjust="spacing" textLength="22.9785" x="795.05" y="98.0669">has</text></g><!--SRC=[bPFHIyCm4CRV-rVSeme54NpnGQXJt73EqKxsEBBareLbIKZIWOpzxruwbNLjKLzA-_tkkxj-JVr6QiiSsu8s0ZrQkBrE_8zOi2qE5FD-BaLOGt0L9edK0TsASOG9OJ4sd0LfDEmJW28ugKieCMXY5vSDwH4zTzB6uffC3RMw4H5zDo7za2GyZeIPOzfRuyAR_UhVXuf0Yv_WENEuDfMdkHaFndLQVuEvKTZ9NYcfuyjQH05iLzOt93nMxXW5QKEcXQ8sCxb5Gaj3xPW6RZGrHnsOEb7hI9jeiLZGjJaq6-NJSJPvWhqFD8WVMXMp_7tmqe-BuMZQJ_DiDEw53rd-V3AOOZd_FgbAsydVmJrOoJUL_NkzG2Ltw3xQ3fTsVBzeSKYQzdAfiEMwIaNQUMAYaKUN3nxCAkcgYKisZtbq6ITBgVzXe7-B5gwVErtGsB4EFDegZxwd_YoA-hH6onALqQK722PfPvNskDRCVm80]--></g></svg>