<svg xmlns="http://www.w3.org/2000/svg" xmlns:xlink="http://www.w3.org/1999/xlink" contentStyleType="text/css" data-diagram-type="CLASS" height="500px" preserveAspectRatio="none" style="width:658px;height:500px;background:#FFFFFF;" version="1.1" viewBox="0 0 658 500" width="658px" zoomAndPan="magnify"><defs/><g><!--class WarehousingActor--><g class="entity" data-entity="WarehousingActor" data-source-line="3" data-uid="ent0002" id="entity_WarehousingActor"><rect fill="#F1F1F1" height="48" rx="2.5" ry="2.5" style="stroke:#181818;stroke-width:0.5;" width="161.1309" x="247.93" y="147.6"/><ellipse cx="262.93" cy="163.6" fill="#ADD1B2" rx="11" ry="11" style="stroke:#181818;stroke-width:1;"/><path d="M265.8988,169.2406 Q265.3206,169.5375 264.68,169.6781 Q264.0394,169.8344 263.3363,169.8344 Q260.8363,169.8344 259.5081,168.1937 Q258.1956,166.5375 258.1956,163.4125 Q258.1956,160.2875 259.5081,158.6312 Q260.8363,156.975 263.3363,156.975 Q264.0394,156.975 264.68,157.1312 Q265.3363,157.2875 265.8988,157.5844 L265.8988,160.3031 Q265.2738,159.725 264.68,159.4594 Q264.0863,159.1781 263.4613,159.1781 Q262.1175,159.1781 261.43,160.2562 Q260.7425,161.3187 260.7425,163.4125 Q260.7425,165.5062 261.43,166.5844 Q262.1175,167.6469 263.4613,167.6469 Q264.0863,167.6469 264.68,167.3812 Q265.2738,167.1 265.8988,166.5219 L265.8988,169.2406 Z " fill="#000000"/><text fill="#000000" font-family="sans-serif" font-size="14" lengthAdjust="spacing" textLength="129.1309" x="276.93" y="168.4467">WarehousingActor</text><line style="stroke:#181818;stroke-width:0.5;" x1="248.93" x2="408.0609" y1="179.6" y2="179.6"/><line style="stroke:#181818;stroke-width:0.5;" x1="248.93" x2="408.0609" y1="187.6" y2="187.6"/></g><!--class WarehousingRole--><g class="entity" data-entity="WarehousingRole" data-source-line="6" data-uid="ent0003" id="entity_WarehousingRole"><rect fill="#F1F1F1" height="48" rx="2.5" ry="2.5" style="stroke:#181818;stroke-width:0.5;" width="154.8418" x="251.08" y="288.19"/><ellipse cx="266.08" cy="304.19" fill="#ADD1B2" rx="11" ry="11" style="stroke:#181818;stroke-width:1;"/><path d="M269.0488,309.8306 Q268.4706,310.1275 267.83,310.2681 Q267.1894,310.4244 266.4863,310.4244 Q263.9863,310.4244 262.6581,308.7838 Q261.3456,307.1275 261.3456,304.0025 Q261.3456,300.8775 262.6581,299.2213 Q263.9863,297.565 266.4863,297.565 Q267.1894,297.565 267.83,297.7213 Q268.4863,297.8775 269.0488,298.1744 L269.0488,300.8931 Q268.4238,300.315 267.83,300.0494 Q267.2363,299.7681 266.6113,299.7681 Q265.2675,299.7681 264.58,300.8463 Q263.8925,301.9088 263.8925,304.0025 Q263.8925,306.0963 264.58,307.1744 Q265.2675,308.2369 266.6113,308.2369 Q267.2363,308.2369 267.83,307.9713 Q268.4238,307.69 269.0488,307.1119 L269.0488,309.8306 Z " fill="#000000"/><text fill="#000000" font-family="sans-serif" font-size="14" lengthAdjust="spacing" textLength="122.8418" x="280.08" y="309.0367">WarehousingRole</text><line style="stroke:#181818;stroke-width:0.5;" x1="252.08" x2="404.9218" y1="320.19" y2="320.19"/><line style="stroke:#181818;stroke-width:0.5;" x1="252.08" x2="404.9218" y1="328.19" y2="328.19"/></g><!--class Actor--><g class="entity" data-entity="Actor" data-source-line="9" data-uid="ent0004" id="entity_Actor"><rect fill="#F1F1F1" height="48" rx="2.5" ry="2.5" style="stroke:#181818;stroke-width:0.5;" width="69.085" x="293.96" y="7"/><ellipse cx="308.96" cy="23" fill="#A9DCDF" rx="11" ry="11" style="stroke:#181818;stroke-width:1;"/><path d="M309.0694,18.3438 L307.9131,23.4219 L310.2413,23.4219 L309.0694,18.3438 Z M307.585,16.1094 L310.5694,16.1094 L313.9288,28.5 L311.4756,28.5 L310.71,25.4375 L307.4288,25.4375 L306.6788,28.5 L304.2413,28.5 L307.585,16.1094 Z " fill="#000000"/><text fill="#000000" font-family="sans-serif" font-size="14" font-style="italic" lengthAdjust="spacing" textLength="37.085" x="322.96" y="27.8467">Actor</text><line style="stroke:#181818;stroke-width:0.5;" x1="294.96" x2="362.045" y1="39" y2="39"/><line style="stroke:#181818;stroke-width:0.5;" x1="294.96" x2="362.045" y1="47" y2="47"/></g><!--class InventoryRecord--><g class="entity" data-entity="InventoryRecord" data-source-line="12" data-uid="ent0005" id="entity_InventoryRecord"><rect fill="#F1F1F1" height="113.1875" rx="2.5" ry="2.5" style="stroke:#181818;stroke-width:0.5;" width="180.998" x="7" y="115"/><ellipse cx="36.7973" cy="131" fill="#ADD1B2" rx="11" ry="11" style="stroke:#181818;stroke-width:1;"/><path d="M39.766,136.6406 Q39.1879,136.9375 38.5473,137.0781 Q37.9066,137.2344 37.2035,137.2344 Q34.7035,137.2344 33.3754,135.5938 Q32.0629,133.9375 32.0629,130.8125 Q32.0629,127.6875 33.3754,126.0313 Q34.7035,124.375 37.2035,124.375 Q37.9066,124.375 38.5473,124.5313 Q39.2035,124.6875 39.766,124.9844 L39.766,127.7031 Q39.141,127.125 38.5473,126.8594 Q37.9535,126.5781 37.3285,126.5781 Q35.9848,126.5781 35.2973,127.6563 Q34.6098,128.7188 34.6098,130.8125 Q34.6098,132.9063 35.2973,133.9844 Q35.9848,135.0469 37.3285,135.0469 Q37.9535,135.0469 38.5473,134.7813 Q39.141,134.5 39.766,133.9219 L39.766,136.6406 Z " fill="#000000"/><text fill="#000000" font-family="sans-serif" font-size="14" lengthAdjust="spacing" textLength="116.1152" x="54.0855" y="135.8467">InventoryRecord</text><line style="stroke:#181818;stroke-width:0.5;" x1="8" x2="186.998" y1="147" y2="147"/><text fill="#000000" font-family="sans-serif" font-size="14" lengthAdjust="spacing" textLength="150.2881" x="13" y="163.9951">double actualAmount</text><text fill="#000000" font-family="sans-serif" font-size="14" lengthAdjust="spacing" textLength="168.998" x="13" y="180.292">double reservedAmount</text><text fill="#000000" font-family="sans-serif" font-size="14" lengthAdjust="spacing" textLength="162.2578" x="13" y="196.5889">double orderedAmount</text><text fill="#000000" font-family="sans-serif" font-size="14" lengthAdjust="spacing" textLength="89.1064" x="13" y="212.8857">Money value</text><line style="stroke:#181818;stroke-width:0.5;" x1="8" x2="186.998" y1="220.1875" y2="220.1875"/></g><!--class AutonomousProcess--><g class="entity" data-entity="AutonomousProcess" data-source-line="19" data-uid="ent0006" id="entity_AutonomousProcess"><rect fill="#F1F1F1" height="48" rx="2.5" ry="2.5" style="stroke:#181818;stroke-width:0.5;" width="173.9756" x="469.51" y="147.6"/><ellipse cx="484.51" cy="163.6" fill="#A9DCDF" rx="11" ry="11" style="stroke:#181818;stroke-width:1;"/><path d="M484.6194,158.9437 L483.4631,164.0219 L485.7913,164.0219 L484.6194,158.9437 Z M483.135,156.7094 L486.1194,156.7094 L489.4788,169.1 L487.0256,169.1 L486.26,166.0375 L482.9788,166.0375 L482.2288,169.1 L479.7913,169.1 L483.135,156.7094 Z " fill="#000000"/><text fill="#000000" font-family="sans-serif" font-size="14" font-style="italic" lengthAdjust="spacing" textLength="141.9756" x="498.51" y="168.4467">AutonomousProcess</text><line style="stroke:#181818;stroke-width:0.5;" x1="470.51" x2="642.4856" y1="179.6" y2="179.6"/><line style="stroke:#181818;stroke-width:0.5;" x1="470.51" x2="642.4856" y1="187.6" y2="187.6"/></g><!--class RestockingProcess--><g class="entity" data-entity="RestockingProcess" data-source-line="22" data-uid="ent0007" id="entity_RestockingProcess"><rect fill="#F1F1F1" height="48" rx="2.5" ry="2.5" style="stroke:#181818;stroke-width:0.5;" width="162.8057" x="470.1" y="288.19"/><ellipse cx="485.1" cy="304.19" fill="#A9DCDF" rx="11" ry="11" style="stroke:#181818;stroke-width:1;"/><path d="M485.2094,299.5338 L484.0531,304.6119 L486.3813,304.6119 L485.2094,299.5338 Z M483.725,297.2994 L486.7094,297.2994 L490.0688,309.69 L487.6156,309.69 L486.85,306.6275 L483.5688,306.6275 L482.8188,309.69 L480.3813,309.69 L483.725,297.2994 Z " fill="#000000"/><text fill="#000000" font-family="sans-serif" font-size="14" font-style="italic" lengthAdjust="spacing" textLength="130.8057" x="499.1" y="309.0367">RestockingProcess</text><line style="stroke:#181818;stroke-width:0.5;" x1="471.1" x2="631.9057" y1="320.19" y2="320.19"/><line style="stroke:#181818;stroke-width:0.5;" x1="471.1" x2="631.9057" y1="328.19" y2="328.19"/></g><!--class RestockingProcessFixed--><g class="entity" data-entity="RestockingProcessFixed" data-source-line="25" data-uid="ent0008" id="entity_RestockingProcessFixed"><rect fill="#F1F1F1" height="96.8906" rx="2.5" ry="2.5" style="stroke:#181818;stroke-width:0.5;" width="200.5332" x="451.23" y="396.19"/><ellipse cx="466.23" cy="412.19" fill="#ADD1B2" rx="11" ry="11" style="stroke:#181818;stroke-width:1;"/><path d="M469.1988,417.8306 Q468.6206,418.1275 467.98,418.2681 Q467.3394,418.4244 466.6363,418.4244 Q464.1363,418.4244 462.8081,416.7838 Q461.4956,415.1275 461.4956,412.0025 Q461.4956,408.8775 462.8081,407.2213 Q464.1363,405.565 466.6363,405.565 Q467.3394,405.565 467.98,405.7213 Q468.6363,405.8775 469.1988,406.1744 L469.1988,408.8931 Q468.5738,408.315 467.98,408.0494 Q467.3863,407.7681 466.7613,407.7681 Q465.4175,407.7681 464.73,408.8463 Q464.0425,409.9088 464.0425,412.0025 Q464.0425,414.0963 464.73,415.1744 Q465.4175,416.2369 466.7613,416.2369 Q467.3863,416.2369 467.98,415.9713 Q468.5738,415.69 469.1988,415.1119 L469.1988,417.8306 Z " fill="#000000"/><text fill="#000000" font-family="sans-serif" font-size="14" lengthAdjust="spacing" textLength="168.5332" x="480.23" y="417.0367">RestockingProcessFixed</text><line style="stroke:#181818;stroke-width:0.5;" x1="452.23" x2="650.7632" y1="428.19" y2="428.19"/><text fill="#000000" font-family="sans-serif" font-size="14" lengthAdjust="spacing" textLength="106.1621" x="457.23" y="445.1851">boolean ceiling</text><text fill="#000000" font-family="sans-serif" font-size="14" lengthAdjust="spacing" textLength="150.917" x="457.23" y="461.482">boolean includeClaim</text><text fill="#000000" font-family="sans-serif" font-size="14" lengthAdjust="spacing" textLength="106.1826" x="457.23" y="477.7789">double amount</text><line style="stroke:#181818;stroke-width:0.5;" x1="452.23" x2="650.7632" y1="485.0806" y2="485.0806"/></g><!--class RestockingProcessSafety--><g class="entity" data-entity="RestockingProcessSafety" data-source-line="31" data-uid="ent0009" id="entity_RestockingProcessSafety"><rect fill="#F1F1F1" height="64.2969" rx="2.5" ry="2.5" style="stroke:#181818;stroke-width:0.5;" width="207.5879" x="183.71" y="412.49"/><ellipse cx="198.71" cy="428.49" fill="#ADD1B2" rx="11" ry="11" style="stroke:#181818;stroke-width:1;"/><path d="M201.6788,434.1306 Q201.1006,434.4275 200.46,434.5681 Q199.8194,434.7244 199.1163,434.7244 Q196.6163,434.7244 195.2881,433.0837 Q193.9756,431.4275 193.9756,428.3025 Q193.9756,425.1775 195.2881,423.5212 Q196.6163,421.865 199.1163,421.865 Q199.8194,421.865 200.46,422.0212 Q201.1163,422.1775 201.6788,422.4744 L201.6788,425.1931 Q201.0538,424.615 200.46,424.3494 Q199.8663,424.0681 199.2413,424.0681 Q197.8975,424.0681 197.21,425.1462 Q196.5225,426.2087 196.5225,428.3025 Q196.5225,430.3962 197.21,431.4744 Q197.8975,432.5369 199.2413,432.5369 Q199.8663,432.5369 200.46,432.2712 Q201.0538,431.99 201.6788,431.4119 L201.6788,434.1306 Z " fill="#000000"/><text fill="#000000" font-family="sans-serif" font-size="14" lengthAdjust="spacing" textLength="175.5879" x="212.71" y="433.3367">RestockingProcessSafety</text><line style="stroke:#181818;stroke-width:0.5;" x1="184.71" x2="390.2979" y1="444.49" y2="444.49"/><text fill="#000000" font-family="sans-serif" font-size="14" lengthAdjust="spacing" textLength="150.3701" x="189.71" y="461.4851">double safetyAmount</text><line style="stroke:#181818;stroke-width:0.5;" x1="184.71" x2="390.2979" y1="468.7869" y2="468.7869"/></g><!--class Inventory--><g class="entity" data-entity="Inventory" data-source-line="37" data-uid="ent0013" id="entity_Inventory"><rect fill="#F1F1F1" height="48" rx="2.5" ry="2.5" style="stroke:#181818;stroke-width:0.5;" width="98.8691" x="70.06" y="288.19"/><ellipse cx="85.06" cy="304.19" fill="#ADD1B2" rx="11" ry="11" style="stroke:#181818;stroke-width:1;"/><path d="M88.0288,309.8306 Q87.4506,310.1275 86.81,310.2681 Q86.1694,310.4244 85.4663,310.4244 Q82.9663,310.4244 81.6381,308.7838 Q80.3256,307.1275 80.3256,304.0025 Q80.3256,300.8775 81.6381,299.2213 Q82.9663,297.565 85.4663,297.565 Q86.1694,297.565 86.81,297.7213 Q87.4663,297.8775 88.0288,298.1744 L88.0288,300.8931 Q87.4038,300.315 86.81,300.0494 Q86.2163,299.7681 85.5913,299.7681 Q84.2475,299.7681 83.56,300.8463 Q82.8725,301.9088 82.8725,304.0025 Q82.8725,306.0963 83.56,307.1744 Q84.2475,308.2369 85.5913,308.2369 Q86.2163,308.2369 86.81,307.9713 Q87.4038,307.69 88.0288,307.1119 L88.0288,309.8306 Z " fill="#000000"/><text fill="#000000" font-family="sans-serif" font-size="14" lengthAdjust="spacing" textLength="66.8691" x="99.06" y="309.0367">Inventory</text><line style="stroke:#181818;stroke-width:0.5;" x1="71.06" x2="167.9291" y1="320.19" y2="320.19"/><line style="stroke:#181818;stroke-width:0.5;" x1="71.06" x2="167.9291" y1="328.19" y2="328.19"/></g><!--class Product--><g class="entity" data-entity="Product" data-source-line="39" data-uid="ent0018" id="entity_Product"><rect fill="#F1F1F1" height="48" rx="2.5" ry="2.5" style="stroke:#181818;stroke-width:0.5;" width="85.71" x="54.64" y="7"/><ellipse cx="69.64" cy="23" fill="#ADD1B2" rx="11" ry="11" style="stroke:#181818;stroke-width:1;"/><path d="M72.6088,28.6406 Q72.0306,28.9375 71.39,29.0781 Q70.7494,29.2344 70.0463,29.2344 Q67.5463,29.2344 66.2181,27.5938 Q64.9056,25.9375 64.9056,22.8125 Q64.9056,19.6875 66.2181,18.0313 Q67.5463,16.375 70.0463,16.375 Q70.7494,16.375 71.39,16.5313 Q72.0463,16.6875 72.6088,16.9844 L72.6088,19.7031 Q71.9838,19.125 71.39,18.8594 Q70.7963,18.5781 70.1713,18.5781 Q68.8275,18.5781 68.14,19.6563 Q67.4525,20.7188 67.4525,22.8125 Q67.4525,24.9063 68.14,25.9844 Q68.8275,27.0469 70.1713,27.0469 Q70.7963,27.0469 71.39,26.7813 Q71.9838,26.5 72.6088,25.9219 L72.6088,28.6406 Z " fill="#000000"/><text fill="#000000" font-family="sans-serif" font-size="14" lengthAdjust="spacing" textLength="53.71" x="83.64" y="27.8467">Product</text><line style="stroke:#181818;stroke-width:0.5;" x1="55.64" x2="139.35" y1="39" y2="39"/><line style="stroke:#181818;stroke-width:0.5;" x1="55.64" x2="139.35" y1="47" y2="47"/></g><!--reverse link Actor to WarehousingActor--><g class="link" data-entity-1="Actor" data-entity-2="WarehousingActor" data-source-line="35" data-uid="lnk11" id="link_Actor_WarehousingActor"><path codeLine="35" d="M328.5,73.2 C328.5,98.78 328.5,121.71 328.5,147.32" fill="none" id="Actor-backto-WarehousingActor" style="stroke:#181818;stroke-width:1;"/><polygon fill="none" points="328.5,55.2,322.5,73.2,334.5,73.2,328.5,55.2" style="stroke:#181818;stroke-width:1;"/></g><!--link WarehousingActor to WarehousingRole--><g class="link" data-entity-1="WarehousingActor" data-entity-2="WarehousingRole" data-source-line="36" data-uid="lnk12" id="link_WarehousingActor_WarehousingRole"><path codeLine="36" d="M328.5,195.79 C328.5,221.38 328.5,262.3 328.5,287.92" fill="none" id="WarehousingActor-WarehousingRole" style="stroke:#181818;stroke-width:1;"/></g><!--link Inventory to WarehousingRole--><g class="link" data-entity-1="Inventory" data-entity-2="WarehousingRole" data-source-line="37" data-uid="lnk15" id="link_Inventory_WarehousingRole"><path codeLine="37" d="M169.3,312.19 C196.45,312.19 223.61,312.19 250.77,312.19" fill="none" id="Inventory-WarehousingRole" style="stroke:#181818;stroke-width:1;"/></g><!--link InventoryRecord to Inventory--><g class="link" data-entity-1="InventoryRecord" data-entity-2="Inventory" data-source-line="38" data-uid="lnk17" id="link_InventoryRecord_Inventory"><path codeLine="38" d="M106.38,228.57 C109.68,249.3 111.3472,259.8386 113.9272,276.0786" fill="none" id="InventoryRecord-to-Inventory" style="stroke:#181818;stroke-width:1;"/><polygon fill="#181818" points="115.81,287.93,118.8191,281.3767,113.9272,276.0786,110.9181,282.6319,115.81,287.93" style="stroke:#181818;stroke-width:1;"/></g><!--link Product to InventoryRecord--><g class="link" data-entity-1="Product" data-entity-2="InventoryRecord" data-source-line="39" data-uid="lnk20" id="link_Product_InventoryRecord"><path codeLine="39" d="M97.5,55.2 C97.5,71.46 97.5,93.92 97.5,114.7" fill="none" id="Product-InventoryRecord" style="stroke:#181818;stroke-width:1;"/></g><!--link WarehousingRole to RestockingProcess--><g class="link" data-entity-1="WarehousingRole" data-entity-2="RestockingProcess" data-source-line="40" data-uid="lnk21" id="link_WarehousingRole_RestockingProcess"><path codeLine="40" d="M406.03,312.19 C427.24,312.19 448.46,312.19 469.67,312.19" fill="none" id="WarehousingRole-RestockingProcess" style="stroke:#181818;stroke-width:1;"/></g><!--reverse link AutonomousProcess to RestockingProcess--><g class="link" data-entity-1="AutonomousProcess" data-entity-2="RestockingProcess" data-source-line="41" data-uid="lnk23" id="link_AutonomousProcess_RestockingProcess"><path codeLine="41" d="M555.0133,213.7784 C554.0933,239.3684 553.26,262.3 552.34,287.92" fill="none" id="AutonomousProcess-backto-RestockingProcess" style="stroke:#181818;stroke-width:1;"/><polygon fill="none" points="555.66,195.79,549.0172,213.5628,561.0094,213.9939,555.66,195.79" style="stroke:#181818;stroke-width:1;"/></g><!--reverse link RestockingProcess to RestockingProcessFixed--><g class="link" data-entity-1="RestockingProcess" data-entity-2="RestockingProcessFixed" data-source-line="42" data-uid="lnk24" id="link_RestockingProcess_RestockingProcessFixed"><path codeLine="42" d="M551.5,354.51 C551.5,371 551.5,375.68 551.5,395.93" fill="none" id="RestockingProcess-backto-RestockingProcessFixed" style="stroke:#181818;stroke-width:1;"/><polygon fill="none" points="551.5,336.51,545.5,354.51,557.5,354.51,551.5,336.51" style="stroke:#181818;stroke-width:1;"/></g><!--link RestockingProcessSafety to RestockingProcessFixed--><g class="link" data-entity-1="RestockingProcessSafety" data-entity-2="RestockingProcessFixed" data-source-line="43" data-uid="lnk26" id="link_RestockingProcessSafety_RestockingProcessFixed"><path codeLine="43" d="M391.66,444.63 C411.43,444.63 413.2,444.63 432.97,444.63" fill="none" id="RestockingProcessSafety-to-RestockingProcessFixed" style="stroke:#181818;stroke-width:1;"/><polygon fill="none" points="450.97,444.63,432.97,438.63,432.97,450.63,450.97,444.63" style="stroke:#181818;stroke-width:1;"/></g><!--SRC=[TL5DIyGm4BtdL-Gi13nv4g48WWT1kWVFqsHSWsbcoKVPikj_TxIoMvFc5jv7cFTU_BJ-0056wSbWn8EyknL2EuXHla703yhH-dsd4mLv4byRN4yE5mg6c0Be91TDPNhs4th6vXur1SEKb8Rom7vsPN3TIDcdAnhueZ2XAN4sOrZ1B-HnbXEuZ5jtv4IUM1jV0sbaPElQ7cCYpNNi_waQv9CzuX9W8CuFNcgqZlaLOhrssU2Z0pkkaYv7jx_UmJkcULrE_4MwYx4QHcLrVbZwtY2DAkSIvNpAgUiwulAID_npEPieP_pHyEqcwrH_75ITKDHT_oKebzfGtf-LQkmX6ZEnnQbMqTy0]--></g></svg>