<svg xmlns="http://www.w3.org/2000/svg" xmlns:xlink="http://www.w3.org/1999/xlink" contentStyleType="text/css" data-diagram-type="DESCRIPTION" height="611px" preserveAspectRatio="none" style="width:1033px;height:611px;background:#FFFFFF;" version="1.1" viewBox="0 0 1033 611" width="1033px" zoomAndPan="magnify"><defs/><g><!--entity GD--><g class="entity" data-entity="GD" data-source-line="3" data-uid="ent0002" id="entity_GD"><ellipse cx="164.1707" cy="126.56" fill="#F1F1F1" rx="8" ry="8" style="stroke:#181818;stroke-width:0.5;"/><path d="M164.1707,134.56 L164.1707,161.56 M151.1707,142.56 L177.1707,142.56 M164.1707,161.56 L151.1707,176.56 M164.1707,161.56 L177.1707,176.56" fill="none" style="stroke:#181818;stroke-width:0.5;"/><text fill="#000000" font-family="sans-serif" font-size="14" lengthAdjust="spacing" textLength="106.9414" x="110.7" y="191.0551">Game designer</text></g><!--entity User--><g class="entity" data-entity="User" data-source-line="4" data-uid="ent0003" id="entity_User"><ellipse cx="21.9551" cy="247.56" fill="#F1F1F1" rx="8" ry="8" style="stroke:#181818;stroke-width:0.5;"/><path d="M21.9551,255.56 L21.9551,282.56 M8.9551,263.56 L34.9551,263.56 M21.9551,282.56 L8.9551,297.56 M21.9551,282.56 L34.9551,297.56" fill="none" style="stroke:#181818;stroke-width:0.5;"/><text fill="#000000" font-family="sans-serif" font-size="14" lengthAdjust="spacing" textLength="31.9102" x="6" y="312.0551">User</text></g><!--entity Login--><g class="entity" data-entity="Login" data-source-line="6" data-uid="ent0005" id="entity_Login"><ellipse cx="164.1704" cy="244.2136" fill="#F1F1F1" rx="29.8804" ry="14.5236" style="stroke:#181818;stroke-width:0.5;"/><text fill="#000000" font-family="sans-serif" font-size="14" lengthAdjust="spacing" textLength="38.0146" x="145.1631" y="248.8621">Login</text></g><!--entity Set password--><g class="entity" data-entity="Set password" data-source-line="7" data-uid="ent0007" id="entity_Set password"><ellipse cx="164.1679" cy="309.2116" fill="#F1F1F1" rx="65.2579" ry="15.4516" style="stroke:#181818;stroke-width:0.5;"/><text fill="#000000" font-family="sans-serif" font-size="14" lengthAdjust="spacing" textLength="94.1514" x="117.0922" y="313.86">Set password</text></g><!--entity Logout--><g class="entity" data-entity="Logout" data-source-line="8" data-uid="ent0009" id="entity_Logout"><ellipse cx="164.1682" cy="374.2136" fill="#F1F1F1" rx="37.0682" ry="14.5236" style="stroke:#181818;stroke-width:0.5;"/><text fill="#000000" font-family="sans-serif" font-size="14" lengthAdjust="spacing" textLength="48.1797" x="140.0783" y="378.8621">Logout</text></g><!--entity Create game version--><g class="entity" data-entity="Create game version" data-source-line="10" data-uid="ent0011" id="entity_Create game version"><ellipse cx="416.0042" cy="54.2128" fill="#F1F1F1" rx="86.9142" ry="19.7828" style="stroke:#181818;stroke-width:0.5;"/><text fill="#000000" font-family="sans-serif" font-size="14" lengthAdjust="spacing" textLength="146.7197" x="342.6444" y="58.8613">Create game version</text></g><!--entity Clone game version--><g class="entity" data-entity="Clone game version" data-source-line="12" data-uid="ent0013" id="entity_Clone game version"><ellipse cx="415.995" cy="128.215" fill="#F1F1F1" rx="83.825" ry="19.165" style="stroke:#181818;stroke-width:0.5;"/><text fill="#000000" font-family="sans-serif" font-size="14" lengthAdjust="spacing" textLength="139.6104" x="346.1899" y="132.8634">Clone game version</text></g><!--entity Delete game version--><g class="entity" data-entity="Delete game version" data-source-line="13" data-uid="ent0015" id="entity_Delete game version"><ellipse cx="416.0029" cy="202.2106" fill="#F1F1F1" rx="86.5529" ry="19.7106" style="stroke:#181818;stroke-width:0.5;"/><text fill="#000000" font-family="sans-serif" font-size="14" lengthAdjust="spacing" textLength="145.8926" x="343.0566" y="206.859">Delete game version</text></g><!--entity Design game version--><g class="entity" data-entity="Design game version" data-source-line="15" data-uid="ent0017" id="entity_Design game version"><ellipse cx="415.9954" cy="300.2051" fill="#F1F1F1" rx="87.5754" ry="19.9151" style="stroke:#181818;stroke-width:0.5;"/><text fill="#000000" font-family="sans-serif" font-size="14" lengthAdjust="spacing" textLength="148.2305" x="341.8801" y="304.8535">Design game version</text></g><!--entity Choose game version--><g class="entity" data-entity="Choose game version" data-source-line="16" data-uid="ent0019" id="entity_Choose game version"><ellipse cx="718.9968" cy="26.2094" fill="#F1F1F1" rx="89.0468" ry="20.2094" style="stroke:#181818;stroke-width:0.5;"/><text fill="#000000" font-family="sans-serif" font-size="14" lengthAdjust="spacing" textLength="151.5801" x="643.2068" y="30.8578">Choose game version</text></g><!--entity Set goals--><g class="entity" data-entity="Set goals" data-source-line="17" data-uid="ent0021" id="entity_Set goals"><ellipse cx="718.9975" cy="96.2136" fill="#F1F1F1" rx="48.7175" ry="14.5236" style="stroke:#181818;stroke-width:0.5;"/><text fill="#000000" font-family="sans-serif" font-size="14" lengthAdjust="spacing" textLength="64.6543" x="686.6703" y="100.8621">Set goals</text></g><!--entity Set actors--><g class="entity" data-entity="Set actors" data-source-line="18" data-uid="ent0023" id="entity_Set actors"><ellipse cx="718.9975" cy="160.2136" fill="#F1F1F1" rx="53.0775" ry="14.5236" style="stroke:#181818;stroke-width:0.5;"/><text fill="#000000" font-family="sans-serif" font-size="14" lengthAdjust="spacing" textLength="70.8203" x="683.5874" y="164.8621">Set actors</text></g><!--entity Show defined actors--><g class="entity" data-entity="Show defined actors" data-source-line="19" data-uid="ent0025" id="entity_Show defined actors"><ellipse cx="719.0038" cy="229.2068" fill="#F1F1F1" rx="85.1838" ry="19.4368" style="stroke:#181818;stroke-width:0.5;"/><text fill="#000000" font-family="sans-serif" font-size="14" lengthAdjust="spacing" textLength="142.748" x="647.6298" y="233.8552">Show defined actors</text></g><!--entity Show actor map--><g class="entity" data-entity="Show actor map" data-source-line="20" data-uid="ent0027" id="entity_Show actor map"><ellipse cx="718.9993" cy="300.2119" fill="#F1F1F1" rx="73.0093" ry="17.0019" style="stroke:#181818;stroke-width:0.5;"/><text fill="#000000" font-family="sans-serif" font-size="14" lengthAdjust="spacing" textLength="113.8662" x="662.0662" y="304.8603">Show actor map</text></g><!--entity Set scenario--><g class="entity" data-entity="Set scenario" data-source-line="21" data-uid="ent0029" id="entity_Set scenario"><ellipse cx="719.0033" cy="367.2087" fill="#F1F1F1" rx="62.4933" ry="14.8987" style="stroke:#181818;stroke-width:0.5;"/><text fill="#000000" font-family="sans-serif" font-size="14" lengthAdjust="spacing" textLength="86.707" x="675.6498" y="371.8571">Set scenario</text></g><!--entity Show scenario timeline--><g class="entity" data-entity="Show scenario timeline" data-source-line="22" data-uid="ent0031" id="entity_Show scenario timeline"><ellipse cx="719.0042" cy="438.2088" fill="#F1F1F1" rx="94.0442" ry="21.2088" style="stroke:#181818;stroke-width:0.5;"/><text fill="#000000" font-family="sans-serif" font-size="14" lengthAdjust="spacing" textLength="162.8389" x="637.5848" y="442.8573">Show scenario timeline</text></g><!--entity Set allowable strategies--><g class="entity" data-entity="Set allowable strategies" data-source-line="23" data-uid="ent0033" id="entity_Set allowable strategies"><ellipse cx="719.0006" cy="516.2141" fill="#F1F1F1" rx="96.4206" ry="21.6841" style="stroke:#181818;stroke-width:0.5;"/><text fill="#000000" font-family="sans-serif" font-size="14" lengthAdjust="spacing" textLength="168.1367" x="634.9323" y="520.8626">Set allowable strategies</text></g><!--entity Set news items--><g class="entity" data-entity="Set news items" data-source-line="24" data-uid="ent0035" id="entity_Set news items"><ellipse cx="719.0046" cy="589.2129" fill="#F1F1F1" rx="70.2646" ry="16.4529" style="stroke:#181818;stroke-width:0.5;"/><text fill="#000000" font-family="sans-serif" font-size="14" lengthAdjust="spacing" textLength="107.0439" x="665.4826" y="593.8614">Set news items</text></g><!--entity Set parameters--><g class="entity" data-entity="Set parameters" data-source-line="25" data-uid="ent0037" id="entity_Set parameters"><ellipse cx="951.9227" cy="257.2105" fill="#F1F1F1" rx="70.9027" ry="16.5805" style="stroke:#181818;stroke-width:0.5;"/><text fill="#000000" font-family="sans-serif" font-size="14" lengthAdjust="spacing" textLength="108.6436" x="897.601" y="261.859">Set parameters</text></g><!--entity Set interventions--><g class="entity" data-entity="Set interventions" data-source-line="26" data-uid="ent0039" id="entity_Set interventions"><ellipse cx="951.9219" cy="367.2104" fill="#F1F1F1" rx="75.5019" ry="17.5004" style="stroke:#181818;stroke-width:0.5;"/><text fill="#000000" font-family="sans-serif" font-size="14" lengthAdjust="spacing" textLength="119.9434" x="891.9502" y="371.8588">Set interventions</text></g><!--reverse link User to GD--><g class="link" data-entity-1="User" data-entity-2="GD" data-source-line="4" data-uid="lnk4" id="link_User_GD"><path d="M51.8554,252.2678 C71.0154,235.7278 91.09,218.41 118.66,194.62" fill="none" id="User-backto-GD" style="stroke:#181818;stroke-width:1;"/><polygon fill="none" points="38.23,264.03,55.7761,256.8096,47.9346,247.726,38.23,264.03" style="stroke:#181818;stroke-width:1;"/></g><!--link User to Login--><g class="link" data-entity-1="User" data-entity-2="Login" data-source-line="6" data-uid="lnk6" id="link_User_Login"><path d="M38.34,273.39 C47.02,271.25 58.06,268.55 67.91,266.21 C91.03,260.71 111.501,255.9875 130.611,251.6175" fill="none" id="User-to-Login" style="stroke:#181818;stroke-width:1;"/><polygon fill="#181818" points="136.46,250.28,126.7948,248.387,131.5858,251.3946,128.5782,256.1856,136.46,250.28" style="stroke:#181818;stroke-width:1;"/></g><!--link User to Set password--><g class="link" data-entity-1="User" data-entity-2="Set password" data-source-line="7" data-uid="lnk8" id="link_User_Set password"><path d="M38.23,280.69 C56.75,284.92 83.0106,290.9143 110.0306,297.0843" fill="none" id="User-to-Set password" style="stroke:#181818;stroke-width:1;"/><polygon fill="#181818" points="115.88,298.42,107.9963,292.5168,111.0055,297.3069,106.2154,300.3161,115.88,298.42" style="stroke:#181818;stroke-width:1;"/></g><!--link User to Logout--><g class="link" data-entity-1="User" data-entity-2="Logout" data-source-line="8" data-uid="lnk10" id="link_User_Logout"><path d="M38.34,292.37 C53.07,306.39 76.34,327.26 98.91,342.21 C111.28,350.4 120.585,355.3697 132.835,361.0397" fill="none" id="User-to-Logout" style="stroke:#181818;stroke-width:1;"/><polygon fill="#181818" points="138.28,363.56,131.7926,356.1496,133.7425,361.4598,128.4323,363.4096,138.28,363.56" style="stroke:#181818;stroke-width:1;"/></g><!--link GD to Create game version--><g class="link" data-entity-1="GD" data-entity-2="Create game version" data-source-line="10" data-uid="lnk12" id="link_GD_Create game version"><path d="M217.85,134.7 C263.8,115.94 324.0751,91.3277 366.7951,73.8877" fill="none" id="GD-to-Create game version" style="stroke:#181818;stroke-width:1;"/><polygon fill="#181818" points="372.35,71.62,362.5058,71.3183,367.7209,73.5098,365.5294,78.7249,372.35,71.62" style="stroke:#181818;stroke-width:1;"/></g><!--link GD to Clone game version--><g class="link" data-entity-1="GD" data-entity-2="Clone game version" data-source-line="12" data-uid="lnk14" id="link_GD_Clone game version"><path d="M217.85,150.3 C253.35,146.32 294.7574,141.6889 334.1574,137.2689" fill="none" id="GD-to-Clone game version" style="stroke:#181818;stroke-width:1;"/><polygon fill="#181818" points="340.12,136.6,330.7302,133.6283,335.1512,137.1574,331.622,141.5784,340.12,136.6" style="stroke:#181818;stroke-width:1;"/></g><!--link GD to Delete game version--><g class="link" data-entity-1="GD" data-entity-2="Delete game version" data-source-line="13" data-uid="lnk16" id="link_GD_Delete game version"><path d="M217.85,165.91 C255.64,172.87 300.9793,181.2128 341.7393,188.7228" fill="none" id="GD-to-Delete game version" style="stroke:#181818;stroke-width:1;"/><polygon fill="#181818" points="347.64,189.81,339.5138,184.2454,342.7228,188.904,338.0642,192.113,347.64,189.81" style="stroke:#181818;stroke-width:1;"/></g><!--link GD to Design game version--><g class="link" data-entity-1="GD" data-entity-2="Design game version" data-source-line="15" data-uid="lnk18" id="link_GD_Design game version"><path d="M214.21,194.71 C219.73,200.23 224.97,206.12 229.43,212.21 C249.18,239.19 232.63,261.21 259.43,281.21 C279.71,296.34 299.8057,302.4354 324.7957,304.7554" fill="none" id="GD-to-Design game version" style="stroke:#181818;stroke-width:1;"/><polygon fill="#181818" points="330.77,305.31,322.1783,300.4952,325.7914,304.8478,321.4388,308.4609,330.77,305.31" style="stroke:#181818;stroke-width:1;"/><text fill="#000000" font-family="sans-serif" font-size="13" lengthAdjust="spacing" textLength="37.1909" x="260.43" y="202.2769">&#160;&#160;&#160;&#160;&#160;&#160;&#160;&#160;&#160;</text><text fill="#000000" font-family="sans-serif" font-size="13" lengthAdjust="spacing" textLength="4.1323" x="276.9593" y="217.4097">&#160;</text><text fill="#000000" font-family="sans-serif" font-size="13" lengthAdjust="spacing" textLength="4.1323" x="276.9593" y="232.5425">&#160;</text><text fill="#000000" font-family="sans-serif" font-size="13" lengthAdjust="spacing" textLength="4.1323" x="276.9593" y="247.6753">&#160;</text><text fill="#000000" font-family="sans-serif" font-size="13" lengthAdjust="spacing" textLength="4.1323" x="276.9593" y="262.8081">&#160;</text><text fill="#000000" font-family="sans-serif" font-size="13" lengthAdjust="spacing" textLength="4.1323" x="276.9593" y="277.941">&#160;</text></g><!--link Design game version to Choose game version--><g class="link" data-entity-1="Design game version" data-entity-2="Choose game version" data-source-line="16" data-uid="lnk20" id="link_Design game version_Choose game version"><path d="M453.31,281.93 C470.72,271.53 490.55,257.02 503.58,239.21 C529.71,203.47 509.6,181.43 533.58,144.21 C562.38,99.49 577.39,92.26 622.58,64.21 C636.06,55.84 646.1138,50.8796 660.7838,45.1296" fill="none" id="Design game version-to-Choose game version" style="stroke:#181818;stroke-width:1;"/><polygon fill="#181818" points="666.37,42.94,656.531,42.5002,661.7148,44.7646,659.4504,49.9485,666.37,42.94" style="stroke:#181818;stroke-width:1;"/><text fill="#000000" font-family="sans-serif" font-size="13" lengthAdjust="spacing" textLength="57.8525" x="534.58" y="80.2769">&#160;&#160;&#160;&#160;&#160;&#160;&#160;&#160;&#160;&#160;&#160;&#160;&#160;&#160;</text></g><!--link Design game version to Set goals--><g class="link" data-entity-1="Design game version" data-entity-2="Set goals" data-source-line="17" data-uid="lnk22" id="link_Design game version_Set goals"><path d="M449.14,281.5 C466.43,270.51 487.45,255.58 503.58,239.21 C520.18,222.34 517.24,212.33 533.58,195.21 C567.76,159.39 578.76,151.26 622.58,128.21 C640.98,118.52 657.1349,112.6268 675.3149,107.2668" fill="none" id="Design game version-to-Set goals" style="stroke:#181818;stroke-width:1;"/><polygon fill="#181818" points="681.07,105.57,671.3062,104.2784,676.2741,106.984,673.5686,111.9519,681.07,105.57" style="stroke:#181818;stroke-width:1;"/></g><!--link Design game version to Set actors--><g class="link" data-entity-1="Design game version" data-entity-2="Set actors" data-source-line="18" data-uid="lnk24" id="link_Design game version_Set actors"><path d="M448.97,281.35 C488.75,258.38 559.18,219.28 622.58,192.21 C641.7,184.04 657.9363,178.35 675.9663,172.68" fill="none" id="Design game version-to-Set actors" style="stroke:#181818;stroke-width:1;"/><polygon fill="#181818" points="681.69,170.88,671.9046,169.7642,676.9203,172.38,674.3045,177.3957,681.69,170.88" style="stroke:#181818;stroke-width:1;"/></g><!--link Design game version to Show defined actors--><g class="link" data-entity-1="Design game version" data-entity-2="Show defined actors" data-source-line="19" data-uid="lnk26" id="link_Design game version_Show defined actors"><path d="M477.91,285.84 C530.56,273.42 600.3701,256.947 652.6201,244.627" fill="none" id="Design game version-to-Show defined actors" style="stroke:#181818;stroke-width:1;"/><polygon fill="#181818" points="658.46,243.25,648.7822,241.4222,653.5935,244.3975,650.6182,249.2087,658.46,243.25" style="stroke:#181818;stroke-width:1;"/></g><!--link Design game version to Show actor map--><g class="link" data-entity-1="Design game version" data-entity-2="Show actor map" data-source-line="20" data-uid="lnk28" id="link_Design game version_Show actor map"><path d="M504.06,300.21 C549.03,300.21 597.25,300.21 639.85,300.21" fill="none" id="Design game version-to-Show actor map" style="stroke:#181818;stroke-width:1;"/><polygon fill="#181818" points="645.85,300.21,636.85,296.21,640.85,300.21,636.85,304.21,645.85,300.21" style="stroke:#181818;stroke-width:1;"/></g><!--link Design game version to Set scenario--><g class="link" data-entity-1="Design game version" data-entity-2="Set scenario" data-source-line="21" data-uid="lnk30" id="link_Design game version_Set scenario"><path d="M479.73,314.17 C537.11,326.94 614.7834,344.2362 666.1734,355.6762" fill="none" id="Design game version-to-Set scenario" style="stroke:#181818;stroke-width:1;"/><polygon fill="#181818" points="672.03,356.98,664.1142,351.1199,667.1495,355.8935,662.3759,358.9288,672.03,356.98" style="stroke:#181818;stroke-width:1;"/></g><!--link Design game version to Show scenario timeline--><g class="link" data-entity-1="Design game version" data-entity-2="Show scenario timeline" data-source-line="22" data-uid="lnk32" id="link_Design game version_Show scenario timeline"><path d="M453.45,318.59 C494.3,339 562.67,372.57 622.58,399.21 C638.28,406.19 650.0603,411.1639 665.6103,417.4739" fill="none" id="Design game version-to-Show scenario timeline" style="stroke:#181818;stroke-width:1;"/><polygon fill="#181818" points="671.17,419.73,664.3345,412.6395,666.5369,417.85,661.3264,420.0524,671.17,419.73" style="stroke:#181818;stroke-width:1;"/></g><!--link Design game version to Set allowable strategies--><g class="link" data-entity-1="Design game version" data-entity-2="Set allowable strategies" data-source-line="23" data-uid="lnk34" id="link_Design game version_Set allowable strategies"><path d="M435.46,319.84 C469.59,355.22 546.06,430.36 622.58,477.21 C635.55,485.15 644.8767,489.8482 658.9567,495.6082" fill="none" id="Design game version-to-Set allowable strategies" style="stroke:#181818;stroke-width:1;"/><polygon fill="#181818" points="664.51,497.88,657.6946,490.7701,659.8823,495.9868,654.6655,498.1745,664.51,497.88" style="stroke:#181818;stroke-width:1;"/></g><!--link Design game version to Set news items--><g class="link" data-entity-1="Design game version" data-entity-2="Set news items" data-source-line="24" data-uid="lnk36" id="link_Design game version_Set news items"><path d="M427.1,320.11 C452.7,368.48 525.11,492.82 622.58,555.21 C637.09,564.5 648.7868,569.7659 664.7168,575.0659" fill="none" id="Design game version-to-Set news items" style="stroke:#181818;stroke-width:1;"/><polygon fill="#181818" points="670.41,576.96,663.133,570.3233,665.6657,575.3815,660.6075,577.9142,670.41,576.96" style="stroke:#181818;stroke-width:1;"/></g><!--link Set scenario to Set parameters--><g class="link" data-entity-1="Set scenario" data-entity-2="Set parameters" data-source-line="25" data-uid="lnk38" id="link_Set scenario_Set parameters"><path d="M760.13,355.7 C777.44,350.24 797.73,343.17 815.42,335.21 C856.01,316.94 895.1438,293.2904 921.6738,276.3404" fill="none" id="Set scenario-to-Set parameters" style="stroke:#181818;stroke-width:1;"/><polygon fill="#181818" points="926.73,273.11,916.9922,274.5848,922.5165,275.802,921.2994,281.3263,926.73,273.11" style="stroke:#181818;stroke-width:1;"/></g><!--link Set scenario to Set interventions--><g class="link" data-entity-1="Set scenario" data-entity-2="Set interventions" data-source-line="26" data-uid="lnk40" id="link_Set scenario_Set interventions"><path d="M781.88,367.21 C810.87,367.21 839.65,367.21 870.11,367.21" fill="none" id="Set scenario-to-Set interventions" style="stroke:#181818;stroke-width:1;"/><polygon fill="#181818" points="876.11,367.21,867.11,363.21,871.11,367.21,867.11,371.21,876.11,367.21" style="stroke:#181818;stroke-width:1;"/></g><!--link Set actors to Set parameters--><g class="link" data-entity-1="Set actors" data-entity-2="Set parameters" data-source-line="27" data-uid="lnk41" id="link_Set actors_Set parameters"><path d="M755.72,171.03 C773.81,176.8 795.99,184.32 815.42,192.21 C852.77,207.36 889.0501,225.1641 916.1801,239.0641" fill="none" id="Set actors-to-Set parameters" style="stroke:#181818;stroke-width:1;"/><polygon fill="#181818" points="921.52,241.8,915.334,234.1362,917.0701,239.5201,911.6862,241.2561,921.52,241.8" style="stroke:#181818;stroke-width:1;"/></g><!--SRC=[ZPAnReGm38RtF8N5L0PUeAfkAH9BjwhRBIduGgGGdsptMFhm5w18K5r9dId-lzX_d0IyA2W1UzShT9wnLK_HcAAn0qA7ubr4Bi0ADBNv46Hu-QwgQRFigke4Js_aV2mtYNTKk5gHaRWhzo1zQMbCKo-9LqQh26xgTaEMr7oh1eg_nLMhCU3V9-lP-Lw5PoXWZNDSLs4Uquk3daZmeCuSXoMcMJYoGSeSPLibpc0zZUbPBZvYzsz-vc2mrwm3QJ5QzfIlkPAWVi2GxEHl5mADzZCWY79wTESnFvA8eu1N72Pqvt3xqJWTLkG3niUatp1Eltl5ViRtiD0T]--></g></svg>