<svg xmlns="http://www.w3.org/2000/svg" xmlns:xlink="http://www.w3.org/1999/xlink" contentStyleType="text/css" data-diagram-type="DESCRIPTION" height="602px" preserveAspectRatio="none" style="width:987px;height:602px;background:#FFFFFF;" version="1.1" viewBox="0 0 987 602" width="987px" zoomAndPan="magnify"><defs/><g><!--entity GD--><g class="entity" data-entity="GD" data-source-line="3" data-uid="ent0002" id="entity_GD"><ellipse cx="164.1707" cy="118.93" fill="#F1F1F1" rx="8" ry="8" style="stroke:#181818;stroke-width:0.5;"/><path d="M164.1707,126.93 L164.1707,153.93 M151.1707,134.93 L177.1707,134.93 M164.1707,153.93 L151.1707,168.93 M164.1707,153.93 L177.1707,168.93" fill="none" style="stroke:#181818;stroke-width:0.5;"/><text fill="#000000" font-family="sans-serif" font-size="14" lengthAdjust="spacing" textLength="106.9414" x="110.7" y="183.4251">Game designer</text></g><!--entity User--><g class="entity" data-entity="User" data-source-line="4" data-uid="ent0003" id="entity_User"><ellipse cx="21.9551" cy="239.93" fill="#F1F1F1" rx="8" ry="8" style="stroke:#181818;stroke-width:0.5;"/><path d="M21.9551,247.93 L21.9551,274.93 M8.9551,255.93 L34.9551,255.93 M21.9551,274.93 L8.9551,289.93 M21.9551,274.93 L34.9551,289.93" fill="none" style="stroke:#181818;stroke-width:0.5;"/><text fill="#000000" font-family="sans-serif" font-size="14" lengthAdjust="spacing" textLength="31.9102" x="6" y="304.4251">User</text></g><!--entity Login--><g class="entity" data-entity="Login" data-source-line="6" data-uid="ent0005" id="entity_Login"><ellipse cx="164.1704" cy="236.5836" fill="#F1F1F1" rx="29.8804" ry="14.5236" style="stroke:#181818;stroke-width:0.5;"/><text fill="#000000" font-family="sans-serif" font-size="14" lengthAdjust="spacing" textLength="38.0146" x="145.1631" y="241.2321">Login</text></g><!--entity Set password--><g class="entity" data-entity="Set password" data-source-line="7" data-uid="ent0007" id="entity_Set password"><ellipse cx="164.1679" cy="301.5816" fill="#F1F1F1" rx="65.2579" ry="15.4516" style="stroke:#181818;stroke-width:0.5;"/><text fill="#000000" font-family="sans-serif" font-size="14" lengthAdjust="spacing" textLength="94.1514" x="117.0922" y="306.23">Set password</text></g><!--entity Logout--><g class="entity" data-entity="Logout" data-source-line="8" data-uid="ent0009" id="entity_Logout"><ellipse cx="164.1682" cy="366.5836" fill="#F1F1F1" rx="37.0682" ry="14.5236" style="stroke:#181818;stroke-width:0.5;"/><text fill="#000000" font-family="sans-serif" font-size="14" lengthAdjust="spacing" textLength="48.1797" x="140.0783" y="371.2321">Logout</text></g><!--entity Create game--><g class="entity" data-entity="Create game" data-source-line="10" data-uid="ent0011" id="entity_Create game"><ellipse cx="393.0626" cy="57.5845" fill="#F1F1F1" rx="64.0726" ry="15.2145" style="stroke:#181818;stroke-width:0.5;"/><text fill="#000000" font-family="sans-serif" font-size="14" lengthAdjust="spacing" textLength="90.9932" x="347.566" y="62.233">Create game</text></g><!--entity Clone game--><g class="entity" data-entity="Clone game" data-source-line="12" data-uid="ent0013" id="entity_Clone game"><ellipse cx="393.0626" cy="122.5845" fill="#F1F1F1" rx="61.4726" ry="14.6945" style="stroke:#181818;stroke-width:0.5;"/><text fill="#000000" font-family="sans-serif" font-size="14" lengthAdjust="spacing" textLength="83.8838" x="351.1207" y="127.233">Clone game</text></g><!--entity Delete game--><g class="entity" data-entity="Delete game" data-source-line="13" data-uid="ent0015" id="entity_Delete game"><ellipse cx="393.0551" cy="187.583" fill="#F1F1F1" rx="63.7651" ry="15.153" style="stroke:#181818;stroke-width:0.5;"/><text fill="#000000" font-family="sans-serif" font-size="14" lengthAdjust="spacing" textLength="90.166" x="347.9721" y="192.2315">Delete game</text></g><!--entity Design game--><g class="entity" data-entity="Design game" data-source-line="15" data-uid="ent0017" id="entity_Design game"><ellipse cx="393.0574" cy="290.5775" fill="#F1F1F1" rx="64.6374" ry="15.3275" style="stroke:#181818;stroke-width:0.5;"/><text fill="#000000" font-family="sans-serif" font-size="14" lengthAdjust="spacing" textLength="92.5039" x="346.8054" y="295.2259">Design game</text></g><!--entity Choose game--><g class="entity" data-entity="Choose game" data-source-line="16" data-uid="ent0019" id="entity_Choose game"><ellipse cx="673.1239" cy="21.5808" fill="#F1F1F1" rx="65.9039" ry="15.5808" style="stroke:#181818;stroke-width:0.5;"/><text fill="#000000" font-family="sans-serif" font-size="14" lengthAdjust="spacing" textLength="95.8535" x="625.1971" y="26.2292">Choose game</text></g><!--entity Set goals--><g class="entity" data-entity="Set goals" data-source-line="17" data-uid="ent0021" id="entity_Set goals"><ellipse cx="673.1175" cy="86.5836" fill="#F1F1F1" rx="48.7175" ry="14.5236" style="stroke:#181818;stroke-width:0.5;"/><text fill="#000000" font-family="sans-serif" font-size="14" lengthAdjust="spacing" textLength="64.6543" x="640.7903" y="91.2321">Set goals</text></g><!--entity Set actors--><g class="entity" data-entity="Set actors" data-source-line="18" data-uid="ent0023" id="entity_Set actors"><ellipse cx="673.1175" cy="150.5836" fill="#F1F1F1" rx="53.0775" ry="14.5236" style="stroke:#181818;stroke-width:0.5;"/><text fill="#000000" font-family="sans-serif" font-size="14" lengthAdjust="spacing" textLength="70.8203" x="637.7074" y="155.2321">Set actors</text></g><!--entity Show defined actors--><g class="entity" data-entity="Show defined actors" data-source-line="19" data-uid="ent0025" id="entity_Show defined actors"><ellipse cx="673.1238" cy="219.5768" fill="#F1F1F1" rx="85.1838" ry="19.4368" style="stroke:#181818;stroke-width:0.5;"/><text fill="#000000" font-family="sans-serif" font-size="14" lengthAdjust="spacing" textLength="142.748" x="601.7498" y="224.2252">Show defined actors</text></g><!--entity Show actor map--><g class="entity" data-entity="Show actor map" data-source-line="20" data-uid="ent0027" id="entity_Show actor map"><ellipse cx="673.1193" cy="290.5819" fill="#F1F1F1" rx="73.0093" ry="17.0019" style="stroke:#181818;stroke-width:0.5;"/><text fill="#000000" font-family="sans-serif" font-size="14" lengthAdjust="spacing" textLength="113.8662" x="616.1862" y="295.2303">Show actor map</text></g><!--entity Set scenario--><g class="entity" data-entity="Set scenario" data-source-line="21" data-uid="ent0029" id="entity_Set scenario"><ellipse cx="673.1233" cy="357.5787" fill="#F1F1F1" rx="62.4933" ry="14.8987" style="stroke:#181818;stroke-width:0.5;"/><text fill="#000000" font-family="sans-serif" font-size="14" lengthAdjust="spacing" textLength="86.707" x="629.7698" y="362.2271">Set scenario</text></g><!--entity Show scenario timeline--><g class="entity" data-entity="Show scenario timeline" data-source-line="22" data-uid="ent0031" id="entity_Show scenario timeline"><ellipse cx="673.1242" cy="428.5788" fill="#F1F1F1" rx="94.0442" ry="21.2088" style="stroke:#181818;stroke-width:0.5;"/><text fill="#000000" font-family="sans-serif" font-size="14" lengthAdjust="spacing" textLength="162.8389" x="591.7048" y="433.2273">Show scenario timeline</text></g><!--entity Set allowable strategies--><g class="entity" data-entity="Set allowable strategies" data-source-line="23" data-uid="ent0033" id="entity_Set allowable strategies"><ellipse cx="673.1206" cy="506.5841" fill="#F1F1F1" rx="96.4206" ry="21.6841" style="stroke:#181818;stroke-width:0.5;"/><text fill="#000000" font-family="sans-serif" font-size="14" lengthAdjust="spacing" textLength="168.1367" x="589.0523" y="511.2326">Set allowable strategies</text></g><!--entity Set news items--><g class="entity" data-entity="Set news items" data-source-line="24" data-uid="ent0035" id="entity_Set news items"><ellipse cx="673.1246" cy="579.5829" fill="#F1F1F1" rx="70.2646" ry="16.4529" style="stroke:#181818;stroke-width:0.5;"/><text fill="#000000" font-family="sans-serif" font-size="14" lengthAdjust="spacing" textLength="107.0439" x="619.6026" y="584.2314">Set news items</text></g><!--entity Set parameters--><g class="entity" data-entity="Set parameters" data-source-line="25" data-uid="ent0037" id="entity_Set parameters"><ellipse cx="906.0427" cy="247.5805" fill="#F1F1F1" rx="70.9027" ry="16.5805" style="stroke:#181818;stroke-width:0.5;"/><text fill="#000000" font-family="sans-serif" font-size="14" lengthAdjust="spacing" textLength="108.6436" x="851.721" y="252.229">Set parameters</text></g><!--entity Set interventions--><g class="entity" data-entity="Set interventions" data-source-line="26" data-uid="ent0039" id="entity_Set interventions"><ellipse cx="906.0419" cy="357.5804" fill="#F1F1F1" rx="75.5019" ry="17.5004" style="stroke:#181818;stroke-width:0.5;"/><text fill="#000000" font-family="sans-serif" font-size="14" lengthAdjust="spacing" textLength="119.9434" x="846.0702" y="362.2288">Set interventions</text></g><!--reverse link User to GD--><g class="link" data-entity-1="User" data-entity-2="GD" data-source-line="4" data-uid="lnk4" id="link_User_GD"><path d="M51.8554,244.6378 C71.0154,228.0978 91.09,210.78 118.66,186.99" fill="none" id="User-backto-GD" style="stroke:#181818;stroke-width:1;"/><polygon fill="none" points="38.23,256.4,55.7761,249.1796,47.9346,240.096,38.23,256.4" style="stroke:#181818;stroke-width:1;"/></g><!--link User to Login--><g class="link" data-entity-1="User" data-entity-2="Login" data-source-line="6" data-uid="lnk6" id="link_User_Login"><path d="M38.34,265.76 C47.02,263.62 58.06,260.92 67.91,258.58 C91.03,253.08 111.501,248.3575 130.611,243.9875" fill="none" id="User-to-Login" style="stroke:#181818;stroke-width:1;"/><polygon fill="#181818" points="136.46,242.65,126.7948,240.757,131.5858,243.7646,128.5782,248.5556,136.46,242.65" style="stroke:#181818;stroke-width:1;"/></g><!--link User to Set password--><g class="link" data-entity-1="User" data-entity-2="Set password" data-source-line="7" data-uid="lnk8" id="link_User_Set password"><path d="M38.23,273.06 C56.75,277.29 83.0106,283.2843 110.0306,289.4543" fill="none" id="User-to-Set password" style="stroke:#181818;stroke-width:1;"/><polygon fill="#181818" points="115.88,290.79,107.9963,284.8868,111.0055,289.6769,106.2154,292.6861,115.88,290.79" style="stroke:#181818;stroke-width:1;"/></g><!--link User to Logout--><g class="link" data-entity-1="User" data-entity-2="Logout" data-source-line="8" data-uid="lnk10" id="link_User_Logout"><path d="M38.34,284.74 C53.07,298.76 76.34,319.63 98.91,334.58 C111.28,342.77 120.585,347.7397 132.835,353.4097" fill="none" id="User-to-Logout" style="stroke:#181818;stroke-width:1;"/><polygon fill="#181818" points="138.28,355.93,131.7926,348.5196,133.7425,353.8298,128.4323,355.7796,138.28,355.93" style="stroke:#181818;stroke-width:1;"/></g><!--link GD to Create game--><g class="link" data-entity-1="GD" data-entity-2="Create game" data-source-line="10" data-uid="lnk12" id="link_GD_Create game"><path d="M217.94,126.54 C231.44,120.96 245.96,115 259.43,109.58 C292.92,96.08 325.7567,83.2415 352.5967,72.8215" fill="none" id="GD-to-Create game" style="stroke:#181818;stroke-width:1;"/><polygon fill="#181818" points="358.19,70.65,348.3524,70.1783,353.5289,72.4595,351.2477,77.636,358.19,70.65" style="stroke:#181818;stroke-width:1;"/></g><!--link GD to Clone game--><g class="link" data-entity-1="GD" data-entity-2="Clone game" data-source-line="12" data-uid="lnk14" id="link_GD_Clone game"><path d="M218.08,142.51 C253.83,138.42 294.9589,133.7023 331.1289,129.5623" fill="none" id="GD-to-Clone game" style="stroke:#181818;stroke-width:1;"/><polygon fill="#181818" points="337.09,128.88,327.6935,125.9294,332.1224,129.4486,328.6032,133.8775,337.09,128.88" style="stroke:#181818;stroke-width:1;"/></g><!--link GD to Delete game--><g class="link" data-entity-1="GD" data-entity-2="Delete game" data-source-line="13" data-uid="lnk16" id="link_GD_Delete game"><path d="M218.08,157.67 C254.88,164 297.7767,171.374 334.3267,177.654" fill="none" id="GD-to-Delete game" style="stroke:#181818;stroke-width:1;"/><polygon fill="#181818" points="340.24,178.67,332.0473,173.2037,335.3122,177.8233,330.6926,181.0882,340.24,178.67" style="stroke:#181818;stroke-width:1;"/></g><!--link GD to Design game--><g class="link" data-entity-1="GD" data-entity-2="Design game" data-source-line="15" data-uid="lnk18" id="link_GD_Design game"><path d="M214.12,187.15 C219.65,192.66 224.92,198.53 229.43,204.58 C248.68,230.42 233.71,251.16 259.43,270.58 C279.12,285.46 299.2691,290.961 323.1191,292.871" fill="none" id="GD-to-Design game" style="stroke:#181818;stroke-width:1;"/><polygon fill="#181818" points="329.1,293.35,320.448,288.6443,324.116,292.9509,319.8094,296.6188,329.1,293.35" style="stroke:#181818;stroke-width:1;"/><text fill="#000000" font-family="sans-serif" font-size="13" lengthAdjust="spacing" textLength="37.1909" x="260.43" y="191.6469">&#160;&#160;&#160;&#160;&#160;&#160;&#160;&#160;&#160;</text><text fill="#000000" font-family="sans-serif" font-size="13" lengthAdjust="spacing" textLength="4.1323" x="276.9593" y="206.7797">&#160;</text><text fill="#000000" font-family="sans-serif" font-size="13" lengthAdjust="spacing" textLength="4.1323" x="276.9593" y="221.9125">&#160;</text><text fill="#000000" font-family="sans-serif" font-size="13" lengthAdjust="spacing" textLength="4.1323" x="276.9593" y="237.0453">&#160;</text><text fill="#000000" font-family="sans-serif" font-size="13" lengthAdjust="spacing" textLength="4.1323" x="276.9593" y="252.1781">&#160;</text><text fill="#000000" font-family="sans-serif" font-size="13" lengthAdjust="spacing" textLength="4.1323" x="276.9593" y="267.311">&#160;</text></g><!--link Design game to Choose game--><g class="link" data-entity-1="Design game" data-entity-2="Choose game" data-source-line="16" data-uid="lnk20" id="link_Design game_Choose game"><path d="M410.96,275.64 C425.09,262.38 444.94,241.84 457.7,220.58 C478.1,186.58 465.82,169.64 487.7,136.58 C517.39,91.73 530.53,82.17 576.7,54.58 C592.05,45.4 604.5917,40.1168 621.0217,34.8968" fill="none" id="Design game-to-Choose game" style="stroke:#181818;stroke-width:1;"/><polygon fill="#181818" points="626.74,33.08,616.9513,31.9929,621.9747,34.594,619.3737,39.6174,626.74,33.08" style="stroke:#181818;stroke-width:1;"/><text fill="#000000" font-family="sans-serif" font-size="13" lengthAdjust="spacing" textLength="57.8525" x="488.7" y="69.6469">&#160;&#160;&#160;&#160;&#160;&#160;&#160;&#160;&#160;&#160;&#160;&#160;&#160;&#160;</text></g><!--link Design game to Set goals--><g class="link" data-entity-1="Design game" data-entity-2="Set goals" data-source-line="17" data-uid="lnk22" id="link_Design game_Set goals"><path d="M407.97,275.28 C420.86,261.1 440.58,239.41 457.7,220.58 C504.56,169.03 515.29,151.45 576.7,118.58 C595.03,108.76 611.1818,102.8463 629.3818,97.5163" fill="none" id="Design game-to-Set goals" style="stroke:#181818;stroke-width:1;"/><polygon fill="#181818" points="635.14,95.83,625.3786,94.5207,630.3415,97.2353,627.627,102.1982,635.14,95.83" style="stroke:#181818;stroke-width:1;"/></g><!--link Design game to Set actors--><g class="link" data-entity-1="Design game" data-entity-2="Set actors" data-source-line="18" data-uid="lnk24" id="link_Design game_Set actors"><path d="M415.09,275.85 C448.17,253.21 514.97,209.66 576.7,182.58 C595.74,174.22 611.9731,168.5095 630.0231,162.8695" fill="none" id="Design game-to-Set actors" style="stroke:#181818;stroke-width:1;"/><polygon fill="#181818" points="635.75,161.08,625.9666,159.9462,630.9776,162.5712,628.3526,167.5822,635.75,161.08" style="stroke:#181818;stroke-width:1;"/></g><!--link Design game to Show defined actors--><g class="link" data-entity-1="Design game" data-entity-2="Show defined actors" data-source-line="19" data-uid="lnk26" id="link_Design game_Show defined actors"><path d="M435.47,278.78 C451.73,274.22 470.56,269.05 487.7,264.58 C529.32,253.72 570.5944,243.6348 606.7844,234.9848" fill="none" id="Design game-to-Show defined actors" style="stroke:#181818;stroke-width:1;"/><polygon fill="#181818" points="612.62,233.59,602.9367,231.7918,607.757,234.7523,604.7964,239.5726,612.62,233.59" style="stroke:#181818;stroke-width:1;"/></g><!--link Design game to Show actor map--><g class="link" data-entity-1="Design game" data-entity-2="Show actor map" data-source-line="20" data-uid="lnk28" id="link_Design game_Show actor map"><path d="M457.86,290.58 C500.18,290.58 549.83,290.58 593.8,290.58" fill="none" id="Design game-to-Show actor map" style="stroke:#181818;stroke-width:1;"/><polygon fill="#181818" points="599.8,290.58,590.8,286.58,594.8,290.58,590.8,294.58,599.8,290.58" style="stroke:#181818;stroke-width:1;"/></g><!--link Design game to Set scenario--><g class="link" data-entity-1="Design game" data-entity-2="Set scenario" data-source-line="21" data-uid="lnk30" id="link_Design game_Set scenario"><path d="M439.67,301.57 C491.74,314.11 570.537,333.0944 622.037,345.5044" fill="none" id="Design game-to-Set scenario" style="stroke:#181818;stroke-width:1;"/><polygon fill="#181818" points="627.87,346.91,620.0575,340.9129,623.0091,345.7387,618.1834,348.6903,627.87,346.91" style="stroke:#181818;stroke-width:1;"/></g><!--link Design game to Show scenario timeline--><g class="link" data-entity-1="Design game" data-entity-2="Show scenario timeline" data-source-line="22" data-uid="lnk32" id="link_Design game_Show scenario timeline"><path d="M418.73,305.06 C453.42,325.18 518.84,362.17 576.7,389.58 C591.9,396.78 603.248,401.6997 618.548,407.8897" fill="none" id="Design game-to-Show scenario timeline" style="stroke:#181818;stroke-width:1;"/><polygon fill="#181818" points="624.11,410.14,617.2671,403.0566,619.475,408.2648,614.2668,410.4726,624.11,410.14" style="stroke:#181818;stroke-width:1;"/></g><!--link Design game to Set allowable strategies--><g class="link" data-entity-1="Design game" data-entity-2="Set allowable strategies" data-source-line="23" data-uid="lnk34" id="link_Design game_Set allowable strategies"><path d="M406.23,305.88 C433.51,339.34 502.97,419.78 576.7,467.58 C589.31,475.76 598.3691,480.4923 612.3091,486.2123" fill="none" id="Design game-to-Set allowable strategies" style="stroke:#181818;stroke-width:1;"/><polygon fill="#181818" points="617.86,488.49,611.0522,481.3729,613.2343,486.5919,608.0152,488.774,617.86,488.49" style="stroke:#181818;stroke-width:1;"/></g><!--link Design game to Set news items--><g class="link" data-entity-1="Design game" data-entity-2="Set news items" data-source-line="24" data-uid="lnk36" id="link_Design game_Set news items"><path d="M400.37,306.25 C419.43,351.46 481.06,482.89 576.7,545.58 C591.12,555.02 602.7854,560.3301 618.7254,565.6201" fill="none" id="Design game-to-Set news items" style="stroke:#181818;stroke-width:1;"/><polygon fill="#181818" points="624.42,567.51,617.138,560.8788,619.6745,565.9351,614.6182,568.4716,624.42,567.51" style="stroke:#181818;stroke-width:1;"/></g><!--link Set scenario to Set parameters--><g class="link" data-entity-1="Set scenario" data-entity-2="Set parameters" data-source-line="25" data-uid="lnk38" id="link_Set scenario_Set parameters"><path d="M714.26,346.07 C731.57,340.61 751.86,333.54 769.54,325.58 C810.14,307.31 849.2744,283.6612 875.7944,266.7112" fill="none" id="Set scenario-to-Set parameters" style="stroke:#181818;stroke-width:1;"/><polygon fill="#181818" points="880.85,263.48,871.1124,264.9565,876.637,266.1727,875.4208,271.6973,880.85,263.48" style="stroke:#181818;stroke-width:1;"/></g><!--link Set scenario to Set interventions--><g class="link" data-entity-1="Set scenario" data-entity-2="Set interventions" data-source-line="26" data-uid="lnk40" id="link_Set scenario_Set interventions"><path d="M736,357.58 C765,357.58 793.78,357.58 824.23,357.58" fill="none" id="Set scenario-to-Set interventions" style="stroke:#181818;stroke-width:1;"/><polygon fill="#181818" points="830.23,357.58,821.23,353.58,825.23,357.58,821.23,361.58,830.23,357.58" style="stroke:#181818;stroke-width:1;"/></g><!--link Set actors to Set parameters--><g class="link" data-entity-1="Set actors" data-entity-2="Set parameters" data-source-line="27" data-uid="lnk41" id="link_Set actors_Set parameters"><path d="M709.85,161.4 C727.93,167.17 750.11,174.69 769.54,182.58 C806.9,197.73 843.1801,215.5341 870.3101,229.4341" fill="none" id="Set actors-to-Set parameters" style="stroke:#181818;stroke-width:1;"/><polygon fill="#181818" points="875.65,232.17,869.464,224.5062,871.2001,229.8901,865.8162,231.6261,875.65,232.17" style="stroke:#181818;stroke-width:1;"/></g><!--SRC=[XLAxJiKm3Dtp5LOdElG746AXKXSsnCQIs_gcbjBuoZ5qkHzFsXAf5Gquau-FVVo8nwk2CWYvKM4WmLw9Wp5LPoU40IEvW5A1ZT2rvZsYmDEzQHPdyvhc6HvUsL6eTy0RAjniZ3FBK1-9_AcrCLsx0I-2LX5SKjkZdaC6CzQYnz_CTkrmG-4HAiZs4VAhp96rAOpC4K_oLZjDMMPoR7siIr7RAqiXFFASrdcbWCE_l3KEaxqLbMAFmGfnkKPcWDA4FicMk_QUPtln254b7SCHbaSCE4SWnMcX73hP7rvIagBymQ6GubyObj-MQJzhEItq3G00]--></g></svg>