<svg xmlns="http://www.w3.org/2000/svg" xmlns:xlink="http://www.w3.org/1999/xlink" contentStyleType="text/css" data-diagram-type="DESCRIPTION" height="722px" preserveAspectRatio="none" style="width:649px;height:722px;background:#FFFFFF;" version="1.1" viewBox="0 0 649 722" width="649px" zoomAndPan="magnify"><defs/><g><!--entity DA--><g class="entity" data-entity="DA" data-source-line="3" data-uid="ent0002" id="entity_DA"><ellipse cx="50.4336" cy="344.38" fill="#F1F1F1" rx="8" ry="8" style="stroke:#181818;stroke-width:0.5;"/><path d="M50.4336,352.38 L50.4336,379.38 M37.4336,360.38 L63.4336,360.38 M50.4336,379.38 L37.4336,394.38 M50.4336,379.38 L63.4336,394.38" fill="none" style="stroke:#181818;stroke-width:0.5;"/><text fill="#000000" font-family="sans-serif" font-size="14" lengthAdjust="spacing" textLength="88.8672" x="6" y="408.8751">Data analyst</text></g><!--entity Analyze data--><g class="entity" data-entity="Analyze data" data-source-line="5" data-uid="ent0003" id="entity_Analyze data"><ellipse cx="249.3712" cy="225.0262" fill="#F1F1F1" rx="64.1312" ry="15.2262" style="stroke:#181818;stroke-width:0.5;"/><text fill="#000000" font-family="sans-serif" font-size="14" lengthAdjust="spacing" textLength="91.1504" x="203.796" y="229.6747">Analyze data</text></g><!--entity Show session event data\nand facilitator events--><g class="entity" data-entity="Show session event data.nand facilitator events" data-source-line="6" data-uid="ent0005" id="entity_Show session event data.nand facilitator events"><ellipse cx="523.7019" cy="32.0304" fill="#F1F1F1" rx="118.1519" ry="26.0304" style="stroke:#181818;stroke-width:0.5;"/><text fill="#000000" font-family="sans-serif" font-size="14" lengthAdjust="spacing" textLength="174.3574" x="436.5232" y="29.7809">Show session event data</text><text fill="#000000" font-family="sans-serif" font-size="14" lengthAdjust="spacing" textLength="149.1602" x="449.1218" y="46.0778">and facilitator events</text></g><!--entity Show player event data--><g class="entity" data-entity="Show player event data" data-source-line="7" data-uid="ent0007" id="entity_Show player event data"><ellipse cx="523.7046" cy="115.0309" fill="#F1F1F1" rx="95.7046" ry="21.5409" style="stroke:#181818;stroke-width:0.5;"/><text fill="#000000" font-family="sans-serif" font-size="14" lengthAdjust="spacing" textLength="166.5439" x="440.4327" y="119.6794">Show player event data</text></g><!--entity Show player scores--><g class="entity" data-entity="Show player scores" data-source-line="8" data-uid="ent0009" id="entity_Show player scores"><ellipse cx="523.7006" cy="190.0261" fill="#F1F1F1" rx="82.2306" ry="18.8461" style="stroke:#181818;stroke-width:0.5;"/><text fill="#000000" font-family="sans-serif" font-size="14" lengthAdjust="spacing" textLength="135.9053" x="455.748" y="194.6746">Show player scores</text></g><!--entity Show log data--><g class="entity" data-entity="Show log data" data-source-line="9" data-uid="ent0011" id="entity_Show log data"><ellipse cx="523.7039" cy="260.0348" fill="#F1F1F1" rx="67.3239" ry="15.8648" style="stroke:#181818;stroke-width:0.5;"/><text fill="#000000" font-family="sans-serif" font-size="14" lengthAdjust="spacing" textLength="99.5518" x="473.928" y="264.6832">Show log data</text></g><!--entity Show errors--><g class="entity" data-entity="Show errors" data-source-line="10" data-uid="ent0013" id="entity_Show errors"><ellipse cx="523.7021" cy="326.0304" fill="#F1F1F1" rx="61.5021" ry="14.7004" style="stroke:#181818;stroke-width:0.5;"/><text fill="#000000" font-family="sans-serif" font-size="14" lengthAdjust="spacing" textLength="83.9658" x="481.7191" y="330.6788">Show errors</text></g><!--entity Login to\ngame data platform--><g class="entity" data-entity="Login to.ngame data platform" data-source-line="12" data-uid="ent0015" id="entity_Login to.ngame data platform"><ellipse cx="249.3694" cy="300.027" fill="#F1F1F1" rx="92.1694" ry="23.777" style="stroke:#181818;stroke-width:0.5;"/><text fill="#000000" font-family="sans-serif" font-size="14" lengthAdjust="spacing" textLength="56.5195" x="221.1096" y="293.1179">Login to</text><text fill="#000000" font-family="sans-serif" font-size="14" lengthAdjust="spacing" textLength="139.8838" x="179.4275" y="309.4148">game data platform</text></g><!--entity Choose game--><g class="entity" data-entity="Choose game" data-source-line="14" data-uid="ent0017" id="entity_Choose game"><ellipse cx="249.3739" cy="374.0308" fill="#F1F1F1" rx="65.9039" ry="15.5808" style="stroke:#181818;stroke-width:0.5;"/><text fill="#000000" font-family="sans-serif" font-size="14" lengthAdjust="spacing" textLength="95.8535" x="201.4471" y="378.6792">Choose game</text></g><!--entity Logout from\ngame data platform--><g class="entity" data-entity="Logout from.ngame data platform" data-source-line="16" data-uid="ent0019" id="entity_Logout from.ngame data platform"><ellipse cx="249.3679" cy="449.0296" fill="#F1F1F1" rx="94.4979" ry="24.3196" style="stroke:#181818;stroke-width:0.5;"/><text fill="#000000" font-family="sans-serif" font-size="14" lengthAdjust="spacing" textLength="85.5176" x="206.6091" y="442.9781">Logout from</text><text fill="#000000" font-family="sans-serif" font-size="14" lengthAdjust="spacing" textLength="139.8838" x="179.426" y="459.2749">game data platform</text></g><!--entity Export data--><g class="entity" data-entity="Export data" data-source-line="18" data-uid="ent0021" id="entity_Export data"><ellipse cx="249.3743" cy="526.0269" fill="#F1F1F1" rx="60.7343" ry="14.5469" style="stroke:#181818;stroke-width:0.5;"/><text fill="#000000" font-family="sans-serif" font-size="14" lengthAdjust="spacing" textLength="81.8125" x="208.468" y="530.6753">Export data</text></g><!--entity Export session event data\nand facilitator events--><g class="entity" data-entity="Export session event data.nand facilitator events" data-source-line="19" data-uid="ent0023" id="entity_Export session event data.nand facilitator events"><ellipse cx="523.6996" cy="402.0279" fill="#F1F1F1" rx="119.8396" ry="26.3679" style="stroke:#181818;stroke-width:0.5;"/><text fill="#000000" font-family="sans-serif" font-size="14" lengthAdjust="spacing" textLength="182.4102" x="432.4945" y="400.2191">Export session event data</text><text fill="#000000" font-family="sans-serif" font-size="14" lengthAdjust="spacing" textLength="149.1602" x="449.1195" y="416.516">and facilitator events</text></g><!--entity Export player event data--><g class="entity" data-entity="Export player event data" data-source-line="20" data-uid="ent0025" id="entity_Export player event data"><ellipse cx="523.6976" cy="486.0275" fill="#F1F1F1" rx="99.3376" ry="22.2675" style="stroke:#181818;stroke-width:0.5;"/><text fill="#000000" font-family="sans-serif" font-size="14" lengthAdjust="spacing" textLength="174.5967" x="436.3992" y="490.676">Export player event data</text></g><!--entity Export player scores--><g class="entity" data-entity="Export player scores" data-source-line="21" data-uid="ent0027" id="entity_Export player scores"><ellipse cx="523.6998" cy="563.032" fill="#F1F1F1" rx="85.7098" ry="19.542" style="stroke:#181818;stroke-width:0.5;"/><text fill="#000000" font-family="sans-serif" font-size="14" lengthAdjust="spacing" textLength="143.958" x="451.7207" y="567.6804">Export player scores</text></g><!--entity Export log data--><g class="entity" data-entity="Export log data" data-source-line="22" data-uid="ent0029" id="entity_Export log data"><ellipse cx="523.6978" cy="634.0276" fill="#F1F1F1" rx="70.4878" ry="16.4976" style="stroke:#181818;stroke-width:0.5;"/><text fill="#000000" font-family="sans-serif" font-size="14" lengthAdjust="spacing" textLength="107.6045" x="469.8956" y="638.676">Export log data</text></g><!--entity Export errors--><g class="entity" data-entity="Export errors" data-source-line="23" data-uid="ent0031" id="entity_Export errors"><ellipse cx="523.6955" cy="701.0311" fill="#F1F1F1" rx="64.4555" ry="15.2911" style="stroke:#181818;stroke-width:0.5;"/><text fill="#000000" font-family="sans-serif" font-size="14" lengthAdjust="spacing" textLength="92.0186" x="477.6862" y="705.6795">Export errors</text></g><!--link DA to Analyze data--><g class="link" data-entity-1="DA" data-entity-2="Analyze data" data-source-line="5" data-uid="lnk4" id="link_DA_Analyze data"><path d="M78.14,335.65 C97.09,310.86 124.48,279.53 154.87,259.03 C169.76,248.98 182.2772,243.355 198.6672,237.995" fill="none" id="DA-to-Analyze data" style="stroke:#181818;stroke-width:1;"/><polygon fill="#181818" points="204.37,236.13,194.5725,235.1256,199.6177,237.6841,197.0591,242.7293,204.37,236.13" style="stroke:#181818;stroke-width:1;"/></g><!--link Analyze data to Show session event data\nand facilitator events--><g class="link" data-entity-1="Analyze data" data-entity-2="Show session event data.nand facilitator events" data-source-line="6" data-uid="lnk6" id="link_Analyze data_Show session event data.nand facilitator events"><path d="M262.29,209.81 C286.19,180.21 342.92,114.46 403.86,76.03 C418.38,66.88 429.4794,61.3725 445.6894,55.1425" fill="none" id="Analyze data-to-Show session event data\nand facilitator events" style="stroke:#181818;stroke-width:1;"/><polygon fill="#181818" points="451.29,52.99,441.4541,52.485,446.6228,54.7837,444.3241,59.9525,451.29,52.99" style="stroke:#181818;stroke-width:1;"/></g><!--link Analyze data to Show player event data--><g class="link" data-entity-1="Analyze data" data-entity-2="Show player event data" data-source-line="7" data-uid="lnk8" id="link_Analyze data_Show player event data"><path d="M277.95,211.08 C308.36,196 358.92,171.73 403.86,154.03 C423.56,146.27 439.7793,140.6105 459.3893,134.2905" fill="none" id="Analyze data-to-Show player event data" style="stroke:#181818;stroke-width:1;"/><polygon fill="#181818" points="465.1,132.45,455.3069,131.4036,460.341,133.9837,457.7609,139.0179,465.1,132.45" style="stroke:#181818;stroke-width:1;"/></g><!--link Analyze data to Show player scores--><g class="link" data-entity-1="Analyze data" data-entity-2="Show player scores" data-source-line="8" data-uid="lnk10" id="link_Analyze data_Show player scores"><path d="M306.46,217.82 C348.35,212.44 399.9589,205.8048 445.1689,199.9948" fill="none" id="Analyze data-to-Show player scores" style="stroke:#181818;stroke-width:1;"/><polygon fill="#181818" points="451.12,199.23,441.6836,196.4098,446.1608,199.8673,442.7033,204.3445,451.12,199.23" style="stroke:#181818;stroke-width:1;"/></g><!--link Analyze data to Show log data--><g class="link" data-entity-1="Analyze data" data-entity-2="Show log data" data-source-line="9" data-uid="lnk12" id="link_Analyze data_Show log data"><path d="M306.46,232.24 C352.4,238.14 411.239,245.7048 457.899,251.7048" fill="none" id="Analyze data-to-Show log data" style="stroke:#181818;stroke-width:1;"/><polygon fill="#181818" points="463.85,252.47,455.4337,247.3548,458.8908,251.8323,454.4133,255.2895,463.85,252.47" style="stroke:#181818;stroke-width:1;"/></g><!--link Analyze data to Show errors--><g class="link" data-entity-1="Analyze data" data-entity-2="Show errors" data-source-line="10" data-uid="lnk14" id="link_Analyze data_Show errors"><path d="M288.7,237.35 C305.85,243.27 326.14,250.85 343.86,259.03 C371.7,271.87 375.55,281.29 403.86,293.03 C427.3,302.75 448.6764,309.0958 471.1364,314.6658" fill="none" id="Analyze data-to-Show errors" style="stroke:#181818;stroke-width:1;"/><polygon fill="#181818" points="476.96,316.11,469.1874,310.0613,472.107,314.9065,467.2618,317.826,476.96,316.11" style="stroke:#181818;stroke-width:1;"/></g><!--link DA to Login to\ngame data platform--><g class="link" data-entity-1="DA" data-entity-2="Login to.ngame data platform" data-source-line="12" data-uid="lnk16" id="link_DA_Login to.ngame data platform"><path d="M95.14,357.61 C124.94,346.41 158.9435,333.6307 190.4235,321.8007" fill="none" id="DA-to-Login to\ngame data platform" style="stroke:#181818;stroke-width:1;"/><polygon fill="#181818" points="196.04,319.69,186.2081,319.1116,191.3596,321.4489,189.0223,326.6003,196.04,319.69" style="stroke:#181818;stroke-width:1;"/></g><!--link DA to Choose game--><g class="link" data-entity-1="DA" data-entity-2="Choose game" data-source-line="14" data-uid="lnk18" id="link_DA_Choose game"><path d="M95.14,374.03 C120.98,374.03 148.19,374.03 177.08,374.03" fill="none" id="DA-to-Choose game" style="stroke:#181818;stroke-width:1;"/><polygon fill="#181818" points="183.08,374.03,174.08,370.03,178.08,374.03,174.08,378.03,183.08,374.03" style="stroke:#181818;stroke-width:1;"/></g><!--link DA to Logout from\ngame data platform--><g class="link" data-entity-1="DA" data-entity-2="Logout from.ngame data platform" data-source-line="16" data-uid="lnk20" id="link_DA_Logout from.ngame data platform"><path d="M95.14,390.67 C124.6,401.89 158.0426,414.6352 189.3526,426.5552" fill="none" id="DA-to-Logout from\ngame data platform" style="stroke:#181818;stroke-width:1;"/><polygon fill="#181818" points="194.96,428.69,187.9721,421.7496,190.2872,426.911,185.1257,429.2261,194.96,428.69" style="stroke:#181818;stroke-width:1;"/></g><!--link DA to Export data--><g class="link" data-entity-1="DA" data-entity-2="Export data" data-source-line="18" data-uid="lnk22" id="link_DA_Export data"><path d="M77.66,412.45 C96.59,437.72 124.15,469.9 154.87,491.03 C170.43,501.74 183.9896,507.7978 200.9796,513.3778" fill="none" id="DA-to-Export data" style="stroke:#181818;stroke-width:1;"/><polygon fill="#181818" points="206.68,515.25,199.3775,508.6414,201.9296,513.6898,196.8812,516.242,206.68,515.25" style="stroke:#181818;stroke-width:1;"/></g><!--link Export data to Export session event data\nand facilitator events--><g class="link" data-entity-1="Export data" data-entity-2="Export session event data.nand facilitator events" data-source-line="19" data-uid="lnk24" id="link_Export data_Export session event data.nand facilitator events"><path d="M288.3,514.58 C305.74,508.63 326.38,500.6 343.86,491.03 C373.1,475.02 374.6,461.98 403.86,446.03 C419.41,437.55 431.3258,432.1767 448.0358,425.8767" fill="none" id="Export data-to-Export session event data\nand facilitator events" style="stroke:#181818;stroke-width:1;"/><polygon fill="#181818" points="453.65,423.76,443.8175,423.1922,448.9715,425.5239,446.6398,430.6778,453.65,423.76" style="stroke:#181818;stroke-width:1;"/></g><!--link Export data to Export player event data--><g class="link" data-entity-1="Export data" data-entity-2="Export player event data" data-source-line="20" data-uid="lnk26" id="link_Export data_Export player event data"><path d="M301.91,518.46 C340.69,512.76 388.7137,505.712 433.5737,499.122" fill="none" id="Export data-to-Export player event data" style="stroke:#181818;stroke-width:1;"/><polygon fill="#181818" points="439.51,498.25,430.0242,495.6005,434.5631,498.9767,431.1869,503.5156,439.51,498.25" style="stroke:#181818;stroke-width:1;"/></g><!--link Export data to Export player scores--><g class="link" data-entity-1="Export data" data-entity-2="Export player scores" data-source-line="21" data-uid="lnk28" id="link_Export data_Export player scores"><path d="M302.87,533.16 C344.45,538.81 397.0746,545.9624 443.3046,552.2424" fill="none" id="Export data-to-Export player scores" style="stroke:#181818;stroke-width:1;"/><polygon fill="#181818" points="449.25,553.05,440.8703,547.8749,444.2955,552.377,439.7935,555.8021,449.25,553.05" style="stroke:#181818;stroke-width:1;"/></g><!--link Export data to Export log data--><g class="link" data-entity-1="Export data" data-entity-2="Export log data" data-source-line="22" data-uid="lnk30" id="link_Export data_Export log data"><path d="M275.05,539.55 C304.9,555.53 357,582.18 403.86,600.03 C426.42,608.62 446.3155,614.6732 468.0155,620.5032" fill="none" id="Export data-to-Export log data" style="stroke:#181818;stroke-width:1;"/><polygon fill="#181818" points="473.81,622.06,466.1561,615.8618,468.9812,620.7627,464.0804,623.5878,473.81,622.06" style="stroke:#181818;stroke-width:1;"/></g><!--link Export data to Export errors--><g class="link" data-entity-1="Export data" data-entity-2="Export errors" data-source-line="23" data-uid="lnk32" id="link_Export data_Export errors"><path d="M261.83,540.5 C285.34,569.21 342.03,633.55 403.86,668.03 C424.25,679.4 442.9797,685.6949 464.4697,690.7549" fill="none" id="Export data-to-Export errors" style="stroke:#181818;stroke-width:1;"/><polygon fill="#181818" points="470.31,692.13,462.4663,686.1738,465.4431,690.984,460.6328,693.9608,470.31,692.13" style="stroke:#181818;stroke-width:1;"/></g><!--SRC=[bP2x3eCm34NtV8NLgHtuXKgeTElMbSK20v52Z1ptGR- -K2e4KW5rTExnYNmT5GhA8BQi578hbAbbRymkGKL0ZwuDkWCCaCJ69354qH7sSV_-8iWxw63cuq1SAtv0e10w6z2Tl7xIrAFFeS3CEgkeB4CMLYIDmvPaujXcGyP2Qqx7vPQAH5WwntZpXKlhkwvINs8zyFr_Mh3K4-nKCGU2dfalyqsX4Autzi_FXcKyT3hDyh-gNRJywdOB7ijT12VjBZBVUjy0]--></g></svg>