<svg xmlns="http://www.w3.org/2000/svg" xmlns:xlink="http://www.w3.org/1999/xlink" contentStyleType="text/css" data-diagram-type="DESCRIPTION" height="1165px" preserveAspectRatio="none" style="width:764px;height:1165px;background:#FFFFFF;" version="1.1" viewBox="0 0 764 1165" width="764px" zoomAndPan="magnify"><defs/><g><!--entity OGA--><g class="entity" data-entity="OGA" data-source-line="3" data-uid="ent0002" id="entity_OGA"><ellipse cx="410.1879" cy="949.18" fill="#F1F1F1" rx="8" ry="8" style="stroke:#181818;stroke-width:0.5;"/><path d="M410.1879,957.18 L410.1879,984.18 M397.1879,965.18 L423.1879,965.18 M410.1879,984.18 L397.1879,999.18 M410.1879,984.18 L423.1879,999.18" fill="none" style="stroke:#181818;stroke-width:0.5;"/><text fill="#000000" font-family="sans-serif" font-size="14" lengthAdjust="spacing" textLength="184.7959" x="317.79" y="1013.6751">Organization-Game admin</text></g><!--entity User--><g class="entity" data-entity="User" data-source-line="4" data-uid="ent0003" id="entity_User"><ellipse cx="21.9551" cy="1017.18" fill="#F1F1F1" rx="8" ry="8" style="stroke:#181818;stroke-width:0.5;"/><path d="M21.9551,1025.18 L21.9551,1052.18 M8.9551,1033.18 L34.9551,1033.18 M21.9551,1052.18 L8.9551,1067.18 M21.9551,1052.18 L34.9551,1067.18" fill="none" style="stroke:#181818;stroke-width:0.5;"/><text fill="#000000" font-family="sans-serif" font-size="14" lengthAdjust="spacing" textLength="31.9102" x="6" y="1081.6751">User</text></g><!--entity Administrator--><g class="entity" data-entity="Administrator" data-source-line="4" data-uid="ent0004" id="entity_Administrator"><ellipse cx="169.4013" cy="897.18" fill="#F1F1F1" rx="8" ry="8" style="stroke:#181818;stroke-width:0.5;"/><path d="M169.4013,905.18 L169.4013,932.18 M156.4013,913.18 L182.4013,913.18 M169.4013,932.18 L156.4013,947.18 M169.4013,932.18 L182.4013,947.18" fill="none" style="stroke:#181818;stroke-width:0.5;"/><text fill="#000000" font-family="sans-serif" font-size="14" lengthAdjust="spacing" textLength="95.6826" x="121.56" y="961.6751">Administrator</text></g><!--entity Login--><g class="entity" data-entity="Login" data-source-line="7" data-uid="ent0007" id="entity_Login"><ellipse cx="169.4004" cy="1014.8336" fill="#F1F1F1" rx="29.8804" ry="14.5236" style="stroke:#181818;stroke-width:0.5;"/><text fill="#000000" font-family="sans-serif" font-size="14" lengthAdjust="spacing" textLength="38.0146" x="150.3931" y="1019.4821">Login</text></g><!--entity Set password--><g class="entity" data-entity="Set password" data-source-line="8" data-uid="ent0009" id="entity_Set password"><ellipse cx="169.3979" cy="1079.8316" fill="#F1F1F1" rx="65.2579" ry="15.4516" style="stroke:#181818;stroke-width:0.5;"/><text fill="#000000" font-family="sans-serif" font-size="14" lengthAdjust="spacing" textLength="94.1514" x="122.3222" y="1084.48">Set password</text></g><!--entity Logout--><g class="entity" data-entity="Logout" data-source-line="9" data-uid="ent0011" id="entity_Logout"><ellipse cx="169.3982" cy="1144.8336" fill="#F1F1F1" rx="37.0682" ry="14.5236" style="stroke:#181818;stroke-width:0.5;"/><text fill="#000000" font-family="sans-serif" font-size="14" lengthAdjust="spacing" textLength="48.1797" x="145.3083" y="1149.4821">Logout</text></g><!--entity User administration--><g class="entity" data-entity="User administration" data-source-line="11" data-uid="ent0013" id="entity_User administration"><ellipse cx="410.193" cy="811.8306" fill="#F1F1F1" rx="83.153" ry="19.0306" style="stroke:#181818;stroke-width:0.5;"/><text fill="#000000" font-family="sans-serif" font-size="14" lengthAdjust="spacing" textLength="138.0518" x="341.1671" y="816.479">User administration</text></g><g class="entity" data-entity="GMN15" data-source-line="13" data-uid="ent0016" id="entity_GMN15"><path d="M364.29,865.69 L364.29,905.9556 A0,0 0 0 0 364.29,905.9556 L456.0981,905.9556 A0,0 0 0 0 456.0981,905.9556 L456.0981,875.69 L446.0981,865.69 L414.19,865.69 L410.19,831.04 L406.19,865.69 L364.29,865.69 A0,0 0 0 0 364.29,865.69" fill="#FEFFDD" style="stroke:#181818;stroke-width:0.5;"/><path d="M446.0981,865.69 L446.0981,875.69 L456.0981,875.69 L446.0981,865.69" fill="#FEFFDD" style="stroke:#181818;stroke-width:0.5;"/><text fill="#000000" font-family="sans-serif" font-size="13" lengthAdjust="spacing" textLength="49.6895" x="370.29" y="882.7569">- player</text><text fill="#000000" font-family="sans-serif" font-size="13" lengthAdjust="spacing" textLength="70.8081" x="370.29" y="897.8897">- facilitator</text></g><!--entity Create user--><g class="entity" data-entity="Create user" data-source-line="17" data-uid="ent0018" id="entity_Create user"><ellipse cx="672.0343" cy="713.8269" fill="#F1F1F1" rx="60.7343" ry="14.5469" style="stroke:#181818;stroke-width:0.5;"/><text fill="#000000" font-family="sans-serif" font-size="14" lengthAdjust="spacing" textLength="81.8125" x="631.128" y="718.4753">Create user</text></g><!--entity Delete user--><g class="entity" data-entity="Delete user" data-source-line="18" data-uid="ent0020" id="entity_Delete user"><ellipse cx="672.0253" cy="777.8336" fill="#F1F1F1" rx="60.2653" ry="14.5236" style="stroke:#181818;stroke-width:0.5;"/><text fill="#000000" font-family="sans-serif" font-size="14" lengthAdjust="spacing" textLength="80.9854" x="631.5326" y="782.4821">Delete user</text></g><!--entity Reset user password--><g class="entity" data-entity="Reset user password" data-source-line="19" data-uid="ent0022" id="entity_Reset user password"><ellipse cx="672.0299" cy="846.83" fill="#F1F1F1" rx="86.5499" ry="19.71" style="stroke:#181818;stroke-width:0.5;"/><text fill="#000000" font-family="sans-serif" font-size="14" lengthAdjust="spacing" textLength="145.8857" x="599.087" y="851.4784">Reset user password</text></g><!--entity Set user access--><g class="entity" data-entity="Set user access" data-source-line="20" data-uid="ent0024" id="entity_Set user access"><ellipse cx="672.0261" cy="917.8272" fill="#F1F1F1" rx="71.2861" ry="16.6572" style="stroke:#181818;stroke-width:0.5;"/><text fill="#000000" font-family="sans-serif" font-size="14" lengthAdjust="spacing" textLength="109.6006" x="617.2259" y="922.4757">Set user access</text></g><!--entity Manage--><g class="entity" data-entity="Manage" data-source-line="22" data-uid="ent0026" id="entity_Manage"><ellipse cx="169.4033" cy="362.8298" fill="#F1F1F1" rx="65.4933" ry="24.2198" style="stroke:#181818;stroke-width:0.5;"/><text fill="#000000" font-family="sans-serif" font-size="14" lengthAdjust="spacing" textLength="55.6104" x="141.5981" y="356.623">Manage</text><text fill="#000000" font-family="sans-serif" font-size="14" lengthAdjust="spacing" textLength="95.9902" x="121.4081" y="372.9198">game session</text></g><!--entity SA--><g class="entity" data-entity="SA" data-source-line="23" data-uid="ent0027" id="entity_SA"><ellipse cx="21.96" cy="333.18" fill="#F1F1F1" rx="8" ry="8" style="stroke:#181818;stroke-width:0.5;"/><path d="M21.96,341.18 L21.96,368.18 M8.96,349.18 L34.96,349.18 M21.96,368.18 L8.96,383.18 M21.96,368.18 L34.96,383.18" fill="none" style="stroke:#181818;stroke-width:0.5;"/><text fill="#000000" font-family="sans-serif" font-size="14" lengthAdjust="spacing" textLength="18.4639" x="12.7281" y="397.6751">SA</text></g><!--entity Create game session--><g class="entity" data-entity="Create game session" data-source-line="24" data-uid="ent0029" id="entity_Create game session"><ellipse cx="410.1934" cy="25.8307" fill="#F1F1F1" rx="87.1534" ry="19.8307" style="stroke:#181818;stroke-width:0.5;"/><text fill="#000000" font-family="sans-serif" font-size="14" lengthAdjust="spacing" textLength="147.2666" x="336.5601" y="30.4791">Create game session</text></g><!--entity Set session dates--><g class="entity" data-entity="Set session dates" data-source-line="25" data-uid="ent0031" id="entity_Set session dates"><ellipse cx="410.1941" cy="98.8288" fill="#F1F1F1" rx="76.5941" ry="17.7188" style="stroke:#181818;stroke-width:0.5;"/><text fill="#000000" font-family="sans-serif" font-size="14" lengthAdjust="spacing" textLength="122.5752" x="348.9065" y="103.4773">Set session dates</text></g><!--entity Set allowable strategies--><g class="entity" data-entity="Set allowable strategies" data-source-line="26" data-uid="ent0033" id="entity_Set allowable strategies"><ellipse cx="410.1906" cy="172.8341" fill="#F1F1F1" rx="96.4206" ry="21.6841" style="stroke:#181818;stroke-width:0.5;"/><text fill="#000000" font-family="sans-serif" font-size="14" lengthAdjust="spacing" textLength="168.1367" x="326.1223" y="177.4826">Set allowable strategies</text></g><!--entity Delete game session--><g class="entity" data-entity="Delete game session" data-source-line="27" data-uid="ent0035" id="entity_Delete game session"><ellipse cx="410.1917" cy="248.8283" fill="#F1F1F1" rx="86.7917" ry="19.7583" style="stroke:#181818;stroke-width:0.5;"/><text fill="#000000" font-family="sans-serif" font-size="14" lengthAdjust="spacing" textLength="146.4395" x="336.972" y="253.4768">Delete game session</text></g><!--entity Allocate user to game--><g class="entity" data-entity="Allocate user to game" data-source-line="28" data-uid="ent0037" id="entity_Allocate user to game"><ellipse cx="410.1863" cy="323.8293" fill="#F1F1F1" rx="90.0963" ry="20.4193" style="stroke:#181818;stroke-width:0.5;"/><text fill="#000000" font-family="sans-serif" font-size="14" lengthAdjust="spacing" textLength="153.959" x="333.2068" y="328.4777">Allocate user to game</text></g><!--entity Allocate player to game--><g class="entity" data-entity="Allocate player to game" data-source-line="29" data-uid="ent0039" id="entity_Allocate player to game"><ellipse cx="410.194" cy="400.8308" fill="#F1F1F1" rx="96.104" ry="21.6208" style="stroke:#181818;stroke-width:0.5;"/><text fill="#000000" font-family="sans-serif" font-size="14" lengthAdjust="spacing" textLength="167.4326" x="326.4776" y="405.4792">Allocate player to game</text></g><!--entity Allow self registration\nfor players--><g class="entity" data-entity="Allow self registration.nfor players" data-source-line="30" data-uid="ent0041" id="entity_Allow self registration.nfor players"><ellipse cx="410.1937" cy="481.8307" fill="#F1F1F1" rx="100.8937" ry="23.9807" style="stroke:#181818;stroke-width:0.5;"/><text fill="#000000" font-family="sans-serif" font-size="14" lengthAdjust="spacing" textLength="152.0791" x="334.1541" y="481.4139">Allow self registration</text><text fill="#000000" font-family="sans-serif" font-size="14" lengthAdjust="spacing" textLength="75.0039" x="372.6917" y="497.7108">for players</text></g><!--entity Generate anonymous players--><g class="entity" data-entity="Generate anonymous players" data-source-line="31" data-uid="ent0043" id="entity_Generate anonymous players"><ellipse cx="410.1934" cy="565.8287" fill="#F1F1F1" rx="114.2934" ry="25.2587" style="stroke:#181818;stroke-width:0.5;"/><text fill="#000000" font-family="sans-serif" font-size="14" lengthAdjust="spacing" textLength="207.1357" x="306.6256" y="570.4771">Generate anonymous players</text></g><!--entity Show sessions with status--><g class="entity" data-entity="Show sessions with status" data-source-line="32" data-uid="ent0045" id="entity_Show sessions with status"><ellipse cx="410.1942" cy="648.8288" fill="#F1F1F1" rx="103.1442" ry="23.0288" style="stroke:#181818;stroke-width:0.5;"/><text fill="#000000" font-family="sans-serif" font-size="14" lengthAdjust="spacing" textLength="182.9639" x="318.7123" y="653.4773">Show sessions with status</text></g><!--entity Show facilitators and\nplayers for session--><g class="entity" data-entity="Show facilitators and.nplayers for session" data-source-line="33" data-uid="ent0047" id="entity_Show facilitators and.nplayers for session"><ellipse cx="410.1921" cy="731.8297" fill="#F1F1F1" rx="104.3821" ry="25.4697" style="stroke:#181818;stroke-width:0.5;"/><text fill="#000000" font-family="sans-serif" font-size="14" lengthAdjust="spacing" textLength="147.0615" x="336.6613" y="729.1573">Show facilitators and</text><text fill="#000000" font-family="sans-serif" font-size="14" lengthAdjust="spacing" textLength="131.2773" x="344.5534" y="745.4542">players for session</text></g><!--reverse link User to Administrator--><g class="link" data-entity-1="User" data-entity-2="Administrator" data-source-line="4" data-uid="lnk5" id="link_User_Administrator"><path d="M52.1327,1022.7527 C71.8227,1006.5027 93.06,988.99 121.86,965.23" fill="none" id="User-backto-Administrator" style="stroke:#181818;stroke-width:1;"/><polygon fill="none" points="38.25,1034.21,55.9518,1027.3803,48.3136,1018.1251,38.25,1034.21" style="stroke:#181818;stroke-width:1;"/></g><!--reverse link Administrator to OGA--><g class="link" data-entity-1="Administrator" data-entity-2="OGA" data-source-line="5" data-uid="lnk6" id="link_Administrator_OGA"><path d="M235.1672,940.9329 C263.7072,947.1529 283.49,951.45 317.63,958.89" fill="none" id="Administrator-backto-OGA" style="stroke:#181818;stroke-width:1;"/><polygon fill="none" points="217.58,937.1,233.8895,946.7953,236.4448,935.0706,217.58,937.1" style="stroke:#181818;stroke-width:1;"/></g><!--link User to Login--><g class="link" data-entity-1="User" data-entity-2="Login" data-source-line="7" data-uid="lnk8" id="link_User_Login"><path d="M38.25,1043.46 C62.75,1038.07 105.2901,1028.7089 135.6601,1022.0289" fill="none" id="User-to-Login" style="stroke:#181818;stroke-width:1;"/><polygon fill="#181818" points="141.52,1020.74,131.8708,1018.7668,136.6367,1021.8141,133.5894,1026.58,141.52,1020.74" style="stroke:#181818;stroke-width:1;"/></g><!--link User to Set password--><g class="link" data-entity-1="User" data-entity-2="Set password" data-source-line="8" data-uid="lnk10" id="link_User_Set password"><path d="M38.25,1050.3 C57.79,1054.73 86.6888,1061.2819 115.3688,1067.7919" fill="none" id="User-to-Set password" style="stroke:#181818;stroke-width:1;"/><polygon fill="#181818" points="121.22,1069.12,113.3287,1063.227,116.344,1068.0132,111.5578,1071.0286,121.22,1069.12" style="stroke:#181818;stroke-width:1;"/></g><!--link User to Logout--><g class="link" data-entity-1="User" data-entity-2="Logout" data-source-line="9" data-uid="lnk12" id="link_User_Logout"><path d="M38.28,1061.08 C53.99,1075.26 79.52,1097.11 103.91,1112.83 C116.41,1120.88 125.7885,1125.8322 138.0585,1131.5322" fill="none" id="User-to-Logout" style="stroke:#181818;stroke-width:1;"/><polygon fill="#181818" points="143.5,1134.06,137.023,1126.6406,138.9654,1131.9535,133.6525,1133.8959,143.5,1134.06" style="stroke:#181818;stroke-width:1;"/></g><!--link Administrator to User administration--><g class="link" data-entity-1="Administrator" data-entity-2="User administration" data-source-line="11" data-uid="lnk14" id="link_Administrator_User administration"><path d="M217.65,893.07 C240.51,877.8 268.81,860.4 295.9,847.83 C314.33,839.26 329.6194,833.7053 348.4994,827.9653" fill="none" id="Administrator-to-User administration" style="stroke:#181818;stroke-width:1;"/><polygon fill="#181818" points="354.24,826.22,344.4656,825.0109,349.4562,827.6744,346.7927,832.665,354.24,826.22" style="stroke:#181818;stroke-width:1;"/></g><!--link User administration to Create user--><g class="link" data-entity-1="User administration" data-entity-2="Create user" data-source-line="17" data-uid="lnk19" id="link_User administration_Create user"><path d="M462.44,796.62 C482.05,790.4 504.5,782.8 524.48,774.83 C552.36,763.7 557.84,757.54 585.48,745.83 C602.13,738.77 615.2728,733.7148 630.9928,727.9848" fill="none" id="User administration-to-Create user" style="stroke:#181818;stroke-width:1;"/><polygon fill="#181818" points="636.63,725.93,626.8044,725.254,631.9323,727.6423,629.5441,732.7703,636.63,725.93" style="stroke:#181818;stroke-width:1;"/></g><!--link User administration to Delete user--><g class="link" data-entity-1="User administration" data-entity-2="Delete user" data-source-line="18" data-uid="lnk21" id="link_User administration_Delete user"><path d="M483.23,802.4 C526.03,796.8 573.4207,790.5987 612.3107,785.5087" fill="none" id="User administration-to-Delete user" style="stroke:#181818;stroke-width:1;"/><polygon fill="#181818" points="618.26,784.73,608.817,781.9318,613.3023,785.3789,609.8552,789.8642,618.26,784.73" style="stroke:#181818;stroke-width:1;"/></g><!--link User administration to Reset user password--><g class="link" data-entity-1="User administration" data-entity-2="Reset user password" data-source-line="19" data-uid="lnk23" id="link_User administration_Reset user password"><path d="M482.88,821.48 C518.33,826.26 555.1337,831.219 590.9137,836.039" fill="none" id="User administration-to-Reset user password" style="stroke:#181818;stroke-width:1;"/><polygon fill="#181818" points="596.86,836.84,588.4746,831.6743,591.9048,836.1725,587.4065,839.6026,596.86,836.84" style="stroke:#181818;stroke-width:1;"/></g><!--link User administration to Set user access--><g class="link" data-entity-1="User administration" data-entity-2="Set user access" data-source-line="20" data-uid="lnk25" id="link_User administration_Set user access"><path d="M465.71,826.43 C484.66,832.21 505.83,839.49 524.48,847.83 C553.22,860.67 557.22,869.97 585.48,883.83 C600.27,891.07 611.4018,895.8313 626.1318,901.5113" fill="none" id="User administration-to-Set user access" style="stroke:#181818;stroke-width:1;"/><polygon fill="#181818" points="631.73,903.67,624.7718,896.6998,627.0648,901.8711,621.8935,904.1641,631.73,903.67" style="stroke:#181818;stroke-width:1;"/></g><!--link SA to Manage--><g class="link" data-entity-1="SA" data-entity-2="Manage" data-source-line="23" data-uid="lnk28" id="link_SA_Manage"><path d="M35.86,362.83 C51.23,362.83 72.02,362.83 97.52,362.83" fill="none" id="SA-to-Manage" style="stroke:#181818;stroke-width:1;"/><polygon fill="#181818" points="103.52,362.83,94.52,358.83,98.52,362.83,94.52,366.83,103.52,362.83" style="stroke:#181818;stroke-width:1;"/><text fill="#000000" font-family="sans-serif" font-size="13" lengthAdjust="spacing" textLength="4.1323" x="68.91" y="207.8969">&#160;</text><text fill="#000000" font-family="sans-serif" font-size="13" lengthAdjust="spacing" textLength="4.1323" x="68.91" y="223.0297">&#160;</text><text fill="#000000" font-family="sans-serif" font-size="13" lengthAdjust="spacing" textLength="4.1323" x="68.91" y="238.1625">&#160;</text><text fill="#000000" font-family="sans-serif" font-size="13" lengthAdjust="spacing" textLength="4.1323" x="68.91" y="253.2953">&#160;</text><text fill="#000000" font-family="sans-serif" font-size="13" lengthAdjust="spacing" textLength="4.1323" x="68.91" y="268.4281">&#160;</text><text fill="#000000" font-family="sans-serif" font-size="13" lengthAdjust="spacing" textLength="4.1323" x="68.91" y="283.561">&#160;</text><text fill="#000000" font-family="sans-serif" font-size="13" lengthAdjust="spacing" textLength="4.1323" x="68.91" y="298.6938">&#160;</text><text fill="#000000" font-family="sans-serif" font-size="13" lengthAdjust="spacing" textLength="4.1323" x="68.91" y="313.8266">&#160;</text><text fill="#000000" font-family="sans-serif" font-size="13" lengthAdjust="spacing" textLength="4.1323" x="68.91" y="328.9594">&#160;</text><text fill="#000000" font-family="sans-serif" font-size="13" lengthAdjust="spacing" textLength="4.1323" x="68.91" y="344.0922">&#160;</text><text fill="#000000" font-family="sans-serif" font-size="13" lengthAdjust="spacing" textLength="4.1323" x="68.91" y="359.225">&#160;</text></g><!--link Manage to Create game session--><g class="link" data-entity-1="Manage" data-entity-2="Create game session" data-source-line="24" data-uid="lnk30" id="link_Manage_Create game session"><path d="M173.74,338.44 C182.76,281.94 212.78,141.03 295.9,63.83 C308.59,52.04 319.3729,45.8419 335.8029,40.2219" fill="none" id="Manage-to-Create game session" style="stroke:#181818;stroke-width:1;"/><polygon fill="#181818" points="341.48,38.28,331.6698,37.4081,336.7491,39.8982,334.259,44.9775,341.48,38.28" style="stroke:#181818;stroke-width:1;"/></g><!--link Manage to Set session dates--><g class="link" data-entity-1="Manage" data-entity-2="Set session dates" data-source-line="25" data-uid="lnk32" id="link_Manage_Set session dates"><path d="M177.04,338.46 C191.02,291.74 227.94,189.3 295.9,133.83 C310.33,122.05 322.9614,115.9047 340.7014,110.7147" fill="none" id="Manage-to-Set session dates" style="stroke:#181818;stroke-width:1;"/><polygon fill="#181818" points="346.46,109.03,336.6989,107.718,341.6612,110.4339,338.9452,115.3962,346.46,109.03" style="stroke:#181818;stroke-width:1;"/></g><!--link Manage to Set allowable strategies--><g class="link" data-entity-1="Manage" data-entity-2="Set allowable strategies" data-source-line="26" data-uid="lnk34" id="link_Manage_Set allowable strategies"><path d="M184.35,338.92 C204.8,305.84 245.97,246.31 295.9,211.83 C310.1,202.01 321.3466,196.4413 337.6966,190.7213" fill="none" id="Manage-to-Set allowable strategies" style="stroke:#181818;stroke-width:1;"/><polygon fill="#181818" points="343.36,188.74,333.544,187.9364,338.6405,190.3911,336.1858,195.4876,343.36,188.74" style="stroke:#181818;stroke-width:1;"/></g><!--link Manage to Delete game session--><g class="link" data-entity-1="Manage" data-entity-2="Delete game session" data-source-line="27" data-uid="lnk36" id="link_Manage_Delete game session"><path d="M200.98,341.24 C225.72,324.48 261.91,301.54 295.9,285.83 C314.11,277.4 329.0674,271.8533 347.7274,265.9733" fill="none" id="Manage-to-Delete game session" style="stroke:#181818;stroke-width:1;"/><polygon fill="#181818" points="353.45,264.17,343.6639,263.0598,348.6812,265.6727,346.0683,270.69,353.45,264.17" style="stroke:#181818;stroke-width:1;"/></g><!--link Manage to Allocate user to game--><g class="link" data-entity-1="Manage" data-entity-2="Allocate user to game" data-source-line="28" data-uid="lnk38" id="link_Manage_Allocate user to game"><path d="M230.04,353.09 C262.23,347.83 296.2985,342.2675 330.3285,336.7075" fill="none" id="Manage-to-Allocate user to game" style="stroke:#181818;stroke-width:1;"/><polygon fill="#181818" points="336.25,335.74,326.7228,333.2436,331.3154,336.5462,328.0128,341.1389,336.25,335.74" style="stroke:#181818;stroke-width:1;"/></g><!--link Manage to Allocate player to game--><g class="link" data-entity-1="Manage" data-entity-2="Allocate player to game" data-source-line="29" data-uid="lnk40" id="link_Manage_Allocate player to game"><path d="M230.04,372.32 C260.57,377.18 292.1944,382.2078 325.0244,387.4278" fill="none" id="Manage-to-Allocate player to game" style="stroke:#181818;stroke-width:1;"/><polygon fill="#181818" points="330.95,388.37,322.6898,383.0064,326.012,387.5849,321.4335,390.9071,330.95,388.37" style="stroke:#181818;stroke-width:1;"/></g><!--link Manage to Allow self registration\nfor players--><g class="link" data-entity-1="Manage" data-entity-2="Allow self registration.nfor players" data-source-line="30" data-uid="lnk42" id="link_Manage_Allow self registration.nfor players"><path d="M201.67,384.39 C226.49,400.91 262.45,423.56 295.9,439.83 C312.97,448.13 326.4959,453.7467 344.1359,460.2067" fill="none" id="Manage-to-Allow self registration\nfor players" style="stroke:#181818;stroke-width:1;"/><polygon fill="#181818" points="349.77,462.27,342.6944,455.419,345.0749,460.5506,339.9434,462.9311,349.77,462.27" style="stroke:#181818;stroke-width:1;"/></g><!--link Manage to Generate anonymous players--><g class="link" data-entity-1="Manage" data-entity-2="Generate anonymous players" data-source-line="31" data-uid="lnk44" id="link_Manage_Generate anonymous players"><path d="M183.48,386.8 C203.46,421.37 244.71,485.17 295.9,522.83 C308.61,532.18 318.0301,537.4846 332.8701,543.5046" fill="none" id="Manage-to-Generate anonymous players" style="stroke:#181818;stroke-width:1;"/><polygon fill="#181818" points="338.43,545.76,331.5937,538.6702,333.7967,543.8805,328.5865,546.0835,338.43,545.76" style="stroke:#181818;stroke-width:1;"/></g><!--link Manage to Show sessions with status--><g class="link" data-entity-1="Manage" data-entity-2="Show sessions with status" data-source-line="32" data-uid="lnk46" id="link_Manage_Show sessions with status"><path d="M176.3,387.2 C189.38,436.17 225.38,547.07 295.9,608.83 C307.51,619 316.2842,624.4394 330.8442,630.1494" fill="none" id="Manage-to-Show sessions with status" style="stroke:#181818;stroke-width:1;"/><polygon fill="#181818" points="336.43,632.34,329.5117,625.3302,331.7752,630.5145,326.5909,632.778,336.43,632.34" style="stroke:#181818;stroke-width:1;"/></g><!--link Manage to Show facilitators and\nplayers for session--><g class="link" data-entity-1="Manage" data-entity-2="Show facilitators and.nplayers for session" data-source-line="33" data-uid="lnk48" id="link_Manage_Show facilitators and.nplayers for session"><path d="M172.97,387.47 C180.5,447.51 207.9,602.83 295.9,689.83 C306.49,700.3 314.4039,705.8294 328.2839,711.7694" fill="none" id="Manage-to-Show facilitators and\nplayers for session" style="stroke:#181818;stroke-width:1;"/><polygon fill="#181818" points="333.8,714.13,327.0996,706.9116,329.2032,712.1628,323.9521,714.2664,333.8,714.13" style="stroke:#181818;stroke-width:1;"/></g><!--SRC=[ZPBFQiCm3CRlVWgHKtt82umn21lqib5Os2qNDL5IWsCNso5qxE4dEmbB_p9oYQIVFt-IhAaD42murHq2DCfH7PGr0aIsSnqQzOqnphVO4s3JAvC1UjXj2_7boS7pJvv34VFA1uV1Ed4MJK349pxFNs3pRZjbv2fHKe0ZUZzQryXpq0v1YWlDL4iK_kNPfHJ61eAz3S7s0Y27eyOJkVJROgsq2iaYcGOYAiHDcUc2LqV8QWC3yX7tHfh-mtsIvpOZjkhr0LykDDOrUSzJo3xGO4ULwU8sF2UPJllOJ1KfoY8Tda9uWgmorrycvlgwpxMcF0EYaRa03QF-kenQsn7tcXLY4zIfIsgUqlrR2fQebu779ndHEyYqrllGo5Ve5XpxM8PQcPPVpdJmmjgM34NJWCQQKsy7Vvih3qauUVSmgd3WRZ4Cjx3LQ_EisrHcbeHeOnd0Bm00]--></g></svg>