<svg xmlns="http://www.w3.org/2000/svg" xmlns:xlink="http://www.w3.org/1999/xlink" contentStyleType="text/css" data-diagram-type="DESCRIPTION" height="801px" preserveAspectRatio="none" style="width:1009px;height:801px;background:#FFFFFF;" version="1.1" viewBox="0 0 1009 801" width="1009px" zoomAndPan="magnify"><defs/><g><!--entity OGA--><g class="entity" data-entity="OGA" data-source-line="3" data-uid="ent0002" id="entity_OGA"><ellipse cx="382.8279" cy="322.9" fill="#F1F1F1" rx="8" ry="8" style="stroke:#181818;stroke-width:0.5;"/><path d="M382.8279,330.9 L382.8279,357.9 M369.8279,338.9 L395.8279,338.9 M382.8279,357.9 L369.8279,372.9 M382.8279,357.9 L395.8279,372.9" fill="none" style="stroke:#181818;stroke-width:0.5;"/><text fill="#000000" font-family="sans-serif" font-size="14" lengthAdjust="spacing" textLength="184.7959" x="290.43" y="387.3951">Organization-Game admin</text></g><!--entity User--><g class="entity" data-entity="User" data-source-line="4" data-uid="ent0003" id="entity_User"><ellipse cx="21.9551" cy="344.9" fill="#F1F1F1" rx="8" ry="8" style="stroke:#181818;stroke-width:0.5;"/><path d="M21.9551,352.9 L21.9551,379.9 M8.9551,360.9 L34.9551,360.9 M21.9551,379.9 L8.9551,394.9 M21.9551,379.9 L34.9551,394.9" fill="none" style="stroke:#181818;stroke-width:0.5;"/><text fill="#000000" font-family="sans-serif" font-size="14" lengthAdjust="spacing" textLength="31.9102" x="6" y="409.3951">User</text></g><!--entity Administrator--><g class="entity" data-entity="Administrator" data-source-line="4" data-uid="ent0004" id="entity_Administrator"><ellipse cx="164.1713" cy="223.9" fill="#F1F1F1" rx="8" ry="8" style="stroke:#181818;stroke-width:0.5;"/><path d="M164.1713,231.9 L164.1713,258.9 M151.1713,239.9 L177.1713,239.9 M164.1713,258.9 L151.1713,273.9 M164.1713,258.9 L177.1713,273.9" fill="none" style="stroke:#181818;stroke-width:0.5;"/><text fill="#000000" font-family="sans-serif" font-size="14" lengthAdjust="spacing" textLength="95.6826" x="116.33" y="288.3951">Administrator</text></g><!--entity Login--><g class="entity" data-entity="Login" data-source-line="7" data-uid="ent0007" id="entity_Login"><ellipse cx="164.1704" cy="341.5536" fill="#F1F1F1" rx="29.8804" ry="14.5236" style="stroke:#181818;stroke-width:0.5;"/><text fill="#000000" font-family="sans-serif" font-size="14" lengthAdjust="spacing" textLength="38.0146" x="145.1631" y="346.2021">Login</text></g><!--entity Set password--><g class="entity" data-entity="Set password" data-source-line="8" data-uid="ent0009" id="entity_Set password"><ellipse cx="164.1679" cy="406.5516" fill="#F1F1F1" rx="65.2579" ry="15.4516" style="stroke:#181818;stroke-width:0.5;"/><text fill="#000000" font-family="sans-serif" font-size="14" lengthAdjust="spacing" textLength="94.1514" x="117.0922" y="411.2">Set password</text></g><!--entity Logout--><g class="entity" data-entity="Logout" data-source-line="9" data-uid="ent0011" id="entity_Logout"><ellipse cx="164.1682" cy="471.5536" fill="#F1F1F1" rx="37.0682" ry="14.5236" style="stroke:#181818;stroke-width:0.5;"/><text fill="#000000" font-family="sans-serif" font-size="14" lengthAdjust="spacing" textLength="48.1797" x="140.0783" y="476.2021">Logout</text></g><!--entity User administration--><g class="entity" data-entity="User administration" data-source-line="11" data-uid="ent0013" id="entity_User administration"><ellipse cx="382.823" cy="153.5506" fill="#F1F1F1" rx="83.153" ry="19.0306" style="stroke:#181818;stroke-width:0.5;"/><text fill="#000000" font-family="sans-serif" font-size="14" lengthAdjust="spacing" textLength="138.0518" x="313.7971" y="158.199">User administration</text></g><g class="entity" data-entity="GMN15" data-source-line="13" data-uid="ent0016" id="entity_GMN15"><path d="M336.92,207.42 L336.92,247.6856 A0,0 0 0 0 336.92,247.6856 L428.7281,247.6856 A0,0 0 0 0 428.7281,247.6856 L428.7281,217.42 L418.7281,207.42 L386.82,207.42 L382.82,172.77 L378.82,207.42 L336.92,207.42 A0,0 0 0 0 336.92,207.42" fill="#FEFFDD" style="stroke:#181818;stroke-width:0.5;"/><path d="M418.7281,207.42 L418.7281,217.42 L428.7281,217.42 L418.7281,207.42" fill="#FEFFDD" style="stroke:#181818;stroke-width:0.5;"/><text fill="#000000" font-family="sans-serif" font-size="13" lengthAdjust="spacing" textLength="49.6895" x="342.92" y="224.4869">- player</text><text fill="#000000" font-family="sans-serif" font-size="13" lengthAdjust="spacing" textLength="70.8081" x="342.92" y="239.6197">- facilitator</text></g><!--entity Create user--><g class="entity" data-entity="Create user" data-source-line="17" data-uid="ent0018" id="entity_Create user"><ellipse cx="627.7743" cy="20.5469" fill="#F1F1F1" rx="60.7343" ry="14.5469" style="stroke:#181818;stroke-width:0.5;"/><text fill="#000000" font-family="sans-serif" font-size="14" lengthAdjust="spacing" textLength="81.8125" x="586.868" y="25.1953">Create user</text></g><!--entity Delete user--><g class="entity" data-entity="Delete user" data-source-line="18" data-uid="ent0020" id="entity_Delete user"><ellipse cx="627.7653" cy="84.5536" fill="#F1F1F1" rx="60.2653" ry="14.5236" style="stroke:#181818;stroke-width:0.5;"/><text fill="#000000" font-family="sans-serif" font-size="14" lengthAdjust="spacing" textLength="80.9854" x="587.2726" y="89.2021">Delete user</text></g><!--entity Reset user password--><g class="entity" data-entity="Reset user password" data-source-line="19" data-uid="ent0022" id="entity_Reset user password"><ellipse cx="627.7699" cy="153.55" fill="#F1F1F1" rx="86.5499" ry="19.71" style="stroke:#181818;stroke-width:0.5;"/><text fill="#000000" font-family="sans-serif" font-size="14" lengthAdjust="spacing" textLength="145.8857" x="554.827" y="158.1984">Reset user password</text></g><!--entity Set user access--><g class="entity" data-entity="Set user access" data-source-line="20" data-uid="ent0024" id="entity_Set user access"><ellipse cx="627.7661" cy="224.5472" fill="#F1F1F1" rx="71.2861" ry="16.6572" style="stroke:#181818;stroke-width:0.5;"/><text fill="#000000" font-family="sans-serif" font-size="14" lengthAdjust="spacing" textLength="109.6006" x="572.9659" y="229.1957">Set user access</text></g><!--entity Manage--><g class="entity" data-entity="Manage" data-source-line="22" data-uid="ent0026" id="entity_Manage"><ellipse cx="627.7733" cy="400.5498" fill="#F1F1F1" rx="65.4933" ry="24.2198" style="stroke:#181818;stroke-width:0.5;"/><text fill="#000000" font-family="sans-serif" font-size="14" lengthAdjust="spacing" textLength="55.6104" x="599.9681" y="394.343">Manage</text><text fill="#000000" font-family="sans-serif" font-size="14" lengthAdjust="spacing" textLength="95.9902" x="579.7781" y="410.6398">game session</text></g><!--entity Create game session--><g class="entity" data-entity="Create game session" data-source-line="24" data-uid="ent0028" id="entity_Create game session"><ellipse cx="889.6234" cy="63.5507" fill="#F1F1F1" rx="87.1534" ry="19.8307" style="stroke:#181818;stroke-width:0.5;"/><text fill="#000000" font-family="sans-serif" font-size="14" lengthAdjust="spacing" textLength="147.2666" x="815.9901" y="68.1991">Create game session</text></g><!--entity Set session dates--><g class="entity" data-entity="Set session dates" data-source-line="25" data-uid="ent0030" id="entity_Set session dates"><ellipse cx="889.6241" cy="136.5488" fill="#F1F1F1" rx="76.5941" ry="17.7188" style="stroke:#181818;stroke-width:0.5;"/><text fill="#000000" font-family="sans-serif" font-size="14" lengthAdjust="spacing" textLength="122.5752" x="828.3365" y="141.1973">Set session dates</text></g><!--entity Set allowable strategies--><g class="entity" data-entity="Set allowable strategies" data-source-line="26" data-uid="ent0032" id="entity_Set allowable strategies"><ellipse cx="889.6206" cy="210.5541" fill="#F1F1F1" rx="96.4206" ry="21.6841" style="stroke:#181818;stroke-width:0.5;"/><text fill="#000000" font-family="sans-serif" font-size="14" lengthAdjust="spacing" textLength="168.1367" x="805.5523" y="215.2026">Set allowable strategies</text></g><!--entity Delete game session--><g class="entity" data-entity="Delete game session" data-source-line="27" data-uid="ent0034" id="entity_Delete game session"><ellipse cx="889.6217" cy="286.5483" fill="#F1F1F1" rx="86.7917" ry="19.7583" style="stroke:#181818;stroke-width:0.5;"/><text fill="#000000" font-family="sans-serif" font-size="14" lengthAdjust="spacing" textLength="146.4395" x="816.402" y="291.1968">Delete game session</text></g><!--entity Allocate user to game--><g class="entity" data-entity="Allocate user to game" data-source-line="28" data-uid="ent0036" id="entity_Allocate user to game"><ellipse cx="889.6163" cy="361.5493" fill="#F1F1F1" rx="90.0963" ry="20.4193" style="stroke:#181818;stroke-width:0.5;"/><text fill="#000000" font-family="sans-serif" font-size="14" lengthAdjust="spacing" textLength="153.959" x="812.6368" y="366.1977">Allocate user to game</text></g><!--entity Allocate player to game--><g class="entity" data-entity="Allocate player to game" data-source-line="29" data-uid="ent0038" id="entity_Allocate player to game"><ellipse cx="889.624" cy="438.5508" fill="#F1F1F1" rx="96.104" ry="21.6208" style="stroke:#181818;stroke-width:0.5;"/><text fill="#000000" font-family="sans-serif" font-size="14" lengthAdjust="spacing" textLength="167.4326" x="805.9076" y="443.1992">Allocate player to game</text></g><!--entity Allow self registration\nfor players--><g class="entity" data-entity="Allow self registration.nfor players" data-source-line="30" data-uid="ent0040" id="entity_Allow self registration.nfor players"><ellipse cx="889.6237" cy="519.5507" fill="#F1F1F1" rx="100.8937" ry="23.9807" style="stroke:#181818;stroke-width:0.5;"/><text fill="#000000" font-family="sans-serif" font-size="14" lengthAdjust="spacing" textLength="152.0791" x="813.5841" y="519.1339">Allow self registration</text><text fill="#000000" font-family="sans-serif" font-size="14" lengthAdjust="spacing" textLength="75.0039" x="852.1217" y="535.4308">for players</text></g><!--entity Generate anonymous players--><g class="entity" data-entity="Generate anonymous players" data-source-line="31" data-uid="ent0042" id="entity_Generate anonymous players"><ellipse cx="889.6234" cy="603.5487" fill="#F1F1F1" rx="114.2934" ry="25.2587" style="stroke:#181818;stroke-width:0.5;"/><text fill="#000000" font-family="sans-serif" font-size="14" lengthAdjust="spacing" textLength="207.1357" x="786.0556" y="608.1971">Generate anonymous players</text></g><!--entity Show sessions with status--><g class="entity" data-entity="Show sessions with status" data-source-line="32" data-uid="ent0044" id="entity_Show sessions with status"><ellipse cx="889.6242" cy="686.5488" fill="#F1F1F1" rx="103.1442" ry="23.0288" style="stroke:#181818;stroke-width:0.5;"/><text fill="#000000" font-family="sans-serif" font-size="14" lengthAdjust="spacing" textLength="182.9639" x="798.1423" y="691.1973">Show sessions with status</text></g><!--entity Show facilitators and\nplayers for session--><g class="entity" data-entity="Show facilitators and.nplayers for session" data-source-line="33" data-uid="ent0046" id="entity_Show facilitators and.nplayers for session"><ellipse cx="889.6221" cy="769.5497" fill="#F1F1F1" rx="104.3821" ry="25.4697" style="stroke:#181818;stroke-width:0.5;"/><text fill="#000000" font-family="sans-serif" font-size="14" lengthAdjust="spacing" textLength="147.0615" x="816.0913" y="766.8773">Show facilitators and</text><text fill="#000000" font-family="sans-serif" font-size="14" lengthAdjust="spacing" textLength="131.2773" x="823.9834" y="783.1742">players for session</text></g><!--reverse link User to Administrator--><g class="link" data-entity-1="User" data-entity-2="Administrator" data-source-line="4" data-uid="lnk5" id="link_User_Administrator"><path d="M51.8554,349.6078 C71.0154,333.0678 91.09,315.75 118.66,291.96" fill="none" id="User-backto-Administrator" style="stroke:#181818;stroke-width:1;"/><polygon fill="none" points="38.23,361.37,55.7761,354.1496,47.9346,345.066,38.23,361.37" style="stroke:#181818;stroke-width:1;"/></g><!--reverse link Administrator to OGA--><g class="link" data-entity-1="Administrator" data-entity-2="OGA" data-source-line="5" data-uid="lnk6" id="link_Administrator_OGA"><path d="M228.8213,282.6321 C253.7213,294.0121 268.64,300.83 297.53,314.03" fill="none" id="Administrator-backto-OGA" style="stroke:#181818;stroke-width:1;"/><polygon fill="none" points="212.45,275.15,226.3272,288.0892,231.3153,277.175,212.45,275.15" style="stroke:#181818;stroke-width:1;"/></g><!--link User to Login--><g class="link" data-entity-1="User" data-entity-2="Login" data-source-line="7" data-uid="lnk8" id="link_User_Login"><path d="M38.34,370.73 C47.02,368.59 58.06,365.89 67.91,363.55 C91.03,358.05 111.501,353.3275 130.611,348.9575" fill="none" id="User-to-Login" style="stroke:#181818;stroke-width:1;"/><polygon fill="#181818" points="136.46,347.62,126.7948,345.727,131.5858,348.7346,128.5782,353.5256,136.46,347.62" style="stroke:#181818;stroke-width:1;"/></g><!--link User to Set password--><g class="link" data-entity-1="User" data-entity-2="Set password" data-source-line="8" data-uid="lnk10" id="link_User_Set password"><path d="M38.23,378.04 C56.75,382.26 83.0106,388.2543 110.0306,394.4243" fill="none" id="User-to-Set password" style="stroke:#181818;stroke-width:1;"/><polygon fill="#181818" points="115.88,395.76,107.9963,389.8568,111.0055,394.6469,106.2154,397.6561,115.88,395.76" style="stroke:#181818;stroke-width:1;"/></g><!--link User to Logout--><g class="link" data-entity-1="User" data-entity-2="Logout" data-source-line="9" data-uid="lnk12" id="link_User_Logout"><path d="M38.34,389.71 C53.07,403.73 76.34,424.6 98.91,439.55 C111.28,447.74 120.585,452.7097 132.835,458.3797" fill="none" id="User-to-Logout" style="stroke:#181818;stroke-width:1;"/><polygon fill="#181818" points="138.28,460.9,131.7926,453.4896,133.7425,458.7998,128.4323,460.7496,138.28,460.9" style="stroke:#181818;stroke-width:1;"/></g><!--link Administrator to User administration--><g class="link" data-entity-1="Administrator" data-entity-2="User administration" data-source-line="11" data-uid="lnk14" id="link_Administrator_User administration"><path d="M212.22,228.14 C235.49,215.92 264.16,201.4 290.43,189.55 C305.66,182.68 317.0375,177.9634 332.1675,172.0834" fill="none" id="Administrator-to-User administration" style="stroke:#181818;stroke-width:1;"/><polygon fill="#181818" points="337.76,169.91,327.9223,169.4418,333.0996,171.7212,330.8202,176.8985,337.76,169.91" style="stroke:#181818;stroke-width:1;"/></g><!--link User administration to Create user--><g class="link" data-entity-1="User administration" data-entity-2="Create user" data-source-line="17" data-uid="lnk19" id="link_User administration_Create user"><path d="M408.74,135.19 C438.97,113.48 492.01,77.19 541.22,52.55 C556.82,44.74 569.1521,39.7271 584.5921,34.2771" fill="none" id="User administration-to-Create user" style="stroke:#181818;stroke-width:1;"/><polygon fill="#181818" points="590.25,32.28,580.4318,31.5038,585.5351,33.9443,583.0946,39.0476,590.25,32.28" style="stroke:#181818;stroke-width:1;"/></g><!--link User administration to Delete user--><g class="link" data-entity-1="User administration" data-entity-2="Delete user" data-source-line="18" data-uid="lnk21" id="link_User administration_Delete user"><path d="M436.54,138.58 C481.9,125.7 540.5484,109.0396 581.5584,97.3896" fill="none" id="User administration-to-Delete user" style="stroke:#181818;stroke-width:1;"/><polygon fill="#181818" points="587.33,95.75,577.5795,94.3616,582.5203,97.1163,579.7656,102.0571,587.33,95.75" style="stroke:#181818;stroke-width:1;"/></g><!--link User administration to Reset user password--><g class="link" data-entity-1="User administration" data-entity-2="Reset user password" data-source-line="19" data-uid="lnk23" id="link_User administration_Reset user password"><path d="M466.41,153.55 C490.49,153.55 510.84,153.55 535.1,153.55" fill="none" id="User administration-to-Reset user password" style="stroke:#181818;stroke-width:1;"/><polygon fill="#181818" points="541.1,153.55,532.1,149.55,536.1,153.55,532.1,157.55,541.1,153.55" style="stroke:#181818;stroke-width:1;"/></g><!--link User administration to Set user access--><g class="link" data-entity-1="User administration" data-entity-2="Set user access" data-source-line="20" data-uid="lnk25" id="link_User administration_Set user access"><path d="M435.64,168.69 C479.12,181.4 534.8312,197.676 576.2112,209.776" fill="none" id="User administration-to-Set user access" style="stroke:#181818;stroke-width:1;"/><polygon fill="#181818" points="581.97,211.46,574.4544,205.0948,577.171,210.0567,572.2091,212.7733,581.97,211.46" style="stroke:#181818;stroke-width:1;"/></g><!--link OGA to Manage--><g class="link" data-entity-1="OGA" data-entity-2="Manage" data-source-line="23" data-uid="lnk27" id="link_OGA_Manage"><path d="M463.04,391.08 C476.81,396.24 491.22,400.73 505.22,403.55 C524.26,407.39 539.3139,408.2959 558.4739,407.6059" fill="none" id="OGA-to-Manage" style="stroke:#181818;stroke-width:1;"/><polygon fill="#181818" points="564.47,407.39,555.3319,403.7165,559.4732,407.5699,555.6198,411.7113,564.47,407.39" style="stroke:#181818;stroke-width:1;"/><text fill="#000000" font-family="sans-serif" font-size="13" lengthAdjust="spacing" textLength="4.1323" x="506.22" y="248.6169">&#160;</text><text fill="#000000" font-family="sans-serif" font-size="13" lengthAdjust="spacing" textLength="4.1323" x="506.22" y="263.7497">&#160;</text><text fill="#000000" font-family="sans-serif" font-size="13" lengthAdjust="spacing" textLength="4.1323" x="506.22" y="278.8825">&#160;</text><text fill="#000000" font-family="sans-serif" font-size="13" lengthAdjust="spacing" textLength="4.1323" x="506.22" y="294.0153">&#160;</text><text fill="#000000" font-family="sans-serif" font-size="13" lengthAdjust="spacing" textLength="4.1323" x="506.22" y="309.1481">&#160;</text><text fill="#000000" font-family="sans-serif" font-size="13" lengthAdjust="spacing" textLength="4.1323" x="506.22" y="324.281">&#160;</text><text fill="#000000" font-family="sans-serif" font-size="13" lengthAdjust="spacing" textLength="4.1323" x="506.22" y="339.4138">&#160;</text><text fill="#000000" font-family="sans-serif" font-size="13" lengthAdjust="spacing" textLength="4.1323" x="506.22" y="354.5466">&#160;</text><text fill="#000000" font-family="sans-serif" font-size="13" lengthAdjust="spacing" textLength="4.1323" x="506.22" y="369.6794">&#160;</text><text fill="#000000" font-family="sans-serif" font-size="13" lengthAdjust="spacing" textLength="4.1323" x="506.22" y="384.8122">&#160;</text><text fill="#000000" font-family="sans-serif" font-size="13" lengthAdjust="spacing" textLength="4.1323" x="506.22" y="399.945">&#160;</text></g><!--link Manage to Create game session--><g class="link" data-entity-1="Manage" data-entity-2="Create game session" data-source-line="24" data-uid="lnk29" id="link_Manage_Create game session"><path d="M644.59,377.13 C662.83,349.54 693.01,301.95 714.32,258.55 C747.31,191.35 721.16,153.23 775.32,101.55 C787.78,89.66 798.3966,83.4425 814.7266,77.8225" fill="none" id="Manage-to-Create game session" style="stroke:#181818;stroke-width:1;"/><polygon fill="#181818" points="820.4,75.87,810.5882,75.0165,815.6722,77.4971,813.1916,82.5811,820.4,75.87" style="stroke:#181818;stroke-width:1;"/></g><!--link Manage to Set session dates--><g class="link" data-entity-1="Manage" data-entity-2="Set session dates" data-source-line="25" data-uid="lnk31" id="link_Manage_Set session dates"><path d="M643.27,376.95 C678.37,319.93 765.74,178.84 775.32,171.55 C790.39,160.08 803.4966,153.9982 821.4966,148.7882" fill="none" id="Manage-to-Set session dates" style="stroke:#181818;stroke-width:1;"/><polygon fill="#181818" points="827.26,147.12,817.5027,145.78,822.4571,148.5102,819.727,153.4646,827.26,147.12" style="stroke:#181818;stroke-width:1;"/></g><!--link Manage to Set allowable strategies--><g class="link" data-entity-1="Manage" data-entity-2="Set allowable strategies" data-source-line="26" data-uid="lnk33" id="link_Manage_Set allowable strategies"><path d="M645.8,377.03 C670.75,344.13 720.28,284.52 775.32,249.55 C790.25,240.07 802.0772,234.5343 818.7972,228.7743" fill="none" id="Manage-to-Set allowable strategies" style="stroke:#181818;stroke-width:1;"/><polygon fill="#181818" points="824.47,226.82,814.6579,225.9695,819.7427,228.4486,817.2636,233.5333,824.47,226.82" style="stroke:#181818;stroke-width:1;"/></g><!--link Manage to Delete game session--><g class="link" data-entity-1="Manage" data-entity-2="Delete game session" data-source-line="27" data-uid="lnk35" id="link_Manage_Delete game session"><path d="M663.8,380.01 C692.99,363.41 736.01,340.16 775.32,323.55 C794.29,315.54 809.9011,309.985 828.9011,303.955" fill="none" id="Manage-to-Delete game session" style="stroke:#181818;stroke-width:1;"/><polygon fill="#181818" points="834.62,302.14,824.8317,301.0499,829.8543,303.6525,827.2517,308.6751,834.62,302.14" style="stroke:#181818;stroke-width:1;"/></g><!--link Manage to Allocate user to game--><g class="link" data-entity-1="Manage" data-entity-2="Allocate user to game" data-source-line="28" data-uid="lnk37" id="link_Manage_Allocate user to game"><path d="M689.04,391.5 C726.22,385.92 768.2764,379.61 807.8764,373.67" fill="none" id="Manage-to-Allocate user to game" style="stroke:#181818;stroke-width:1;"/><polygon fill="#181818" points="813.81,372.78,804.3162,370.1593,808.8653,373.5217,805.5029,378.0708,813.81,372.78" style="stroke:#181818;stroke-width:1;"/></g><!--link Manage to Allocate player to game--><g class="link" data-entity-1="Manage" data-entity-2="Allocate player to game" data-source-line="29" data-uid="lnk39" id="link_Manage_Allocate player to game"><path d="M689.37,409.41 C724.76,414.59 763.9232,420.3111 802.2532,425.9211" fill="none" id="Manage-to-Allocate player to game" style="stroke:#181818;stroke-width:1;"/><polygon fill="#181818" points="808.19,426.79,799.8641,421.5288,803.2427,426.0659,798.7056,429.4445,808.19,426.79" style="stroke:#181818;stroke-width:1;"/></g><!--link Manage to Allow self registration\nfor players--><g class="link" data-entity-1="Manage" data-entity-2="Allow self registration.nfor players" data-source-line="30" data-uid="lnk41" id="link_Manage_Allow self registration.nfor players"><path d="M664.57,421.02 C693.85,437.36 736.6,460.29 775.32,477.55 C793.04,485.45 807.1169,491.0639 825.0569,497.6439" fill="none" id="Manage-to-Allow self registration\nfor players" style="stroke:#181818;stroke-width:1;"/><polygon fill="#181818" points="830.69,499.71,823.6178,492.8555,825.9958,497.9883,820.863,500.3662,830.69,499.71" style="stroke:#181818;stroke-width:1;"/></g><!--link Manage to Generate anonymous players--><g class="link" data-entity-1="Manage" data-entity-2="Generate anonymous players" data-source-line="31" data-uid="lnk43" id="link_Manage_Generate anonymous players"><path d="M644.81,424.13 C669.28,458.5 719.05,522.38 775.32,560.55 C788.73,569.64 798.7441,574.9443 813.9941,581.0043" fill="none" id="Manage-to-Generate anonymous players" style="stroke:#181818;stroke-width:1;"/><polygon fill="#181818" points="819.57,583.22,812.6833,576.1791,814.9234,581.3736,809.729,583.6137,819.57,583.22" style="stroke:#181818;stroke-width:1;"/></g><!--link Manage to Show sessions with status--><g class="link" data-entity-1="Manage" data-entity-2="Show sessions with status" data-source-line="32" data-uid="lnk45" id="link_Manage_Show sessions with status"><path d="M636.86,424.95 C654.32,473.97 700.15,584.95 775.32,646.55 C787.5,656.53 796.7491,661.9484 811.6391,667.6684" fill="none" id="Manage-to-Show sessions with status" style="stroke:#181818;stroke-width:1;"/><polygon fill="#181818" points="817.24,669.82,810.273,662.8586,812.5725,668.027,807.4042,670.3266,817.24,669.82" style="stroke:#181818;stroke-width:1;"/></g><!--link Manage to Show facilitators and\nplayers for session--><g class="link" data-entity-1="Manage" data-entity-2="Show facilitators and.nplayers for session" data-source-line="33" data-uid="lnk47" id="link_Manage_Show facilitators and.nplayers for session"><path d="M632.99,424.81 C644.62,484.67 682.66,640.83 775.32,727.55 C786.35,737.87 794.6081,743.3867 808.7281,749.3167" fill="none" id="Manage-to-Show facilitators and\nplayers for session" style="stroke:#181818;stroke-width:1;"/><polygon fill="#181818" points="814.26,751.64,807.5109,744.4671,809.65,749.7039,804.4132,751.8431,814.26,751.64" style="stroke:#181818;stroke-width:1;"/></g><!--SRC=[ZPBFQiCm3CRlVWgHKtt82umnA1lqib5OsIqNDL5IWsCNso5qxE4dsmbB_p9oYQIVFt-IhAaD42murHq2DCfH7PGr0aInTHqQzOqnBZVO4s3JArC0UjXkrkBBauFddxA4TSmh7nm6wyHPb868PxuiNs3rRZjbv2Anem17z7wqhf7de1s251UQgPOe_CkpIocC3GHx6uBj1K09HuqdSkctnLff5P95CWr4L8YRClc2LqV8QWC3yX7tHfh-mtsIvpOZjkZr0R-RQQnhyfwdK7oWmOugqyLjU4uodVQnoXKfUDBfT8xX2OhAN7-5cEhBHfUYyWo8JgO2D8pwwp9gRKVSQrQ8NL2dBgbfJFTlMRD4FKyylic8ta7oNkz38r-XMt3iOvvgPLf-EldWXRKD6Ogc0OqrfzuE_ZQtEoJXvDt3gCA1kyKmtC8MpyspRbEPIHAYZNa0lm00]--></g></svg>