<svg xmlns="http://www.w3.org/2000/svg" xmlns:xlink="http://www.w3.org/1999/xlink" contentStyleType="text/css" data-diagram-type="DESCRIPTION" height="877px" preserveAspectRatio="none" style="width:1009px;height:877px;background:#FFFFFF;" version="1.1" viewBox="0 0 1009 877" width="1009px" zoomAndPan="magnify"><defs/><g><!--entity OGA--><g class="entity" data-entity="OGA" data-source-line="3" data-uid="ent0002" id="entity_OGA"><ellipse cx="382.8279" cy="360.9" fill="#F1F1F1" rx="8" ry="8" style="stroke:#181818;stroke-width:0.5;"/><path d="M382.8279,368.9 L382.8279,395.9 M369.8279,376.9 L395.8279,376.9 M382.8279,395.9 L369.8279,410.9 M382.8279,395.9 L395.8279,410.9" fill="none" style="stroke:#181818;stroke-width:0.5;"/><text fill="#000000" font-family="sans-serif" font-size="14" lengthAdjust="spacing" textLength="184.7959" x="290.43" y="425.3951">Organization-Game admin</text></g><!--entity User--><g class="entity" data-entity="User" data-source-line="4" data-uid="ent0003" id="entity_User"><ellipse cx="21.9551" cy="382.9" fill="#F1F1F1" rx="8" ry="8" style="stroke:#181818;stroke-width:0.5;"/><path d="M21.9551,390.9 L21.9551,417.9 M8.9551,398.9 L34.9551,398.9 M21.9551,417.9 L8.9551,432.9 M21.9551,417.9 L34.9551,432.9" fill="none" style="stroke:#181818;stroke-width:0.5;"/><text fill="#000000" font-family="sans-serif" font-size="14" lengthAdjust="spacing" textLength="31.9102" x="6" y="447.3951">User</text></g><!--entity Administrator--><g class="entity" data-entity="Administrator" data-source-line="4" data-uid="ent0004" id="entity_Administrator"><ellipse cx="164.1713" cy="261.9" fill="#F1F1F1" rx="8" ry="8" style="stroke:#181818;stroke-width:0.5;"/><path d="M164.1713,269.9 L164.1713,296.9 M151.1713,277.9 L177.1713,277.9 M164.1713,296.9 L151.1713,311.9 M164.1713,296.9 L177.1713,311.9" fill="none" style="stroke:#181818;stroke-width:0.5;"/><text fill="#000000" font-family="sans-serif" font-size="14" lengthAdjust="spacing" textLength="95.6826" x="116.33" y="326.3951">Administrator</text></g><!--entity Login--><g class="entity" data-entity="Login" data-source-line="7" data-uid="ent0007" id="entity_Login"><ellipse cx="164.1704" cy="379.5536" fill="#F1F1F1" rx="29.8804" ry="14.5236" style="stroke:#181818;stroke-width:0.5;"/><text fill="#000000" font-family="sans-serif" font-size="14" lengthAdjust="spacing" textLength="38.0146" x="145.1631" y="384.2021">Login</text></g><!--entity Set password--><g class="entity" data-entity="Set password" data-source-line="8" data-uid="ent0009" id="entity_Set password"><ellipse cx="164.1679" cy="444.5516" fill="#F1F1F1" rx="65.2579" ry="15.4516" style="stroke:#181818;stroke-width:0.5;"/><text fill="#000000" font-family="sans-serif" font-size="14" lengthAdjust="spacing" textLength="94.1514" x="117.0922" y="449.2">Set password</text></g><!--entity Logout--><g class="entity" data-entity="Logout" data-source-line="9" data-uid="ent0011" id="entity_Logout"><ellipse cx="164.1682" cy="509.5536" fill="#F1F1F1" rx="37.0682" ry="14.5236" style="stroke:#181818;stroke-width:0.5;"/><text fill="#000000" font-family="sans-serif" font-size="14" lengthAdjust="spacing" textLength="48.1797" x="140.0783" y="514.2021">Logout</text></g><!--entity User administration--><g class="entity" data-entity="User administration" data-source-line="11" data-uid="ent0013" id="entity_User administration"><ellipse cx="382.823" cy="153.5506" fill="#F1F1F1" rx="83.153" ry="19.0306" style="stroke:#181818;stroke-width:0.5;"/><text fill="#000000" font-family="sans-serif" font-size="14" lengthAdjust="spacing" textLength="138.0518" x="313.7971" y="158.199">User administration</text></g><g class="entity" data-entity="GMN15" data-source-line="13" data-uid="ent0016" id="entity_GMN15"><path d="M336.92,207.42 L336.92,247.6856 A0,0 0 0 0 336.92,247.6856 L428.7281,247.6856 A0,0 0 0 0 428.7281,247.6856 L428.7281,217.42 L418.7281,207.42 L386.82,207.42 L382.82,172.77 L378.82,207.42 L336.92,207.42 A0,0 0 0 0 336.92,207.42" fill="#FEFFDD" style="stroke:#181818;stroke-width:0.5;"/><path d="M418.7281,207.42 L418.7281,217.42 L428.7281,217.42 L418.7281,207.42" fill="#FEFFDD" style="stroke:#181818;stroke-width:0.5;"/><text fill="#000000" font-family="sans-serif" font-size="13" lengthAdjust="spacing" textLength="49.6895" x="342.92" y="224.4869">- player</text><text fill="#000000" font-family="sans-serif" font-size="13" lengthAdjust="spacing" textLength="70.8081" x="342.92" y="239.6197">- facilitator</text></g><!--entity Create user--><g class="entity" data-entity="Create user" data-source-line="17" data-uid="ent0018" id="entity_Create user"><ellipse cx="627.7743" cy="20.5469" fill="#F1F1F1" rx="60.7343" ry="14.5469" style="stroke:#181818;stroke-width:0.5;"/><text fill="#000000" font-family="sans-serif" font-size="14" lengthAdjust="spacing" textLength="81.8125" x="586.868" y="25.1953">Create user</text></g><!--entity Delete user--><g class="entity" data-entity="Delete user" data-source-line="18" data-uid="ent0020" id="entity_Delete user"><ellipse cx="627.7653" cy="84.5536" fill="#F1F1F1" rx="60.2653" ry="14.5236" style="stroke:#181818;stroke-width:0.5;"/><text fill="#000000" font-family="sans-serif" font-size="14" lengthAdjust="spacing" textLength="80.9854" x="587.2726" y="89.2021">Delete user</text></g><!--entity Reset user password--><g class="entity" data-entity="Reset user password" data-source-line="19" data-uid="ent0022" id="entity_Reset user password"><ellipse cx="627.7699" cy="153.55" fill="#F1F1F1" rx="86.5499" ry="19.71" style="stroke:#181818;stroke-width:0.5;"/><text fill="#000000" font-family="sans-serif" font-size="14" lengthAdjust="spacing" textLength="145.8857" x="554.827" y="158.1984">Reset user password</text></g><!--entity Set user access--><g class="entity" data-entity="Set user access" data-source-line="20" data-uid="ent0024" id="entity_Set user access"><ellipse cx="627.7661" cy="224.5472" fill="#F1F1F1" rx="71.2861" ry="16.6572" style="stroke:#181818;stroke-width:0.5;"/><text fill="#000000" font-family="sans-serif" font-size="14" lengthAdjust="spacing" textLength="109.6006" x="572.9659" y="229.1957">Set user access</text></g><!--entity Manage--><g class="entity" data-entity="Manage" data-source-line="22" data-uid="ent0026" id="entity_Manage"><ellipse cx="627.7733" cy="476.5498" fill="#F1F1F1" rx="65.4933" ry="24.2198" style="stroke:#181818;stroke-width:0.5;"/><text fill="#000000" font-family="sans-serif" font-size="14" lengthAdjust="spacing" textLength="55.6104" x="599.9681" y="470.343">Manage</text><text fill="#000000" font-family="sans-serif" font-size="14" lengthAdjust="spacing" textLength="95.9902" x="579.7781" y="486.6398">game session</text></g><!--entity Create game session--><g class="entity" data-entity="Create game session" data-source-line="24" data-uid="ent0028" id="entity_Create game session"><ellipse cx="889.6234" cy="139.5507" fill="#F1F1F1" rx="87.1534" ry="19.8307" style="stroke:#181818;stroke-width:0.5;"/><text fill="#000000" font-family="sans-serif" font-size="14" lengthAdjust="spacing" textLength="147.2666" x="815.9901" y="144.1991">Create game session</text></g><!--entity Set session dates--><g class="entity" data-entity="Set session dates" data-source-line="25" data-uid="ent0030" id="entity_Set session dates"><ellipse cx="889.6241" cy="212.5488" fill="#F1F1F1" rx="76.5941" ry="17.7188" style="stroke:#181818;stroke-width:0.5;"/><text fill="#000000" font-family="sans-serif" font-size="14" lengthAdjust="spacing" textLength="122.5752" x="828.3365" y="217.1973">Set session dates</text></g><!--entity Set allowable strategies--><g class="entity" data-entity="Set allowable strategies" data-source-line="26" data-uid="ent0032" id="entity_Set allowable strategies"><ellipse cx="889.6206" cy="286.5541" fill="#F1F1F1" rx="96.4206" ry="21.6841" style="stroke:#181818;stroke-width:0.5;"/><text fill="#000000" font-family="sans-serif" font-size="14" lengthAdjust="spacing" textLength="168.1367" x="805.5523" y="291.2026">Set allowable strategies</text></g><!--entity Delete game session--><g class="entity" data-entity="Delete game session" data-source-line="27" data-uid="ent0034" id="entity_Delete game session"><ellipse cx="889.6217" cy="362.5483" fill="#F1F1F1" rx="86.7917" ry="19.7583" style="stroke:#181818;stroke-width:0.5;"/><text fill="#000000" font-family="sans-serif" font-size="14" lengthAdjust="spacing" textLength="146.4395" x="816.402" y="367.1968">Delete game session</text></g><!--entity Allocate user to game--><g class="entity" data-entity="Allocate user to game" data-source-line="28" data-uid="ent0036" id="entity_Allocate user to game"><ellipse cx="889.6163" cy="437.5493" fill="#F1F1F1" rx="90.0963" ry="20.4193" style="stroke:#181818;stroke-width:0.5;"/><text fill="#000000" font-family="sans-serif" font-size="14" lengthAdjust="spacing" textLength="153.959" x="812.6368" y="442.1977">Allocate user to game</text></g><!--entity Allocate player to game--><g class="entity" data-entity="Allocate player to game" data-source-line="29" data-uid="ent0038" id="entity_Allocate player to game"><ellipse cx="889.624" cy="514.5508" fill="#F1F1F1" rx="96.104" ry="21.6208" style="stroke:#181818;stroke-width:0.5;"/><text fill="#000000" font-family="sans-serif" font-size="14" lengthAdjust="spacing" textLength="167.4326" x="805.9076" y="519.1992">Allocate player to game</text></g><!--entity Allow self registration\nfor players--><g class="entity" data-entity="Allow self registration.nfor players" data-source-line="30" data-uid="ent0040" id="entity_Allow self registration.nfor players"><ellipse cx="889.6237" cy="595.5507" fill="#F1F1F1" rx="100.8937" ry="23.9807" style="stroke:#181818;stroke-width:0.5;"/><text fill="#000000" font-family="sans-serif" font-size="14" lengthAdjust="spacing" textLength="152.0791" x="813.5841" y="595.1339">Allow self registration</text><text fill="#000000" font-family="sans-serif" font-size="14" lengthAdjust="spacing" textLength="75.0039" x="852.1217" y="611.4308">for players</text></g><!--entity Generate anonymous players--><g class="entity" data-entity="Generate anonymous players" data-source-line="31" data-uid="ent0042" id="entity_Generate anonymous players"><ellipse cx="889.6234" cy="679.5487" fill="#F1F1F1" rx="114.2934" ry="25.2587" style="stroke:#181818;stroke-width:0.5;"/><text fill="#000000" font-family="sans-serif" font-size="14" lengthAdjust="spacing" textLength="207.1357" x="786.0556" y="684.1971">Generate anonymous players</text></g><!--entity Show sessions with status--><g class="entity" data-entity="Show sessions with status" data-source-line="32" data-uid="ent0044" id="entity_Show sessions with status"><ellipse cx="889.6242" cy="762.5488" fill="#F1F1F1" rx="103.1442" ry="23.0288" style="stroke:#181818;stroke-width:0.5;"/><text fill="#000000" font-family="sans-serif" font-size="14" lengthAdjust="spacing" textLength="182.9639" x="798.1423" y="767.1973">Show sessions with status</text></g><!--entity Show facilitators and\nplayers for session--><g class="entity" data-entity="Show facilitators and.nplayers for session" data-source-line="33" data-uid="ent0046" id="entity_Show facilitators and.nplayers for session"><ellipse cx="889.6221" cy="845.5497" fill="#F1F1F1" rx="104.3821" ry="25.4697" style="stroke:#181818;stroke-width:0.5;"/><text fill="#000000" font-family="sans-serif" font-size="14" lengthAdjust="spacing" textLength="147.0615" x="816.0913" y="842.8773">Show facilitators and</text><text fill="#000000" font-family="sans-serif" font-size="14" lengthAdjust="spacing" textLength="131.2773" x="823.9834" y="859.1742">players for session</text></g><!--reverse link User to Administrator--><g class="link" data-entity-1="User" data-entity-2="Administrator" data-source-line="4" data-uid="lnk5" id="link_User_Administrator"><path d="M51.8554,387.6078 C71.0154,371.0678 91.09,353.75 118.66,329.96" fill="none" id="User-backto-Administrator" style="stroke:#181818;stroke-width:1;"/><polygon fill="none" points="38.23,399.37,55.7761,392.1496,47.9346,383.066,38.23,399.37" style="stroke:#181818;stroke-width:1;"/></g><!--reverse link Administrator to OGA--><g class="link" data-entity-1="Administrator" data-entity-2="OGA" data-source-line="5" data-uid="lnk6" id="link_Administrator_OGA"><path d="M228.8213,320.6321 C253.7213,332.0121 268.64,338.83 297.53,352.03" fill="none" id="Administrator-backto-OGA" style="stroke:#181818;stroke-width:1;"/><polygon fill="none" points="212.45,313.15,226.3272,326.0892,231.3153,315.175,212.45,313.15" style="stroke:#181818;stroke-width:1;"/></g><!--link User to Login--><g class="link" data-entity-1="User" data-entity-2="Login" data-source-line="7" data-uid="lnk8" id="link_User_Login"><path d="M38.34,408.73 C47.02,406.59 58.06,403.89 67.91,401.55 C91.03,396.05 111.501,391.3275 130.611,386.9575" fill="none" id="User-to-Login" style="stroke:#181818;stroke-width:1;"/><polygon fill="#181818" points="136.46,385.62,126.7948,383.727,131.5858,386.7346,128.5782,391.5256,136.46,385.62" style="stroke:#181818;stroke-width:1;"/></g><!--link User to Set password--><g class="link" data-entity-1="User" data-entity-2="Set password" data-source-line="8" data-uid="lnk10" id="link_User_Set password"><path d="M38.23,416.04 C56.75,420.26 83.0106,426.2543 110.0306,432.4243" fill="none" id="User-to-Set password" style="stroke:#181818;stroke-width:1;"/><polygon fill="#181818" points="115.88,433.76,107.9963,427.8568,111.0055,432.6469,106.2154,435.6561,115.88,433.76" style="stroke:#181818;stroke-width:1;"/></g><!--link User to Logout--><g class="link" data-entity-1="User" data-entity-2="Logout" data-source-line="9" data-uid="lnk12" id="link_User_Logout"><path d="M38.34,427.71 C53.07,441.73 76.34,462.6 98.91,477.55 C111.28,485.74 120.585,490.7097 132.835,496.3797" fill="none" id="User-to-Logout" style="stroke:#181818;stroke-width:1;"/><polygon fill="#181818" points="138.28,498.9,131.7926,491.4896,133.7425,496.7998,128.4323,498.7496,138.28,498.9" style="stroke:#181818;stroke-width:1;"/></g><!--link Administrator to User administration--><g class="link" data-entity-1="Administrator" data-entity-2="User administration" data-source-line="11" data-uid="lnk14" id="link_Administrator_User administration"><path d="M205.95,252.91 C229.35,232.18 260.05,207.32 290.43,189.55 C303.97,181.63 313.9802,176.9047 328.4302,171.3447" fill="none" id="Administrator-to-User administration" style="stroke:#181818;stroke-width:1;"/><polygon fill="#181818" points="334.03,169.19,324.1939,168.6888,329.3635,170.9855,327.0668,176.1552,334.03,169.19" style="stroke:#181818;stroke-width:1;"/></g><!--link User administration to Create user--><g class="link" data-entity-1="User administration" data-entity-2="Create user" data-source-line="17" data-uid="lnk19" id="link_User administration_Create user"><path d="M408.74,135.19 C438.97,113.48 492.01,77.19 541.22,52.55 C556.82,44.74 569.1521,39.7271 584.5921,34.2771" fill="none" id="User administration-to-Create user" style="stroke:#181818;stroke-width:1;"/><polygon fill="#181818" points="590.25,32.28,580.4318,31.5038,585.5351,33.9443,583.0946,39.0476,590.25,32.28" style="stroke:#181818;stroke-width:1;"/></g><!--link User administration to Delete user--><g class="link" data-entity-1="User administration" data-entity-2="Delete user" data-source-line="18" data-uid="lnk21" id="link_User administration_Delete user"><path d="M436.54,138.58 C481.9,125.7 540.5484,109.0396 581.5584,97.3896" fill="none" id="User administration-to-Delete user" style="stroke:#181818;stroke-width:1;"/><polygon fill="#181818" points="587.33,95.75,577.5795,94.3616,582.5203,97.1163,579.7656,102.0571,587.33,95.75" style="stroke:#181818;stroke-width:1;"/></g><!--link User administration to Reset user password--><g class="link" data-entity-1="User administration" data-entity-2="Reset user password" data-source-line="19" data-uid="lnk23" id="link_User administration_Reset user password"><path d="M466.41,153.55 C490.49,153.55 510.84,153.55 535.1,153.55" fill="none" id="User administration-to-Reset user password" style="stroke:#181818;stroke-width:1;"/><polygon fill="#181818" points="541.1,153.55,532.1,149.55,536.1,153.55,532.1,157.55,541.1,153.55" style="stroke:#181818;stroke-width:1;"/></g><!--link User administration to Set user access--><g class="link" data-entity-1="User administration" data-entity-2="Set user access" data-source-line="20" data-uid="lnk25" id="link_User administration_Set user access"><path d="M435.64,168.69 C479.12,181.4 534.8312,197.676 576.2112,209.776" fill="none" id="User administration-to-Set user access" style="stroke:#181818;stroke-width:1;"/><polygon fill="#181818" points="581.97,211.46,574.4544,205.0948,577.171,210.0567,572.2091,212.7733,581.97,211.46" style="stroke:#181818;stroke-width:1;"/></g><!--link OGA to Manage--><g class="link" data-entity-1="OGA" data-entity-2="Manage" data-source-line="23" data-uid="lnk27" id="link_OGA_Manage"><path d="M472.2,429.09 C483.24,433.49 494.44,437.75 505.22,441.55 C527.28,449.33 546.2399,455.0806 567.6099,461.0306" fill="none" id="OGA-to-Manage" style="stroke:#181818;stroke-width:1;"/><polygon fill="#181818" points="573.39,462.64,565.7927,456.3725,568.5732,461.2989,563.6469,464.0794,573.39,462.64" style="stroke:#181818;stroke-width:1;"/><text fill="#000000" font-family="sans-serif" font-size="13" lengthAdjust="spacing" textLength="4.1323" x="506.22" y="210.6169">&#160;</text><text fill="#000000" font-family="sans-serif" font-size="13" lengthAdjust="spacing" textLength="4.1323" x="506.22" y="225.7497">&#160;</text><text fill="#000000" font-family="sans-serif" font-size="13" lengthAdjust="spacing" textLength="4.1323" x="506.22" y="240.8825">&#160;</text><text fill="#000000" font-family="sans-serif" font-size="13" lengthAdjust="spacing" textLength="4.1323" x="506.22" y="256.0153">&#160;</text><text fill="#000000" font-family="sans-serif" font-size="13" lengthAdjust="spacing" textLength="4.1323" x="506.22" y="271.1481">&#160;</text><text fill="#000000" font-family="sans-serif" font-size="13" lengthAdjust="spacing" textLength="4.1323" x="506.22" y="286.281">&#160;</text><text fill="#000000" font-family="sans-serif" font-size="13" lengthAdjust="spacing" textLength="4.1323" x="506.22" y="301.4138">&#160;</text><text fill="#000000" font-family="sans-serif" font-size="13" lengthAdjust="spacing" textLength="4.1323" x="506.22" y="316.5466">&#160;</text><text fill="#000000" font-family="sans-serif" font-size="13" lengthAdjust="spacing" textLength="4.1323" x="506.22" y="331.6794">&#160;</text><text fill="#000000" font-family="sans-serif" font-size="13" lengthAdjust="spacing" textLength="4.1323" x="506.22" y="346.8122">&#160;</text><text fill="#000000" font-family="sans-serif" font-size="13" lengthAdjust="spacing" textLength="4.1323" x="506.22" y="361.945">&#160;</text><text fill="#000000" font-family="sans-serif" font-size="13" lengthAdjust="spacing" textLength="4.1323" x="506.22" y="377.0778">&#160;</text><text fill="#000000" font-family="sans-serif" font-size="13" lengthAdjust="spacing" textLength="4.1323" x="506.22" y="392.2106">&#160;</text><text fill="#000000" font-family="sans-serif" font-size="13" lengthAdjust="spacing" textLength="4.1323" x="506.22" y="407.3435">&#160;</text><text fill="#000000" font-family="sans-serif" font-size="13" lengthAdjust="spacing" textLength="4.1323" x="506.22" y="422.4763">&#160;</text><text fill="#000000" font-family="sans-serif" font-size="13" lengthAdjust="spacing" textLength="4.1323" x="506.22" y="437.6091">&#160;</text></g><!--link Manage to Create game session--><g class="link" data-entity-1="Manage" data-entity-2="Create game session" data-source-line="24" data-uid="lnk29" id="link_Manage_Create game session"><path d="M637.88,452.21 C662.27,388.14 730.31,216.97 775.32,177.55 C788.51,166 799.6458,159.8509 816.2758,154.2309" fill="none" id="Manage-to-Create game session" style="stroke:#181818;stroke-width:1;"/><polygon fill="#181818" points="821.96,152.31,812.1531,151.4019,817.2232,153.9108,814.7143,158.9809,821.96,152.31" style="stroke:#181818;stroke-width:1;"/></g><!--link Manage to Set session dates--><g class="link" data-entity-1="Manage" data-entity-2="Set session dates" data-source-line="25" data-uid="lnk31" id="link_Manage_Set session dates"><path d="M637.72,452.16 C656.11,405.39 702.64,302.87 775.32,247.55 C790.39,236.08 803.4966,229.9982 821.4966,224.7882" fill="none" id="Manage-to-Set session dates" style="stroke:#181818;stroke-width:1;"/><polygon fill="#181818" points="827.26,223.12,817.5027,221.78,822.4571,224.5102,819.727,229.4646,827.26,223.12" style="stroke:#181818;stroke-width:1;"/></g><!--link Manage to Set allowable strategies--><g class="link" data-entity-1="Manage" data-entity-2="Set allowable strategies" data-source-line="26" data-uid="lnk33" id="link_Manage_Set allowable strategies"><path d="M645.8,453.03 C670.75,420.13 720.28,360.52 775.32,325.55 C790.25,316.07 802.0772,310.5343 818.7972,304.7743" fill="none" id="Manage-to-Set allowable strategies" style="stroke:#181818;stroke-width:1;"/><polygon fill="#181818" points="824.47,302.82,814.6579,301.9695,819.7427,304.4486,817.2636,309.5333,824.47,302.82" style="stroke:#181818;stroke-width:1;"/></g><!--link Manage to Delete game session--><g class="link" data-entity-1="Manage" data-entity-2="Delete game session" data-source-line="27" data-uid="lnk35" id="link_Manage_Delete game session"><path d="M663.8,456.01 C692.99,439.41 736.01,416.16 775.32,399.55 C794.29,391.54 809.9011,385.985 828.9011,379.955" fill="none" id="Manage-to-Delete game session" style="stroke:#181818;stroke-width:1;"/><polygon fill="#181818" points="834.62,378.14,824.8317,377.0499,829.8543,379.6525,827.2517,384.6751,834.62,378.14" style="stroke:#181818;stroke-width:1;"/></g><!--link Manage to Allocate user to game--><g class="link" data-entity-1="Manage" data-entity-2="Allocate user to game" data-source-line="28" data-uid="lnk37" id="link_Manage_Allocate user to game"><path d="M689.04,467.5 C726.22,461.92 768.2764,455.61 807.8764,449.67" fill="none" id="Manage-to-Allocate user to game" style="stroke:#181818;stroke-width:1;"/><polygon fill="#181818" points="813.81,448.78,804.3162,446.1593,808.8653,449.5217,805.5029,454.0708,813.81,448.78" style="stroke:#181818;stroke-width:1;"/></g><!--link Manage to Allocate player to game--><g class="link" data-entity-1="Manage" data-entity-2="Allocate player to game" data-source-line="29" data-uid="lnk39" id="link_Manage_Allocate player to game"><path d="M689.37,485.41 C724.76,490.59 763.9232,496.3111 802.2532,501.9211" fill="none" id="Manage-to-Allocate player to game" style="stroke:#181818;stroke-width:1;"/><polygon fill="#181818" points="808.19,502.79,799.8641,497.5288,803.2427,502.0659,798.7056,505.4445,808.19,502.79" style="stroke:#181818;stroke-width:1;"/></g><!--link Manage to Allow self registration\nfor players--><g class="link" data-entity-1="Manage" data-entity-2="Allow self registration.nfor players" data-source-line="30" data-uid="lnk41" id="link_Manage_Allow self registration.nfor players"><path d="M664.57,497.02 C693.85,513.36 736.6,536.29 775.32,553.55 C793.04,561.45 807.1169,567.0639 825.0569,573.6439" fill="none" id="Manage-to-Allow self registration\nfor players" style="stroke:#181818;stroke-width:1;"/><polygon fill="#181818" points="830.69,575.71,823.6178,568.8555,825.9958,573.9883,820.863,576.3662,830.69,575.71" style="stroke:#181818;stroke-width:1;"/></g><!--link Manage to Generate anonymous players--><g class="link" data-entity-1="Manage" data-entity-2="Generate anonymous players" data-source-line="31" data-uid="lnk43" id="link_Manage_Generate anonymous players"><path d="M644.81,500.13 C669.28,534.5 719.05,598.38 775.32,636.55 C788.73,645.64 798.7441,650.9443 813.9941,657.0043" fill="none" id="Manage-to-Generate anonymous players" style="stroke:#181818;stroke-width:1;"/><polygon fill="#181818" points="819.57,659.22,812.6833,652.1791,814.9234,657.3736,809.729,659.6137,819.57,659.22" style="stroke:#181818;stroke-width:1;"/></g><!--link Manage to Show sessions with status--><g class="link" data-entity-1="Manage" data-entity-2="Show sessions with status" data-source-line="32" data-uid="lnk45" id="link_Manage_Show sessions with status"><path d="M636.86,500.95 C654.32,549.97 700.15,660.95 775.32,722.55 C787.5,732.53 796.7491,737.9484 811.6391,743.6684" fill="none" id="Manage-to-Show sessions with status" style="stroke:#181818;stroke-width:1;"/><polygon fill="#181818" points="817.24,745.82,810.273,738.8586,812.5725,744.027,807.4042,746.3266,817.24,745.82" style="stroke:#181818;stroke-width:1;"/></g><!--link Manage to Show facilitators and\nplayers for session--><g class="link" data-entity-1="Manage" data-entity-2="Show facilitators and.nplayers for session" data-source-line="33" data-uid="lnk47" id="link_Manage_Show facilitators and.nplayers for session"><path d="M632.99,500.81 C644.62,560.67 682.66,716.83 775.32,803.55 C786.35,813.87 794.6081,819.3867 808.7281,825.3167" fill="none" id="Manage-to-Show facilitators and\nplayers for session" style="stroke:#181818;stroke-width:1;"/><polygon fill="#181818" points="814.26,827.64,807.5109,820.4671,809.65,825.7039,804.4132,827.8431,814.26,827.64" style="stroke:#181818;stroke-width:1;"/></g><!--SRC=[ZPB1QiCm38RlVWgHKtt82umnA1lqib5esIqNDL5IWsCNso5qxE4dsmbBkxQCN6BfywzViZIr0O85fxfZW4OvgeEoHe0ejgv3exumdiiDzWJOzCeKW1wscxNuzEJW-RiiOHtZoWU7mJfnSSf0n3DVbY-mUhUTCd8Hs5E04te_MjV8Iz0EGOehpPHB5Fx6sQKKnWQ2Wmt1zWAWX9F6CxdqssAjj0h98fa68Yh4JPbSuDKHijh0W7p4lP6c_t0xyjncn1QzFk3tCurrJTxp58eFDDXHPRhu6fw3JAVtMEMC53pfT3kVuGcAoZpw2Z6HovQNyl82Y9wc13IC-hzfrDgEUD2i4FkXJbrJqy3kLrcpH3tFFcvdHEyW-ONlGoENq2quzZ7Fjp8jBr6-U6LjGuQYQK1ZpRctWx_DxOz9E7dtCAfmv6un3BUmnU9vrcqgCqb2j34Fu0S0]--></g></svg>