<svg xmlns="http://www.w3.org/2000/svg" xmlns:xlink="http://www.w3.org/1999/xlink" contentStyleType="text/css" data-diagram-type="DESCRIPTION" height="625px" preserveAspectRatio="none" style="width:945px;height:625px;background:#FFFFFF;" version="1.1" viewBox="0 0 945 625" width="945px" zoomAndPan="magnify"><defs/><g><!--entity PA--><g class="entity" data-entity="PA" data-source-line="3" data-uid="ent0002" id="entity_PA"><ellipse cx="371.6072" cy="283.9" fill="#F1F1F1" rx="8" ry="8" style="stroke:#181818;stroke-width:0.5;"/><path d="M371.6072,291.9 L371.6072,318.9 M358.6072,299.9 L384.6072,299.9 M371.6072,318.9 L358.6072,333.9 M371.6072,318.9 L384.6072,333.9" fill="none" style="stroke:#181818;stroke-width:0.5;"/><text fill="#000000" font-family="sans-serif" font-size="14" lengthAdjust="spacing" textLength="140.8545" x="301.18" y="348.3951">Portal Administrator</text></g><!--entity User--><g class="entity" data-entity="User" data-source-line="4" data-uid="ent0003" id="entity_User"><ellipse cx="21.9551" cy="320.9" fill="#F1F1F1" rx="8" ry="8" style="stroke:#181818;stroke-width:0.5;"/><path d="M21.9551,328.9 L21.9551,355.9 M8.9551,336.9 L34.9551,336.9 M21.9551,355.9 L8.9551,370.9 M21.9551,355.9 L34.9551,370.9" fill="none" style="stroke:#181818;stroke-width:0.5;"/><text fill="#000000" font-family="sans-serif" font-size="14" lengthAdjust="spacing" textLength="31.9102" x="6" y="385.3951">User</text></g><!--entity Administrator--><g class="entity" data-entity="Administrator" data-source-line="4" data-uid="ent0004" id="entity_Administrator"><ellipse cx="163.1713" cy="199.9" fill="#F1F1F1" rx="8" ry="8" style="stroke:#181818;stroke-width:0.5;"/><path d="M163.1713,207.9 L163.1713,234.9 M150.1713,215.9 L176.1713,215.9 M163.1713,234.9 L150.1713,249.9 M163.1713,234.9 L176.1713,249.9" fill="none" style="stroke:#181818;stroke-width:0.5;"/><text fill="#000000" font-family="sans-serif" font-size="14" lengthAdjust="spacing" textLength="95.6826" x="115.33" y="264.3951">Administrator</text></g><!--entity Login--><g class="entity" data-entity="Login" data-source-line="7" data-uid="ent0007" id="entity_Login"><ellipse cx="163.1704" cy="317.5536" fill="#F1F1F1" rx="29.8804" ry="14.5236" style="stroke:#181818;stroke-width:0.5;"/><text fill="#000000" font-family="sans-serif" font-size="14" lengthAdjust="spacing" textLength="38.0146" x="144.1631" y="322.2021">Login</text></g><!--entity Set password--><g class="entity" data-entity="Set password" data-source-line="8" data-uid="ent0009" id="entity_Set password"><ellipse cx="163.1679" cy="382.5516" fill="#F1F1F1" rx="65.2579" ry="15.4516" style="stroke:#181818;stroke-width:0.5;"/><text fill="#000000" font-family="sans-serif" font-size="14" lengthAdjust="spacing" textLength="94.1514" x="116.0922" y="387.2">Set password</text></g><!--entity Logout--><g class="entity" data-entity="Logout" data-source-line="9" data-uid="ent0011" id="entity_Logout"><ellipse cx="163.1682" cy="447.5536" fill="#F1F1F1" rx="37.0682" ry="14.5236" style="stroke:#181818;stroke-width:0.5;"/><text fill="#000000" font-family="sans-serif" font-size="14" lengthAdjust="spacing" textLength="48.1797" x="139.0783" y="452.2021">Logout</text></g><!--entity User administration--><g class="entity" data-entity="User administration" data-source-line="11" data-uid="ent0013" id="entity_User administration"><ellipse cx="371.613" cy="146.5506" fill="#F1F1F1" rx="83.153" ry="19.0306" style="stroke:#181818;stroke-width:0.5;"/><text fill="#000000" font-family="sans-serif" font-size="14" lengthAdjust="spacing" textLength="138.0518" x="302.5871" y="151.199">User administration</text></g><g class="entity" data-entity="GMN15" data-source-line="13" data-uid="ent0016" id="entity_GMN15"><path d="M288.43,200.42 L288.43,240.6856 A0,0 0 0 0 288.43,240.6856 L454.7977,240.6856 A0,0 0 0 0 454.7977,240.6856 L454.7977,210.42 L444.7977,200.42 L375.61,200.42 L371.61,165.77 L367.61,200.42 L288.43,200.42 A0,0 0 0 0 288.43,200.42" fill="#FEFFDD" style="stroke:#181818;stroke-width:0.5;"/><path d="M444.7977,200.42 L444.7977,210.42 L454.7977,210.42 L444.7977,200.42" fill="#FEFFDD" style="stroke:#181818;stroke-width:0.5;"/><text fill="#000000" font-family="sans-serif" font-size="13" lengthAdjust="spacing" textLength="87.623" x="294.43" y="217.4869">all user types</text><text fill="#000000" font-family="sans-serif" font-size="13" lengthAdjust="spacing" textLength="145.3677" x="294.43" y="232.6197">including super-admin</text></g><!--entity Create user--><g class="entity" data-entity="Create user" data-source-line="17" data-uid="ent0018" id="entity_Create user"><ellipse cx="601.9943" cy="20.5469" fill="#F1F1F1" rx="60.7343" ry="14.5469" style="stroke:#181818;stroke-width:0.5;"/><text fill="#000000" font-family="sans-serif" font-size="14" lengthAdjust="spacing" textLength="81.8125" x="561.088" y="25.1953">Create user</text></g><!--entity Delete user--><g class="entity" data-entity="Delete user" data-source-line="18" data-uid="ent0020" id="entity_Delete user"><ellipse cx="601.9853" cy="84.5536" fill="#F1F1F1" rx="60.2653" ry="14.5236" style="stroke:#181818;stroke-width:0.5;"/><text fill="#000000" font-family="sans-serif" font-size="14" lengthAdjust="spacing" textLength="80.9854" x="561.4926" y="89.2021">Delete user</text></g><!--entity Reset user password--><g class="entity" data-entity="Reset user password" data-source-line="19" data-uid="ent0022" id="entity_Reset user password"><ellipse cx="601.9899" cy="153.55" fill="#F1F1F1" rx="86.5499" ry="19.71" style="stroke:#181818;stroke-width:0.5;"/><text fill="#000000" font-family="sans-serif" font-size="14" lengthAdjust="spacing" textLength="145.8857" x="529.047" y="158.1984">Reset user password</text></g><!--entity Set user access--><g class="entity" data-entity="Set user access" data-source-line="20" data-uid="ent0024" id="entity_Set user access"><ellipse cx="601.9861" cy="224.5472" fill="#F1F1F1" rx="71.2861" ry="16.6572" style="stroke:#181818;stroke-width:0.5;"/><text fill="#000000" font-family="sans-serif" font-size="14" lengthAdjust="spacing" textLength="109.6006" x="547.1859" y="229.1957">Set user access</text></g><!--entity Manage game--><g class="entity" data-entity="Manage game" data-source-line="22" data-uid="ent0026" id="entity_Manage game"><ellipse cx="601.9912" cy="306.5522" fill="#F1F1F1" rx="67.4112" ry="15.8822" style="stroke:#181818;stroke-width:0.5;"/><text fill="#000000" font-family="sans-serif" font-size="14" lengthAdjust="spacing" textLength="99.7773" x="552.1025" y="311.2007">Manage game</text></g><!--entity Create game--><g class="entity" data-entity="Create game" data-source-line="23" data-uid="ent0028" id="entity_Create game"><ellipse cx="844.2826" cy="203.5545" fill="#F1F1F1" rx="64.0726" ry="15.2145" style="stroke:#181818;stroke-width:0.5;"/><text fill="#000000" font-family="sans-serif" font-size="14" lengthAdjust="spacing" textLength="90.9932" x="798.786" y="208.203">Create game</text></g><!--entity Delete game--><g class="entity" data-entity="Delete game" data-source-line="24" data-uid="ent0030" id="entity_Delete game"><ellipse cx="844.2751" cy="268.553" fill="#F1F1F1" rx="63.7651" ry="15.153" style="stroke:#181818;stroke-width:0.5;"/><text fill="#000000" font-family="sans-serif" font-size="14" lengthAdjust="spacing" textLength="90.166" x="799.1921" y="273.2015">Delete game</text></g><!--entity Allocate user\nas game admin--><g class="entity" data-entity="Allocate user.nas game admin" data-source-line="25" data-uid="ent0032" id="entity_Allocate user.nas game admin"><ellipse cx="844.2821" cy="343.5468" fill="#F1F1F1" rx="76.8921" ry="25.2268" style="stroke:#181818;stroke-width:0.5;"/><text fill="#000000" font-family="sans-serif" font-size="14" lengthAdjust="spacing" textLength="91.2871" x="798.6385" y="338.8643">Allocate user</text><text fill="#000000" font-family="sans-serif" font-size="14" lengthAdjust="spacing" textLength="108.3564" x="790.1039" y="355.1612">as game admin</text></g><!--entity Manage organization--><g class="entity" data-entity="Manage organization" data-source-line="27" data-uid="ent0034" id="entity_Manage organization"><ellipse cx="601.9922" cy="468.5484" fill="#F1F1F1" rx="87.1922" ry="19.8384" style="stroke:#181818;stroke-width:0.5;"/><text fill="#000000" font-family="sans-serif" font-size="14" lengthAdjust="spacing" textLength="147.3555" x="528.3145" y="473.1969">Manage organization</text></g><!--entity Create\norganization--><g class="entity" data-entity="Create.norganization" data-source-line="28" data-uid="ent0036" id="entity_Create.norganization"><ellipse cx="844.2791" cy="427.5453" fill="#F1F1F1" rx="59.4991" ry="24.0953" style="stroke:#181818;stroke-width:0.5;"/><text fill="#000000" font-family="sans-serif" font-size="14" lengthAdjust="spacing" textLength="46.8262" x="820.866" y="421.1434">Create</text><text fill="#000000" font-family="sans-serif" font-size="14" lengthAdjust="spacing" textLength="87.2949" x="800.6316" y="437.4403">organization</text></g><!--entity Delete\norganization--><g class="entity" data-entity="Delete.norganization" data-source-line="29" data-uid="ent0038" id="entity_Delete.norganization"><ellipse cx="844.2793" cy="510.5493" fill="#F1F1F1" rx="59.4293" ry="24.0693" style="stroke:#181818;stroke-width:0.5;"/><text fill="#000000" font-family="sans-serif" font-size="14" lengthAdjust="spacing" textLength="45.999" x="821.2798" y="504.1063">Delete</text><text fill="#000000" font-family="sans-serif" font-size="14" lengthAdjust="spacing" textLength="87.2949" x="800.6318" y="520.4032">organization</text></g><!--entity Allocate user as\norganization admin--><g class="entity" data-entity="Allocate user as.norganization admin" data-source-line="30" data-uid="ent0040" id="entity_Allocate user as.norganization admin"><ellipse cx="844.2756" cy="594.5473" fill="#F1F1F1" rx="95.1056" ry="25.1373" style="stroke:#181818;stroke-width:0.5;"/><text fill="#000000" font-family="sans-serif" font-size="14" lengthAdjust="spacing" textLength="111.6104" x="788.4704" y="589.7328">Allocate user as</text><text fill="#000000" font-family="sans-serif" font-size="14" lengthAdjust="spacing" textLength="135.6113" x="776.4699" y="606.0296">organization admin</text></g><!--reverse link User to Administrator--><g class="link" data-entity-1="User" data-entity-2="Administrator" data-source-line="4" data-uid="lnk5" id="link_User_Administrator"><path d="M51.9752,325.3314 C71.0152,308.7814 90.63,291.73 117.86,268.07" fill="none" id="User-backto-Administrator" style="stroke:#181818;stroke-width:1;"/><polygon fill="none" points="38.39,337.14,55.9114,329.8598,48.039,320.803,38.39,337.14" style="stroke:#181818;stroke-width:1;"/></g><!--reverse link Administrator to PA--><g class="link" data-entity-1="Administrator" data-entity-2="PA" data-source-line="5" data-uid="lnk6" id="link_Administrator_PA"><path d="M227.9424,255.5046 C254.4824,266.3046 271.46,273.21 300.99,285.22" fill="none" id="Administrator-backto-PA" style="stroke:#181818;stroke-width:1;"/><polygon fill="none" points="211.27,248.72,225.6809,261.062,230.2039,249.9471,211.27,248.72" style="stroke:#181818;stroke-width:1;"/></g><!--link User to Login--><g class="link" data-entity-1="User" data-entity-2="Login" data-source-line="7" data-uid="lnk8" id="link_User_Login"><path d="M38.39,346.9 C61.89,341.32 101.1217,332.0235 129.9017,325.2035" fill="none" id="User-to-Login" style="stroke:#181818;stroke-width:1;"/><polygon fill="#181818" points="135.74,323.82,126.0602,322.003,130.8747,324.9729,127.9049,329.7875,135.74,323.82" style="stroke:#181818;stroke-width:1;"/></g><!--link User to Set password--><g class="link" data-entity-1="User" data-entity-2="Set password" data-source-line="8" data-uid="lnk10" id="link_User_Set password"><path d="M38.39,354.1 C56.79,358.33 82.5724,364.2564 109.2524,370.3864" fill="none" id="User-to-Set password" style="stroke:#181818;stroke-width:1;"/><polygon fill="#181818" points="115.1,371.73,107.2242,365.8162,110.227,370.6104,105.4328,373.6131,115.1,371.73" style="stroke:#181818;stroke-width:1;"/></g><!--link User to Logout--><g class="link" data-entity-1="User" data-entity-2="Logout" data-source-line="9" data-uid="lnk12" id="link_User_Logout"><path d="M38.38,366 C52.91,380.03 75.7,400.74 97.91,415.55 C110.14,423.71 119.3055,428.6286 131.5055,434.2786" fill="none" id="User-to-Logout" style="stroke:#181818;stroke-width:1;"/><polygon fill="#181818" points="136.95,436.8,130.4642,429.3882,132.4129,434.6988,127.1023,436.6475,136.95,436.8" style="stroke:#181818;stroke-width:1;"/></g><!--link Administrator to User administration--><g class="link" data-entity-1="Administrator" data-entity-2="User administration" data-source-line="11" data-uid="lnk14" id="link_Administrator_User administration"><path d="M211.27,210.61 C246.73,196.36 289.3226,179.2271 323.3926,165.5371" fill="none" id="Administrator-to-User administration" style="stroke:#181818;stroke-width:1;"/><polygon fill="#181818" points="328.96,163.3,319.1176,162.944,324.3205,165.1642,322.1003,170.3672,328.96,163.3" style="stroke:#181818;stroke-width:1;"/></g><!--link User administration to Create user--><g class="link" data-entity-1="User administration" data-entity-2="Create user" data-source-line="17" data-uid="lnk19" id="link_User administration_Create user"><path d="M396.73,128.11 C424.21,107.71 470.99,74.79 514.79,52.55 C530.31,44.68 542.5763,39.6906 558.0463,34.2806" fill="none" id="User administration-to-Create user" style="stroke:#181818;stroke-width:1;"/><polygon fill="#181818" points="563.71,32.3,553.8941,31.4952,558.9903,33.9505,556.5349,39.0467,563.71,32.3" style="stroke:#181818;stroke-width:1;"/></g><!--link User administration to Delete user--><g class="link" data-entity-1="User administration" data-entity-2="Delete user" data-source-line="18" data-uid="lnk21" id="link_User administration_Delete user"><path d="M426.44,131.94 C467.59,120.77 517.6098,107.1928 554.9398,97.0528" fill="none" id="User administration-to-Delete user" style="stroke:#181818;stroke-width:1;"/><polygon fill="#181818" points="560.73,95.48,550.9962,93.9791,555.9048,96.7907,553.0932,101.6993,560.73,95.48" style="stroke:#181818;stroke-width:1;"/></g><!--link User administration to Reset user password--><g class="link" data-entity-1="User administration" data-entity-2="Reset user password" data-source-line="19" data-uid="lnk23" id="link_User administration_Reset user password"><path d="M454.41,149.06 C474.38,149.67 489.7928,150.1481 509.9028,150.7581" fill="none" id="User administration-to-Reset user password" style="stroke:#181818;stroke-width:1;"/><polygon fill="#181818" points="515.9,150.94,507.0254,146.669,510.9023,150.7884,506.7829,154.6653,515.9,150.94" style="stroke:#181818;stroke-width:1;"/></g><!--link User administration to Set user access--><g class="link" data-entity-1="User administration" data-entity-2="Set user access" data-source-line="20" data-uid="lnk25" id="link_User administration_Set user access"><path d="M419.38,162.53 C460.87,176.7 515.2021,195.2504 554.7221,208.7504" fill="none" id="User administration-to-Set user access" style="stroke:#181818;stroke-width:1;"/><polygon fill="#181818" points="560.4,210.69,553.1762,203.9954,555.6684,209.0737,550.5902,211.5659,560.4,210.69" style="stroke:#181818;stroke-width:1;"/></g><!--link PA to Manage game--><g class="link" data-entity-1="PA" data-entity-2="Manage game" data-source-line="22" data-uid="lnk27" id="link_PA_Manage game"><path d="M442.37,311.41 C471.75,310.51 499.7928,309.6541 528.7828,308.7641" fill="none" id="PA-to-Manage game" style="stroke:#181818;stroke-width:1;"/><polygon fill="#181818" points="534.78,308.58,525.6615,304.8581,529.7824,308.7334,525.907,312.8543,534.78,308.58" style="stroke:#181818;stroke-width:1;"/></g><!--link Manage game to Create game--><g class="link" data-entity-1="Manage game" data-entity-2="Create game" data-source-line="23" data-uid="lnk29" id="link_Manage game_Create game"><path d="M630.81,291.75 C659.88,276.6 707.03,252.87 749.18,235.55 C766.89,228.27 781.2386,223.1592 798.2586,217.5792" fill="none" id="Manage game-to-Create game" style="stroke:#181818;stroke-width:1;"/><polygon fill="#181818" points="803.96,215.71,794.1617,214.7129,799.2088,217.2677,796.654,222.3147,803.96,215.71" style="stroke:#181818;stroke-width:1;"/></g><!--link Manage game to Delete game--><g class="link" data-entity-1="Manage game" data-entity-2="Delete game" data-source-line="24" data-uid="lnk31" id="link_Manage game_Delete game"><path d="M659.02,297.69 C698.69,291.42 745.6035,283.9962 784.5335,277.8462" fill="none" id="Manage game-to-Delete game" style="stroke:#181818;stroke-width:1;"/><polygon fill="#181818" points="790.46,276.91,780.9461,274.3634,785.5212,277.6902,782.1944,282.2654,790.46,276.91" style="stroke:#181818;stroke-width:1;"/></g><!--link Manage game to Allocate user\nas game admin--><g class="link" data-entity-1="Manage game" data-entity-2="Allocate user.nas game admin" data-source-line="25" data-uid="lnk33" id="link_Manage game_Allocate user.nas game admin"><path d="M659.33,315.23 C693.59,320.5 731.6798,326.3672 768.0598,331.9672" fill="none" id="Manage game-to-Allocate user\nas game admin" style="stroke:#181818;stroke-width:1;"/><polygon fill="#181818" points="773.99,332.88,765.7033,327.5573,769.0482,332.1193,764.4862,335.4642,773.99,332.88" style="stroke:#181818;stroke-width:1;"/></g><!--link PA to Manage organization--><g class="link" data-entity-1="PA" data-entity-2="Manage organization" data-source-line="27" data-uid="lnk35" id="link_PA_Manage organization"><path d="M429.36,352.07 C475.06,383.09 532.4053,422.0107 568.0053,446.1707" fill="none" id="PA-to-Manage organization" style="stroke:#181818;stroke-width:1;"/><polygon fill="#181818" points="572.97,449.54,567.7692,441.1763,568.8328,446.7323,563.2768,447.7959,572.97,449.54" style="stroke:#181818;stroke-width:1;"/></g><!--link Manage organization to Create\norganization--><g class="link" data-entity-1="Manage organization" data-entity-2="Create.norganization" data-source-line="28" data-uid="lnk37" id="link_Manage organization_Create.norganization"><path d="M672.81,456.64 C709.81,450.33 748.6656,443.7001 783.0356,437.8301" fill="none" id="Manage organization-to-Create\norganization" style="stroke:#181818;stroke-width:1;"/><polygon fill="#181818" points="788.95,436.82,779.4051,434.3922,784.0214,437.6618,780.7519,442.2781,788.95,436.82" style="stroke:#181818;stroke-width:1;"/></g><!--link Manage organization to Delete\norganization--><g class="link" data-entity-1="Manage organization" data-entity-2="Delete.norganization" data-source-line="29" data-uid="lnk39" id="link_Manage organization_Delete.norganization"><path d="M672.17,480.64 C709.33,487.14 748.5595,493.9976 783.1395,500.0376" fill="none" id="Manage organization-to-Delete\norganization" style="stroke:#181818;stroke-width:1;"/><polygon fill="#181818" points="789.05,501.07,780.8725,495.5811,784.1246,500.2097,779.496,503.4618,789.05,501.07" style="stroke:#181818;stroke-width:1;"/></g><!--link Manage organization to Allocate user as\norganization admin--><g class="link" data-entity-1="Manage organization" data-entity-2="Allocate user as.norganization admin" data-source-line="30" data-uid="lnk41" id="link_Manage organization_Allocate user as.norganization admin"><path d="M633.57,487.34 C662.8,505.01 708.35,531.78 749.18,552.55 C763.05,559.61 772.8803,564.276 787.0503,570.596" fill="none" id="Manage organization-to-Allocate user as\norganization admin" style="stroke:#181818;stroke-width:1;"/><polygon fill="#181818" points="792.53,573.04,785.9398,565.7209,787.9636,571.0033,782.6812,573.0271,792.53,573.04" style="stroke:#181818;stroke-width:1;"/></g><!--SRC=[bPB1JiCm44Jl_efLJ-IGFq184Hn1YgYuzR8aYx7axaRsHWZ4n-F4gHf3MvMZTzvCPkruUbDGWU3ikqBl0dNgX0sOJIj1qKFJxnsxg05LmWOmGjkObqW1Rh_hkfHDSSf0eZDUrtTmyoZMSRKQR4bXm1W_9FHL2SgebVaLEMipXSTvAbmP5YLu5LNP6m3q7iO9qy-1OXeuxlpOExOGnu52FTiDSG-JqPYJeVbpzu4mPKznrINkWJnTmprJJ4lFxOwRN-2t1ngxZc9CTz8sMNb2HajWSKyfONqgcf_LbyPdzSPxwGwxxpYz_IJcbdzhIB38xcjvZvFJTQqTNst8FVzXA8gdVxQqBWly0000]--></g></svg>