<svg xmlns="http://www.w3.org/2000/svg" xmlns:xlink="http://www.w3.org/1999/xlink" contentStyleType="text/css" data-diagram-type="DESCRIPTION" height="625px" preserveAspectRatio="none" style="width:947px;height:625px;background:#FFFFFF;" version="1.1" viewBox="0 0 947 625" width="947px" zoomAndPan="magnify"><defs/><g><!--entity PA--><g class="entity" data-entity="PA" data-source-line="3" data-uid="ent0002" id="entity_PA"><ellipse cx="372.4172" cy="283.9" fill="#F1F1F1" rx="8" ry="8" style="stroke:#181818;stroke-width:0.5;"/><path d="M372.4172,291.9 L372.4172,318.9 M359.4172,299.9 L385.4172,299.9 M372.4172,318.9 L359.4172,333.9 M372.4172,318.9 L385.4172,333.9" fill="none" style="stroke:#181818;stroke-width:0.5;"/><text fill="#000000" font-family="sans-serif" font-size="14" lengthAdjust="spacing" textLength="140.8545" x="301.99" y="348.3951">Portal Administrator</text></g><!--entity User--><g class="entity" data-entity="User" data-source-line="4" data-uid="ent0003" id="entity_User"><ellipse cx="21.9551" cy="320.9" fill="#F1F1F1" rx="8" ry="8" style="stroke:#181818;stroke-width:0.5;"/><path d="M21.9551,328.9 L21.9551,355.9 M8.9551,336.9 L34.9551,336.9 M21.9551,355.9 L8.9551,370.9 M21.9551,355.9 L34.9551,370.9" fill="none" style="stroke:#181818;stroke-width:0.5;"/><text fill="#000000" font-family="sans-serif" font-size="14" lengthAdjust="spacing" textLength="31.9102" x="6" y="385.3951">User</text></g><!--entity Administrator--><g class="entity" data-entity="Administrator" data-source-line="4" data-uid="ent0004" id="entity_Administrator"><ellipse cx="163.1713" cy="199.9" fill="#F1F1F1" rx="8" ry="8" style="stroke:#181818;stroke-width:0.5;"/><path d="M163.1713,207.9 L163.1713,234.9 M150.1713,215.9 L176.1713,215.9 M163.1713,234.9 L150.1713,249.9 M163.1713,234.9 L176.1713,249.9" fill="none" style="stroke:#181818;stroke-width:0.5;"/><text fill="#000000" font-family="sans-serif" font-size="14" lengthAdjust="spacing" textLength="95.6826" x="115.33" y="264.3951">Administrator</text></g><!--entity Login--><g class="entity" data-entity="Login" data-source-line="7" data-uid="ent0007" id="entity_Login"><ellipse cx="163.1704" cy="317.5536" fill="#F1F1F1" rx="29.8804" ry="14.5236" style="stroke:#181818;stroke-width:0.5;"/><text fill="#000000" font-family="sans-serif" font-size="14" lengthAdjust="spacing" textLength="38.0146" x="144.1631" y="322.2021">Login</text></g><!--entity Set password--><g class="entity" data-entity="Set password" data-source-line="8" data-uid="ent0009" id="entity_Set password"><ellipse cx="163.1679" cy="382.5516" fill="#F1F1F1" rx="65.2579" ry="15.4516" style="stroke:#181818;stroke-width:0.5;"/><text fill="#000000" font-family="sans-serif" font-size="14" lengthAdjust="spacing" textLength="94.1514" x="116.0922" y="387.2">Set password</text></g><!--entity Logout--><g class="entity" data-entity="Logout" data-source-line="9" data-uid="ent0011" id="entity_Logout"><ellipse cx="163.1682" cy="447.5536" fill="#F1F1F1" rx="37.0682" ry="14.5236" style="stroke:#181818;stroke-width:0.5;"/><text fill="#000000" font-family="sans-serif" font-size="14" lengthAdjust="spacing" textLength="48.1797" x="139.0783" y="452.2021">Logout</text></g><!--entity User administration--><g class="entity" data-entity="User administration" data-source-line="11" data-uid="ent0013" id="entity_User administration"><ellipse cx="372.423" cy="146.5506" fill="#F1F1F1" rx="83.153" ry="19.0306" style="stroke:#181818;stroke-width:0.5;"/><text fill="#000000" font-family="sans-serif" font-size="14" lengthAdjust="spacing" textLength="138.0518" x="303.3971" y="151.199">User administration</text></g><g class="entity" data-entity="GMN15" data-source-line="13" data-uid="ent0016" id="entity_GMN15"><path d="M288.43,200.42 L288.43,240.6856 A0,0 0 0 0 288.43,240.6856 L456.4163,240.6856 A0,0 0 0 0 456.4163,240.6856 L456.4163,210.42 L446.4163,200.42 L376.42,200.42 L372.42,165.77 L368.42,200.42 L288.43,200.42 A0,0 0 0 0 288.43,200.42" fill="#FEFFDD" style="stroke:#181818;stroke-width:0.5;"/><path d="M446.4163,200.42 L446.4163,210.42 L456.4163,210.42 L446.4163,200.42" fill="#FEFFDD" style="stroke:#181818;stroke-width:0.5;"/><text fill="#000000" font-family="sans-serif" font-size="13" lengthAdjust="spacing" textLength="87.623" x="294.43" y="217.4869">all user types</text><text fill="#000000" font-family="sans-serif" font-size="13" lengthAdjust="spacing" textLength="146.9863" x="294.43" y="232.6197">including portal-admin</text></g><!--entity Create user--><g class="entity" data-entity="Create user" data-source-line="17" data-uid="ent0018" id="entity_Create user"><ellipse cx="603.6043" cy="20.5469" fill="#F1F1F1" rx="60.7343" ry="14.5469" style="stroke:#181818;stroke-width:0.5;"/><text fill="#000000" font-family="sans-serif" font-size="14" lengthAdjust="spacing" textLength="81.8125" x="562.698" y="25.1953">Create user</text></g><!--entity Delete user--><g class="entity" data-entity="Delete user" data-source-line="18" data-uid="ent0020" id="entity_Delete user"><ellipse cx="603.5953" cy="84.5536" fill="#F1F1F1" rx="60.2653" ry="14.5236" style="stroke:#181818;stroke-width:0.5;"/><text fill="#000000" font-family="sans-serif" font-size="14" lengthAdjust="spacing" textLength="80.9854" x="563.1026" y="89.2021">Delete user</text></g><!--entity Reset user password--><g class="entity" data-entity="Reset user password" data-source-line="19" data-uid="ent0022" id="entity_Reset user password"><ellipse cx="603.5999" cy="153.55" fill="#F1F1F1" rx="86.5499" ry="19.71" style="stroke:#181818;stroke-width:0.5;"/><text fill="#000000" font-family="sans-serif" font-size="14" lengthAdjust="spacing" textLength="145.8857" x="530.657" y="158.1984">Reset user password</text></g><!--entity Set user access--><g class="entity" data-entity="Set user access" data-source-line="20" data-uid="ent0024" id="entity_Set user access"><ellipse cx="603.5961" cy="224.5472" fill="#F1F1F1" rx="71.2861" ry="16.6572" style="stroke:#181818;stroke-width:0.5;"/><text fill="#000000" font-family="sans-serif" font-size="14" lengthAdjust="spacing" textLength="109.6006" x="548.7959" y="229.1957">Set user access</text></g><!--entity Manage game--><g class="entity" data-entity="Manage game" data-source-line="22" data-uid="ent0026" id="entity_Manage game"><ellipse cx="603.6012" cy="306.5522" fill="#F1F1F1" rx="67.4112" ry="15.8822" style="stroke:#181818;stroke-width:0.5;"/><text fill="#000000" font-family="sans-serif" font-size="14" lengthAdjust="spacing" textLength="99.7773" x="553.7125" y="311.2007">Manage game</text></g><!--entity Create game--><g class="entity" data-entity="Create game" data-source-line="23" data-uid="ent0028" id="entity_Create game"><ellipse cx="845.9026" cy="203.5545" fill="#F1F1F1" rx="64.0726" ry="15.2145" style="stroke:#181818;stroke-width:0.5;"/><text fill="#000000" font-family="sans-serif" font-size="14" lengthAdjust="spacing" textLength="90.9932" x="800.406" y="208.203">Create game</text></g><!--entity Delete game--><g class="entity" data-entity="Delete game" data-source-line="24" data-uid="ent0030" id="entity_Delete game"><ellipse cx="845.8951" cy="268.553" fill="#F1F1F1" rx="63.7651" ry="15.153" style="stroke:#181818;stroke-width:0.5;"/><text fill="#000000" font-family="sans-serif" font-size="14" lengthAdjust="spacing" textLength="90.166" x="800.8121" y="273.2015">Delete game</text></g><!--entity Allocate user\nas game admin--><g class="entity" data-entity="Allocate user.nas game admin" data-source-line="25" data-uid="ent0032" id="entity_Allocate user.nas game admin"><ellipse cx="845.9021" cy="343.5468" fill="#F1F1F1" rx="76.8921" ry="25.2268" style="stroke:#181818;stroke-width:0.5;"/><text fill="#000000" font-family="sans-serif" font-size="14" lengthAdjust="spacing" textLength="91.2871" x="800.2585" y="338.8643">Allocate user</text><text fill="#000000" font-family="sans-serif" font-size="14" lengthAdjust="spacing" textLength="108.3564" x="791.7239" y="355.1612">as game admin</text></g><!--entity Manage organization--><g class="entity" data-entity="Manage organization" data-source-line="27" data-uid="ent0034" id="entity_Manage organization"><ellipse cx="603.6022" cy="468.5484" fill="#F1F1F1" rx="87.1922" ry="19.8384" style="stroke:#181818;stroke-width:0.5;"/><text fill="#000000" font-family="sans-serif" font-size="14" lengthAdjust="spacing" textLength="147.3555" x="529.9245" y="473.1969">Manage organization</text></g><!--entity Create\norganization--><g class="entity" data-entity="Create.norganization" data-source-line="28" data-uid="ent0036" id="entity_Create.norganization"><ellipse cx="845.8991" cy="427.5453" fill="#F1F1F1" rx="59.4991" ry="24.0953" style="stroke:#181818;stroke-width:0.5;"/><text fill="#000000" font-family="sans-serif" font-size="14" lengthAdjust="spacing" textLength="46.8262" x="822.486" y="421.1434">Create</text><text fill="#000000" font-family="sans-serif" font-size="14" lengthAdjust="spacing" textLength="87.2949" x="802.2516" y="437.4403">organization</text></g><!--entity Delete\norganization--><g class="entity" data-entity="Delete.norganization" data-source-line="29" data-uid="ent0038" id="entity_Delete.norganization"><ellipse cx="845.8993" cy="510.5493" fill="#F1F1F1" rx="59.4293" ry="24.0693" style="stroke:#181818;stroke-width:0.5;"/><text fill="#000000" font-family="sans-serif" font-size="14" lengthAdjust="spacing" textLength="45.999" x="822.8998" y="504.1063">Delete</text><text fill="#000000" font-family="sans-serif" font-size="14" lengthAdjust="spacing" textLength="87.2949" x="802.2518" y="520.4032">organization</text></g><!--entity Allocate user as\norganization admin--><g class="entity" data-entity="Allocate user as.norganization admin" data-source-line="30" data-uid="ent0040" id="entity_Allocate user as.norganization admin"><ellipse cx="845.8956" cy="594.5473" fill="#F1F1F1" rx="95.1056" ry="25.1373" style="stroke:#181818;stroke-width:0.5;"/><text fill="#000000" font-family="sans-serif" font-size="14" lengthAdjust="spacing" textLength="111.6104" x="790.0904" y="589.7328">Allocate user as</text><text fill="#000000" font-family="sans-serif" font-size="14" lengthAdjust="spacing" textLength="135.6113" x="778.0899" y="606.0296">organization admin</text></g><!--reverse link User to Administrator--><g class="link" data-entity-1="User" data-entity-2="Administrator" data-source-line="4" data-uid="lnk5" id="link_User_Administrator"><path d="M51.9752,325.3314 C71.0152,308.7814 90.63,291.73 117.86,268.07" fill="none" id="User-backto-Administrator" style="stroke:#181818;stroke-width:1;"/><polygon fill="none" points="38.39,337.14,55.9114,329.8598,48.039,320.803,38.39,337.14" style="stroke:#181818;stroke-width:1;"/></g><!--reverse link Administrator to PA--><g class="link" data-entity-1="Administrator" data-entity-2="PA" data-source-line="5" data-uid="lnk6" id="link_Administrator_PA"><path d="M228.1413,255.4827 C254.7813,266.2827 271.88,273.21 301.52,285.22" fill="none" id="Administrator-backto-PA" style="stroke:#181818;stroke-width:1;"/><polygon fill="none" points="211.46,248.72,225.8871,261.0431,230.3955,249.9223,211.46,248.72" style="stroke:#181818;stroke-width:1;"/></g><!--link User to Login--><g class="link" data-entity-1="User" data-entity-2="Login" data-source-line="7" data-uid="lnk8" id="link_User_Login"><path d="M38.39,346.9 C61.89,341.32 101.1217,332.0235 129.9017,325.2035" fill="none" id="User-to-Login" style="stroke:#181818;stroke-width:1;"/><polygon fill="#181818" points="135.74,323.82,126.0602,322.003,130.8747,324.9729,127.9049,329.7875,135.74,323.82" style="stroke:#181818;stroke-width:1;"/></g><!--link User to Set password--><g class="link" data-entity-1="User" data-entity-2="Set password" data-source-line="8" data-uid="lnk10" id="link_User_Set password"><path d="M38.39,354.1 C56.79,358.33 82.5724,364.2564 109.2524,370.3864" fill="none" id="User-to-Set password" style="stroke:#181818;stroke-width:1;"/><polygon fill="#181818" points="115.1,371.73,107.2242,365.8162,110.227,370.6104,105.4328,373.6131,115.1,371.73" style="stroke:#181818;stroke-width:1;"/></g><!--link User to Logout--><g class="link" data-entity-1="User" data-entity-2="Logout" data-source-line="9" data-uid="lnk12" id="link_User_Logout"><path d="M38.38,366 C52.91,380.03 75.7,400.74 97.91,415.55 C110.14,423.71 119.3055,428.6286 131.5055,434.2786" fill="none" id="User-to-Logout" style="stroke:#181818;stroke-width:1;"/><polygon fill="#181818" points="136.95,436.8,130.4642,429.3882,132.4129,434.6988,127.1023,436.6475,136.95,436.8" style="stroke:#181818;stroke-width:1;"/></g><!--link Administrator to User administration--><g class="link" data-entity-1="Administrator" data-entity-2="User administration" data-source-line="11" data-uid="lnk14" id="link_Administrator_User administration"><path d="M211.46,210.61 C247.06,196.36 289.8399,179.2203 324.0299,165.5303" fill="none" id="Administrator-to-User administration" style="stroke:#181818;stroke-width:1;"/><polygon fill="#181818" points="329.6,163.3,319.758,162.9321,324.9583,165.1586,322.7318,170.3588,329.6,163.3" style="stroke:#181818;stroke-width:1;"/></g><!--link User administration to Create user--><g class="link" data-entity-1="User administration" data-entity-2="Create user" data-source-line="17" data-uid="lnk19" id="link_User administration_Create user"><path d="M397.7,128.12 C425.35,107.74 472.41,74.82 516.41,52.55 C532.08,44.62 544.535,39.5769 560.095,34.1469" fill="none" id="User administration-to-Create user" style="stroke:#181818;stroke-width:1;"/><polygon fill="#181818" points="565.76,32.17,555.9446,31.3587,561.0392,33.8174,558.5805,38.912,565.76,32.17" style="stroke:#181818;stroke-width:1;"/></g><!--link User administration to Delete user--><g class="link" data-entity-1="User administration" data-entity-2="Delete user" data-source-line="18" data-uid="lnk21" id="link_User administration_Delete user"><path d="M427.44,131.94 C468.73,120.77 518.9484,107.1877 556.4084,97.0477" fill="none" id="User administration-to-Delete user" style="stroke:#181818;stroke-width:1;"/><polygon fill="#181818" points="562.2,95.48,552.4675,93.9705,557.3737,96.7864,554.5578,101.6926,562.2,95.48" style="stroke:#181818;stroke-width:1;"/></g><!--link User administration to Reset user password--><g class="link" data-entity-1="User administration" data-entity-2="Reset user password" data-source-line="19" data-uid="lnk23" id="link_User administration_Reset user password"><path d="M455.19,149.05 C475.37,149.67 491.0428,150.1472 511.3828,150.7672" fill="none" id="User administration-to-Reset user password" style="stroke:#181818;stroke-width:1;"/><polygon fill="#181818" points="517.38,150.95,508.506,146.6776,512.3823,150.7977,508.2623,154.6739,517.38,150.95" style="stroke:#181818;stroke-width:1;"/></g><!--link User administration to Set user access--><g class="link" data-entity-1="User administration" data-entity-2="Set user access" data-source-line="20" data-uid="lnk25" id="link_User administration_Set user access"><path d="M420.35,162.53 C462,176.7 516.5402,195.2561 556.1902,208.7561" fill="none" id="User administration-to-Set user access" style="stroke:#181818;stroke-width:1;"/><polygon fill="#181818" points="561.87,210.69,554.6395,204.0027,557.1368,209.0785,552.0611,211.5758,561.87,210.69" style="stroke:#181818;stroke-width:1;"/></g><!--link PA to Manage game--><g class="link" data-entity-1="PA" data-entity-2="Manage game" data-source-line="22" data-uid="lnk27" id="link_PA_Manage game"><path d="M443.12,311.42 C472.75,310.52 501.1428,309.6525 530.3828,308.7625" fill="none" id="PA-to-Manage game" style="stroke:#181818;stroke-width:1;"/><polygon fill="#181818" points="536.38,308.58,527.2625,304.8557,531.3823,308.7321,527.5059,312.852,536.38,308.58" style="stroke:#181818;stroke-width:1;"/></g><!--link Manage game to Create game--><g class="link" data-entity-1="Manage game" data-entity-2="Create game" data-source-line="23" data-uid="lnk29" id="link_Manage game_Create game"><path d="M632.43,291.75 C661.5,276.6 708.65,252.87 750.8,235.55 C768.51,228.27 782.8586,223.1592 799.8786,217.5792" fill="none" id="Manage game-to-Create game" style="stroke:#181818;stroke-width:1;"/><polygon fill="#181818" points="805.58,215.71,795.7817,214.7129,800.8288,217.2677,798.274,222.3147,805.58,215.71" style="stroke:#181818;stroke-width:1;"/></g><!--link Manage game to Delete game--><g class="link" data-entity-1="Manage game" data-entity-2="Delete game" data-source-line="24" data-uid="lnk31" id="link_Manage game_Delete game"><path d="M660.64,297.69 C700.3,291.42 747.2235,283.9962 786.1535,277.8462" fill="none" id="Manage game-to-Delete game" style="stroke:#181818;stroke-width:1;"/><polygon fill="#181818" points="792.08,276.91,782.5661,274.3634,787.1412,277.6902,783.8144,282.2654,792.08,276.91" style="stroke:#181818;stroke-width:1;"/></g><!--link Manage game to Allocate user\nas game admin--><g class="link" data-entity-1="Manage game" data-entity-2="Allocate user.nas game admin" data-source-line="25" data-uid="lnk33" id="link_Manage game_Allocate user.nas game admin"><path d="M660.94,315.23 C695.21,320.5 733.2998,326.3672 769.6798,331.9672" fill="none" id="Manage game-to-Allocate user\nas game admin" style="stroke:#181818;stroke-width:1;"/><polygon fill="#181818" points="775.61,332.88,767.3233,327.5573,770.6682,332.1193,766.1062,335.4642,775.61,332.88" style="stroke:#181818;stroke-width:1;"/></g><!--link PA to Manage organization--><g class="link" data-entity-1="PA" data-entity-2="Manage organization" data-source-line="27" data-uid="lnk35" id="link_PA_Manage organization"><path d="M430.37,352.07 C476.24,383.09 533.8001,422.0185 569.5201,446.1785" fill="none" id="PA-to-Manage organization" style="stroke:#181818;stroke-width:1;"/><polygon fill="#181818" points="574.49,449.54,569.2761,441.1844,570.3484,446.7387,564.7941,447.811,574.49,449.54" style="stroke:#181818;stroke-width:1;"/></g><!--link Manage organization to Create\norganization--><g class="link" data-entity-1="Manage organization" data-entity-2="Create.norganization" data-source-line="28" data-uid="lnk37" id="link_Manage organization_Create.norganization"><path d="M674.43,456.64 C711.43,450.33 750.2856,443.7001 784.6556,437.8301" fill="none" id="Manage organization-to-Create\norganization" style="stroke:#181818;stroke-width:1;"/><polygon fill="#181818" points="790.57,436.82,781.0251,434.3922,785.6414,437.6618,782.3719,442.2781,790.57,436.82" style="stroke:#181818;stroke-width:1;"/></g><!--link Manage organization to Delete\norganization--><g class="link" data-entity-1="Manage organization" data-entity-2="Delete.norganization" data-source-line="29" data-uid="lnk39" id="link_Manage organization_Delete.norganization"><path d="M673.79,480.64 C710.94,487.14 750.1795,493.9976 784.7595,500.0376" fill="none" id="Manage organization-to-Delete\norganization" style="stroke:#181818;stroke-width:1;"/><polygon fill="#181818" points="790.67,501.07,782.4925,495.5811,785.7446,500.2097,781.116,503.4618,790.67,501.07" style="stroke:#181818;stroke-width:1;"/></g><!--link Manage organization to Allocate user as\norganization admin--><g class="link" data-entity-1="Manage organization" data-entity-2="Allocate user as.norganization admin" data-source-line="30" data-uid="lnk41" id="link_Manage organization_Allocate user as.norganization admin"><path d="M635.19,487.34 C664.42,505.01 709.97,531.78 750.8,552.55 C764.67,559.61 774.5003,564.276 788.6703,570.596" fill="none" id="Manage organization-to-Allocate user as\norganization admin" style="stroke:#181818;stroke-width:1;"/><polygon fill="#181818" points="794.15,573.04,787.5598,565.7209,789.5836,571.0033,784.3012,573.0271,794.15,573.04" style="stroke:#181818;stroke-width:1;"/></g><!--SRC=[bPB1JiCm44Jl_efLJ-IGFq184Hn1YgYuzR8aYx7axaRsHWZ4n-F4gHf3MvMZTzviPknuUbDGWU3ikqBl0dNgX0sOJIj1qKFJxnsxg05LmWOmGjkObqW1Rh_hkfHDSSf0eZDUrtTmyoZMSRKQR4bXm1W_9FHL2SgebVcrSjPc2e_p5BWoB4hmAggoDm3eFOmJffy3nJHmtFcnTsnXc7lLizyGzp0vZJcvDN_lFX2cvTE-wXBtG9wkuPuffjPpl6Fr2_psG6FNKOpfKjecAq_8Q0aixYbjM9-Av6Vr9V5PlV5UkaFt7QV7dyISycyC2HRPVIqFSdAwZhNZgmqvvpyCHV3qqvRMfS0F]--></g></svg>