<svg xmlns="http://www.w3.org/2000/svg" xmlns:xlink="http://www.w3.org/1999/xlink" contentStyleType="text/css" data-diagram-type="DESCRIPTION" height="801px" preserveAspectRatio="none" style="width:991px;height:801px;background:#FFFFFF;" version="1.1" viewBox="0 0 991 801" width="991px" zoomAndPan="magnify"><defs/><g><!--entity SA--><g class="entity" data-entity="SA" data-source-line="3" data-uid="ent0002" id="entity_SA"><ellipse cx="373.5754" cy="322.9" fill="#F1F1F1" rx="8" ry="8" style="stroke:#181818;stroke-width:0.5;"/><path d="M373.5754,330.9 L373.5754,357.9 M360.5754,338.9 L386.5754,338.9 M373.5754,357.9 L360.5754,372.9 M373.5754,357.9 L386.5754,372.9" fill="none" style="stroke:#181818;stroke-width:0.5;"/><text fill="#000000" font-family="sans-serif" font-size="14" lengthAdjust="spacing" textLength="152.5508" x="297.3" y="387.3951">Session administrator</text></g><!--entity User--><g class="entity" data-entity="User" data-source-line="4" data-uid="ent0003" id="entity_User"><ellipse cx="21.9551" cy="344.9" fill="#F1F1F1" rx="8" ry="8" style="stroke:#181818;stroke-width:0.5;"/><path d="M21.9551,352.9 L21.9551,379.9 M8.9551,360.9 L34.9551,360.9 M21.9551,379.9 L8.9551,394.9 M21.9551,379.9 L34.9551,394.9" fill="none" style="stroke:#181818;stroke-width:0.5;"/><text fill="#000000" font-family="sans-serif" font-size="14" lengthAdjust="spacing" textLength="31.9102" x="6" y="409.3951">User</text></g><!--entity Administrator--><g class="entity" data-entity="Administrator" data-source-line="4" data-uid="ent0004" id="entity_Administrator"><ellipse cx="164.1713" cy="223.9" fill="#F1F1F1" rx="8" ry="8" style="stroke:#181818;stroke-width:0.5;"/><path d="M164.1713,231.9 L164.1713,258.9 M151.1713,239.9 L177.1713,239.9 M164.1713,258.9 L151.1713,273.9 M164.1713,258.9 L177.1713,273.9" fill="none" style="stroke:#181818;stroke-width:0.5;"/><text fill="#000000" font-family="sans-serif" font-size="14" lengthAdjust="spacing" textLength="95.6826" x="116.33" y="288.3951">Administrator</text></g><!--entity Login--><g class="entity" data-entity="Login" data-source-line="7" data-uid="ent0007" id="entity_Login"><ellipse cx="164.1704" cy="341.5536" fill="#F1F1F1" rx="29.8804" ry="14.5236" style="stroke:#181818;stroke-width:0.5;"/><text fill="#000000" font-family="sans-serif" font-size="14" lengthAdjust="spacing" textLength="38.0146" x="145.1631" y="346.2021">Login</text></g><!--entity Set password--><g class="entity" data-entity="Set password" data-source-line="8" data-uid="ent0009" id="entity_Set password"><ellipse cx="164.1679" cy="406.5516" fill="#F1F1F1" rx="65.2579" ry="15.4516" style="stroke:#181818;stroke-width:0.5;"/><text fill="#000000" font-family="sans-serif" font-size="14" lengthAdjust="spacing" textLength="94.1514" x="117.0922" y="411.2">Set password</text></g><!--entity Logout--><g class="entity" data-entity="Logout" data-source-line="9" data-uid="ent0011" id="entity_Logout"><ellipse cx="164.1682" cy="471.5536" fill="#F1F1F1" rx="37.0682" ry="14.5236" style="stroke:#181818;stroke-width:0.5;"/><text fill="#000000" font-family="sans-serif" font-size="14" lengthAdjust="spacing" textLength="48.1797" x="140.0783" y="476.2021">Logout</text></g><!--entity User administration--><g class="entity" data-entity="User administration" data-source-line="11" data-uid="ent0013" id="entity_User administration"><ellipse cx="373.583" cy="153.5506" fill="#F1F1F1" rx="83.153" ry="19.0306" style="stroke:#181818;stroke-width:0.5;"/><text fill="#000000" font-family="sans-serif" font-size="14" lengthAdjust="spacing" textLength="138.0518" x="304.5571" y="158.199">User administration</text></g><g class="entity" data-entity="GMN15" data-source-line="13" data-uid="ent0016" id="entity_GMN15"><path d="M327.67,207.42 L327.67,247.6856 A0,0 0 0 0 327.67,247.6856 L419.4781,247.6856 A0,0 0 0 0 419.4781,247.6856 L419.4781,217.42 L409.4781,207.42 L377.58,207.42 L373.58,172.77 L369.58,207.42 L327.67,207.42 A0,0 0 0 0 327.67,207.42" fill="#FEFFDD" style="stroke:#181818;stroke-width:0.5;"/><path d="M409.4781,207.42 L409.4781,217.42 L419.4781,217.42 L409.4781,207.42" fill="#FEFFDD" style="stroke:#181818;stroke-width:0.5;"/><text fill="#000000" font-family="sans-serif" font-size="13" lengthAdjust="spacing" textLength="70.8081" x="333.67" y="224.4869">- facilitator</text><text fill="#000000" font-family="sans-serif" font-size="13" lengthAdjust="spacing" textLength="49.6895" x="333.67" y="239.6197">- player</text></g><!--entity Create user--><g class="entity" data-entity="Create user" data-source-line="17" data-uid="ent0018" id="entity_Create user"><ellipse cx="609.2843" cy="20.5469" fill="#F1F1F1" rx="60.7343" ry="14.5469" style="stroke:#181818;stroke-width:0.5;"/><text fill="#000000" font-family="sans-serif" font-size="14" lengthAdjust="spacing" textLength="81.8125" x="568.378" y="25.1953">Create user</text></g><!--entity Delete user--><g class="entity" data-entity="Delete user" data-source-line="18" data-uid="ent0020" id="entity_Delete user"><ellipse cx="609.2753" cy="84.5536" fill="#F1F1F1" rx="60.2653" ry="14.5236" style="stroke:#181818;stroke-width:0.5;"/><text fill="#000000" font-family="sans-serif" font-size="14" lengthAdjust="spacing" textLength="80.9854" x="568.7826" y="89.2021">Delete user</text></g><!--entity Reset user password--><g class="entity" data-entity="Reset user password" data-source-line="19" data-uid="ent0022" id="entity_Reset user password"><ellipse cx="609.2799" cy="153.55" fill="#F1F1F1" rx="86.5499" ry="19.71" style="stroke:#181818;stroke-width:0.5;"/><text fill="#000000" font-family="sans-serif" font-size="14" lengthAdjust="spacing" textLength="145.8857" x="536.337" y="158.1984">Reset user password</text></g><!--entity Set user access--><g class="entity" data-entity="Set user access" data-source-line="20" data-uid="ent0024" id="entity_Set user access"><ellipse cx="609.2761" cy="224.5472" fill="#F1F1F1" rx="71.2861" ry="16.6572" style="stroke:#181818;stroke-width:0.5;"/><text fill="#000000" font-family="sans-serif" font-size="14" lengthAdjust="spacing" textLength="109.6006" x="554.4759" y="229.1957">Set user access</text></g><!--entity Manage--><g class="entity" data-entity="Manage" data-source-line="22" data-uid="ent0026" id="entity_Manage"><ellipse cx="609.2833" cy="400.5498" fill="#F1F1F1" rx="65.4933" ry="24.2198" style="stroke:#181818;stroke-width:0.5;"/><text fill="#000000" font-family="sans-serif" font-size="14" lengthAdjust="spacing" textLength="55.6104" x="581.4781" y="394.343">Manage</text><text fill="#000000" font-family="sans-serif" font-size="14" lengthAdjust="spacing" textLength="95.9902" x="561.2881" y="410.6398">game session</text></g><!--entity Create game session--><g class="entity" data-entity="Create game session" data-source-line="24" data-uid="ent0028" id="entity_Create game session"><ellipse cx="871.1334" cy="63.5507" fill="#F1F1F1" rx="87.1534" ry="19.8307" style="stroke:#181818;stroke-width:0.5;"/><text fill="#000000" font-family="sans-serif" font-size="14" lengthAdjust="spacing" textLength="147.2666" x="797.5001" y="68.1991">Create game session</text></g><!--entity Set session dates--><g class="entity" data-entity="Set session dates" data-source-line="25" data-uid="ent0030" id="entity_Set session dates"><ellipse cx="871.1341" cy="136.5488" fill="#F1F1F1" rx="76.5941" ry="17.7188" style="stroke:#181818;stroke-width:0.5;"/><text fill="#000000" font-family="sans-serif" font-size="14" lengthAdjust="spacing" textLength="122.5752" x="809.8465" y="141.1973">Set session dates</text></g><!--entity Set allowable strategies--><g class="entity" data-entity="Set allowable strategies" data-source-line="26" data-uid="ent0032" id="entity_Set allowable strategies"><ellipse cx="871.1306" cy="210.5541" fill="#F1F1F1" rx="96.4206" ry="21.6841" style="stroke:#181818;stroke-width:0.5;"/><text fill="#000000" font-family="sans-serif" font-size="14" lengthAdjust="spacing" textLength="168.1367" x="787.0623" y="215.2026">Set allowable strategies</text></g><!--entity Delete game session--><g class="entity" data-entity="Delete game session" data-source-line="27" data-uid="ent0034" id="entity_Delete game session"><ellipse cx="871.1317" cy="286.5483" fill="#F1F1F1" rx="86.7917" ry="19.7583" style="stroke:#181818;stroke-width:0.5;"/><text fill="#000000" font-family="sans-serif" font-size="14" lengthAdjust="spacing" textLength="146.4395" x="797.912" y="291.1968">Delete game session</text></g><!--entity Allocate user to game--><g class="entity" data-entity="Allocate user to game" data-source-line="28" data-uid="ent0036" id="entity_Allocate user to game"><ellipse cx="871.1263" cy="361.5493" fill="#F1F1F1" rx="90.0963" ry="20.4193" style="stroke:#181818;stroke-width:0.5;"/><text fill="#000000" font-family="sans-serif" font-size="14" lengthAdjust="spacing" textLength="153.959" x="794.1468" y="366.1977">Allocate user to game</text></g><!--entity Allocate player to game--><g class="entity" data-entity="Allocate player to game" data-source-line="29" data-uid="ent0038" id="entity_Allocate player to game"><ellipse cx="871.134" cy="438.5508" fill="#F1F1F1" rx="96.104" ry="21.6208" style="stroke:#181818;stroke-width:0.5;"/><text fill="#000000" font-family="sans-serif" font-size="14" lengthAdjust="spacing" textLength="167.4326" x="787.4176" y="443.1992">Allocate player to game</text></g><!--entity Allow self registration\nfor players--><g class="entity" data-entity="Allow self registration.nfor players" data-source-line="30" data-uid="ent0040" id="entity_Allow self registration.nfor players"><ellipse cx="871.1337" cy="519.5507" fill="#F1F1F1" rx="100.8937" ry="23.9807" style="stroke:#181818;stroke-width:0.5;"/><text fill="#000000" font-family="sans-serif" font-size="14" lengthAdjust="spacing" textLength="152.0791" x="795.0941" y="519.1339">Allow self registration</text><text fill="#000000" font-family="sans-serif" font-size="14" lengthAdjust="spacing" textLength="75.0039" x="833.6317" y="535.4308">for players</text></g><!--entity Generate anonymous players--><g class="entity" data-entity="Generate anonymous players" data-source-line="31" data-uid="ent0042" id="entity_Generate anonymous players"><ellipse cx="871.1334" cy="603.5487" fill="#F1F1F1" rx="114.2934" ry="25.2587" style="stroke:#181818;stroke-width:0.5;"/><text fill="#000000" font-family="sans-serif" font-size="14" lengthAdjust="spacing" textLength="207.1357" x="767.5656" y="608.1971">Generate anonymous players</text></g><!--entity Show sessions with status--><g class="entity" data-entity="Show sessions with status" data-source-line="32" data-uid="ent0044" id="entity_Show sessions with status"><ellipse cx="871.1342" cy="686.5488" fill="#F1F1F1" rx="103.1442" ry="23.0288" style="stroke:#181818;stroke-width:0.5;"/><text fill="#000000" font-family="sans-serif" font-size="14" lengthAdjust="spacing" textLength="182.9639" x="779.6523" y="691.1973">Show sessions with status</text></g><!--entity Show facilitators and\nplayers for session--><g class="entity" data-entity="Show facilitators and.nplayers for session" data-source-line="33" data-uid="ent0046" id="entity_Show facilitators and.nplayers for session"><ellipse cx="871.1321" cy="769.5497" fill="#F1F1F1" rx="104.3821" ry="25.4697" style="stroke:#181818;stroke-width:0.5;"/><text fill="#000000" font-family="sans-serif" font-size="14" lengthAdjust="spacing" textLength="147.0615" x="797.6013" y="766.8773">Show facilitators and</text><text fill="#000000" font-family="sans-serif" font-size="14" lengthAdjust="spacing" textLength="131.2773" x="805.4934" y="783.1742">players for session</text></g><!--reverse link User to Administrator--><g class="link" data-entity-1="User" data-entity-2="Administrator" data-source-line="4" data-uid="lnk5" id="link_User_Administrator"><path d="M51.8554,349.6078 C71.0154,333.0678 91.09,315.75 118.66,291.96" fill="none" id="User-backto-Administrator" style="stroke:#181818;stroke-width:1;"/><polygon fill="none" points="38.23,361.37,55.7761,354.1496,47.9346,345.066,38.23,361.37" style="stroke:#181818;stroke-width:1;"/></g><!--reverse link Administrator to SA--><g class="link" data-entity-1="Administrator" data-entity-2="SA" data-source-line="5" data-uid="lnk6" id="link_Administrator_SA"><path d="M228.7339,283.8947 C253.7239,295.8247 268.74,302.99 296.99,316.47" fill="none" id="Administrator-backto-SA" style="stroke:#181818;stroke-width:1;"/><polygon fill="none" points="212.49,276.14,226.149,289.3093,231.3188,278.4801,212.49,276.14" style="stroke:#181818;stroke-width:1;"/></g><!--link User to Login--><g class="link" data-entity-1="User" data-entity-2="Login" data-source-line="7" data-uid="lnk8" id="link_User_Login"><path d="M38.34,370.73 C47.02,368.59 58.06,365.89 67.91,363.55 C91.03,358.05 111.501,353.3275 130.611,348.9575" fill="none" id="User-to-Login" style="stroke:#181818;stroke-width:1;"/><polygon fill="#181818" points="136.46,347.62,126.7948,345.727,131.5858,348.7346,128.5782,353.5256,136.46,347.62" style="stroke:#181818;stroke-width:1;"/></g><!--link User to Set password--><g class="link" data-entity-1="User" data-entity-2="Set password" data-source-line="8" data-uid="lnk10" id="link_User_Set password"><path d="M38.23,378.04 C56.75,382.26 83.0106,388.2543 110.0306,394.4243" fill="none" id="User-to-Set password" style="stroke:#181818;stroke-width:1;"/><polygon fill="#181818" points="115.88,395.76,107.9963,389.8568,111.0055,394.6469,106.2154,397.6561,115.88,395.76" style="stroke:#181818;stroke-width:1;"/></g><!--link User to Logout--><g class="link" data-entity-1="User" data-entity-2="Logout" data-source-line="9" data-uid="lnk12" id="link_User_Logout"><path d="M38.34,389.71 C53.07,403.73 76.34,424.6 98.91,439.55 C111.28,447.74 120.585,452.7097 132.835,458.3797" fill="none" id="User-to-Logout" style="stroke:#181818;stroke-width:1;"/><polygon fill="#181818" points="138.28,460.9,131.7926,453.4896,133.7425,458.7998,128.4323,460.7496,138.28,460.9" style="stroke:#181818;stroke-width:1;"/></g><!--link Administrator to User administration--><g class="link" data-entity-1="Administrator" data-entity-2="User administration" data-source-line="11" data-uid="lnk14" id="link_Administrator_User administration"><path d="M212.42,228.57 C235.74,216.46 264.39,201.89 290.43,189.55 C304.07,183.08 313.6676,178.7325 327.1676,172.8625" fill="none" id="Administrator-to-User administration" style="stroke:#181818;stroke-width:1;"/><polygon fill="#181818" points="332.67,170.47,322.8215,170.3905,328.0847,172.4638,326.0115,177.727,332.67,170.47" style="stroke:#181818;stroke-width:1;"/></g><!--link User administration to Create user--><g class="link" data-entity-1="User administration" data-entity-2="Create user" data-source-line="17" data-uid="lnk19" id="link_User administration_Create user"><path d="M397.85,135.07 C426.13,113.23 475.89,76.83 522.73,52.55 C538.08,44.6 550.2096,39.61 565.5696,34.21" fill="none" id="User administration-to-Create user" style="stroke:#181818;stroke-width:1;"/><polygon fill="#181818" points="571.23,32.22,561.4128,31.4314,566.513,33.8783,564.0661,38.9786,571.23,32.22" style="stroke:#181818;stroke-width:1;"/></g><!--link User administration to Delete user--><g class="link" data-entity-1="User administration" data-entity-2="Delete user" data-source-line="18" data-uid="lnk21" id="link_User administration_Delete user"><path d="M425.87,138.41 C469.27,125.59 524.7556,109.2089 564.0456,97.6089" fill="none" id="User administration-to-Delete user" style="stroke:#181818;stroke-width:1;"/><polygon fill="#181818" points="569.8,95.91,560.0357,94.6221,565.0046,97.3258,562.301,102.2947,569.8,95.91" style="stroke:#181818;stroke-width:1;"/></g><!--link User administration to Reset user password--><g class="link" data-entity-1="User administration" data-entity-2="Reset user password" data-source-line="19" data-uid="lnk23" id="link_User administration_Reset user password"><path d="M456.97,153.55 C478.13,153.55 494.94,153.55 516.28,153.55" fill="none" id="User administration-to-Reset user password" style="stroke:#181818;stroke-width:1;"/><polygon fill="#181818" points="522.28,153.55,513.28,149.55,517.28,153.55,513.28,157.55,522.28,153.55" style="stroke:#181818;stroke-width:1;"/></g><!--link User administration to Set user access--><g class="link" data-entity-1="User administration" data-entity-2="Set user access" data-source-line="20" data-uid="lnk25" id="link_User administration_Set user access"><path d="M425,168.87 C466.6,181.51 519.2692,197.5055 558.8892,209.5455" fill="none" id="User administration-to-Set user access" style="stroke:#181818;stroke-width:1;"/><polygon fill="#181818" points="564.63,211.29,557.1819,204.846,559.846,209.8362,554.8558,212.5004,564.63,211.29" style="stroke:#181818;stroke-width:1;"/></g><!--link SA to Manage--><g class="link" data-entity-1="SA" data-entity-2="Manage" data-source-line="23" data-uid="lnk27" id="link_SA_Manage"><path d="M447.85,391.19 C460.51,396.3 473.77,400.74 486.73,403.55 C505.81,407.69 520.9842,408.6644 540.2242,407.9444" fill="none" id="SA-to-Manage" style="stroke:#181818;stroke-width:1;"/><polygon fill="#181818" points="546.22,407.72,537.0767,404.0594,541.2235,407.907,537.3759,412.0538,546.22,407.72" style="stroke:#181818;stroke-width:1;"/><text fill="#000000" font-family="sans-serif" font-size="13" lengthAdjust="spacing" textLength="4.1323" x="487.73" y="248.6169">&#160;</text><text fill="#000000" font-family="sans-serif" font-size="13" lengthAdjust="spacing" textLength="4.1323" x="487.73" y="263.7497">&#160;</text><text fill="#000000" font-family="sans-serif" font-size="13" lengthAdjust="spacing" textLength="4.1323" x="487.73" y="278.8825">&#160;</text><text fill="#000000" font-family="sans-serif" font-size="13" lengthAdjust="spacing" textLength="4.1323" x="487.73" y="294.0153">&#160;</text><text fill="#000000" font-family="sans-serif" font-size="13" lengthAdjust="spacing" textLength="4.1323" x="487.73" y="309.1481">&#160;</text><text fill="#000000" font-family="sans-serif" font-size="13" lengthAdjust="spacing" textLength="4.1323" x="487.73" y="324.281">&#160;</text><text fill="#000000" font-family="sans-serif" font-size="13" lengthAdjust="spacing" textLength="4.1323" x="487.73" y="339.4138">&#160;</text><text fill="#000000" font-family="sans-serif" font-size="13" lengthAdjust="spacing" textLength="4.1323" x="487.73" y="354.5466">&#160;</text><text fill="#000000" font-family="sans-serif" font-size="13" lengthAdjust="spacing" textLength="4.1323" x="487.73" y="369.6794">&#160;</text><text fill="#000000" font-family="sans-serif" font-size="13" lengthAdjust="spacing" textLength="4.1323" x="487.73" y="384.8122">&#160;</text><text fill="#000000" font-family="sans-serif" font-size="13" lengthAdjust="spacing" textLength="4.1323" x="487.73" y="399.945">&#160;</text></g><!--link Manage to Create game session--><g class="link" data-entity-1="Manage" data-entity-2="Create game session" data-source-line="24" data-uid="lnk29" id="link_Manage_Create game session"><path d="M626.1,377.13 C644.34,349.54 674.52,301.95 695.83,258.55 C728.82,191.35 702.67,153.23 756.83,101.55 C769.29,89.66 779.9066,83.4425 796.2366,77.8225" fill="none" id="Manage-to-Create game session" style="stroke:#181818;stroke-width:1;"/><polygon fill="#181818" points="801.91,75.87,792.0982,75.0165,797.1822,77.4971,794.7016,82.5811,801.91,75.87" style="stroke:#181818;stroke-width:1;"/></g><!--link Manage to Set session dates--><g class="link" data-entity-1="Manage" data-entity-2="Set session dates" data-source-line="25" data-uid="lnk31" id="link_Manage_Set session dates"><path d="M624.78,376.95 C659.88,319.93 747.25,178.84 756.83,171.55 C771.9,160.08 785.0066,153.9982 803.0066,148.7882" fill="none" id="Manage-to-Set session dates" style="stroke:#181818;stroke-width:1;"/><polygon fill="#181818" points="808.77,147.12,799.0127,145.78,803.9671,148.5102,801.237,153.4646,808.77,147.12" style="stroke:#181818;stroke-width:1;"/></g><!--link Manage to Set allowable strategies--><g class="link" data-entity-1="Manage" data-entity-2="Set allowable strategies" data-source-line="26" data-uid="lnk33" id="link_Manage_Set allowable strategies"><path d="M627.31,377.03 C652.26,344.13 701.79,284.52 756.83,249.55 C771.76,240.07 783.5872,234.5343 800.3072,228.7743" fill="none" id="Manage-to-Set allowable strategies" style="stroke:#181818;stroke-width:1;"/><polygon fill="#181818" points="805.98,226.82,796.1679,225.9695,801.2527,228.4486,798.7736,233.5333,805.98,226.82" style="stroke:#181818;stroke-width:1;"/></g><!--link Manage to Delete game session--><g class="link" data-entity-1="Manage" data-entity-2="Delete game session" data-source-line="27" data-uid="lnk35" id="link_Manage_Delete game session"><path d="M645.31,380.01 C674.5,363.41 717.52,340.16 756.83,323.55 C775.8,315.54 791.4111,309.985 810.4111,303.955" fill="none" id="Manage-to-Delete game session" style="stroke:#181818;stroke-width:1;"/><polygon fill="#181818" points="816.13,302.14,806.3417,301.0499,811.3643,303.6525,808.7617,308.6751,816.13,302.14" style="stroke:#181818;stroke-width:1;"/></g><!--link Manage to Allocate user to game--><g class="link" data-entity-1="Manage" data-entity-2="Allocate user to game" data-source-line="28" data-uid="lnk37" id="link_Manage_Allocate user to game"><path d="M670.55,391.5 C707.73,385.92 749.7864,379.61 789.3864,373.67" fill="none" id="Manage-to-Allocate user to game" style="stroke:#181818;stroke-width:1;"/><polygon fill="#181818" points="795.32,372.78,785.8262,370.1593,790.3753,373.5217,787.0129,378.0708,795.32,372.78" style="stroke:#181818;stroke-width:1;"/></g><!--link Manage to Allocate player to game--><g class="link" data-entity-1="Manage" data-entity-2="Allocate player to game" data-source-line="29" data-uid="lnk39" id="link_Manage_Allocate player to game"><path d="M670.88,409.41 C706.27,414.59 745.4332,420.3111 783.7632,425.9211" fill="none" id="Manage-to-Allocate player to game" style="stroke:#181818;stroke-width:1;"/><polygon fill="#181818" points="789.7,426.79,781.3741,421.5288,784.7527,426.0659,780.2156,429.4445,789.7,426.79" style="stroke:#181818;stroke-width:1;"/></g><!--link Manage to Allow self registration\nfor players--><g class="link" data-entity-1="Manage" data-entity-2="Allow self registration.nfor players" data-source-line="30" data-uid="lnk41" id="link_Manage_Allow self registration.nfor players"><path d="M646.08,421.02 C675.36,437.36 718.11,460.29 756.83,477.55 C774.55,485.45 788.6269,491.0639 806.5669,497.6439" fill="none" id="Manage-to-Allow self registration\nfor players" style="stroke:#181818;stroke-width:1;"/><polygon fill="#181818" points="812.2,499.71,805.1278,492.8555,807.5058,497.9883,802.373,500.3662,812.2,499.71" style="stroke:#181818;stroke-width:1;"/></g><!--link Manage to Generate anonymous players--><g class="link" data-entity-1="Manage" data-entity-2="Generate anonymous players" data-source-line="31" data-uid="lnk43" id="link_Manage_Generate anonymous players"><path d="M626.32,424.13 C650.79,458.5 700.56,522.38 756.83,560.55 C770.24,569.64 780.2541,574.9443 795.5041,581.0043" fill="none" id="Manage-to-Generate anonymous players" style="stroke:#181818;stroke-width:1;"/><polygon fill="#181818" points="801.08,583.22,794.1933,576.1791,796.4334,581.3736,791.239,583.6137,801.08,583.22" style="stroke:#181818;stroke-width:1;"/></g><!--link Manage to Show sessions with status--><g class="link" data-entity-1="Manage" data-entity-2="Show sessions with status" data-source-line="32" data-uid="lnk45" id="link_Manage_Show sessions with status"><path d="M618.37,424.95 C635.83,473.97 681.66,584.95 756.83,646.55 C769.01,656.53 778.2591,661.9484 793.1491,667.6684" fill="none" id="Manage-to-Show sessions with status" style="stroke:#181818;stroke-width:1;"/><polygon fill="#181818" points="798.75,669.82,791.783,662.8586,794.0825,668.027,788.9142,670.3266,798.75,669.82" style="stroke:#181818;stroke-width:1;"/></g><!--link Manage to Show facilitators and\nplayers for session--><g class="link" data-entity-1="Manage" data-entity-2="Show facilitators and.nplayers for session" data-source-line="33" data-uid="lnk47" id="link_Manage_Show facilitators and.nplayers for session"><path d="M614.5,424.81 C626.13,484.67 664.17,640.83 756.83,727.55 C767.86,737.87 776.1181,743.3867 790.2381,749.3167" fill="none" id="Manage-to-Show facilitators and\nplayers for session" style="stroke:#181818;stroke-width:1;"/><polygon fill="#181818" points="795.77,751.64,789.0209,744.4671,791.16,749.7039,785.9232,751.8431,795.77,751.64" style="stroke:#181818;stroke-width:1;"/></g><!--SRC=[ZP9DQuGm48Rl-HM3f_NW7oYb82tqqbvMUlCogwCRYCcIH6IXFxwJH27xIV5YCa_UUUT3qU316x1oF7hefQNEIwC5YA8Xv_WNi9-abivRzCOMW0wQMlmuil3wMrLGvs5nSKe0qmclgZVOVPbHwZAxQCZ32PrRZEtBIz3ClXHNaZ4MgSmNsoo5DfxWOBmtam2eOC1EAkcZhN0-AJoJ5QHx2AWGTsLIWdTBo6ep0-KpxeCK_OVRa-Co0vRL-eHlDXgxZiV0NIY-KUD8hHvn8d1fDd4QknGfHLF7n-a8Br2q-lOhn1hFwymromiW65a3q3FgRiEeb5dme5WX546ZlARMBZtEKhD4jpKyh6D07o1fZ8-XXLEe0Ipxs9hQwe4t9psyilP9ce9fG6tqUJApkyyrnoWSlJjOf3zojUZdUrYsU8vr-rQlaX1iR0tu0m00]--></g></svg>