<svg xmlns="http://www.w3.org/2000/svg" xmlns:xlink="http://www.w3.org/1999/xlink" contentStyleType="text/css" data-diagram-type="DESCRIPTION" height="1256px" preserveAspectRatio="none" style="width:1253px;height:1256px;background:#FFFFFF;" version="1.1" viewBox="0 0 1253 1256" width="1253px" zoomAndPan="magnify"><defs/><g><!--entity SF--><g class="entity" data-entity="SF" data-source-line="3" data-uid="ent0002" id="entity_SF"><ellipse cx="371.5785" cy="459.75" fill="#F1F1F1" rx="8" ry="8" style="stroke:#181818;stroke-width:0.5;"/><path d="M371.5785,467.75 L371.5785,494.75 M358.5785,475.75 L384.5785,475.75 M371.5785,494.75 L358.5785,509.75 M371.5785,494.75 L384.5785,509.75" fill="none" style="stroke:#181818;stroke-width:0.5;"/><text fill="#000000" font-family="sans-serif" font-size="14" lengthAdjust="spacing" textLength="53.416" x="336.64" y="524.2451">Session</text><text fill="#000000" font-family="sans-serif" font-size="14" lengthAdjust="spacing" textLength="69.877" x="336.64" y="540.542">Facilitator</text></g><!--entity User--><g class="entity" data-entity="User" data-source-line="4" data-uid="ent0003" id="entity_User"><ellipse cx="21.9551" cy="421.89" fill="#F1F1F1" rx="8" ry="8" style="stroke:#181818;stroke-width:0.5;"/><path d="M21.9551,429.89 L21.9551,456.89 M8.9551,437.89 L34.9551,437.89 M21.9551,456.89 L8.9551,471.89 M21.9551,456.89 L34.9551,471.89" fill="none" style="stroke:#181818;stroke-width:0.5;"/><text fill="#000000" font-family="sans-serif" font-size="14" lengthAdjust="spacing" textLength="31.9102" x="6" y="486.3851">User</text></g><!--entity Administrator--><g class="entity" data-entity="Administrator" data-source-line="4" data-uid="ent0004" id="entity_Administrator"><ellipse cx="163.1713" cy="300.89" fill="#F1F1F1" rx="8" ry="8" style="stroke:#181818;stroke-width:0.5;"/><path d="M163.1713,308.89 L163.1713,335.89 M150.1713,316.89 L176.1713,316.89 M163.1713,335.89 L150.1713,350.89 M163.1713,335.89 L176.1713,350.89" fill="none" style="stroke:#181818;stroke-width:0.5;"/><text fill="#000000" font-family="sans-serif" font-size="14" lengthAdjust="spacing" textLength="95.6826" x="115.33" y="365.3851">Administrator</text></g><!--entity Login--><g class="entity" data-entity="Login" data-source-line="7" data-uid="ent0007" id="entity_Login"><ellipse cx="163.1704" cy="418.5436" fill="#F1F1F1" rx="29.8804" ry="14.5236" style="stroke:#181818;stroke-width:0.5;"/><text fill="#000000" font-family="sans-serif" font-size="14" lengthAdjust="spacing" textLength="38.0146" x="144.1631" y="423.1921">Login</text></g><!--entity Set password--><g class="entity" data-entity="Set password" data-source-line="8" data-uid="ent0009" id="entity_Set password"><ellipse cx="163.1679" cy="483.5416" fill="#F1F1F1" rx="65.2579" ry="15.4516" style="stroke:#181818;stroke-width:0.5;"/><text fill="#000000" font-family="sans-serif" font-size="14" lengthAdjust="spacing" textLength="94.1514" x="116.0922" y="488.19">Set password</text></g><!--entity Logout--><g class="entity" data-entity="Logout" data-source-line="9" data-uid="ent0011" id="entity_Logout"><ellipse cx="163.1682" cy="548.5436" fill="#F1F1F1" rx="37.0682" ry="14.5236" style="stroke:#181818;stroke-width:0.5;"/><text fill="#000000" font-family="sans-serif" font-size="14" lengthAdjust="spacing" textLength="48.1797" x="139.0783" y="553.1921">Logout</text></g><!--entity User administration--><g class="entity" data-entity="User administration" data-source-line="11" data-uid="ent0013" id="entity_User administration"><ellipse cx="371.583" cy="123.5406" fill="#F1F1F1" rx="83.153" ry="19.0306" style="stroke:#181818;stroke-width:0.5;"/><text fill="#000000" font-family="sans-serif" font-size="14" lengthAdjust="spacing" textLength="138.0518" x="302.5571" y="128.189">User administration</text></g><g class="entity" data-entity="GMN15" data-source-line="13" data-uid="ent0016" id="entity_GMN15"><path d="M340.65,177.98 L340.65,203.1128 A0,0 0 0 0 340.65,203.1128 L402.5162,203.1128 A0,0 0 0 0 402.5162,203.1128 L402.5162,187.98 L392.5162,177.98 L375.58,177.98 L371.58,143.01 L367.58,177.98 L340.65,177.98 A0,0 0 0 0 340.65,177.98" fill="#FEFFDD" style="stroke:#181818;stroke-width:0.5;"/><path d="M392.5162,177.98 L392.5162,187.98 L402.5162,187.98 L392.5162,177.98" fill="#FEFFDD" style="stroke:#181818;stroke-width:0.5;"/><text fill="#000000" font-family="sans-serif" font-size="13" lengthAdjust="spacing" textLength="40.8662" x="346.65" y="195.0469">player</text></g><!--entity Create player--><g class="entity" data-entity="Create player" data-source-line="16" data-uid="ent0018" id="entity_Create player"><ellipse cx="611.808" cy="21.5376" fill="#F1F1F1" rx="65.688" ry="15.5376" style="stroke:#181818;stroke-width:0.5;"/><text fill="#000000" font-family="sans-serif" font-size="14" lengthAdjust="spacing" textLength="95.2861" x="564.165" y="26.186">Create player</text></g><!--entity Delete player--><g class="entity" data-entity="Delete player" data-source-line="17" data-uid="ent0020" id="entity_Delete player"><ellipse cx="611.8143" cy="87.5449" fill="#F1F1F1" rx="65.3743" ry="15.4749" style="stroke:#181818;stroke-width:0.5;"/><text fill="#000000" font-family="sans-serif" font-size="14" lengthAdjust="spacing" textLength="94.459" x="564.5848" y="92.1933">Delete player</text></g><!--entity Reset player password--><g class="entity" data-entity="Reset player password" data-source-line="18" data-uid="ent0022" id="entity_Reset player password"><ellipse cx="611.8118" cy="158.5384" fill="#F1F1F1" rx="92.4918" ry="20.8984" style="stroke:#181818;stroke-width:0.5;"/><text fill="#000000" font-family="sans-serif" font-size="14" lengthAdjust="spacing" textLength="159.3594" x="532.1321" y="163.1868">Reset player password</text></g><!--entity User allocation--><g class="entity" data-entity="User allocation" data-source-line="20" data-uid="ent0024" id="entity_User allocation"><ellipse cx="611.8089" cy="230.5418" fill="#F1F1F1" rx="69.2089" ry="16.2418" style="stroke:#181818;stroke-width:0.5;"/><text fill="#000000" font-family="sans-serif" font-size="14" lengthAdjust="spacing" textLength="104.3779" x="559.6199" y="235.1902">User allocation</text></g><!--entity Allocate user to session--><g class="entity" data-entity="Allocate user to session" data-source-line="21" data-uid="ent0026" id="entity_Allocate user to session"><ellipse cx="883.1798" cy="67.538" fill="#F1F1F1" rx="95.4898" ry="21.498" style="stroke:#181818;stroke-width:0.5;"/><text fill="#000000" font-family="sans-serif" font-size="14" lengthAdjust="spacing" textLength="166.0654" x="800.1471" y="72.1864">Allocate user to session</text></g><!--entity Deallocate user from session--><g class="entity" data-entity="Deallocate user from session" data-source-line="22" data-uid="ent0028" id="entity_Deallocate user from session"><ellipse cx="883.1781" cy="148.5416" fill="#F1F1F1" rx="112.5081" ry="24.9016" style="stroke:#181818;stroke-width:0.5;"/><text fill="#000000" font-family="sans-serif" font-size="14" lengthAdjust="spacing" textLength="203.2939" x="781.5312" y="153.1901">Deallocate user from session</text></g><!--entity Show players for session--><g class="entity" data-entity="Show players for session" data-source-line="23" data-uid="ent0030" id="entity_Show players for session"><ellipse cx="883.1823" cy="230.5385" fill="#F1F1F1" rx="98.8423" ry="22.1685" style="stroke:#181818;stroke-width:0.5;"/><text fill="#000000" font-family="sans-serif" font-size="14" lengthAdjust="spacing" textLength="173.5029" x="796.4308" y="235.1869">Show players for session</text></g><!--entity Manage--><g class="entity" data-entity="Manage" data-source-line="25" data-uid="ent0032" id="entity_Manage"><ellipse cx="611.8133" cy="420.5398" fill="#F1F1F1" rx="65.4933" ry="24.2198" style="stroke:#181818;stroke-width:0.5;"/><text fill="#000000" font-family="sans-serif" font-size="14" lengthAdjust="spacing" textLength="55.6104" x="584.0081" y="414.333">Manage</text><text fill="#000000" font-family="sans-serif" font-size="14" lengthAdjust="spacing" textLength="95.9902" x="563.8181" y="430.6298">game session</text></g><!--entity Set session dates--><g class="entity" data-entity="Set session dates" data-source-line="27" data-uid="ent0034" id="entity_Set session dates"><ellipse cx="883.1841" cy="305.5388" fill="#F1F1F1" rx="76.5941" ry="17.7188" style="stroke:#181818;stroke-width:0.5;"/><text fill="#000000" font-family="sans-serif" font-size="14" lengthAdjust="spacing" textLength="122.5752" x="821.8965" y="310.1873">Set session dates</text></g><!--entity Set allowable strategies--><g class="entity" data-entity="Set allowable strategies" data-source-line="28" data-uid="ent0036" id="entity_Set allowable strategies"><ellipse cx="883.1806" cy="379.5441" fill="#F1F1F1" rx="96.4206" ry="21.6841" style="stroke:#181818;stroke-width:0.5;"/><text fill="#000000" font-family="sans-serif" font-size="14" lengthAdjust="spacing" textLength="168.1367" x="799.1123" y="384.1926">Set allowable strategies</text></g><!--entity Generate anonymous players--><g class="entity" data-entity="Generate anonymous players" data-source-line="29" data-uid="ent0038" id="entity_Generate anonymous players"><ellipse cx="883.1834" cy="461.5387" fill="#F1F1F1" rx="114.2934" ry="25.2587" style="stroke:#181818;stroke-width:0.5;"/><text fill="#000000" font-family="sans-serif" font-size="14" lengthAdjust="spacing" textLength="207.1357" x="779.6156" y="466.1871">Generate anonymous players</text></g><!--entity Brief game--><g class="entity" data-entity="Brief game" data-source-line="31" data-uid="ent0040" id="entity_Brief game"><ellipse cx="611.8082" cy="497.5436" fill="#F1F1F1" rx="57.4182" ry="14.5236" style="stroke:#181818;stroke-width:0.5;"/><text fill="#000000" font-family="sans-serif" font-size="14" lengthAdjust="spacing" textLength="76.959" x="573.3287" y="502.1921">Brief game</text></g><!--entity Start/stop game session--><g class="entity" data-entity="Start.stop game session" data-source-line="33" data-uid="ent0042" id="entity_Start.stop game session"><ellipse cx="611.8063" cy="613.5353" fill="#F1F1F1" rx="97.0763" ry="21.8153" style="stroke:#181818;stroke-width:0.5;"/><text fill="#000000" font-family="sans-serif" font-size="14" lengthAdjust="spacing" textLength="169.5928" x="527.0099" y="618.1837">Start/stop game session</text></g><!--entity Start game session--><g class="entity" data-entity="Start game session" data-source-line="34" data-uid="ent0044" id="entity_Start game session"><ellipse cx="883.1789" cy="540.5378" fill="#F1F1F1" rx="81.6889" ry="18.7378" style="stroke:#181818;stroke-width:0.5;"/><text fill="#000000" font-family="sans-serif" font-size="14" lengthAdjust="spacing" textLength="134.6406" x="815.8586" y="545.1862">Start game session</text></g><!--entity Change game speed--><g class="entity" data-entity="Change game speed" data-source-line="35" data-uid="ent0046" id="entity_Change game speed"><ellipse cx="883.1808" cy="613.5402" fill="#F1F1F1" rx="85.9508" ry="19.5902" style="stroke:#181818;stroke-width:0.5;"/><text fill="#000000" font-family="sans-serif" font-size="14" lengthAdjust="spacing" textLength="144.5117" x="810.9249" y="618.1886">Change game speed</text></g><!--entity Pause game session--><g class="entity" data-entity="Pause game session" data-source-line="36" data-uid="ent0048" id="entity_Pause game session"><ellipse cx="883.1842" cy="687.5428" fill="#F1F1F1" rx="84.9642" ry="19.3928" style="stroke:#181818;stroke-width:0.5;"/><text fill="#000000" font-family="sans-serif" font-size="14" lengthAdjust="spacing" textLength="142.2422" x="812.0631" y="692.1913">Pause game session</text></g><!--entity Stop game session--><g class="entity" data-entity="Stop game session" data-source-line="37" data-uid="ent0050" id="entity_Stop game session"><ellipse cx="883.1767" cy="760.5353" fill="#F1F1F1" rx="80.6767" ry="18.5353" style="stroke:#181818;stroke-width:0.5;"/><text fill="#000000" font-family="sans-serif" font-size="14" lengthAdjust="spacing" textLength="132.2686" x="817.0424" y="765.1838">Stop game session</text></g><!--entity Facilitate session--><g class="entity" data-entity="Facilitate session" data-source-line="39" data-uid="ent0052" id="entity_Facilitate session"><ellipse cx="611.8084" cy="961.5417" fill="#F1F1F1" rx="75.7084" ry="17.5417" style="stroke:#181818;stroke-width:0.5;"/><text fill="#000000" font-family="sans-serif" font-size="14" lengthAdjust="spacing" textLength="120.4424" x="551.5873" y="966.1901">Facilitate session</text></g><!--entity Add news item--><g class="entity" data-entity="Add news item" data-source-line="40" data-uid="ent0054" id="entity_Add news item"><ellipse cx="883.1838" cy="830.5408" fill="#F1F1F1" rx="69.1038" ry="16.2208" style="stroke:#181818;stroke-width:0.5;"/><text fill="#000000" font-family="sans-serif" font-size="14" lengthAdjust="spacing" textLength="104.1113" x="831.1282" y="835.1892">Add news item</text></g><!--entity Add event--><g class="entity" data-entity="Add event" data-source-line="41" data-uid="ent0056" id="entity_Add event"><ellipse cx="883.1817" cy="896.5436" fill="#F1F1F1" rx="53.6817" ry="14.5236" style="stroke:#181818;stroke-width:0.5;"/><text fill="#000000" font-family="sans-serif" font-size="14" lengthAdjust="spacing" textLength="71.6748" x="847.3443" y="901.1921">Add event</text></g><!--entity Trigger event--><g class="entity" data-entity="Trigger event" data-source-line="42" data-uid="ent0058" id="entity_Trigger event"><ellipse cx="883.182" cy="961.5404" fill="#F1F1F1" rx="65.452" ry="15.4904" style="stroke:#181818;stroke-width:0.5;"/><text fill="#000000" font-family="sans-serif" font-size="14" lengthAdjust="spacing" textLength="94.6641" x="835.8499" y="966.1888">Trigger event</text></g><!--entity Chat with players--><g class="entity" data-entity="Chat with players" data-source-line="43" data-uid="ent0060" id="entity_Chat with players"><ellipse cx="883.1841" cy="1029.5428" fill="#F1F1F1" rx="76.6141" ry="17.7228" style="stroke:#181818;stroke-width:0.5;"/><text fill="#000000" font-family="sans-serif" font-size="14" lengthAdjust="spacing" textLength="122.623" x="821.8725" y="1034.1912">Chat with players</text></g><!--entity Show actor map--><g class="entity" data-entity="Show actor map" data-source-line="44" data-uid="ent0062" id="entity_Show actor map"><ellipse cx="883.1793" cy="1099.5419" fill="#F1F1F1" rx="73.0093" ry="17.0019" style="stroke:#181818;stroke-width:0.5;"/><text fill="#000000" font-family="sans-serif" font-size="14" lengthAdjust="spacing" textLength="113.8662" x="826.2462" y="1104.1903">Show actor map</text></g><!--entity Show scores--><g class="entity" data-entity="Show scores" data-source-line="45" data-uid="ent0064" id="entity_Show scores"><ellipse cx="883.1828" cy="1166.5426" fill="#F1F1F1" rx="62.7628" ry="14.9526" style="stroke:#181818;stroke-width:0.5;"/><text fill="#000000" font-family="sans-serif" font-size="14" lengthAdjust="spacing" textLength="87.4453" x="839.4602" y="1171.191">Show scores</text></g><!--entity Send data to\ngame data platform--><g class="entity" data-entity="Send data to.ngame data platform" data-source-line="47" data-uid="ent0066" id="entity_Send data to.ngame data platform"><ellipse cx="1152.3966" cy="830.5394" fill="#F1F1F1" rx="94.9266" ry="24.4194" style="stroke:#181818;stroke-width:0.5;"/><text fill="#000000" font-family="sans-serif" font-size="14" lengthAdjust="spacing" textLength="89.749" x="1107.5221" y="824.6424">Send data to</text><text fill="#000000" font-family="sans-serif" font-size="14" lengthAdjust="spacing" textLength="139.8838" x="1082.4547" y="840.9392">game data platform</text></g><!--entity Debrief game--><g class="entity" data-entity="Debrief game" data-source-line="53" data-uid="ent0072" id="entity_Debrief game"><ellipse cx="611.8106" cy="1166.5441" fill="#F1F1F1" rx="65.8206" ry="15.5641" style="stroke:#181818;stroke-width:0.5;"/><text fill="#000000" font-family="sans-serif" font-size="14" lengthAdjust="spacing" textLength="95.6348" x="563.9932" y="1171.1926">Debrief game</text></g><!--entity Show gameplay--><g class="entity" data-entity="Show gameplay" data-source-line="55" data-uid="ent0075" id="entity_Show gameplay"><ellipse cx="883.1841" cy="1233.5368" fill="#F1F1F1" rx="72.0841" ry="16.8168" style="stroke:#181818;stroke-width:0.5;"/><text fill="#000000" font-family="sans-serif" font-size="14" lengthAdjust="spacing" textLength="111.583" x="827.3926" y="1238.1853">Show gameplay</text></g><!--reverse link User to Administrator--><g class="link" data-entity-1="User" data-entity-2="Administrator" data-source-line="4" data-uid="lnk5" id="link_User_Administrator"><path d="M51.9752,426.3214 C71.0152,409.7714 90.63,392.72 117.86,369.06" fill="none" id="User-backto-Administrator" style="stroke:#181818;stroke-width:1;"/><polygon fill="none" points="38.39,438.13,55.9114,430.8498,48.039,421.793,38.39,438.13" style="stroke:#181818;stroke-width:1;"/></g><!--reverse link Administrator to SF--><g class="link" data-entity-1="Administrator" data-entity-2="SF" data-source-line="5" data-uid="lnk6" id="link_Administrator_SF"><path d="M225.2552,379.9696 C263.3352,410.7696 302.05,442.1 336.23,469.76" fill="none" id="Administrator-backto-SF" style="stroke:#181818;stroke-width:1;"/><polygon fill="none" points="211.26,368.65,221.482,384.6347,229.0284,375.3046,211.26,368.65" style="stroke:#181818;stroke-width:1;"/></g><!--link User to Login--><g class="link" data-entity-1="User" data-entity-2="Login" data-source-line="7" data-uid="lnk8" id="link_User_Login"><path d="M38.39,447.89 C61.89,442.31 101.1217,433.0135 129.9017,426.1935" fill="none" id="User-to-Login" style="stroke:#181818;stroke-width:1;"/><polygon fill="#181818" points="135.74,424.81,126.0602,422.993,130.8747,425.9629,127.9049,430.7775,135.74,424.81" style="stroke:#181818;stroke-width:1;"/></g><!--link User to Set password--><g class="link" data-entity-1="User" data-entity-2="Set password" data-source-line="8" data-uid="lnk10" id="link_User_Set password"><path d="M38.39,455.09 C56.79,459.32 82.5724,465.2464 109.2524,471.3764" fill="none" id="User-to-Set password" style="stroke:#181818;stroke-width:1;"/><polygon fill="#181818" points="115.1,472.72,107.2242,466.8062,110.227,471.6004,105.4328,474.6031,115.1,472.72" style="stroke:#181818;stroke-width:1;"/></g><!--link User to Logout--><g class="link" data-entity-1="User" data-entity-2="Logout" data-source-line="9" data-uid="lnk12" id="link_User_Logout"><path d="M38.38,466.99 C52.91,481.03 75.7,501.73 97.91,516.54 C110.14,524.7 119.3055,529.6186 131.5055,535.2686" fill="none" id="User-to-Logout" style="stroke:#181818;stroke-width:1;"/><polygon fill="#181818" points="136.95,537.79,130.4642,530.3782,132.4129,535.6888,127.1023,537.6375,136.95,537.79" style="stroke:#181818;stroke-width:1;"/></g><!--link Administrator to User administration--><g class="link" data-entity-1="Administrator" data-entity-2="User administration" data-source-line="11" data-uid="lnk14" id="link_Administrator_User administration"><path d="M184.52,291.94 C206.05,254.22 243.14,197.27 288.43,160.54 C299,151.97 306.391,147.3954 318.781,141.8654" fill="none" id="Administrator-to-User administration" style="stroke:#181818;stroke-width:1;"/><polygon fill="#181818" points="324.26,139.42,314.4112,139.4355,319.6941,141.4579,317.6717,146.7409,324.26,139.42" style="stroke:#181818;stroke-width:1;"/></g><!--link User administration to Create player--><g class="link" data-entity-1="User administration" data-entity-2="Create player" data-source-line="16" data-uid="lnk19" id="link_User administration_Create player"><path d="M406.23,105.78 C434.71,91.09 476.82,70.19 514.73,54.54 C532.99,47.01 547.9634,41.6337 565.4434,35.8537" fill="none" id="User administration-to-Create player" style="stroke:#181818;stroke-width:1;"/><polygon fill="#181818" points="571.14,33.97,561.3392,32.9977,566.3928,35.5397,563.8508,40.5933,571.14,33.97" style="stroke:#181818;stroke-width:1;"/></g><!--link User administration to Delete player--><g class="link" data-entity-1="User administration" data-entity-2="Delete player" data-source-line="17" data-uid="lnk21" id="link_User administration_Delete player"><path d="M441.8,113.08 C478.07,107.6 515.9372,101.8755 549.8572,96.7555" fill="none" id="User administration-to-Delete player" style="stroke:#181818;stroke-width:1;"/><polygon fill="#181818" points="555.79,95.86,546.2938,93.2481,550.846,96.6063,547.4878,101.1585,555.79,95.86" style="stroke:#181818;stroke-width:1;"/></g><!--link User administration to Reset player password--><g class="link" data-entity-1="User administration" data-entity-2="Reset player password" data-source-line="18" data-uid="lnk23" id="link_User administration_Reset player password"><path d="M442.45,133.81 C471,138 498.2039,141.9965 527.4939,146.3065" fill="none" id="User administration-to-Reset player password" style="stroke:#181818;stroke-width:1;"/><polygon fill="#181818" points="533.43,147.18,525.1082,141.9124,528.4833,146.4521,523.9436,149.8272,533.43,147.18" style="stroke:#181818;stroke-width:1;"/></g><!--link SF to User allocation--><g class="link" data-entity-1="SF" data-entity-2="User allocation" data-source-line="20" data-uid="lnk25" id="link_SF_User allocation"><path d="M406.97,459 C459.92,399.65 555.2153,292.8469 592.3253,251.2569" fill="none" id="SF-to-User allocation" style="stroke:#181818;stroke-width:1;"/><polygon fill="#181818" points="596.32,246.78,587.3434,250.8323,592.9911,250.5108,593.3126,256.1585,596.32,246.78" style="stroke:#181818;stroke-width:1;"/></g><!--link User allocation to Allocate user to session--><g class="link" data-entity-1="User allocation" data-entity-2="Allocate user to session" data-source-line="21" data-uid="lnk27" id="link_User allocation_Allocate user to session"><path d="M663.27,219.37 C678.97,214.21 695.62,206.87 708.88,196.54 C746.82,167.01 730.82,135.91 768.88,106.54 C782.22,96.25 792.8191,90.5869 808.7891,84.8869" fill="none" id="User allocation-to-Allocate user to session" style="stroke:#181818;stroke-width:1;"/><polygon fill="#181818" points="814.44,82.87,804.6191,82.1281,809.731,84.5507,807.3083,89.6626,814.44,82.87" style="stroke:#181818;stroke-width:1;"/></g><!--link User allocation to Deallocate user from session--><g class="link" data-entity-1="User allocation" data-entity-2="Deallocate user from session" data-source-line="22" data-uid="lnk29" id="link_User allocation_Deallocate user from session"><path d="M655.49,217.55 C698.51,204.45 759.7797,185.7963 809.8097,170.5763" fill="none" id="User allocation-to-Deallocate user from session" style="stroke:#181818;stroke-width:1;"/><polygon fill="#181818" points="815.55,168.83,805.7754,167.6226,810.7665,170.2852,808.1038,175.2763,815.55,168.83" style="stroke:#181818;stroke-width:1;"/></g><!--link User allocation to Show players for session--><g class="link" data-entity-1="User allocation" data-entity-2="Show players for session" data-source-line="23" data-uid="lnk31" id="link_User allocation_Show players for session"><path d="M681.48,230.54 C712.58,230.54 743.91,230.54 777.9,230.54" fill="none" id="User allocation-to-Show players for session" style="stroke:#181818;stroke-width:1;"/><polygon fill="#181818" points="783.9,230.54,774.9,226.54,778.9,230.54,774.9,234.54,783.9,230.54" style="stroke:#181818;stroke-width:1;"/></g><!--link SF to Manage--><g class="link" data-entity-1="SF" data-entity-2="Manage" data-source-line="26" data-uid="lnk33" id="link_SF_Manage"><path d="M406.97,486.43 C447.55,473.31 509.6508,453.2353 555.8108,438.3153" fill="none" id="SF-to-Manage" style="stroke:#181818;stroke-width:1;"/><polygon fill="#181818" points="561.52,436.47,551.726,435.4319,556.7624,438.0078,554.1865,443.0441,561.52,436.47" style="stroke:#181818;stroke-width:1;"/></g><!--link Manage to Set session dates--><g class="link" data-entity-1="Manage" data-entity-2="Set session dates" data-source-line="27" data-uid="lnk35" id="link_Manage_Set session dates"><path d="M648.24,400.13 C679.34,382.76 726.16,357.94 768.88,340.54 C789.1,332.31 806.2344,326.5949 826.1344,320.7349" fill="none" id="Manage-to-Set session dates" style="stroke:#181818;stroke-width:1;"/><polygon fill="#181818" points="831.89,319.04,822.1266,317.7452,827.0936,320.4524,824.3865,325.4194,831.89,319.04" style="stroke:#181818;stroke-width:1;"/></g><!--link Manage to Set allowable strategies--><g class="link" data-entity-1="Manage" data-entity-2="Set allowable strategies" data-source-line="28" data-uid="lnk37" id="link_Manage_Set allowable strategies"><path d="M672.92,411.39 C711.07,405.59 754.9384,398.9132 796.3784,392.6032" fill="none" id="Manage-to-Set allowable strategies" style="stroke:#181818;stroke-width:1;"/><polygon fill="#181818" points="802.31,391.7,792.8104,389.1004,797.367,392.4527,794.0147,397.0092,802.31,391.7" style="stroke:#181818;stroke-width:1;"/></g><!--link Manage to Generate anonymous players--><g class="link" data-entity-1="Manage" data-entity-2="Generate anonymous players" data-source-line="29" data-uid="lnk39" id="link_Manage_Generate anonymous players"><path d="M672.92,429.69 C706.8,434.85 743.9483,440.5074 782.1983,446.3274" fill="none" id="Manage-to-Generate anonymous players" style="stroke:#181818;stroke-width:1;"/><polygon fill="#181818" points="788.13,447.23,779.8341,441.9217,783.1869,446.4779,778.6307,449.8307,788.13,447.23" style="stroke:#181818;stroke-width:1;"/></g><!--link SF to Brief game--><g class="link" data-entity-1="SF" data-entity-2="Brief game" data-source-line="31" data-uid="lnk41" id="link_SF_Brief game"><path d="M406.97,497.54 C445.49,497.54 502.54,497.54 548.33,497.54" fill="none" id="SF-to-Brief game" style="stroke:#181818;stroke-width:1;"/><polygon fill="#181818" points="554.33,497.54,545.33,493.54,549.33,497.54,545.33,501.54,554.33,497.54" style="stroke:#181818;stroke-width:1;"/></g><!--link SF to Start/stop game session--><g class="link" data-entity-1="SF" data-entity-2="Start.stop game session" data-source-line="33" data-uid="lnk43" id="link_SF_Start.stop game session"><path d="M406.97,514.29 C450,535.24 518.2454,568.4736 564.2354,590.8636" fill="none" id="SF-to-Start/stop game session" style="stroke:#181818;stroke-width:1;"/><polygon fill="#181818" points="569.63,593.49,563.2889,585.954,565.1345,591.3014,559.7871,593.1469,569.63,593.49" style="stroke:#181818;stroke-width:1;"/></g><!--link Start/stop game session to Start game session--><g class="link" data-entity-1="Start.stop game session" data-entity-2="Start game session" data-source-line="34" data-uid="lnk45" id="link_Start.stop game session_Start game session"><path d="M675.28,596.61 C721.91,583.98 779.139,568.4699 823.329,556.4899" fill="none" id="Start/stop game session-to-Start game session" style="stroke:#181818;stroke-width:1;"/><polygon fill="#181818" points="829.12,554.92,819.3869,553.4143,824.2942,556.2283,821.4802,561.1356,829.12,554.92" style="stroke:#181818;stroke-width:1;"/></g><!--link Start/stop game session to Change game speed--><g class="link" data-entity-1="Start.stop game session" data-entity-2="Change game speed" data-source-line="35" data-uid="lnk47" id="link_Start.stop game session_Change game speed"><path d="M709.3,613.54 C737.98,613.54 763.18,613.54 791.08,613.54" fill="none" id="Start/stop game session-to-Change game speed" style="stroke:#181818;stroke-width:1;"/><polygon fill="#181818" points="797.08,613.54,788.08,609.54,792.08,613.54,788.08,617.54,797.08,613.54" style="stroke:#181818;stroke-width:1;"/></g><!--link Start/stop game session to Pause game session--><g class="link" data-entity-1="Start.stop game session" data-entity-2="Pause game session" data-source-line="36" data-uid="lnk49" id="link_Start.stop game session_Pause game session"><path d="M674.61,630.52 C720.74,643.19 777.4145,658.76 821.7345,670.94" fill="none" id="Start/stop game session-to-Pause game session" style="stroke:#181818;stroke-width:1;"/><polygon fill="#181818" points="827.52,672.53,819.9017,666.288,822.6988,671.205,817.7818,674.002,827.52,672.53" style="stroke:#181818;stroke-width:1;"/></g><!--link Start/stop game session to Stop game session--><g class="link" data-entity-1="Start.stop game session" data-entity-2="Stop game session" data-source-line="37" data-uid="lnk51" id="link_Start.stop game session_Stop game session"><path d="M637.74,635.03 C667.31,659.59 718.9,699.6 768.88,724.54 C787.17,733.67 802.5041,739.3923 821.4941,745.1023" fill="none" id="Start/stop game session-to-Stop game session" style="stroke:#181818;stroke-width:1;"/><polygon fill="#181818" points="827.24,746.83,819.773,740.4079,822.4518,745.3903,817.4694,748.069,827.24,746.83" style="stroke:#181818;stroke-width:1;"/></g><!--link SF to Facilitate session--><g class="link" data-entity-1="SF" data-entity-2="Facilitate session" data-source-line="39" data-uid="lnk53" id="link_SF_Facilitate session"><path d="M396.51,544.16 C448.07,644.59 564.9894,872.3025 598.9394,938.4225" fill="none" id="SF-to-Facilitate session" style="stroke:#181818;stroke-width:1;"/><polygon fill="#181818" points="601.68,943.76,601.1274,933.9267,599.3962,939.3121,594.0107,937.5808,601.68,943.76" style="stroke:#181818;stroke-width:1;"/></g><!--link Facilitate session to Add news item--><g class="link" data-entity-1="Facilitate session" data-entity-2="Add news item" data-source-line="40" data-uid="lnk55" id="link_Facilitate session_Add news item"><path d="M635.78,944.54 C665.29,923.35 718.72,887.17 768.88,864.54 C789.38,855.3 807.2855,849.3336 827.6855,843.7136" fill="none" id="Facilitate session-to-Add news item" style="stroke:#181818;stroke-width:1;"/><polygon fill="#181818" points="833.47,842.12,823.7309,840.654,828.6496,843.448,825.8556,848.3667,833.47,842.12" style="stroke:#181818;stroke-width:1;"/></g><!--link Facilitate session to Add event--><g class="link" data-entity-1="Facilitate session" data-entity-2="Add event" data-source-line="41" data-uid="lnk57" id="link_Facilitate session_Add event"><path d="M665.38,948.86 C717.14,936.37 789.2073,918.977 836.1773,907.647" fill="none" id="Facilitate session-to-Add event" style="stroke:#181818;stroke-width:1;"/><polygon fill="#181818" points="842.01,906.24,832.323,904.462,837.1494,907.4125,834.1989,912.2389,842.01,906.24" style="stroke:#181818;stroke-width:1;"/></g><!--link Facilitate session to Trigger event--><g class="link" data-entity-1="Facilitate session" data-entity-2="Trigger event" data-source-line="42" data-uid="lnk59" id="link_Facilitate session_Trigger event"><path d="M687.84,961.54 C728.63,961.54 772.56,961.54 811.6,961.54" fill="none" id="Facilitate session-to-Trigger event" style="stroke:#181818;stroke-width:1;"/><polygon fill="#181818" points="817.6,961.54,808.6,957.54,812.6,961.54,808.6,965.54,817.6,961.54" style="stroke:#181818;stroke-width:1;"/></g><!--link Facilitate session to Chat with players--><g class="link" data-entity-1="Facilitate session" data-entity-2="Chat with players" data-source-line="43" data-uid="lnk61" id="link_Facilitate session_Chat with players"><path d="M664.43,974.57 C712.09,986.61 776.7023,1002.9222 824.4623,1014.9722" fill="none" id="Facilitate session-to-Chat with players" style="stroke:#181818;stroke-width:1;"/><polygon fill="#181818" points="830.28,1016.44,822.532,1010.3598,825.4319,1015.2168,820.5749,1018.1167,830.28,1016.44" style="stroke:#181818;stroke-width:1;"/></g><!--link Facilitate session to Show actor map--><g class="link" data-entity-1="Facilitate session" data-entity-2="Show actor map" data-source-line="44" data-uid="lnk63" id="link_Facilitate session_Show actor map"><path d="M634.37,978.66 C663.44,1001.05 717.52,1040.27 768.88,1064.54 C788.61,1073.87 805.6614,1079.8198 825.6214,1085.5298" fill="none" id="Facilitate session-to-Show actor map" style="stroke:#181818;stroke-width:1;"/><polygon fill="#181818" points="831.39,1087.18,823.8373,1080.8589,826.5828,1085.8048,821.6369,1088.5504,831.39,1087.18" style="stroke:#181818;stroke-width:1;"/></g><!--link Facilitate session to Show scores--><g class="link" data-entity-1="Facilitate session" data-entity-2="Show scores" data-source-line="45" data-uid="lnk65" id="link_Facilitate session_Show scores"><path d="M623.76,979.24 C646.4,1014.32 701.89,1092.91 768.88,1134.54 C787.29,1145.98 804.034,1152.0369 824.184,1156.8469" fill="none" id="Facilitate session-to-Show scores" style="stroke:#181818;stroke-width:1;"/><polygon fill="#181818" points="830.02,1158.24,822.1947,1152.2596,825.1566,1157.0791,820.3372,1160.041,830.02,1158.24" style="stroke:#181818;stroke-width:1;"/></g><!--link Start game session to Send data to\ngame data platform--><g class="link" data-entity-1="Start game session" data-entity-2="Send data to.ngame data platform" data-source-line="47" data-uid="lnk67" id="link_Start game session_Send data to.ngame data platform"><path d="M948.08,552.19 C965.35,557.55 983.2,565.31 997.47,576.54 C1077.09,639.21 1123.1538,749.6689 1141.2038,800.2589" fill="none" id="Start game session-to-Send data to\ngame data platform" style="stroke:#181818;stroke-width:1;"/><polygon fill="#181818" points="1143.22,805.91,1143.963,796.0892,1141.5398,801.2008,1136.4282,798.7775,1143.22,805.91" style="stroke:#181818;stroke-width:1;"/></g><!--link Add news item to Send data to\ngame data platform--><g class="link" data-entity-1="Add news item" data-entity-2="Send data to.ngame data platform" data-source-line="48" data-uid="lnk68" id="link_Add news item_Send data to.ngame data platform"><path d="M952.65,830.54 C984.42,830.54 1016.71,830.54 1051.16,830.54" fill="none" id="Add news item-to-Send data to\ngame data platform" style="stroke:#181818;stroke-width:1;"/><polygon fill="#181818" points="1057.16,830.54,1048.16,826.54,1052.16,830.54,1048.16,834.54,1057.16,830.54" style="stroke:#181818;stroke-width:1;"/></g><!--link Add event to Send data to\ngame data platform--><g class="link" data-entity-1="Add event" data-entity-2="Send data to.ngame data platform" data-source-line="49" data-uid="lnk69" id="link_Add event_Send data to.ngame data platform"><path d="M923.89,886.73 C965.69,876.41 1026.4551,861.3989 1076.8151,848.9589" fill="none" id="Add event-to-Send data to\ngame data platform" style="stroke:#181818;stroke-width:1;"/><polygon fill="#181818" points="1082.64,847.52,1072.9434,845.795,1077.7859,848.7191,1074.8619,853.5616,1082.64,847.52" style="stroke:#181818;stroke-width:1;"/></g><!--link Trigger event to Send data to\ngame data platform--><g class="link" data-entity-1="Trigger event" data-entity-2="Send data to.ngame data platform" data-source-line="50" data-uid="lnk70" id="link_Trigger event_Send data to.ngame data platform"><path d="M931.83,950.88 C952.49,945.44 976.66,937.97 997.47,928.54 C1042.78,908.03 1085.5567,879.3478 1115.6167,857.4978" fill="none" id="Trigger event-to-Send data to\ngame data platform" style="stroke:#181818;stroke-width:1;"/><polygon fill="#181818" points="1120.47,853.97,1110.8382,856.0261,1116.4256,856.9098,1115.5419,862.4972,1120.47,853.97" style="stroke:#181818;stroke-width:1;"/></g><!--link Stop game session to Send data to\ngame data platform--><g class="link" data-entity-1="Stop game session" data-entity-2="Send data to.ngame data platform" data-source-line="51" data-uid="lnk71" id="link_Stop game session_Send data to.ngame data platform"><path d="M937.61,774.54 C979.95,785.63 1033.5357,799.67 1078.9757,811.57" fill="none" id="Stop game session-to-Send data to\ngame data platform" style="stroke:#181818;stroke-width:1;"/><polygon fill="#181818" points="1084.78,813.09,1077.087,806.9404,1079.9431,811.8233,1075.0602,814.6794,1084.78,813.09" style="stroke:#181818;stroke-width:1;"/></g><!--link SF to Debrief game--><g class="link" data-entity-1="SF" data-entity-2="Debrief game" data-source-line="53" data-uid="lnk73" id="link_SF_Debrief game"><path d="M381.99,544.19 C400.93,633.98 447.68,836.14 514.73,996.54 C539.71,1056.28 577.5971,1116.5009 596.8971,1145.7709" fill="none" id="SF-to-Debrief game" style="stroke:#181818;stroke-width:1;"/><polygon fill="#181818" points="600.2,1150.78,598.5851,1141.0644,597.4476,1146.6058,591.9063,1145.4683,600.2,1150.78" style="stroke:#181818;stroke-width:1;"/></g><!--link Debrief game to Show scores--><g class="link" data-entity-1="Debrief game" data-entity-2="Show scores" data-source-line="54" data-uid="lnk74" id="link_Debrief game_Show scores"><path d="M678.02,1166.54 C721.3,1166.54 771.77,1166.54 814.35,1166.54" fill="none" id="Debrief game-to-Show scores" style="stroke:#181818;stroke-width:1;"/><polygon fill="#181818" points="820.35,1166.54,811.35,1162.54,815.35,1166.54,811.35,1170.54,820.35,1166.54" style="stroke:#181818;stroke-width:1;"/></g><!--link Debrief game to Show gameplay--><g class="link" data-entity-1="Debrief game" data-entity-2="Show gameplay" data-source-line="55" data-uid="lnk76" id="link_Debrief game_Show gameplay"><path d="M658.5,1177.91 C706.84,1189.93 777.0172,1207.3925 826.7772,1219.7625" fill="none" id="Debrief game-to-Show gameplay" style="stroke:#181818;stroke-width:1;"/><polygon fill="#181818" points="832.6,1221.21,824.8308,1215.1569,827.7477,1220.0037,822.9008,1222.9206,832.6,1221.21" style="stroke:#181818;stroke-width:1;"/></g><!--SRC=[bLJ1Rjim3BthAuYSuaEm7nWAT0soImiCTNVhXR4PHu0j6H9Jey0-VfJb978Jryaf8VcUy4W-kgOT0rjmkjepbDfHmTeQ1MgHa_VozzriiD2rPcJh5e0Uyetwwyd1pt-h5JoMZJRQimjbDOeYGD0HlbezmFBPLjfaII8dXXQzxwmhip7G7ZXJNvxiQpqAptbHcIbZcM1hcMsZ0DeQFyafCYM4Wb9NIV6v9qSet4Z9laEkgQRRaA_aGsCzCEbFvPkqXRgsnI3_8XDnZp51S0XbMPIFMvaah0b7b9sppImftzjk4EjX9sC-4TJY1GrMz6ugREYOxssmZ9Nis5CCLVmvBtUWG2cIV7PH3bewtDRoTfWWLVehwZSP2XL0OyrdOm_-A3MPvo-dQGT1OvBC6Ht_y6nRIDNB6AOg2Uy-ojCUZGYEbPQed6NyGTdFlRekEZdrUZhIzBahoS5MfTm5THuqKpC7f0yo_1teJRuUbVXg5YXJOkWqxyyRd0RtfiGYN7s3xIpI5zO5wwXhwplwJJu7uaEKGneCtKSYXiNrOH3ZmTn5YztVJ1aFxMPQFkMDMUh9AclQ9jSo3gyCT18Guh37x3y0]--></g></svg>