<svg xmlns="http://www.w3.org/2000/svg" xmlns:xlink="http://www.w3.org/1999/xlink" contentStyleType="text/css" data-diagram-type="DESCRIPTION" height="1340px" preserveAspectRatio="none" style="width:1253px;height:1340px;background:#FFFFFF;" version="1.1" viewBox="0 0 1253 1340" width="1253px" zoomAndPan="magnify"><defs/><g><!--entity SF--><g class="entity" data-entity="SF" data-source-line="3" data-uid="ent0002" id="entity_SF"><ellipse cx="371.5785" cy="543.75" fill="#F1F1F1" rx="8" ry="8" style="stroke:#181818;stroke-width:0.5;"/><path d="M371.5785,551.75 L371.5785,578.75 M358.5785,559.75 L384.5785,559.75 M371.5785,578.75 L358.5785,593.75 M371.5785,578.75 L384.5785,593.75" fill="none" style="stroke:#181818;stroke-width:0.5;"/><text fill="#000000" font-family="sans-serif" font-size="14" lengthAdjust="spacing" textLength="53.416" x="336.64" y="608.2451">Session</text><text fill="#000000" font-family="sans-serif" font-size="14" lengthAdjust="spacing" textLength="69.877" x="336.64" y="624.542">Facilitator</text></g><!--entity User--><g class="entity" data-entity="User" data-source-line="4" data-uid="ent0003" id="entity_User"><ellipse cx="21.9551" cy="443.89" fill="#F1F1F1" rx="8" ry="8" style="stroke:#181818;stroke-width:0.5;"/><path d="M21.9551,451.89 L21.9551,478.89 M8.9551,459.89 L34.9551,459.89 M21.9551,478.89 L8.9551,493.89 M21.9551,478.89 L34.9551,493.89" fill="none" style="stroke:#181818;stroke-width:0.5;"/><text fill="#000000" font-family="sans-serif" font-size="14" lengthAdjust="spacing" textLength="31.9102" x="6" y="508.3851">User</text></g><!--entity Administrator--><g class="entity" data-entity="Administrator" data-source-line="4" data-uid="ent0004" id="entity_Administrator"><ellipse cx="163.1713" cy="322.89" fill="#F1F1F1" rx="8" ry="8" style="stroke:#181818;stroke-width:0.5;"/><path d="M163.1713,330.89 L163.1713,357.89 M150.1713,338.89 L176.1713,338.89 M163.1713,357.89 L150.1713,372.89 M163.1713,357.89 L176.1713,372.89" fill="none" style="stroke:#181818;stroke-width:0.5;"/><text fill="#000000" font-family="sans-serif" font-size="14" lengthAdjust="spacing" textLength="95.6826" x="115.33" y="387.3851">Administrator</text></g><!--entity Login--><g class="entity" data-entity="Login" data-source-line="7" data-uid="ent0007" id="entity_Login"><ellipse cx="163.1704" cy="440.5436" fill="#F1F1F1" rx="29.8804" ry="14.5236" style="stroke:#181818;stroke-width:0.5;"/><text fill="#000000" font-family="sans-serif" font-size="14" lengthAdjust="spacing" textLength="38.0146" x="144.1631" y="445.1921">Login</text></g><!--entity Set password--><g class="entity" data-entity="Set password" data-source-line="8" data-uid="ent0009" id="entity_Set password"><ellipse cx="163.1679" cy="505.5416" fill="#F1F1F1" rx="65.2579" ry="15.4516" style="stroke:#181818;stroke-width:0.5;"/><text fill="#000000" font-family="sans-serif" font-size="14" lengthAdjust="spacing" textLength="94.1514" x="116.0922" y="510.19">Set password</text></g><!--entity Logout--><g class="entity" data-entity="Logout" data-source-line="9" data-uid="ent0011" id="entity_Logout"><ellipse cx="163.1682" cy="570.5436" fill="#F1F1F1" rx="37.0682" ry="14.5236" style="stroke:#181818;stroke-width:0.5;"/><text fill="#000000" font-family="sans-serif" font-size="14" lengthAdjust="spacing" textLength="48.1797" x="139.0783" y="575.1921">Logout</text></g><!--entity User administration--><g class="entity" data-entity="User administration" data-source-line="11" data-uid="ent0013" id="entity_User administration"><ellipse cx="371.583" cy="123.5406" fill="#F1F1F1" rx="83.153" ry="19.0306" style="stroke:#181818;stroke-width:0.5;"/><text fill="#000000" font-family="sans-serif" font-size="14" lengthAdjust="spacing" textLength="138.0518" x="302.5571" y="128.189">User administration</text></g><g class="entity" data-entity="GMN15" data-source-line="13" data-uid="ent0016" id="entity_GMN15"><path d="M340.65,177.98 L340.65,203.1128 A0,0 0 0 0 340.65,203.1128 L402.5162,203.1128 A0,0 0 0 0 402.5162,203.1128 L402.5162,187.98 L392.5162,177.98 L375.58,177.98 L371.58,143.01 L367.58,177.98 L340.65,177.98 A0,0 0 0 0 340.65,177.98" fill="#FEFFDD" style="stroke:#181818;stroke-width:0.5;"/><path d="M392.5162,177.98 L392.5162,187.98 L402.5162,187.98 L392.5162,177.98" fill="#FEFFDD" style="stroke:#181818;stroke-width:0.5;"/><text fill="#000000" font-family="sans-serif" font-size="13" lengthAdjust="spacing" textLength="40.8662" x="346.65" y="195.0469">player</text></g><!--entity Create player--><g class="entity" data-entity="Create player" data-source-line="16" data-uid="ent0018" id="entity_Create player"><ellipse cx="611.808" cy="21.5376" fill="#F1F1F1" rx="65.688" ry="15.5376" style="stroke:#181818;stroke-width:0.5;"/><text fill="#000000" font-family="sans-serif" font-size="14" lengthAdjust="spacing" textLength="95.2861" x="564.165" y="26.186">Create player</text></g><!--entity Delete player--><g class="entity" data-entity="Delete player" data-source-line="17" data-uid="ent0020" id="entity_Delete player"><ellipse cx="611.8143" cy="87.5449" fill="#F1F1F1" rx="65.3743" ry="15.4749" style="stroke:#181818;stroke-width:0.5;"/><text fill="#000000" font-family="sans-serif" font-size="14" lengthAdjust="spacing" textLength="94.459" x="564.5848" y="92.1933">Delete player</text></g><!--entity Reset player password--><g class="entity" data-entity="Reset player password" data-source-line="18" data-uid="ent0022" id="entity_Reset player password"><ellipse cx="611.8118" cy="158.5384" fill="#F1F1F1" rx="92.4918" ry="20.8984" style="stroke:#181818;stroke-width:0.5;"/><text fill="#000000" font-family="sans-serif" font-size="14" lengthAdjust="spacing" textLength="159.3594" x="532.1321" y="163.1868">Reset player password</text></g><!--entity User allocation--><g class="entity" data-entity="User allocation" data-source-line="20" data-uid="ent0024" id="entity_User allocation"><ellipse cx="611.8089" cy="230.5418" fill="#F1F1F1" rx="69.2089" ry="16.2418" style="stroke:#181818;stroke-width:0.5;"/><text fill="#000000" font-family="sans-serif" font-size="14" lengthAdjust="spacing" textLength="104.3779" x="559.6199" y="235.1902">User allocation</text></g><!--entity Allocate user to session--><g class="entity" data-entity="Allocate user to session" data-source-line="21" data-uid="ent0026" id="entity_Allocate user to session"><ellipse cx="883.1798" cy="67.538" fill="#F1F1F1" rx="95.4898" ry="21.498" style="stroke:#181818;stroke-width:0.5;"/><text fill="#000000" font-family="sans-serif" font-size="14" lengthAdjust="spacing" textLength="166.0654" x="800.1471" y="72.1864">Allocate user to session</text></g><!--entity Deallocate user from session--><g class="entity" data-entity="Deallocate user from session" data-source-line="22" data-uid="ent0028" id="entity_Deallocate user from session"><ellipse cx="883.1781" cy="148.5416" fill="#F1F1F1" rx="112.5081" ry="24.9016" style="stroke:#181818;stroke-width:0.5;"/><text fill="#000000" font-family="sans-serif" font-size="14" lengthAdjust="spacing" textLength="203.2939" x="781.5312" y="153.1901">Deallocate user from session</text></g><!--entity Show players for session--><g class="entity" data-entity="Show players for session" data-source-line="23" data-uid="ent0030" id="entity_Show players for session"><ellipse cx="883.1823" cy="230.5385" fill="#F1F1F1" rx="98.8423" ry="22.1685" style="stroke:#181818;stroke-width:0.5;"/><text fill="#000000" font-family="sans-serif" font-size="14" lengthAdjust="spacing" textLength="173.5029" x="796.4308" y="235.1869">Show players for session</text></g><!--entity Manage--><g class="entity" data-entity="Manage" data-source-line="25" data-uid="ent0032" id="entity_Manage"><ellipse cx="611.8133" cy="463.5398" fill="#F1F1F1" rx="65.4933" ry="24.2198" style="stroke:#181818;stroke-width:0.5;"/><text fill="#000000" font-family="sans-serif" font-size="14" lengthAdjust="spacing" textLength="55.6104" x="584.0081" y="457.333">Manage</text><text fill="#000000" font-family="sans-serif" font-size="14" lengthAdjust="spacing" textLength="95.9902" x="563.8181" y="473.6298">game session</text></g><!--entity Set session dates--><g class="entity" data-entity="Set session dates" data-source-line="27" data-uid="ent0034" id="entity_Set session dates"><ellipse cx="883.1841" cy="305.5388" fill="#F1F1F1" rx="76.5941" ry="17.7188" style="stroke:#181818;stroke-width:0.5;"/><text fill="#000000" font-family="sans-serif" font-size="14" lengthAdjust="spacing" textLength="122.5752" x="821.8965" y="310.1873">Set session dates</text></g><!--entity Allow self registration\nfor players--><g class="entity" data-entity="Allow self registration.nfor players" data-source-line="28" data-uid="ent0036" id="entity_Allow self registration.nfor players"><ellipse cx="883.1837" cy="382.5407" fill="#F1F1F1" rx="100.8937" ry="23.9807" style="stroke:#181818;stroke-width:0.5;"/><text fill="#000000" font-family="sans-serif" font-size="14" lengthAdjust="spacing" textLength="152.0791" x="807.1441" y="382.1239">Allow self registration</text><text fill="#000000" font-family="sans-serif" font-size="14" lengthAdjust="spacing" textLength="75.0039" x="845.6817" y="398.4208">for players</text></g><!--entity Set allowable strategies--><g class="entity" data-entity="Set allowable strategies" data-source-line="29" data-uid="ent0038" id="entity_Set allowable strategies"><ellipse cx="883.1806" cy="463.5441" fill="#F1F1F1" rx="96.4206" ry="21.6841" style="stroke:#181818;stroke-width:0.5;"/><text fill="#000000" font-family="sans-serif" font-size="14" lengthAdjust="spacing" textLength="168.1367" x="799.1123" y="468.1926">Set allowable strategies</text></g><!--entity Generate anonymous players--><g class="entity" data-entity="Generate anonymous players" data-source-line="30" data-uid="ent0040" id="entity_Generate anonymous players"><ellipse cx="883.1834" cy="545.5387" fill="#F1F1F1" rx="114.2934" ry="25.2587" style="stroke:#181818;stroke-width:0.5;"/><text fill="#000000" font-family="sans-serif" font-size="14" lengthAdjust="spacing" textLength="207.1357" x="779.6156" y="550.1871">Generate anonymous players</text></g><!--entity Brief game--><g class="entity" data-entity="Brief game" data-source-line="32" data-uid="ent0042" id="entity_Brief game"><ellipse cx="611.8082" cy="581.5436" fill="#F1F1F1" rx="57.4182" ry="14.5236" style="stroke:#181818;stroke-width:0.5;"/><text fill="#000000" font-family="sans-serif" font-size="14" lengthAdjust="spacing" textLength="76.959" x="573.3287" y="586.1921">Brief game</text></g><!--entity Start/stop game session--><g class="entity" data-entity="Start.stop game session" data-source-line="34" data-uid="ent0044" id="entity_Start.stop game session"><ellipse cx="611.8063" cy="697.5353" fill="#F1F1F1" rx="97.0763" ry="21.8153" style="stroke:#181818;stroke-width:0.5;"/><text fill="#000000" font-family="sans-serif" font-size="14" lengthAdjust="spacing" textLength="169.5928" x="527.0099" y="702.1837">Start/stop game session</text></g><!--entity Start game session--><g class="entity" data-entity="Start game session" data-source-line="35" data-uid="ent0046" id="entity_Start game session"><ellipse cx="883.1789" cy="624.5378" fill="#F1F1F1" rx="81.6889" ry="18.7378" style="stroke:#181818;stroke-width:0.5;"/><text fill="#000000" font-family="sans-serif" font-size="14" lengthAdjust="spacing" textLength="134.6406" x="815.8586" y="629.1862">Start game session</text></g><!--entity Change game speed--><g class="entity" data-entity="Change game speed" data-source-line="36" data-uid="ent0048" id="entity_Change game speed"><ellipse cx="883.1808" cy="697.5402" fill="#F1F1F1" rx="85.9508" ry="19.5902" style="stroke:#181818;stroke-width:0.5;"/><text fill="#000000" font-family="sans-serif" font-size="14" lengthAdjust="spacing" textLength="144.5117" x="810.9249" y="702.1886">Change game speed</text></g><!--entity Pause game session--><g class="entity" data-entity="Pause game session" data-source-line="37" data-uid="ent0050" id="entity_Pause game session"><ellipse cx="883.1842" cy="771.5428" fill="#F1F1F1" rx="84.9642" ry="19.3928" style="stroke:#181818;stroke-width:0.5;"/><text fill="#000000" font-family="sans-serif" font-size="14" lengthAdjust="spacing" textLength="142.2422" x="812.0631" y="776.1913">Pause game session</text></g><!--entity Stop game session--><g class="entity" data-entity="Stop game session" data-source-line="38" data-uid="ent0052" id="entity_Stop game session"><ellipse cx="883.1767" cy="844.5353" fill="#F1F1F1" rx="80.6767" ry="18.5353" style="stroke:#181818;stroke-width:0.5;"/><text fill="#000000" font-family="sans-serif" font-size="14" lengthAdjust="spacing" textLength="132.2686" x="817.0424" y="849.1838">Stop game session</text></g><!--entity Facilitate session--><g class="entity" data-entity="Facilitate session" data-source-line="40" data-uid="ent0054" id="entity_Facilitate session"><ellipse cx="611.8084" cy="1045.5417" fill="#F1F1F1" rx="75.7084" ry="17.5417" style="stroke:#181818;stroke-width:0.5;"/><text fill="#000000" font-family="sans-serif" font-size="14" lengthAdjust="spacing" textLength="120.4424" x="551.5873" y="1050.1901">Facilitate session</text></g><!--entity Add news item--><g class="entity" data-entity="Add news item" data-source-line="41" data-uid="ent0056" id="entity_Add news item"><ellipse cx="883.1838" cy="914.5408" fill="#F1F1F1" rx="69.1038" ry="16.2208" style="stroke:#181818;stroke-width:0.5;"/><text fill="#000000" font-family="sans-serif" font-size="14" lengthAdjust="spacing" textLength="104.1113" x="831.1282" y="919.1892">Add news item</text></g><!--entity Add event--><g class="entity" data-entity="Add event" data-source-line="42" data-uid="ent0058" id="entity_Add event"><ellipse cx="883.1817" cy="980.5436" fill="#F1F1F1" rx="53.6817" ry="14.5236" style="stroke:#181818;stroke-width:0.5;"/><text fill="#000000" font-family="sans-serif" font-size="14" lengthAdjust="spacing" textLength="71.6748" x="847.3443" y="985.1921">Add event</text></g><!--entity Trigger event--><g class="entity" data-entity="Trigger event" data-source-line="43" data-uid="ent0060" id="entity_Trigger event"><ellipse cx="883.182" cy="1045.5404" fill="#F1F1F1" rx="65.452" ry="15.4904" style="stroke:#181818;stroke-width:0.5;"/><text fill="#000000" font-family="sans-serif" font-size="14" lengthAdjust="spacing" textLength="94.6641" x="835.8499" y="1050.1888">Trigger event</text></g><!--entity Chat with players--><g class="entity" data-entity="Chat with players" data-source-line="44" data-uid="ent0062" id="entity_Chat with players"><ellipse cx="883.1841" cy="1113.5428" fill="#F1F1F1" rx="76.6141" ry="17.7228" style="stroke:#181818;stroke-width:0.5;"/><text fill="#000000" font-family="sans-serif" font-size="14" lengthAdjust="spacing" textLength="122.623" x="821.8725" y="1118.1912">Chat with players</text></g><!--entity Show actor map--><g class="entity" data-entity="Show actor map" data-source-line="45" data-uid="ent0064" id="entity_Show actor map"><ellipse cx="883.1793" cy="1183.5419" fill="#F1F1F1" rx="73.0093" ry="17.0019" style="stroke:#181818;stroke-width:0.5;"/><text fill="#000000" font-family="sans-serif" font-size="14" lengthAdjust="spacing" textLength="113.8662" x="826.2462" y="1188.1903">Show actor map</text></g><!--entity Show scores--><g class="entity" data-entity="Show scores" data-source-line="46" data-uid="ent0066" id="entity_Show scores"><ellipse cx="883.1828" cy="1250.5426" fill="#F1F1F1" rx="62.7628" ry="14.9526" style="stroke:#181818;stroke-width:0.5;"/><text fill="#000000" font-family="sans-serif" font-size="14" lengthAdjust="spacing" textLength="87.4453" x="839.4602" y="1255.191">Show scores</text></g><!--entity Send data to\ngame data platform--><g class="entity" data-entity="Send data to.ngame data platform" data-source-line="48" data-uid="ent0068" id="entity_Send data to.ngame data platform"><ellipse cx="1152.3966" cy="914.5394" fill="#F1F1F1" rx="94.9266" ry="24.4194" style="stroke:#181818;stroke-width:0.5;"/><text fill="#000000" font-family="sans-serif" font-size="14" lengthAdjust="spacing" textLength="89.749" x="1107.5221" y="908.6424">Send data to</text><text fill="#000000" font-family="sans-serif" font-size="14" lengthAdjust="spacing" textLength="139.8838" x="1082.4547" y="924.9392">game data platform</text></g><!--entity Debrief game--><g class="entity" data-entity="Debrief game" data-source-line="54" data-uid="ent0074" id="entity_Debrief game"><ellipse cx="611.8106" cy="1250.5441" fill="#F1F1F1" rx="65.8206" ry="15.5641" style="stroke:#181818;stroke-width:0.5;"/><text fill="#000000" font-family="sans-serif" font-size="14" lengthAdjust="spacing" textLength="95.6348" x="563.9932" y="1255.1926">Debrief game</text></g><!--entity Show gameplay--><g class="entity" data-entity="Show gameplay" data-source-line="56" data-uid="ent0077" id="entity_Show gameplay"><ellipse cx="883.1841" cy="1317.5368" fill="#F1F1F1" rx="72.0841" ry="16.8168" style="stroke:#181818;stroke-width:0.5;"/><text fill="#000000" font-family="sans-serif" font-size="14" lengthAdjust="spacing" textLength="111.583" x="827.3926" y="1322.1853">Show gameplay</text></g><!--reverse link User to Administrator--><g class="link" data-entity-1="User" data-entity-2="Administrator" data-source-line="4" data-uid="lnk5" id="link_User_Administrator"><path d="M51.9752,448.3214 C71.0152,431.7714 90.63,414.72 117.86,391.06" fill="none" id="User-backto-Administrator" style="stroke:#181818;stroke-width:1;"/><polygon fill="none" points="38.39,460.13,55.9114,452.8498,48.039,443.793,38.39,460.13" style="stroke:#181818;stroke-width:1;"/></g><!--reverse link Administrator to SF--><g class="link" data-entity-1="Administrator" data-entity-2="SF" data-source-line="5" data-uid="lnk6" id="link_Administrator_SF"><path d="M223.6106,403.2283 C229.8506,408.9183 222.76,402.71 228.43,408.54 C267.97,449.25 308.65,499.8 336.3,535.72" fill="none" id="Administrator-backto-SF" style="stroke:#181818;stroke-width:1;"/><polygon fill="none" points="210.31,391.1,219.5678,407.6618,227.6533,398.7947,210.31,391.1" style="stroke:#181818;stroke-width:1;"/></g><!--link User to Login--><g class="link" data-entity-1="User" data-entity-2="Login" data-source-line="7" data-uid="lnk8" id="link_User_Login"><path d="M38.39,469.89 C61.89,464.31 101.1217,455.0135 129.9017,448.1935" fill="none" id="User-to-Login" style="stroke:#181818;stroke-width:1;"/><polygon fill="#181818" points="135.74,446.81,126.0602,444.993,130.8747,447.9629,127.9049,452.7775,135.74,446.81" style="stroke:#181818;stroke-width:1;"/></g><!--link User to Set password--><g class="link" data-entity-1="User" data-entity-2="Set password" data-source-line="8" data-uid="lnk10" id="link_User_Set password"><path d="M38.39,477.09 C56.79,481.32 82.5724,487.2464 109.2524,493.3764" fill="none" id="User-to-Set password" style="stroke:#181818;stroke-width:1;"/><polygon fill="#181818" points="115.1,494.72,107.2242,488.8062,110.227,493.6004,105.4328,496.6031,115.1,494.72" style="stroke:#181818;stroke-width:1;"/></g><!--link User to Logout--><g class="link" data-entity-1="User" data-entity-2="Logout" data-source-line="9" data-uid="lnk12" id="link_User_Logout"><path d="M38.38,488.99 C52.91,503.03 75.7,523.73 97.91,538.54 C110.14,546.7 119.3055,551.6186 131.5055,557.2686" fill="none" id="User-to-Logout" style="stroke:#181818;stroke-width:1;"/><polygon fill="#181818" points="136.95,559.79,130.4642,552.3782,132.4129,557.6888,127.1023,559.6375,136.95,559.79" style="stroke:#181818;stroke-width:1;"/></g><!--link Administrator to User administration--><g class="link" data-entity-1="Administrator" data-entity-2="User administration" data-source-line="11" data-uid="lnk14" id="link_Administrator_User administration"><path d="M180.91,313.96 C201.03,271.47 238.43,203.5 288.43,160.54 C298.51,151.88 305.4912,147.3582 317.6112,141.8882" fill="none" id="Administrator-to-User administration" style="stroke:#181818;stroke-width:1;"/><polygon fill="#181818" points="323.08,139.42,313.2313,139.4764,318.5226,141.4768,316.5222,146.7682,323.08,139.42" style="stroke:#181818;stroke-width:1;"/></g><!--link User administration to Create player--><g class="link" data-entity-1="User administration" data-entity-2="Create player" data-source-line="16" data-uid="lnk19" id="link_User administration_Create player"><path d="M406.23,105.78 C434.71,91.09 476.82,70.19 514.73,54.54 C532.99,47.01 547.9634,41.6337 565.4434,35.8537" fill="none" id="User administration-to-Create player" style="stroke:#181818;stroke-width:1;"/><polygon fill="#181818" points="571.14,33.97,561.3392,32.9977,566.3928,35.5397,563.8508,40.5933,571.14,33.97" style="stroke:#181818;stroke-width:1;"/></g><!--link User administration to Delete player--><g class="link" data-entity-1="User administration" data-entity-2="Delete player" data-source-line="17" data-uid="lnk21" id="link_User administration_Delete player"><path d="M441.8,113.08 C478.07,107.6 515.9372,101.8755 549.8572,96.7555" fill="none" id="User administration-to-Delete player" style="stroke:#181818;stroke-width:1;"/><polygon fill="#181818" points="555.79,95.86,546.2938,93.2481,550.846,96.6063,547.4878,101.1585,555.79,95.86" style="stroke:#181818;stroke-width:1;"/></g><!--link User administration to Reset player password--><g class="link" data-entity-1="User administration" data-entity-2="Reset player password" data-source-line="18" data-uid="lnk23" id="link_User administration_Reset player password"><path d="M442.45,133.81 C471,138 498.2039,141.9965 527.4939,146.3065" fill="none" id="User administration-to-Reset player password" style="stroke:#181818;stroke-width:1;"/><polygon fill="#181818" points="533.43,147.18,525.1082,141.9124,528.4833,146.4521,523.9436,149.8272,533.43,147.18" style="stroke:#181818;stroke-width:1;"/></g><!--link SF to User allocation--><g class="link" data-entity-1="SF" data-entity-2="User allocation" data-source-line="20" data-uid="lnk25" id="link_SF_User allocation"><path d="M404.21,534.93 C458.13,455.49 561.9807,302.4846 596.4707,251.6646" fill="none" id="SF-to-User allocation" style="stroke:#181818;stroke-width:1;"/><polygon fill="#181818" points="599.84,246.7,591.4762,251.9007,597.0322,250.8372,598.0957,256.3932,599.84,246.7" style="stroke:#181818;stroke-width:1;"/></g><!--link User allocation to Allocate user to session--><g class="link" data-entity-1="User allocation" data-entity-2="Allocate user to session" data-source-line="21" data-uid="lnk27" id="link_User allocation_Allocate user to session"><path d="M663.27,219.37 C678.97,214.21 695.62,206.87 708.88,196.54 C746.82,167.01 730.82,135.91 768.88,106.54 C782.22,96.25 792.8191,90.5869 808.7891,84.8869" fill="none" id="User allocation-to-Allocate user to session" style="stroke:#181818;stroke-width:1;"/><polygon fill="#181818" points="814.44,82.87,804.6191,82.1281,809.731,84.5507,807.3083,89.6626,814.44,82.87" style="stroke:#181818;stroke-width:1;"/></g><!--link User allocation to Deallocate user from session--><g class="link" data-entity-1="User allocation" data-entity-2="Deallocate user from session" data-source-line="22" data-uid="lnk29" id="link_User allocation_Deallocate user from session"><path d="M655.49,217.55 C698.51,204.45 759.7797,185.7963 809.8097,170.5763" fill="none" id="User allocation-to-Deallocate user from session" style="stroke:#181818;stroke-width:1;"/><polygon fill="#181818" points="815.55,168.83,805.7754,167.6226,810.7665,170.2852,808.1038,175.2763,815.55,168.83" style="stroke:#181818;stroke-width:1;"/></g><!--link User allocation to Show players for session--><g class="link" data-entity-1="User allocation" data-entity-2="Show players for session" data-source-line="23" data-uid="lnk31" id="link_User allocation_Show players for session"><path d="M681.48,230.54 C712.58,230.54 743.91,230.54 777.9,230.54" fill="none" id="User allocation-to-Show players for session" style="stroke:#181818;stroke-width:1;"/><polygon fill="#181818" points="783.9,230.54,774.9,226.54,778.9,230.54,774.9,234.54,783.9,230.54" style="stroke:#181818;stroke-width:1;"/></g><!--link SF to Manage--><g class="link" data-entity-1="SF" data-entity-2="Manage" data-source-line="26" data-uid="lnk33" id="link_SF_Manage"><path d="M406.97,564.51 C450.65,542.87 520.4739,508.294 566.3039,485.584" fill="none" id="SF-to-Manage" style="stroke:#181818;stroke-width:1;"/><polygon fill="#181818" points="571.68,482.92,561.8398,483.3319,567.1999,485.14,565.3918,490.5001,571.68,482.92" style="stroke:#181818;stroke-width:1;"/></g><!--link Manage to Set session dates--><g class="link" data-entity-1="Manage" data-entity-2="Set session dates" data-source-line="27" data-uid="lnk35" id="link_Manage_Set session dates"><path d="M636.31,440.73 C665.32,413.68 717.18,368.83 768.88,341.54 C787.41,331.77 803.3048,325.7765 822.6748,320.0665" fill="none" id="Manage-to-Set session dates" style="stroke:#181818;stroke-width:1;"/><polygon fill="#181818" points="828.43,318.37,818.6662,317.078,823.634,319.7838,820.9283,324.7516,828.43,318.37" style="stroke:#181818;stroke-width:1;"/></g><!--link Manage to Allow self registration\nfor players--><g class="link" data-entity-1="Manage" data-entity-2="Allow self registration.nfor players" data-source-line="28" data-uid="lnk37" id="link_Manage_Allow self registration.nfor players"><path d="M663.47,448.31 C707.67,435.02 766.2139,417.4069 813.6639,403.1469" fill="none" id="Manage-to-Allow self registration\nfor players" style="stroke:#181818;stroke-width:1;"/><polygon fill="#181818" points="819.41,401.42,809.6396,400.1795,814.6216,402.8591,811.9421,407.841,819.41,401.42" style="stroke:#181818;stroke-width:1;"/></g><!--link Manage to Set allowable strategies--><g class="link" data-entity-1="Manage" data-entity-2="Set allowable strategies" data-source-line="29" data-uid="lnk39" id="link_Manage_Set allowable strategies"><path d="M677.67,463.54 C710.21,463.54 744.26,463.54 780.27,463.54" fill="none" id="Manage-to-Set allowable strategies" style="stroke:#181818;stroke-width:1;"/><polygon fill="#181818" points="786.27,463.54,777.27,459.54,781.27,463.54,777.27,467.54,786.27,463.54" style="stroke:#181818;stroke-width:1;"/></g><!--link Manage to Generate anonymous players--><g class="link" data-entity-1="Manage" data-entity-2="Generate anonymous players" data-source-line="30" data-uid="lnk41" id="link_Manage_Generate anonymous players"><path d="M663.16,478.87 C705.87,491.87 761.7799,508.8931 808.7999,523.2031" fill="none" id="Manage-to-Generate anonymous players" style="stroke:#181818;stroke-width:1;"/><polygon fill="#181818" points="814.54,524.95,807.0945,518.5029,809.7566,523.4942,804.7653,526.1563,814.54,524.95" style="stroke:#181818;stroke-width:1;"/></g><!--link SF to Brief game--><g class="link" data-entity-1="SF" data-entity-2="Brief game" data-source-line="32" data-uid="lnk43" id="link_SF_Brief game"><path d="M406.97,581.54 C445.49,581.54 502.54,581.54 548.33,581.54" fill="none" id="SF-to-Brief game" style="stroke:#181818;stroke-width:1;"/><polygon fill="#181818" points="554.33,581.54,545.33,577.54,549.33,581.54,545.33,585.54,554.33,581.54" style="stroke:#181818;stroke-width:1;"/></g><!--link SF to Start/stop game session--><g class="link" data-entity-1="SF" data-entity-2="Start.stop game session" data-source-line="34" data-uid="lnk45" id="link_SF_Start.stop game session"><path d="M406.97,598.29 C450,619.24 518.2454,652.4736 564.2354,674.8636" fill="none" id="SF-to-Start/stop game session" style="stroke:#181818;stroke-width:1;"/><polygon fill="#181818" points="569.63,677.49,563.2889,669.954,565.1345,675.3014,559.7871,677.1469,569.63,677.49" style="stroke:#181818;stroke-width:1;"/></g><!--link Start/stop game session to Start game session--><g class="link" data-entity-1="Start.stop game session" data-entity-2="Start game session" data-source-line="35" data-uid="lnk47" id="link_Start.stop game session_Start game session"><path d="M675.28,680.61 C721.91,667.98 779.139,652.4699 823.329,640.4899" fill="none" id="Start/stop game session-to-Start game session" style="stroke:#181818;stroke-width:1;"/><polygon fill="#181818" points="829.12,638.92,819.3869,637.4143,824.2942,640.2283,821.4802,645.1356,829.12,638.92" style="stroke:#181818;stroke-width:1;"/></g><!--link Start/stop game session to Change game speed--><g class="link" data-entity-1="Start.stop game session" data-entity-2="Change game speed" data-source-line="36" data-uid="lnk49" id="link_Start.stop game session_Change game speed"><path d="M709.3,697.54 C737.98,697.54 763.18,697.54 791.08,697.54" fill="none" id="Start/stop game session-to-Change game speed" style="stroke:#181818;stroke-width:1;"/><polygon fill="#181818" points="797.08,697.54,788.08,693.54,792.08,697.54,788.08,701.54,797.08,697.54" style="stroke:#181818;stroke-width:1;"/></g><!--link Start/stop game session to Pause game session--><g class="link" data-entity-1="Start.stop game session" data-entity-2="Pause game session" data-source-line="37" data-uid="lnk51" id="link_Start.stop game session_Pause game session"><path d="M674.61,714.52 C720.74,727.19 777.4145,742.76 821.7345,754.94" fill="none" id="Start/stop game session-to-Pause game session" style="stroke:#181818;stroke-width:1;"/><polygon fill="#181818" points="827.52,756.53,819.9017,750.288,822.6988,755.205,817.7818,758.002,827.52,756.53" style="stroke:#181818;stroke-width:1;"/></g><!--link Start/stop game session to Stop game session--><g class="link" data-entity-1="Start.stop game session" data-entity-2="Stop game session" data-source-line="38" data-uid="lnk53" id="link_Start.stop game session_Stop game session"><path d="M637.74,719.03 C667.31,743.59 718.9,783.6 768.88,808.54 C787.17,817.67 802.5041,823.3923 821.4941,829.1023" fill="none" id="Start/stop game session-to-Stop game session" style="stroke:#181818;stroke-width:1;"/><polygon fill="#181818" points="827.24,830.83,819.773,824.4079,822.4518,829.3903,817.4694,832.069,827.24,830.83" style="stroke:#181818;stroke-width:1;"/></g><!--link SF to Facilitate session--><g class="link" data-entity-1="SF" data-entity-2="Facilitate session" data-source-line="40" data-uid="lnk55" id="link_SF_Facilitate session"><path d="M396.51,628.16 C448.07,728.59 564.9894,956.3025 598.9394,1022.4225" fill="none" id="SF-to-Facilitate session" style="stroke:#181818;stroke-width:1;"/><polygon fill="#181818" points="601.68,1027.76,601.1274,1017.9267,599.3962,1023.3121,594.0107,1021.5808,601.68,1027.76" style="stroke:#181818;stroke-width:1;"/></g><!--link Facilitate session to Add news item--><g class="link" data-entity-1="Facilitate session" data-entity-2="Add news item" data-source-line="41" data-uid="lnk57" id="link_Facilitate session_Add news item"><path d="M635.78,1028.54 C665.29,1007.35 718.72,971.17 768.88,948.54 C789.38,939.3 807.2855,933.3336 827.6855,927.7136" fill="none" id="Facilitate session-to-Add news item" style="stroke:#181818;stroke-width:1;"/><polygon fill="#181818" points="833.47,926.12,823.7309,924.654,828.6496,927.448,825.8556,932.3667,833.47,926.12" style="stroke:#181818;stroke-width:1;"/></g><!--link Facilitate session to Add event--><g class="link" data-entity-1="Facilitate session" data-entity-2="Add event" data-source-line="42" data-uid="lnk59" id="link_Facilitate session_Add event"><path d="M665.38,1032.86 C717.14,1020.37 789.2073,1002.977 836.1773,991.647" fill="none" id="Facilitate session-to-Add event" style="stroke:#181818;stroke-width:1;"/><polygon fill="#181818" points="842.01,990.24,832.323,988.462,837.1494,991.4125,834.1989,996.2389,842.01,990.24" style="stroke:#181818;stroke-width:1;"/></g><!--link Facilitate session to Trigger event--><g class="link" data-entity-1="Facilitate session" data-entity-2="Trigger event" data-source-line="43" data-uid="lnk61" id="link_Facilitate session_Trigger event"><path d="M687.84,1045.54 C728.63,1045.54 772.56,1045.54 811.6,1045.54" fill="none" id="Facilitate session-to-Trigger event" style="stroke:#181818;stroke-width:1;"/><polygon fill="#181818" points="817.6,1045.54,808.6,1041.54,812.6,1045.54,808.6,1049.54,817.6,1045.54" style="stroke:#181818;stroke-width:1;"/></g><!--link Facilitate session to Chat with players--><g class="link" data-entity-1="Facilitate session" data-entity-2="Chat with players" data-source-line="44" data-uid="lnk63" id="link_Facilitate session_Chat with players"><path d="M664.43,1058.57 C712.09,1070.61 776.7023,1086.9222 824.4623,1098.9722" fill="none" id="Facilitate session-to-Chat with players" style="stroke:#181818;stroke-width:1;"/><polygon fill="#181818" points="830.28,1100.44,822.532,1094.3598,825.4319,1099.2168,820.5749,1102.1167,830.28,1100.44" style="stroke:#181818;stroke-width:1;"/></g><!--link Facilitate session to Show actor map--><g class="link" data-entity-1="Facilitate session" data-entity-2="Show actor map" data-source-line="45" data-uid="lnk65" id="link_Facilitate session_Show actor map"><path d="M634.37,1062.66 C663.44,1085.05 717.52,1124.27 768.88,1148.54 C788.61,1157.87 805.6614,1163.8198 825.6214,1169.5298" fill="none" id="Facilitate session-to-Show actor map" style="stroke:#181818;stroke-width:1;"/><polygon fill="#181818" points="831.39,1171.18,823.8373,1164.8589,826.5828,1169.8048,821.6369,1172.5504,831.39,1171.18" style="stroke:#181818;stroke-width:1;"/></g><!--link Facilitate session to Show scores--><g class="link" data-entity-1="Facilitate session" data-entity-2="Show scores" data-source-line="46" data-uid="lnk67" id="link_Facilitate session_Show scores"><path d="M623.76,1063.24 C646.4,1098.32 701.89,1176.91 768.88,1218.54 C787.29,1229.98 804.034,1236.0369 824.184,1240.8469" fill="none" id="Facilitate session-to-Show scores" style="stroke:#181818;stroke-width:1;"/><polygon fill="#181818" points="830.02,1242.24,822.1947,1236.2596,825.1566,1241.0791,820.3372,1244.041,830.02,1242.24" style="stroke:#181818;stroke-width:1;"/></g><!--link Start game session to Send data to\ngame data platform--><g class="link" data-entity-1="Start game session" data-entity-2="Send data to.ngame data platform" data-source-line="48" data-uid="lnk69" id="link_Start game session_Send data to.ngame data platform"><path d="M948.08,636.19 C965.35,641.55 983.2,649.31 997.47,660.54 C1077.09,723.21 1123.1538,833.6689 1141.2038,884.2589" fill="none" id="Start game session-to-Send data to\ngame data platform" style="stroke:#181818;stroke-width:1;"/><polygon fill="#181818" points="1143.22,889.91,1143.963,880.0892,1141.5398,885.2008,1136.4282,882.7775,1143.22,889.91" style="stroke:#181818;stroke-width:1;"/></g><!--link Add news item to Send data to\ngame data platform--><g class="link" data-entity-1="Add news item" data-entity-2="Send data to.ngame data platform" data-source-line="49" data-uid="lnk70" id="link_Add news item_Send data to.ngame data platform"><path d="M952.65,914.54 C984.42,914.54 1016.71,914.54 1051.16,914.54" fill="none" id="Add news item-to-Send data to\ngame data platform" style="stroke:#181818;stroke-width:1;"/><polygon fill="#181818" points="1057.16,914.54,1048.16,910.54,1052.16,914.54,1048.16,918.54,1057.16,914.54" style="stroke:#181818;stroke-width:1;"/></g><!--link Add event to Send data to\ngame data platform--><g class="link" data-entity-1="Add event" data-entity-2="Send data to.ngame data platform" data-source-line="50" data-uid="lnk71" id="link_Add event_Send data to.ngame data platform"><path d="M923.89,970.73 C965.69,960.41 1026.4551,945.3989 1076.8151,932.9589" fill="none" id="Add event-to-Send data to\ngame data platform" style="stroke:#181818;stroke-width:1;"/><polygon fill="#181818" points="1082.64,931.52,1072.9434,929.795,1077.7859,932.7191,1074.8619,937.5616,1082.64,931.52" style="stroke:#181818;stroke-width:1;"/></g><!--link Trigger event to Send data to\ngame data platform--><g class="link" data-entity-1="Trigger event" data-entity-2="Send data to.ngame data platform" data-source-line="51" data-uid="lnk72" id="link_Trigger event_Send data to.ngame data platform"><path d="M931.83,1034.88 C952.49,1029.44 976.66,1021.97 997.47,1012.54 C1042.78,992.03 1085.5567,963.3478 1115.6167,941.4978" fill="none" id="Trigger event-to-Send data to\ngame data platform" style="stroke:#181818;stroke-width:1;"/><polygon fill="#181818" points="1120.47,937.97,1110.8382,940.0261,1116.4256,940.9098,1115.5419,946.4972,1120.47,937.97" style="stroke:#181818;stroke-width:1;"/></g><!--link Stop game session to Send data to\ngame data platform--><g class="link" data-entity-1="Stop game session" data-entity-2="Send data to.ngame data platform" data-source-line="52" data-uid="lnk73" id="link_Stop game session_Send data to.ngame data platform"><path d="M937.61,858.54 C979.95,869.63 1033.5357,883.67 1078.9757,895.57" fill="none" id="Stop game session-to-Send data to\ngame data platform" style="stroke:#181818;stroke-width:1;"/><polygon fill="#181818" points="1084.78,897.09,1077.087,890.9404,1079.9431,895.8233,1075.0602,898.6794,1084.78,897.09" style="stroke:#181818;stroke-width:1;"/></g><!--link SF to Debrief game--><g class="link" data-entity-1="SF" data-entity-2="Debrief game" data-source-line="54" data-uid="lnk75" id="link_SF_Debrief game"><path d="M381.99,628.19 C400.93,717.98 447.68,920.14 514.73,1080.54 C539.71,1140.28 577.5971,1200.5009 596.8971,1229.7709" fill="none" id="SF-to-Debrief game" style="stroke:#181818;stroke-width:1;"/><polygon fill="#181818" points="600.2,1234.78,598.5851,1225.0644,597.4476,1230.6058,591.9063,1229.4683,600.2,1234.78" style="stroke:#181818;stroke-width:1;"/></g><!--link Debrief game to Show scores--><g class="link" data-entity-1="Debrief game" data-entity-2="Show scores" data-source-line="55" data-uid="lnk76" id="link_Debrief game_Show scores"><path d="M678.02,1250.54 C721.3,1250.54 771.77,1250.54 814.35,1250.54" fill="none" id="Debrief game-to-Show scores" style="stroke:#181818;stroke-width:1;"/><polygon fill="#181818" points="820.35,1250.54,811.35,1246.54,815.35,1250.54,811.35,1254.54,820.35,1250.54" style="stroke:#181818;stroke-width:1;"/></g><!--link Debrief game to Show gameplay--><g class="link" data-entity-1="Debrief game" data-entity-2="Show gameplay" data-source-line="56" data-uid="lnk78" id="link_Debrief game_Show gameplay"><path d="M658.5,1261.91 C706.84,1273.93 777.0172,1291.3925 826.7772,1303.7625" fill="none" id="Debrief game-to-Show gameplay" style="stroke:#181818;stroke-width:1;"/><polygon fill="#181818" points="832.6,1305.21,824.8308,1299.1569,827.7477,1304.0037,822.9008,1306.9206,832.6,1305.21" style="stroke:#181818;stroke-width:1;"/></g><!--SRC=[bLHDRwD03BtFhx1oAeUeVs1LgMsKNdQbLTczvUA08IF139fn5bNQ7ryFGmWqeIGdiFsUzVmr5HKCRC7fyi2GQqSPQsiKg5LAtillpcmnqvLcPEjMW1xIhVhhoS6F_-irFEUrDjgp2s4riI90q16-NZ_1mqzRQfEC72anDEXzQrsUJ87so8dwahABTIWy-qLbeenbWhrbjhK2Q2hy8AV8v102IbqbnNIlZb2uaP9yXznGHRSXtyc7mZhWg3wLRiSbL9NDUlaNdeXxZWw2OmZBe7oSoYnXGpYX5CxMYwJqODjUh8T2sZmGrEeN6YnfPqgiwUJlrk0XHf9JJT5KyNCURa-1N2JvP18EnRK2g0fmL0ujt9aWePUJN2GCwblSLw8c48JuDUyR6GeHG6FDHssF_fnjcC2BqrH0g6haJ1aTFtgs3OphbSRDHKQy-oYl1pGYE4OQedoHyHjbelVgkgXag7Kuwt6wAyv-LhbS4hKUD5Ez1AH_PFWxq1zvRqhPn4MWT8cXrNmuJt0UtAqnPk6TgB5PHFhCkh0wwjhuJlic3uXiBihfzIVGMIA6PKb38wQDkOiMgx-PCctQpRHqRZSMgSEgR6W_kfQfUQMXiu1WXpacdm00]--></g></svg>