<svg xmlns="http://www.w3.org/2000/svg" xmlns:xlink="http://www.w3.org/1999/xlink" contentStyleType="text/css" data-diagram-type="DESCRIPTION" height="801px" preserveAspectRatio="none" style="width:995px;height:801px;background:#FFFFFF;" version="1.1" viewBox="0 0 995 801" width="995px" zoomAndPan="magnify"><defs/><g><!--entity SA--><g class="entity" data-entity="SA" data-source-line="3" data-uid="ent0002" id="entity_SA"><ellipse cx="375.4254" cy="330.9" fill="#F1F1F1" rx="8" ry="8" style="stroke:#181818;stroke-width:0.5;"/><path d="M375.4254,338.9 L375.4254,365.9 M362.4254,346.9 L388.4254,346.9 M375.4254,365.9 L362.4254,380.9 M375.4254,365.9 L388.4254,380.9" fill="none" style="stroke:#181818;stroke-width:0.5;"/><text fill="#000000" font-family="sans-serif" font-size="14" lengthAdjust="spacing" textLength="152.5508" x="299.15" y="395.3951">Session administrator</text></g><!--entity User--><g class="entity" data-entity="User" data-source-line="4" data-uid="ent0003" id="entity_User"><ellipse cx="21.9551" cy="342.9" fill="#F1F1F1" rx="8" ry="8" style="stroke:#181818;stroke-width:0.5;"/><path d="M21.9551,350.9 L21.9551,377.9 M8.9551,358.9 L34.9551,358.9 M21.9551,377.9 L8.9551,392.9 M21.9551,377.9 L34.9551,392.9" fill="none" style="stroke:#181818;stroke-width:0.5;"/><text fill="#000000" font-family="sans-serif" font-size="14" lengthAdjust="spacing" textLength="31.9102" x="6" y="407.3951">User</text></g><!--entity Administrator--><g class="entity" data-entity="Administrator" data-source-line="4" data-uid="ent0004" id="entity_Administrator"><ellipse cx="164.1713" cy="221.9" fill="#F1F1F1" rx="8" ry="8" style="stroke:#181818;stroke-width:0.5;"/><path d="M164.1713,229.9 L164.1713,256.9 M151.1713,237.9 L177.1713,237.9 M164.1713,256.9 L151.1713,271.9 M164.1713,256.9 L177.1713,271.9" fill="none" style="stroke:#181818;stroke-width:0.5;"/><text fill="#000000" font-family="sans-serif" font-size="14" lengthAdjust="spacing" textLength="95.6826" x="116.33" y="286.3951">Administrator</text></g><!--entity Login--><g class="entity" data-entity="Login" data-source-line="7" data-uid="ent0007" id="entity_Login"><ellipse cx="164.1704" cy="339.5536" fill="#F1F1F1" rx="29.8804" ry="14.5236" style="stroke:#181818;stroke-width:0.5;"/><text fill="#000000" font-family="sans-serif" font-size="14" lengthAdjust="spacing" textLength="38.0146" x="145.1631" y="344.2021">Login</text></g><!--entity Set password--><g class="entity" data-entity="Set password" data-source-line="8" data-uid="ent0009" id="entity_Set password"><ellipse cx="164.1679" cy="404.5516" fill="#F1F1F1" rx="65.2579" ry="15.4516" style="stroke:#181818;stroke-width:0.5;"/><text fill="#000000" font-family="sans-serif" font-size="14" lengthAdjust="spacing" textLength="94.1514" x="117.0922" y="409.2">Set password</text></g><!--entity Logout--><g class="entity" data-entity="Logout" data-source-line="9" data-uid="ent0011" id="entity_Logout"><ellipse cx="164.1682" cy="469.5536" fill="#F1F1F1" rx="37.0682" ry="14.5236" style="stroke:#181818;stroke-width:0.5;"/><text fill="#000000" font-family="sans-serif" font-size="14" lengthAdjust="spacing" textLength="48.1797" x="140.0783" y="474.2021">Logout</text></g><!--entity User administration--><g class="entity" data-entity="User administration" data-source-line="11" data-uid="ent0013" id="entity_User administration"><ellipse cx="375.433" cy="153.5506" fill="#F1F1F1" rx="83.153" ry="19.0306" style="stroke:#181818;stroke-width:0.5;"/><text fill="#000000" font-family="sans-serif" font-size="14" lengthAdjust="spacing" textLength="138.0518" x="306.4071" y="158.199">User administration</text></g><g class="entity" data-entity="GMN15" data-source-line="13" data-uid="ent0016" id="entity_GMN15"><path d="M290.43,207.85 L290.43,263.2484 A0,0 0 0 0 290.43,263.2484 L460.4285,263.2484 A0,0 0 0 0 460.4285,263.2484 L460.4285,217.85 L450.4285,207.85 L379.43,207.85 L375.43,172.89 L371.43,207.85 L290.43,207.85 A0,0 0 0 0 290.43,207.85" fill="#FEFFDD" style="stroke:#181818;stroke-width:0.5;"/><path d="M450.4285,207.85 L450.4285,217.85 L460.4285,217.85 L450.4285,207.85" fill="#FEFFDD" style="stroke:#181818;stroke-width:0.5;"/><text fill="#000000" font-family="sans-serif" font-size="13" lengthAdjust="spacing" textLength="148.9985" x="296.43" y="224.9169">- session administrator</text><text fill="#000000" font-family="sans-serif" font-size="13" lengthAdjust="spacing" textLength="49.6895" x="296.43" y="240.0497">- player</text><text fill="#000000" font-family="sans-serif" font-size="13" lengthAdjust="spacing" textLength="70.8081" x="296.43" y="255.1825">- facilitator</text></g><!--entity Create user--><g class="entity" data-entity="Create user" data-source-line="18" data-uid="ent0018" id="entity_Create user"><ellipse cx="612.9743" cy="20.5469" fill="#F1F1F1" rx="60.7343" ry="14.5469" style="stroke:#181818;stroke-width:0.5;"/><text fill="#000000" font-family="sans-serif" font-size="14" lengthAdjust="spacing" textLength="81.8125" x="572.068" y="25.1953">Create user</text></g><!--entity Delete user--><g class="entity" data-entity="Delete user" data-source-line="19" data-uid="ent0020" id="entity_Delete user"><ellipse cx="612.9653" cy="84.5536" fill="#F1F1F1" rx="60.2653" ry="14.5236" style="stroke:#181818;stroke-width:0.5;"/><text fill="#000000" font-family="sans-serif" font-size="14" lengthAdjust="spacing" textLength="80.9854" x="572.4726" y="89.2021">Delete user</text></g><!--entity Reset user password--><g class="entity" data-entity="Reset user password" data-source-line="20" data-uid="ent0022" id="entity_Reset user password"><ellipse cx="612.9699" cy="153.55" fill="#F1F1F1" rx="86.5499" ry="19.71" style="stroke:#181818;stroke-width:0.5;"/><text fill="#000000" font-family="sans-serif" font-size="14" lengthAdjust="spacing" textLength="145.8857" x="540.027" y="158.1984">Reset user password</text></g><!--entity Set user access--><g class="entity" data-entity="Set user access" data-source-line="21" data-uid="ent0024" id="entity_Set user access"><ellipse cx="612.9661" cy="224.5472" fill="#F1F1F1" rx="71.2861" ry="16.6572" style="stroke:#181818;stroke-width:0.5;"/><text fill="#000000" font-family="sans-serif" font-size="14" lengthAdjust="spacing" textLength="109.6006" x="558.1659" y="229.1957">Set user access</text></g><!--entity Manage--><g class="entity" data-entity="Manage" data-source-line="23" data-uid="ent0026" id="entity_Manage"><ellipse cx="612.9733" cy="400.5498" fill="#F1F1F1" rx="65.4933" ry="24.2198" style="stroke:#181818;stroke-width:0.5;"/><text fill="#000000" font-family="sans-serif" font-size="14" lengthAdjust="spacing" textLength="55.6104" x="585.1681" y="394.343">Manage</text><text fill="#000000" font-family="sans-serif" font-size="14" lengthAdjust="spacing" textLength="95.9902" x="564.9781" y="410.6398">game session</text></g><!--entity Create game session--><g class="entity" data-entity="Create game session" data-source-line="25" data-uid="ent0028" id="entity_Create game session"><ellipse cx="874.8234" cy="63.5507" fill="#F1F1F1" rx="87.1534" ry="19.8307" style="stroke:#181818;stroke-width:0.5;"/><text fill="#000000" font-family="sans-serif" font-size="14" lengthAdjust="spacing" textLength="147.2666" x="801.1901" y="68.1991">Create game session</text></g><!--entity Set session dates--><g class="entity" data-entity="Set session dates" data-source-line="26" data-uid="ent0030" id="entity_Set session dates"><ellipse cx="874.8241" cy="136.5488" fill="#F1F1F1" rx="76.5941" ry="17.7188" style="stroke:#181818;stroke-width:0.5;"/><text fill="#000000" font-family="sans-serif" font-size="14" lengthAdjust="spacing" textLength="122.5752" x="813.5365" y="141.1973">Set session dates</text></g><!--entity Set allowable strategies--><g class="entity" data-entity="Set allowable strategies" data-source-line="27" data-uid="ent0032" id="entity_Set allowable strategies"><ellipse cx="874.8206" cy="210.5541" fill="#F1F1F1" rx="96.4206" ry="21.6841" style="stroke:#181818;stroke-width:0.5;"/><text fill="#000000" font-family="sans-serif" font-size="14" lengthAdjust="spacing" textLength="168.1367" x="790.7523" y="215.2026">Set allowable strategies</text></g><!--entity Delete game session--><g class="entity" data-entity="Delete game session" data-source-line="28" data-uid="ent0034" id="entity_Delete game session"><ellipse cx="874.8217" cy="286.5483" fill="#F1F1F1" rx="86.7917" ry="19.7583" style="stroke:#181818;stroke-width:0.5;"/><text fill="#000000" font-family="sans-serif" font-size="14" lengthAdjust="spacing" textLength="146.4395" x="801.602" y="291.1968">Delete game session</text></g><!--entity Allocate user to game--><g class="entity" data-entity="Allocate user to game" data-source-line="29" data-uid="ent0036" id="entity_Allocate user to game"><ellipse cx="874.8163" cy="361.5493" fill="#F1F1F1" rx="90.0963" ry="20.4193" style="stroke:#181818;stroke-width:0.5;"/><text fill="#000000" font-family="sans-serif" font-size="14" lengthAdjust="spacing" textLength="153.959" x="797.8368" y="366.1977">Allocate user to game</text></g><!--entity Allocate player to game--><g class="entity" data-entity="Allocate player to game" data-source-line="30" data-uid="ent0038" id="entity_Allocate player to game"><ellipse cx="874.824" cy="438.5508" fill="#F1F1F1" rx="96.104" ry="21.6208" style="stroke:#181818;stroke-width:0.5;"/><text fill="#000000" font-family="sans-serif" font-size="14" lengthAdjust="spacing" textLength="167.4326" x="791.1076" y="443.1992">Allocate player to game</text></g><!--entity Allow self registration\nfor players--><g class="entity" data-entity="Allow self registration.nfor players" data-source-line="31" data-uid="ent0040" id="entity_Allow self registration.nfor players"><ellipse cx="874.8237" cy="519.5507" fill="#F1F1F1" rx="100.8937" ry="23.9807" style="stroke:#181818;stroke-width:0.5;"/><text fill="#000000" font-family="sans-serif" font-size="14" lengthAdjust="spacing" textLength="152.0791" x="798.7841" y="519.1339">Allow self registration</text><text fill="#000000" font-family="sans-serif" font-size="14" lengthAdjust="spacing" textLength="75.0039" x="837.3217" y="535.4308">for players</text></g><!--entity Generate anonymous players--><g class="entity" data-entity="Generate anonymous players" data-source-line="32" data-uid="ent0042" id="entity_Generate anonymous players"><ellipse cx="874.8234" cy="603.5487" fill="#F1F1F1" rx="114.2934" ry="25.2587" style="stroke:#181818;stroke-width:0.5;"/><text fill="#000000" font-family="sans-serif" font-size="14" lengthAdjust="spacing" textLength="207.1357" x="771.2556" y="608.1971">Generate anonymous players</text></g><!--entity Show sessions with status--><g class="entity" data-entity="Show sessions with status" data-source-line="33" data-uid="ent0044" id="entity_Show sessions with status"><ellipse cx="874.8242" cy="686.5488" fill="#F1F1F1" rx="103.1442" ry="23.0288" style="stroke:#181818;stroke-width:0.5;"/><text fill="#000000" font-family="sans-serif" font-size="14" lengthAdjust="spacing" textLength="182.9639" x="783.3423" y="691.1973">Show sessions with status</text></g><!--entity Show facilitators and\nplayers for session--><g class="entity" data-entity="Show facilitators and.nplayers for session" data-source-line="34" data-uid="ent0046" id="entity_Show facilitators and.nplayers for session"><ellipse cx="874.8221" cy="769.5497" fill="#F1F1F1" rx="104.3821" ry="25.4697" style="stroke:#181818;stroke-width:0.5;"/><text fill="#000000" font-family="sans-serif" font-size="14" lengthAdjust="spacing" textLength="147.0615" x="801.2913" y="766.8773">Show facilitators and</text><text fill="#000000" font-family="sans-serif" font-size="14" lengthAdjust="spacing" textLength="131.2773" x="809.1834" y="783.1742">players for session</text></g><!--reverse link User to Administrator--><g class="link" data-entity-1="User" data-entity-2="Administrator" data-source-line="4" data-uid="lnk5" id="link_User_Administrator"><path d="M51.8554,347.6078 C71.0154,331.0678 91.09,313.75 118.66,289.96" fill="none" id="User-backto-Administrator" style="stroke:#181818;stroke-width:1;"/><polygon fill="none" points="38.23,359.37,55.7761,352.1496,47.9346,343.066,38.23,359.37" style="stroke:#181818;stroke-width:1;"/></g><!--reverse link Administrator to SA--><g class="link" data-entity-1="Administrator" data-entity-2="SA" data-source-line="5" data-uid="lnk6" id="link_Administrator_SA"><path d="M228.3545,284.4648 C254.2745,297.9648 271.03,306.69 300.27,321.93" fill="none" id="Administrator-backto-SA" style="stroke:#181818;stroke-width:1;"/><polygon fill="none" points="212.39,276.15,225.5828,289.7863,231.1261,279.1433,212.39,276.15" style="stroke:#181818;stroke-width:1;"/></g><!--link User to Login--><g class="link" data-entity-1="User" data-entity-2="Login" data-source-line="7" data-uid="lnk8" id="link_User_Login"><path d="M38.34,368.73 C47.02,366.59 58.06,363.89 67.91,361.55 C91.03,356.05 111.501,351.3275 130.611,346.9575" fill="none" id="User-to-Login" style="stroke:#181818;stroke-width:1;"/><polygon fill="#181818" points="136.46,345.62,126.7948,343.727,131.5858,346.7346,128.5782,351.5256,136.46,345.62" style="stroke:#181818;stroke-width:1;"/></g><!--link User to Set password--><g class="link" data-entity-1="User" data-entity-2="Set password" data-source-line="8" data-uid="lnk10" id="link_User_Set password"><path d="M38.23,376.04 C56.75,380.26 83.0106,386.2543 110.0306,392.4243" fill="none" id="User-to-Set password" style="stroke:#181818;stroke-width:1;"/><polygon fill="#181818" points="115.88,393.76,107.9963,387.8568,111.0055,392.6469,106.2154,395.6561,115.88,393.76" style="stroke:#181818;stroke-width:1;"/></g><!--link User to Logout--><g class="link" data-entity-1="User" data-entity-2="Logout" data-source-line="9" data-uid="lnk12" id="link_User_Logout"><path d="M38.34,387.71 C53.07,401.73 76.34,422.6 98.91,437.55 C111.28,445.74 120.585,450.7097 132.835,456.3797" fill="none" id="User-to-Logout" style="stroke:#181818;stroke-width:1;"/><polygon fill="#181818" points="138.28,458.9,131.7926,451.4896,133.7425,456.7998,128.4323,458.7496,138.28,458.9" style="stroke:#181818;stroke-width:1;"/></g><!--link Administrator to User administration--><g class="link" data-entity-1="Administrator" data-entity-2="User administration" data-source-line="11" data-uid="lnk14" id="link_Administrator_User administration"><path d="M212.25,228.09 C235.65,216.57 264.42,202.6 290.43,190.55 C304.88,183.85 315.364,179.1472 329.474,172.9672" fill="none" id="Administrator-to-User administration" style="stroke:#181818;stroke-width:1;"/><polygon fill="#181818" points="334.97,170.56,325.1213,170.5068,330.39,172.566,328.3308,177.8347,334.97,170.56" style="stroke:#181818;stroke-width:1;"/></g><!--link User administration to Create user--><g class="link" data-entity-1="User administration" data-entity-2="Create user" data-source-line="18" data-uid="lnk19" id="link_User administration_Create user"><path d="M400.02,135.09 C428.69,113.28 479.11,76.9 526.42,52.55 C541.79,44.64 553.9204,39.6621 569.2904,34.2521" fill="none" id="User administration-to-Create user" style="stroke:#181818;stroke-width:1;"/><polygon fill="#181818" points="574.95,32.26,565.1325,31.4751,570.2336,33.9201,567.7886,39.0213,574.95,32.26" style="stroke:#181818;stroke-width:1;"/></g><!--link User administration to Delete user--><g class="link" data-entity-1="User administration" data-entity-2="Delete user" data-source-line="19" data-uid="lnk21" id="link_User administration_Delete user"><path d="M428.12,138.41 C472,125.55 528.2121,109.0871 567.8021,97.4871" fill="none" id="User administration-to-Delete user" style="stroke:#181818;stroke-width:1;"/><polygon fill="#181818" points="573.56,95.8,563.7984,94.492,568.7617,97.2059,566.0478,102.1693,573.56,95.8" style="stroke:#181818;stroke-width:1;"/></g><!--link User administration to Reset user password--><g class="link" data-entity-1="User administration" data-entity-2="Reset user password" data-source-line="20" data-uid="lnk23" id="link_User administration_Reset user password"><path d="M458.81,153.55 C480.57,153.55 498.1,153.55 520.04,153.55" fill="none" id="User administration-to-Reset user password" style="stroke:#181818;stroke-width:1;"/><polygon fill="#181818" points="526.04,153.55,517.04,149.55,521.04,153.55,517.04,157.55,526.04,153.55" style="stroke:#181818;stroke-width:1;"/></g><!--link User administration to Set user access--><g class="link" data-entity-1="User administration" data-entity-2="Set user access" data-source-line="21" data-uid="lnk25" id="link_User administration_Set user access"><path d="M427.25,168.87 C469.17,181.51 522.3055,197.5179 562.2355,209.5579" fill="none" id="User administration-to-Set user access" style="stroke:#181818;stroke-width:1;"/><polygon fill="#181818" points="567.98,211.29,560.518,204.8621,563.1929,209.8466,558.2084,212.5215,567.98,211.29" style="stroke:#181818;stroke-width:1;"/></g><!--link SA to Manage--><g class="link" data-entity-1="SA" data-entity-2="Manage" data-source-line="24" data-uid="lnk27" id="link_SA_Manage"><path d="M452,393.36 C464.61,397.58 477.73,401.24 490.42,403.55 C509.43,407.01 524.3735,407.8243 543.4535,407.1743" fill="none" id="SA-to-Manage" style="stroke:#181818;stroke-width:1;"/><polygon fill="#181818" points="549.45,406.97,540.319,403.2787,544.4529,407.1402,540.5914,411.2741,549.45,406.97" style="stroke:#181818;stroke-width:1;"/><text fill="#000000" font-family="sans-serif" font-size="13" lengthAdjust="spacing" textLength="4.1323" x="491.42" y="248.6169">&#160;</text><text fill="#000000" font-family="sans-serif" font-size="13" lengthAdjust="spacing" textLength="4.1323" x="491.42" y="263.7497">&#160;</text><text fill="#000000" font-family="sans-serif" font-size="13" lengthAdjust="spacing" textLength="4.1323" x="491.42" y="278.8825">&#160;</text><text fill="#000000" font-family="sans-serif" font-size="13" lengthAdjust="spacing" textLength="4.1323" x="491.42" y="294.0153">&#160;</text><text fill="#000000" font-family="sans-serif" font-size="13" lengthAdjust="spacing" textLength="4.1323" x="491.42" y="309.1481">&#160;</text><text fill="#000000" font-family="sans-serif" font-size="13" lengthAdjust="spacing" textLength="4.1323" x="491.42" y="324.281">&#160;</text><text fill="#000000" font-family="sans-serif" font-size="13" lengthAdjust="spacing" textLength="4.1323" x="491.42" y="339.4138">&#160;</text><text fill="#000000" font-family="sans-serif" font-size="13" lengthAdjust="spacing" textLength="4.1323" x="491.42" y="354.5466">&#160;</text><text fill="#000000" font-family="sans-serif" font-size="13" lengthAdjust="spacing" textLength="4.1323" x="491.42" y="369.6794">&#160;</text><text fill="#000000" font-family="sans-serif" font-size="13" lengthAdjust="spacing" textLength="4.1323" x="491.42" y="384.8122">&#160;</text><text fill="#000000" font-family="sans-serif" font-size="13" lengthAdjust="spacing" textLength="4.1323" x="491.42" y="399.945">&#160;</text></g><!--link Manage to Create game session--><g class="link" data-entity-1="Manage" data-entity-2="Create game session" data-source-line="25" data-uid="lnk29" id="link_Manage_Create game session"><path d="M629.8,377.13 C648.03,349.54 678.21,301.95 699.52,258.55 C732.52,191.35 706.36,153.23 760.52,101.55 C772.98,89.66 783.5966,83.4425 799.9266,77.8225" fill="none" id="Manage-to-Create game session" style="stroke:#181818;stroke-width:1;"/><polygon fill="#181818" points="805.6,75.87,795.7882,75.0165,800.8722,77.4971,798.3916,82.5811,805.6,75.87" style="stroke:#181818;stroke-width:1;"/></g><!--link Manage to Set session dates--><g class="link" data-entity-1="Manage" data-entity-2="Set session dates" data-source-line="26" data-uid="lnk31" id="link_Manage_Set session dates"><path d="M628.47,376.95 C663.57,319.93 750.95,178.84 760.52,171.55 C775.6,160.08 788.7068,153.999 806.6968,148.789" fill="none" id="Manage-to-Set session dates" style="stroke:#181818;stroke-width:1;"/><polygon fill="#181818" points="812.46,147.12,802.7025,145.7815,807.6573,148.5109,804.9279,153.4657,812.46,147.12" style="stroke:#181818;stroke-width:1;"/></g><!--link Manage to Set allowable strategies--><g class="link" data-entity-1="Manage" data-entity-2="Set allowable strategies" data-source-line="27" data-uid="lnk33" id="link_Manage_Set allowable strategies"><path d="M631,377.03 C655.95,344.13 705.48,284.52 760.52,249.55 C775.45,240.07 787.2768,234.5332 804.0068,228.7732" fill="none" id="Manage-to-Set allowable strategies" style="stroke:#181818;stroke-width:1;"/><polygon fill="#181818" points="809.68,226.82,799.8681,225.9677,804.9524,228.4477,802.4724,233.532,809.68,226.82" style="stroke:#181818;stroke-width:1;"/></g><!--link Manage to Delete game session--><g class="link" data-entity-1="Manage" data-entity-2="Delete game session" data-source-line="28" data-uid="lnk35" id="link_Manage_Delete game session"><path d="M649,380.01 C678.19,363.41 721.21,340.16 760.52,323.55 C779.49,315.54 795.1111,309.985 814.1111,303.955" fill="none" id="Manage-to-Delete game session" style="stroke:#181818;stroke-width:1;"/><polygon fill="#181818" points="819.83,302.14,810.0417,301.0499,815.0643,303.6525,812.4617,308.6751,819.83,302.14" style="stroke:#181818;stroke-width:1;"/></g><!--link Manage to Allocate user to game--><g class="link" data-entity-1="Manage" data-entity-2="Allocate user to game" data-source-line="29" data-uid="lnk37" id="link_Manage_Allocate user to game"><path d="M674.24,391.5 C711.42,385.92 753.4764,379.61 793.0764,373.67" fill="none" id="Manage-to-Allocate user to game" style="stroke:#181818;stroke-width:1;"/><polygon fill="#181818" points="799.01,372.78,789.5162,370.1593,794.0653,373.5217,790.7029,378.0708,799.01,372.78" style="stroke:#181818;stroke-width:1;"/></g><!--link Manage to Allocate player to game--><g class="link" data-entity-1="Manage" data-entity-2="Allocate player to game" data-source-line="30" data-uid="lnk39" id="link_Manage_Allocate player to game"><path d="M674.57,409.41 C709.96,414.59 749.1232,420.3113 787.4632,425.9213" fill="none" id="Manage-to-Allocate player to game" style="stroke:#181818;stroke-width:1;"/><polygon fill="#181818" points="793.4,426.79,785.0739,421.5291,788.4527,426.0661,783.9157,429.4448,793.4,426.79" style="stroke:#181818;stroke-width:1;"/></g><!--link Manage to Allow self registration\nfor players--><g class="link" data-entity-1="Manage" data-entity-2="Allow self registration.nfor players" data-source-line="31" data-uid="lnk41" id="link_Manage_Allow self registration.nfor players"><path d="M649.77,421.02 C679.05,437.36 721.81,460.29 760.52,477.55 C778.25,485.45 792.3166,491.0649 810.2666,497.6449" fill="none" id="Manage-to-Allow self registration\nfor players" style="stroke:#181818;stroke-width:1;"/><polygon fill="#181818" points="815.9,499.71,808.8266,492.8568,811.2055,497.9891,806.0731,500.368,815.9,499.71" style="stroke:#181818;stroke-width:1;"/></g><!--link Manage to Generate anonymous players--><g class="link" data-entity-1="Manage" data-entity-2="Generate anonymous players" data-source-line="32" data-uid="lnk43" id="link_Manage_Generate anonymous players"><path d="M630.01,424.13 C654.48,458.5 704.25,522.38 760.52,560.55 C773.93,569.64 783.9441,574.9443 799.1941,581.0043" fill="none" id="Manage-to-Generate anonymous players" style="stroke:#181818;stroke-width:1;"/><polygon fill="#181818" points="804.77,583.22,797.8833,576.1791,800.1234,581.3736,794.929,583.6137,804.77,583.22" style="stroke:#181818;stroke-width:1;"/></g><!--link Manage to Show sessions with status--><g class="link" data-entity-1="Manage" data-entity-2="Show sessions with status" data-source-line="33" data-uid="lnk45" id="link_Manage_Show sessions with status"><path d="M622.06,424.95 C639.53,473.97 685.35,584.95 760.52,646.55 C772.71,656.53 781.9595,661.9471 796.8395,667.6671" fill="none" id="Manage-to-Show sessions with status" style="stroke:#181818;stroke-width:1;"/><polygon fill="#181818" points="802.44,669.82,795.4746,662.8571,797.7729,668.0259,792.6041,670.3243,802.44,669.82" style="stroke:#181818;stroke-width:1;"/></g><!--link Manage to Show facilitators and\nplayers for session--><g class="link" data-entity-1="Manage" data-entity-2="Show facilitators and.nplayers for session" data-source-line="34" data-uid="lnk47" id="link_Manage_Show facilitators and.nplayers for session"><path d="M618.19,424.81 C629.82,484.67 667.86,640.83 760.52,727.55 C771.55,737.87 779.8081,743.3867 793.9281,749.3167" fill="none" id="Manage-to-Show facilitators and\nplayers for session" style="stroke:#181818;stroke-width:1;"/><polygon fill="#181818" points="799.46,751.64,792.7109,744.4671,794.85,749.7039,789.6132,751.8431,799.46,751.64" style="stroke:#181818;stroke-width:1;"/></g><!--SRC=[ZPAnQiCm48PtFSNXAHhy0gKKJ0jTsYMccvUBVNO4iXGa6HFem_SanU0aJYXU9D-d__xx9KrzW631gU4Oe5EEsg2i4I2Achpd9M0tAgDyS1YiAm0zr9NuyUJWzRSieLgNnTKk0qndl2pVOFTb1sNawaTD0Kxe_MnT9wz1EmKfRYHJBL4hNsnJ2cC3mS66O4S1K8BVyfyg9urdoiiUMwLLI2Ko7KGH8JORvDRlZf3xJ0p8Pzm7QVeFjoVF0KHibS8JlbveR5iUaFCflj7WG8qPSAHbwdHFkroHegxIuRo55oWQS_yLub9VpxdMb5T0DB94t37gxykejPtne5aX3a63kgKkAJtkKh54kmGU7sf47o3vMXz3CxVGFJZsiOJQc9xVL3vuO-sJ34NJWCQQysWdlytLnoISl7kOLJZoj1YcBMprsZphTesvI4AqiGJm1m00]--></g></svg>