<svg xmlns="http://www.w3.org/2000/svg" xmlns:xlink="http://www.w3.org/1999/xlink" contentStyleType="text/css" data-diagram-type="DESCRIPTION" height="1096px" preserveAspectRatio="none" style="width:1249px;height:1096px;background:#FFFFFF;" version="1.1" viewBox="0 0 1249 1096" width="1249px" zoomAndPan="magnify"><defs/><g><!--entity SF--><g class="entity" data-entity="SF" data-source-line="3" data-uid="ent0002" id="entity_SF"><ellipse cx="371.5785" cy="404.76" fill="#F1F1F1" rx="8" ry="8" style="stroke:#181818;stroke-width:0.5;"/><path d="M371.5785,412.76 L371.5785,439.76 M358.5785,420.76 L384.5785,420.76 M371.5785,439.76 L358.5785,454.76 M371.5785,439.76 L384.5785,454.76" fill="none" style="stroke:#181818;stroke-width:0.5;"/><text fill="#000000" font-family="sans-serif" font-size="14" lengthAdjust="spacing" textLength="53.416" x="336.64" y="469.2551">Session</text><text fill="#000000" font-family="sans-serif" font-size="14" lengthAdjust="spacing" textLength="69.877" x="336.64" y="485.552">Facilitator</text></g><!--entity User--><g class="entity" data-entity="User" data-source-line="4" data-uid="ent0003" id="entity_User"><ellipse cx="21.9551" cy="407.9" fill="#F1F1F1" rx="8" ry="8" style="stroke:#181818;stroke-width:0.5;"/><path d="M21.9551,415.9 L21.9551,442.9 M8.9551,423.9 L34.9551,423.9 M21.9551,442.9 L8.9551,457.9 M21.9551,442.9 L34.9551,457.9" fill="none" style="stroke:#181818;stroke-width:0.5;"/><text fill="#000000" font-family="sans-serif" font-size="14" lengthAdjust="spacing" textLength="31.9102" x="6" y="472.3951">User</text></g><!--entity Administrator--><g class="entity" data-entity="Administrator" data-source-line="4" data-uid="ent0004" id="entity_Administrator"><ellipse cx="163.1713" cy="286.9" fill="#F1F1F1" rx="8" ry="8" style="stroke:#181818;stroke-width:0.5;"/><path d="M163.1713,294.9 L163.1713,321.9 M150.1713,302.9 L176.1713,302.9 M163.1713,321.9 L150.1713,336.9 M163.1713,321.9 L176.1713,336.9" fill="none" style="stroke:#181818;stroke-width:0.5;"/><text fill="#000000" font-family="sans-serif" font-size="14" lengthAdjust="spacing" textLength="95.6826" x="115.33" y="351.3951">Administrator</text></g><!--entity Login--><g class="entity" data-entity="Login" data-source-line="7" data-uid="ent0007" id="entity_Login"><ellipse cx="163.1704" cy="404.5536" fill="#F1F1F1" rx="29.8804" ry="14.5236" style="stroke:#181818;stroke-width:0.5;"/><text fill="#000000" font-family="sans-serif" font-size="14" lengthAdjust="spacing" textLength="38.0146" x="144.1631" y="409.2021">Login</text></g><!--entity Set password--><g class="entity" data-entity="Set password" data-source-line="8" data-uid="ent0009" id="entity_Set password"><ellipse cx="163.1679" cy="469.5516" fill="#F1F1F1" rx="65.2579" ry="15.4516" style="stroke:#181818;stroke-width:0.5;"/><text fill="#000000" font-family="sans-serif" font-size="14" lengthAdjust="spacing" textLength="94.1514" x="116.0922" y="474.2">Set password</text></g><!--entity Logout--><g class="entity" data-entity="Logout" data-source-line="9" data-uid="ent0011" id="entity_Logout"><ellipse cx="163.1682" cy="534.5536" fill="#F1F1F1" rx="37.0682" ry="14.5236" style="stroke:#181818;stroke-width:0.5;"/><text fill="#000000" font-family="sans-serif" font-size="14" lengthAdjust="spacing" textLength="48.1797" x="139.0783" y="539.2021">Logout</text></g><!--entity User administration--><g class="entity" data-entity="User administration" data-source-line="11" data-uid="ent0013" id="entity_User administration"><ellipse cx="371.583" cy="153.5506" fill="#F1F1F1" rx="83.153" ry="19.0306" style="stroke:#181818;stroke-width:0.5;"/><text fill="#000000" font-family="sans-serif" font-size="14" lengthAdjust="spacing" textLength="138.0518" x="302.5571" y="158.199">User administration</text></g><g class="entity" data-entity="GMN15" data-source-line="13" data-uid="ent0016" id="entity_GMN15"><path d="M340.65,207.99 L340.65,233.1228 A0,0 0 0 0 340.65,233.1228 L402.5162,233.1228 A0,0 0 0 0 402.5162,233.1228 L402.5162,217.99 L392.5162,207.99 L375.58,207.99 L371.58,173.02 L367.58,207.99 L340.65,207.99 A0,0 0 0 0 340.65,207.99" fill="#FEFFDD" style="stroke:#181818;stroke-width:0.5;"/><path d="M392.5162,207.99 L392.5162,217.99 L402.5162,217.99 L392.5162,207.99" fill="#FEFFDD" style="stroke:#181818;stroke-width:0.5;"/><text fill="#000000" font-family="sans-serif" font-size="13" lengthAdjust="spacing" textLength="40.8662" x="346.65" y="225.0569">player</text></g><!--entity Create user--><g class="entity" data-entity="Create user" data-source-line="16" data-uid="ent0018" id="entity_Create user"><ellipse cx="611.8143" cy="20.5469" fill="#F1F1F1" rx="60.7343" ry="14.5469" style="stroke:#181818;stroke-width:0.5;"/><text fill="#000000" font-family="sans-serif" font-size="14" lengthAdjust="spacing" textLength="81.8125" x="570.908" y="25.1953">Create user</text></g><!--entity Delete user--><g class="entity" data-entity="Delete user" data-source-line="17" data-uid="ent0020" id="entity_Delete user"><ellipse cx="611.8053" cy="84.5536" fill="#F1F1F1" rx="60.2653" ry="14.5236" style="stroke:#181818;stroke-width:0.5;"/><text fill="#000000" font-family="sans-serif" font-size="14" lengthAdjust="spacing" textLength="80.9854" x="571.3126" y="89.2021">Delete user</text></g><!--entity Reset user password--><g class="entity" data-entity="Reset user password" data-source-line="18" data-uid="ent0022" id="entity_Reset user password"><ellipse cx="611.8099" cy="153.55" fill="#F1F1F1" rx="86.5499" ry="19.71" style="stroke:#181818;stroke-width:0.5;"/><text fill="#000000" font-family="sans-serif" font-size="14" lengthAdjust="spacing" textLength="145.8857" x="538.867" y="158.1984">Reset user password</text></g><!--entity Set user access--><g class="entity" data-entity="Set user access" data-source-line="19" data-uid="ent0024" id="entity_Set user access"><ellipse cx="611.8061" cy="224.5472" fill="#F1F1F1" rx="71.2861" ry="16.6572" style="stroke:#181818;stroke-width:0.5;"/><text fill="#000000" font-family="sans-serif" font-size="14" lengthAdjust="spacing" textLength="109.6006" x="557.0059" y="229.1957">Set user access</text></g><!--entity User allocation--><g class="entity" data-entity="User allocation" data-source-line="21" data-uid="ent0026" id="entity_User allocation"><ellipse cx="611.8089" cy="292.5518" fill="#F1F1F1" rx="69.2089" ry="16.2418" style="stroke:#181818;stroke-width:0.5;"/><text fill="#000000" font-family="sans-serif" font-size="14" lengthAdjust="spacing" textLength="104.3779" x="559.6199" y="297.2002">User allocation</text></g><!--entity Allocate user to session--><g class="entity" data-entity="Allocate user to session" data-source-line="22" data-uid="ent0028" id="entity_Allocate user to session"><ellipse cx="881.3898" cy="129.548" fill="#F1F1F1" rx="95.4898" ry="21.498" style="stroke:#181818;stroke-width:0.5;"/><text fill="#000000" font-family="sans-serif" font-size="14" lengthAdjust="spacing" textLength="166.0654" x="798.3571" y="134.1964">Allocate user to session</text></g><!--entity Deallocate user from session--><g class="entity" data-entity="Deallocate user from session" data-source-line="23" data-uid="ent0030" id="entity_Deallocate user from session"><ellipse cx="881.3881" cy="210.5516" fill="#F1F1F1" rx="112.5081" ry="24.9016" style="stroke:#181818;stroke-width:0.5;"/><text fill="#000000" font-family="sans-serif" font-size="14" lengthAdjust="spacing" textLength="203.2939" x="779.7412" y="215.2001">Deallocate user from session</text></g><!--entity Show players for session--><g class="entity" data-entity="Show players for session" data-source-line="24" data-uid="ent0032" id="entity_Show players for session"><ellipse cx="881.3923" cy="292.5485" fill="#F1F1F1" rx="98.8423" ry="22.1685" style="stroke:#181818;stroke-width:0.5;"/><text fill="#000000" font-family="sans-serif" font-size="14" lengthAdjust="spacing" textLength="173.5029" x="794.6408" y="297.1969">Show players for session</text></g><!--entity Brief game--><g class="entity" data-entity="Brief game" data-source-line="26" data-uid="ent0034" id="entity_Brief game"><ellipse cx="611.8082" cy="407.5536" fill="#F1F1F1" rx="57.4182" ry="14.5236" style="stroke:#181818;stroke-width:0.5;"/><text fill="#000000" font-family="sans-serif" font-size="14" lengthAdjust="spacing" textLength="76.959" x="573.3287" y="412.2021">Brief game</text></g><!--entity Start/stop game session--><g class="entity" data-entity="Start.stop game session" data-source-line="28" data-uid="ent0036" id="entity_Start.stop game session"><ellipse cx="611.8063" cy="478.5453" fill="#F1F1F1" rx="97.0763" ry="21.8153" style="stroke:#181818;stroke-width:0.5;"/><text fill="#000000" font-family="sans-serif" font-size="14" lengthAdjust="spacing" textLength="169.5928" x="527.0099" y="483.1937">Start/stop game session</text></g><!--entity Start game session--><g class="entity" data-entity="Start game session" data-source-line="29" data-uid="ent0038" id="entity_Start game session"><ellipse cx="881.3889" cy="368.5478" fill="#F1F1F1" rx="81.6889" ry="18.7378" style="stroke:#181818;stroke-width:0.5;"/><text fill="#000000" font-family="sans-serif" font-size="14" lengthAdjust="spacing" textLength="134.6406" x="814.0686" y="373.1962">Start game session</text></g><!--entity Change game speed--><g class="entity" data-entity="Change game speed" data-source-line="30" data-uid="ent0040" id="entity_Change game speed"><ellipse cx="881.3908" cy="441.5502" fill="#F1F1F1" rx="85.9508" ry="19.5902" style="stroke:#181818;stroke-width:0.5;"/><text fill="#000000" font-family="sans-serif" font-size="14" lengthAdjust="spacing" textLength="144.5117" x="809.1349" y="446.1986">Change game speed</text></g><!--entity Pause game session--><g class="entity" data-entity="Pause game session" data-source-line="31" data-uid="ent0042" id="entity_Pause game session"><ellipse cx="881.3942" cy="515.5528" fill="#F1F1F1" rx="84.9642" ry="19.3928" style="stroke:#181818;stroke-width:0.5;"/><text fill="#000000" font-family="sans-serif" font-size="14" lengthAdjust="spacing" textLength="142.2422" x="810.2731" y="520.2013">Pause game session</text></g><!--entity Stop game session--><g class="entity" data-entity="Stop game session" data-source-line="32" data-uid="ent0044" id="entity_Stop game session"><ellipse cx="881.3867" cy="588.5453" fill="#F1F1F1" rx="80.6767" ry="18.5353" style="stroke:#181818;stroke-width:0.5;"/><text fill="#000000" font-family="sans-serif" font-size="14" lengthAdjust="spacing" textLength="132.2686" x="815.2524" y="593.1938">Stop game session</text></g><!--entity Facilitate session--><g class="entity" data-entity="Facilitate session" data-source-line="34" data-uid="ent0046" id="entity_Facilitate session"><ellipse cx="611.8084" cy="797.5517" fill="#F1F1F1" rx="75.7084" ry="17.5417" style="stroke:#181818;stroke-width:0.5;"/><text fill="#000000" font-family="sans-serif" font-size="14" lengthAdjust="spacing" textLength="120.4424" x="551.5873" y="802.2001">Facilitate session</text></g><!--entity Add news item--><g class="entity" data-entity="Add news item" data-source-line="35" data-uid="ent0048" id="entity_Add news item"><ellipse cx="881.3938" cy="658.5508" fill="#F1F1F1" rx="69.1038" ry="16.2208" style="stroke:#181818;stroke-width:0.5;"/><text fill="#000000" font-family="sans-serif" font-size="14" lengthAdjust="spacing" textLength="104.1113" x="829.3382" y="663.1992">Add news item</text></g><!--entity Add intervention--><g class="entity" data-entity="Add intervention" data-source-line="36" data-uid="ent0050" id="entity_Add intervention"><ellipse cx="881.3938" cy="726.5488" fill="#F1F1F1" rx="74.2938" ry="17.2588" style="stroke:#181818;stroke-width:0.5;"/><text fill="#000000" font-family="sans-serif" font-size="14" lengthAdjust="spacing" textLength="117.0107" x="822.8884" y="731.1972">Add intervention</text></g><!--entity Trigger intervention--><g class="entity" data-entity="Trigger intervention" data-source-line="37" data-uid="ent0052" id="entity_Trigger intervention"><ellipse cx="881.3934" cy="797.5487" fill="#F1F1F1" rx="83.9934" ry="19.1987" style="stroke:#181818;stroke-width:0.5;"/><text fill="#000000" font-family="sans-serif" font-size="14" lengthAdjust="spacing" textLength="140" x="811.3934" y="802.1971">Trigger intervention</text></g><!--entity Chat with players--><g class="entity" data-entity="Chat with players" data-source-line="38" data-uid="ent0054" id="entity_Chat with players"><ellipse cx="881.3941" cy="869.5528" fill="#F1F1F1" rx="76.6141" ry="17.7228" style="stroke:#181818;stroke-width:0.5;"/><text fill="#000000" font-family="sans-serif" font-size="14" lengthAdjust="spacing" textLength="122.623" x="820.0825" y="874.2012">Chat with players</text></g><!--entity Show actor map--><g class="entity" data-entity="Show actor map" data-source-line="39" data-uid="ent0056" id="entity_Show actor map"><ellipse cx="881.3893" cy="939.5519" fill="#F1F1F1" rx="73.0093" ry="17.0019" style="stroke:#181818;stroke-width:0.5;"/><text fill="#000000" font-family="sans-serif" font-size="14" lengthAdjust="spacing" textLength="113.8662" x="824.4562" y="944.2003">Show actor map</text></g><!--entity Show scores--><g class="entity" data-entity="Show scores" data-source-line="40" data-uid="ent0058" id="entity_Show scores"><ellipse cx="881.3928" cy="1006.5526" fill="#F1F1F1" rx="62.7628" ry="14.9526" style="stroke:#181818;stroke-width:0.5;"/><text fill="#000000" font-family="sans-serif" font-size="14" lengthAdjust="spacing" textLength="87.4453" x="837.6702" y="1011.201">Show scores</text></g><!--entity Send data to\ngame data platform--><g class="entity" data-entity="Send data to.ngame data platform" data-source-line="42" data-uid="ent0060" id="entity_Send data to.ngame data platform"><ellipse cx="1148.8266" cy="658.5494" fill="#F1F1F1" rx="94.9266" ry="24.4194" style="stroke:#181818;stroke-width:0.5;"/><text fill="#000000" font-family="sans-serif" font-size="14" lengthAdjust="spacing" textLength="89.749" x="1103.9521" y="652.6524">Send data to</text><text fill="#000000" font-family="sans-serif" font-size="14" lengthAdjust="spacing" textLength="139.8838" x="1078.8847" y="668.9492">game data platform</text></g><!--entity Debrief game--><g class="entity" data-entity="Debrief game" data-source-line="48" data-uid="ent0066" id="entity_Debrief game"><ellipse cx="611.8106" cy="1006.5541" fill="#F1F1F1" rx="65.8206" ry="15.5641" style="stroke:#181818;stroke-width:0.5;"/><text fill="#000000" font-family="sans-serif" font-size="14" lengthAdjust="spacing" textLength="95.6348" x="563.9932" y="1011.2026">Debrief game</text></g><!--entity Show gameplay--><g class="entity" data-entity="Show gameplay" data-source-line="50" data-uid="ent0069" id="entity_Show gameplay"><ellipse cx="881.3941" cy="1073.5468" fill="#F1F1F1" rx="72.0841" ry="16.8168" style="stroke:#181818;stroke-width:0.5;"/><text fill="#000000" font-family="sans-serif" font-size="14" lengthAdjust="spacing" textLength="111.583" x="825.6026" y="1078.1953">Show gameplay</text></g><!--reverse link User to Administrator--><g class="link" data-entity-1="User" data-entity-2="Administrator" data-source-line="4" data-uid="lnk5" id="link_User_Administrator"><path d="M51.9752,412.3314 C71.0152,395.7814 90.63,378.73 117.86,355.07" fill="none" id="User-backto-Administrator" style="stroke:#181818;stroke-width:1;"/><polygon fill="none" points="38.39,424.14,55.9114,416.8598,48.039,407.803,38.39,424.14" style="stroke:#181818;stroke-width:1;"/></g><!--reverse link Administrator to SF--><g class="link" data-entity-1="Administrator" data-entity-2="SF" data-source-line="5" data-uid="lnk6" id="link_Administrator_SF"><path d="M226.6247,354.677 C264.7047,377.917 302.05,400.72 336.23,421.59" fill="none" id="Administrator-backto-SF" style="stroke:#181818;stroke-width:1;"/><polygon fill="none" points="211.26,345.3,223.499,359.7985,229.7503,349.5554,211.26,345.3" style="stroke:#181818;stroke-width:1;"/></g><!--link User to Login--><g class="link" data-entity-1="User" data-entity-2="Login" data-source-line="7" data-uid="lnk8" id="link_User_Login"><path d="M38.39,433.9 C61.89,428.32 101.1217,419.0235 129.9017,412.2035" fill="none" id="User-to-Login" style="stroke:#181818;stroke-width:1;"/><polygon fill="#181818" points="135.74,410.82,126.0602,409.003,130.8747,411.9729,127.9049,416.7875,135.74,410.82" style="stroke:#181818;stroke-width:1;"/></g><!--link User to Set password--><g class="link" data-entity-1="User" data-entity-2="Set password" data-source-line="8" data-uid="lnk10" id="link_User_Set password"><path d="M38.39,441.1 C56.79,445.33 82.5724,451.2564 109.2524,457.3864" fill="none" id="User-to-Set password" style="stroke:#181818;stroke-width:1;"/><polygon fill="#181818" points="115.1,458.73,107.2242,452.8162,110.227,457.6104,105.4328,460.6131,115.1,458.73" style="stroke:#181818;stroke-width:1;"/></g><!--link User to Logout--><g class="link" data-entity-1="User" data-entity-2="Logout" data-source-line="9" data-uid="lnk12" id="link_User_Logout"><path d="M38.38,453 C52.91,467.04 75.7,487.74 97.91,502.55 C110.14,510.71 119.3055,515.6286 131.5055,521.2786" fill="none" id="User-to-Logout" style="stroke:#181818;stroke-width:1;"/><polygon fill="#181818" points="136.95,523.8,130.4642,516.3882,132.4129,521.6988,127.1023,523.6475,136.95,523.8" style="stroke:#181818;stroke-width:1;"/></g><!--link Administrator to User administration--><g class="link" data-entity-1="Administrator" data-entity-2="User administration" data-source-line="11" data-uid="lnk14" id="link_Administrator_User administration"><path d="M195.34,278.09 C218.78,251 252.86,215.29 288.43,190.55 C299.98,182.51 308.0822,177.9757 320.8422,172.3357" fill="none" id="Administrator-to-User administration" style="stroke:#181818;stroke-width:1;"/><polygon fill="#181818" points="326.33,169.91,316.4812,169.8899,321.7568,171.9314,319.7154,177.207,326.33,169.91" style="stroke:#181818;stroke-width:1;"/></g><!--link User administration to Create user--><g class="link" data-entity-1="User administration" data-entity-2="Create user" data-source-line="16" data-uid="lnk19" id="link_User administration_Create user"><path d="M394.39,134.9 C421.21,112.74 468.84,75.84 514.73,52.55 C531.98,43.8 546.3997,38.4062 563.7897,33.1162" fill="none" id="User administration-to-Create user" style="stroke:#181818;stroke-width:1;"/><polygon fill="#181818" points="569.53,31.37,559.7555,30.1624,564.7464,32.8252,562.0837,37.8161,569.53,31.37" style="stroke:#181818;stroke-width:1;"/></g><!--link User administration to Delete user--><g class="link" data-entity-1="User administration" data-entity-2="Delete user" data-source-line="17" data-uid="lnk21" id="link_User administration_Delete user"><path d="M424.56,138.5 C468.92,125.65 525.957,109.1297 566.097,97.4997" fill="none" id="User administration-to-Delete user" style="stroke:#181818;stroke-width:1;"/><polygon fill="#181818" points="571.86,95.83,562.1024,94.4926,567.0575,97.2215,564.3287,102.1766,571.86,95.83" style="stroke:#181818;stroke-width:1;"/></g><!--link User administration to Reset user password--><g class="link" data-entity-1="User administration" data-entity-2="Reset user password" data-source-line="18" data-uid="lnk23" id="link_User administration_Reset user password"><path d="M455.23,153.55 C477.81,153.55 496.32,153.55 519.06,153.55" fill="none" id="User administration-to-Reset user password" style="stroke:#181818;stroke-width:1;"/><polygon fill="#181818" points="525.06,153.55,516.06,149.55,520.06,153.55,516.06,157.55,525.06,153.55" style="stroke:#181818;stroke-width:1;"/></g><!--link User administration to Set user access--><g class="link" data-entity-1="User administration" data-entity-2="Set user access" data-source-line="19" data-uid="lnk25" id="link_User administration_Set user access"><path d="M423.69,168.78 C466.2,181.46 520.3602,197.5956 560.8402,209.6656" fill="none" id="User administration-to-Set user access" style="stroke:#181818;stroke-width:1;"/><polygon fill="#181818" points="566.59,211.38,559.1082,204.9751,561.7985,209.9513,556.8223,212.6416,566.59,211.38" style="stroke:#181818;stroke-width:1;"/></g><!--link SF to User allocation--><g class="link" data-entity-1="SF" data-entity-2="User allocation" data-source-line="21" data-uid="lnk27" id="link_SF_User allocation"><path d="M406.97,420.9 C455.67,390.23 538.4928,338.0872 581.1628,311.2172" fill="none" id="SF-to-User allocation" style="stroke:#181818;stroke-width:1;"/><polygon fill="#181818" points="586.24,308.02,576.4927,309.431,582.009,310.6843,580.7557,316.2006,586.24,308.02" style="stroke:#181818;stroke-width:1;"/></g><!--link User allocation to Allocate user to session--><g class="link" data-entity-1="User allocation" data-entity-2="Allocate user to session" data-source-line="22" data-uid="lnk29" id="link_User allocation_Allocate user to session"><path d="M663.27,281.38 C678.97,276.22 695.62,268.88 708.88,258.55 C746.82,229.02 730.9,198.01 768.88,168.55 C782.01,158.37 792.3586,152.7732 808.0686,147.0832" fill="none" id="User allocation-to-Allocate user to session" style="stroke:#181818;stroke-width:1;"/><polygon fill="#181818" points="813.71,145.04,803.8858,144.344,809.0089,146.7427,806.6101,151.8658,813.71,145.04" style="stroke:#181818;stroke-width:1;"/></g><!--link User allocation to Deallocate user from session--><g class="link" data-entity-1="User allocation" data-entity-2="Deallocate user from session" data-source-line="23" data-uid="lnk31" id="link_User allocation_Deallocate user from session"><path d="M655.21,279.56 C697.87,266.49 758.543,247.8868 808.213,232.6768" fill="none" id="User allocation-to-Deallocate user from session" style="stroke:#181818;stroke-width:1;"/><polygon fill="#181818" points="813.95,230.92,804.1732,229.7305,809.1691,232.384,806.5156,237.3799,813.95,230.92" style="stroke:#181818;stroke-width:1;"/></g><!--link User allocation to Show players for session--><g class="link" data-entity-1="User allocation" data-entity-2="Show players for session" data-source-line="24" data-uid="lnk33" id="link_User allocation_Show players for session"><path d="M681.37,292.55 C712.03,292.55 742.74,292.55 776.24,292.55" fill="none" id="User allocation-to-Show players for session" style="stroke:#181818;stroke-width:1;"/><polygon fill="#181818" points="782.24,292.55,773.24,288.55,777.24,292.55,773.24,296.55,782.24,292.55" style="stroke:#181818;stroke-width:1;"/></g><!--link SF to Brief game--><g class="link" data-entity-1="SF" data-entity-2="Brief game" data-source-line="26" data-uid="lnk35" id="link_SF_Brief game"><path d="M406.97,437.5 C447.55,431.54 509.4239,422.4532 555.5839,415.6632" fill="none" id="SF-to-Brief game" style="stroke:#181818;stroke-width:1;"/><polygon fill="#181818" points="561.52,414.79,552.0337,412.1424,556.5732,415.5177,553.1979,420.0572,561.52,414.79" style="stroke:#181818;stroke-width:1;"/></g><!--link SF to Start/stop game session--><g class="link" data-entity-1="SF" data-entity-2="Start.stop game session" data-source-line="28" data-uid="lnk37" id="link_SF_Start.stop game session"><path d="M406.97,447.75 C439.05,452.6 482.2073,459.1236 524.1673,465.4636" fill="none" id="SF-to-Start/stop game session" style="stroke:#181818;stroke-width:1;"/><polygon fill="#181818" points="530.1,466.36,521.7986,461.0603,525.1561,465.613,520.6034,468.9705,530.1,466.36" style="stroke:#181818;stroke-width:1;"/></g><!--link Start/stop game session to Start game session--><g class="link" data-entity-1="Start.stop game session" data-entity-2="Start game session" data-source-line="29" data-uid="lnk39" id="link_Start.stop game session_Start game session"><path d="M663.27,459.64 C678.15,453.64 694.34,446.7 708.88,439.55 C736.59,425.94 740.7,417.15 768.88,404.55 C787.55,396.21 803.0185,390.6448 821.8785,384.8048" fill="none" id="Start/stop game session-to-Start game session" style="stroke:#181818;stroke-width:1;"/><polygon fill="#181818" points="827.61,383.03,817.8296,381.8711,822.8337,384.509,820.1959,389.5132,827.61,383.03" style="stroke:#181818;stroke-width:1;"/></g><!--link Start/stop game session to Change game speed--><g class="link" data-entity-1="Start.stop game session" data-entity-2="Change game speed" data-source-line="30" data-uid="lnk41" id="link_Start.stop game session_Change game speed"><path d="M695.28,467.15 C731.06,462.2 766.6667,457.2831 801.3267,452.4831" fill="none" id="Start/stop game session-to-Change game speed" style="stroke:#181818;stroke-width:1;"/><polygon fill="#181818" points="807.27,451.66,797.8064,448.9324,802.3173,452.3459,798.9038,456.8568,807.27,451.66" style="stroke:#181818;stroke-width:1;"/></g><!--link Start/stop game session to Pause game session--><g class="link" data-entity-1="Start.stop game session" data-entity-2="Pause game session" data-source-line="31" data-uid="lnk43" id="link_Start.stop game session_Pause game session"><path d="M695.28,489.96 C731.21,494.92 767.0164,499.879 801.7664,504.679" fill="none" id="Start/stop game session-to-Pause game session" style="stroke:#181818;stroke-width:1;"/><polygon fill="#181818" points="807.71,505.5,799.342,500.3061,802.757,504.8158,798.2473,508.2309,807.71,505.5" style="stroke:#181818;stroke-width:1;"/></g><!--link Start/stop game session to Stop game session--><g class="link" data-entity-1="Start.stop game session" data-entity-2="Stop game session" data-source-line="32" data-uid="lnk45" id="link_Start.stop game session_Stop game session"><path d="M651.95,498.86 C683.14,514.62 728.19,536.41 768.88,552.55 C788.65,560.39 805.1229,566.0412 824.4929,572.0912" fill="none" id="Start/stop game session-to-Stop game session" style="stroke:#181818;stroke-width:1;"/><polygon fill="#181818" points="830.22,573.88,822.8218,567.3787,825.4474,572.3893,820.4367,575.0149,830.22,573.88" style="stroke:#181818;stroke-width:1;"/></g><!--link SF to Facilitate session--><g class="link" data-entity-1="SF" data-entity-2="Facilitate session" data-source-line="34" data-uid="lnk47" id="link_SF_Facilitate session"><path d="M403.97,489.33 C457.41,568.97 560.3863,722.4181 595.7363,775.0881" fill="none" id="SF-to-Facilitate session" style="stroke:#181818;stroke-width:1;"/><polygon fill="#181818" points="599.08,780.07,597.3858,770.368,596.2936,775.9184,590.7432,774.8262,599.08,780.07" style="stroke:#181818;stroke-width:1;"/></g><!--link Facilitate session to Add news item--><g class="link" data-entity-1="Facilitate session" data-entity-2="Add news item" data-source-line="35" data-uid="lnk49" id="link_Facilitate session_Add news item"><path d="M633.25,780.59 C661.93,757.54 716.48,716.36 768.88,691.55 C788.23,682.4 804.879,676.73 824.539,671.4" fill="none" id="Facilitate session-to-Add news item" style="stroke:#181818;stroke-width:1;"/><polygon fill="#181818" points="830.33,669.83,820.5969,668.3243,825.5042,671.1383,822.6902,676.0456,830.33,669.83" style="stroke:#181818;stroke-width:1;"/></g><!--link Facilitate session to Add intervention--><g class="link" data-entity-1="Facilitate session" data-entity-2="Add intervention" data-source-line="36" data-uid="lnk51" id="link_Facilitate session_Add intervention"><path d="M662.82,784.28 C710.93,771.52 777.4107,753.8789 825.2707,741.1789" fill="none" id="Facilitate session-to-Add intervention" style="stroke:#181818;stroke-width:1;"/><polygon fill="#181818" points="831.07,739.64,821.3451,738.0821,826.2373,740.9224,823.397,745.8145,831.07,739.64" style="stroke:#181818;stroke-width:1;"/></g><!--link Facilitate session to Trigger intervention--><g class="link" data-entity-1="Facilitate session" data-entity-2="Trigger intervention" data-source-line="37" data-uid="lnk53" id="link_Facilitate session_Trigger intervention"><path d="M687.7,797.55 C721.72,797.55 756.08,797.55 791.05,797.55" fill="none" id="Facilitate session-to-Trigger intervention" style="stroke:#181818;stroke-width:1;"/><polygon fill="#181818" points="797.05,797.55,788.05,793.55,792.05,797.55,788.05,801.55,797.05,797.55" style="stroke:#181818;stroke-width:1;"/></g><!--link Facilitate session to Chat with players--><g class="link" data-entity-1="Facilitate session" data-entity-2="Chat with players" data-source-line="38" data-uid="lnk55" id="link_Facilitate session_Chat with players"><path d="M662.51,810.93 C710.27,823.78 776.2761,841.541 824.2561,854.451" fill="none" id="Facilitate session-to-Chat with players" style="stroke:#181818;stroke-width:1;"/><polygon fill="#181818" points="830.05,856.01,822.3984,849.8089,825.2217,854.7109,820.3198,857.5342,830.05,856.01" style="stroke:#181818;stroke-width:1;"/></g><!--link Facilitate session to Show actor map--><g class="link" data-entity-1="Facilitate session" data-entity-2="Show actor map" data-source-line="39" data-uid="lnk57" id="link_Facilitate session_Show actor map"><path d="M633.28,814.57 C662,837.71 716.59,879.13 768.88,904.55 C788.04,913.87 804.4889,919.7536 824.0089,925.4336" fill="none" id="Facilitate session-to-Show actor map" style="stroke:#181818;stroke-width:1;"/><polygon fill="#181818" points="829.77,927.11,822.246,920.7547,824.9691,925.713,820.0108,928.4361,829.77,927.11" style="stroke:#181818;stroke-width:1;"/></g><!--link Facilitate session to Show scores--><g class="link" data-entity-1="Facilitate session" data-entity-2="Show scores" data-source-line="40" data-uid="lnk59" id="link_Facilitate session_Show scores"><path d="M623.5,815.37 C645.86,851.1 701.19,931.75 768.88,974.55 C786.84,985.91 803.1101,991.9216 822.8801,996.7316" fill="none" id="Facilitate session-to-Show scores" style="stroke:#181818;stroke-width:1;"/><polygon fill="#181818" points="828.71,998.15,820.9107,992.1358,823.8517,996.968,819.0195,999.909,828.71,998.15" style="stroke:#181818;stroke-width:1;"/></g><!--link Start game session to Send data to\ngame data platform--><g class="link" data-entity-1="Start game session" data-entity-2="Send data to.ngame data platform" data-source-line="42" data-uid="lnk61" id="link_Start game session_Send data to.ngame data platform"><path d="M945.58,380.46 C962.49,385.81 979.94,393.51 993.9,404.55 C1073.37,467.4 1119.5067,577.7714 1137.6067,628.3014" fill="none" id="Start game session-to-Send data to\ngame data platform" style="stroke:#181818;stroke-width:1;"/><polygon fill="#181818" points="1139.63,633.95,1140.3607,624.1283,1137.9439,629.2429,1132.8293,626.8261,1139.63,633.95" style="stroke:#181818;stroke-width:1;"/></g><!--link Add news item to Send data to\ngame data platform--><g class="link" data-entity-1="Add news item" data-entity-2="Send data to.ngame data platform" data-source-line="43" data-uid="lnk62" id="link_Add news item_Send data to.ngame data platform"><path d="M950.75,658.55 C982.01,658.55 1013.55,658.55 1047.45,658.55" fill="none" id="Add news item-to-Send data to\ngame data platform" style="stroke:#181818;stroke-width:1;"/><polygon fill="#181818" points="1053.45,658.55,1044.45,654.55,1048.45,658.55,1044.45,662.55,1053.45,658.55" style="stroke:#181818;stroke-width:1;"/></g><!--link Add intervention to Send data to\ngame data platform--><g class="link" data-entity-1="Add intervention" data-entity-2="Send data to.ngame data platform" data-source-line="44" data-uid="lnk63" id="link_Add intervention_Send data to.ngame data platform"><path d="M932.63,713.68 C974.41,702.98 1028.4577,689.1391 1074.4377,677.3591" fill="none" id="Add intervention-to-Send data to\ngame data platform" style="stroke:#181818;stroke-width:1;"/><polygon fill="#181818" points="1080.25,675.87,1070.5388,674.2288,1075.4064,677.1109,1072.5243,681.9785,1080.25,675.87" style="stroke:#181818;stroke-width:1;"/></g><!--link Trigger intervention to Send data to\ngame data platform--><g class="link" data-entity-1="Trigger intervention" data-entity-2="Send data to.ngame data platform" data-source-line="45" data-uid="lnk64" id="link_Trigger intervention_Send data to.ngame data platform"><path d="M937.74,783.01 C956.04,777.33 976.23,770.11 993.9,761.55 C1039.91,739.27 1083.3775,708.5664 1113.3275,685.7464" fill="none" id="Trigger intervention-to-Send data to\ngame data platform" style="stroke:#181818;stroke-width:1;"/><polygon fill="#181818" points="1118.1,682.11,1108.517,684.3829,1114.1229,685.1403,1113.3655,690.7462,1118.1,682.11" style="stroke:#181818;stroke-width:1;"/></g><!--link Stop game session to Send data to\ngame data platform--><g class="link" data-entity-1="Stop game session" data-entity-2="Send data to.ngame data platform" data-source-line="46" data-uid="lnk65" id="link_Stop game session_Send data to.ngame data platform"><path d="M935.79,602.63 C977.72,613.69 1030.5486,627.619 1075.5286,639.489" fill="none" id="Stop game session-to-Send data to\ngame data platform" style="stroke:#181818;stroke-width:1;"/><polygon fill="#181818" points="1081.33,641.02,1073.6485,634.856,1076.4955,639.7442,1071.6073,642.5912,1081.33,641.02" style="stroke:#181818;stroke-width:1;"/></g><!--link SF to Debrief game--><g class="link" data-entity-1="SF" data-entity-2="Debrief game" data-source-line="48" data-uid="lnk67" id="link_SF_Debrief game"><path d="M386.96,489.11 C410.4,563.19 459.81,711.86 514.73,832.55 C542.31,893.17 579.7828,956.1755 598.0928,986.0255" fill="none" id="SF-to-Debrief game" style="stroke:#181818;stroke-width:1;"/><polygon fill="#181818" points="601.23,991.14,599.9338,981.3768,598.6156,986.8779,593.1145,985.5598,601.23,991.14" style="stroke:#181818;stroke-width:1;"/></g><!--link Debrief game to Show scores--><g class="link" data-entity-1="Debrief game" data-entity-2="Show scores" data-source-line="49" data-uid="lnk68" id="link_Debrief game_Show scores"><path d="M677.92,1006.55 C720.62,1006.55 770.12,1006.55 812.21,1006.55" fill="none" id="Debrief game-to-Show scores" style="stroke:#181818;stroke-width:1;"/><polygon fill="#181818" points="818.21,1006.55,809.21,1002.55,813.21,1006.55,809.21,1010.55,818.21,1006.55" style="stroke:#181818;stroke-width:1;"/></g><!--link Debrief game to Show gameplay--><g class="link" data-entity-1="Debrief game" data-entity-2="Show gameplay" data-source-line="50" data-uid="lnk70" id="link_Debrief game_Show gameplay"><path d="M658.2,1017.92 C706.21,1029.94 775.8996,1047.3931 825.3196,1059.7631" fill="none" id="Debrief game-to-Show gameplay" style="stroke:#181818;stroke-width:1;"/><polygon fill="#181818" points="831.14,1061.22,823.3806,1055.1544,826.2896,1060.0059,821.4381,1062.915,831.14,1061.22" style="stroke:#181818;stroke-width:1;"/></g><!--SRC=[bPFDReCm3CVlUGghft6ezWBJfAvLJpjCOxlrue9B8q624dTeqXv-3b06AvJsXktVF_WpfmC3Mt0wEpAasb72sXe5QX6Jz_AvCrjCTAuPsRe5e8TugpuzENZwMIvXbHRQQCykXDN0QW2X6tovV8Q7Lvjf4_KSCJ6Kw7rbNHeDGNlYIFrxiexL5Fxv9Sj86Si4Uyji2mLGvlXDJf598GIK6XKrpwqTeMXF0aJNk0tbT0ltJbwA2bYliYjyVAOnIQJdKdEyxHUQvpPfYxpmDDogSJIvXN7wPdQJWWtXG79mjfWLnKTRjOtrS91XT88kuHUdwG0P5jHpneoE7ptRiexq_ZCLwUdkawoFQ39g8oLHEgjuGsd0lNbTLDBLsjrA_xaHPpktLDQJAW-QgPW3jM5oNsHuvj4FkULCvdShBprZg3GVpxEz1jSxW4aunGBBMT8drb7OwB5XdhTVRZH5HjdRdQc1sf9aM9Oij6NOfhjaWoRSh1njuStgU6flPgNT6cretxkaeJdItaaWs66gqIy0]--></g></svg>