<svg xmlns="http://www.w3.org/2000/svg" xmlns:xlink="http://www.w3.org/1999/xlink" contentStyleType="text/css" data-diagram-type="DESCRIPTION" height="453px" preserveAspectRatio="none" style="width:1350px;height:453px;background:#FFFFFF;" version="1.1" viewBox="0 0 1350 453" width="1350px" zoomAndPan="magnify"><defs/><g><!--entity PA--><g class="entity" data-entity="PA" data-source-line="1" data-uid="ent0002" id="entity_PA"><ellipse cx="545.0772" cy="151.3" fill="#F1F1F1" rx="8" ry="8" style="stroke:#181818;stroke-width:0.5;"/><path d="M545.0772,159.3 L545.0772,186.3 M532.0772,167.3 L558.0772,167.3 M545.0772,186.3 L532.0772,201.3 M545.0772,186.3 L558.0772,201.3" fill="none" style="stroke:#181818;stroke-width:0.5;"/><text fill="#000000" font-family="sans-serif" font-size="14" lengthAdjust="spacing" textLength="140.8545" x="474.65" y="215.7951">Portal Administrator</text></g><!--entity User--><g class="entity" data-entity="User" data-source-line="2" data-uid="ent0003" id="entity_User"><ellipse cx="630.0751" cy="14" fill="#F1F1F1" rx="8" ry="8" style="stroke:#181818;stroke-width:0.5;"/><path d="M630.0751,22 L630.0751,49 M617.0751,30 L643.0751,30 M630.0751,49 L617.0751,64 M630.0751,49 L643.0751,64" fill="none" style="stroke:#181818;stroke-width:0.5;"/><text fill="#000000" font-family="sans-serif" font-size="14" lengthAdjust="spacing" textLength="31.9102" x="614.12" y="78.4951">User</text></g><!--entity Set password--><g class="entity" data-entity="Set password" data-source-line="4" data-uid="ent0005" id="entity_Set password"><ellipse cx="716.0679" cy="180.9516" fill="#F1F1F1" rx="65.2579" ry="15.4516" style="stroke:#181818;stroke-width:0.5;"/><text fill="#000000" font-family="sans-serif" font-size="14" lengthAdjust="spacing" textLength="94.1514" x="668.9922" y="185.6">Set password</text></g><!--entity Manage game--><g class="entity" data-entity="Manage game" data-source-line="6" data-uid="ent0007" id="entity_Manage game"><ellipse cx="233.0712" cy="299.9422" fill="#F1F1F1" rx="67.4112" ry="15.8822" style="stroke:#181818;stroke-width:0.5;"/><text fill="#000000" font-family="sans-serif" font-size="14" lengthAdjust="spacing" textLength="99.7773" x="183.1825" y="304.5907">Manage game</text></g><!--entity Create game--><g class="entity" data-entity="Create game" data-source-line="7" data-uid="ent0009" id="entity_Create game"><ellipse cx="70.0726" cy="422.1845" fill="#F1F1F1" rx="64.0726" ry="15.2145" style="stroke:#181818;stroke-width:0.5;"/><text fill="#000000" font-family="sans-serif" font-size="14" lengthAdjust="spacing" textLength="90.9932" x="24.576" y="426.833">Create game</text></g><!--entity Delete game--><g class="entity" data-entity="Delete game" data-source-line="8" data-uid="ent0011" id="entity_Delete game"><ellipse cx="233.0651" cy="422.183" fill="#F1F1F1" rx="63.7651" ry="15.153" style="stroke:#181818;stroke-width:0.5;"/><text fill="#000000" font-family="sans-serif" font-size="14" lengthAdjust="spacing" textLength="90.166" x="187.9821" y="426.8315">Delete game</text></g><!--entity Manage organization--><g class="entity" data-entity="Manage organization" data-source-line="10" data-uid="ent0013" id="entity_Manage organization"><ellipse cx="545.0722" cy="299.9384" fill="#F1F1F1" rx="87.1922" ry="19.8384" style="stroke:#181818;stroke-width:0.5;"/><text fill="#000000" font-family="sans-serif" font-size="14" lengthAdjust="spacing" textLength="147.3555" x="471.3945" y="304.5869">Manage organization</text></g><!--entity Create\norganization--><g class="entity" data-entity="Create\norganization" data-source-line="11" data-uid="ent0015" id="entity_Create\norganization"><ellipse cx="391.0691" cy="422.1753" fill="#F1F1F1" rx="59.4991" ry="24.0953" style="stroke:#181818;stroke-width:0.5;"/><text fill="#000000" font-family="sans-serif" font-size="14" lengthAdjust="spacing" textLength="46.8262" x="367.656" y="415.7734">Create</text><text fill="#000000" font-family="sans-serif" font-size="14" lengthAdjust="spacing" textLength="87.2949" x="347.4216" y="432.0703">organization</text></g><!--entity Delete\norganization--><g class="entity" data-entity="Delete\norganization" data-source-line="12" data-uid="ent0017" id="entity_Delete\norganization"><ellipse cx="545.0693" cy="422.1793" fill="#F1F1F1" rx="59.4293" ry="24.0693" style="stroke:#181818;stroke-width:0.5;"/><text fill="#000000" font-family="sans-serif" font-size="14" lengthAdjust="spacing" textLength="45.999" x="522.0698" y="415.7363">Delete</text><text fill="#000000" font-family="sans-serif" font-size="14" lengthAdjust="spacing" textLength="87.2949" x="501.4218" y="432.0332">organization</text></g><!--entity Allocate user\nto organization--><g class="entity" data-entity="Allocate user\nto organization" data-source-line="13" data-uid="ent0019" id="entity_Allocate user\nto organization"><ellipse cx="715.0716" cy="422.1833" fill="#F1F1F1" rx="75.4616" ry="25.3233" style="stroke:#181818;stroke-width:0.5;"/><text fill="#000000" font-family="sans-serif" font-size="14" lengthAdjust="spacing" textLength="91.2871" x="669.4281" y="417.6422">Allocate user</text><text fill="#000000" font-family="sans-serif" font-size="14" lengthAdjust="spacing" textLength="105.7998" x="662.1717" y="433.9391">to organization</text></g><!--entity Manage user--><g class="entity" data-entity="Manage user" data-source-line="15" data-uid="ent0021" id="entity_Manage user"><ellipse cx="1042.0651" cy="299.935" fill="#F1F1F1" rx="63.9251" ry="15.185" style="stroke:#181818;stroke-width:0.5;"/><text fill="#000000" font-family="sans-serif" font-size="14" lengthAdjust="spacing" textLength="90.5967" x="996.7667" y="304.5835">Manage user</text></g><!--entity Create user--><g class="entity" data-entity="Create user" data-source-line="16" data-uid="ent0023" id="entity_Create user"><ellipse cx="886.0743" cy="422.1769" fill="#F1F1F1" rx="60.7343" ry="14.5469" style="stroke:#181818;stroke-width:0.5;"/><text fill="#000000" font-family="sans-serif" font-size="14" lengthAdjust="spacing" textLength="81.8125" x="845.168" y="426.8253">Create user</text></g><!--entity Delete user--><g class="entity" data-entity="Delete user" data-source-line="17" data-uid="ent0025" id="entity_Delete user"><ellipse cx="1042.0653" cy="422.1836" fill="#F1F1F1" rx="60.2653" ry="14.5236" style="stroke:#181818;stroke-width:0.5;"/><text fill="#000000" font-family="sans-serif" font-size="14" lengthAdjust="spacing" textLength="80.9854" x="1001.5726" y="426.8321">Delete user</text></g><!--entity Reset\npassword--><g class="entity" data-entity="Reset\npassword" data-source-line="18" data-uid="ent0027" id="entity_Reset\npassword"><ellipse cx="1184.0746" cy="422.1799" fill="#F1F1F1" rx="46.5346" ry="24.2699" style="stroke:#181818;stroke-width:0.5;"/><text fill="#000000" font-family="sans-serif" font-size="14" lengthAdjust="spacing" textLength="39.7373" x="1164.2059" y="416.0512">Reset</text><text fill="#000000" font-family="sans-serif" font-size="14" lengthAdjust="spacing" textLength="66.7119" x="1150.7186" y="432.3481">password</text></g><!--entity Change\naccess--><g class="entity" data-entity="Change\naccess" data-source-line="19" data-uid="ent0029" id="entity_Change\naccess"><ellipse cx="1305.069" cy="422.1773" fill="#F1F1F1" rx="39.849" ry="25.4073" style="stroke:#181818;stroke-width:0.5;"/><text fill="#000000" font-family="sans-serif" font-size="14" lengthAdjust="spacing" textLength="53.6006" x="1278.2687" y="419.5956">Change</text><text fill="#000000" font-family="sans-serif" font-size="14" lengthAdjust="spacing" textLength="47.1748" x="1281.4816" y="435.8925">access</text></g><!--reverse link User to PA--><g class="link" data-entity-1="User" data-entity-2="PA" data-source-line="2" data-uid="lnk4" id="link_User_PA"><path d="M604.107,85.9833 C591.327,106.3333 582.97,119.63 568.64,142.43" fill="none" id="User-backto-PA" style="stroke:#181818;stroke-width:1;"/><polygon fill="none" points="613.68,70.74,599.0259,82.7923,609.1882,89.1743,613.68,70.74" style="stroke:#181818;stroke-width:1;"/></g><!--link User to Set password--><g class="link" data-entity-1="User" data-entity-2="Set password" data-source-line="4" data-uid="lnk6" id="link_User_Set password"><path d="M646.45,70.42 C664.39,98.63 689.2935,137.805 703.6835,160.465" fill="none" id="User-to-Set password" style="stroke:#181818;stroke-width:1;"/><polygon fill="#181818" points="706.9,165.53,705.452,155.7882,704.2196,161.3092,698.6986,160.0768,706.9,165.53" style="stroke:#181818;stroke-width:1;"/></g><!--link PA to Manage game--><g class="link" data-entity-1="PA" data-entity-2="Manage game" data-source-line="6" data-uid="lnk8" id="link_PA_Manage game"><path d="M474.27,208.5 C409.73,232.7 322.7277,265.3125 273.1477,283.9125" fill="none" id="PA-to-Manage game" style="stroke:#181818;stroke-width:1;"/><polygon fill="#181818" points="267.53,286.02,277.3615,286.6039,272.2114,284.2638,274.5516,279.1136,267.53,286.02" style="stroke:#181818;stroke-width:1;"/></g><!--link Manage game to Create game--><g class="link" data-entity-1="Manage game" data-entity-2="Create game" data-source-line="7" data-uid="lnk10" id="link_Manage game_Create game"><path d="M211.41,315.37 C197.23,324.93 178.38,337.86 162.07,349.78 C135.63,369.11 110.5007,388.8287 92.1707,403.4487" fill="none" id="Manage game-to-Create game" style="stroke:#181818;stroke-width:1;"/><polygon fill="#181818" points="87.48,407.19,97.0103,404.7052,91.3889,404.0722,92.0219,398.4509,87.48,407.19" style="stroke:#181818;stroke-width:1;"/><text fill="#000000" font-family="sans-serif" font-size="13" lengthAdjust="spacing" textLength="61.1851" x="163.07" y="362.8469">&#171;extend&#187;</text></g><!--link Manage game to Delete game--><g class="link" data-entity-1="Manage game" data-entity-2="Delete game" data-source-line="8" data-uid="lnk12" id="link_Manage game_Delete game"><path d="M233.07,316.17 C233.07,339.55 233.07,377.98 233.07,400.83" fill="none" id="Manage game-to-Delete game" style="stroke:#181818;stroke-width:1;"/><polygon fill="#181818" points="233.07,406.83,237.07,397.83,233.07,401.83,229.07,397.83,233.07,406.83" style="stroke:#181818;stroke-width:1;"/><text fill="#000000" font-family="sans-serif" font-size="13" lengthAdjust="spacing" textLength="61.1851" x="234.07" y="362.8469">&#171;extend&#187;</text></g><!--link PA to Manage organization--><g class="link" data-entity-1="PA" data-entity-2="Manage organization" data-source-line="10" data-uid="lnk14" id="link_PA_Manage organization"><path d="M545.07,219.29 C545.07,239.48 545.07,257.56 545.07,273.92" fill="none" id="PA-to-Manage organization" style="stroke:#181818;stroke-width:1;"/><polygon fill="#181818" points="545.07,279.92,549.07,270.92,545.07,274.92,541.07,270.92,545.07,279.92" style="stroke:#181818;stroke-width:1;"/></g><!--link Manage organization to Create\norganization--><g class="link" data-entity-1="Manage organization" data-entity-2="Create\norganization" data-source-line="11" data-uid="lnk16" id="link_Manage organization_Create\norganization"><path d="M517.27,319.05 C503.96,327.97 487.94,339.09 474.07,349.78 C453.29,365.79 435.277,381.2955 418.947,395.8655" fill="none" id="Manage organization-to-Create\norganization" style="stroke:#181818;stroke-width:1;"/><polygon fill="#181818" points="414.47,399.86,423.8486,396.8529,418.2009,396.5312,418.5225,390.8835,414.47,399.86" style="stroke:#181818;stroke-width:1;"/><text fill="#000000" font-family="sans-serif" font-size="13" lengthAdjust="spacing" textLength="61.1851" x="475.07" y="362.8469">&#171;extend&#187;</text></g><!--link Manage organization to Delete\norganization--><g class="link" data-entity-1="Manage organization" data-entity-2="Delete\norganization" data-source-line="12" data-uid="lnk18" id="link_Manage organization_Delete\norganization"><path d="M545.07,320.26 C545.07,341.37 545.07,369.19 545.07,391.79" fill="none" id="Manage organization-to-Delete\norganization" style="stroke:#181818;stroke-width:1;"/><polygon fill="#181818" points="545.07,397.79,549.07,388.79,545.07,392.79,541.07,388.79,545.07,397.79" style="stroke:#181818;stroke-width:1;"/><text fill="#000000" font-family="sans-serif" font-size="13" lengthAdjust="spacing" textLength="61.1851" x="546.07" y="362.8469">&#171;extend&#187;</text></g><!--link Manage organization to Allocate user\nto organization--><g class="link" data-entity-1="Manage organization" data-entity-2="Allocate user\nto organization" data-source-line="13" data-uid="lnk20" id="link_Manage organization_Allocate user\nto organization"><path d="M571.81,319.12 C585.15,328.25 601.52,339.52 616.07,349.78 C639.11,366.01 660.0859,381.1233 679.5759,395.2833" fill="none" id="Manage organization-to-Allocate user\nto organization" style="stroke:#181818;stroke-width:1;"/><polygon fill="#181818" points="684.43,398.81,679.4999,390.2839,680.3849,395.8711,674.7977,396.7561,684.43,398.81" style="stroke:#181818;stroke-width:1;"/><text fill="#000000" font-family="sans-serif" font-size="13" lengthAdjust="spacing" textLength="61.1851" x="639.07" y="362.8469">&#171;extend&#187;</text></g><!--link PA to Manage user--><g class="link" data-entity-1="PA" data-entity-2="Manage user" data-source-line="15" data-uid="lnk22" id="link_PA_Manage user"><path d="M615.69,213.24 C621.52,215.37 627.36,217.36 633.07,219.1 C756.94,256.89 901.6069,280.0358 980.9969,291.0458" fill="none" id="PA-to-Manage user" style="stroke:#181818;stroke-width:1;"/><polygon fill="#181818" points="986.94,291.87,978.5748,286.6716,981.9874,291.1832,977.4758,294.5958,986.94,291.87" style="stroke:#181818;stroke-width:1;"/></g><!--link Manage user to Create user--><g class="link" data-entity-1="Manage user" data-entity-2="Create user" data-source-line="16" data-uid="lnk24" id="link_Manage user_Create user"><path d="M1020.88,314.74 C1006.57,324.25 987.38,337.36 971.07,349.78 C945.77,369.04 922.2737,389.1656 905.5737,403.8656" fill="none" id="Manage user-to-Create user" style="stroke:#181818;stroke-width:1;"/><polygon fill="#181818" points="901.07,407.83,910.4685,404.8859,904.8231,404.5264,905.1827,398.8809,901.07,407.83" style="stroke:#181818;stroke-width:1;"/><text fill="#000000" font-family="sans-serif" font-size="13" lengthAdjust="spacing" textLength="61.1851" x="972.07" y="362.8469">&#171;extend&#187;</text></g><!--link Manage user to Delete user--><g class="link" data-entity-1="Manage user" data-entity-2="Delete user" data-source-line="17" data-uid="lnk26" id="link_Manage user_Delete user"><path d="M1042.07,315.2 C1042.07,338.47 1042.07,378.29 1042.07,401.31" fill="none" id="Manage user-to-Delete user" style="stroke:#181818;stroke-width:1;"/><polygon fill="#181818" points="1042.07,407.31,1046.07,398.31,1042.07,402.31,1038.07,398.31,1042.07,407.31" style="stroke:#181818;stroke-width:1;"/><text fill="#000000" font-family="sans-serif" font-size="13" lengthAdjust="spacing" textLength="61.1851" x="1043.07" y="362.8469">&#171;extend&#187;</text></g><!--link Manage user to Reset\npassword--><g class="link" data-entity-1="Manage user" data-entity-2="Reset\npassword" data-source-line="18" data-uid="lnk28" id="link_Manage user_Reset\npassword"><path d="M1063.95,314.48 C1078.39,323.77 1097.45,336.74 1113.07,349.78 C1131.73,365.34 1146.9685,380.6714 1160.7385,395.4414" fill="none" id="Manage user-to-Reset\npassword" style="stroke:#181818;stroke-width:1;"/><polygon fill="#181818" points="1164.83,399.83,1161.6185,390.5194,1161.4204,396.1728,1155.7671,395.9747,1164.83,399.83" style="stroke:#181818;stroke-width:1;"/><text fill="#000000" font-family="sans-serif" font-size="13" lengthAdjust="spacing" textLength="61.1851" x="1132.07" y="362.8469">&#171;extend&#187;</text></g><!--link Manage user to Change\naccess--><g class="link" data-entity-1="Manage user" data-entity-2="Change\naccess" data-source-line="19" data-uid="lnk30" id="link_Manage user_Change\naccess"><path d="M1087.97,310.92 C1120.74,319.01 1165.35,331.98 1202.07,349.78 C1231.25,363.91 1256.6379,382.0657 1276.7079,397.8857" fill="none" id="Manage user-to-Change\naccess" style="stroke:#181818;stroke-width:1;"/><polygon fill="#181818" points="1281.42,401.6,1276.828,392.8872,1277.4932,398.5048,1271.8756,399.17,1281.42,401.6" style="stroke:#181818;stroke-width:1;"/><text fill="#000000" font-family="sans-serif" font-size="13" lengthAdjust="spacing" textLength="61.1851" x="1232.07" y="362.8469">&#171;extend&#187;</text></g><!--SRC=[dL5D2u904BtxAuPEUV0FX0XYrq2ARbu67JP1PsDteeX-VDfMVg0X7T-RztRUl5sbsWXM41TroQKLWwBD2j126dj7ImR2Hn2qmA4WY61z884pMdlLfl0zBuqTlKD6HQ2m9jyR83TF3A5yc0s48T1DY0k8eYdvbYgQauztQgEGopjAgRdRFM3x6J8UZcR2JFXTgF_zSLNfl6tXqhIPiMZu-TBupjRLtVT2WsuTCnEd9tztkrI-9qkIyVVF5rYI4x9gYi8y9sl7ZYS0]--></g></svg>