<svg xmlns="http://www.w3.org/2000/svg" xmlns:xlink="http://www.w3.org/1999/xlink" contentStyleType="text/css" data-diagram-type="DESCRIPTION" height="390px" preserveAspectRatio="none" style="width:1097px;height:390px;background:#FFFFFF;" version="1.1" viewBox="0 0 1097 390" width="1097px" zoomAndPan="magnify"><defs/><g><!--entity GP--><g class="entity" data-entity="GP" data-source-line="3" data-uid="ent0002" id="entity_GP"><ellipse cx="164.1693" cy="145.14" fill="#F1F1F1" rx="8" ry="8" style="stroke:#181818;stroke-width:0.5;"/><path d="M164.1693,153.14 L164.1693,180.14 M151.1693,161.14 L177.1693,161.14 M164.1693,180.14 L151.1693,195.14 M164.1693,180.14 L177.1693,195.14" fill="none" style="stroke:#181818;stroke-width:0.5;"/><text fill="#000000" font-family="sans-serif" font-size="14" lengthAdjust="spacing" textLength="90.1387" x="119.1" y="209.6351">Game player</text></g><!--entity User--><g class="entity" data-entity="User" data-source-line="4" data-uid="ent0003" id="entity_User"><ellipse cx="21.9551" cy="214.14" fill="#F1F1F1" rx="8" ry="8" style="stroke:#181818;stroke-width:0.5;"/><path d="M21.9551,222.14 L21.9551,249.14 M8.9551,230.14 L34.9551,230.14 M21.9551,249.14 L8.9551,264.14 M21.9551,249.14 L34.9551,264.14" fill="none" style="stroke:#181818;stroke-width:0.5;"/><text fill="#000000" font-family="sans-serif" font-size="14" lengthAdjust="spacing" textLength="31.9102" x="6" y="278.6351">User</text></g><!--entity Set password--><g class="entity" data-entity="Set password" data-source-line="6" data-uid="ent0005" id="entity_Set password"><ellipse cx="164.1679" cy="263.7916" fill="#F1F1F1" rx="65.2579" ry="15.4516" style="stroke:#181818;stroke-width:0.5;"/><text fill="#000000" font-family="sans-serif" font-size="14" lengthAdjust="spacing" textLength="94.1514" x="117.0922" y="268.44">Set password</text></g><!--entity Make userid--><g class="entity" data-entity="Make userid" data-source-line="8" data-uid="ent0007" id="entity_Make userid"><ellipse cx="370.0054" cy="20.7851" fill="#F1F1F1" rx="61.9254" ry="14.7851" style="stroke:#181818;stroke-width:0.5;"/><text fill="#000000" font-family="sans-serif" font-size="14" lengthAdjust="spacing" textLength="85.1416" x="327.4346" y="25.4335">Make userid</text></g><!--entity Login to game--><g class="entity" data-entity="Login to game" data-source-line="9" data-uid="ent0009" id="entity_Login to game"><ellipse cx="370.014" cy="86.7928" fill="#F1F1F1" rx="67.764" ry="15.9528" style="stroke:#181818;stroke-width:0.5;"/><text fill="#000000" font-family="sans-serif" font-size="14" lengthAdjust="spacing" textLength="100.6865" x="319.6707" y="91.4412">Login to game</text></g><!--entity Show briefing--><g class="entity" data-entity="Show briefing" data-source-line="11" data-uid="ent0011" id="entity_Show briefing"><ellipse cx="370.0104" cy="153.7881" fill="#F1F1F1" rx="65.9404" ry="15.5881" style="stroke:#181818;stroke-width:0.5;"/><text fill="#000000" font-family="sans-serif" font-size="14" lengthAdjust="spacing" textLength="95.9492" x="322.0358" y="158.4365">Show briefing</text></g><!--entity Game play--><g class="entity" data-entity="Game play" data-source-line="13" data-uid="ent0013" id="entity_Game play"><ellipse cx="370.0071" cy="218.7936" fill="#F1F1F1" rx="56.5771" ry="14.5236" style="stroke:#181818;stroke-width:0.5;"/><text fill="#000000" font-family="sans-serif" font-size="14" lengthAdjust="spacing" textLength="75.7695" x="332.1224" y="223.4421">Game play</text></g><!--entity Show state information--><g class="entity" data-entity="Show state information" data-source-line="14" data-uid="ent0015" id="entity_Show state information"><ellipse cx="675.4701" cy="82.79" fill="#F1F1F1" rx="94.2001" ry="21.24" style="stroke:#181818;stroke-width:0.5;"/><text fill="#000000" font-family="sans-serif" font-size="14" lengthAdjust="spacing" textLength="163.1875" x="593.8764" y="87.4385">Show state information</text></g><!--entity Show news--><g class="entity" data-entity="Show news" data-source-line="15" data-uid="ent0017" id="entity_Show news"><ellipse cx="675.4668" cy="153.7936" fill="#F1F1F1" rx="58.4768" ry="14.5236" style="stroke:#181818;stroke-width:0.5;"/><text fill="#000000" font-family="sans-serif" font-size="14" lengthAdjust="spacing" textLength="78.4561" x="636.2388" y="158.4421">Show news</text></g><!--entity Make decision--><g class="entity" data-entity="Make decision" data-source-line="16" data-uid="ent0019" id="entity_Make decision"><ellipse cx="675.4686" cy="218.7937" fill="#F1F1F1" rx="67.3186" ry="15.8637" style="stroke:#181818;stroke-width:0.5;"/><text fill="#000000" font-family="sans-serif" font-size="14" lengthAdjust="spacing" textLength="99.5381" x="625.6996" y="223.4422">Make decision</text></g><!--entity Show actor map\n and highlight player--><g class="entity" data-entity="Show actor map\n and highlight player" data-source-line="17" data-uid="ent0021" id="entity_Show actor map\n and highlight player"><ellipse cx="675.4739" cy="294.7949" fill="#F1F1F1" rx="100.8839" ry="24.9649" style="stroke:#181818;stroke-width:0.5;"/><text fill="#000000" font-family="sans-serif" font-size="14" lengthAdjust="spacing" textLength="113.8662" x="618.5408" y="289.7245">Show actor map</text><text fill="#000000" font-family="sans-serif" font-size="14" lengthAdjust="spacing" textLength="140.7998" x="607.2991" y="306.0214">and highlight player</text></g><!--entity Show scores--><g class="entity" data-entity="Show scores" data-source-line="18" data-uid="ent0023" id="entity_Show scores"><ellipse cx="675.4728" cy="369.7926" fill="#F1F1F1" rx="62.7628" ry="14.9526" style="stroke:#181818;stroke-width:0.5;"/><text fill="#000000" font-family="sans-serif" font-size="14" lengthAdjust="spacing" textLength="87.4453" x="631.7502" y="374.441">Show scores</text></g><!--entity Send data to\ngame data platform--><g class="entity" data-entity="Send data to\ngame data platform" data-source-line="20" data-uid="ent0025" id="entity_Send data to\ngame data platform"><ellipse cx="996.2766" cy="218.7894" fill="#F1F1F1" rx="94.9266" ry="24.4194" style="stroke:#181818;stroke-width:0.5;"/><text fill="#000000" font-family="sans-serif" font-size="14" lengthAdjust="spacing" textLength="89.749" x="951.4021" y="212.8924">Send data to</text><text fill="#000000" font-family="sans-serif" font-size="14" lengthAdjust="spacing" textLength="139.8838" x="926.3347" y="229.1892">game data platform</text></g><!--entity Show debriefing--><g class="entity" data-entity="Show debriefing" data-source-line="22" data-uid="ent0027" id="entity_Show debriefing"><ellipse cx="370.0099" cy="284.788" fill="#F1F1F1" rx="72.8399" ry="16.968" style="stroke:#181818;stroke-width:0.5;"/><text fill="#000000" font-family="sans-serif" font-size="14" lengthAdjust="spacing" textLength="113.4492" x="313.2853" y="289.4364">Show debriefing</text></g><!--entity Logout from game--><g class="entity" data-entity="Logout from game" data-source-line="24" data-uid="ent0029" id="entity_Logout from game"><ellipse cx="370.0097" cy="354.7859" fill="#F1F1F1" rx="79.5797" ry="18.3159" style="stroke:#181818;stroke-width:0.5;"/><text fill="#000000" font-family="sans-serif" font-size="14" lengthAdjust="spacing" textLength="129.6846" x="305.1674" y="359.4344">Logout from game</text></g><!--reverse link User to GP--><g class="link" data-entity-1="User" data-entity-2="GP" data-source-line="4" data-uid="lnk4" id="link_User_GP"><path d="M54.3799,228.3215 C73.5399,218.8915 91.09,210.26 118.66,196.69" fill="none" id="User-backto-GP" style="stroke:#181818;stroke-width:1;"/><polygon fill="none" points="38.23,236.27,57.0295,233.7048,51.7304,222.9381,38.23,236.27" style="stroke:#181818;stroke-width:1;"/></g><!--link User to Set password--><g class="link" data-entity-1="User" data-entity-2="Set password" data-source-line="6" data-uid="lnk6" id="link_User_Set password"><path d="M38.23,245.97 C54.84,248.33 76.4203,251.4115 101.4103,254.9815" fill="none" id="User-to-Set password" style="stroke:#181818;stroke-width:1;"/><polygon fill="#181818" points="107.35,255.83,99.0061,250.5974,102.4003,255.1229,97.8748,258.517,107.35,255.83" style="stroke:#181818;stroke-width:1;"/></g><!--link GP to Make userid--><g class="link" data-entity-1="GP" data-entity-2="Make userid" data-source-line="8" data-uid="lnk8" id="link_GP_Make userid"><path d="M198.01,136.28 C221.67,110.36 255.46,76.84 290.43,53.79 C303.27,45.32 313.0608,40.4619 326.7908,35.1019" fill="none" id="GP-to-Make userid" style="stroke:#181818;stroke-width:1;"/><polygon fill="#181818" points="332.38,32.92,322.5416,32.4668,327.7223,34.7383,325.4508,39.919,332.38,32.92" style="stroke:#181818;stroke-width:1;"/></g><!--link GP to Login to game--><g class="link" data-entity-1="GP" data-entity-2="Login to game" data-source-line="9" data-uid="lnk10" id="link_GP_Login to game"><path d="M209.65,155.58 C247.72,139.15 296.1614,118.238 330.4914,103.418" fill="none" id="GP-to-Login to game" style="stroke:#181818;stroke-width:1;"/><polygon fill="#181818" points="336,101.04,326.1517,100.9346,331.4095,103.0217,329.3224,108.2795,336,101.04" style="stroke:#181818;stroke-width:1;"/></g><!--link GP to Show briefing--><g class="link" data-entity-1="GP" data-entity-2="Show briefing" data-source-line="11" data-uid="lnk12" id="link_GP_Show briefing"><path d="M209.65,170.2 C238.7,167.21 271.0317,163.8862 302.8017,160.6062" fill="none" id="GP-to-Show briefing" style="stroke:#181818;stroke-width:1;"/><polygon fill="#181818" points="308.77,159.99,299.4068,156.9354,303.7964,160.5035,300.2284,164.8931,308.77,159.99" style="stroke:#181818;stroke-width:1;"/></g><!--link GP to Game play--><g class="link" data-entity-1="GP" data-entity-2="Game play" data-source-line="13" data-uid="lnk14" id="link_GP_Game play"><path d="M209.65,184.39 C244.09,191.82 285.655,200.7943 319.805,208.1643" fill="none" id="GP-to-Game play" style="stroke:#181818;stroke-width:1;"/><polygon fill="#181818" points="325.67,209.43,317.7164,203.6214,320.7825,208.3752,316.0287,211.4414,325.67,209.43" style="stroke:#181818;stroke-width:1;"/></g><!--link Game play to Show state information--><g class="link" data-entity-1="Game play" data-entity-2="Show state information" data-source-line="14" data-uid="lnk16" id="link_Game play_Show state information"><path d="M407.4,207.56 C421.25,202.39 436.77,195.45 449.59,186.79 C465.47,176.05 463.55,166.3 479.59,155.79 C520.08,129.25 565.8285,112.199 605.7085,100.349" fill="none" id="Game play-to-Show state information" style="stroke:#181818;stroke-width:1;"/><polygon fill="#181818" points="611.46,98.64,601.6935,97.3692,606.6671,100.0642,603.9721,105.0378,611.46,98.64" style="stroke:#181818;stroke-width:1;"/><text fill="#000000" font-family="sans-serif" font-size="13" lengthAdjust="spacing" textLength="61.1851" x="481.59" y="120.8569">&#171;extend&#187;</text></g><!--link Game play to Show news--><g class="link" data-entity-1="Game play" data-entity-2="Show news" data-source-line="15" data-uid="lnk18" id="link_Game play_Show news"><path d="M412.72,208.94 C432.89,204.24 457.47,198.6 479.59,193.79 C530.55,182.69 583.3066,171.947 622.8466,164.037" fill="none" id="Game play-to-Show news" style="stroke:#181818;stroke-width:1;"/><polygon fill="#181818" points="628.73,162.86,619.1202,160.7032,623.8271,163.8408,620.6895,168.5478,628.73,162.86" style="stroke:#181818;stroke-width:1;"/><text fill="#000000" font-family="sans-serif" font-size="13" lengthAdjust="spacing" textLength="61.1851" x="481.59" y="176.8569">&#171;extend&#187;</text></g><!--link Game play to Make decision--><g class="link" data-entity-1="Game play" data-entity-2="Make decision" data-source-line="16" data-uid="lnk20" id="link_Game play_Make decision"><path d="M427.02,218.79 C478.05,218.79 547.51,218.79 601.67,218.79" fill="none" id="Game play-to-Make decision" style="stroke:#181818;stroke-width:1;"/><polygon fill="#181818" points="607.67,218.79,598.67,214.79,602.67,218.79,598.67,222.79,607.67,218.79" style="stroke:#181818;stroke-width:1;"/><text fill="#000000" font-family="sans-serif" font-size="13" lengthAdjust="spacing" textLength="61.1851" x="481.59" y="214.8569">&#171;extend&#187;</text></g><!--link Game play to Show actor map\n and highlight player--><g class="link" data-entity-1="Game play" data-entity-2="Show actor map\n and highlight player" data-source-line="17" data-uid="lnk22" id="link_Game play_Show actor map\n and highlight player"><path d="M411.62,228.96 C460.55,241.21 537.8097,260.5625 597.4697,275.5025" fill="none" id="Game play-to-Show actor map\n and highlight player" style="stroke:#181818;stroke-width:1;"/><polygon fill="#181818" points="603.29,276.96,595.5313,270.8935,598.4398,275.7454,593.5879,278.6539,603.29,276.96" style="stroke:#181818;stroke-width:1;"/><text fill="#000000" font-family="sans-serif" font-size="13" lengthAdjust="spacing" textLength="63.0068" x="480.59" y="242.8569">&#171;include&#187;</text></g><!--link Game play to Show scores--><g class="link" data-entity-1="Game play" data-entity-2="Show scores" data-source-line="18" data-uid="lnk24" id="link_Game play_Show scores"><path d="M408.07,229.76 C421.86,234.87 437.16,241.83 449.59,250.79 C466.21,262.77 463.62,272.95 479.59,285.79 C516.93,315.82 530.56,317.87 574.59,336.79 C593.71,345.01 609.8811,350.6669 628.2911,356.3969" fill="none" id="Game play-to-Show scores" style="stroke:#181818;stroke-width:1;"/><polygon fill="#181818" points="634.02,358.18,626.6153,351.6861,629.2459,356.6941,624.2379,359.3246,634.02,358.18" style="stroke:#181818;stroke-width:1;"/><text fill="#000000" font-family="sans-serif" font-size="13" lengthAdjust="spacing" textLength="63.0068" x="480.59" y="281.8569">&#171;include&#187;</text></g><!--link Make decision to Send data to\ngame data platform--><g class="link" data-entity-1="Make decision" data-entity-2="Send data to\ngame data platform" data-source-line="20" data-uid="lnk26" id="link_Make decision_Send data to\ngame data platform"><path d="M742.91,218.79 C788.72,218.79 844.26,218.79 895.11,218.79" fill="none" id="Make decision-to-Send data to\ngame data platform" style="stroke:#181818;stroke-width:1;"/><polygon fill="#181818" points="901.11,218.79,892.11,214.79,896.11,218.79,892.11,222.79,901.11,218.79" style="stroke:#181818;stroke-width:1;"/><text fill="#000000" font-family="sans-serif" font-size="13" lengthAdjust="spacing" textLength="63.0068" x="807.35" y="214.8569">&#171;include&#187;</text></g><!--link GP to Show debriefing--><g class="link" data-entity-1="GP" data-entity-2="Show debriefing" data-source-line="22" data-uid="lnk28" id="link_GP_Show debriefing"><path d="M209.54,203.75 C233.12,218.62 262.86,236.54 290.43,250.79 C303.63,257.61 312.9861,261.9477 326.2161,267.5577" fill="none" id="GP-to-Show debriefing" style="stroke:#181818;stroke-width:1;"/><polygon fill="#181818" points="331.74,269.9,325.0157,262.7039,327.1367,267.9481,321.8926,270.0691,331.74,269.9" style="stroke:#181818;stroke-width:1;"/></g><!--link GP to Logout from game--><g class="link" data-entity-1="GP" data-entity-2="Logout from game" data-source-line="24" data-uid="lnk30" id="link_GP_Logout from game"><path d="M209.4,210.75 C216.38,217.14 223.31,223.95 229.43,230.79 C261.16,266.25 253.94,288.23 290.43,318.79 C300.44,327.17 307.2567,331.5296 319.1067,336.9096" fill="none" id="GP-to-Logout from game" style="stroke:#181818;stroke-width:1;"/><polygon fill="#181818" points="324.57,339.39,318.0286,332.0272,320.0172,337.323,314.7215,339.3116,324.57,339.39" style="stroke:#181818;stroke-width:1;"/></g><!--SRC=[ZP71QiCm38RlVWhHqtB82uoGQouR5CfklMYsaeWbTf0Lia8VVaxTZMnhsMxMpwzVygU1MWKD8Dpr2ew5h7BmnkmQ70cc0KyaEy08pTwyH1AepcMv5hagoneU3gGmOOnB45SOq-op_8nl17DoSL8_nQVGiLydTYb_OpxqOO5NOMhPTnlzQut2RDwRdgYe1EpR82EkknVm25K5zAxa7TJrdJvFI_pRUlc38yln_ybeDGYCE1qzO3BsYUrmuPjnNcFOss5sT3ydsY0KVxlDpwskHqYZ72eck4U_qirLIjMLpOsSR-mTtQ2VhXLcXLR2c0_s0G00]--></g></svg>