<svg xmlns="http://www.w3.org/2000/svg" xmlns:xlink="http://www.w3.org/1999/xlink" contentStyleType="text/css" data-diagram-type="DESCRIPTION" height="214px" preserveAspectRatio="none" style="width:483px;height:214px;background:#FFFFFF;" version="1.1" viewBox="0 0 483 214" width="483px" zoomAndPan="magnify"><defs/><g><!--entity DA--><g class="entity" data-entity="DA" data-source-line="3" data-uid="ent0002" id="entity_DA"><ellipse cx="163.1636" cy="74.13" fill="#F1F1F1" rx="8" ry="8" style="stroke:#181818;stroke-width:0.5;"/><path d="M163.1636,82.13 L163.1636,109.13 M150.1636,90.13 L176.1636,90.13 M163.1636,109.13 L150.1636,124.13 M163.1636,109.13 L176.1636,124.13" fill="none" style="stroke:#181818;stroke-width:0.5;"/><text fill="#000000" font-family="sans-serif" font-size="14" lengthAdjust="spacing" textLength="88.8672" x="118.73" y="138.6251">Data analyst</text></g><!--entity User--><g class="entity" data-entity="User" data-source-line="4" data-uid="ent0003" id="entity_User"><ellipse cx="21.9551" cy="119.13" fill="#F1F1F1" rx="8" ry="8" style="stroke:#181818;stroke-width:0.5;"/><path d="M21.9551,127.13 L21.9551,154.13 M8.9551,135.13 L34.9551,135.13 M21.9551,154.13 L8.9551,169.13 M21.9551,154.13 L34.9551,169.13" fill="none" style="stroke:#181818;stroke-width:0.5;"/><text fill="#000000" font-family="sans-serif" font-size="14" lengthAdjust="spacing" textLength="31.9102" x="6" y="183.6251">User</text></g><!--entity Set password--><g class="entity" data-entity="Set password" data-source-line="6" data-uid="ent0005" id="entity_Set password"><ellipse cx="163.1679" cy="192.7816" fill="#F1F1F1" rx="65.2579" ry="15.4516" style="stroke:#181818;stroke-width:0.5;"/><text fill="#000000" font-family="sans-serif" font-size="14" lengthAdjust="spacing" textLength="94.1514" x="116.0922" y="197.43">Set password</text></g><!--entity Login to\ngame data platform--><g class="entity" data-entity="Login to\ngame data platform" data-source-line="8" data-uid="ent0007" id="entity_Login to\ngame data platform"><ellipse cx="382.9194" cy="29.777" fill="#F1F1F1" rx="92.1694" ry="23.777" style="stroke:#181818;stroke-width:0.5;"/><text fill="#000000" font-family="sans-serif" font-size="14" lengthAdjust="spacing" textLength="56.5195" x="354.6596" y="22.8679">Login to</text><text fill="#000000" font-family="sans-serif" font-size="14" lengthAdjust="spacing" textLength="139.8838" x="312.9775" y="39.1648">game data platform</text></g><!--entity Analyze data--><g class="entity" data-entity="Analyze data" data-source-line="9" data-uid="ent0009" id="entity_Analyze data"><ellipse cx="382.9212" cy="103.7762" fill="#F1F1F1" rx="64.1312" ry="15.2262" style="stroke:#181818;stroke-width:0.5;"/><text fill="#000000" font-family="sans-serif" font-size="14" lengthAdjust="spacing" textLength="91.1504" x="337.346" y="108.4247">Analyze data</text></g><!--entity Logout from\ngame data platform--><g class="entity" data-entity="Logout from\ngame data platform" data-source-line="10" data-uid="ent0011" id="entity_Logout from\ngame data platform"><ellipse cx="382.9179" cy="178.7796" fill="#F1F1F1" rx="94.4979" ry="24.3196" style="stroke:#181818;stroke-width:0.5;"/><text fill="#000000" font-family="sans-serif" font-size="14" lengthAdjust="spacing" textLength="85.5176" x="340.1591" y="172.7281">Logout from</text><text fill="#000000" font-family="sans-serif" font-size="14" lengthAdjust="spacing" textLength="139.8838" x="312.976" y="189.0249">game data platform</text></g><!--reverse link User to DA--><g class="link" data-entity-1="User" data-entity-2="DA" data-source-line="4" data-uid="lnk4" id="link_User_DA"><path d="M55.5174,138.2535 C74.6974,132.0535 91.12,126.74 118.46,117.91" fill="none" id="User-backto-DA" style="stroke:#181818;stroke-width:1;"/><polygon fill="none" points="38.39,143.79,57.3629,143.9626,53.6719,132.5444,38.39,143.79" style="stroke:#181818;stroke-width:1;"/></g><!--link User to Set password--><g class="link" data-entity-1="User" data-entity-2="Set password" data-source-line="6" data-uid="lnk6" id="link_User_Set password"><path d="M38.39,153.66 C58.56,160.03 88.9092,169.6211 116.9292,178.4811" fill="none" id="User-to-Set password" style="stroke:#181818;stroke-width:1;"/><polygon fill="#181818" points="122.65,180.29,115.2747,173.7627,117.8827,178.7826,112.8628,181.3905,122.65,180.29" style="stroke:#181818;stroke-width:1;"/></g><!--link DA to Login to\ngame data platform--><g class="link" data-entity-1="DA" data-entity-2="Login to\ngame data platform" data-source-line="8" data-uid="lnk8" id="link_DA_Login to\ngame data platform"><path d="M207.97,88.89 C241.88,77.37 283.3993,63.2612 320.0793,50.7912" fill="none" id="DA-to-Login to\ngame data platform" style="stroke:#181818;stroke-width:1;"/><polygon fill="#181818" points="325.76,48.86,315.9515,47.9697,321.0261,50.4694,318.5265,55.544,325.76,48.86" style="stroke:#181818;stroke-width:1;"/></g><!--link DA to Analyze data--><g class="link" data-entity-1="DA" data-entity-2="Analyze data" data-source-line="9" data-uid="lnk10" id="link_DA_Analyze data"><path d="M207.97,103.78 C239.64,103.78 276.91,103.78 312.38,103.78" fill="none" id="DA-to-Analyze data" style="stroke:#181818;stroke-width:1;"/><polygon fill="#181818" points="318.38,103.78,309.38,99.78,313.38,103.78,309.38,107.78,318.38,103.78" style="stroke:#181818;stroke-width:1;"/></g><!--link DA to Logout from\ngame data platform--><g class="link" data-entity-1="DA" data-entity-2="Logout from\ngame data platform" data-source-line="10" data-uid="lnk12" id="link_DA_Logout from\ngame data platform"><path d="M207.97,118.87 C241.63,130.46 282.7174,144.605 319.2774,157.205" fill="none" id="DA-to-Logout from\ngame data platform" style="stroke:#181818;stroke-width:1;"/><polygon fill="#181818" points="324.95,159.16,317.7445,152.4458,320.2229,157.5308,315.1378,160.0092,324.95,159.16" style="stroke:#181818;stroke-width:1;"/></g><!--SRC=[ROqx2a8n44Nxh69ubIco0n42AUt4pcOm7mD9vZ4PUIWkNaD0B2plxzmIee0GS4ut0PyvN2LJKsfnA0ZOi3owB80Td5Nd7XZsBsE6cCgO0-nEGM35tZTYhvLoTjf7Ihbzw9UMi0RmWxWMb4XSzRTbnyTpnlftItU1o5J_pjy0]--></g></svg>