<svg xmlns="http://www.w3.org/2000/svg" xmlns:xlink="http://www.w3.org/1999/xlink" contentStyleType="text/css" data-diagram-type="DESCRIPTION" height="428px" preserveAspectRatio="none" style="width:965px;height:428px;background:#FFFFFF;" version="1.1" viewBox="0 0 965 428" width="965px" zoomAndPan="magnify"><defs/><g><!--entity GP--><g class="entity" data-entity="GP" data-source-line="3" data-uid="ent0002" id="entity_GP"><ellipse cx="163.1693" cy="157.14" fill="#F1F1F1" rx="8" ry="8" style="stroke:#181818;stroke-width:0.5;"/><path d="M163.1693,165.14 L163.1693,192.14 M150.1693,173.14 L176.1693,173.14 M163.1693,192.14 L150.1693,207.14 M163.1693,192.14 L176.1693,207.14" fill="none" style="stroke:#181818;stroke-width:0.5;"/><text fill="#000000" font-family="sans-serif" font-size="14" lengthAdjust="spacing" textLength="90.1387" x="118.1" y="221.6351">Game player</text></g><!--entity User--><g class="entity" data-entity="User" data-source-line="4" data-uid="ent0003" id="entity_User"><ellipse cx="21.9551" cy="202.14" fill="#F1F1F1" rx="8" ry="8" style="stroke:#181818;stroke-width:0.5;"/><path d="M21.9551,210.14 L21.9551,237.14 M8.9551,218.14 L34.9551,218.14 M21.9551,237.14 L8.9551,252.14 M21.9551,237.14 L34.9551,252.14" fill="none" style="stroke:#181818;stroke-width:0.5;"/><text fill="#000000" font-family="sans-serif" font-size="14" lengthAdjust="spacing" textLength="31.9102" x="6" y="266.6351">User</text></g><!--entity Set password--><g class="entity" data-entity="Set password" data-source-line="6" data-uid="ent0005" id="entity_Set password"><ellipse cx="163.1679" cy="275.7916" fill="#F1F1F1" rx="65.2579" ry="15.4516" style="stroke:#181818;stroke-width:0.5;"/><text fill="#000000" font-family="sans-serif" font-size="14" lengthAdjust="spacing" textLength="94.1514" x="116.0922" y="280.44">Set password</text></g><!--entity Make userid--><g class="entity" data-entity="Make userid" data-source-line="8" data-uid="ent0007" id="entity_Make userid"><ellipse cx="368.0054" cy="20.7851" fill="#F1F1F1" rx="61.9254" ry="14.7851" style="stroke:#181818;stroke-width:0.5;"/><text fill="#000000" font-family="sans-serif" font-size="14" lengthAdjust="spacing" textLength="85.1416" x="325.4346" y="25.4335">Make userid</text></g><!--entity Login to game--><g class="entity" data-entity="Login to game" data-source-line="9" data-uid="ent0009" id="entity_Login to game"><ellipse cx="368.014" cy="86.7928" fill="#F1F1F1" rx="67.764" ry="15.9528" style="stroke:#181818;stroke-width:0.5;"/><text fill="#000000" font-family="sans-serif" font-size="14" lengthAdjust="spacing" textLength="100.6865" x="317.6707" y="91.4412">Login to game</text></g><!--entity Show briefing--><g class="entity" data-entity="Show briefing" data-source-line="11" data-uid="ent0011" id="entity_Show briefing"><ellipse cx="368.0104" cy="153.7881" fill="#F1F1F1" rx="65.9404" ry="15.5881" style="stroke:#181818;stroke-width:0.5;"/><text fill="#000000" font-family="sans-serif" font-size="14" lengthAdjust="spacing" textLength="95.9492" x="320.0358" y="158.4365">Show briefing</text></g><!--entity Game play--><g class="entity" data-entity="Game play" data-source-line="13" data-uid="ent0013" id="entity_Game play"><ellipse cx="368.0071" cy="218.7936" fill="#F1F1F1" rx="56.5771" ry="14.5236" style="stroke:#181818;stroke-width:0.5;"/><text fill="#000000" font-family="sans-serif" font-size="14" lengthAdjust="spacing" textLength="75.7695" x="330.1224" y="223.4421">Game play</text></g><!--entity Show state information--><g class="entity" data-entity="Show state information" data-source-line="14" data-uid="ent0015" id="entity_Show state information"><ellipse cx="608.4701" cy="33.79" fill="#F1F1F1" rx="94.2001" ry="21.24" style="stroke:#181818;stroke-width:0.5;"/><text fill="#000000" font-family="sans-serif" font-size="14" lengthAdjust="spacing" textLength="163.1875" x="526.8764" y="38.4385">Show state information</text></g><!--entity Show news--><g class="entity" data-entity="Show news" data-source-line="15" data-uid="ent0017" id="entity_Show news"><ellipse cx="608.4668" cy="104.7936" fill="#F1F1F1" rx="58.4768" ry="14.5236" style="stroke:#181818;stroke-width:0.5;"/><text fill="#000000" font-family="sans-serif" font-size="14" lengthAdjust="spacing" textLength="78.4561" x="569.2388" y="109.4421">Show news</text></g><!--entity Chat with players\nand with facilitator--><g class="entity" data-entity="Chat with players\nand with facilitator" data-source-line="16" data-uid="ent0019" id="entity_Chat with players\nand with facilitator"><ellipse cx="608.4667" cy="179.7873" fill="#F1F1F1" rx="94.5867" ry="25.6673" style="stroke:#181818;stroke-width:0.5;"/><text fill="#000000" font-family="sans-serif" font-size="14" lengthAdjust="spacing" textLength="122.623" x="547.1552" y="175.7453">Chat with players</text><text fill="#000000" font-family="sans-serif" font-size="14" lengthAdjust="spacing" textLength="131.6943" x="542.6195" y="192.0422">and with facilitator</text></g><!--entity Make decision--><g class="entity" data-entity="Make decision" data-source-line="17" data-uid="ent0021" id="entity_Make decision"><ellipse cx="608.4686" cy="256.7937" fill="#F1F1F1" rx="67.3186" ry="15.8637" style="stroke:#181818;stroke-width:0.5;"/><text fill="#000000" font-family="sans-serif" font-size="14" lengthAdjust="spacing" textLength="99.5381" x="558.6996" y="261.4422">Make decision</text></g><!--entity Show actor map\n and highlight player--><g class="entity" data-entity="Show actor map\n and highlight player" data-source-line="18" data-uid="ent0023" id="entity_Show actor map\n and highlight player"><ellipse cx="608.4739" cy="332.7949" fill="#F1F1F1" rx="100.8839" ry="24.9649" style="stroke:#181818;stroke-width:0.5;"/><text fill="#000000" font-family="sans-serif" font-size="14" lengthAdjust="spacing" textLength="113.8662" x="551.5408" y="327.7245">Show actor map</text><text fill="#000000" font-family="sans-serif" font-size="14" lengthAdjust="spacing" textLength="140.7998" x="540.2991" y="344.0214">and highlight player</text></g><!--entity Show scores--><g class="entity" data-entity="Show scores" data-source-line="19" data-uid="ent0025" id="entity_Show scores"><ellipse cx="608.4728" cy="407.7926" fill="#F1F1F1" rx="62.7628" ry="14.9526" style="stroke:#181818;stroke-width:0.5;"/><text fill="#000000" font-family="sans-serif" font-size="14" lengthAdjust="spacing" textLength="87.4453" x="564.7502" y="412.441">Show scores</text></g><!--entity Send data to\ngame data platform--><g class="entity" data-entity="Send data to\ngame data platform" data-source-line="21" data-uid="ent0027" id="entity_Send data to\ngame data platform"><ellipse cx="864.2766" cy="256.7894" fill="#F1F1F1" rx="94.9266" ry="24.4194" style="stroke:#181818;stroke-width:0.5;"/><text fill="#000000" font-family="sans-serif" font-size="14" lengthAdjust="spacing" textLength="89.749" x="819.4021" y="250.8924">Send data to</text><text fill="#000000" font-family="sans-serif" font-size="14" lengthAdjust="spacing" textLength="139.8838" x="794.3347" y="267.1892">game data platform</text></g><!--entity Show debriefing--><g class="entity" data-entity="Show debriefing" data-source-line="23" data-uid="ent0029" id="entity_Show debriefing"><ellipse cx="368.0099" cy="284.788" fill="#F1F1F1" rx="72.8399" ry="16.968" style="stroke:#181818;stroke-width:0.5;"/><text fill="#000000" font-family="sans-serif" font-size="14" lengthAdjust="spacing" textLength="113.4492" x="311.2853" y="289.4364">Show debriefing</text></g><!--entity Logout from game--><g class="entity" data-entity="Logout from game" data-source-line="25" data-uid="ent0031" id="entity_Logout from game"><ellipse cx="368.0097" cy="354.7859" fill="#F1F1F1" rx="79.5797" ry="18.3159" style="stroke:#181818;stroke-width:0.5;"/><text fill="#000000" font-family="sans-serif" font-size="14" lengthAdjust="spacing" textLength="129.6846" x="303.1674" y="359.4344">Logout from game</text></g><!--reverse link User to GP--><g class="link" data-entity-1="User" data-entity-2="GP" data-source-line="4" data-uid="lnk4" id="link_User_GP"><path d="M55.516,221.2592 C74.556,215.0992 90.63,209.91 117.86,201.11" fill="none" id="User-backto-GP" style="stroke:#181818;stroke-width:1;"/><polygon fill="none" points="38.39,226.8,57.3629,226.9679,53.6691,215.5506,38.39,226.8" style="stroke:#181818;stroke-width:1;"/></g><!--link User to Set password--><g class="link" data-entity-1="User" data-entity-2="Set password" data-source-line="6" data-uid="lnk6" id="link_User_Set password"><path d="M38.39,236.66 C58.56,243.04 88.9092,252.6311 116.9292,261.4911" fill="none" id="User-to-Set password" style="stroke:#181818;stroke-width:1;"/><polygon fill="#181818" points="122.65,263.3,115.2747,256.7727,117.8827,261.7926,112.8628,264.4005,122.65,263.3" style="stroke:#181818;stroke-width:1;"/></g><!--link GP to Make userid--><g class="link" data-entity-1="GP" data-entity-2="Make userid" data-source-line="8" data-uid="lnk8" id="link_GP_Make userid"><path d="M192.79,148.23 C215.96,119.17 250.83,79.98 288.43,53.79 C300.93,45.08 310.4977,40.2039 324.1577,34.8939" fill="none" id="GP-to-Make userid" style="stroke:#181818;stroke-width:1;"/><polygon fill="#181818" points="329.75,32.72,319.9122,32.2526,325.0897,34.5316,322.8108,39.7091,329.75,32.72" style="stroke:#181818;stroke-width:1;"/></g><!--link GP to Login to game--><g class="link" data-entity-1="GP" data-entity-2="Login to game" data-source-line="9" data-uid="lnk10" id="link_GP_Login to game"><path d="M208.59,162.09 C232.09,149.3 261.57,133.7 288.43,120.79 C302.89,113.83 313.6182,109.0373 327.5682,103.1073" fill="none" id="GP-to-Login to game" style="stroke:#181818;stroke-width:1;"/><polygon fill="#181818" points="333.09,100.76,323.2424,100.5997,328.4885,102.7161,326.3721,107.9621,333.09,100.76" style="stroke:#181818;stroke-width:1;"/></g><!--link GP to Show briefing--><g class="link" data-entity-1="GP" data-entity-2="Show briefing" data-source-line="11" data-uid="lnk12" id="link_GP_Show briefing"><path d="M208.68,179.55 C239.35,174.56 274.3679,168.864 306.9279,163.564" fill="none" id="GP-to-Show briefing" style="stroke:#181818;stroke-width:1;"/><polygon fill="#181818" points="312.85,162.6,303.3243,160.0979,307.915,163.4033,304.6096,167.994,312.85,162.6" style="stroke:#181818;stroke-width:1;"/></g><!--link GP to Game play--><g class="link" data-entity-1="GP" data-entity-2="Game play" data-source-line="13" data-uid="lnk14" id="link_GP_Game play"><path d="M208.68,193.81 C241.33,198.96 279.6931,205.016 313.1331,210.286" fill="none" id="GP-to-Game play" style="stroke:#181818;stroke-width:1;"/><polygon fill="#181818" points="319.06,211.22,310.7924,205.8677,314.121,210.4416,309.547,213.7702,319.06,211.22" style="stroke:#181818;stroke-width:1;"/></g><!--link Game play to Show state information--><g class="link" data-entity-1="Game play" data-entity-2="Show state information" data-source-line="14" data-uid="lnk16" id="link_Game play_Show state information"><path d="M409.23,208.5 C422.58,203.59 436.78,196.58 447.59,186.79 C490,148.33 464.89,110.94 507.59,72.79 C518.48,63.05 526.5445,57.9106 540.1745,52.2806" fill="none" id="Game play-to-Show state information" style="stroke:#181818;stroke-width:1;"/><polygon fill="#181818" points="545.72,49.99,535.8746,49.7289,541.0987,51.8989,538.9288,57.123,545.72,49.99" style="stroke:#181818;stroke-width:1;"/></g><!--link Game play to Show news--><g class="link" data-entity-1="Game play" data-entity-2="Show news" data-source-line="15" data-uid="lnk18" id="link_Game play_Show news"><path d="M403.75,207.28 C417.83,201.95 433.95,194.98 447.59,186.79 C477.35,168.92 477.16,153.5 507.59,136.79 C525.3,127.05 540.6561,121.3816 558.9161,116.2216" fill="none" id="Game play-to-Show news" style="stroke:#181818;stroke-width:1;"/><polygon fill="#181818" points="564.69,114.59,554.9414,113.1882,559.8784,115.9497,557.1169,120.8867,564.69,114.59" style="stroke:#181818;stroke-width:1;"/></g><!--link Game play to Chat with players\nand with facilitator--><g class="link" data-entity-1="Game play" data-entity-2="Chat with players\nand with facilitator" data-source-line="16" data-uid="lnk20" id="link_Game play_Chat with players\nand with facilitator"><path d="M416.69,210.99 C448.09,205.85 484.0686,199.9677 520.5986,193.9977" fill="none" id="Game play-to-Chat with players\nand with facilitator" style="stroke:#181818;stroke-width:1;"/><polygon fill="#181818" points="526.52,193.03,516.9927,190.534,521.5855,193.8364,518.283,198.4292,526.52,193.03" style="stroke:#181818;stroke-width:1;"/></g><!--link Game play to Make decision--><g class="link" data-entity-1="Game play" data-entity-2="Make decision" data-source-line="17" data-uid="lnk22" id="link_Game play_Make decision"><path d="M416.98,226.43 C455.87,232.63 504.8247,240.4362 545.6947,246.9462" fill="none" id="Game play-to-Make decision" style="stroke:#181818;stroke-width:1;"/><polygon fill="#181818" points="551.62,247.89,543.3613,242.5241,546.6822,247.1035,542.1028,250.4245,551.62,247.89" style="stroke:#181818;stroke-width:1;"/></g><!--link Game play to Show actor map\n and highlight player--><g class="link" data-entity-1="Game play" data-entity-2="Show actor map\n and highlight player" data-source-line="18" data-uid="lnk24" id="link_Game play_Show actor map\n and highlight player"><path d="M402.13,230.67 C416.4,236.19 433.09,243.21 447.59,250.79 C475.77,265.52 479.54,274.78 507.59,289.79 C522.07,297.54 532.7251,302.6265 547.7751,309.0765" fill="none" id="Game play-to-Show actor map\n and highlight player" style="stroke:#181818;stroke-width:1;"/><polygon fill="#181818" points="553.29,311.44,546.5934,304.2181,548.6943,309.4704,543.442,311.5713,553.29,311.44" style="stroke:#181818;stroke-width:1;"/></g><!--link Game play to Show scores--><g class="link" data-entity-1="Game play" data-entity-2="Show scores" data-source-line="19" data-uid="lnk26" id="link_Game play_Show scores"><path d="M409.42,228.87 C422.79,233.76 436.95,240.81 447.59,250.79 C492.24,292.67 461.54,334.44 507.59,374.79 C521.18,386.7 533.4332,392.6836 550.4232,397.5636" fill="none" id="Game play-to-Show scores" style="stroke:#181818;stroke-width:1;"/><polygon fill="#181818" points="556.19,399.22,548.644,392.8909,551.3843,397.8397,546.4355,400.58,556.19,399.22" style="stroke:#181818;stroke-width:1;"/></g><!--link Make decision to Send data to\ngame data platform--><g class="link" data-entity-1="Make decision" data-entity-2="Send data to\ngame data platform" data-source-line="21" data-uid="lnk28" id="link_Make decision_Send data to\ngame data platform"><path d="M676.15,256.79 C704.5,256.79 732.07,256.79 762.89,256.79" fill="none" id="Make decision-to-Send data to\ngame data platform" style="stroke:#181818;stroke-width:1;"/><polygon fill="#181818" points="768.89,256.79,759.89,252.79,763.89,256.79,759.89,260.79,768.89,256.79" style="stroke:#181818;stroke-width:1;"/></g><!--link GP to Show debriefing--><g class="link" data-entity-1="GP" data-entity-2="Show debriefing" data-source-line="23" data-uid="lnk30" id="link_GP_Show debriefing"><path d="M208.67,210.63 C232.19,223 261.67,238.12 288.43,250.79 C302.27,257.34 312.1734,261.7604 325.6634,267.5304" fill="none" id="GP-to-Show debriefing" style="stroke:#181818;stroke-width:1;"/><polygon fill="#181818" points="331.18,269.89,324.4782,262.6729,326.5829,267.9237,321.3321,270.0284,331.18,269.89" style="stroke:#181818;stroke-width:1;"/></g><!--link GP to Logout from game--><g class="link" data-entity-1="GP" data-entity-2="Logout from game" data-source-line="25" data-uid="lnk32" id="link_GP_Logout from game"><path d="M208.72,223.7 C215.52,229.87 222.3,236.36 228.43,242.79 C258.11,273.95 254.59,292.2 288.43,318.79 C298.93,327.04 306.1493,331.4359 318.2493,336.8859" fill="none" id="GP-to-Logout from game" style="stroke:#181818;stroke-width:1;"/><polygon fill="#181818" points="323.72,339.35,317.1567,332.0068,319.1611,337.2966,313.8713,339.301,323.72,339.35" style="stroke:#181818;stroke-width:1;"/></g><!--SRC=[VP71QiCm38RlVWhHqth86unUTiXbWqBPBHSjbcEnn0wsIXZquIlNwmWbtStwBUcNFeta12H2ui4BM4xK2yTWmEnQd0Zc4NyexG0pj4VpcId1wwLfIb2ZfZd0oua4PinvYSdkZMcFLVx0RuApPh6gT_4z3XoAvQ3zLyad7nVuIaoEmx3I_yROczLxLPC5XO23Ysd2Clopn41BtlXxyoYmiFZVPNCNCDYgEEnvP3M8QQFojf-bdlC_hjXhCKmuTm5ANw-annljQlTqhJucqddDWysTkBQoAAWakr1GraYxI07n2DRI1bezHJmBk1IdUeqh]--></g></svg>