<svg xmlns="http://www.w3.org/2000/svg" xmlns:xlink="http://www.w3.org/1999/xlink" contentStyleType="text/css" data-diagram-type="DESCRIPTION" height="417px" preserveAspectRatio="none" style="width:869px;height:417px;background:#FFFFFF;" version="1.1" viewBox="0 0 869 417" width="869px" zoomAndPan="magnify"><defs/><g><!--entity GD--><g class="entity" data-entity="GD" data-source-line="3" data-uid="ent0002" id="entity_GD"><ellipse cx="163.1707" cy="89.56" fill="#F1F1F1" rx="8" ry="8" style="stroke:#181818;stroke-width:0.5;"/><path d="M163.1707,97.56 L163.1707,124.56 M150.1707,105.56 L176.1707,105.56 M163.1707,124.56 L150.1707,139.56 M163.1707,124.56 L176.1707,139.56" fill="none" style="stroke:#181818;stroke-width:0.5;"/><text fill="#000000" font-family="sans-serif" font-size="14" lengthAdjust="spacing" textLength="106.9414" x="109.7" y="154.0551">Game designer</text></g><!--entity User--><g class="entity" data-entity="User" data-source-line="4" data-uid="ent0003" id="entity_User"><ellipse cx="21.9551" cy="134.56" fill="#F1F1F1" rx="8" ry="8" style="stroke:#181818;stroke-width:0.5;"/><path d="M21.9551,142.56 L21.9551,169.56 M8.9551,150.56 L34.9551,150.56 M21.9551,169.56 L8.9551,184.56 M21.9551,169.56 L34.9551,184.56" fill="none" style="stroke:#181818;stroke-width:0.5;"/><text fill="#000000" font-family="sans-serif" font-size="14" lengthAdjust="spacing" textLength="31.9102" x="6" y="199.0551">User</text></g><!--entity Set password--><g class="entity" data-entity="Set password" data-source-line="6" data-uid="ent0005" id="entity_Set password"><ellipse cx="163.1679" cy="208.2116" fill="#F1F1F1" rx="65.2579" ry="15.4516" style="stroke:#181818;stroke-width:0.5;"/><text fill="#000000" font-family="sans-serif" font-size="14" lengthAdjust="spacing" textLength="94.1514" x="116.0922" y="212.86">Set password</text></g><!--entity Create game--><g class="entity" data-entity="Create game" data-source-line="8" data-uid="ent0007" id="entity_Create game"><ellipse cx="353.0626" cy="21.2145" fill="#F1F1F1" rx="64.0726" ry="15.2145" style="stroke:#181818;stroke-width:0.5;"/><text fill="#000000" font-family="sans-serif" font-size="14" lengthAdjust="spacing" textLength="90.9932" x="307.566" y="25.863">Create game</text></g><!--entity Clone game--><g class="entity" data-entity="Clone game" data-source-line="10" data-uid="ent0009" id="entity_Clone game"><ellipse cx="353.0626" cy="86.2145" fill="#F1F1F1" rx="61.4726" ry="14.6945" style="stroke:#181818;stroke-width:0.5;"/><text fill="#000000" font-family="sans-serif" font-size="14" lengthAdjust="spacing" textLength="83.8838" x="311.1207" y="90.863">Clone game</text></g><!--entity Delete game--><g class="entity" data-entity="Delete game" data-source-line="12" data-uid="ent0011" id="entity_Delete game"><ellipse cx="353.0551" cy="151.213" fill="#F1F1F1" rx="63.7651" ry="15.153" style="stroke:#181818;stroke-width:0.5;"/><text fill="#000000" font-family="sans-serif" font-size="14" lengthAdjust="spacing" textLength="90.166" x="307.9721" y="155.8615">Delete game</text></g><!--entity Design game--><g class="entity" data-entity="Design game" data-source-line="14" data-uid="ent0013" id="entity_Design game"><ellipse cx="353.0574" cy="216.2075" fill="#F1F1F1" rx="64.6374" ry="15.3275" style="stroke:#181818;stroke-width:0.5;"/><text fill="#000000" font-family="sans-serif" font-size="14" lengthAdjust="spacing" textLength="92.5039" x="306.8054" y="220.8559">Design game</text></g><!--entity Choose game--><g class="entity" data-entity="Choose game" data-source-line="15" data-uid="ent0015" id="entity_Choose game"><ellipse cx="569.8539" cy="52.2108" fill="#F1F1F1" rx="65.9039" ry="15.5808" style="stroke:#181818;stroke-width:0.5;"/><text fill="#000000" font-family="sans-serif" font-size="14" lengthAdjust="spacing" textLength="95.8535" x="521.9271" y="56.8592">Choose game</text></g><!--entity Set goals--><g class="entity" data-entity="Set goals" data-source-line="16" data-uid="ent0017" id="entity_Set goals"><ellipse cx="569.8475" cy="117.2136" fill="#F1F1F1" rx="48.7175" ry="14.5236" style="stroke:#181818;stroke-width:0.5;"/><text fill="#000000" font-family="sans-serif" font-size="14" lengthAdjust="spacing" textLength="64.6543" x="537.5203" y="121.8621">Set goals</text></g><!--entity Set actors--><g class="entity" data-entity="Set actors" data-source-line="17" data-uid="ent0019" id="entity_Set actors"><ellipse cx="569.8475" cy="181.2136" fill="#F1F1F1" rx="53.0775" ry="14.5236" style="stroke:#181818;stroke-width:0.5;"/><text fill="#000000" font-family="sans-serif" font-size="14" lengthAdjust="spacing" textLength="70.8203" x="534.4374" y="185.8621">Set actors</text></g><!--entity View defined actors--><g class="entity" data-entity="View defined actors" data-source-line="18" data-uid="ent0021" id="entity_View defined actors"><ellipse cx="569.8473" cy="250.2095" fill="#F1F1F1" rx="83.3473" ry="19.0695" style="stroke:#181818;stroke-width:0.5;"/><text fill="#000000" font-family="sans-serif" font-size="14" lengthAdjust="spacing" textLength="138.5029" x="500.5959" y="254.8579">View defined actors</text></g><!--entity Set scenario--><g class="entity" data-entity="Set scenario" data-source-line="19" data-uid="ent0023" id="entity_Set scenario"><ellipse cx="569.8533" cy="319.2087" fill="#F1F1F1" rx="62.4933" ry="14.8987" style="stroke:#181818;stroke-width:0.5;"/><text fill="#000000" font-family="sans-serif" font-size="14" lengthAdjust="spacing" textLength="86.707" x="526.4998" y="323.8571">Set scenario</text></g><!--entity View scenario timeline--><g class="entity" data-entity="View scenario timeline" data-source-line="20" data-uid="ent0025" id="entity_View scenario timeline"><ellipse cx="569.8511" cy="390.2102" fill="#F1F1F1" rx="92.1511" ry="20.8302" style="stroke:#181818;stroke-width:0.5;"/><text fill="#000000" font-family="sans-serif" font-size="14" lengthAdjust="spacing" textLength="158.5938" x="490.5542" y="394.8587">View scenario timeline</text></g><!--entity Set parameters--><g class="entity" data-entity="Set parameters" data-source-line="21" data-uid="ent0027" id="entity_Set parameters"><ellipse cx="792.9127" cy="250.2105" fill="#F1F1F1" rx="70.9027" ry="16.5805" style="stroke:#181818;stroke-width:0.5;"/><text fill="#000000" font-family="sans-serif" font-size="14" lengthAdjust="spacing" textLength="108.6436" x="738.591" y="254.859">Set parameters</text></g><!--reverse link User to GD--><g class="link" data-entity-1="User" data-entity-2="GD" data-source-line="4" data-uid="lnk4" id="link_User_GD"><path d="M55.5166,153.6811 C72.6466,148.1411 84.11,144.44 109.5,136.24" fill="none" id="User-backto-GD" style="stroke:#181818;stroke-width:1;"/><polygon fill="none" points="38.39,159.22,57.3629,159.39,53.6703,147.9722,38.39,159.22" style="stroke:#181818;stroke-width:1;"/></g><!--link User to Set password--><g class="link" data-entity-1="User" data-entity-2="Set password" data-source-line="6" data-uid="lnk6" id="link_User_Set password"><path d="M38.39,169.09 C58.56,175.46 88.9092,185.0511 116.9292,193.9111" fill="none" id="User-to-Set password" style="stroke:#181818;stroke-width:1;"/><polygon fill="#181818" points="122.65,195.72,115.2747,189.1927,117.8827,194.2126,112.8628,196.8205,122.65,195.72" style="stroke:#181818;stroke-width:1;"/></g><!--link GD to Create game--><g class="link" data-entity-1="GD" data-entity-2="Create game" data-source-line="8" data-uid="lnk8" id="link_GD_Create game"><path d="M217.05,91.49 C239.11,79.95 265,66.41 288.43,54.21 C300.35,48 308.2138,43.9225 319.4738,38.0825" fill="none" id="GD-to-Create game" style="stroke:#181818;stroke-width:1;"/><polygon fill="#181818" points="324.8,35.32,314.969,35.9129,320.3615,37.622,318.6523,43.0145,324.8,35.32" style="stroke:#181818;stroke-width:1;"/></g><!--link GD to Clone game--><g class="link" data-entity-1="GD" data-entity-2="Clone game" data-source-line="10" data-uid="lnk10" id="link_GD_Clone game"><path d="M217.01,109.93 C243.82,105.22 270.2807,100.5791 296.6107,95.9491" fill="none" id="GD-to-Clone game" style="stroke:#181818;stroke-width:1;"/><polygon fill="#181818" points="302.52,94.91,292.9632,92.5291,297.5956,95.7759,294.3488,100.4082,302.52,94.91" style="stroke:#181818;stroke-width:1;"/></g><!--link GD to Delete game--><g class="link" data-entity-1="GD" data-entity-2="Delete game" data-source-line="12" data-uid="lnk12" id="link_GD_Delete game"><path d="M217.01,128.21 C243.06,132.65 268.4451,136.9733 294.3551,141.3833" fill="none" id="GD-to-Delete game" style="stroke:#181818;stroke-width:1;"/><polygon fill="#181818" points="300.27,142.39,292.0688,136.9366,295.3409,141.551,290.7264,144.8232,300.27,142.39" style="stroke:#181818;stroke-width:1;"/></g><!--link GD to Design game--><g class="link" data-entity-1="GD" data-entity-2="Design game" data-source-line="14" data-uid="lnk14" id="link_GD_Design game"><path d="M216.98,147.07 C239.02,158.64 264.92,172.15 288.43,184.21 C299.98,190.14 307.3973,193.889 318.4573,199.439" fill="none" id="GD-to-Design game" style="stroke:#181818;stroke-width:1;"/><polygon fill="#181818" points="323.82,202.13,317.57,194.5183,319.3511,199.8875,313.982,201.6686,323.82,202.13" style="stroke:#181818;stroke-width:1;"/></g><!--link Design game to Choose game--><g class="link" data-entity-1="Design game" data-entity-2="Choose game" data-source-line="15" data-uid="lnk16" id="link_Design game_Choose game"><path d="M388.66,203.14 C398.78,198.24 409.34,191.93 417.7,184.21 C455.49,149.29 437.91,117.83 477.7,85.21 C490.07,75.07 500.1217,69.8288 515.0217,64.8288" fill="none" id="Design game-to-Choose game" style="stroke:#181818;stroke-width:1;"/><polygon fill="#181818" points="520.71,62.92,510.9051,61.991,515.9698,64.5107,513.4501,69.5754,520.71,62.92" style="stroke:#181818;stroke-width:1;"/></g><!--link Design game to Set goals--><g class="link" data-entity-1="Design game" data-entity-2="Set goals" data-source-line="16" data-uid="lnk18" id="link_Design game_Set goals"><path d="M382.77,202.25 C393.77,196.77 406.4,190.34 417.7,184.21 C444.84,169.49 449.68,162.16 477.7,149.21 C495.97,140.77 511.4352,135.0688 528.7752,129.4188" fill="none" id="Design game-to-Set goals" style="stroke:#181818;stroke-width:1;"/><polygon fill="#181818" points="534.48,127.56,524.6836,126.545,529.726,129.109,527.162,134.1514,534.48,127.56" style="stroke:#181818;stroke-width:1;"/></g><!--link Design game to Set actors--><g class="link" data-entity-1="Design game" data-entity-2="Set actors" data-source-line="17" data-uid="lnk20" id="link_Design game_Set actors"><path d="M407.43,207.51 C443.09,201.7 483.568,195.1043 517.468,189.5843" fill="none" id="Design game-to-Set actors" style="stroke:#181818;stroke-width:1;"/><polygon fill="#181818" points="523.39,188.62,513.8641,186.1184,518.455,189.4236,515.1499,194.0144,523.39,188.62" style="stroke:#181818;stroke-width:1;"/></g><!--link Design game to View defined actors--><g class="link" data-entity-1="Design game" data-entity-2="View defined actors" data-source-line="18" data-uid="lnk22" id="link_Design game_View defined actors"><path d="M407.71,224.7 C435.79,229.15 464.5539,233.7014 494.5439,238.4514" fill="none" id="Design game-to-View defined actors" style="stroke:#181818;stroke-width:1;"/><polygon fill="#181818" points="500.47,239.39,492.2066,234.0313,495.5316,238.6078,490.9551,241.9328,500.47,239.39" style="stroke:#181818;stroke-width:1;"/></g><!--link Design game to Set scenario--><g class="link" data-entity-1="Design game" data-entity-2="Set scenario" data-source-line="19" data-uid="lnk24" id="link_Design game_Set scenario"><path d="M376.64,230.86 C400.92,246.22 441.02,270.41 477.7,287.21 C494.47,294.89 507.9672,299.9847 524.3972,305.4547" fill="none" id="Design game-to-Set scenario" style="stroke:#181818;stroke-width:1;"/><polygon fill="#181818" points="530.09,307.35,522.8143,300.7119,525.346,305.7706,520.2873,308.3023,530.09,307.35" style="stroke:#181818;stroke-width:1;"/></g><!--link Design game to View scenario timeline--><g class="link" data-entity-1="Design game" data-entity-2="View scenario timeline" data-source-line="20" data-uid="lnk26" id="link_Design game_View scenario timeline"><path d="M364.66,231.54 C384.2,258.84 428.44,316.28 477.7,351.21 C489.78,359.77 498.5009,364.6263 512.1009,370.4263" fill="none" id="Design game-to-View scenario timeline" style="stroke:#181818;stroke-width:1;"/><polygon fill="#181818" points="517.62,372.78,510.9106,365.5701,513.0208,370.8186,507.7723,372.9288,517.62,372.78" style="stroke:#181818;stroke-width:1;"/></g><!--link Set scenario to Set parameters--><g class="link" data-entity-1="Set scenario" data-entity-2="Set parameters" data-source-line="21" data-uid="lnk28" id="link_Set scenario_Set parameters"><path d="M609.1,307.27 C648.15,295.08 702.9025,277.9878 743.4925,265.3178" fill="none" id="Set scenario-to-Set parameters" style="stroke:#181818;stroke-width:1;"/><polygon fill="#181818" points="749.22,263.53,739.4369,262.3934,744.4471,265.0198,741.8207,270.03,749.22,263.53" style="stroke:#181818;stroke-width:1;"/></g><!--link Set actors to Set parameters--><g class="link" data-entity-1="Set actors" data-entity-2="Set parameters" data-source-line="22" data-uid="lnk29" id="link_Set actors_Set parameters"><path d="M605.88,192.14 C644.71,204.27 701.6424,222.0325 743.3624,235.0525" fill="none" id="Set actors-to-Set parameters" style="stroke:#181818;stroke-width:1;"/><polygon fill="#181818" points="749.09,236.84,741.6903,230.3404,744.317,235.3504,739.307,237.9772,749.09,236.84" style="stroke:#181818;stroke-width:1;"/></g><!--SRC=[VP313e9034Jl-nKD9ptm1yQB97o0qVk67M2JPMkwJRpuyIw22KJmE6-cqwO1hP8oYUzw9US5ZNgEnXIr7K0EoNSHKf1DL5VcbY1qUfNbA2PLbcSwNA7qi2azMTpHcBgQy4LW5TJbgYKD77zWXG3TeEF-cQxKNDKp9-pxurqTsv1sNTieoxPzztZc3xG-mltBZJMfGRJYUR_eco3r0qBkpD7LvFAJaeSLdtsB8pSJRm00]--></g></svg>