<svg xmlns="http://www.w3.org/2000/svg" xmlns:xlink="http://www.w3.org/1999/xlink" contentStyleType="text/css" data-diagram-type="DESCRIPTION" height="722px" preserveAspectRatio="none" style="width:783px;height:722px;background:#FFFFFF;" version="1.1" viewBox="0 0 783 722" width="783px" zoomAndPan="magnify"><defs/><g><!--entity DA--><g class="entity" data-entity="DA" data-source-line="3" data-uid="ent0002" id="entity_DA"><ellipse cx="163.1636" cy="344.38" fill="#F1F1F1" rx="8" ry="8" style="stroke:#181818;stroke-width:0.5;"/><path d="M163.1636,352.38 L163.1636,379.38 M150.1636,360.38 L176.1636,360.38 M163.1636,379.38 L150.1636,394.38 M163.1636,379.38 L176.1636,394.38" fill="none" style="stroke:#181818;stroke-width:0.5;"/><text fill="#000000" font-family="sans-serif" font-size="14" lengthAdjust="spacing" textLength="88.8672" x="118.73" y="408.8751">Data analyst</text></g><!--entity User--><g class="entity" data-entity="User" data-source-line="4" data-uid="ent0003" id="entity_User"><ellipse cx="21.9551" cy="389.38" fill="#F1F1F1" rx="8" ry="8" style="stroke:#181818;stroke-width:0.5;"/><path d="M21.9551,397.38 L21.9551,424.38 M8.9551,405.38 L34.9551,405.38 M21.9551,424.38 L8.9551,439.38 M21.9551,424.38 L34.9551,439.38" fill="none" style="stroke:#181818;stroke-width:0.5;"/><text fill="#000000" font-family="sans-serif" font-size="14" lengthAdjust="spacing" textLength="31.9102" x="6" y="453.8751">User</text></g><!--entity Set password--><g class="entity" data-entity="Set password" data-source-line="6" data-uid="ent0005" id="entity_Set password"><ellipse cx="163.1679" cy="463.0316" fill="#F1F1F1" rx="65.2579" ry="15.4516" style="stroke:#181818;stroke-width:0.5;"/><text fill="#000000" font-family="sans-serif" font-size="14" lengthAdjust="spacing" textLength="94.1514" x="116.0922" y="467.68">Set password</text></g><!--entity Analyze data--><g class="entity" data-entity="Analyze data" data-source-line="8" data-uid="ent0007" id="entity_Analyze data"><ellipse cx="382.9212" cy="225.0262" fill="#F1F1F1" rx="64.1312" ry="15.2262" style="stroke:#181818;stroke-width:0.5;"/><text fill="#000000" font-family="sans-serif" font-size="14" lengthAdjust="spacing" textLength="91.1504" x="337.346" y="229.6747">Analyze data</text></g><!--entity Show session event data\nand facilitator events--><g class="entity" data-entity="Show session event data\nand facilitator events" data-source-line="9" data-uid="ent0009" id="entity_Show session event data\nand facilitator events"><ellipse cx="657.2619" cy="32.0304" fill="#F1F1F1" rx="118.1519" ry="26.0304" style="stroke:#181818;stroke-width:0.5;"/><text fill="#000000" font-family="sans-serif" font-size="14" lengthAdjust="spacing" textLength="174.3574" x="570.0832" y="29.7809">Show session event data</text><text fill="#000000" font-family="sans-serif" font-size="14" lengthAdjust="spacing" textLength="149.1602" x="582.6818" y="46.0778">and facilitator events</text></g><!--entity Show player event data--><g class="entity" data-entity="Show player event data" data-source-line="10" data-uid="ent0011" id="entity_Show player event data"><ellipse cx="657.2646" cy="115.0309" fill="#F1F1F1" rx="95.7046" ry="21.5409" style="stroke:#181818;stroke-width:0.5;"/><text fill="#000000" font-family="sans-serif" font-size="14" lengthAdjust="spacing" textLength="166.5439" x="573.9927" y="119.6794">Show player event data</text></g><!--entity Show player scores--><g class="entity" data-entity="Show player scores" data-source-line="11" data-uid="ent0013" id="entity_Show player scores"><ellipse cx="657.2606" cy="190.0261" fill="#F1F1F1" rx="82.2306" ry="18.8461" style="stroke:#181818;stroke-width:0.5;"/><text fill="#000000" font-family="sans-serif" font-size="14" lengthAdjust="spacing" textLength="135.9053" x="589.308" y="194.6746">Show player scores</text></g><!--entity Show log data--><g class="entity" data-entity="Show log data" data-source-line="12" data-uid="ent0015" id="entity_Show log data"><ellipse cx="657.2639" cy="260.0348" fill="#F1F1F1" rx="67.3239" ry="15.8648" style="stroke:#181818;stroke-width:0.5;"/><text fill="#000000" font-family="sans-serif" font-size="14" lengthAdjust="spacing" textLength="99.5518" x="607.488" y="264.6832">Show log data</text></g><!--entity Show errors--><g class="entity" data-entity="Show errors" data-source-line="13" data-uid="ent0017" id="entity_Show errors"><ellipse cx="657.2621" cy="326.0304" fill="#F1F1F1" rx="61.5021" ry="14.7004" style="stroke:#181818;stroke-width:0.5;"/><text fill="#000000" font-family="sans-serif" font-size="14" lengthAdjust="spacing" textLength="83.9658" x="615.2791" y="330.6788">Show errors</text></g><!--entity Login to\ngame data platform--><g class="entity" data-entity="Login to\ngame data platform" data-source-line="15" data-uid="ent0019" id="entity_Login to\ngame data platform"><ellipse cx="382.9194" cy="300.027" fill="#F1F1F1" rx="92.1694" ry="23.777" style="stroke:#181818;stroke-width:0.5;"/><text fill="#000000" font-family="sans-serif" font-size="14" lengthAdjust="spacing" textLength="56.5195" x="354.6596" y="293.1179">Login to</text><text fill="#000000" font-family="sans-serif" font-size="14" lengthAdjust="spacing" textLength="139.8838" x="312.9775" y="309.4148">game data platform</text></g><!--entity Choose game--><g class="entity" data-entity="Choose game" data-source-line="17" data-uid="ent0021" id="entity_Choose game"><ellipse cx="382.9239" cy="374.0308" fill="#F1F1F1" rx="65.9039" ry="15.5808" style="stroke:#181818;stroke-width:0.5;"/><text fill="#000000" font-family="sans-serif" font-size="14" lengthAdjust="spacing" textLength="95.8535" x="334.9971" y="378.6792">Choose game</text></g><!--entity Logout from\ngame data platform--><g class="entity" data-entity="Logout from\ngame data platform" data-source-line="19" data-uid="ent0023" id="entity_Logout from\ngame data platform"><ellipse cx="382.9179" cy="449.0296" fill="#F1F1F1" rx="94.4979" ry="24.3196" style="stroke:#181818;stroke-width:0.5;"/><text fill="#000000" font-family="sans-serif" font-size="14" lengthAdjust="spacing" textLength="85.5176" x="340.1591" y="442.9781">Logout from</text><text fill="#000000" font-family="sans-serif" font-size="14" lengthAdjust="spacing" textLength="139.8838" x="312.976" y="459.2749">game data platform</text></g><!--entity Export data--><g class="entity" data-entity="Export data" data-source-line="21" data-uid="ent0025" id="entity_Export data"><ellipse cx="382.9243" cy="526.0269" fill="#F1F1F1" rx="60.7343" ry="14.5469" style="stroke:#181818;stroke-width:0.5;"/><text fill="#000000" font-family="sans-serif" font-size="14" lengthAdjust="spacing" textLength="81.8125" x="342.018" y="530.6753">Export data</text></g><!--entity Export session event data\nand facilitator events--><g class="entity" data-entity="Export session event data\nand facilitator events" data-source-line="22" data-uid="ent0027" id="entity_Export session event data\nand facilitator events"><ellipse cx="657.2596" cy="402.0279" fill="#F1F1F1" rx="119.8396" ry="26.3679" style="stroke:#181818;stroke-width:0.5;"/><text fill="#000000" font-family="sans-serif" font-size="14" lengthAdjust="spacing" textLength="182.4102" x="566.0545" y="400.2191">Export session event data</text><text fill="#000000" font-family="sans-serif" font-size="14" lengthAdjust="spacing" textLength="149.1602" x="582.6795" y="416.516">and facilitator events</text></g><!--entity Export player event data--><g class="entity" data-entity="Export player event data" data-source-line="23" data-uid="ent0029" id="entity_Export player event data"><ellipse cx="657.2576" cy="486.0275" fill="#F1F1F1" rx="99.3376" ry="22.2675" style="stroke:#181818;stroke-width:0.5;"/><text fill="#000000" font-family="sans-serif" font-size="14" lengthAdjust="spacing" textLength="174.5967" x="569.9592" y="490.676">Export player event data</text></g><!--entity Export player scores--><g class="entity" data-entity="Export player scores" data-source-line="24" data-uid="ent0031" id="entity_Export player scores"><ellipse cx="657.2598" cy="563.032" fill="#F1F1F1" rx="85.7098" ry="19.542" style="stroke:#181818;stroke-width:0.5;"/><text fill="#000000" font-family="sans-serif" font-size="14" lengthAdjust="spacing" textLength="143.958" x="585.2807" y="567.6804">Export player scores</text></g><!--entity Export log data--><g class="entity" data-entity="Export log data" data-source-line="25" data-uid="ent0033" id="entity_Export log data"><ellipse cx="657.2578" cy="634.0276" fill="#F1F1F1" rx="70.4878" ry="16.4976" style="stroke:#181818;stroke-width:0.5;"/><text fill="#000000" font-family="sans-serif" font-size="14" lengthAdjust="spacing" textLength="107.6045" x="603.4556" y="638.676">Export log data</text></g><!--entity Export errors--><g class="entity" data-entity="Export errors" data-source-line="26" data-uid="ent0035" id="entity_Export errors"><ellipse cx="657.2555" cy="701.0311" fill="#F1F1F1" rx="64.4555" ry="15.2911" style="stroke:#181818;stroke-width:0.5;"/><text fill="#000000" font-family="sans-serif" font-size="14" lengthAdjust="spacing" textLength="92.0186" x="611.2462" y="705.6795">Export errors</text></g><!--reverse link User to DA--><g class="link" data-entity-1="User" data-entity-2="DA" data-source-line="4" data-uid="lnk4" id="link_User_DA"><path d="M55.5174,408.5035 C74.6974,402.3035 91.12,396.99 118.46,388.16" fill="none" id="User-backto-DA" style="stroke:#181818;stroke-width:1;"/><polygon fill="none" points="38.39,414.04,57.3629,414.2126,53.6719,402.7944,38.39,414.04" style="stroke:#181818;stroke-width:1;"/></g><!--link User to Set password--><g class="link" data-entity-1="User" data-entity-2="Set password" data-source-line="6" data-uid="lnk6" id="link_User_Set password"><path d="M38.39,423.91 C58.56,430.28 88.9092,439.8711 116.9292,448.7311" fill="none" id="User-to-Set password" style="stroke:#181818;stroke-width:1;"/><polygon fill="#181818" points="122.65,450.54,115.2747,444.0127,117.8827,449.0326,112.8628,451.6405,122.65,450.54" style="stroke:#181818;stroke-width:1;"/></g><!--link DA to Analyze data--><g class="link" data-entity-1="DA" data-entity-2="Analyze data" data-source-line="8" data-uid="lnk8" id="link_DA_Analyze data"><path d="M197.98,335.64 C221.36,311 254.3,279.85 288.43,259.03 C304.06,249.49 317.0734,243.914 333.6434,238.434" fill="none" id="DA-to-Analyze data" style="stroke:#181818;stroke-width:1;"/><polygon fill="#181818" points="339.34,236.55,329.5392,235.5782,334.5929,238.12,332.0511,243.1736,339.34,236.55" style="stroke:#181818;stroke-width:1;"/></g><!--link Analyze data to Show session event data\nand facilitator events--><g class="link" data-entity-1="Analyze data" data-entity-2="Show session event data\nand facilitator events" data-source-line="9" data-uid="lnk10" id="link_Analyze data_Show session event data\nand facilitator events"><path d="M395.85,209.81 C419.75,180.21 476.48,114.46 537.42,76.03 C551.94,66.88 563.0394,61.3725 579.2494,55.1425" fill="none" id="Analyze data-to-Show session event data\nand facilitator events" style="stroke:#181818;stroke-width:1;"/><polygon fill="#181818" points="584.85,52.99,575.0141,52.485,580.1828,54.7837,577.8841,59.9525,584.85,52.99" style="stroke:#181818;stroke-width:1;"/></g><!--link Analyze data to Show player event data--><g class="link" data-entity-1="Analyze data" data-entity-2="Show player event data" data-source-line="10" data-uid="lnk12" id="link_Analyze data_Show player event data"><path d="M411.51,211.08 C441.92,196 492.48,171.73 537.42,154.03 C557.12,146.27 573.3393,140.6105 592.9493,134.2905" fill="none" id="Analyze data-to-Show player event data" style="stroke:#181818;stroke-width:1;"/><polygon fill="#181818" points="598.66,132.45,588.8669,131.4036,593.901,133.9837,591.3209,139.0179,598.66,132.45" style="stroke:#181818;stroke-width:1;"/></g><!--link Analyze data to Show player scores--><g class="link" data-entity-1="Analyze data" data-entity-2="Show player scores" data-source-line="11" data-uid="lnk14" id="link_Analyze data_Show player scores"><path d="M440.02,217.82 C481.91,212.44 533.5189,205.8048 578.7289,199.9948" fill="none" id="Analyze data-to-Show player scores" style="stroke:#181818;stroke-width:1;"/><polygon fill="#181818" points="584.68,199.23,575.2436,196.4098,579.7208,199.8673,576.2633,204.3445,584.68,199.23" style="stroke:#181818;stroke-width:1;"/></g><!--link Analyze data to Show log data--><g class="link" data-entity-1="Analyze data" data-entity-2="Show log data" data-source-line="12" data-uid="lnk16" id="link_Analyze data_Show log data"><path d="M440.02,232.24 C485.96,238.14 544.789,245.7049 591.459,251.7049" fill="none" id="Analyze data-to-Show log data" style="stroke:#181818;stroke-width:1;"/><polygon fill="#181818" points="597.41,252.47,588.9935,247.355,592.4508,251.8324,587.9734,255.2897,597.41,252.47" style="stroke:#181818;stroke-width:1;"/></g><!--link Analyze data to Show errors--><g class="link" data-entity-1="Analyze data" data-entity-2="Show errors" data-source-line="13" data-uid="lnk18" id="link_Analyze data_Show errors"><path d="M422.26,237.35 C439.4,243.27 459.7,250.85 477.42,259.03 C505.25,271.87 509.11,281.29 537.42,293.03 C560.86,302.75 582.2364,309.0958 604.6964,314.6658" fill="none" id="Analyze data-to-Show errors" style="stroke:#181818;stroke-width:1;"/><polygon fill="#181818" points="610.52,316.11,602.7474,310.0613,605.667,314.9065,600.8218,317.826,610.52,316.11" style="stroke:#181818;stroke-width:1;"/></g><!--link DA to Login to\ngame data platform--><g class="link" data-entity-1="DA" data-entity-2="Login to\ngame data platform" data-source-line="15" data-uid="lnk20" id="link_DA_Login to\ngame data platform"><path d="M207.97,359.14 C241.88,347.62 283.3993,333.5112 320.0793,321.0412" fill="none" id="DA-to-Login to\ngame data platform" style="stroke:#181818;stroke-width:1;"/><polygon fill="#181818" points="325.76,319.11,315.9515,318.2197,321.0261,320.7194,318.5265,325.794,325.76,319.11" style="stroke:#181818;stroke-width:1;"/></g><!--link DA to Choose game--><g class="link" data-entity-1="DA" data-entity-2="Choose game" data-source-line="17" data-uid="lnk22" id="link_DA_Choose game"><path d="M207.97,374.03 C239.15,374.03 275.56,374.03 310.7,374.03" fill="none" id="DA-to-Choose game" style="stroke:#181818;stroke-width:1;"/><polygon fill="#181818" points="316.7,374.03,307.7,370.03,311.7,374.03,307.7,378.03,316.7,374.03" style="stroke:#181818;stroke-width:1;"/></g><!--link DA to Logout from\ngame data platform--><g class="link" data-entity-1="DA" data-entity-2="Logout from\ngame data platform" data-source-line="19" data-uid="lnk24" id="link_DA_Logout from\ngame data platform"><path d="M207.97,389.12 C241.63,400.71 282.7174,414.855 319.2774,427.455" fill="none" id="DA-to-Logout from\ngame data platform" style="stroke:#181818;stroke-width:1;"/><polygon fill="#181818" points="324.95,429.41,317.7445,422.6958,320.2229,427.7808,315.1378,430.2592,324.95,429.41" style="stroke:#181818;stroke-width:1;"/></g><!--link DA to Export data--><g class="link" data-entity-1="DA" data-entity-2="Export data" data-source-line="21" data-uid="lnk26" id="link_DA_Export data"><path d="M207.78,411.24 C214.77,417.42 221.85,423.84 228.43,430.03 C256.11,456.1 256.53,470.32 288.43,491.03 C304.56,501.51 318.5826,507.5986 335.7526,513.2686" fill="none" id="DA-to-Export data" style="stroke:#181818;stroke-width:1;"/><polygon fill="#181818" points="341.45,515.15,334.1582,508.5296,336.7022,513.5821,331.6496,516.1261,341.45,515.15" style="stroke:#181818;stroke-width:1;"/></g><!--link Export data to Export session event data\nand facilitator events--><g class="link" data-entity-1="Export data" data-entity-2="Export session event data\nand facilitator events" data-source-line="22" data-uid="lnk28" id="link_Export data_Export session event data\nand facilitator events"><path d="M421.86,514.58 C439.29,508.63 459.94,500.6 477.42,491.03 C506.66,475.02 508.15,461.98 537.42,446.03 C552.97,437.55 564.8753,432.1756 581.5953,425.8756" fill="none" id="Export data-to-Export session event data\nand facilitator events" style="stroke:#181818;stroke-width:1;"/><polygon fill="#181818" points="587.21,423.76,577.3776,423.1903,582.5311,425.523,580.1984,430.6765,587.21,423.76" style="stroke:#181818;stroke-width:1;"/></g><!--link Export data to Export player event data--><g class="link" data-entity-1="Export data" data-entity-2="Export player event data" data-source-line="23" data-uid="lnk30" id="link_Export data_Export player event data"><path d="M435.47,518.46 C474.25,512.76 522.2737,505.712 567.1337,499.122" fill="none" id="Export data-to-Export player event data" style="stroke:#181818;stroke-width:1;"/><polygon fill="#181818" points="573.07,498.25,563.5842,495.6005,568.1231,498.9767,564.7469,503.5156,573.07,498.25" style="stroke:#181818;stroke-width:1;"/></g><!--link Export data to Export player scores--><g class="link" data-entity-1="Export data" data-entity-2="Export player scores" data-source-line="24" data-uid="lnk32" id="link_Export data_Export player scores"><path d="M436.43,533.16 C478.01,538.81 530.6346,545.9624 576.8646,552.2424" fill="none" id="Export data-to-Export player scores" style="stroke:#181818;stroke-width:1;"/><polygon fill="#181818" points="582.81,553.05,574.4303,547.8749,577.8555,552.377,573.3535,555.8021,582.81,553.05" style="stroke:#181818;stroke-width:1;"/></g><!--link Export data to Export log data--><g class="link" data-entity-1="Export data" data-entity-2="Export log data" data-source-line="25" data-uid="lnk34" id="link_Export data_Export log data"><path d="M408.61,539.55 C438.46,555.53 490.56,582.18 537.42,600.03 C559.98,608.62 579.8653,614.6739 601.5753,620.5039" fill="none" id="Export data-to-Export log data" style="stroke:#181818;stroke-width:1;"/><polygon fill="#181818" points="607.37,622.06,599.7154,615.8627,602.5411,620.7632,597.6405,623.589,607.37,622.06" style="stroke:#181818;stroke-width:1;"/></g><!--link Export data to Export errors--><g class="link" data-entity-1="Export data" data-entity-2="Export errors" data-source-line="26" data-uid="lnk36" id="link_Export data_Export errors"><path d="M395.38,540.5 C418.89,569.21 475.59,633.55 537.42,668.03 C557.81,679.4 576.5397,685.6949 598.0297,690.7549" fill="none" id="Export data-to-Export errors" style="stroke:#181818;stroke-width:1;"/><polygon fill="#181818" points="603.87,692.13,596.0263,686.1738,599.0031,690.984,594.1928,693.9608,603.87,692.13" style="stroke:#181818;stroke-width:1;"/></g><!--SRC=[bP31QiD034Jl-nKYf-JWFoW14_VMM-aj5s7Bzi9wPIGbQKe-ldOTmXhYc1v7UZD24wWsC0RnJMjGUQ7IF4VdDWKQ0aOCLxKDe4AHkoybWRTRberYKbcsX-qd6VIeUc6fTiuL-JJEH_SFGJL4xTnSteqjNq19TRW9TAPeVzjZn5X1ZQKFtj1Offs-2Ea3NacIZ7LMInPwbHcuMOiY4HPDVlxWniUXqMDii9luyPxLB5s27Lfc9HYPkPbF1hLmj-9__-vP7e-cQhR_LxMBAS-wNOCVvIw2IRkBpBtUNm00]--></g></svg>