<svg xmlns="http://www.w3.org/2000/svg" xmlns:xlink="http://www.w3.org/1999/xlink" contentStyleType="text/css" data-diagram-type="DESCRIPTION" height="563px" preserveAspectRatio="none" style="width:965px;height:563px;background:#FFFFFF;" version="1.1" viewBox="0 0 965 563" width="965px" zoomAndPan="magnify"><defs/><g><!--entity GP--><g class="entity" data-entity="GP" data-source-line="3" data-uid="ent0002" id="entity_GP"><ellipse cx="163.1693" cy="196.65" fill="#F1F1F1" rx="8" ry="8" style="stroke:#181818;stroke-width:0.5;"/><path d="M163.1693,204.65 L163.1693,231.65 M150.1693,212.65 L176.1693,212.65 M163.1693,231.65 L150.1693,246.65 M163.1693,231.65 L176.1693,246.65" fill="none" style="stroke:#181818;stroke-width:0.5;"/><text fill="#000000" font-family="sans-serif" font-size="14" lengthAdjust="spacing" textLength="90.1387" x="118.1" y="261.1451">Game player</text></g><!--entity User--><g class="entity" data-entity="User" data-source-line="4" data-uid="ent0003" id="entity_User"><ellipse cx="21.9551" cy="241.65" fill="#F1F1F1" rx="8" ry="8" style="stroke:#181818;stroke-width:0.5;"/><path d="M21.9551,249.65 L21.9551,276.65 M8.9551,257.65 L34.9551,257.65 M21.9551,276.65 L8.9551,291.65 M21.9551,276.65 L34.9551,291.65" fill="none" style="stroke:#181818;stroke-width:0.5;"/><text fill="#000000" font-family="sans-serif" font-size="14" lengthAdjust="spacing" textLength="31.9102" x="6" y="306.1451">User</text></g><!--entity Set password--><g class="entity" data-entity="Set password" data-source-line="6" data-uid="ent0005" id="entity_Set password"><ellipse cx="163.1679" cy="315.3016" fill="#F1F1F1" rx="65.2579" ry="15.4516" style="stroke:#181818;stroke-width:0.5;"/><text fill="#000000" font-family="sans-serif" font-size="14" lengthAdjust="spacing" textLength="94.1514" x="116.0922" y="319.95">Set password</text></g><!--entity Make userid--><g class="entity" data-entity="Make userid" data-source-line="8" data-uid="ent0007" id="entity_Make userid"><ellipse cx="368.0054" cy="28.2951" fill="#F1F1F1" rx="61.9254" ry="14.7851" style="stroke:#181818;stroke-width:0.5;"/><text fill="#000000" font-family="sans-serif" font-size="14" lengthAdjust="spacing" textLength="85.1416" x="325.4346" y="32.9435">Make userid</text></g><!--entity Login to game--><g class="entity" data-entity="Login to game" data-source-line="9" data-uid="ent0009" id="entity_Login to game"><ellipse cx="368.014" cy="94.3028" fill="#F1F1F1" rx="67.764" ry="15.9528" style="stroke:#181818;stroke-width:0.5;"/><text fill="#000000" font-family="sans-serif" font-size="14" lengthAdjust="spacing" textLength="100.6865" x="317.6707" y="98.9512">Login to game</text></g><!--entity Show briefing--><g class="entity" data-entity="Show briefing" data-source-line="10" data-uid="ent0011" id="entity_Show briefing"><ellipse cx="368.0104" cy="161.2981" fill="#F1F1F1" rx="65.9404" ry="15.5881" style="stroke:#181818;stroke-width:0.5;"/><text fill="#000000" font-family="sans-serif" font-size="14" lengthAdjust="spacing" textLength="95.9492" x="320.0358" y="165.9465">Show briefing</text></g><!--entity Set strategy--><g class="entity" data-entity="Set strategy" data-source-line="12" data-uid="ent0013" id="entity_Set strategy"><ellipse cx="368.0053" cy="226.2951" fill="#F1F1F1" rx="62.1753" ry="14.8351" style="stroke:#181818;stroke-width:0.5;"/><text fill="#000000" font-family="sans-serif" font-size="14" lengthAdjust="spacing" textLength="85.832" x="325.0892" y="230.9435">Set strategy</text></g><!--entity Explain strategy choice--><g class="entity" data-entity="Explain strategy choice" data-source-line="13" data-uid="ent0015" id="entity_Explain strategy choice"><ellipse cx="608.4691" cy="27.3018" fill="#F1F1F1" rx="94.5091" ry="21.3018" style="stroke:#181818;stroke-width:0.5;"/><text fill="#000000" font-family="sans-serif" font-size="14" lengthAdjust="spacing" textLength="163.8779" x="526.5302" y="31.9503">Explain strategy choice</text></g><!--entity Send data to\ngame data platform--><g class="entity" data-entity="Send data to\ngame data platform" data-source-line="14" data-uid="ent0017" id="entity_Send data to\ngame data platform"><ellipse cx="864.2766" cy="178.2994" fill="#F1F1F1" rx="94.9266" ry="24.4194" style="stroke:#181818;stroke-width:0.5;"/><text fill="#000000" font-family="sans-serif" font-size="14" lengthAdjust="spacing" textLength="89.749" x="819.4021" y="172.4024">Send data to</text><text fill="#000000" font-family="sans-serif" font-size="14" lengthAdjust="spacing" textLength="139.8838" x="794.3347" y="188.6992">game data platform</text></g><!--entity Game play--><g class="entity" data-entity="Game play" data-source-line="16" data-uid="ent0019" id="entity_Game play"><ellipse cx="368.0071" cy="290.3036" fill="#F1F1F1" rx="56.5771" ry="14.5236" style="stroke:#181818;stroke-width:0.5;"/><text fill="#000000" font-family="sans-serif" font-size="14" lengthAdjust="spacing" textLength="75.7695" x="330.1224" y="294.9521">Game play</text></g><!--entity Show state information--><g class="entity" data-entity="Show state information" data-source-line="17" data-uid="ent0021" id="entity_Show state information"><ellipse cx="608.4701" cy="105.3" fill="#F1F1F1" rx="94.2001" ry="21.24" style="stroke:#181818;stroke-width:0.5;"/><text fill="#000000" font-family="sans-serif" font-size="14" lengthAdjust="spacing" textLength="163.1875" x="526.8764" y="109.9485">Show state information</text></g><!--entity Show news--><g class="entity" data-entity="Show news" data-source-line="18" data-uid="ent0023" id="entity_Show news"><ellipse cx="608.4668" cy="176.3036" fill="#F1F1F1" rx="58.4768" ry="14.5236" style="stroke:#181818;stroke-width:0.5;"/><text fill="#000000" font-family="sans-serif" font-size="14" lengthAdjust="spacing" textLength="78.4561" x="569.2388" y="180.9521">Show news</text></g><!--entity Chat with players\nand with facilitator--><g class="entity" data-entity="Chat with players\nand with facilitator" data-source-line="19" data-uid="ent0025" id="entity_Chat with players\nand with facilitator"><ellipse cx="608.4667" cy="251.2973" fill="#F1F1F1" rx="94.5867" ry="25.6673" style="stroke:#181818;stroke-width:0.5;"/><text fill="#000000" font-family="sans-serif" font-size="14" lengthAdjust="spacing" textLength="122.623" x="547.1552" y="247.2553">Chat with players</text><text fill="#000000" font-family="sans-serif" font-size="14" lengthAdjust="spacing" textLength="131.6943" x="542.6195" y="263.5522">and with facilitator</text></g><!--entity Make decision--><g class="entity" data-entity="Make decision" data-source-line="20" data-uid="ent0027" id="entity_Make decision"><ellipse cx="608.4686" cy="328.3037" fill="#F1F1F1" rx="67.3186" ry="15.8637" style="stroke:#181818;stroke-width:0.5;"/><text fill="#000000" font-family="sans-serif" font-size="14" lengthAdjust="spacing" textLength="99.5381" x="558.6996" y="332.9522">Make decision</text></g><!--entity Show actor map\n and highlight player--><g class="entity" data-entity="Show actor map\n and highlight player" data-source-line="21" data-uid="ent0029" id="entity_Show actor map\n and highlight player"><ellipse cx="608.4739" cy="404.3049" fill="#F1F1F1" rx="100.8839" ry="24.9649" style="stroke:#181818;stroke-width:0.5;"/><text fill="#000000" font-family="sans-serif" font-size="14" lengthAdjust="spacing" textLength="113.8662" x="551.5408" y="399.2345">Show actor map</text><text fill="#000000" font-family="sans-serif" font-size="14" lengthAdjust="spacing" textLength="140.7998" x="540.2991" y="415.5314">and highlight player</text></g><!--entity Show scores--><g class="entity" data-entity="Show scores" data-source-line="22" data-uid="ent0031" id="entity_Show scores"><ellipse cx="608.4728" cy="479.3026" fill="#F1F1F1" rx="62.7628" ry="14.9526" style="stroke:#181818;stroke-width:0.5;"/><text fill="#000000" font-family="sans-serif" font-size="14" lengthAdjust="spacing" textLength="87.4453" x="564.7502" y="483.951">Show scores</text></g><!--entity ABC--><g class="entity" data-entity="ABC" data-source-line="23" data-uid="ent0033" id="entity_ABC"><ellipse cx="608.4657" cy="543.3036" fill="#F1F1F1" rx="23.4757" ry="14.5236" style="stroke:#181818;stroke-width:0.5;"/><text fill="#000000" font-family="sans-serif" font-size="14" lengthAdjust="spacing" textLength="28.957" x="593.9872" y="547.9521">ABC</text></g><!--entity Show debriefing--><g class="entity" data-entity="Show debriefing" data-source-line="27" data-uid="ent0036" id="entity_Show debriefing"><ellipse cx="368.0099" cy="356.298" fill="#F1F1F1" rx="72.8399" ry="16.968" style="stroke:#181818;stroke-width:0.5;"/><text fill="#000000" font-family="sans-serif" font-size="14" lengthAdjust="spacing" textLength="113.4492" x="311.2853" y="360.9464">Show debriefing</text></g><!--entity Logout from game--><g class="entity" data-entity="Logout from game" data-source-line="29" data-uid="ent0038" id="entity_Logout from game"><ellipse cx="368.0097" cy="426.2959" fill="#F1F1F1" rx="79.5797" ry="18.3159" style="stroke:#181818;stroke-width:0.5;"/><text fill="#000000" font-family="sans-serif" font-size="14" lengthAdjust="spacing" textLength="129.6846" x="303.1674" y="430.9444">Logout from game</text></g><!--reverse link User to GP--><g class="link" data-entity-1="User" data-entity-2="GP" data-source-line="4" data-uid="lnk4" id="link_User_GP"><path d="M55.516,260.7692 C74.556,254.6092 90.63,249.42 117.86,240.62" fill="none" id="User-backto-GP" style="stroke:#181818;stroke-width:1;"/><polygon fill="none" points="38.39,266.31,57.3629,266.4779,53.6691,255.0606,38.39,266.31" style="stroke:#181818;stroke-width:1;"/></g><!--link User to Set password--><g class="link" data-entity-1="User" data-entity-2="Set password" data-source-line="6" data-uid="lnk6" id="link_User_Set password"><path d="M38.39,276.17 C58.56,282.55 88.9086,292.1429 116.9286,300.9929" fill="none" id="User-to-Set password" style="stroke:#181818;stroke-width:1;"/><polygon fill="#181818" points="122.65,302.8,115.2726,296.2751,117.8822,301.2941,112.8632,303.9036,122.65,302.8" style="stroke:#181818;stroke-width:1;"/></g><!--link GP to Make userid--><g class="link" data-entity-1="GP" data-entity-2="Make userid" data-source-line="8" data-uid="lnk8" id="link_GP_Make userid"><path d="M184.99,187.92 C206.63,151.14 243.57,96.21 288.43,61.3 C300.1,52.21 309.0541,47.3448 322.4441,42.1648" fill="none" id="GP-to-Make userid" style="stroke:#181818;stroke-width:1;"/><polygon fill="#181818" points="328.04,40,318.203,39.5166,323.3768,41.804,321.0894,46.9778,328.04,40" style="stroke:#181818;stroke-width:1;"/></g><!--link GP to Login to game--><g class="link" data-entity-1="GP" data-entity-2="Login to game" data-source-line="9" data-uid="lnk10" id="link_GP_Login to game"><path d="M207.29,187.73 C230.32,168.35 259.76,145.4 288.43,128.3 C301.45,120.53 311.0162,115.8448 324.4962,110.2648" fill="none" id="GP-to-Login to game" style="stroke:#181818;stroke-width:1;"/><polygon fill="#181818" points="330.04,107.97,320.1944,107.7164,325.4202,109.8824,323.2542,115.1081,330.04,107.97" style="stroke:#181818;stroke-width:1;"/></g><!--link GP to Show briefing--><g class="link" data-entity-1="GP" data-entity-2="Show briefing" data-source-line="10" data-uid="lnk12" id="link_GP_Show briefing"><path d="M208.68,212.03 C244.13,200.67 287.5863,186.7514 321.6863,175.8214" fill="none" id="GP-to-Show briefing" style="stroke:#181818;stroke-width:1;"/><polygon fill="#181818" points="327.4,173.99,317.6086,172.928,322.6386,175.5162,320.0504,180.5462,327.4,173.99" style="stroke:#181818;stroke-width:1;"/></g><!--link GP to Set strategy--><g class="link" data-entity-1="GP" data-entity-2="Set strategy" data-source-line="12" data-uid="lnk14" id="link_GP_Set strategy"><path d="M208.68,226.3 C237.14,226.3 268.43,226.3 299.67,226.3" fill="none" id="GP-to-Set strategy" style="stroke:#181818;stroke-width:1;"/><polygon fill="#181818" points="305.67,226.3,296.67,222.3,300.67,226.3,296.67,230.3,305.67,226.3" style="stroke:#181818;stroke-width:1;"/></g><!--link Set strategy to Explain strategy choice--><g class="link" data-entity-1="Set strategy" data-entity-2="Explain strategy choice" data-source-line="13" data-uid="lnk16" id="link_Set strategy_Explain strategy choice"><path d="M411.93,215.37 C424.57,210.53 437.65,203.73 447.59,194.3 C493.14,151.03 461.72,109.23 507.59,66.3 C518.12,56.44 525.893,51.2812 539.333,45.6712" fill="none" id="Set strategy-to-Explain strategy choice" style="stroke:#181818;stroke-width:1;"/><polygon fill="#181818" points="544.87,43.36,535.0237,43.1355,540.2558,45.286,538.1053,50.5181,544.87,43.36" style="stroke:#181818;stroke-width:1;"/></g><!--link Explain strategy choice to Send data to\ngame data platform--><g class="link" data-entity-1="Explain strategy choice" data-entity-2="Send data to\ngame data platform" data-source-line="14" data-uid="lnk18" id="link_Explain strategy choice_Send data to\ngame data platform"><path d="M662.72,45.18 C678.13,51.13 694.74,58.3 709.35,66.3 C756.47,92.07 801.1552,126.4396 830.8952,150.8896" fill="none" id="Explain strategy choice-to-Send data to\ngame data platform" style="stroke:#181818;stroke-width:1;"/><polygon fill="#181818" points="835.53,154.7,831.1181,145.8946,831.6677,151.5247,826.0376,152.0743,835.53,154.7" style="stroke:#181818;stroke-width:1;"/></g><!--link GP to Game play--><g class="link" data-entity-1="GP" data-entity-2="Game play" data-source-line="16" data-uid="lnk20" id="link_GP_Game play"><path d="M208.68,240.34 C245.42,251.93 291.1581,266.3643 325.3181,277.1443" fill="none" id="GP-to-Game play" style="stroke:#181818;stroke-width:1;"/><polygon fill="#181818" points="331.04,278.95,323.661,272.4269,326.2718,277.4453,321.2534,280.0561,331.04,278.95" style="stroke:#181818;stroke-width:1;"/></g><!--link Game play to Show state information--><g class="link" data-entity-1="Game play" data-entity-2="Show state information" data-source-line="17" data-uid="lnk22" id="link_Game play_Show state information"><path d="M409.23,280 C422.58,275.1 436.78,268.09 447.59,258.3 C490,219.84 464.89,182.45 507.59,144.3 C518.48,134.56 526.5445,129.4206 540.1745,123.7906" fill="none" id="Game play-to-Show state information" style="stroke:#181818;stroke-width:1;"/><polygon fill="#181818" points="545.72,121.5,535.8746,121.2389,541.0987,123.4089,538.9288,128.633,545.72,121.5" style="stroke:#181818;stroke-width:1;"/></g><!--link Game play to Show news--><g class="link" data-entity-1="Game play" data-entity-2="Show news" data-source-line="18" data-uid="lnk24" id="link_Game play_Show news"><path d="M403.75,278.79 C417.83,273.46 433.95,266.49 447.59,258.3 C477.35,240.43 477.16,225.01 507.59,208.3 C525.3,198.56 540.6561,192.8916 558.9161,187.7316" fill="none" id="Game play-to-Show news" style="stroke:#181818;stroke-width:1;"/><polygon fill="#181818" points="564.69,186.1,554.9414,184.6982,559.8784,187.4597,557.1169,192.3967,564.69,186.1" style="stroke:#181818;stroke-width:1;"/></g><!--link Game play to Chat with players\nand with facilitator--><g class="link" data-entity-1="Game play" data-entity-2="Chat with players\nand with facilitator" data-source-line="19" data-uid="lnk26" id="link_Game play_Chat with players\nand with facilitator"><path d="M416.69,282.5 C448.09,277.36 484.0686,271.4777 520.5986,265.5077" fill="none" id="Game play-to-Chat with players\nand with facilitator" style="stroke:#181818;stroke-width:1;"/><polygon fill="#181818" points="526.52,264.54,516.9927,262.044,521.5855,265.3464,518.283,269.9392,526.52,264.54" style="stroke:#181818;stroke-width:1;"/></g><!--link Game play to Make decision--><g class="link" data-entity-1="Game play" data-entity-2="Make decision" data-source-line="20" data-uid="lnk28" id="link_Game play_Make decision"><path d="M416.98,297.94 C455.87,304.14 504.8249,311.9348 545.6949,318.4548" fill="none" id="Game play-to-Make decision" style="stroke:#181818;stroke-width:1;"/><polygon fill="#181818" points="551.62,319.4,543.3625,314.0321,546.6824,318.6123,542.1022,321.9322,551.62,319.4" style="stroke:#181818;stroke-width:1;"/></g><!--link Game play to Show actor map\n and highlight player--><g class="link" data-entity-1="Game play" data-entity-2="Show actor map\n and highlight player" data-source-line="21" data-uid="lnk30" id="link_Game play_Show actor map\n and highlight player"><path d="M402.13,302.18 C416.4,307.7 433.09,314.72 447.59,322.3 C475.77,337.03 479.54,346.29 507.59,361.3 C522.07,369.05 532.7251,374.1365 547.7751,380.5865" fill="none" id="Game play-to-Show actor map\n and highlight player" style="stroke:#181818;stroke-width:1;"/><polygon fill="#181818" points="553.29,382.95,546.5934,375.7281,548.6943,380.9804,543.442,383.0813,553.29,382.95" style="stroke:#181818;stroke-width:1;"/></g><!--link Game play to Show scores--><g class="link" data-entity-1="Game play" data-entity-2="Show scores" data-source-line="22" data-uid="lnk32" id="link_Game play_Show scores"><path d="M409.42,300.38 C422.79,305.27 436.95,312.32 447.59,322.3 C492.24,364.18 461.54,405.94 507.59,446.3 C521.18,458.21 533.4332,464.1936 550.4232,469.0736" fill="none" id="Game play-to-Show scores" style="stroke:#181818;stroke-width:1;"/><polygon fill="#181818" points="556.19,470.73,548.644,464.4009,551.3843,469.3497,546.4355,472.09,556.19,470.73" style="stroke:#181818;stroke-width:1;"/></g><!--link Game play to ABC--><g class="link" data-entity-1="Game play" data-entity-2="ABC" data-source-line="23" data-uid="lnk34" id="link_Game play_ABC"><path d="M411.48,300 C424.54,304.81 437.99,311.91 447.59,322.3 C507.38,387.04 445.35,448.9 507.59,511.3 C528.29,532.05 556.4984,538.682 579.0084,541.242" fill="none" id="Game play-to-ABC" style="stroke:#181818;stroke-width:1;"/><polygon fill="#181818" points="584.97,541.92,576.4796,536.9286,580.002,541.355,575.5756,544.8774,584.97,541.92" style="stroke:#181818;stroke-width:1;"/></g><!--link Make decision to Send data to\ngame data platform--><g class="link" data-entity-1="Make decision" data-entity-2="Send data to\ngame data platform" data-source-line="25" data-uid="lnk35" id="link_Make decision_Send data to\ngame data platform"><path d="M654.49,316.31 C672.12,310.77 692.19,303.38 709.35,294.3 C758.15,268.46 803.4812,231.6987 832.7412,206.0087" fill="none" id="Make decision-to-Send data to\ngame data platform" style="stroke:#181818;stroke-width:1;"/><polygon fill="#181818" points="837.25,202.05,827.8477,204.9821,833.4927,205.3489,833.1259,210.9938,837.25,202.05" style="stroke:#181818;stroke-width:1;"/></g><!--link GP to Show debriefing--><g class="link" data-entity-1="GP" data-entity-2="Show debriefing" data-source-line="27" data-uid="lnk37" id="link_GP_Show debriefing"><path d="M208.26,264.72 C231.19,283.54 260.25,305.67 288.43,322.3 C300.84,329.62 309.5976,333.9578 322.5576,339.3978" fill="none" id="GP-to-Show debriefing" style="stroke:#181818;stroke-width:1;"/><polygon fill="#181818" points="328.09,341.72,321.3396,334.5484,323.4797,339.7848,318.2433,341.9249,328.09,341.72" style="stroke:#181818;stroke-width:1;"/></g><!--link GP to Logout from game--><g class="link" data-entity-1="GP" data-entity-2="Logout from game" data-source-line="29" data-uid="lnk39" id="link_GP_Logout from game"><path d="M208.66,261.44 C215.69,267.98 222.56,275.05 228.43,282.3 C262.98,324.97 248.12,353 288.43,390.3 C297.79,398.96 304.147,403.337 315.737,408.657" fill="none" id="GP-to-Logout from game" style="stroke:#181818;stroke-width:1;"/><polygon fill="#181818" points="321.19,411.16,314.6792,403.7702,316.6459,409.0742,311.3419,411.0408,321.19,411.16" style="stroke:#181818;stroke-width:1;"/></g><!--SRC=[bLB1IiGm4BttAuOzkOV-WGYwI2yA2uktNiPqsWosIKbcgGj-l9FMkbLQmLlcPUQzbpTfgHOG3u4RAr1n82FiNGRPhi2Ee6_nGc476A4uPY-H0jn-v7agfYhFx-3cH08znZZuKEsph3XEy3E-4PorYnMTmIVVi4kIZV9VuPFr0xm6fffTi-18r5422ZMNVVQpd3eUtzMaKium6ElPAFNcpSpiAgXGKCsKBhcPAfsHseTkOU8x2YMzdXV6ewW0i4jpc0BSQdGqn9MxWqM1WSL-1HvBX-fkH6eqtB8A-B0oEMPSaU7uXoeQ7OOE-z91uhMwxNRS-2It-IpZ0wtvlNyuQ3o_nFyTwwXHqShMzPFuiq0TV3Vzaqy0]--></g></svg>