<svg xmlns="http://www.w3.org/2000/svg" xmlns:xlink="http://www.w3.org/1999/xlink" contentStyleType="text/css" data-diagram-type="DESCRIPTION" height="433px" preserveAspectRatio="none" style="width:1097px;height:433px;background:#FFFFFF;" version="1.1" viewBox="0 0 1097 433" width="1097px" zoomAndPan="magnify"><defs/><g><!--entity GP--><g class="entity" data-entity="GP" data-source-line="3" data-uid="ent0002" id="entity_GP"><ellipse cx="164.1693" cy="145.14" fill="#F1F1F1" rx="8" ry="8" style="stroke:#181818;stroke-width:0.5;"/><path d="M164.1693,153.14 L164.1693,180.14 M151.1693,161.14 L177.1693,161.14 M164.1693,180.14 L151.1693,195.14 M164.1693,180.14 L177.1693,195.14" fill="none" style="stroke:#181818;stroke-width:0.5;"/><text fill="#000000" font-family="sans-serif" font-size="14" lengthAdjust="spacing" textLength="90.1387" x="119.1" y="209.6351">Game player</text></g><!--entity User--><g class="entity" data-entity="User" data-source-line="4" data-uid="ent0003" id="entity_User"><ellipse cx="21.9551" cy="214.14" fill="#F1F1F1" rx="8" ry="8" style="stroke:#181818;stroke-width:0.5;"/><path d="M21.9551,222.14 L21.9551,249.14 M8.9551,230.14 L34.9551,230.14 M21.9551,249.14 L8.9551,264.14 M21.9551,249.14 L34.9551,264.14" fill="none" style="stroke:#181818;stroke-width:0.5;"/><text fill="#000000" font-family="sans-serif" font-size="14" lengthAdjust="spacing" textLength="31.9102" x="6" y="278.6351">User</text></g><!--entity Set password--><g class="entity" data-entity="Set password" data-source-line="6" data-uid="ent0005" id="entity_Set password"><ellipse cx="164.1679" cy="263.7916" fill="#F1F1F1" rx="65.2579" ry="15.4516" style="stroke:#181818;stroke-width:0.5;"/><text fill="#000000" font-family="sans-serif" font-size="14" lengthAdjust="spacing" textLength="94.1514" x="117.0922" y="268.44">Set password</text></g><!--entity Make userid--><g class="entity" data-entity="Make userid" data-source-line="8" data-uid="ent0007" id="entity_Make userid"><ellipse cx="370.0054" cy="20.7851" fill="#F1F1F1" rx="61.9254" ry="14.7851" style="stroke:#181818;stroke-width:0.5;"/><text fill="#000000" font-family="sans-serif" font-size="14" lengthAdjust="spacing" textLength="85.1416" x="327.4346" y="25.4335">Make userid</text></g><!--entity Login to game--><g class="entity" data-entity="Login to game" data-source-line="9" data-uid="ent0009" id="entity_Login to game"><ellipse cx="370.014" cy="86.7928" fill="#F1F1F1" rx="67.764" ry="15.9528" style="stroke:#181818;stroke-width:0.5;"/><text fill="#000000" font-family="sans-serif" font-size="14" lengthAdjust="spacing" textLength="100.6865" x="319.6707" y="91.4412">Login to game</text></g><!--entity Show briefing--><g class="entity" data-entity="Show briefing" data-source-line="11" data-uid="ent0011" id="entity_Show briefing"><ellipse cx="370.0104" cy="153.7881" fill="#F1F1F1" rx="65.9404" ry="15.5881" style="stroke:#181818;stroke-width:0.5;"/><text fill="#000000" font-family="sans-serif" font-size="14" lengthAdjust="spacing" textLength="95.9492" x="322.0358" y="158.4365">Show briefing</text></g><!--entity Game play--><g class="entity" data-entity="Game play" data-source-line="13" data-uid="ent0013" id="entity_Game play"><ellipse cx="370.0071" cy="218.7936" fill="#F1F1F1" rx="56.5771" ry="14.5236" style="stroke:#181818;stroke-width:0.5;"/><text fill="#000000" font-family="sans-serif" font-size="14" lengthAdjust="spacing" textLength="75.7695" x="332.1224" y="223.4421">Game play</text></g><!--entity Show state information--><g class="entity" data-entity="Show state information" data-source-line="14" data-uid="ent0015" id="entity_Show state information"><ellipse cx="675.4701" cy="38.79" fill="#F1F1F1" rx="94.2001" ry="21.24" style="stroke:#181818;stroke-width:0.5;"/><text fill="#000000" font-family="sans-serif" font-size="14" lengthAdjust="spacing" textLength="163.1875" x="593.8764" y="43.4385">Show state information</text></g><!--entity Show news--><g class="entity" data-entity="Show news" data-source-line="15" data-uid="ent0017" id="entity_Show news"><ellipse cx="675.4668" cy="109.7936" fill="#F1F1F1" rx="58.4768" ry="14.5236" style="stroke:#181818;stroke-width:0.5;"/><text fill="#000000" font-family="sans-serif" font-size="14" lengthAdjust="spacing" textLength="78.4561" x="636.2388" y="114.4421">Show news</text></g><!--entity Chat with players\nand with facilitator--><g class="entity" data-entity="Chat with players\nand with facilitator" data-source-line="16" data-uid="ent0019" id="entity_Chat with players\nand with facilitator"><ellipse cx="675.4667" cy="184.7873" fill="#F1F1F1" rx="94.5867" ry="25.6673" style="stroke:#181818;stroke-width:0.5;"/><text fill="#000000" font-family="sans-serif" font-size="14" lengthAdjust="spacing" textLength="122.623" x="614.1552" y="180.7453">Chat with players</text><text fill="#000000" font-family="sans-serif" font-size="14" lengthAdjust="spacing" textLength="131.6943" x="609.6195" y="197.0422">and with facilitator</text></g><!--entity Make decision--><g class="entity" data-entity="Make decision" data-source-line="17" data-uid="ent0021" id="entity_Make decision"><ellipse cx="675.4686" cy="261.7937" fill="#F1F1F1" rx="67.3186" ry="15.8637" style="stroke:#181818;stroke-width:0.5;"/><text fill="#000000" font-family="sans-serif" font-size="14" lengthAdjust="spacing" textLength="99.5381" x="625.6996" y="266.4422">Make decision</text></g><!--entity Show actor map\n and highlight player--><g class="entity" data-entity="Show actor map\n and highlight player" data-source-line="18" data-uid="ent0023" id="entity_Show actor map\n and highlight player"><ellipse cx="675.4739" cy="337.7949" fill="#F1F1F1" rx="100.8839" ry="24.9649" style="stroke:#181818;stroke-width:0.5;"/><text fill="#000000" font-family="sans-serif" font-size="14" lengthAdjust="spacing" textLength="113.8662" x="618.5408" y="332.7245">Show actor map</text><text fill="#000000" font-family="sans-serif" font-size="14" lengthAdjust="spacing" textLength="140.7998" x="607.2991" y="349.0214">and highlight player</text></g><!--entity Show scores--><g class="entity" data-entity="Show scores" data-source-line="19" data-uid="ent0025" id="entity_Show scores"><ellipse cx="675.4728" cy="412.7926" fill="#F1F1F1" rx="62.7628" ry="14.9526" style="stroke:#181818;stroke-width:0.5;"/><text fill="#000000" font-family="sans-serif" font-size="14" lengthAdjust="spacing" textLength="87.4453" x="631.7502" y="417.441">Show scores</text></g><!--entity Send data to\ngame data platform--><g class="entity" data-entity="Send data to\ngame data platform" data-source-line="21" data-uid="ent0027" id="entity_Send data to\ngame data platform"><ellipse cx="996.2766" cy="261.7894" fill="#F1F1F1" rx="94.9266" ry="24.4194" style="stroke:#181818;stroke-width:0.5;"/><text fill="#000000" font-family="sans-serif" font-size="14" lengthAdjust="spacing" textLength="89.749" x="951.4021" y="255.8924">Send data to</text><text fill="#000000" font-family="sans-serif" font-size="14" lengthAdjust="spacing" textLength="139.8838" x="926.3347" y="272.1892">game data platform</text></g><!--entity Show debriefing--><g class="entity" data-entity="Show debriefing" data-source-line="23" data-uid="ent0029" id="entity_Show debriefing"><ellipse cx="370.0099" cy="284.788" fill="#F1F1F1" rx="72.8399" ry="16.968" style="stroke:#181818;stroke-width:0.5;"/><text fill="#000000" font-family="sans-serif" font-size="14" lengthAdjust="spacing" textLength="113.4492" x="313.2853" y="289.4364">Show debriefing</text></g><!--entity Logout from game--><g class="entity" data-entity="Logout from game" data-source-line="25" data-uid="ent0031" id="entity_Logout from game"><ellipse cx="370.0097" cy="354.7859" fill="#F1F1F1" rx="79.5797" ry="18.3159" style="stroke:#181818;stroke-width:0.5;"/><text fill="#000000" font-family="sans-serif" font-size="14" lengthAdjust="spacing" textLength="129.6846" x="305.1674" y="359.4344">Logout from game</text></g><!--reverse link User to GP--><g class="link" data-entity-1="User" data-entity-2="GP" data-source-line="4" data-uid="lnk4" id="link_User_GP"><path d="M54.3799,228.3215 C73.5399,218.8915 91.09,210.26 118.66,196.69" fill="none" id="User-backto-GP" style="stroke:#181818;stroke-width:1;"/><polygon fill="none" points="38.23,236.27,57.0295,233.7048,51.7304,222.9381,38.23,236.27" style="stroke:#181818;stroke-width:1;"/></g><!--link User to Set password--><g class="link" data-entity-1="User" data-entity-2="Set password" data-source-line="6" data-uid="lnk6" id="link_User_Set password"><path d="M38.23,245.97 C54.84,248.33 76.4203,251.4115 101.4103,254.9815" fill="none" id="User-to-Set password" style="stroke:#181818;stroke-width:1;"/><polygon fill="#181818" points="107.35,255.83,99.0061,250.5974,102.4003,255.1229,97.8748,258.517,107.35,255.83" style="stroke:#181818;stroke-width:1;"/></g><!--link GP to Make userid--><g class="link" data-entity-1="GP" data-entity-2="Make userid" data-source-line="8" data-uid="lnk8" id="link_GP_Make userid"><path d="M198.01,136.28 C221.67,110.36 255.46,76.84 290.43,53.79 C303.27,45.32 313.0608,40.4619 326.7908,35.1019" fill="none" id="GP-to-Make userid" style="stroke:#181818;stroke-width:1;"/><polygon fill="#181818" points="332.38,32.92,322.5416,32.4668,327.7223,34.7383,325.4508,39.919,332.38,32.92" style="stroke:#181818;stroke-width:1;"/></g><!--link GP to Login to game--><g class="link" data-entity-1="GP" data-entity-2="Login to game" data-source-line="9" data-uid="lnk10" id="link_GP_Login to game"><path d="M209.65,155.58 C247.72,139.15 296.1614,118.238 330.4914,103.418" fill="none" id="GP-to-Login to game" style="stroke:#181818;stroke-width:1;"/><polygon fill="#181818" points="336,101.04,326.1517,100.9346,331.4095,103.0217,329.3224,108.2795,336,101.04" style="stroke:#181818;stroke-width:1;"/></g><!--link GP to Show briefing--><g class="link" data-entity-1="GP" data-entity-2="Show briefing" data-source-line="11" data-uid="lnk12" id="link_GP_Show briefing"><path d="M209.65,170.2 C238.7,167.21 271.0317,163.8862 302.8017,160.6062" fill="none" id="GP-to-Show briefing" style="stroke:#181818;stroke-width:1;"/><polygon fill="#181818" points="308.77,159.99,299.4068,156.9354,303.7964,160.5035,300.2284,164.8931,308.77,159.99" style="stroke:#181818;stroke-width:1;"/></g><!--link GP to Game play--><g class="link" data-entity-1="GP" data-entity-2="Game play" data-source-line="13" data-uid="lnk14" id="link_GP_Game play"><path d="M209.65,184.39 C244.09,191.82 285.655,200.7943 319.805,208.1643" fill="none" id="GP-to-Game play" style="stroke:#181818;stroke-width:1;"/><polygon fill="#181818" points="325.67,209.43,317.7164,203.6214,320.7825,208.3752,316.0287,211.4414,325.67,209.43" style="stroke:#181818;stroke-width:1;"/></g><!--link Game play to Show state information--><g class="link" data-entity-1="Game play" data-entity-2="Show state information" data-source-line="14" data-uid="lnk16" id="link_Game play_Show state information"><path d="M411.31,208.58 C424.67,203.68 438.85,196.66 449.59,186.79 C471.24,166.87 458.93,148.73 479.59,127.79 C513.09,93.81 531.18,97.61 574.59,77.79 C590.59,70.48 602.7924,65.4104 618.8824,59.2004" fill="none" id="Game play-to-Show state information" style="stroke:#181818;stroke-width:1;"/><polygon fill="#181818" points="624.48,57.04,614.6434,56.5489,619.8154,58.8403,617.5239,64.0123,624.48,57.04" style="stroke:#181818;stroke-width:1;"/><text fill="#000000" font-family="sans-serif" font-size="13" lengthAdjust="spacing" textLength="61.1851" x="481.59" y="86.8569">&#171;extend&#187;</text></g><!--link Game play to Show news--><g class="link" data-entity-1="Game play" data-entity-2="Show news" data-source-line="15" data-uid="lnk18" id="link_Game play_Show news"><path d="M401.6,206.3 C430.95,194.33 471.92,177.67 479.59,174.79 C521.42,159.06 532.19,155.94 574.59,141.79 C595.48,134.81 613.2204,129.0929 632.1504,123.0929" fill="none" id="Game play-to-Show news" style="stroke:#181818;stroke-width:1;"/><polygon fill="#181818" points="637.87,121.28,628.0821,120.1862,633.1037,122.7907,630.4992,127.8123,637.87,121.28" style="stroke:#181818;stroke-width:1;"/><text fill="#000000" font-family="sans-serif" font-size="13" lengthAdjust="spacing" textLength="61.1851" x="481.59" y="148.8569">&#171;extend&#187;</text></g><!--link Game play to Chat with players\nand with facilitator--><g class="link" data-entity-1="Game play" data-entity-2="Chat with players\nand with facilitator" data-source-line="16" data-uid="lnk20" id="link_Game play_Chat with players\nand with facilitator"><path d="M422.48,213.02 C467.55,207.97 528.0074,201.1985 581.3474,195.2185" fill="none" id="Game play-to-Chat with players\nand with facilitator" style="stroke:#181818;stroke-width:1;"/><polygon fill="#181818" points="587.31,194.55,577.9204,191.5776,582.3411,195.1071,578.8117,199.5278,587.31,194.55" style="stroke:#181818;stroke-width:1;"/><text fill="#000000" font-family="sans-serif" font-size="13" lengthAdjust="spacing" textLength="61.1851" x="481.59" y="195.8569">&#171;extend&#187;</text></g><!--link Game play to Make decision--><g class="link" data-entity-1="Game play" data-entity-2="Make decision" data-source-line="17" data-uid="lnk22" id="link_Game play_Make decision"><path d="M420.44,225.79 C474.18,233.41 554.0394,244.7179 610.8294,252.7679" fill="none" id="Game play-to-Make decision" style="stroke:#181818;stroke-width:1;"/><polygon fill="#181818" points="616.77,253.61,608.4205,248.3865,611.8195,252.9083,607.2977,256.3073,616.77,253.61" style="stroke:#181818;stroke-width:1;"/><text fill="#000000" font-family="sans-serif" font-size="13" lengthAdjust="spacing" textLength="61.1851" x="481.59" y="230.8569">&#171;extend&#187;</text></g><!--link Game play to Show actor map\n and highlight player--><g class="link" data-entity-1="Game play" data-entity-2="Show actor map\n and highlight player" data-source-line="18" data-uid="lnk24" id="link_Game play_Show actor map\n and highlight player"><path d="M403.53,230.94 C417.84,236.57 434.74,243.59 449.59,250.79 C463.38,257.47 465.66,261.4 479.59,267.79 C522.55,287.5 567.1025,303.549 605.8125,316.329" fill="none" id="Game play-to-Show actor map\n and highlight player" style="stroke:#181818;stroke-width:1;"/><polygon fill="#181818" points="611.51,318.21,604.2177,311.5901,606.7621,316.6425,601.7097,319.1868,611.51,318.21" style="stroke:#181818;stroke-width:1;"/><text fill="#000000" font-family="sans-serif" font-size="13" lengthAdjust="spacing" textLength="63.0068" x="480.59" y="263.8569">&#171;include&#187;</text></g><!--link Game play to Show scores--><g class="link" data-entity-1="Game play" data-entity-2="Show scores" data-source-line="19" data-uid="lnk26" id="link_Game play_Show scores"><path d="M412.02,228.81 C425.29,233.68 439.23,240.73 449.59,250.79 C473.28,273.81 458.11,293.69 479.59,318.79 C512.21,356.91 529.29,358.19 574.59,379.79 C593.05,388.59 608.7299,394.2632 626.9999,399.8232" fill="none" id="Game play-to-Show scores" style="stroke:#181818;stroke-width:1;"/><polygon fill="#181818" points="632.74,401.57,625.2944,395.123,627.9566,400.1143,622.9653,402.7765,632.74,401.57" style="stroke:#181818;stroke-width:1;"/><text fill="#000000" font-family="sans-serif" font-size="13" lengthAdjust="spacing" textLength="63.0068" x="480.59" y="314.8569">&#171;include&#187;</text></g><!--link Make decision to Send data to\ngame data platform--><g class="link" data-entity-1="Make decision" data-entity-2="Send data to\ngame data platform" data-source-line="21" data-uid="lnk28" id="link_Make decision_Send data to\ngame data platform"><path d="M742.91,261.79 C788.72,261.79 844.26,261.79 895.11,261.79" fill="none" id="Make decision-to-Send data to\ngame data platform" style="stroke:#181818;stroke-width:1;"/><polygon fill="#181818" points="901.11,261.79,892.11,257.79,896.11,261.79,892.11,265.79,901.11,261.79" style="stroke:#181818;stroke-width:1;"/><text fill="#000000" font-family="sans-serif" font-size="13" lengthAdjust="spacing" textLength="63.0068" x="807.35" y="257.8569">&#171;include&#187;</text></g><!--link GP to Show debriefing--><g class="link" data-entity-1="GP" data-entity-2="Show debriefing" data-source-line="23" data-uid="lnk30" id="link_GP_Show debriefing"><path d="M209.54,203.75 C233.12,218.62 262.86,236.54 290.43,250.79 C303.63,257.61 312.9861,261.9477 326.2161,267.5577" fill="none" id="GP-to-Show debriefing" style="stroke:#181818;stroke-width:1;"/><polygon fill="#181818" points="331.74,269.9,325.0157,262.7039,327.1367,267.9481,321.8926,270.0691,331.74,269.9" style="stroke:#181818;stroke-width:1;"/></g><!--link GP to Logout from game--><g class="link" data-entity-1="GP" data-entity-2="Logout from game" data-source-line="25" data-uid="lnk32" id="link_GP_Logout from game"><path d="M209.4,210.75 C216.38,217.14 223.31,223.95 229.43,230.79 C261.16,266.25 253.94,288.23 290.43,318.79 C300.44,327.17 307.2567,331.5296 319.1067,336.9096" fill="none" id="GP-to-Logout from game" style="stroke:#181818;stroke-width:1;"/><polygon fill="#181818" points="324.57,339.39,318.0286,332.0272,320.0172,337.323,314.7215,339.3116,324.57,339.39" style="stroke:#181818;stroke-width:1;"/></g><!--SRC=[ZP6nReGm44HxVyNggb3m0n6YkO8caKuwfQFPs0ki0ZQo5v58-VYpWKGakTEbyux6iwDzFJK2ui1psmaOzgI5dLNgKE50CFRuGVu06A0wgPT07ehFF4_3EkLv2Gzd4XWnXDbvaobLdLRv6Ty8fkZYg7w9JwvbcpQsCNzdFdTkXbVFrB1jT_ftZKpjthi_GL08s3RE3vYwP_08HG7qBcGDbEMDVvRcSDzwx51WPkcsKuJQOhGkIeEQUuxhdRyVj1p3aERm_ugeOpGCEDOMqjOkGkeNK6kPBOQjxYT3jtE2Tfx2NxVwtMgZ6LSP58oKQfimhLDCbNJaApa_81gwWZ5YTvD0uzsmahy0]--></g></svg>