<svg xmlns="http://www.w3.org/2000/svg" xmlns:xlink="http://www.w3.org/1999/xlink" contentStyleType="text/css" data-diagram-type="DESCRIPTION" height="490px" preserveAspectRatio="none" style="width:973px;height:490px;background:#FFFFFF;" version="1.1" viewBox="0 0 973 490" width="973px" zoomAndPan="magnify"><defs/><g><!--entity GD--><g class="entity" data-entity="GD" data-source-line="3" data-uid="ent0002" id="entity_GD"><ellipse cx="164.1707" cy="83.56" fill="#F1F1F1" rx="8" ry="8" style="stroke:#181818;stroke-width:0.5;"/><path d="M164.1707,91.56 L164.1707,118.56 M151.1707,99.56 L177.1707,99.56 M164.1707,118.56 L151.1707,133.56 M164.1707,118.56 L177.1707,133.56" fill="none" style="stroke:#181818;stroke-width:0.5;"/><text fill="#000000" font-family="sans-serif" font-size="14" lengthAdjust="spacing" textLength="106.9414" x="110.7" y="148.0551">Game designer</text></g><!--entity User--><g class="entity" data-entity="User" data-source-line="4" data-uid="ent0003" id="entity_User"><ellipse cx="21.9551" cy="152.56" fill="#F1F1F1" rx="8" ry="8" style="stroke:#181818;stroke-width:0.5;"/><path d="M21.9551,160.56 L21.9551,187.56 M8.9551,168.56 L34.9551,168.56 M21.9551,187.56 L8.9551,202.56 M21.9551,187.56 L34.9551,202.56" fill="none" style="stroke:#181818;stroke-width:0.5;"/><text fill="#000000" font-family="sans-serif" font-size="14" lengthAdjust="spacing" textLength="31.9102" x="6" y="217.0551">User</text></g><!--entity Set password--><g class="entity" data-entity="Set password" data-source-line="5" data-uid="ent0005" id="entity_Set password"><ellipse cx="164.1679" cy="202.2116" fill="#F1F1F1" rx="65.2579" ry="15.4516" style="stroke:#181818;stroke-width:0.5;"/><text fill="#000000" font-family="sans-serif" font-size="14" lengthAdjust="spacing" textLength="94.1514" x="117.0922" y="206.86">Set password</text></g><!--entity Create game--><g class="entity" data-entity="Create game" data-source-line="7" data-uid="ent0007" id="entity_Create game"><ellipse cx="393.0626" cy="21.2145" fill="#F1F1F1" rx="64.0726" ry="15.2145" style="stroke:#181818;stroke-width:0.5;"/><text fill="#000000" font-family="sans-serif" font-size="14" lengthAdjust="spacing" textLength="90.9932" x="347.566" y="25.863">Create game</text></g><!--entity Clone game--><g class="entity" data-entity="Clone game" data-source-line="9" data-uid="ent0009" id="entity_Clone game"><ellipse cx="393.0626" cy="86.2145" fill="#F1F1F1" rx="61.4726" ry="14.6945" style="stroke:#181818;stroke-width:0.5;"/><text fill="#000000" font-family="sans-serif" font-size="14" lengthAdjust="spacing" textLength="83.8838" x="351.1207" y="90.863">Clone game</text></g><!--entity Delete game--><g class="entity" data-entity="Delete game" data-source-line="10" data-uid="ent0011" id="entity_Delete game"><ellipse cx="393.0551" cy="151.213" fill="#F1F1F1" rx="63.7651" ry="15.153" style="stroke:#181818;stroke-width:0.5;"/><text fill="#000000" font-family="sans-serif" font-size="14" lengthAdjust="spacing" textLength="90.166" x="347.9721" y="155.8615">Delete game</text></g><!--entity Design game--><g class="entity" data-entity="Design game" data-source-line="12" data-uid="ent0013" id="entity_Design game"><ellipse cx="393.0574" cy="254.2075" fill="#F1F1F1" rx="64.6374" ry="15.3275" style="stroke:#181818;stroke-width:0.5;"/><text fill="#000000" font-family="sans-serif" font-size="14" lengthAdjust="spacing" textLength="92.5039" x="346.8054" y="258.8559">Design game</text></g><!--entity Choose game--><g class="entity" data-entity="Choose game" data-source-line="13" data-uid="ent0015" id="entity_Choose game"><ellipse cx="670.7439" cy="56.2108" fill="#F1F1F1" rx="65.9039" ry="15.5808" style="stroke:#181818;stroke-width:0.5;"/><text fill="#000000" font-family="sans-serif" font-size="14" lengthAdjust="spacing" textLength="95.8535" x="622.8171" y="60.8592">Choose game</text></g><!--entity Set goals--><g class="entity" data-entity="Set goals" data-source-line="14" data-uid="ent0017" id="entity_Set goals"><ellipse cx="670.7375" cy="121.2136" fill="#F1F1F1" rx="48.7175" ry="14.5236" style="stroke:#181818;stroke-width:0.5;"/><text fill="#000000" font-family="sans-serif" font-size="14" lengthAdjust="spacing" textLength="64.6543" x="638.4103" y="125.8621">Set goals</text></g><!--entity Set actors--><g class="entity" data-entity="Set actors" data-source-line="15" data-uid="ent0019" id="entity_Set actors"><ellipse cx="670.7375" cy="185.2136" fill="#F1F1F1" rx="53.0775" ry="14.5236" style="stroke:#181818;stroke-width:0.5;"/><text fill="#000000" font-family="sans-serif" font-size="14" lengthAdjust="spacing" textLength="70.8203" x="635.3274" y="189.8621">Set actors</text></g><!--entity Show defined actors--><g class="entity" data-entity="Show defined actors" data-source-line="16" data-uid="ent0021" id="entity_Show defined actors"><ellipse cx="670.7438" cy="254.2068" fill="#F1F1F1" rx="85.1838" ry="19.4368" style="stroke:#181818;stroke-width:0.5;"/><text fill="#000000" font-family="sans-serif" font-size="14" lengthAdjust="spacing" textLength="142.748" x="599.3698" y="258.8552">Show defined actors</text></g><!--entity Show actor map--><g class="entity" data-entity="Show actor map" data-source-line="17" data-uid="ent0023" id="entity_Show actor map"><ellipse cx="670.7393" cy="325.2119" fill="#F1F1F1" rx="73.0093" ry="17.0019" style="stroke:#181818;stroke-width:0.5;"/><text fill="#000000" font-family="sans-serif" font-size="14" lengthAdjust="spacing" textLength="113.8662" x="613.8062" y="329.8603">Show actor map</text></g><!--entity Set scenario--><g class="entity" data-entity="Set scenario" data-source-line="18" data-uid="ent0025" id="entity_Set scenario"><ellipse cx="670.7433" cy="392.2087" fill="#F1F1F1" rx="62.4933" ry="14.8987" style="stroke:#181818;stroke-width:0.5;"/><text fill="#000000" font-family="sans-serif" font-size="14" lengthAdjust="spacing" textLength="86.707" x="627.3898" y="396.8571">Set scenario</text></g><!--entity Show scenario timeline--><g class="entity" data-entity="Show scenario timeline" data-source-line="19" data-uid="ent0027" id="entity_Show scenario timeline"><ellipse cx="670.7442" cy="463.2088" fill="#F1F1F1" rx="94.0442" ry="21.2088" style="stroke:#181818;stroke-width:0.5;"/><text fill="#000000" font-family="sans-serif" font-size="14" lengthAdjust="spacing" textLength="162.8389" x="589.3248" y="467.8573">Show scenario timeline</text></g><!--entity Set parameters--><g class="entity" data-entity="Set parameters" data-source-line="20" data-uid="ent0029" id="entity_Set parameters"><ellipse cx="896.6927" cy="289.2105" fill="#F1F1F1" rx="70.9027" ry="16.5805" style="stroke:#181818;stroke-width:0.5;"/><text fill="#000000" font-family="sans-serif" font-size="14" lengthAdjust="spacing" textLength="108.6436" x="842.371" y="293.859">Set parameters</text></g><!--reverse link User to GD--><g class="link" data-entity-1="User" data-entity-2="GD" data-source-line="4" data-uid="lnk4" id="link_User_GD"><path d="M54.3781,166.7477 C71.6181,158.2577 84.49,151.93 110.23,139.26" fill="none" id="User-backto-GD" style="stroke:#181818;stroke-width:1;"/><polygon fill="none" points="38.23,174.7,57.0289,172.1304,51.7273,161.365,38.23,174.7" style="stroke:#181818;stroke-width:1;"/></g><!--link User to Set password--><g class="link" data-entity-1="User" data-entity-2="Set password" data-source-line="5" data-uid="lnk6" id="link_User_Set password"><path d="M38.23,184.39 C54.84,186.76 76.4203,189.8315 101.4103,193.4015" fill="none" id="User-to-Set password" style="stroke:#181818;stroke-width:1;"/><polygon fill="#181818" points="107.35,194.25,99.0061,189.0174,102.4003,193.5429,97.8748,196.937,107.35,194.25" style="stroke:#181818;stroke-width:1;"/></g><!--link GD to Create game--><g class="link" data-entity-1="GD" data-entity-2="Create game" data-source-line="7" data-uid="lnk8" id="link_GD_Create game"><path d="M217.97,91.23 C231.47,85.65 245.97,79.68 259.43,74.21 C293.19,60.48 326.3427,47.2522 353.1927,36.6022" fill="none" id="GD-to-Create game" style="stroke:#181818;stroke-width:1;"/><polygon fill="#181818" points="358.77,34.39,348.9293,33.9901,354.1223,36.2335,351.8789,41.4265,358.77,34.39" style="stroke:#181818;stroke-width:1;"/></g><!--link GD to Clone game--><g class="link" data-entity-1="GD" data-entity-2="Clone game" data-source-line="9" data-uid="lnk10" id="link_GD_Clone game"><path d="M218.08,106.91 C253.96,102.65 295.302,97.7288 331.532,93.4188" fill="none" id="GD-to-Clone game" style="stroke:#181818;stroke-width:1;"/><polygon fill="#181818" points="337.49,92.71,328.0805,89.8012,332.525,93.3006,329.0255,97.7452,337.49,92.71" style="stroke:#181818;stroke-width:1;"/></g><!--link GD to Delete game--><g class="link" data-entity-1="GD" data-entity-2="Delete game" data-source-line="10" data-uid="lnk12" id="link_GD_Delete game"><path d="M218.08,122.07 C254.74,128.21 297.4226,135.3581 333.9326,141.4781" fill="none" id="GD-to-Delete game" style="stroke:#181818;stroke-width:1;"/><polygon fill="#181818" points="339.85,142.47,331.6351,137.0372,334.9188,141.6434,330.3126,144.9271,339.85,142.47" style="stroke:#181818;stroke-width:1;"/></g><!--link GD to Design game--><g class="link" data-entity-1="GD" data-entity-2="Design game" data-source-line="12" data-uid="lnk14" id="link_GD_Design game"><path d="M214.12,151.79 C219.65,157.3 224.92,163.16 229.43,169.21 C248.68,195.05 233.64,215.89 259.43,235.21 C279.25,250.07 299.5449,255.4275 323.4849,257.1175" fill="none" id="GD-to-Design game" style="stroke:#181818;stroke-width:1;"/><polygon fill="#181818" points="329.47,257.54,320.774,252.9162,324.4824,257.1879,320.2107,260.8963,329.47,257.54" style="stroke:#181818;stroke-width:1;"/><text fill="#000000" font-family="sans-serif" font-size="13" lengthAdjust="spacing" textLength="37.1909" x="260.43" y="156.2769">&#160;&#160;&#160;&#160;&#160;&#160;&#160;&#160;&#160;</text><text fill="#000000" font-family="sans-serif" font-size="13" lengthAdjust="spacing" textLength="4.1323" x="276.9593" y="171.4097">&#160;</text><text fill="#000000" font-family="sans-serif" font-size="13" lengthAdjust="spacing" textLength="4.1323" x="276.9593" y="186.5425">&#160;</text><text fill="#000000" font-family="sans-serif" font-size="13" lengthAdjust="spacing" textLength="4.1323" x="276.9593" y="201.6753">&#160;</text><text fill="#000000" font-family="sans-serif" font-size="13" lengthAdjust="spacing" textLength="4.1323" x="276.9593" y="216.8081">&#160;</text><text fill="#000000" font-family="sans-serif" font-size="13" lengthAdjust="spacing" textLength="4.1323" x="276.9593" y="231.941">&#160;</text></g><!--link Design game to Choose game--><g class="link" data-entity-1="Design game" data-entity-2="Choose game" data-source-line="13" data-uid="lnk16" id="link_Design game_Choose game"><path d="M407.52,239.16 C429.21,215.02 471.14,168.87 487.7,154.21 C524.38,121.75 533.39,112.08 576.7,89.21 C592.61,80.81 605.4355,75.64 621.7355,70.23" fill="none" id="Design game-to-Choose game" style="stroke:#181818;stroke-width:1;"/><polygon fill="#181818" points="627.43,68.34,617.6282,67.3787,622.6845,69.915,620.1482,74.9714,627.43,68.34" style="stroke:#181818;stroke-width:1;"/><text fill="#000000" font-family="sans-serif" font-size="13" lengthAdjust="spacing" textLength="57.8525" x="488.7" y="103.2769">&#160;&#160;&#160;&#160;&#160;&#160;&#160;&#160;&#160;&#160;&#160;&#160;&#160;&#160;</text></g><!--link Design game to Set goals--><g class="link" data-entity-1="Design game" data-entity-2="Set goals" data-source-line="14" data-uid="lnk18" id="link_Design game_Set goals"><path d="M415.56,239.62 C434.25,227.18 462.26,209.16 487.7,195.21 C526.05,174.18 536.18,169.68 576.7,153.21 C596.17,145.3 612.699,139.4705 630.559,133.6105" fill="none" id="Design game-to-Set goals" style="stroke:#181818;stroke-width:1;"/><polygon fill="#181818" points="636.26,131.74,626.4615,130.7451,631.5092,133.2988,628.9556,138.3464,636.26,131.74" style="stroke:#181818;stroke-width:1;"/></g><!--link Design game to Set actors--><g class="link" data-entity-1="Design game" data-entity-2="Set actors" data-source-line="15" data-uid="lnk20" id="link_Design game_Set actors"><path d="M435.46,242.34 C451.71,237.78 470.54,232.62 487.7,228.21 C535.98,215.81 585.9595,204.1509 622.9295,195.7409" fill="none" id="Design game-to-Set actors" style="stroke:#181818;stroke-width:1;"/><polygon fill="#181818" points="628.78,194.41,619.1169,192.506,623.9046,195.5191,620.8915,200.3067,628.78,194.41" style="stroke:#181818;stroke-width:1;"/></g><!--link Design game to Show defined actors--><g class="link" data-entity-1="Design game" data-entity-2="Show defined actors" data-source-line="16" data-uid="lnk22" id="link_Design game_Show defined actors"><path d="M458,254.21 C495.86,254.21 538.27,254.21 579.25,254.21" fill="none" id="Design game-to-Show defined actors" style="stroke:#181818;stroke-width:1;"/><polygon fill="#181818" points="585.25,254.21,576.25,250.21,580.25,254.21,576.25,258.21,585.25,254.21" style="stroke:#181818;stroke-width:1;"/></g><!--link Design game to Show actor map--><g class="link" data-entity-1="Design game" data-entity-2="Show actor map" data-source-line="17" data-uid="lnk24" id="link_Design game_Show actor map"><path d="M438.05,265.54 C487.76,278.34 562.6695,297.634 614.5195,310.984" fill="none" id="Design game-to-Show actor map" style="stroke:#181818;stroke-width:1;"/><polygon fill="#181818" points="620.33,312.48,612.6116,306.3623,615.4879,311.2333,610.6169,314.1096,620.33,312.48" style="stroke:#181818;stroke-width:1;"/></g><!--link Design game to Set scenario--><g class="link" data-entity-1="Design game" data-entity-2="Set scenario" data-source-line="18" data-uid="lnk26" id="link_Design game_Set scenario"><path d="M416.09,268.89 C449.67,290.84 516.18,332.56 576.7,360.21 C593.79,368.02 607.6634,373.1766 624.4434,378.6266" fill="none" id="Design game-to-Set scenario" style="stroke:#181818;stroke-width:1;"/><polygon fill="#181818" points="630.15,380.48,622.8258,373.8955,625.3945,378.9355,620.3545,381.5042,630.15,380.48" style="stroke:#181818;stroke-width:1;"/></g><!--link Design game to Show scenario timeline--><g class="link" data-entity-1="Design game" data-entity-2="Show scenario timeline" data-source-line="19" data-uid="lnk28" id="link_Design game_Show scenario timeline"><path d="M406.6,269.66 C434.08,302.58 503.07,380.22 576.7,424.21 C589.93,432.12 599.5188,436.899 613.6788,442.779" fill="none" id="Design game-to-Show scenario timeline" style="stroke:#181818;stroke-width:1;"/><polygon fill="#181818" points="619.22,445.08,612.4422,437.9343,614.6023,443.1625,609.3741,445.3226,619.22,445.08" style="stroke:#181818;stroke-width:1;"/></g><!--link Set scenario to Set parameters--><g class="link" data-entity-1="Set scenario" data-entity-2="Set parameters" data-source-line="20" data-uid="lnk30" id="link_Set scenario_Set parameters"><path d="M710.77,380.39 C727.63,374.87 747.43,367.84 764.79,360.21 C802.42,343.67 838.6353,323.3439 864.5953,307.9939" fill="none" id="Set scenario-to-Set parameters" style="stroke:#181818;stroke-width:1;"/><polygon fill="#181818" points="869.76,304.94,859.9771,306.0777,865.4561,307.4849,864.0489,312.9639,869.76,304.94" style="stroke:#181818;stroke-width:1;"/></g><!--link Set actors to Set parameters--><g class="link" data-entity-1="Set actors" data-entity-2="Set parameters" data-source-line="21" data-uid="lnk31" id="link_Set actors_Set parameters"><path d="M707.64,195.96 C725.15,201.61 746.36,209.05 764.79,217.21 C802.73,234.02 839.2385,254.8472 865.1385,270.4272" fill="none" id="Set actors-to-Set parameters" style="stroke:#181818;stroke-width:1;"/><polygon fill="#181818" points="870.28,273.52,864.6297,265.4531,865.9955,270.9427,860.5059,272.3084,870.28,273.52" style="stroke:#181818;stroke-width:1;"/></g><!--SRC=[XL7D2eCm3BxtAOAdUV05njXbWWymTjkbsAY5saWQyBA7NrVfKAOiFVNxoPUq3Zi18M3R3mB6ChPYoIjLD7f4C1Xixv4Bq06QMZq2CbnULVMzLDKLJdSKc7G8Cx4fbMhg1RunQa7eOwSrwiXdC6CrElnLrYbzGU4C1UHw-dmAjLKj2GDHm1rVgbtBPuEUj0lb4QjR8JwW1vhZKtNMe_chIpoCUZfC2YrwpPQEUsG5Y1tHnTWetJZNtyBHB9X6MksngtW3]--></g></svg>