<svg xmlns="http://www.w3.org/2000/svg" xmlns:xlink="http://www.w3.org/1999/xlink" contentStyleType="text/css" data-diagram-type="DESCRIPTION" height="534px" preserveAspectRatio="none" style="width:978px;height:534px;background:#FFFFFF;" version="1.1" viewBox="0 0 978 534" width="978px" zoomAndPan="magnify"><defs/><g><!--entity GD--><g class="entity" data-entity="GD" data-source-line="3" data-uid="ent0002" id="entity_GD"><ellipse cx="164.1707" cy="83.93" fill="#F1F1F1" rx="8" ry="8" style="stroke:#181818;stroke-width:0.5;"/><path d="M164.1707,91.93 L164.1707,118.93 M151.1707,99.93 L177.1707,99.93 M164.1707,118.93 L151.1707,133.93 M164.1707,118.93 L177.1707,133.93" fill="none" style="stroke:#181818;stroke-width:0.5;"/><text fill="#000000" font-family="sans-serif" font-size="14" lengthAdjust="spacing" textLength="106.9414" x="110.7" y="148.4251">Game designer</text></g><!--entity User--><g class="entity" data-entity="User" data-source-line="4" data-uid="ent0003" id="entity_User"><ellipse cx="21.9551" cy="204.93" fill="#F1F1F1" rx="8" ry="8" style="stroke:#181818;stroke-width:0.5;"/><path d="M21.9551,212.93 L21.9551,239.93 M8.9551,220.93 L34.9551,220.93 M21.9551,239.93 L8.9551,254.93 M21.9551,239.93 L34.9551,254.93" fill="none" style="stroke:#181818;stroke-width:0.5;"/><text fill="#000000" font-family="sans-serif" font-size="14" lengthAdjust="spacing" textLength="31.9102" x="6" y="269.4251">User</text></g><!--entity Login--><g class="entity" data-entity="Login" data-source-line="6" data-uid="ent0005" id="entity_Login"><ellipse cx="164.1704" cy="201.5836" fill="#F1F1F1" rx="29.8804" ry="14.5236" style="stroke:#181818;stroke-width:0.5;"/><text fill="#000000" font-family="sans-serif" font-size="14" lengthAdjust="spacing" textLength="38.0146" x="145.1631" y="206.2321">Login</text></g><!--entity Set password--><g class="entity" data-entity="Set password" data-source-line="7" data-uid="ent0007" id="entity_Set password"><ellipse cx="164.1679" cy="266.5816" fill="#F1F1F1" rx="65.2579" ry="15.4516" style="stroke:#181818;stroke-width:0.5;"/><text fill="#000000" font-family="sans-serif" font-size="14" lengthAdjust="spacing" textLength="94.1514" x="117.0922" y="271.23">Set password</text></g><!--entity Logout--><g class="entity" data-entity="Logout" data-source-line="8" data-uid="ent0009" id="entity_Logout"><ellipse cx="164.1682" cy="331.5836" fill="#F1F1F1" rx="37.0682" ry="14.5236" style="stroke:#181818;stroke-width:0.5;"/><text fill="#000000" font-family="sans-serif" font-size="14" lengthAdjust="spacing" textLength="48.1797" x="140.0783" y="336.2321">Logout</text></g><!--entity Create game--><g class="entity" data-entity="Create game" data-source-line="10" data-uid="ent0011" id="entity_Create game"><ellipse cx="393.0626" cy="22.5845" fill="#F1F1F1" rx="64.0726" ry="15.2145" style="stroke:#181818;stroke-width:0.5;"/><text fill="#000000" font-family="sans-serif" font-size="14" lengthAdjust="spacing" textLength="90.9932" x="347.566" y="27.233">Create game</text></g><!--entity Clone game--><g class="entity" data-entity="Clone game" data-source-line="12" data-uid="ent0013" id="entity_Clone game"><ellipse cx="393.0626" cy="87.5845" fill="#F1F1F1" rx="61.4726" ry="14.6945" style="stroke:#181818;stroke-width:0.5;"/><text fill="#000000" font-family="sans-serif" font-size="14" lengthAdjust="spacing" textLength="83.8838" x="351.1207" y="92.233">Clone game</text></g><!--entity Delete game--><g class="entity" data-entity="Delete game" data-source-line="13" data-uid="ent0015" id="entity_Delete game"><ellipse cx="393.0551" cy="152.583" fill="#F1F1F1" rx="63.7651" ry="15.153" style="stroke:#181818;stroke-width:0.5;"/><text fill="#000000" font-family="sans-serif" font-size="14" lengthAdjust="spacing" textLength="90.166" x="347.9721" y="157.2315">Delete game</text></g><!--entity Design game--><g class="entity" data-entity="Design game" data-source-line="15" data-uid="ent0017" id="entity_Design game"><ellipse cx="393.0574" cy="255.5775" fill="#F1F1F1" rx="64.6374" ry="15.3275" style="stroke:#181818;stroke-width:0.5;"/><text fill="#000000" font-family="sans-serif" font-size="14" lengthAdjust="spacing" textLength="92.5039" x="346.8054" y="260.2259">Design game</text></g><!--entity Choose game--><g class="entity" data-entity="Choose game" data-source-line="16" data-uid="ent0019" id="entity_Choose game"><ellipse cx="673.1239" cy="21.5808" fill="#F1F1F1" rx="65.9039" ry="15.5808" style="stroke:#181818;stroke-width:0.5;"/><text fill="#000000" font-family="sans-serif" font-size="14" lengthAdjust="spacing" textLength="95.8535" x="625.1971" y="26.2292">Choose game</text></g><!--entity Set goals--><g class="entity" data-entity="Set goals" data-source-line="17" data-uid="ent0021" id="entity_Set goals"><ellipse cx="673.1175" cy="86.5836" fill="#F1F1F1" rx="48.7175" ry="14.5236" style="stroke:#181818;stroke-width:0.5;"/><text fill="#000000" font-family="sans-serif" font-size="14" lengthAdjust="spacing" textLength="64.6543" x="640.7903" y="91.2321">Set goals</text></g><!--entity Set actors--><g class="entity" data-entity="Set actors" data-source-line="18" data-uid="ent0023" id="entity_Set actors"><ellipse cx="673.1175" cy="150.5836" fill="#F1F1F1" rx="53.0775" ry="14.5236" style="stroke:#181818;stroke-width:0.5;"/><text fill="#000000" font-family="sans-serif" font-size="14" lengthAdjust="spacing" textLength="70.8203" x="637.7074" y="155.2321">Set actors</text></g><!--entity Show defined actors--><g class="entity" data-entity="Show defined actors" data-source-line="19" data-uid="ent0025" id="entity_Show defined actors"><ellipse cx="673.1238" cy="219.5768" fill="#F1F1F1" rx="85.1838" ry="19.4368" style="stroke:#181818;stroke-width:0.5;"/><text fill="#000000" font-family="sans-serif" font-size="14" lengthAdjust="spacing" textLength="142.748" x="601.7498" y="224.2252">Show defined actors</text></g><!--entity Show actor map--><g class="entity" data-entity="Show actor map" data-source-line="20" data-uid="ent0027" id="entity_Show actor map"><ellipse cx="673.1193" cy="290.5819" fill="#F1F1F1" rx="73.0093" ry="17.0019" style="stroke:#181818;stroke-width:0.5;"/><text fill="#000000" font-family="sans-serif" font-size="14" lengthAdjust="spacing" textLength="113.8662" x="616.1862" y="295.2303">Show actor map</text></g><!--entity Set scenario--><g class="entity" data-entity="Set scenario" data-source-line="21" data-uid="ent0029" id="entity_Set scenario"><ellipse cx="673.1233" cy="357.5787" fill="#F1F1F1" rx="62.4933" ry="14.8987" style="stroke:#181818;stroke-width:0.5;"/><text fill="#000000" font-family="sans-serif" font-size="14" lengthAdjust="spacing" textLength="86.707" x="629.7698" y="362.2271">Set scenario</text></g><!--entity Show scenario timeline--><g class="entity" data-entity="Show scenario timeline" data-source-line="22" data-uid="ent0031" id="entity_Show scenario timeline"><ellipse cx="673.1242" cy="428.5788" fill="#F1F1F1" rx="94.0442" ry="21.2088" style="stroke:#181818;stroke-width:0.5;"/><text fill="#000000" font-family="sans-serif" font-size="14" lengthAdjust="spacing" textLength="162.8389" x="591.7048" y="433.2273">Show scenario timeline</text></g><!--entity Set allowable strategies--><g class="entity" data-entity="Set allowable strategies" data-source-line="23" data-uid="ent0033" id="entity_Set allowable strategies"><ellipse cx="673.1206" cy="506.5841" fill="#F1F1F1" rx="96.4206" ry="21.6841" style="stroke:#181818;stroke-width:0.5;"/><text fill="#000000" font-family="sans-serif" font-size="14" lengthAdjust="spacing" textLength="168.1367" x="589.0523" y="511.2326">Set allowable strategies</text></g><!--entity Set parameters--><g class="entity" data-entity="Set parameters" data-source-line="24" data-uid="ent0035" id="entity_Set parameters"><ellipse cx="901.4427" cy="254.5805" fill="#F1F1F1" rx="70.9027" ry="16.5805" style="stroke:#181818;stroke-width:0.5;"/><text fill="#000000" font-family="sans-serif" font-size="14" lengthAdjust="spacing" textLength="108.6436" x="847.121" y="259.229">Set parameters</text></g><!--reverse link User to GD--><g class="link" data-entity-1="User" data-entity-2="GD" data-source-line="4" data-uid="lnk4" id="link_User_GD"><path d="M51.8554,209.6378 C71.0154,193.0978 91.09,175.78 118.66,151.98" fill="none" id="User-backto-GD" style="stroke:#181818;stroke-width:1;"/><polygon fill="none" points="38.23,221.4,55.7761,214.1796,47.9346,205.096,38.23,221.4" style="stroke:#181818;stroke-width:1;"/></g><!--link User to Login--><g class="link" data-entity-1="User" data-entity-2="Login" data-source-line="6" data-uid="lnk6" id="link_User_Login"><path d="M38.34,230.76 C47.02,228.62 58.06,225.92 67.91,223.58 C91.03,218.08 111.5003,213.3446 130.6103,208.9846" fill="none" id="User-to-Login" style="stroke:#181818;stroke-width:1;"/><polygon fill="#181818" points="136.46,207.65,126.7957,205.7521,131.5853,208.7622,128.5752,213.5517,136.46,207.65" style="stroke:#181818;stroke-width:1;"/></g><!--link User to Set password--><g class="link" data-entity-1="User" data-entity-2="Set password" data-source-line="7" data-uid="lnk8" id="link_User_Set password"><path d="M38.23,238.06 C56.75,242.29 83.0101,248.2863 110.0301,254.4463" fill="none" id="User-to-Set password" style="stroke:#181818;stroke-width:1;"/><polygon fill="#181818" points="115.88,255.78,107.9943,249.8796,111.0051,254.6686,106.216,257.6795,115.88,255.78" style="stroke:#181818;stroke-width:1;"/></g><!--link User to Logout--><g class="link" data-entity-1="User" data-entity-2="Logout" data-source-line="8" data-uid="lnk10" id="link_User_Logout"><path d="M38.34,249.74 C53.07,263.76 76.34,284.63 98.91,299.58 C111.28,307.76 120.5867,312.7261 132.8367,318.4061" fill="none" id="User-to-Logout" style="stroke:#181818;stroke-width:1;"/><polygon fill="#181818" points="138.28,320.93,131.7976,313.5152,133.7439,318.8267,128.4324,320.773,138.28,320.93" style="stroke:#181818;stroke-width:1;"/></g><!--link GD to Create game--><g class="link" data-entity-1="GD" data-entity-2="Create game" data-source-line="10" data-uid="lnk12" id="link_GD_Create game"><path d="M217.94,91.54 C231.44,85.95 245.96,80 259.43,74.58 C292.92,61.08 325.7567,48.2415 352.5967,37.8215" fill="none" id="GD-to-Create game" style="stroke:#181818;stroke-width:1;"/><polygon fill="#181818" points="358.19,35.65,348.3524,35.1783,353.5289,37.4595,351.2477,42.636,358.19,35.65" style="stroke:#181818;stroke-width:1;"/></g><!--link GD to Clone game--><g class="link" data-entity-1="GD" data-entity-2="Clone game" data-source-line="12" data-uid="lnk14" id="link_GD_Clone game"><path d="M218.08,107.51 C253.83,103.42 294.9591,98.7039 331.1291,94.5539" fill="none" id="GD-to-Clone game" style="stroke:#181818;stroke-width:1;"/><polygon fill="#181818" points="337.09,93.87,327.6927,90.922,332.1226,94.4399,328.6046,98.8698,337.09,93.87" style="stroke:#181818;stroke-width:1;"/></g><!--link GD to Delete game--><g class="link" data-entity-1="GD" data-entity-2="Delete game" data-source-line="13" data-uid="lnk16" id="link_GD_Delete game"><path d="M218.08,122.67 C254.88,129 297.7767,136.374 334.3267,142.654" fill="none" id="GD-to-Delete game" style="stroke:#181818;stroke-width:1;"/><polygon fill="#181818" points="340.24,143.67,332.0473,138.2037,335.3122,142.8233,330.6926,146.0882,340.24,143.67" style="stroke:#181818;stroke-width:1;"/></g><!--link GD to Design game--><g class="link" data-entity-1="GD" data-entity-2="Design game" data-source-line="15" data-uid="lnk18" id="link_GD_Design game"><path d="M214.12,152.15 C219.65,157.66 224.92,163.52 229.43,169.58 C248.68,195.41 233.71,216.16 259.43,235.58 C279.12,250.45 299.2691,255.961 323.1191,257.871" fill="none" id="GD-to-Design game" style="stroke:#181818;stroke-width:1;"/><polygon fill="#181818" points="329.1,258.35,320.448,253.6443,324.116,257.9509,319.8094,261.6188,329.1,258.35" style="stroke:#181818;stroke-width:1;"/><text fill="#000000" font-family="sans-serif" font-size="13" lengthAdjust="spacing" textLength="37.1909" x="260.43" y="156.6469">&#160;&#160;&#160;&#160;&#160;&#160;&#160;&#160;&#160;</text><text fill="#000000" font-family="sans-serif" font-size="13" lengthAdjust="spacing" textLength="4.1323" x="276.9593" y="171.7797">&#160;</text><text fill="#000000" font-family="sans-serif" font-size="13" lengthAdjust="spacing" textLength="4.1323" x="276.9593" y="186.9125">&#160;</text><text fill="#000000" font-family="sans-serif" font-size="13" lengthAdjust="spacing" textLength="4.1323" x="276.9593" y="202.0453">&#160;</text><text fill="#000000" font-family="sans-serif" font-size="13" lengthAdjust="spacing" textLength="4.1323" x="276.9593" y="217.1781">&#160;</text><text fill="#000000" font-family="sans-serif" font-size="13" lengthAdjust="spacing" textLength="4.1323" x="276.9593" y="232.311">&#160;</text></g><!--link Design game to Choose game--><g class="link" data-entity-1="Design game" data-entity-2="Choose game" data-source-line="16" data-uid="lnk20" id="link_Design game_Choose game"><path d="M409.95,240.43 C423.63,226.87 443.38,206.02 457.7,185.58 C474.13,162.13 469.68,150.82 487.7,128.58 C520.08,88.6 531.89,79.84 576.7,54.58 C592.58,45.62 605.594,40.324 622.234,35.014" fill="none" id="Design game-to-Choose game" style="stroke:#181818;stroke-width:1;"/><polygon fill="#181818" points="627.95,33.19,618.1599,32.1154,623.1867,34.71,620.592,39.7367,627.95,33.19" style="stroke:#181818;stroke-width:1;"/><text fill="#000000" font-family="sans-serif" font-size="13" lengthAdjust="spacing" textLength="57.8525" x="488.7" y="69.6469">&#160;&#160;&#160;&#160;&#160;&#160;&#160;&#160;&#160;&#160;&#160;&#160;&#160;&#160;</text></g><!--link Design game to Set goals--><g class="link" data-entity-1="Design game" data-entity-2="Set goals" data-source-line="17" data-uid="lnk22" id="link_Design game_Set goals"><path d="M409.8,240.48 C439.84,212.48 508.45,152.25 576.7,118.58 C595.5,109.3 611.9037,103.4161 630.1137,97.9461" fill="none" id="Design game-to-Set goals" style="stroke:#181818;stroke-width:1;"/><polygon fill="#181818" points="635.86,96.22,626.0897,94.9783,631.0714,97.6584,628.3912,102.6401,635.86,96.22" style="stroke:#181818;stroke-width:1;"/></g><!--link Design game to Set actors--><g class="link" data-entity-1="Design game" data-entity-2="Set actors" data-source-line="18" data-uid="lnk24" id="link_Design game_Set actors"><path d="M424.21,241.76 C442.46,233.55 466.27,223.11 487.7,214.58 C526.75,199.03 536.99,196.37 576.7,182.58 C597,175.52 614.126,169.7517 632.366,163.6917" fill="none" id="Design game-to-Set actors" style="stroke:#181818;stroke-width:1;"/><polygon fill="#181818" points="638.06,161.8,628.2579,160.8416,633.315,163.3765,630.7802,168.4336,638.06,161.8" style="stroke:#181818;stroke-width:1;"/></g><!--link Design game to Show defined actors--><g class="link" data-entity-1="Design game" data-entity-2="Show defined actors" data-source-line="19" data-uid="lnk26" id="link_Design game_Show defined actors"><path d="M450.67,248.25 C493.22,242.74 545.9497,235.9103 592.2197,229.9203" fill="none" id="Design game-to-Show defined actors" style="stroke:#181818;stroke-width:1;"/><polygon fill="#181818" points="598.17,229.15,588.7309,226.3386,593.2114,229.7919,589.758,234.2724,598.17,229.15" style="stroke:#181818;stroke-width:1;"/></g><!--link Design game to Show actor map--><g class="link" data-entity-1="Design game" data-entity-2="Show actor map" data-source-line="20" data-uid="lnk28" id="link_Design game_Show actor map"><path d="M451,262.74 C496.6,268.48 554.607,275.7804 602.017,281.7504" fill="none" id="Design game-to-Show actor map" style="stroke:#181818;stroke-width:1;"/><polygon fill="#181818" points="607.97,282.5,599.5403,277.4069,603.0092,281.8753,598.5408,285.3442,607.97,282.5" style="stroke:#181818;stroke-width:1;"/></g><!--link Design game to Set scenario--><g class="link" data-entity-1="Design game" data-entity-2="Set scenario" data-source-line="21" data-uid="lnk30" id="link_Design game_Set scenario"><path d="M427.57,268.91 C464.08,283.32 524.29,306.75 576.7,325.58 C595.78,332.43 611.4628,337.7581 629.1428,343.5981" fill="none" id="Design game-to-Set scenario" style="stroke:#181818;stroke-width:1;"/><polygon fill="#181818" points="634.84,345.48,627.5487,338.859,630.0923,343.9118,625.0396,346.4553,634.84,345.48" style="stroke:#181818;stroke-width:1;"/></g><!--link Design game to Show scenario timeline--><g class="link" data-entity-1="Design game" data-entity-2="Show scenario timeline" data-source-line="22" data-uid="lnk32" id="link_Design game_Show scenario timeline"><path d="M411.22,270.42 C442.48,296.94 511.51,353.07 576.7,389.58 C590.75,397.45 601.1556,402.3555 615.9556,408.3255" fill="none" id="Design game-to-Show scenario timeline" style="stroke:#181818;stroke-width:1;"/><polygon fill="#181818" points="621.52,410.57,614.6698,403.4936,616.883,408.6995,611.6771,410.9128,621.52,410.57" style="stroke:#181818;stroke-width:1;"/></g><!--link Design game to Set allowable strategies--><g class="link" data-entity-1="Design game" data-entity-2="Set allowable strategies" data-source-line="23" data-uid="lnk34" id="link_Design game_Set allowable strategies"><path d="M403.24,271.16 C426.93,310.07 494.12,412.35 576.7,467.58 C589.05,475.83 597.8742,480.55 611.6542,486.24" fill="none" id="Design game-to-Set allowable strategies" style="stroke:#181818;stroke-width:1;"/><polygon fill="#181818" points="617.2,488.53,610.4079,481.3978,612.5785,486.6217,607.3546,488.7923,617.2,488.53" style="stroke:#181818;stroke-width:1;"/></g><!--link Set scenario to Set parameters--><g class="link" data-entity-1="Set scenario" data-entity-2="Set parameters" data-source-line="24" data-uid="lnk36" id="link_Set scenario_Set parameters"><path d="M713.7,346 C731.09,340.48 751.6,333.38 769.54,325.58 C807.24,309.18 843.4504,288.8224 869.3804,273.4324" fill="none" id="Set scenario-to-Set parameters" style="stroke:#181818;stroke-width:1;"/><polygon fill="#181818" points="874.54,270.37,864.759,271.5238,870.2403,272.922,868.8421,278.4033,874.54,270.37" style="stroke:#181818;stroke-width:1;"/></g><!--link Set actors to Set parameters--><g class="link" data-entity-1="Set actors" data-entity-2="Set parameters" data-source-line="25" data-uid="lnk37" id="link_Set actors_Set parameters"><path d="M710.49,161.09 C728.54,166.72 750.5,174.23 769.54,182.58 C807.55,199.24 844.0431,220.0996 869.9231,235.7196" fill="none" id="Set actors-to-Set parameters" style="stroke:#181818;stroke-width:1;"/><polygon fill="#181818" points="875.06,238.82,869.4216,230.7448,870.7793,236.2363,865.2877,237.594,875.06,238.82" style="stroke:#181818;stroke-width:1;"/></g><!--SRC=[XP6nReGm38RtF8N5L0PUu5HrAH9Bj-gsBYduGgGGdsnNB7tu1cWaq15TCldtv_ns7F2ce0JitQWmUCPUFKLZgivE20EATn6v0YlGjUOgoF3wspHBi4LDymOl7-Hyh7V29ohShSXCFDH7a7wqDgPhD-6TqIg2IsvxDL3COjPQ3FX8jck7cmeNg22VhvXlPOxKvZ0I2PxKhUUqP9d9aGrIbxAsL-92UgGvVUVDHnoUSciU9dilEacFqRAdyXkP0FKJXcHRxZe4ckrtG13bj0pdSUdjOBFVAgToHSxC_p2dn1y0]--></g></svg>