<svg xmlns="http://www.w3.org/2000/svg" xmlns:xlink="http://www.w3.org/1999/xlink" contentStyleType="text/css" data-diagram-type="DESCRIPTION" height="273px" preserveAspectRatio="none" style="width:483px;height:273px;background:#FFFFFF;" version="1.1" viewBox="0 0 483 273" width="483px" zoomAndPan="magnify"><defs/><g><!--entity DA--><g class="entity" data-entity="DA" data-source-line="3" data-uid="ent0002" id="entity_DA"><ellipse cx="163.1636" cy="107.13" fill="#F1F1F1" rx="8" ry="8" style="stroke:#181818;stroke-width:0.5;"/><path d="M163.1636,115.13 L163.1636,142.13 M150.1636,123.13 L176.1636,123.13 M163.1636,142.13 L150.1636,157.13 M163.1636,142.13 L176.1636,157.13" fill="none" style="stroke:#181818;stroke-width:0.5;"/><text fill="#000000" font-family="sans-serif" font-size="14" lengthAdjust="spacing" textLength="88.8672" x="118.73" y="171.6251">Data analyst</text></g><!--entity User--><g class="entity" data-entity="User" data-source-line="4" data-uid="ent0003" id="entity_User"><ellipse cx="21.9551" cy="152.13" fill="#F1F1F1" rx="8" ry="8" style="stroke:#181818;stroke-width:0.5;"/><path d="M21.9551,160.13 L21.9551,187.13 M8.9551,168.13 L34.9551,168.13 M21.9551,187.13 L8.9551,202.13 M21.9551,187.13 L34.9551,202.13" fill="none" style="stroke:#181818;stroke-width:0.5;"/><text fill="#000000" font-family="sans-serif" font-size="14" lengthAdjust="spacing" textLength="31.9102" x="6" y="216.6251">User</text></g><!--entity Set password--><g class="entity" data-entity="Set password" data-source-line="6" data-uid="ent0005" id="entity_Set password"><ellipse cx="163.1679" cy="225.7816" fill="#F1F1F1" rx="65.2579" ry="15.4516" style="stroke:#181818;stroke-width:0.5;"/><text fill="#000000" font-family="sans-serif" font-size="14" lengthAdjust="spacing" textLength="94.1514" x="116.0922" y="230.43">Set password</text></g><!--entity Login to\ngame data platform--><g class="entity" data-entity="Login to\ngame data platform" data-source-line="8" data-uid="ent0007" id="entity_Login to\ngame data platform"><ellipse cx="382.9194" cy="29.777" fill="#F1F1F1" rx="92.1694" ry="23.777" style="stroke:#181818;stroke-width:0.5;"/><text fill="#000000" font-family="sans-serif" font-size="14" lengthAdjust="spacing" textLength="56.5195" x="354.6596" y="22.8679">Login to</text><text fill="#000000" font-family="sans-serif" font-size="14" lengthAdjust="spacing" textLength="139.8838" x="312.9775" y="39.1648">game data platform</text></g><!--entity Analyze data--><g class="entity" data-entity="Analyze data" data-source-line="9" data-uid="ent0009" id="entity_Analyze data"><ellipse cx="382.9212" cy="103.7762" fill="#F1F1F1" rx="64.1312" ry="15.2262" style="stroke:#181818;stroke-width:0.5;"/><text fill="#000000" font-family="sans-serif" font-size="14" lengthAdjust="spacing" textLength="91.1504" x="337.346" y="108.4247">Analyze data</text></g><!--entity Show scores--><g class="entity" data-entity="Show scores" data-source-line="10" data-uid="ent0011" id="entity_Show scores"><ellipse cx="382.9228" cy="168.7826" fill="#F1F1F1" rx="62.7628" ry="14.9526" style="stroke:#181818;stroke-width:0.5;"/><text fill="#000000" font-family="sans-serif" font-size="14" lengthAdjust="spacing" textLength="87.4453" x="339.2002" y="173.431">Show scores</text></g><!--entity Logout from\ngame data platform--><g class="entity" data-entity="Logout from\ngame data platform" data-source-line="11" data-uid="ent0013" id="entity_Logout from\ngame data platform"><ellipse cx="382.9179" cy="242.7796" fill="#F1F1F1" rx="94.4979" ry="24.3196" style="stroke:#181818;stroke-width:0.5;"/><text fill="#000000" font-family="sans-serif" font-size="14" lengthAdjust="spacing" textLength="85.5176" x="340.1591" y="236.7281">Logout from</text><text fill="#000000" font-family="sans-serif" font-size="14" lengthAdjust="spacing" textLength="139.8838" x="312.976" y="253.0249">game data platform</text></g><!--reverse link User to DA--><g class="link" data-entity-1="User" data-entity-2="DA" data-source-line="4" data-uid="lnk4" id="link_User_DA"><path d="M55.5174,171.2535 C74.6974,165.0535 91.12,159.75 118.46,150.91" fill="none" id="User-backto-DA" style="stroke:#181818;stroke-width:1;"/><polygon fill="none" points="38.39,176.79,57.3629,176.9626,53.6719,165.5444,38.39,176.79" style="stroke:#181818;stroke-width:1;"/></g><!--link User to Set password--><g class="link" data-entity-1="User" data-entity-2="Set password" data-source-line="6" data-uid="lnk6" id="link_User_Set password"><path d="M38.39,186.66 C58.56,193.03 88.9092,202.6211 116.9292,211.4811" fill="none" id="User-to-Set password" style="stroke:#181818;stroke-width:1;"/><polygon fill="#181818" points="122.65,213.29,115.2747,206.7627,117.8827,211.7826,112.8628,214.3905,122.65,213.29" style="stroke:#181818;stroke-width:1;"/></g><!--link DA to Login to\ngame data platform--><g class="link" data-entity-1="DA" data-entity-2="Login to\ngame data platform" data-source-line="8" data-uid="lnk8" id="link_DA_Login to\ngame data platform"><path d="M208.04,112.45 C231.64,99.62 261.38,83.87 288.43,70.78 C302.94,63.75 313.4514,58.9412 328.0614,52.5612" fill="none" id="DA-to-Login to\ngame data platform" style="stroke:#181818;stroke-width:1;"/><polygon fill="#181818" points="333.56,50.16,323.7114,50.096,328.9778,52.161,326.9129,57.4275,333.56,50.16" style="stroke:#181818;stroke-width:1;"/></g><!--link DA to Analyze data--><g class="link" data-entity-1="DA" data-entity-2="Analyze data" data-source-line="9" data-uid="lnk10" id="link_DA_Analyze data"><path d="M207.97,130.14 C242.62,124.89 285.2275,118.4276 322.2375,112.8276" fill="none" id="DA-to-Analyze data" style="stroke:#181818;stroke-width:1;"/><polygon fill="#181818" points="328.17,111.93,318.6729,109.3215,323.2263,112.678,319.8697,117.2314,328.17,111.93" style="stroke:#181818;stroke-width:1;"/></g><!--link DA to Show scores--><g class="link" data-entity-1="DA" data-entity-2="Show scores" data-source-line="10" data-uid="lnk12" id="link_DA_Show scores"><path d="M207.97,143.22 C242.75,148.33 285.5739,154.6168 322.6239,160.0668" fill="none" id="DA-to-Show scores" style="stroke:#181818;stroke-width:1;"/><polygon fill="#181818" points="328.56,160.94,320.2379,155.6728,323.6132,160.2123,319.0737,163.5876,328.56,160.94" style="stroke:#181818;stroke-width:1;"/></g><!--link DA to Logout from\ngame data platform--><g class="link" data-entity-1="DA" data-entity-2="Logout from\ngame data platform" data-source-line="11" data-uid="lnk14" id="link_DA_Logout from\ngame data platform"><path d="M207.87,160.02 C231.56,172.42 261.43,187.77 288.43,200.78 C303.01,207.81 313.5743,212.6972 328.1743,219.2372" fill="none" id="DA-to-Logout from\ngame data platform" style="stroke:#181818;stroke-width:1;"/><polygon fill="#181818" points="333.65,221.69,327.0716,214.3603,329.0869,219.646,323.8012,221.6612,333.65,221.69" style="stroke:#181818;stroke-width:1;"/></g><!--SRC=[ROt12i8m44Jl-Ogb9tF87uWGwD5RyUPbQPCsq6JBxafH_7WD0VNWSTuCRzOG5PI0qxmeJ8d3g8cACLsFYe05rxje1oZGUtEHm71yEbT3IywTu304XGr5TkB96jFxXiyqf_AsNykCES1KZTkA6ecp_Qny_NYq-ak7XNQGaJY8_HNIJI4ovR_E5m00]--></g></svg>