<svg xmlns="http://www.w3.org/2000/svg" xmlns:xlink="http://www.w3.org/1999/xlink" contentStyleType="text/css" data-diagram-type="DESCRIPTION" height="269px" preserveAspectRatio="none" style="width:945px;height:269px;background:#FFFFFF;" version="1.1" viewBox="0 0 945 269" width="945px" zoomAndPan="magnify"><defs/><g><!--entity GD--><g class="entity" data-entity="GD" data-source-line="3" data-uid="ent0002" id="entity_GD"><ellipse cx="164.1707" cy="83.56" fill="#F1F1F1" rx="8" ry="8" style="stroke:#181818;stroke-width:0.5;"/><path d="M164.1707,91.56 L164.1707,118.56 M151.1707,99.56 L177.1707,99.56 M164.1707,118.56 L151.1707,133.56 M164.1707,118.56 L177.1707,133.56" fill="none" style="stroke:#181818;stroke-width:0.5;"/><text fill="#000000" font-family="sans-serif" font-size="14" lengthAdjust="spacing" textLength="106.9414" x="110.7" y="148.0551">Game designer</text></g><!--entity User--><g class="entity" data-entity="User" data-source-line="4" data-uid="ent0003" id="entity_User"><ellipse cx="21.9551" cy="152.56" fill="#F1F1F1" rx="8" ry="8" style="stroke:#181818;stroke-width:0.5;"/><path d="M21.9551,160.56 L21.9551,187.56 M8.9551,168.56 L34.9551,168.56 M21.9551,187.56 L8.9551,202.56 M21.9551,187.56 L34.9551,202.56" fill="none" style="stroke:#181818;stroke-width:0.5;"/><text fill="#000000" font-family="sans-serif" font-size="14" lengthAdjust="spacing" textLength="31.9102" x="6" y="217.0551">User</text></g><!--entity Set password--><g class="entity" data-entity="Set password" data-source-line="6" data-uid="ent0005" id="entity_Set password"><ellipse cx="164.1679" cy="202.2116" fill="#F1F1F1" rx="65.2579" ry="15.4516" style="stroke:#181818;stroke-width:0.5;"/><text fill="#000000" font-family="sans-serif" font-size="14" lengthAdjust="spacing" textLength="94.1514" x="117.0922" y="206.86">Set password</text></g><!--entity Create game--><g class="entity" data-entity="Create game" data-source-line="8" data-uid="ent0007" id="entity_Create game"><ellipse cx="355.0626" cy="21.2145" fill="#F1F1F1" rx="64.0726" ry="15.2145" style="stroke:#181818;stroke-width:0.5;"/><text fill="#000000" font-family="sans-serif" font-size="14" lengthAdjust="spacing" textLength="90.9932" x="309.566" y="25.863">Create game</text></g><!--entity Clone game--><g class="entity" data-entity="Clone game" data-source-line="10" data-uid="ent0009" id="entity_Clone game"><ellipse cx="355.0626" cy="86.2145" fill="#F1F1F1" rx="61.4726" ry="14.6945" style="stroke:#181818;stroke-width:0.5;"/><text fill="#000000" font-family="sans-serif" font-size="14" lengthAdjust="spacing" textLength="83.8838" x="313.1207" y="90.863">Clone game</text></g><!--entity Design game--><g class="entity" data-entity="Design game" data-source-line="12" data-uid="ent0011" id="entity_Design game"><ellipse cx="355.0574" cy="151.2075" fill="#F1F1F1" rx="64.6374" ry="15.3275" style="stroke:#181818;stroke-width:0.5;"/><text fill="#000000" font-family="sans-serif" font-size="14" lengthAdjust="spacing" textLength="92.5039" x="308.8054" y="155.8559">Design game</text></g><!--entity Choose game--><g class="entity" data-entity="Choose game" data-source-line="13" data-uid="ent0013" id="entity_Choose game"><ellipse cx="608.6039" cy="55.2108" fill="#F1F1F1" rx="65.9039" ry="15.5808" style="stroke:#181818;stroke-width:0.5;"/><text fill="#000000" font-family="sans-serif" font-size="14" lengthAdjust="spacing" textLength="95.8535" x="560.6771" y="59.8592">Choose game</text></g><!--entity Set goals--><g class="entity" data-entity="Set goals" data-source-line="14" data-uid="ent0015" id="entity_Set goals"><ellipse cx="608.5975" cy="120.2136" fill="#F1F1F1" rx="48.7175" ry="14.5236" style="stroke:#181818;stroke-width:0.5;"/><text fill="#000000" font-family="sans-serif" font-size="14" lengthAdjust="spacing" textLength="64.6543" x="576.2703" y="124.8621">Set goals</text></g><!--entity Set actors--><g class="entity" data-entity="Set actors" data-source-line="15" data-uid="ent0017" id="entity_Set actors"><ellipse cx="608.5975" cy="184.2136" fill="#F1F1F1" rx="53.0775" ry="14.5236" style="stroke:#181818;stroke-width:0.5;"/><text fill="#000000" font-family="sans-serif" font-size="14" lengthAdjust="spacing" textLength="70.8203" x="573.1874" y="188.8621">Set actors</text></g><!--entity Set scenario--><g class="entity" data-entity="Set scenario" data-source-line="16" data-uid="ent0019" id="entity_Set scenario"><ellipse cx="608.6033" cy="248.2087" fill="#F1F1F1" rx="62.4933" ry="14.8987" style="stroke:#181818;stroke-width:0.5;"/><text fill="#000000" font-family="sans-serif" font-size="14" lengthAdjust="spacing" textLength="86.707" x="565.2498" y="252.8571">Set scenario</text></g><!--entity Set parameters--><g class="entity" data-entity="Set parameters" data-source-line="17" data-uid="ent0021" id="entity_Set parameters"><ellipse cx="868.4127" cy="217.2105" fill="#F1F1F1" rx="70.9027" ry="16.5805" style="stroke:#181818;stroke-width:0.5;"/><text fill="#000000" font-family="sans-serif" font-size="14" lengthAdjust="spacing" textLength="108.6436" x="814.091" y="221.859">Set parameters</text></g><!--entity Delete game--><g class="entity" data-entity="Delete game" data-source-line="20" data-uid="ent0024" id="entity_Delete game"><ellipse cx="355.0551" cy="216.213" fill="#F1F1F1" rx="63.7651" ry="15.153" style="stroke:#181818;stroke-width:0.5;"/><text fill="#000000" font-family="sans-serif" font-size="14" lengthAdjust="spacing" textLength="90.166" x="309.9721" y="220.8615">Delete game</text></g><!--reverse link User to GD--><g class="link" data-entity-1="User" data-entity-2="GD" data-source-line="4" data-uid="lnk4" id="link_User_GD"><path d="M54.3781,166.7477 C71.6181,158.2577 84.49,151.93 110.23,139.26" fill="none" id="User-backto-GD" style="stroke:#181818;stroke-width:1;"/><polygon fill="none" points="38.23,174.7,57.0289,172.1304,51.7273,161.365,38.23,174.7" style="stroke:#181818;stroke-width:1;"/></g><!--link User to Set password--><g class="link" data-entity-1="User" data-entity-2="Set password" data-source-line="6" data-uid="lnk6" id="link_User_Set password"><path d="M38.23,184.39 C54.84,186.76 76.4203,189.8315 101.4103,193.4015" fill="none" id="User-to-Set password" style="stroke:#181818;stroke-width:1;"/><polygon fill="#181818" points="107.35,194.25,99.0061,189.0174,102.4003,193.5429,97.8748,196.937,107.35,194.25" style="stroke:#181818;stroke-width:1;"/></g><!--link GD to Create game--><g class="link" data-entity-1="GD" data-entity-2="Create game" data-source-line="8" data-uid="lnk8" id="link_GD_Create game"><path d="M218.04,87.46 C252.85,70.5 291.6956,51.5869 320.0956,37.7569" fill="none" id="GD-to-Create game" style="stroke:#181818;stroke-width:1;"/><polygon fill="#181818" points="325.49,35.13,315.6472,35.4741,320.9947,37.3191,319.1497,42.6666,325.49,35.13" style="stroke:#181818;stroke-width:1;"/></g><!--link GD to Clone game--><g class="link" data-entity-1="GD" data-entity-2="Clone game" data-source-line="10" data-uid="lnk10" id="link_GD_Clone game"><path d="M218.04,105.65 C244.12,101.93 269.5503,98.2885 295.5903,94.5685" fill="none" id="GD-to-Clone game" style="stroke:#181818;stroke-width:1;"/><polygon fill="#181818" points="301.53,93.72,292.0548,91.033,296.5803,94.4271,293.1861,98.9526,301.53,93.72" style="stroke:#181818;stroke-width:1;"/></g><!--link GD to Design game--><g class="link" data-entity-1="GD" data-entity-2="Design game" data-source-line="12" data-uid="lnk12" id="link_GD_Design game"><path d="M218.04,123.85 C245.21,129.31 272.2479,134.7565 298.8879,140.1165" fill="none" id="GD-to-Design game" style="stroke:#181818;stroke-width:1;"/><polygon fill="#181818" points="304.77,141.3,296.7358,135.6034,299.8682,140.3138,295.1578,143.4462,304.77,141.3" style="stroke:#181818;stroke-width:1;"/></g><!--link Design game to Choose game--><g class="link" data-entity-1="Design game" data-entity-2="Choose game" data-source-line="13" data-uid="lnk14" id="link_Design game_Choose game"><path d="M383.08,137.02 C401.55,127.62 426.76,115.38 449.7,106.21 C488.09,90.87 527.3062,78.4011 559.4062,68.9111" fill="none" id="Design game-to-Choose game" style="stroke:#181818;stroke-width:1;"/><polygon fill="#181818" points="565.16,67.21,555.3952,65.9257,560.3652,68.6275,557.6633,73.5975,565.16,67.21" style="stroke:#181818;stroke-width:1;"/><text fill="#000000" font-family="sans-serif" font-size="13" lengthAdjust="spacing" textLength="61.1851" x="450.7" y="81.2769">&#171;extend&#187;</text></g><!--link Design game to Set goals--><g class="link" data-entity-1="Design game" data-entity-2="Set goals" data-source-line="14" data-uid="lnk16" id="link_Design game_Set goals"><path d="M413.14,144.18 C458.51,138.59 515.125,131.6039 556.915,126.4539" fill="none" id="Design game-to-Set goals" style="stroke:#181818;stroke-width:1;"/><polygon fill="#181818" points="562.87,125.72,553.4483,122.8508,557.9075,126.3315,554.4268,130.7908,562.87,125.72" style="stroke:#181818;stroke-width:1;"/><text fill="#000000" font-family="sans-serif" font-size="13" lengthAdjust="spacing" textLength="61.1851" x="450.7" y="127.2769">&#171;extend&#187;</text></g><!--link Design game to Set actors--><g class="link" data-entity-1="Design game" data-entity-2="Set actors" data-source-line="15" data-uid="lnk18" id="link_Design game_Set actors"><path d="M411.5,159.02 C424.06,160.76 437.34,162.57 449.7,164.21 C486.54,169.1 522.3063,173.6263 553.6063,177.5363" fill="none" id="Design game-to-Set actors" style="stroke:#181818;stroke-width:1;"/><polygon fill="#181818" points="559.56,178.28,551.1252,173.1952,554.5986,177.6602,550.1336,181.1335,559.56,178.28" style="stroke:#181818;stroke-width:1;"/><text fill="#000000" font-family="sans-serif" font-size="13" lengthAdjust="spacing" textLength="61.1851" x="450.7" y="160.2769">&#171;extend&#187;</text></g><!--link Design game to Set scenario--><g class="link" data-entity-1="Design game" data-entity-2="Set scenario" data-source-line="16" data-uid="lnk20" id="link_Design game_Set scenario"><path d="M383.1,165.36 C401.58,174.74 426.78,186.98 449.7,196.21 C489.05,212.07 529.5356,225.1276 561.7656,234.8476" fill="none" id="Design game-to-Set scenario" style="stroke:#181818;stroke-width:1;"/><polygon fill="#181818" points="567.51,236.58,560.0483,230.1517,562.723,235.1363,557.7384,237.811,567.51,236.58" style="stroke:#181818;stroke-width:1;"/><text fill="#000000" font-family="sans-serif" font-size="13" lengthAdjust="spacing" textLength="61.1851" x="450.7" y="192.2769">&#171;extend&#187;</text></g><!--link Set scenario to Set parameters--><g class="link" data-entity-1="Set scenario" data-entity-2="Set parameters" data-source-line="17" data-uid="lnk22" id="link_Set scenario_Set parameters"><path d="M670.27,251.25 C699.77,251.76 735.64,250.95 767.51,246.21 C787.87,243.18 804.1948,238.9265 822.3748,233.1165" fill="none" id="Set scenario-to-Set parameters" style="stroke:#181818;stroke-width:1;"/><polygon fill="#181818" points="828.09,231.29,818.2995,230.2196,823.3273,232.8121,820.7348,237.8399,828.09,231.29" style="stroke:#181818;stroke-width:1;"/><text fill="#000000" font-family="sans-serif" font-size="13" lengthAdjust="spacing" textLength="61.1851" x="705.51" y="242.2769">&#171;extend&#187;</text></g><!--link Set actors to Set parameters--><g class="link" data-entity-1="Set actors" data-entity-2="Set parameters" data-source-line="18" data-uid="lnk23" id="link_Set actors_Set parameters"><path d="M657.49,190.34 C699.28,195.69 754.2284,202.7294 799.6884,208.5394" fill="none" id="Set actors-to-Set parameters" style="stroke:#181818;stroke-width:1;"/><polygon fill="#181818" points="805.64,209.3,797.2197,204.1913,800.6803,208.6661,796.2055,212.1268,805.64,209.3" style="stroke:#181818;stroke-width:1;"/><text fill="#000000" font-family="sans-serif" font-size="13" lengthAdjust="spacing" textLength="61.1851" x="705.51" y="192.2769">&#171;extend&#187;</text></g><!--link GD to Delete game--><g class="link" data-entity-1="GD" data-entity-2="Delete game" data-source-line="20" data-uid="lnk25" id="link_GD_Delete game"><path d="M217.87,143.85 C240.12,156.59 266.4,171.37 290.43,184.21 C301.88,190.33 309.2705,194.1325 320.3405,199.6525" fill="none" id="GD-to-Delete game" style="stroke:#181818;stroke-width:1;"/><polygon fill="#181818" points="325.71,202.33,319.4408,194.7342,321.2354,200.0988,315.8708,201.8935,325.71,202.33" style="stroke:#181818;stroke-width:1;"/></g><!--SRC=[ZL1B2i8m4Dtd54DNkiW5f7HZeGSG3n2QCGt4ZCmCwCB3szeAANRHvNlpFiDBU5DG0evXKF2HiTT8sPYgStS4Zn93Hgx02NIjkGeor6zh9p0ZQniuN53XuKIUnFveJDVEz9dHAK8OeqesKVuZss_JmgxGOXg8P7712UeQyAMOFJJDbdnwA91BibViUYNUhPOUi-D8__hrjHY7nmJ5hOgoVe-Xs2pXRzuF]--></g></svg>