<svg xmlns="http://www.w3.org/2000/svg" xmlns:xlink="http://www.w3.org/1999/xlink" contentStyleType="text/css" data-diagram-type="DESCRIPTION" height="531px" preserveAspectRatio="none" style="width:965px;height:531px;background:#FFFFFF;" version="1.1" viewBox="0 0 965 531" width="965px" zoomAndPan="magnify"><defs/><g><!--entity GP--><g class="entity" data-entity="GP" data-source-line="3" data-uid="ent0002" id="entity_GP"><ellipse cx="163.1693" cy="189.14" fill="#F1F1F1" rx="8" ry="8" style="stroke:#181818;stroke-width:0.5;"/><path d="M163.1693,197.14 L163.1693,224.14 M150.1693,205.14 L176.1693,205.14 M163.1693,224.14 L150.1693,239.14 M163.1693,224.14 L176.1693,239.14" fill="none" style="stroke:#181818;stroke-width:0.5;"/><text fill="#000000" font-family="sans-serif" font-size="14" lengthAdjust="spacing" textLength="90.1387" x="118.1" y="253.6351">Game player</text></g><!--entity User--><g class="entity" data-entity="User" data-source-line="4" data-uid="ent0003" id="entity_User"><ellipse cx="21.9551" cy="234.14" fill="#F1F1F1" rx="8" ry="8" style="stroke:#181818;stroke-width:0.5;"/><path d="M21.9551,242.14 L21.9551,269.14 M8.9551,250.14 L34.9551,250.14 M21.9551,269.14 L8.9551,284.14 M21.9551,269.14 L34.9551,284.14" fill="none" style="stroke:#181818;stroke-width:0.5;"/><text fill="#000000" font-family="sans-serif" font-size="14" lengthAdjust="spacing" textLength="31.9102" x="6" y="298.6351">User</text></g><!--entity Set password--><g class="entity" data-entity="Set password" data-source-line="6" data-uid="ent0005" id="entity_Set password"><ellipse cx="163.1679" cy="307.7916" fill="#F1F1F1" rx="65.2579" ry="15.4516" style="stroke:#181818;stroke-width:0.5;"/><text fill="#000000" font-family="sans-serif" font-size="14" lengthAdjust="spacing" textLength="94.1514" x="116.0922" y="312.44">Set password</text></g><!--entity Make userid--><g class="entity" data-entity="Make userid" data-source-line="8" data-uid="ent0007" id="entity_Make userid"><ellipse cx="368.0054" cy="20.7851" fill="#F1F1F1" rx="61.9254" ry="14.7851" style="stroke:#181818;stroke-width:0.5;"/><text fill="#000000" font-family="sans-serif" font-size="14" lengthAdjust="spacing" textLength="85.1416" x="325.4346" y="25.4335">Make userid</text></g><!--entity Login to game--><g class="entity" data-entity="Login to game" data-source-line="9" data-uid="ent0009" id="entity_Login to game"><ellipse cx="368.014" cy="86.7928" fill="#F1F1F1" rx="67.764" ry="15.9528" style="stroke:#181818;stroke-width:0.5;"/><text fill="#000000" font-family="sans-serif" font-size="14" lengthAdjust="spacing" textLength="100.6865" x="317.6707" y="91.4412">Login to game</text></g><!--entity Show briefing--><g class="entity" data-entity="Show briefing" data-source-line="10" data-uid="ent0011" id="entity_Show briefing"><ellipse cx="368.0104" cy="153.7881" fill="#F1F1F1" rx="65.9404" ry="15.5881" style="stroke:#181818;stroke-width:0.5;"/><text fill="#000000" font-family="sans-serif" font-size="14" lengthAdjust="spacing" textLength="95.9492" x="320.0358" y="158.4365">Show briefing</text></g><!--entity Set strategy--><g class="entity" data-entity="Set strategy" data-source-line="12" data-uid="ent0013" id="entity_Set strategy"><ellipse cx="368.0053" cy="218.7851" fill="#F1F1F1" rx="62.1753" ry="14.8351" style="stroke:#181818;stroke-width:0.5;"/><text fill="#000000" font-family="sans-serif" font-size="14" lengthAdjust="spacing" textLength="85.832" x="325.0892" y="223.4335">Set strategy</text></g><!--entity Explain strategy choice--><g class="entity" data-entity="Explain strategy choice" data-source-line="13" data-uid="ent0015" id="entity_Explain strategy choice"><ellipse cx="608.4691" cy="58.7918" fill="#F1F1F1" rx="94.5091" ry="21.3018" style="stroke:#181818;stroke-width:0.5;"/><text fill="#000000" font-family="sans-serif" font-size="14" lengthAdjust="spacing" textLength="163.8779" x="526.5302" y="63.4403">Explain strategy choice</text></g><!--entity Send data to\ngame data platform--><g class="entity" data-entity="Send data to\ngame data platform" data-source-line="14" data-uid="ent0017" id="entity_Send data to\ngame data platform"><ellipse cx="864.2766" cy="209.7894" fill="#F1F1F1" rx="94.9266" ry="24.4194" style="stroke:#181818;stroke-width:0.5;"/><text fill="#000000" font-family="sans-serif" font-size="14" lengthAdjust="spacing" textLength="89.749" x="819.4021" y="203.8924">Send data to</text><text fill="#000000" font-family="sans-serif" font-size="14" lengthAdjust="spacing" textLength="139.8838" x="794.3347" y="220.1892">game data platform</text></g><!--entity Game play--><g class="entity" data-entity="Game play" data-source-line="16" data-uid="ent0019" id="entity_Game play"><ellipse cx="368.0071" cy="282.7936" fill="#F1F1F1" rx="56.5771" ry="14.5236" style="stroke:#181818;stroke-width:0.5;"/><text fill="#000000" font-family="sans-serif" font-size="14" lengthAdjust="spacing" textLength="75.7695" x="330.1224" y="287.4421">Game play</text></g><!--entity Show state information--><g class="entity" data-entity="Show state information" data-source-line="17" data-uid="ent0021" id="entity_Show state information"><ellipse cx="608.4701" cy="136.79" fill="#F1F1F1" rx="94.2001" ry="21.24" style="stroke:#181818;stroke-width:0.5;"/><text fill="#000000" font-family="sans-serif" font-size="14" lengthAdjust="spacing" textLength="163.1875" x="526.8764" y="141.4385">Show state information</text></g><!--entity Show news--><g class="entity" data-entity="Show news" data-source-line="18" data-uid="ent0023" id="entity_Show news"><ellipse cx="608.4668" cy="207.7936" fill="#F1F1F1" rx="58.4768" ry="14.5236" style="stroke:#181818;stroke-width:0.5;"/><text fill="#000000" font-family="sans-serif" font-size="14" lengthAdjust="spacing" textLength="78.4561" x="569.2388" y="212.4421">Show news</text></g><!--entity Chat with players\nand with facilitator--><g class="entity" data-entity="Chat with players\nand with facilitator" data-source-line="19" data-uid="ent0025" id="entity_Chat with players\nand with facilitator"><ellipse cx="608.4667" cy="282.7873" fill="#F1F1F1" rx="94.5867" ry="25.6673" style="stroke:#181818;stroke-width:0.5;"/><text fill="#000000" font-family="sans-serif" font-size="14" lengthAdjust="spacing" textLength="122.623" x="547.1552" y="278.7453">Chat with players</text><text fill="#000000" font-family="sans-serif" font-size="14" lengthAdjust="spacing" textLength="131.6943" x="542.6195" y="295.0422">and with facilitator</text></g><!--entity Make decision--><g class="entity" data-entity="Make decision" data-source-line="20" data-uid="ent0027" id="entity_Make decision"><ellipse cx="608.4686" cy="359.7937" fill="#F1F1F1" rx="67.3186" ry="15.8637" style="stroke:#181818;stroke-width:0.5;"/><text fill="#000000" font-family="sans-serif" font-size="14" lengthAdjust="spacing" textLength="99.5381" x="558.6996" y="364.4422">Make decision</text></g><!--entity Show actor map\n and highlight player--><g class="entity" data-entity="Show actor map\n and highlight player" data-source-line="21" data-uid="ent0029" id="entity_Show actor map\n and highlight player"><ellipse cx="608.4739" cy="435.7949" fill="#F1F1F1" rx="100.8839" ry="24.9649" style="stroke:#181818;stroke-width:0.5;"/><text fill="#000000" font-family="sans-serif" font-size="14" lengthAdjust="spacing" textLength="113.8662" x="551.5408" y="430.7245">Show actor map</text><text fill="#000000" font-family="sans-serif" font-size="14" lengthAdjust="spacing" textLength="140.7998" x="540.2991" y="447.0214">and highlight player</text></g><!--entity Show scores--><g class="entity" data-entity="Show scores" data-source-line="22" data-uid="ent0031" id="entity_Show scores"><ellipse cx="608.4728" cy="510.7926" fill="#F1F1F1" rx="62.7628" ry="14.9526" style="stroke:#181818;stroke-width:0.5;"/><text fill="#000000" font-family="sans-serif" font-size="14" lengthAdjust="spacing" textLength="87.4453" x="564.7502" y="515.441">Show scores</text></g><!--entity Show debriefing--><g class="entity" data-entity="Show debriefing" data-source-line="26" data-uid="ent0034" id="entity_Show debriefing"><ellipse cx="368.0099" cy="348.788" fill="#F1F1F1" rx="72.8399" ry="16.968" style="stroke:#181818;stroke-width:0.5;"/><text fill="#000000" font-family="sans-serif" font-size="14" lengthAdjust="spacing" textLength="113.4492" x="311.2853" y="353.4364">Show debriefing</text></g><!--entity Logout from game--><g class="entity" data-entity="Logout from game" data-source-line="28" data-uid="ent0036" id="entity_Logout from game"><ellipse cx="368.0097" cy="418.7859" fill="#F1F1F1" rx="79.5797" ry="18.3159" style="stroke:#181818;stroke-width:0.5;"/><text fill="#000000" font-family="sans-serif" font-size="14" lengthAdjust="spacing" textLength="129.6846" x="303.1674" y="423.4344">Logout from game</text></g><!--reverse link User to GP--><g class="link" data-entity-1="User" data-entity-2="GP" data-source-line="4" data-uid="lnk4" id="link_User_GP"><path d="M55.516,253.2592 C74.556,247.0992 90.63,241.91 117.86,233.11" fill="none" id="User-backto-GP" style="stroke:#181818;stroke-width:1;"/><polygon fill="none" points="38.39,258.8,57.3629,258.9679,53.6691,247.5506,38.39,258.8" style="stroke:#181818;stroke-width:1;"/></g><!--link User to Set password--><g class="link" data-entity-1="User" data-entity-2="Set password" data-source-line="6" data-uid="lnk6" id="link_User_Set password"><path d="M38.39,268.66 C58.56,275.04 88.9092,284.6311 116.9292,293.4911" fill="none" id="User-to-Set password" style="stroke:#181818;stroke-width:1;"/><polygon fill="#181818" points="122.65,295.3,115.2747,288.7727,117.8827,293.7926,112.8628,296.4005,122.65,295.3" style="stroke:#181818;stroke-width:1;"/></g><!--link GP to Make userid--><g class="link" data-entity-1="GP" data-entity-2="Make userid" data-source-line="8" data-uid="lnk8" id="link_GP_Make userid"><path d="M184.99,180.41 C206.63,143.63 243.57,88.7 288.43,53.79 C300.1,44.7 309.0541,39.8348 322.4441,34.6548" fill="none" id="GP-to-Make userid" style="stroke:#181818;stroke-width:1;"/><polygon fill="#181818" points="328.04,32.49,318.203,32.0066,323.3768,34.294,321.0894,39.4678,328.04,32.49" style="stroke:#181818;stroke-width:1;"/></g><!--link GP to Login to game--><g class="link" data-entity-1="GP" data-entity-2="Login to game" data-source-line="9" data-uid="lnk10" id="link_GP_Login to game"><path d="M207.29,180.23 C230.32,160.84 259.76,137.9 288.43,120.79 C301.45,113.02 311.0162,108.3348 324.4962,102.7548" fill="none" id="GP-to-Login to game" style="stroke:#181818;stroke-width:1;"/><polygon fill="#181818" points="330.04,100.46,320.1944,100.2064,325.4202,102.3724,323.2542,107.5981,330.04,100.46" style="stroke:#181818;stroke-width:1;"/></g><!--link GP to Show briefing--><g class="link" data-entity-1="GP" data-entity-2="Show briefing" data-source-line="10" data-uid="lnk12" id="link_GP_Show briefing"><path d="M208.68,204.52 C244.13,193.16 287.5863,179.2414 321.6863,168.3114" fill="none" id="GP-to-Show briefing" style="stroke:#181818;stroke-width:1;"/><polygon fill="#181818" points="327.4,166.48,317.6086,165.418,322.6386,168.0062,320.0504,173.0362,327.4,166.48" style="stroke:#181818;stroke-width:1;"/></g><!--link GP to Set strategy--><g class="link" data-entity-1="GP" data-entity-2="Set strategy" data-source-line="12" data-uid="lnk14" id="link_GP_Set strategy"><path d="M208.68,218.79 C237.14,218.79 268.43,218.79 299.67,218.79" fill="none" id="GP-to-Set strategy" style="stroke:#181818;stroke-width:1;"/><polygon fill="#181818" points="305.67,218.79,296.67,214.79,300.67,218.79,296.67,222.79,305.67,218.79" style="stroke:#181818;stroke-width:1;"/></g><!--link Set strategy to Explain strategy choice--><g class="link" data-entity-1="Set strategy" data-entity-2="Explain strategy choice" data-source-line="13" data-uid="lnk16" id="link_Set strategy_Explain strategy choice"><path d="M409.45,207.51 C422.53,202.57 436.49,195.8 447.59,186.79 C484.61,156.71 470.34,127.6 507.59,97.79 C519.29,88.42 527.936,83.3355 541.936,77.6855" fill="none" id="Set strategy-to-Explain strategy choice" style="stroke:#181818;stroke-width:1;"/><polygon fill="#181818" points="547.5,75.44,537.6571,75.0989,542.8633,77.3112,540.651,82.5175,547.5,75.44" style="stroke:#181818;stroke-width:1;"/></g><!--link Explain strategy choice to Send data to\ngame data platform--><g class="link" data-entity-1="Explain strategy choice" data-entity-2="Send data to\ngame data platform" data-source-line="14" data-uid="lnk18" id="link_Explain strategy choice_Send data to\ngame data platform"><path d="M662.72,76.67 C678.13,82.62 694.74,89.79 709.35,97.79 C756.47,123.56 801.156,157.9287 830.896,182.3887" fill="none" id="Explain strategy choice-to-Send data to\ngame data platform" style="stroke:#181818;stroke-width:1;"/><polygon fill="#181818" points="835.53,186.2,831.1198,177.3937,831.6683,183.0239,826.0381,183.5724,835.53,186.2" style="stroke:#181818;stroke-width:1;"/></g><!--link GP to Game play--><g class="link" data-entity-1="GP" data-entity-2="Game play" data-source-line="16" data-uid="lnk20" id="link_GP_Game play"><path d="M208.68,232.83 C245.42,244.42 291.1581,258.8543 325.3181,269.6343" fill="none" id="GP-to-Game play" style="stroke:#181818;stroke-width:1;"/><polygon fill="#181818" points="331.04,271.44,323.661,264.9169,326.2718,269.9353,321.2534,272.5461,331.04,271.44" style="stroke:#181818;stroke-width:1;"/></g><!--link Game play to Show state information--><g class="link" data-entity-1="Game play" data-entity-2="Show state information" data-source-line="17" data-uid="lnk22" id="link_Game play_Show state information"><path d="M406.63,271.89 C420.33,266.82 435.43,259.87 447.59,250.79 C481.79,225.25 473.2,201.08 507.59,175.79 C519.96,166.69 529.153,161.6129 543.493,155.9229" fill="none" id="Game play-to-Show state information" style="stroke:#181818;stroke-width:1;"/><polygon fill="#181818" points="549.07,153.71,539.2292,153.3114,544.4225,155.5541,542.1798,160.7474,549.07,153.71" style="stroke:#181818;stroke-width:1;"/></g><!--link Game play to Show news--><g class="link" data-entity-1="Game play" data-entity-2="Show news" data-source-line="18" data-uid="lnk24" id="link_Game play_Show news"><path d="M404.96,271.48 C449.72,257.4 520.0265,235.2903 565.1065,221.1103" fill="none" id="Game play-to-Show news" style="stroke:#181818;stroke-width:1;"/><polygon fill="#181818" points="570.83,219.31,561.0445,218.1948,566.0604,220.8103,563.4449,225.8262,570.83,219.31" style="stroke:#181818;stroke-width:1;"/></g><!--link Game play to Chat with players\nand with facilitator--><g class="link" data-entity-1="Game play" data-entity-2="Chat with players\nand with facilitator" data-source-line="19" data-uid="lnk26" id="link_Game play_Chat with players\nand with facilitator"><path d="M424.91,282.79 C451.35,282.79 477.63,282.79 507.65,282.79" fill="none" id="Game play-to-Chat with players\nand with facilitator" style="stroke:#181818;stroke-width:1;"/><polygon fill="#181818" points="513.65,282.79,504.65,278.79,508.65,282.79,504.65,286.79,513.65,282.79" style="stroke:#181818;stroke-width:1;"/></g><!--link Game play to Make decision--><g class="link" data-entity-1="Game play" data-entity-2="Make decision" data-source-line="20" data-uid="lnk28" id="link_Game play_Make decision"><path d="M404.45,294.23 C448.04,308.31 516.1401,330.2968 561.7401,345.0168" fill="none" id="Game play-to-Make decision" style="stroke:#181818;stroke-width:1;"/><polygon fill="#181818" points="567.45,346.86,560.114,340.2886,562.6918,345.324,557.6564,347.9018,567.45,346.86" style="stroke:#181818;stroke-width:1;"/></g><!--link Game play to Show actor map\n and highlight player--><g class="link" data-entity-1="Game play" data-entity-2="Show actor map\n and highlight player" data-source-line="21" data-uid="lnk30" id="link_Game play_Show actor map\n and highlight player"><path d="M407.13,293.71 C420.73,298.75 435.63,305.68 447.59,314.79 C482.38,341.29 473.06,365.94 507.59,392.79 C519.36,401.94 527.8993,407.0984 541.6593,413.2284" fill="none" id="Game play-to-Show actor map\n and highlight player" style="stroke:#181818;stroke-width:1;"/><polygon fill="#181818" points="547.14,415.67,540.5467,408.3537,542.5727,413.6353,537.2911,415.6614,547.14,415.67" style="stroke:#181818;stroke-width:1;"/></g><!--link Game play to Show scores--><g class="link" data-entity-1="Game play" data-entity-2="Show scores" data-source-line="22" data-uid="lnk32" id="link_Game play_Show scores"><path d="M410.8,292.6 C423.97,297.43 437.66,304.51 447.59,314.79 C501.24,370.29 452.09,424.13 507.59,477.79 C520.39,490.17 532.154,496.2408 548.974,501.0808" fill="none" id="Game play-to-Show scores" style="stroke:#181818;stroke-width:1;"/><polygon fill="#181818" points="554.74,502.74,547.1971,496.4072,549.935,501.3573,544.9848,504.0952,554.74,502.74" style="stroke:#181818;stroke-width:1;"/></g><!--link Make decision to Send data to\ngame data platform--><g class="link" data-entity-1="Make decision" data-entity-2="Send data to\ngame data platform" data-source-line="24" data-uid="lnk33" id="link_Make decision_Send data to\ngame data platform"><path d="M654.49,347.81 C672.12,342.26 692.19,334.87 709.35,325.79 C758.15,299.95 803.4805,263.1878 832.7405,237.5078" fill="none" id="Make decision-to-Send data to\ngame data platform" style="stroke:#181818;stroke-width:1;"/><polygon fill="#181818" points="837.25,233.55,827.8472,236.4803,833.4921,236.8482,833.1242,242.493,837.25,233.55" style="stroke:#181818;stroke-width:1;"/></g><!--link GP to Show debriefing--><g class="link" data-entity-1="GP" data-entity-2="Show debriefing" data-source-line="26" data-uid="lnk35" id="link_GP_Show debriefing"><path d="M208.26,257.21 C231.19,276.03 260.25,298.16 288.43,314.79 C300.84,322.11 309.5976,326.4478 322.5576,331.8878" fill="none" id="GP-to-Show debriefing" style="stroke:#181818;stroke-width:1;"/><polygon fill="#181818" points="328.09,334.21,321.3396,327.0384,323.4797,332.2748,318.2433,334.4149,328.09,334.21" style="stroke:#181818;stroke-width:1;"/></g><!--link GP to Logout from game--><g class="link" data-entity-1="GP" data-entity-2="Logout from game" data-source-line="28" data-uid="lnk37" id="link_GP_Logout from game"><path d="M208.66,253.93 C215.69,260.47 222.56,267.54 228.43,274.79 C262.98,317.47 248.12,345.49 288.43,382.79 C297.79,391.45 304.147,395.827 315.737,401.147" fill="none" id="GP-to-Logout from game" style="stroke:#181818;stroke-width:1;"/><polygon fill="#181818" points="321.19,403.65,314.6792,396.2602,316.6459,401.5642,311.3419,403.5308,321.19,403.65" style="stroke:#181818;stroke-width:1;"/></g><!--SRC=[bLB1JiCm3BtdAwoTsA5_WBWWr0j8awRTUZ69srgqIPLuAfFuU9oMie8w96xnY_tUotCwgWKaGEIc5N0SoGe7Ry3iIkm9XWul57U02Sg3EIMASFzH5BcOgw9uWBiZ2GoOqXYYsnjJ7cRu1Ty8pjh5YYxWSsZOPyb6-Q_miGqZl4QccdspuiZKII8ADPUz-LdE7K_lQb8f5nXi6zWgzSsRXTaxS2YePYgVtSoLpaWTOhyoyHs5abxFA-D9L03OvpdC0Tvgz3IcZRl75WL6blOhy5HvL7SJKgFbZbKWn8t9AMD7bjCVgcXr67eSAW-PjzLjTzF6PxcRpx8XalerlsJ-7U34vcXZl_eTmbcWZg6VVyGd]--></g></svg>