<svg xmlns="http://www.w3.org/2000/svg" xmlns:xlink="http://www.w3.org/1999/xlink" contentStyleType="text/css" data-diagram-type="DESCRIPTION" height="382px" preserveAspectRatio="none" style="width:1080px;height:382px;background:#FFFFFF;" version="1.1" viewBox="0 0 1080 382" width="1080px" zoomAndPan="magnify"><defs/><g><!--entity GP--><g class="entity" data-entity="GP" data-source-line="3" data-uid="ent0002" id="entity_GP"><ellipse cx="164.1693" cy="145.15" fill="#F1F1F1" rx="8" ry="8" style="stroke:#181818;stroke-width:0.5;"/><path d="M164.1693,153.15 L164.1693,180.15 M151.1693,161.15 L177.1693,161.15 M164.1693,180.15 L151.1693,195.15 M164.1693,180.15 L177.1693,195.15" fill="none" style="stroke:#181818;stroke-width:0.5;"/><text fill="#000000" font-family="sans-serif" font-size="14" lengthAdjust="spacing" textLength="90.1387" x="119.1" y="209.6451">Game player</text></g><!--entity User--><g class="entity" data-entity="User" data-source-line="4" data-uid="ent0003" id="entity_User"><ellipse cx="21.9551" cy="214.15" fill="#F1F1F1" rx="8" ry="8" style="stroke:#181818;stroke-width:0.5;"/><path d="M21.9551,222.15 L21.9551,249.15 M8.9551,230.15 L34.9551,230.15 M21.9551,249.15 L8.9551,264.15 M21.9551,249.15 L34.9551,264.15" fill="none" style="stroke:#181818;stroke-width:0.5;"/><text fill="#000000" font-family="sans-serif" font-size="14" lengthAdjust="spacing" textLength="31.9102" x="6" y="278.6451">User</text></g><!--entity Set password--><g class="entity" data-entity="Set password" data-source-line="6" data-uid="ent0005" id="entity_Set password"><ellipse cx="164.1679" cy="263.7916" fill="#F1F1F1" rx="65.2579" ry="15.4516" style="stroke:#181818;stroke-width:0.5;"/><text fill="#000000" font-family="sans-serif" font-size="14" lengthAdjust="spacing" textLength="94.1514" x="117.0922" y="268.44">Set password</text></g><!--entity Make userid--><g class="entity" data-entity="Make userid" data-source-line="8" data-uid="ent0007" id="entity_Make userid"><ellipse cx="370.0054" cy="20.7851" fill="#F1F1F1" rx="61.9254" ry="14.7851" style="stroke:#181818;stroke-width:0.5;"/><text fill="#000000" font-family="sans-serif" font-size="14" lengthAdjust="spacing" textLength="85.1416" x="327.4346" y="25.4335">Make userid</text></g><!--entity Login to game--><g class="entity" data-entity="Login to game" data-source-line="9" data-uid="ent0009" id="entity_Login to game"><ellipse cx="370.014" cy="86.7928" fill="#F1F1F1" rx="67.764" ry="15.9528" style="stroke:#181818;stroke-width:0.5;"/><text fill="#000000" font-family="sans-serif" font-size="14" lengthAdjust="spacing" textLength="100.6865" x="319.6707" y="91.4412">Login to game</text></g><!--entity Obtain briefing--><g class="entity" data-entity="Obtain briefing" data-source-line="11" data-uid="ent0011" id="entity_Obtain briefing"><ellipse cx="370.0092" cy="153.7938" fill="#F1F1F1" rx="69.4192" ry="16.2838" style="stroke:#181818;stroke-width:0.5;"/><text fill="#000000" font-family="sans-serif" font-size="14" lengthAdjust="spacing" textLength="104.9111" x="317.5536" y="158.4423">Obtain briefing</text></g><!--entity Game play--><g class="entity" data-entity="Game play" data-source-line="13" data-uid="ent0013" id="entity_Game play"><ellipse cx="370.0071" cy="219.7936" fill="#F1F1F1" rx="56.5771" ry="14.5236" style="stroke:#181818;stroke-width:0.5;"/><text fill="#000000" font-family="sans-serif" font-size="14" lengthAdjust="spacing" textLength="75.7695" x="332.1224" y="224.4421">Game play</text></g><!--entity View state information--><g class="entity" data-entity="View state information" data-source-line="14" data-uid="ent0015" id="entity_View state information"><ellipse cx="666.8862" cy="117.7912" fill="#F1F1F1" rx="92.3062" ry="20.8612" style="stroke:#181818;stroke-width:0.5;"/><text fill="#000000" font-family="sans-serif" font-size="14" lengthAdjust="spacing" textLength="158.9424" x="587.415" y="122.4397">View state information</text></g><!--entity Read news--><g class="entity" data-entity="Read news" data-source-line="15" data-uid="ent0017" id="entity_Read news"><ellipse cx="666.8947" cy="187.7936" fill="#F1F1F1" rx="57.0847" ry="14.5236" style="stroke:#181818;stroke-width:0.5;"/><text fill="#000000" font-family="sans-serif" font-size="14" lengthAdjust="spacing" textLength="76.4873" x="628.651" y="192.4421">Read news</text></g><!--entity Make decision--><g class="entity" data-entity="Make decision" data-source-line="16" data-uid="ent0019" id="entity_Make decision"><ellipse cx="666.8886" cy="252.7937" fill="#F1F1F1" rx="67.3186" ry="15.8637" style="stroke:#181818;stroke-width:0.5;"/><text fill="#000000" font-family="sans-serif" font-size="14" lengthAdjust="spacing" textLength="99.5381" x="617.1196" y="257.4422">Make decision</text></g><!--entity Show scores--><g class="entity" data-entity="Show scores" data-source-line="17" data-uid="ent0021" id="entity_Show scores"><ellipse cx="666.8928" cy="318.7926" fill="#F1F1F1" rx="62.7628" ry="14.9526" style="stroke:#181818;stroke-width:0.5;"/><text fill="#000000" font-family="sans-serif" font-size="14" lengthAdjust="spacing" textLength="87.4453" x="623.1702" y="323.441">Show scores</text></g><!--entity Send data to\ngame data platform--><g class="entity" data-entity="Send data to\ngame data platform" data-source-line="19" data-uid="ent0023" id="entity_Send data to\ngame data platform"><ellipse cx="979.1166" cy="252.7894" fill="#F1F1F1" rx="94.9266" ry="24.4194" style="stroke:#181818;stroke-width:0.5;"/><text fill="#000000" font-family="sans-serif" font-size="14" lengthAdjust="spacing" textLength="89.749" x="934.2421" y="246.8924">Send data to</text><text fill="#000000" font-family="sans-serif" font-size="14" lengthAdjust="spacing" textLength="139.8838" x="909.1747" y="263.1892">game data platform</text></g><!--entity Obtain debriefing--><g class="entity" data-entity="Obtain debriefing" data-source-line="21" data-uid="ent0025" id="entity_Obtain debriefing"><ellipse cx="370.0058" cy="286.7852" fill="#F1F1F1" rx="76.5258" ry="17.7052" style="stroke:#181818;stroke-width:0.5;"/><text fill="#000000" font-family="sans-serif" font-size="14" lengthAdjust="spacing" textLength="122.4111" x="308.8003" y="291.4336">Obtain debriefing</text></g><!--entity Logout from game--><g class="entity" data-entity="Logout from game" data-source-line="23" data-uid="ent0027" id="entity_Logout from game"><ellipse cx="370.0097" cy="357.7859" fill="#F1F1F1" rx="79.5797" ry="18.3159" style="stroke:#181818;stroke-width:0.5;"/><text fill="#000000" font-family="sans-serif" font-size="14" lengthAdjust="spacing" textLength="129.6846" x="305.1674" y="362.4344">Logout from game</text></g><!--reverse link User to GP--><g class="link" data-entity-1="User" data-entity-2="GP" data-source-line="4" data-uid="lnk4" id="link_User_GP"><path d="M54.3799,228.3315 C73.5399,218.9015 91.09,210.27 118.66,196.7" fill="none" id="User-backto-GP" style="stroke:#181818;stroke-width:1;"/><polygon fill="none" points="38.23,236.28,57.0295,233.7148,51.7304,222.9481,38.23,236.28" style="stroke:#181818;stroke-width:1;"/></g><!--link User to Set password--><g class="link" data-entity-1="User" data-entity-2="Set password" data-source-line="6" data-uid="lnk6" id="link_User_Set password"><path d="M38.23,245.97 C54.84,248.34 76.42,251.4238 101.41,254.9838" fill="none" id="User-to-Set password" style="stroke:#181818;stroke-width:1;"/><polygon fill="#181818" points="107.35,255.83,99.0041,250.6007,102.4,255.1248,97.8758,258.5207,107.35,255.83" style="stroke:#181818;stroke-width:1;"/></g><!--link GP to Make userid--><g class="link" data-entity-1="GP" data-entity-2="Make userid" data-source-line="8" data-uid="lnk8" id="link_GP_Make userid"><path d="M198.01,136.29 C221.67,110.37 255.46,76.84 290.43,53.79 C303.27,45.32 313.0622,40.4755 326.7922,35.1055" fill="none" id="GP-to-Make userid" style="stroke:#181818;stroke-width:1;"/><polygon fill="#181818" points="332.38,32.92,322.5413,32.473,327.7235,34.7412,325.4553,39.9234,332.38,32.92" style="stroke:#181818;stroke-width:1;"/></g><!--link GP to Login to game--><g class="link" data-entity-1="GP" data-entity-2="Login to game" data-source-line="9" data-uid="lnk10" id="link_GP_Login to game"><path d="M209.73,155.02 C233.62,144.47 263.58,131.32 290.43,119.79 C305.11,113.49 315.855,108.9459 329.765,103.1259" fill="none" id="GP-to-Login to game" style="stroke:#181818;stroke-width:1;"/><polygon fill="#181818" points="335.3,100.81,325.4535,100.5938,330.6875,102.7399,328.5414,107.9739,335.3,100.81" style="stroke:#181818;stroke-width:1;"/></g><!--link GP to Obtain briefing--><g class="link" data-entity-1="GP" data-entity-2="Obtain briefing" data-source-line="11" data-uid="lnk12" id="link_GP_Obtain briefing"><path d="M209.65,170.21 C237.76,167.32 268.5716,164.1454 299.7016,160.9354" fill="none" id="GP-to-Obtain briefing" style="stroke:#181818;stroke-width:1;"/><polygon fill="#181818" points="305.67,160.32,296.3072,157.2642,300.6964,160.8329,297.1278,165.2221,305.67,160.32" style="stroke:#181818;stroke-width:1;"/></g><!--link GP to Game play--><g class="link" data-entity-1="GP" data-entity-2="Game play" data-source-line="13" data-uid="lnk14" id="link_GP_Game play"><path d="M209.65,184.61 C244.21,192.24 285.9809,201.4675 320.1609,209.0075" fill="none" id="GP-to-Game play" style="stroke:#181818;stroke-width:1;"/><polygon fill="#181818" points="326.02,210.3,318.093,204.4552,321.1374,209.2229,316.3696,212.2673,326.02,210.3" style="stroke:#181818;stroke-width:1;"/></g><!--link Game play to View state information--><g class="link" data-entity-1="Game play" data-entity-2="View state information" data-source-line="14" data-uid="lnk16" id="link_Game play_View state information"><path d="M401.72,207.37 C423.37,198.75 453.1,187.17 479.59,177.79 C523.31,162.31 567.6413,148.0639 604.8613,136.4739" fill="none" id="Game play-to-View state information" style="stroke:#181818;stroke-width:1;"/><polygon fill="#181818" points="610.59,134.69,600.8077,133.5467,605.8161,136.1766,603.1862,141.1849,610.59,134.69" style="stroke:#181818;stroke-width:1;"/><text fill="#000000" font-family="sans-serif" font-size="13" lengthAdjust="spacing" textLength="61.1851" x="481.59" y="153.8569">&#171;extend&#187;</text></g><!--link Game play to Read news--><g class="link" data-entity-1="Game play" data-entity-2="Read news" data-source-line="15" data-uid="lnk18" id="link_Game play_Read news"><path d="M422.71,214.18 C476.39,208.36 553.9451,199.9481 607.7851,194.0981" fill="none" id="Game play-to-Read news" style="stroke:#181818;stroke-width:1;"/><polygon fill="#181818" points="613.75,193.45,604.3706,190.4456,608.7793,193.9901,605.2347,198.3988,613.75,193.45" style="stroke:#181818;stroke-width:1;"/><text fill="#000000" font-family="sans-serif" font-size="13" lengthAdjust="spacing" textLength="61.1851" x="481.59" y="198.8569">&#171;extend&#187;</text></g><!--link Game play to Make decision--><g class="link" data-entity-1="Game play" data-entity-2="Make decision" data-source-line="16" data-uid="lnk20" id="link_Game play_Make decision"><path d="M421.81,226.01 C440.03,228.2 460.72,230.65 479.59,232.79 C521.28,237.53 562.2932,241.9398 598.6532,245.7798" fill="none" id="Game play-to-Make decision" style="stroke:#181818;stroke-width:1;"/><polygon fill="#181818" points="604.62,246.41,596.0899,241.4869,599.6477,245.8849,595.2497,249.4426,604.62,246.41" style="stroke:#181818;stroke-width:1;"/><text fill="#000000" font-family="sans-serif" font-size="13" lengthAdjust="spacing" textLength="61.1851" x="481.59" y="228.8569">&#171;extend&#187;</text></g><!--link Game play to Show scores--><g class="link" data-entity-1="Game play" data-entity-2="Show scores" data-source-line="17" data-uid="lnk22" id="link_Game play_Show scores"><path d="M401.47,232.22 C432.19,244.75 475.65,262.42 479.59,263.79 C528.46,280.86 579.9116,295.6608 617.9216,306.0308" fill="none" id="Game play-to-Show scores" style="stroke:#181818;stroke-width:1;"/><polygon fill="#181818" points="623.71,307.61,616.0801,301.3822,618.8863,306.294,613.9745,309.1001,623.71,307.61" style="stroke:#181818;stroke-width:1;"/><text fill="#000000" font-family="sans-serif" font-size="13" lengthAdjust="spacing" textLength="63.0068" x="480.59" y="259.8569">&#171;include&#187;</text></g><!--link Make decision to Send data to\ngame data platform--><g class="link" data-entity-1="Make decision" data-entity-2="Send data to\ngame data platform" data-source-line="19" data-uid="lnk24" id="link_Make decision_Send data to\ngame data platform"><path d="M734.44,252.79 C777.98,252.79 829.5,252.79 877.73,252.79" fill="none" id="Make decision-to-Send data to\ngame data platform" style="stroke:#181818;stroke-width:1;"/><polygon fill="#181818" points="883.73,252.79,874.73,248.79,878.73,252.79,874.73,256.79,883.73,252.79" style="stroke:#181818;stroke-width:1;"/><text fill="#000000" font-family="sans-serif" font-size="13" lengthAdjust="spacing" textLength="63.0068" x="790.2" y="248.8569">&#171;include&#187;</text></g><!--link GP to Obtain debriefing--><g class="link" data-entity-1="GP" data-entity-2="Obtain debriefing" data-source-line="21" data-uid="lnk26" id="link_GP_Obtain debriefing"><path d="M209.55,204.06 C233.14,219.1 262.88,237.27 290.43,251.79 C303.51,258.69 312.7239,263.0731 325.8539,268.8231" fill="none" id="GP-to-Obtain debriefing" style="stroke:#181818;stroke-width:1;"/><polygon fill="#181818" points="331.35,271.23,324.7105,263.9556,326.7699,269.2243,321.5013,271.2837,331.35,271.23" style="stroke:#181818;stroke-width:1;"/></g><!--link GP to Logout from game--><g class="link" data-entity-1="GP" data-entity-2="Logout from game" data-source-line="23" data-uid="lnk28" id="link_GP_Logout from game"><path d="M209.5,210.67 C216.46,217.08 223.36,223.91 229.43,230.79 C261.61,267.33 253.34,290.24 290.43,321.79 C300.37,330.25 307.1667,334.6396 319.0167,340.0196" fill="none" id="GP-to-Logout from game" style="stroke:#181818;stroke-width:1;"/><polygon fill="#181818" points="324.48,342.5,317.9386,335.1372,319.9272,340.433,314.6315,342.4216,324.48,342.5" style="stroke:#181818;stroke-width:1;"/></g><!--SRC=[ZP31Ri8m38RlUGgB4ptq1QQgrrus3Grj9owcSOkrDa69gsuI3u-p0AeOqdQBxJzVd6-WJa0y1EuF0fO3jSBU6RDgS2Gu3lXDOGKOeTcOzqW1gbDPfY9NPLd3Uai2Hunnzi4MnZIRt7x1Ju99KwpTQ_FPz-pIYxto5-7NlQ0Eze6fOzSl9hT52hCuvza7qmnHK0ZOTJwCcBOlu0cg2kXBo5cewz_ttWWjE9hZtz6VNrXgEVwBl3rutQZrWQviTkqmMKffSq-xw5EMHK7LidF9IwwKAkbF3pXtrYmzyAQc_IJG1JzcsMS0]--></g></svg>