<svg xmlns="http://www.w3.org/2000/svg" xmlns:xlink="http://www.w3.org/1999/xlink" contentStyleType="text/css" data-diagram-type="DESCRIPTION" height="543px" preserveAspectRatio="none" style="width:943px;height:543px;background:#FFFFFF;" version="1.1" viewBox="0 0 943 543" width="943px" zoomAndPan="magnify"><defs/><g><!--entity OA--><g class="entity" data-entity="OA" data-source-line="3" data-uid="ent0002" id="entity_OA"><ellipse cx="373.4213" cy="289.76" fill="#F1F1F1" rx="8" ry="8" style="stroke:#181818;stroke-width:0.5;"/><path d="M373.4213,297.76 L373.4213,324.76 M360.4213,305.76 L386.4213,305.76 M373.4213,324.76 L360.4213,339.76 M373.4213,324.76 L386.4213,339.76" fill="none" style="stroke:#181818;stroke-width:0.5;"/><text fill="#000000" font-family="sans-serif" font-size="14" lengthAdjust="spacing" textLength="89.749" x="325.58" y="354.2551">Organization</text><text fill="#000000" font-family="sans-serif" font-size="14" lengthAdjust="spacing" textLength="95.6826" x="325.58" y="370.552">Administrator</text></g><!--entity User--><g class="entity" data-entity="User" data-source-line="4" data-uid="ent0003" id="entity_User"><ellipse cx="21.9551" cy="315.91" fill="#F1F1F1" rx="8" ry="8" style="stroke:#181818;stroke-width:0.5;"/><path d="M21.9551,323.91 L21.9551,350.91 M8.9551,331.91 L34.9551,331.91 M21.9551,350.91 L8.9551,365.91 M21.9551,350.91 L34.9551,365.91" fill="none" style="stroke:#181818;stroke-width:0.5;"/><text fill="#000000" font-family="sans-serif" font-size="14" lengthAdjust="spacing" textLength="31.9102" x="6" y="380.4051">User</text></g><!--entity Administrator--><g class="entity" data-entity="Administrator" data-source-line="4" data-uid="ent0004" id="entity_Administrator"><ellipse cx="163.1713" cy="194.91" fill="#F1F1F1" rx="8" ry="8" style="stroke:#181818;stroke-width:0.5;"/><path d="M163.1713,202.91 L163.1713,229.91 M150.1713,210.91 L176.1713,210.91 M163.1713,229.91 L150.1713,244.91 M163.1713,229.91 L176.1713,244.91" fill="none" style="stroke:#181818;stroke-width:0.5;"/><text fill="#000000" font-family="sans-serif" font-size="14" lengthAdjust="spacing" textLength="95.6826" x="115.33" y="259.4051">Administrator</text></g><!--entity Login--><g class="entity" data-entity="Login" data-source-line="7" data-uid="ent0007" id="entity_Login"><ellipse cx="163.1704" cy="312.5536" fill="#F1F1F1" rx="29.8804" ry="14.5236" style="stroke:#181818;stroke-width:0.5;"/><text fill="#000000" font-family="sans-serif" font-size="14" lengthAdjust="spacing" textLength="38.0146" x="144.1631" y="317.2021">Login</text></g><!--entity Set password--><g class="entity" data-entity="Set password" data-source-line="8" data-uid="ent0009" id="entity_Set password"><ellipse cx="163.1679" cy="377.5516" fill="#F1F1F1" rx="65.2579" ry="15.4516" style="stroke:#181818;stroke-width:0.5;"/><text fill="#000000" font-family="sans-serif" font-size="14" lengthAdjust="spacing" textLength="94.1514" x="116.0922" y="382.2">Set password</text></g><!--entity Logout--><g class="entity" data-entity="Logout" data-source-line="9" data-uid="ent0011" id="entity_Logout"><ellipse cx="163.1682" cy="442.5536" fill="#F1F1F1" rx="37.0682" ry="14.5236" style="stroke:#181818;stroke-width:0.5;"/><text fill="#000000" font-family="sans-serif" font-size="14" lengthAdjust="spacing" textLength="48.1797" x="139.0783" y="447.2021">Logout</text></g><!--entity User administration--><g class="entity" data-entity="User administration" data-source-line="11" data-uid="ent0013" id="entity_User administration"><ellipse cx="373.433" cy="121.5506" fill="#F1F1F1" rx="83.153" ry="19.0306" style="stroke:#181818;stroke-width:0.5;"/><text fill="#000000" font-family="sans-serif" font-size="14" lengthAdjust="spacing" textLength="138.0518" x="304.4071" y="126.199">User administration</text></g><g class="entity" data-entity="GMN15" data-source-line="13" data-uid="ent0016" id="entity_GMN15"><path d="M288.43,175.29 L288.43,245.8213 A0,0 0 0 0 288.43,245.8213 L458.4285,245.8213 A0,0 0 0 0 458.4285,245.8213 L458.4285,185.29 L448.4285,175.29 L377.43,175.29 L373.43,140.79 L369.43,175.29 L288.43,175.29 A0,0 0 0 0 288.43,175.29" fill="#FEFFDD" style="stroke:#181818;stroke-width:0.5;"/><path d="M448.4285,175.29 L448.4285,185.29 L458.4285,185.29 L448.4285,175.29" fill="#FEFFDD" style="stroke:#181818;stroke-width:0.5;"/><text fill="#000000" font-family="sans-serif" font-size="13" lengthAdjust="spacing" textLength="148.9351" x="294.43" y="192.3569">- organization member</text><text fill="#000000" font-family="sans-serif" font-size="13" lengthAdjust="spacing" textLength="148.9985" x="294.43" y="207.4897">- session administrator</text><text fill="#000000" font-family="sans-serif" font-size="13" lengthAdjust="spacing" textLength="70.8081" x="294.43" y="222.6225">- facilitator</text><text fill="#000000" font-family="sans-serif" font-size="13" lengthAdjust="spacing" textLength="49.6895" x="294.43" y="237.7553">- player</text></g><!--entity Create user--><g class="entity" data-entity="Create user" data-source-line="19" data-uid="ent0018" id="entity_Create user"><ellipse cx="605.6243" cy="20.5469" fill="#F1F1F1" rx="60.7343" ry="14.5469" style="stroke:#181818;stroke-width:0.5;"/><text fill="#000000" font-family="sans-serif" font-size="14" lengthAdjust="spacing" textLength="81.8125" x="564.718" y="25.1953">Create user</text></g><!--entity Delete user--><g class="entity" data-entity="Delete user" data-source-line="20" data-uid="ent0020" id="entity_Delete user"><ellipse cx="605.6153" cy="84.5536" fill="#F1F1F1" rx="60.2653" ry="14.5236" style="stroke:#181818;stroke-width:0.5;"/><text fill="#000000" font-family="sans-serif" font-size="14" lengthAdjust="spacing" textLength="80.9854" x="565.1226" y="89.2021">Delete user</text></g><!--entity Reset user password--><g class="entity" data-entity="Reset user password" data-source-line="21" data-uid="ent0022" id="entity_Reset user password"><ellipse cx="605.6199" cy="153.55" fill="#F1F1F1" rx="86.5499" ry="19.71" style="stroke:#181818;stroke-width:0.5;"/><text fill="#000000" font-family="sans-serif" font-size="14" lengthAdjust="spacing" textLength="145.8857" x="532.677" y="158.1984">Reset user password</text></g><!--entity Set user access--><g class="entity" data-entity="Set user access" data-source-line="22" data-uid="ent0024" id="entity_Set user access"><ellipse cx="605.6161" cy="224.5472" fill="#F1F1F1" rx="71.2861" ry="16.6572" style="stroke:#181818;stroke-width:0.5;"/><text fill="#000000" font-family="sans-serif" font-size="14" lengthAdjust="spacing" textLength="109.6006" x="550.8159" y="229.1957">Set user access</text></g><!--entity Manage organization--><g class="entity" data-entity="Manage organization" data-source-line="24" data-uid="ent0026" id="entity_Manage organization"><ellipse cx="605.6222" cy="327.5484" fill="#F1F1F1" rx="87.1922" ry="19.8384" style="stroke:#181818;stroke-width:0.5;"/><text fill="#000000" font-family="sans-serif" font-size="14" lengthAdjust="spacing" textLength="147.3555" x="531.9445" y="332.1969">Manage organization</text></g><!--entity Change description--><g class="entity" data-entity="Change description" data-source-line="25" data-uid="ent0028" id="entity_Change description"><ellipse cx="844.9147" cy="143.5549" fill="#F1F1F1" rx="82.2247" ry="18.8449" style="stroke:#181818;stroke-width:0.5;"/><text fill="#000000" font-family="sans-serif" font-size="14" lengthAdjust="spacing" textLength="135.8916" x="776.9689" y="148.2034">Change description</text></g><!--entity Change logo--><g class="entity" data-entity="Change logo" data-source-line="26" data-uid="ent0030" id="entity_Change logo"><ellipse cx="844.9106" cy="212.5501" fill="#F1F1F1" rx="62.9506" ry="14.9901" style="stroke:#181818;stroke-width:0.5;"/><text fill="#000000" font-family="sans-serif" font-size="14" lengthAdjust="spacing" textLength="87.958" x="800.9316" y="217.1986">Change logo</text></g><!--entity Allocate user\nto organization--><g class="entity" data-entity="Allocate user\nto organization" data-source-line="27" data-uid="ent0032" id="entity_Allocate user\nto organization"><ellipse cx="844.9116" cy="287.5533" fill="#F1F1F1" rx="75.4616" ry="25.3233" style="stroke:#181818;stroke-width:0.5;"/><text fill="#000000" font-family="sans-serif" font-size="14" lengthAdjust="spacing" textLength="91.2871" x="799.2681" y="283.0122">Allocate user</text><text fill="#000000" font-family="sans-serif" font-size="14" lengthAdjust="spacing" textLength="105.7998" x="792.0117" y="299.3091">to organization</text></g><!--entity Show games in use--><g class="entity" data-entity="Show games in use" data-source-line="28" data-uid="ent0034" id="entity_Show games in use"><ellipse cx="844.9139" cy="366.5468" fill="#F1F1F1" rx="82.1339" ry="18.8268" style="stroke:#181818;stroke-width:0.5;"/><text fill="#000000" font-family="sans-serif" font-size="14" lengthAdjust="spacing" textLength="135.6797" x="777.074" y="371.1952">Show games in use</text></g><!--entity Show defined sessions--><g class="entity" data-entity="Show defined sessions" data-source-line="29" data-uid="ent0036" id="entity_Show defined sessions"><ellipse cx="844.9125" cy="441.5505" fill="#F1F1F1" rx="92.1025" ry="20.8205" style="stroke:#181818;stroke-width:0.5;"/><text fill="#000000" font-family="sans-serif" font-size="14" lengthAdjust="spacing" textLength="158.4844" x="765.6703" y="446.1989">Show defined sessions</text></g><!--entity Show allocated users--><g class="entity" data-entity="Show allocated users" data-source-line="30" data-uid="ent0038" id="entity_Show allocated users"><ellipse cx="844.9091" cy="517.5458" fill="#F1F1F1" rx="87.7791" ry="19.9558" style="stroke:#181818;stroke-width:0.5;"/><text fill="#000000" font-family="sans-serif" font-size="14" lengthAdjust="spacing" textLength="148.6953" x="770.5615" y="522.1943">Show allocated users</text></g><!--reverse link User to Administrator--><g class="link" data-entity-1="User" data-entity-2="Administrator" data-source-line="4" data-uid="lnk5" id="link_User_Administrator"><path d="M51.9752,320.3314 C71.0152,303.7814 90.63,286.73 117.86,263.07" fill="none" id="User-backto-Administrator" style="stroke:#181818;stroke-width:1;"/><polygon fill="none" points="38.39,332.14,55.9114,324.8598,48.039,315.803,38.39,332.14" style="stroke:#181818;stroke-width:1;"/></g><!--reverse link Administrator to OA--><g class="link" data-entity-1="Administrator" data-entity-2="OA" data-source-line="5" data-uid="lnk6" id="link_Administrator_OA"><path d="M227.5564,255.9059 C261.6464,272.7559 291.32,287.44 325.36,304.27" fill="none" id="Administrator-backto-OA" style="stroke:#181818;stroke-width:1;"/><polygon fill="none" points="211.42,247.93,224.8978,261.2847,230.2151,250.5271,211.42,247.93" style="stroke:#181818;stroke-width:1;"/></g><!--link User to Login--><g class="link" data-entity-1="User" data-entity-2="Login" data-source-line="7" data-uid="lnk8" id="link_User_Login"><path d="M38.39,341.9 C61.89,336.33 101.1217,327.0235 129.9017,320.2035" fill="none" id="User-to-Login" style="stroke:#181818;stroke-width:1;"/><polygon fill="#181818" points="135.74,318.82,126.0602,317.003,130.8747,319.9729,127.9049,324.7875,135.74,318.82" style="stroke:#181818;stroke-width:1;"/></g><!--link User to Set password--><g class="link" data-entity-1="User" data-entity-2="Set password" data-source-line="8" data-uid="lnk10" id="link_User_Set password"><path d="M38.39,349.1 C56.79,353.33 82.5728,359.2544 109.2528,365.3944" fill="none" id="User-to-Set password" style="stroke:#181818;stroke-width:1;"/><polygon fill="#181818" points="115.1,366.74,107.2264,360.8234,110.2274,365.6186,105.4322,368.6197,115.1,366.74" style="stroke:#181818;stroke-width:1;"/></g><!--link User to Logout--><g class="link" data-entity-1="User" data-entity-2="Logout" data-source-line="9" data-uid="lnk12" id="link_User_Logout"><path d="M38.38,361.01 C52.91,375.04 75.7,395.74 97.91,410.55 C110.14,418.71 119.3055,423.6286 131.5055,429.2786" fill="none" id="User-to-Logout" style="stroke:#181818;stroke-width:1;"/><polygon fill="#181818" points="136.95,431.8,130.4642,424.3882,132.4129,429.6988,127.1023,431.6475,136.95,431.8" style="stroke:#181818;stroke-width:1;"/></g><!--link Administrator to User administration--><g class="link" data-entity-1="Administrator" data-entity-2="User administration" data-source-line="11" data-uid="lnk14" id="link_Administrator_User administration"><path d="M211.45,197.77 C234.43,185.09 262.6,170.02 288.43,157.55 C302.29,150.86 312.1767,146.4237 325.9867,140.5637" fill="none" id="Administrator-to-User administration" style="stroke:#181818;stroke-width:1;"/><polygon fill="#181818" points="331.51,138.22,321.6626,138.0534,326.9072,140.1731,324.7875,145.4178,331.51,138.22" style="stroke:#181818;stroke-width:1;"/></g><!--link User administration to Create user--><g class="link" data-entity-1="User administration" data-entity-2="Create user" data-source-line="19" data-uid="lnk19" id="link_User administration_Create user"><path d="M408.94,103.92 C437.86,89.41 480.4,68.68 518.42,52.55 C535.18,45.45 548.4567,40.3679 564.2967,34.6479" fill="none" id="User administration-to-Create user" style="stroke:#181818;stroke-width:1;"/><polygon fill="#181818" points="569.94,32.61,560.1164,31.9046,565.2372,34.3082,562.8336,39.429,569.94,32.61" style="stroke:#181818;stroke-width:1;"/></g><!--link User administration to Delete user--><g class="link" data-entity-1="User administration" data-entity-2="Delete user" data-source-line="20" data-uid="lnk21" id="link_User administration_Delete user"><path d="M442.56,110.6 C478.48,104.83 515.856,98.8218 548.656,93.5518" fill="none" id="User administration-to-Delete user" style="stroke:#181818;stroke-width:1;"/><polygon fill="#181818" points="554.58,92.6,545.0594,90.0784,549.6433,93.3932,546.3285,97.9771,554.58,92.6" style="stroke:#181818;stroke-width:1;"/></g><!--link User administration to Reset user password--><g class="link" data-entity-1="User administration" data-entity-2="Reset user password" data-source-line="21" data-uid="lnk23" id="link_User administration_Reset user password"><path d="M445.37,131.42 C472.45,135.18 497.4271,138.6543 524.7771,142.4543" fill="none" id="User administration-to-Reset user password" style="stroke:#181818;stroke-width:1;"/><polygon fill="#181818" points="530.72,143.28,522.3561,138.0795,525.7676,142.5919,521.2552,146.0034,530.72,143.28" style="stroke:#181818;stroke-width:1;"/></g><!--link User administration to Set user access--><g class="link" data-entity-1="User administration" data-entity-2="Set user access" data-source-line="22" data-uid="lnk25" id="link_User administration_Set user access"><path d="M415.8,138.34 C429.5,144.14 444.74,150.88 458.42,157.55 C485.78,170.9 490.88,177.61 518.42,190.55 C533.57,197.67 545.0296,202.4569 559.9596,208.1969" fill="none" id="User administration-to-Set user access" style="stroke:#181818;stroke-width:1;"/><polygon fill="#181818" points="565.56,210.35,558.5949,203.3867,560.893,208.5557,555.724,210.8539,565.56,210.35" style="stroke:#181818;stroke-width:1;"/></g><!--link OA to Manage organization--><g class="link" data-entity-1="OA" data-entity-2="Manage organization" data-source-line="24" data-uid="lnk27" id="link_OA_Manage organization"><path d="M421.56,327.55 C449.32,327.55 479.28,327.55 511.98,327.55" fill="none" id="OA-to-Manage organization" style="stroke:#181818;stroke-width:1;"/><polygon fill="#181818" points="517.98,327.55,508.98,323.55,512.98,327.55,508.98,331.55,517.98,327.55" style="stroke:#181818;stroke-width:1;"/></g><!--link Manage organization to Change description--><g class="link" data-entity-1="Manage organization" data-entity-2="Change description" data-source-line="25" data-uid="lnk29" id="link_Manage organization_Change description"><path d="M633.65,308.55 C651.37,295.48 674.56,277.17 692.81,258.55 C723.43,227.33 718,207.04 752.81,180.55 C764.9,171.35 774.0253,166.2987 788.0453,160.7187" fill="none" id="Manage organization-to-Change description" style="stroke:#181818;stroke-width:1;"/><polygon fill="#181818" points="793.62,158.5,783.7788,158.1117,788.9744,160.349,786.7371,165.5446,793.62,158.5" style="stroke:#181818;stroke-width:1;"/></g><!--link Manage organization to Change logo--><g class="link" data-entity-1="Manage organization" data-entity-2="Change logo" data-source-line="26" data-uid="lnk31" id="link_Manage organization_Change logo"><path d="M636.31,308.6 C665.28,290.62 710.97,263.59 752.81,244.55 C769.59,236.92 783.0786,231.8294 799.4986,226.3494" fill="none" id="Manage organization-to-Change logo" style="stroke:#181818;stroke-width:1;"/><polygon fill="#181818" points="805.19,224.45,795.3866,223.5049,800.4472,226.0329,797.9192,231.0934,805.19,224.45" style="stroke:#181818;stroke-width:1;"/></g><!--link Manage organization to Allocate user\nto organization--><g class="link" data-entity-1="Manage organization" data-entity-2="Allocate user\nto organization" data-source-line="27" data-uid="lnk33" id="link_Manage organization_Allocate user\nto organization"><path d="M676.85,315.72 C708.42,310.39 739.5935,305.1375 770.7935,299.8775" fill="none" id="Manage organization-to-Allocate user\nto organization" style="stroke:#181818;stroke-width:1;"/><polygon fill="#181818" points="776.71,298.88,767.1703,296.4319,771.7796,299.7112,768.5002,304.3205,776.71,298.88" style="stroke:#181818;stroke-width:1;"/></g><!--link Manage organization to Show games in use--><g class="link" data-entity-1="Manage organization" data-entity-2="Show games in use" data-source-line="28" data-uid="lnk35" id="link_Manage organization_Show games in use"><path d="M677.49,339.2 C709.04,344.39 740.0796,349.486 771.1396,354.596" fill="none" id="Manage organization-to-Show games in use" style="stroke:#181818;stroke-width:1;"/><polygon fill="#181818" points="777.06,355.57,768.8287,350.162,772.1263,354.7583,767.53,358.0559,777.06,355.57" style="stroke:#181818;stroke-width:1;"/></g><!--link Manage organization to Show defined sessions--><g class="link" data-entity-1="Manage organization" data-entity-2="Show defined sessions" data-source-line="29" data-uid="lnk37" id="link_Manage organization_Show defined sessions"><path d="M641.13,346.12 C670.55,361.74 714.08,384.36 752.81,402.55 C767.76,409.58 778.7884,414.4722 793.6284,420.7822" fill="none" id="Manage organization-to-Show defined sessions" style="stroke:#181818;stroke-width:1;"/><polygon fill="#181818" points="799.15,423.13,792.4328,415.9273,794.5487,421.1735,789.3024,423.2894,799.15,423.13" style="stroke:#181818;stroke-width:1;"/></g><!--link Manage organization to Show allocated users--><g class="link" data-entity-1="Manage organization" data-entity-2="Show allocated users" data-source-line="30" data-uid="lnk39" id="link_Manage organization_Show allocated users"><path d="M621.21,347.32 C645.45,378.96 696.91,441.31 752.81,479.55 C765.26,488.07 774.3632,492.9325 788.2332,498.6525" fill="none" id="Manage organization-to-Show allocated users" style="stroke:#181818;stroke-width:1;"/><polygon fill="#181818" points="793.78,500.94,786.9848,493.8108,789.1576,499.0337,783.9348,501.2066,793.78,500.94" style="stroke:#181818;stroke-width:1;"/></g><!--SRC=[ZPB1QiCm38RlVWhHqtp86un1s8uRWONTUb5j9J4uTh1SoiOUVdRIRCaeQOwIFic_VjbI4o5w2ARj8cWJI4NZdG1ng4ABpdnXZe-krBrnXcF0wCC1aA4gnGTJWCVlee1LMQoY2KZqX1V54poy-jOukKZK5650veiFMgv1VuvI_1ivraOA__99fnJEHuAJZz7t0g00lzW2UkfF5COy4tDEuKfuhZIeZ3NnDnuiVgOcSXhoS25kFZn9UWw4wVrp0kGMzqAMzd3lnCcOZ2tSsU3hcKQbqeB9jwgSAc_eiAML7MdIhUnramvTgcXY5Som5xVfN9jSQQrNiqL7btxURaLrvo_GOayCnkN- -xIcnZZIyx7vVWTUzUbH8CiV]--></g></svg>