<svg xmlns="http://www.w3.org/2000/svg" xmlns:xlink="http://www.w3.org/1999/xlink" contentStyleType="text/css" data-diagram-type="DESCRIPTION" height="543px" preserveAspectRatio="none" style="width:1073px;height:543px;background:#FFFFFF;" version="1.1" viewBox="0 0 1073 543" width="1073px" zoomAndPan="magnify"><defs/><g><!--entity OA--><g class="entity" data-entity="OA" data-source-line="3" data-uid="ent0002" id="entity_OA"><ellipse cx="375.4213" cy="289.76" fill="#F1F1F1" rx="8" ry="8" style="stroke:#181818;stroke-width:0.5;"/><path d="M375.4213,297.76 L375.4213,324.76 M362.4213,305.76 L388.4213,305.76 M375.4213,324.76 L362.4213,339.76 M375.4213,324.76 L388.4213,339.76" fill="none" style="stroke:#181818;stroke-width:0.5;"/><text fill="#000000" font-family="sans-serif" font-size="14" lengthAdjust="spacing" textLength="89.749" x="327.58" y="354.2551">Organization</text><text fill="#000000" font-family="sans-serif" font-size="14" lengthAdjust="spacing" textLength="95.6826" x="327.58" y="370.552">Administrator</text></g><!--entity User--><g class="entity" data-entity="User" data-source-line="4" data-uid="ent0003" id="entity_User"><ellipse cx="21.9551" cy="243.91" fill="#F1F1F1" rx="8" ry="8" style="stroke:#181818;stroke-width:0.5;"/><path d="M21.9551,251.91 L21.9551,278.91 M8.9551,259.91 L34.9551,259.91 M21.9551,278.91 L8.9551,293.91 M21.9551,278.91 L34.9551,293.91" fill="none" style="stroke:#181818;stroke-width:0.5;"/><text fill="#000000" font-family="sans-serif" font-size="14" lengthAdjust="spacing" textLength="31.9102" x="6" y="308.4051">User</text></g><!--entity Administrator--><g class="entity" data-entity="Administrator" data-source-line="4" data-uid="ent0004" id="entity_Administrator"><ellipse cx="164.1713" cy="174.91" fill="#F1F1F1" rx="8" ry="8" style="stroke:#181818;stroke-width:0.5;"/><path d="M164.1713,182.91 L164.1713,209.91 M151.1713,190.91 L177.1713,190.91 M164.1713,209.91 L151.1713,224.91 M164.1713,209.91 L177.1713,224.91" fill="none" style="stroke:#181818;stroke-width:0.5;"/><text fill="#000000" font-family="sans-serif" font-size="14" lengthAdjust="spacing" textLength="95.6826" x="116.33" y="239.4051">Administrator</text></g><!--entity Set password--><g class="entity" data-entity="Set password" data-source-line="7" data-uid="ent0007" id="entity_Set password"><ellipse cx="164.1679" cy="293.5516" fill="#F1F1F1" rx="65.2579" ry="15.4516" style="stroke:#181818;stroke-width:0.5;"/><text fill="#000000" font-family="sans-serif" font-size="14" lengthAdjust="spacing" textLength="94.1514" x="117.0922" y="298.2">Set password</text></g><!--entity User administration--><g class="entity" data-entity="User administration" data-source-line="9" data-uid="ent0009" id="entity_User administration"><ellipse cx="375.433" cy="121.5506" fill="#F1F1F1" rx="83.153" ry="19.0306" style="stroke:#181818;stroke-width:0.5;"/><text fill="#000000" font-family="sans-serif" font-size="14" lengthAdjust="spacing" textLength="138.0518" x="306.4071" y="126.199">User administration</text></g><g class="entity" data-entity="GMN11" data-source-line="11" data-uid="ent0012" id="entity_GMN11"><path d="M290.43,175.29 L290.43,245.8213 A0,0 0 0 0 290.43,245.8213 L460.4285,245.8213 A0,0 0 0 0 460.4285,245.8213 L460.4285,185.29 L450.4285,175.29 L379.43,175.29 L375.43,140.79 L371.43,175.29 L290.43,175.29 A0,0 0 0 0 290.43,175.29" fill="#FEFFDD" style="stroke:#181818;stroke-width:0.5;"/><path d="M450.4285,175.29 L450.4285,185.29 L460.4285,185.29 L450.4285,175.29" fill="#FEFFDD" style="stroke:#181818;stroke-width:0.5;"/><text fill="#000000" font-family="sans-serif" font-size="13" lengthAdjust="spacing" textLength="148.9351" x="296.43" y="192.3569">- organization member</text><text fill="#000000" font-family="sans-serif" font-size="13" lengthAdjust="spacing" textLength="148.9985" x="296.43" y="207.4897">- session administrator</text><text fill="#000000" font-family="sans-serif" font-size="13" lengthAdjust="spacing" textLength="70.8081" x="296.43" y="222.6225">- facilitator</text><text fill="#000000" font-family="sans-serif" font-size="13" lengthAdjust="spacing" textLength="49.6895" x="296.43" y="237.7553">- player</text></g><!--entity Create user--><g class="entity" data-entity="Create user" data-source-line="17" data-uid="ent0014" id="entity_Create user"><ellipse cx="672.6243" cy="20.5469" fill="#F1F1F1" rx="60.7343" ry="14.5469" style="stroke:#181818;stroke-width:0.5;"/><text fill="#000000" font-family="sans-serif" font-size="14" lengthAdjust="spacing" textLength="81.8125" x="631.718" y="25.1953">Create user</text></g><!--entity Delete user--><g class="entity" data-entity="Delete user" data-source-line="18" data-uid="ent0016" id="entity_Delete user"><ellipse cx="672.6153" cy="84.5536" fill="#F1F1F1" rx="60.2653" ry="14.5236" style="stroke:#181818;stroke-width:0.5;"/><text fill="#000000" font-family="sans-serif" font-size="14" lengthAdjust="spacing" textLength="80.9854" x="632.1226" y="89.2021">Delete user</text></g><!--entity Reset user password--><g class="entity" data-entity="Reset user password" data-source-line="19" data-uid="ent0018" id="entity_Reset user password"><ellipse cx="672.6199" cy="153.55" fill="#F1F1F1" rx="86.5499" ry="19.71" style="stroke:#181818;stroke-width:0.5;"/><text fill="#000000" font-family="sans-serif" font-size="14" lengthAdjust="spacing" textLength="145.8857" x="599.677" y="158.1984">Reset user password</text></g><!--entity Set user access--><g class="entity" data-entity="Set user access" data-source-line="20" data-uid="ent0020" id="entity_Set user access"><ellipse cx="672.6161" cy="224.5472" fill="#F1F1F1" rx="71.2861" ry="16.6572" style="stroke:#181818;stroke-width:0.5;"/><text fill="#000000" font-family="sans-serif" font-size="14" lengthAdjust="spacing" textLength="109.6006" x="617.8159" y="229.1957">Set user access</text></g><!--entity Manage organization--><g class="entity" data-entity="Manage organization" data-source-line="22" data-uid="ent0022" id="entity_Manage organization"><ellipse cx="672.6222" cy="327.5484" fill="#F1F1F1" rx="87.1922" ry="19.8384" style="stroke:#181818;stroke-width:0.5;"/><text fill="#000000" font-family="sans-serif" font-size="14" lengthAdjust="spacing" textLength="147.3555" x="598.9445" y="332.1969">Manage organization</text></g><!--entity Change description--><g class="entity" data-entity="Change description" data-source-line="23" data-uid="ent0024" id="entity_Change description"><ellipse cx="974.9147" cy="143.5549" fill="#F1F1F1" rx="82.2247" ry="18.8449" style="stroke:#181818;stroke-width:0.5;"/><text fill="#000000" font-family="sans-serif" font-size="14" lengthAdjust="spacing" textLength="135.8916" x="906.9689" y="148.2034">Change description</text></g><!--entity Change logo--><g class="entity" data-entity="Change logo" data-source-line="24" data-uid="ent0026" id="entity_Change logo"><ellipse cx="974.9106" cy="212.5501" fill="#F1F1F1" rx="62.9506" ry="14.9901" style="stroke:#181818;stroke-width:0.5;"/><text fill="#000000" font-family="sans-serif" font-size="14" lengthAdjust="spacing" textLength="87.958" x="930.9316" y="217.1986">Change logo</text></g><!--entity Allocate user\nto organization--><g class="entity" data-entity="Allocate user\nto organization" data-source-line="25" data-uid="ent0028" id="entity_Allocate user\nto organization"><ellipse cx="974.9116" cy="287.5533" fill="#F1F1F1" rx="75.4616" ry="25.3233" style="stroke:#181818;stroke-width:0.5;"/><text fill="#000000" font-family="sans-serif" font-size="14" lengthAdjust="spacing" textLength="91.2871" x="929.2681" y="283.0122">Allocate user</text><text fill="#000000" font-family="sans-serif" font-size="14" lengthAdjust="spacing" textLength="105.7998" x="922.0117" y="299.3091">to organization</text></g><!--entity Show games in use--><g class="entity" data-entity="Show games in use" data-source-line="26" data-uid="ent0030" id="entity_Show games in use"><ellipse cx="974.9139" cy="366.5468" fill="#F1F1F1" rx="82.1339" ry="18.8268" style="stroke:#181818;stroke-width:0.5;"/><text fill="#000000" font-family="sans-serif" font-size="14" lengthAdjust="spacing" textLength="135.6797" x="907.074" y="371.1952">Show games in use</text></g><!--entity Show defined sessions--><g class="entity" data-entity="Show defined sessions" data-source-line="27" data-uid="ent0032" id="entity_Show defined sessions"><ellipse cx="974.9125" cy="441.5505" fill="#F1F1F1" rx="92.1025" ry="20.8205" style="stroke:#181818;stroke-width:0.5;"/><text fill="#000000" font-family="sans-serif" font-size="14" lengthAdjust="spacing" textLength="158.4844" x="895.6703" y="446.1989">Show defined sessions</text></g><!--entity Show allocated users--><g class="entity" data-entity="Show allocated users" data-source-line="28" data-uid="ent0034" id="entity_Show allocated users"><ellipse cx="974.9091" cy="517.5458" fill="#F1F1F1" rx="87.7791" ry="19.9558" style="stroke:#181818;stroke-width:0.5;"/><text fill="#000000" font-family="sans-serif" font-size="14" lengthAdjust="spacing" textLength="148.6953" x="900.5615" y="522.1943">Show allocated users</text></g><!--reverse link User to Administrator--><g class="link" data-entity-1="User" data-entity-2="Administrator" data-source-line="4" data-uid="lnk5" id="link_User_Administrator"><path d="M54.3782,258.088 C72.8982,248.968 88.86,241.12 115.88,227.82" fill="none" id="User-backto-Administrator" style="stroke:#181818;stroke-width:1;"/><polygon fill="none" points="38.23,266.04,57.0289,263.4707,51.7275,252.7052,38.23,266.04" style="stroke:#181818;stroke-width:1;"/></g><!--reverse link Administrator to OA--><g class="link" data-entity-1="Administrator" data-entity-2="OA" data-source-line="5" data-uid="lnk6" id="link_Administrator_OA"><path d="M227.9091,241.4291 C262.2691,261.6191 293.06,279.73 327.37,299.9" fill="none" id="Administrator-backto-OA" style="stroke:#181818;stroke-width:1;"/><polygon fill="none" points="212.39,232.31,224.8694,246.6021,230.9488,236.256,212.39,232.31" style="stroke:#181818;stroke-width:1;"/></g><!--link User to Set password--><g class="link" data-entity-1="User" data-entity-2="Set password" data-source-line="7" data-uid="lnk8" id="link_User_Set password"><path d="M38.23,275.73 C54.84,278.1 76.42,281.1838 101.41,284.7438" fill="none" id="User-to-Set password" style="stroke:#181818;stroke-width:1;"/><polygon fill="#181818" points="107.35,285.59,99.0041,280.3607,102.4,284.8848,97.8758,288.2807,107.35,285.59" style="stroke:#181818;stroke-width:1;"/></g><!--link Administrator to User administration--><g class="link" data-entity-1="Administrator" data-entity-2="User administration" data-source-line="9" data-uid="lnk10" id="link_Administrator_User administration"><path d="M212.39,185.82 C248.43,171.53 292.0625,154.2217 326.7625,140.4617" fill="none" id="Administrator-to-User administration" style="stroke:#181818;stroke-width:1;"/><polygon fill="#181818" points="332.34,138.25,322.4993,137.8492,327.6921,140.0931,325.4482,145.2859,332.34,138.25" style="stroke:#181818;stroke-width:1;"/></g><!--link User administration to Create user--><g class="link" data-entity-1="User administration" data-entity-2="Create user" data-source-line="17" data-uid="lnk15" id="link_User administration_Create user"><path d="M415.93,104.61 C437.72,95.51 465.37,84.39 490.42,75.55 C538.32,58.66 588.6266,43.7533 625.5666,33.3033" fill="none" id="User administration-to-Create user" style="stroke:#181818;stroke-width:1;"/><polygon fill="#181818" points="631.34,31.67,621.591,30.2709,626.5288,33.031,623.7687,37.9688,631.34,31.67" style="stroke:#181818;stroke-width:1;"/><text fill="#000000" font-family="sans-serif" font-size="13" lengthAdjust="spacing" textLength="63.0068" x="491.42" y="50.6169">&#171;include&#187;</text></g><!--link User administration to Delete user--><g class="link" data-entity-1="User administration" data-entity-2="Delete user" data-source-line="18" data-uid="lnk17" id="link_User administration_Delete user"><path d="M449.02,112.46 C501.42,105.89 565.0565,97.9059 612.3865,91.9759" fill="none" id="User administration-to-Delete user" style="stroke:#181818;stroke-width:1;"/><polygon fill="#181818" points="618.34,91.23,608.9125,88.3799,613.3788,91.8516,609.9071,96.3178,618.34,91.23" style="stroke:#181818;stroke-width:1;"/><text fill="#000000" font-family="sans-serif" font-size="13" lengthAdjust="spacing" textLength="63.0068" x="491.42" y="96.6169">&#171;include&#187;</text></g><!--link User administration to Reset user password--><g class="link" data-entity-1="User administration" data-entity-2="Reset user password" data-source-line="19" data-uid="lnk19" id="link_User administration_Reset user password"><path d="M435.32,135.18 C452.95,138.79 472.39,142.3 490.42,144.55 C521.52,148.44 549.8252,150.4208 580.1352,151.6808" fill="none" id="User administration-to-Reset user password" style="stroke:#181818;stroke-width:1;"/><polygon fill="#181818" points="586.13,151.93,577.3039,147.5596,581.1343,151.7223,576.9716,155.5527,586.13,151.93" style="stroke:#181818;stroke-width:1;"/><text fill="#000000" font-family="sans-serif" font-size="13" lengthAdjust="spacing" textLength="63.0068" x="491.42" y="140.6169">&#171;include&#187;</text></g><!--link User administration to Set user access--><g class="link" data-entity-1="User administration" data-entity-2="Set user access" data-source-line="20" data-uid="lnk21" id="link_User administration_Set user access"><path d="M418.38,138.22 C431.98,143.97 447,150.69 460.42,157.55 C474.27,164.63 476.12,169.47 490.42,175.55 C531.36,192.97 574.2925,204.4403 610.9325,212.5703" fill="none" id="User administration-to-Set user access" style="stroke:#181818;stroke-width:1;"/><polygon fill="#181818" points="616.79,213.87,608.8702,208.0154,611.9087,212.7869,607.1372,215.8254,616.79,213.87" style="stroke:#181818;stroke-width:1;"/><text fill="#000000" font-family="sans-serif" font-size="13" lengthAdjust="spacing" textLength="63.0068" x="491.42" y="171.6169">&#171;include&#187;</text></g><!--link OA to Manage organization--><g class="link" data-entity-1="OA" data-entity-2="Manage organization" data-source-line="22" data-uid="lnk23" id="link_OA_Manage organization"><path d="M423.53,327.55 C466.91,327.55 526.34,327.55 579.12,327.55" fill="none" id="OA-to-Manage organization" style="stroke:#181818;stroke-width:1;"/><polygon fill="#181818" points="585.12,327.55,576.12,323.55,580.12,327.55,576.12,331.55,585.12,327.55" style="stroke:#181818;stroke-width:1;"/></g><!--link Manage organization to Change description--><g class="link" data-entity-1="Manage organization" data-entity-2="Change description" data-source-line="23" data-uid="lnk25" id="link_Manage organization_Change description"><path d="M699.02,308.23 C716.46,294.72 739.95,276.03 759.81,258.55 C773.73,246.3 774.79,240.43 789.81,229.55 C827.65,202.15 840.45,200.26 882.81,180.55 C898.44,173.28 910.3489,168.2177 925.7789,162.0477" fill="none" id="Manage organization-to-Change description" style="stroke:#181818;stroke-width:1;"/><polygon fill="#181818" points="931.35,159.82,921.5082,159.4475,926.7074,161.6764,924.4785,166.8757,931.35,159.82" style="stroke:#181818;stroke-width:1;"/><text fill="#000000" font-family="sans-serif" font-size="13" lengthAdjust="spacing" textLength="61.1851" x="790.81" y="191.6169">&#171;extend&#187;</text></g><!--link Manage organization to Change logo--><g class="link" data-entity-1="Manage organization" data-entity-2="Change logo" data-source-line="24" data-uid="lnk27" id="link_Manage organization_Change logo"><path d="M714.55,309.72 C736.72,300.2 764.65,288.45 789.81,278.55 C830.76,262.44 841.38,259.4 882.81,244.55 C900.96,238.05 915.5165,232.9112 932.2965,227.0412" fill="none" id="Manage organization-to-Change logo" style="stroke:#181818;stroke-width:1;"/><polygon fill="#181818" points="937.96,225.06,928.144,224.2562,933.2404,226.711,930.7856,231.8074,937.96,225.06" style="stroke:#181818;stroke-width:1;"/><text fill="#000000" font-family="sans-serif" font-size="13" lengthAdjust="spacing" textLength="61.1851" x="790.81" y="250.6169">&#171;extend&#187;</text></g><!--link Manage organization to Allocate user\nto organization--><g class="link" data-entity-1="Manage organization" data-entity-2="Allocate user\nto organization" data-source-line="25" data-uid="lnk29" id="link_Manage organization_Allocate user\nto organization"><path d="M748.62,317.56 C796.31,311.21 851.6725,303.8322 898.2925,297.6222" fill="none" id="Manage organization-to-Allocate user\nto organization" style="stroke:#181818;stroke-width:1;"/><polygon fill="#181818" points="904.24,296.83,894.7906,294.0534,899.2838,297.4902,895.847,301.9833,904.24,296.83" style="stroke:#181818;stroke-width:1;"/><text fill="#000000" font-family="sans-serif" font-size="13" lengthAdjust="spacing" textLength="61.1851" x="790.81" y="299.6169">&#171;extend&#187;</text></g><!--link Manage organization to Show games in use--><g class="link" data-entity-1="Manage organization" data-entity-2="Show games in use" data-source-line="26" data-uid="lnk31" id="link_Manage organization_Show games in use"><path d="M741.7,340.07 C757.46,342.74 774.19,345.41 789.81,347.55 C825.14,352.41 858.478,356.0506 891.668,359.2706" fill="none" id="Manage organization-to-Show games in use" style="stroke:#181818;stroke-width:1;"/><polygon fill="#181818" points="897.64,359.85,889.0683,354.9996,892.6634,359.3672,888.2958,362.9622,897.64,359.85" style="stroke:#181818;stroke-width:1;"/><text fill="#000000" font-family="sans-serif" font-size="13" lengthAdjust="spacing" textLength="61.1851" x="790.81" y="343.6169">&#171;extend&#187;</text></g><!--link Manage organization to Show defined sessions--><g class="link" data-entity-1="Manage organization" data-entity-2="Show defined sessions" data-source-line="27" data-uid="lnk33" id="link_Manage organization_Show defined sessions"><path d="M711.69,345.7 C734.19,356.15 763.36,369.21 789.81,379.55 C832.68,396.32 876.4639,411.0163 913.3239,422.7763" fill="none" id="Manage organization-to-Show defined sessions" style="stroke:#181818;stroke-width:1;"/><polygon fill="#181818" points="919.04,424.6,911.6816,418.0537,914.2766,423.0802,909.25,425.6752,919.04,424.6" style="stroke:#181818;stroke-width:1;"/><text fill="#000000" font-family="sans-serif" font-size="13" lengthAdjust="spacing" textLength="61.1851" x="790.81" y="375.6169">&#171;extend&#187;</text></g><!--link Manage organization to Show allocated users--><g class="link" data-entity-1="Manage organization" data-entity-2="Show allocated users" data-source-line="28" data-uid="lnk35" id="link_Manage organization_Show allocated users"><path d="M694.06,347.05 C716.55,367.98 754.23,401.59 789.81,426.55 C828.75,453.88 840.11,458.58 882.81,479.55 C897.73,486.88 908.8709,491.8281 923.8509,497.9881" fill="none" id="Manage organization-to-Show allocated users" style="stroke:#181818;stroke-width:1;"/><polygon fill="#181818" points="929.4,500.27,922.5975,493.1477,924.7757,498.3684,919.555,500.5466,929.4,500.27" style="stroke:#181818;stroke-width:1;"/><text fill="#000000" font-family="sans-serif" font-size="13" lengthAdjust="spacing" textLength="61.1851" x="790.81" y="422.6169">&#171;extend&#187;</text></g><!--SRC=[dPB1JiCm38RlUGfh9the2w2gKWLND8bgjrsyn6qZfKcLU1eW7fwaNHbb4r2Ejl_F-VCdXXe6Tk1rsp4exKcoTbQ8pTQtQFKRfd9lAzLhgmDxPEStW06sbTW5yb2yvpainc9HJOAedkHvNi9TJGm3Xd1oNcNYctvKZ5gyzAE9J5Z710V7x7e1a8FxOX5wwW_antwW458B5wxIf46fZURFUZ3u6Y6o2j9o8MuUF5bwy8Jn_6CKP70FHG7QIdDK16Nv4_T8Xlx3FLE8CINiajKQlfvfb386SisARJKfdz1YIuiuCt6pUqwYGnidYeBqUfW6ut9wuHHbylKhRLphrc2LCKxE3x2tySykHN_VL7Vk12ts568QQTrgM56ZBQdveuNL2_1y6JNUveh_0000]--></g></svg>