<svg xmlns="http://www.w3.org/2000/svg" xmlns:xlink="http://www.w3.org/1999/xlink" contentStyleType="text/css" data-diagram-type="DESCRIPTION" height="433px" preserveAspectRatio="none" style="width:1053px;height:433px;background:#FFFFFF;" version="1.1" viewBox="0 0 1053 433" width="1053px" zoomAndPan="magnify"><defs/><g><!--entity OA--><g class="entity" data-entity="OA" data-source-line="3" data-uid="ent0002" id="entity_OA"><ellipse cx="375.4213" cy="289.75" fill="#F1F1F1" rx="8" ry="8" style="stroke:#181818;stroke-width:0.5;"/><path d="M375.4213,297.75 L375.4213,324.75 M362.4213,305.75 L388.4213,305.75 M375.4213,324.75 L362.4213,339.75 M375.4213,324.75 L388.4213,339.75" fill="none" style="stroke:#181818;stroke-width:0.5;"/><text fill="#000000" font-family="sans-serif" font-size="14" lengthAdjust="spacing" textLength="89.749" x="327.58" y="354.2451">Organization</text><text fill="#000000" font-family="sans-serif" font-size="14" lengthAdjust="spacing" textLength="95.6826" x="327.58" y="370.542">Administrator</text></g><!--entity User--><g class="entity" data-entity="User" data-source-line="4" data-uid="ent0003" id="entity_User"><ellipse cx="21.9551" cy="243.9" fill="#F1F1F1" rx="8" ry="8" style="stroke:#181818;stroke-width:0.5;"/><path d="M21.9551,251.9 L21.9551,278.9 M8.9551,259.9 L34.9551,259.9 M21.9551,278.9 L8.9551,293.9 M21.9551,278.9 L34.9551,293.9" fill="none" style="stroke:#181818;stroke-width:0.5;"/><text fill="#000000" font-family="sans-serif" font-size="14" lengthAdjust="spacing" textLength="31.9102" x="6" y="308.3951">User</text></g><!--entity Administrator--><g class="entity" data-entity="Administrator" data-source-line="4" data-uid="ent0004" id="entity_Administrator"><ellipse cx="164.1713" cy="174.9" fill="#F1F1F1" rx="8" ry="8" style="stroke:#181818;stroke-width:0.5;"/><path d="M164.1713,182.9 L164.1713,209.9 M151.1713,190.9 L177.1713,190.9 M164.1713,209.9 L151.1713,224.9 M164.1713,209.9 L177.1713,224.9" fill="none" style="stroke:#181818;stroke-width:0.5;"/><text fill="#000000" font-family="sans-serif" font-size="14" lengthAdjust="spacing" textLength="95.6826" x="116.33" y="239.3951">Administrator</text></g><!--entity Set password--><g class="entity" data-entity="Set password" data-source-line="7" data-uid="ent0007" id="entity_Set password"><ellipse cx="164.1679" cy="293.5516" fill="#F1F1F1" rx="65.2579" ry="15.4516" style="stroke:#181818;stroke-width:0.5;"/><text fill="#000000" font-family="sans-serif" font-size="14" lengthAdjust="spacing" textLength="94.1514" x="117.0922" y="298.2">Set password</text></g><!--entity User administration--><g class="entity" data-entity="User administration" data-source-line="9" data-uid="ent0009" id="entity_User administration"><ellipse cx="375.433" cy="121.5506" fill="#F1F1F1" rx="83.153" ry="19.0306" style="stroke:#181818;stroke-width:0.5;"/><text fill="#000000" font-family="sans-serif" font-size="14" lengthAdjust="spacing" textLength="138.0518" x="306.4071" y="126.199">User administration</text></g><g class="entity" data-entity="GMN11" data-source-line="11" data-uid="ent0012" id="entity_GMN11"><path d="M290.43,175.28 L290.43,245.8113 A0,0 0 0 0 290.43,245.8113 L460.4285,245.8113 A0,0 0 0 0 460.4285,245.8113 L460.4285,185.28 L450.4285,175.28 L379.43,175.28 L375.43,140.79 L371.43,175.28 L290.43,175.28 A0,0 0 0 0 290.43,175.28" fill="#FEFFDD" style="stroke:#181818;stroke-width:0.5;"/><path d="M450.4285,175.28 L450.4285,185.28 L460.4285,185.28 L450.4285,175.28" fill="#FEFFDD" style="stroke:#181818;stroke-width:0.5;"/><text fill="#000000" font-family="sans-serif" font-size="13" lengthAdjust="spacing" textLength="148.9351" x="296.43" y="192.3469">- organization member</text><text fill="#000000" font-family="sans-serif" font-size="13" lengthAdjust="spacing" textLength="148.9985" x="296.43" y="207.4797">- session administrator</text><text fill="#000000" font-family="sans-serif" font-size="13" lengthAdjust="spacing" textLength="70.8081" x="296.43" y="222.6125">- facilitator</text><text fill="#000000" font-family="sans-serif" font-size="13" lengthAdjust="spacing" textLength="49.6895" x="296.43" y="237.7453">- player</text></g><!--entity Create user--><g class="entity" data-entity="Create user" data-source-line="17" data-uid="ent0014" id="entity_Create user"><ellipse cx="672.6243" cy="20.5469" fill="#F1F1F1" rx="60.7343" ry="14.5469" style="stroke:#181818;stroke-width:0.5;"/><text fill="#000000" font-family="sans-serif" font-size="14" lengthAdjust="spacing" textLength="81.8125" x="631.718" y="25.1953">Create user</text></g><!--entity Delete user--><g class="entity" data-entity="Delete user" data-source-line="18" data-uid="ent0016" id="entity_Delete user"><ellipse cx="672.6153" cy="84.5536" fill="#F1F1F1" rx="60.2653" ry="14.5236" style="stroke:#181818;stroke-width:0.5;"/><text fill="#000000" font-family="sans-serif" font-size="14" lengthAdjust="spacing" textLength="80.9854" x="632.1226" y="89.2021">Delete user</text></g><!--entity Reset user password--><g class="entity" data-entity="Reset user password" data-source-line="19" data-uid="ent0018" id="entity_Reset user password"><ellipse cx="672.6199" cy="153.55" fill="#F1F1F1" rx="86.5499" ry="19.71" style="stroke:#181818;stroke-width:0.5;"/><text fill="#000000" font-family="sans-serif" font-size="14" lengthAdjust="spacing" textLength="145.8857" x="599.677" y="158.1984">Reset user password</text></g><!--entity Set user access--><g class="entity" data-entity="Set user access" data-source-line="20" data-uid="ent0020" id="entity_Set user access"><ellipse cx="672.6161" cy="224.5472" fill="#F1F1F1" rx="71.2861" ry="16.6572" style="stroke:#181818;stroke-width:0.5;"/><text fill="#000000" font-family="sans-serif" font-size="14" lengthAdjust="spacing" textLength="109.6006" x="617.8159" y="229.1957">Set user access</text></g><!--entity Manage organization--><g class="entity" data-entity="Manage organization" data-source-line="22" data-uid="ent0022" id="entity_Manage organization"><ellipse cx="672.6222" cy="327.5484" fill="#F1F1F1" rx="87.1922" ry="19.8384" style="stroke:#181818;stroke-width:0.5;"/><text fill="#000000" font-family="sans-serif" font-size="14" lengthAdjust="spacing" textLength="147.3555" x="598.9445" y="332.1969">Manage organization</text></g><!--entity Change description--><g class="entity" data-entity="Change description" data-source-line="23" data-uid="ent0024" id="entity_Change description"><ellipse cx="965.0347" cy="258.5549" fill="#F1F1F1" rx="82.2247" ry="18.8449" style="stroke:#181818;stroke-width:0.5;"/><text fill="#000000" font-family="sans-serif" font-size="14" lengthAdjust="spacing" textLength="135.8916" x="897.0889" y="263.2034">Change description</text></g><!--entity Change logo--><g class="entity" data-entity="Change logo" data-source-line="24" data-uid="ent0026" id="entity_Change logo"><ellipse cx="965.0306" cy="327.5501" fill="#F1F1F1" rx="62.9506" ry="14.9901" style="stroke:#181818;stroke-width:0.5;"/><text fill="#000000" font-family="sans-serif" font-size="14" lengthAdjust="spacing" textLength="87.958" x="921.0516" y="332.1986">Change logo</text></g><!--entity Allocate user\nto organization--><g class="entity" data-entity="Allocate user\nto organization" data-source-line="25" data-uid="ent0028" id="entity_Allocate user\nto organization"><ellipse cx="965.0316" cy="402.5533" fill="#F1F1F1" rx="75.4616" ry="25.3233" style="stroke:#181818;stroke-width:0.5;"/><text fill="#000000" font-family="sans-serif" font-size="14" lengthAdjust="spacing" textLength="91.2871" x="919.3881" y="398.0122">Allocate user</text><text fill="#000000" font-family="sans-serif" font-size="14" lengthAdjust="spacing" textLength="105.7998" x="912.1317" y="414.3091">to organization</text></g><!--reverse link User to Administrator--><g class="link" data-entity-1="User" data-entity-2="Administrator" data-source-line="4" data-uid="lnk5" id="link_User_Administrator"><path d="M54.3782,258.078 C72.8982,248.958 88.86,241.12 115.88,227.82" fill="none" id="User-backto-Administrator" style="stroke:#181818;stroke-width:1;"/><polygon fill="none" points="38.23,266.03,57.0289,263.4607,51.7275,252.6952,38.23,266.03" style="stroke:#181818;stroke-width:1;"/></g><!--reverse link Administrator to OA--><g class="link" data-entity-1="Administrator" data-entity-2="OA" data-source-line="5" data-uid="lnk6" id="link_Administrator_OA"><path d="M227.9071,241.4224 C262.2671,261.6224 293.06,279.72 327.37,299.89" fill="none" id="Administrator-backto-OA" style="stroke:#181818;stroke-width:1;"/><polygon fill="none" points="212.39,232.3,224.8663,246.5948,230.9479,236.25,212.39,232.3" style="stroke:#181818;stroke-width:1;"/></g><!--link User to Set password--><g class="link" data-entity-1="User" data-entity-2="Set password" data-source-line="7" data-uid="lnk8" id="link_User_Set password"><path d="M38.23,275.73 C54.84,278.09 76.4203,281.1715 101.4103,284.7415" fill="none" id="User-to-Set password" style="stroke:#181818;stroke-width:1;"/><polygon fill="#181818" points="107.35,285.59,99.0061,280.3574,102.4003,284.8829,97.8748,288.277,107.35,285.59" style="stroke:#181818;stroke-width:1;"/></g><!--link Administrator to User administration--><g class="link" data-entity-1="Administrator" data-entity-2="User administration" data-source-line="9" data-uid="lnk10" id="link_Administrator_User administration"><path d="M212.39,185.82 C248.43,171.52 292.0625,154.2117 326.7625,140.4517" fill="none" id="Administrator-to-User administration" style="stroke:#181818;stroke-width:1;"/><polygon fill="#181818" points="332.34,138.24,322.4993,137.8392,327.6921,140.0831,325.4482,145.2759,332.34,138.24" style="stroke:#181818;stroke-width:1;"/></g><!--link User administration to Create user--><g class="link" data-entity-1="User administration" data-entity-2="Create user" data-source-line="17" data-uid="lnk15" id="link_User administration_Create user"><path d="M415.93,104.6 C437.72,95.51 465.37,84.39 490.42,75.55 C538.32,58.65 588.627,43.7547 625.567,33.2947" fill="none" id="User administration-to-Create user" style="stroke:#181818;stroke-width:1;"/><polygon fill="#181818" points="631.34,31.66,621.5907,30.2634,626.5292,33.0222,623.7703,37.9607,631.34,31.66" style="stroke:#181818;stroke-width:1;"/><text fill="#000000" font-family="sans-serif" font-size="13" lengthAdjust="spacing" textLength="63.0068" x="491.42" y="50.6169">&#171;include&#187;</text></g><!--link User administration to Delete user--><g class="link" data-entity-1="User administration" data-entity-2="Delete user" data-source-line="18" data-uid="lnk17" id="link_User administration_Delete user"><path d="M449.02,112.45 C501.42,105.88 565.0567,97.9071 612.3867,91.9671" fill="none" id="User administration-to-Delete user" style="stroke:#181818;stroke-width:1;"/><polygon fill="#181818" points="618.34,91.22,608.912,88.3719,613.3789,91.8426,609.9082,96.3096,618.34,91.22" style="stroke:#181818;stroke-width:1;"/><text fill="#000000" font-family="sans-serif" font-size="13" lengthAdjust="spacing" textLength="63.0068" x="491.42" y="96.6169">&#171;include&#187;</text></g><!--link User administration to Reset user password--><g class="link" data-entity-1="User administration" data-entity-2="Reset user password" data-source-line="19" data-uid="lnk19" id="link_User administration_Reset user password"><path d="M435.32,135.17 C452.95,138.78 472.39,142.29 490.42,144.55 C521.52,148.43 549.8253,150.4088 580.1353,151.6788" fill="none" id="User administration-to-Reset user password" style="stroke:#181818;stroke-width:1;"/><polygon fill="#181818" points="586.13,151.93,577.3053,147.5567,581.1344,151.7207,576.9704,155.5497,586.13,151.93" style="stroke:#181818;stroke-width:1;"/><text fill="#000000" font-family="sans-serif" font-size="13" lengthAdjust="spacing" textLength="63.0068" x="491.42" y="140.6169">&#171;include&#187;</text></g><!--link User administration to Set user access--><g class="link" data-entity-1="User administration" data-entity-2="Set user access" data-source-line="20" data-uid="lnk21" id="link_User administration_Set user access"><path d="M418.38,138.21 C431.98,143.96 447,150.68 460.42,157.55 C474.27,164.63 476.12,169.46 490.42,175.55 C531.36,192.96 574.2925,204.4403 610.9325,212.5703" fill="none" id="User administration-to-Set user access" style="stroke:#181818;stroke-width:1;"/><polygon fill="#181818" points="616.79,213.87,608.8702,208.0154,611.9087,212.7869,607.1372,215.8254,616.79,213.87" style="stroke:#181818;stroke-width:1;"/><text fill="#000000" font-family="sans-serif" font-size="13" lengthAdjust="spacing" textLength="63.0068" x="491.42" y="171.6169">&#171;include&#187;</text></g><!--link OA to Manage organization--><g class="link" data-entity-1="OA" data-entity-2="Manage organization" data-source-line="22" data-uid="lnk23" id="link_OA_Manage organization"><path d="M423.53,327.55 C466.91,327.55 526.34,327.55 579.12,327.55" fill="none" id="OA-to-Manage organization" style="stroke:#181818;stroke-width:1;"/><polygon fill="#181818" points="585.12,327.55,576.12,323.55,580.12,327.55,576.12,331.55,585.12,327.55" style="stroke:#181818;stroke-width:1;"/></g><!--link Manage organization to Change description--><g class="link" data-entity-1="Manage organization" data-entity-2="Change description" data-source-line="23" data-uid="lnk25" id="link_Manage organization_Change description"><path d="M734.14,313.17 C784.85,301.12 850.8825,285.427 900.7125,273.587" fill="none" id="Manage organization-to-Change description" style="stroke:#181818;stroke-width:1;"/><polygon fill="#181818" points="906.55,272.2,896.8691,270.3889,901.6854,273.3559,898.7185,278.1722,906.55,272.2" style="stroke:#181818;stroke-width:1;"/><text fill="#000000" font-family="sans-serif" font-size="13" lengthAdjust="spacing" textLength="61.1851" x="790.81" y="282.6169">&#171;extend&#187;</text></g><!--link Manage organization to Change logo--><g class="link" data-entity-1="Manage organization" data-entity-2="Change logo" data-source-line="24" data-uid="lnk27" id="link_Manage organization_Change logo"><path d="M759.97,327.55 C805.61,327.55 854.6,327.55 895.99,327.55" fill="none" id="Manage organization-to-Change logo" style="stroke:#181818;stroke-width:1;"/><polygon fill="#181818" points="901.99,327.55,892.99,323.55,896.99,327.55,892.99,331.55,901.99,327.55" style="stroke:#181818;stroke-width:1;"/><text fill="#000000" font-family="sans-serif" font-size="13" lengthAdjust="spacing" textLength="61.1851" x="790.81" y="323.6169">&#171;extend&#187;</text></g><!--link Manage organization to Allocate user\nto organization--><g class="link" data-entity-1="Manage organization" data-entity-2="Allocate user\nto organization" data-source-line="25" data-uid="lnk29" id="link_Manage organization_Allocate user\nto organization"><path d="M731.69,342.54 C781.76,355.48 847.9605,372.5702 898.5105,385.6202" fill="none" id="Manage organization-to-Allocate user\nto organization" style="stroke:#181818;stroke-width:1;"/><polygon fill="#181818" points="904.32,387.12,896.6056,380.9973,899.4787,385.8702,894.6058,388.7433,904.32,387.12" style="stroke:#181818;stroke-width:1;"/><text fill="#000000" font-family="sans-serif" font-size="13" lengthAdjust="spacing" textLength="61.1851" x="790.81" y="353.6169">&#171;extend&#187;</text></g><!--SRC=[dPBFQiCm3CRlUWhHqtB82umG2Djr15PwwqMrrTJWsC5MsH_syBEJTPstij4T9Vq-wUEpBUy5nMCmmq5Gcy1AZ7S0gpuCvCmhvNBhEZqQPw844XzMI17x3ZQH0pPlTOt568fg0HAzu7NTuisQ1IUAySa7NS4tVYPcbixzPA82vuLnvqNy28Wr-YyMSUHnns7kHuunjwXmbITxKiOQ-QmdIoz9n4vZNWvmyV1YwIumfVl715HuYqs3nYbxr8nj-vlkdYt_H_V8CSMKPUUihj6lJsfIAWNoKmjzjv0Fv6ZW8iuABdO_aZYGInFDKGKpBODvEJzBZZBx-bDj_U2laNNMUdLwWArBVxQ4oatl]--></g></svg>