<svg xmlns="http://www.w3.org/2000/svg" xmlns:xlink="http://www.w3.org/1999/xlink" contentStyleType="text/css" data-diagram-type="DESCRIPTION" height="614px" preserveAspectRatio="none" style="width:1038px;height:614px;background:#FFFFFF;" version="1.1" viewBox="0 0 1038 614" width="1038px" zoomAndPan="magnify"><defs/><g><!--entity PA--><g class="entity" data-entity="PA" data-source-line="3" data-uid="ent0002" id="entity_PA"><ellipse cx="373.6072" cy="283.9" fill="#F1F1F1" rx="8" ry="8" style="stroke:#181818;stroke-width:0.5;"/><path d="M373.6072,291.9 L373.6072,318.9 M360.6072,299.9 L386.6072,299.9 M373.6072,318.9 L360.6072,333.9 M373.6072,318.9 L386.6072,333.9" fill="none" style="stroke:#181818;stroke-width:0.5;"/><text fill="#000000" font-family="sans-serif" font-size="14" lengthAdjust="spacing" textLength="140.8545" x="303.18" y="348.3951">Portal Administrator</text></g><!--entity User--><g class="entity" data-entity="User" data-source-line="4" data-uid="ent0003" id="entity_User"><ellipse cx="21.9551" cy="253.9" fill="#F1F1F1" rx="8" ry="8" style="stroke:#181818;stroke-width:0.5;"/><path d="M21.9551,261.9 L21.9551,288.9 M8.9551,269.9 L34.9551,269.9 M21.9551,288.9 L8.9551,303.9 M21.9551,288.9 L34.9551,303.9" fill="none" style="stroke:#181818;stroke-width:0.5;"/><text fill="#000000" font-family="sans-serif" font-size="14" lengthAdjust="spacing" textLength="31.9102" x="6" y="318.3951">User</text></g><!--entity Administrator--><g class="entity" data-entity="Administrator" data-source-line="4" data-uid="ent0004" id="entity_Administrator"><ellipse cx="164.1713" cy="184.9" fill="#F1F1F1" rx="8" ry="8" style="stroke:#181818;stroke-width:0.5;"/><path d="M164.1713,192.9 L164.1713,219.9 M151.1713,200.9 L177.1713,200.9 M164.1713,219.9 L151.1713,234.9 M164.1713,219.9 L177.1713,234.9" fill="none" style="stroke:#181818;stroke-width:0.5;"/><text fill="#000000" font-family="sans-serif" font-size="14" lengthAdjust="spacing" textLength="95.6826" x="116.33" y="249.3951">Administrator</text></g><!--entity Set password--><g class="entity" data-entity="Set password" data-source-line="7" data-uid="ent0007" id="entity_Set password"><ellipse cx="164.1679" cy="303.5516" fill="#F1F1F1" rx="65.2579" ry="15.4516" style="stroke:#181818;stroke-width:0.5;"/><text fill="#000000" font-family="sans-serif" font-size="14" lengthAdjust="spacing" textLength="94.1514" x="117.0922" y="308.2">Set password</text></g><!--entity User administration--><g class="entity" data-entity="User administration" data-source-line="9" data-uid="ent0009" id="entity_User administration"><ellipse cx="373.613" cy="146.5506" fill="#F1F1F1" rx="83.153" ry="19.0306" style="stroke:#181818;stroke-width:0.5;"/><text fill="#000000" font-family="sans-serif" font-size="14" lengthAdjust="spacing" textLength="138.0518" x="304.5871" y="151.199">User administration</text></g><g class="entity" data-entity="GMN11" data-source-line="11" data-uid="ent0012" id="entity_GMN11"><path d="M290.43,200.41 L290.43,240.6756 A0,0 0 0 0 290.43,240.6756 L456.7977,240.6756 A0,0 0 0 0 456.7977,240.6756 L456.7977,210.41 L446.7977,200.41 L377.61,200.41 L373.61,165.76 L369.61,200.41 L290.43,200.41 A0,0 0 0 0 290.43,200.41" fill="#FEFFDD" style="stroke:#181818;stroke-width:0.5;"/><path d="M446.7977,200.41 L446.7977,210.41 L456.7977,210.41 L446.7977,200.41" fill="#FEFFDD" style="stroke:#181818;stroke-width:0.5;"/><text fill="#000000" font-family="sans-serif" font-size="13" lengthAdjust="spacing" textLength="87.623" x="296.43" y="217.4769">all user types</text><text fill="#000000" font-family="sans-serif" font-size="13" lengthAdjust="spacing" textLength="145.3677" x="296.43" y="232.6097">including super-admin</text></g><!--entity Create user--><g class="entity" data-entity="Create user" data-source-line="15" data-uid="ent0014" id="entity_Create user"><ellipse cx="668.9943" cy="20.5469" fill="#F1F1F1" rx="60.7343" ry="14.5469" style="stroke:#181818;stroke-width:0.5;"/><text fill="#000000" font-family="sans-serif" font-size="14" lengthAdjust="spacing" textLength="81.8125" x="628.088" y="25.1953">Create user</text></g><!--entity Delete user--><g class="entity" data-entity="Delete user" data-source-line="16" data-uid="ent0016" id="entity_Delete user"><ellipse cx="668.9853" cy="84.5536" fill="#F1F1F1" rx="60.2653" ry="14.5236" style="stroke:#181818;stroke-width:0.5;"/><text fill="#000000" font-family="sans-serif" font-size="14" lengthAdjust="spacing" textLength="80.9854" x="628.4926" y="89.2021">Delete user</text></g><!--entity Reset user password--><g class="entity" data-entity="Reset user password" data-source-line="17" data-uid="ent0018" id="entity_Reset user password"><ellipse cx="668.9899" cy="153.55" fill="#F1F1F1" rx="86.5499" ry="19.71" style="stroke:#181818;stroke-width:0.5;"/><text fill="#000000" font-family="sans-serif" font-size="14" lengthAdjust="spacing" textLength="145.8857" x="596.047" y="158.1984">Reset user password</text></g><!--entity Set user access--><g class="entity" data-entity="Set user access" data-source-line="18" data-uid="ent0020" id="entity_Set user access"><ellipse cx="668.9861" cy="224.5472" fill="#F1F1F1" rx="71.2861" ry="16.6572" style="stroke:#181818;stroke-width:0.5;"/><text fill="#000000" font-family="sans-serif" font-size="14" lengthAdjust="spacing" textLength="109.6006" x="614.1859" y="229.1957">Set user access</text></g><!--entity Manage game--><g class="entity" data-entity="Manage game" data-source-line="20" data-uid="ent0022" id="entity_Manage game"><ellipse cx="668.9912" cy="295.5522" fill="#F1F1F1" rx="67.4112" ry="15.8822" style="stroke:#181818;stroke-width:0.5;"/><text fill="#000000" font-family="sans-serif" font-size="14" lengthAdjust="spacing" textLength="99.7773" x="619.1025" y="300.2007">Manage game</text></g><!--entity Create game--><g class="entity" data-entity="Create game" data-source-line="21" data-uid="ent0024" id="entity_Create game"><ellipse cx="956.0726" cy="192.5545" fill="#F1F1F1" rx="64.0726" ry="15.2145" style="stroke:#181818;stroke-width:0.5;"/><text fill="#000000" font-family="sans-serif" font-size="14" lengthAdjust="spacing" textLength="90.9932" x="910.576" y="197.203">Create game</text></g><!--entity Delete game--><g class="entity" data-entity="Delete game" data-source-line="22" data-uid="ent0026" id="entity_Delete game"><ellipse cx="956.0651" cy="257.553" fill="#F1F1F1" rx="63.7651" ry="15.153" style="stroke:#181818;stroke-width:0.5;"/><text fill="#000000" font-family="sans-serif" font-size="14" lengthAdjust="spacing" textLength="90.166" x="910.9821" y="262.2015">Delete game</text></g><!--entity Allocate user\nas game admin--><g class="entity" data-entity="Allocate user\nas game admin" data-source-line="23" data-uid="ent0028" id="entity_Allocate user\nas game admin"><ellipse cx="956.0721" cy="332.5468" fill="#F1F1F1" rx="76.8921" ry="25.2268" style="stroke:#181818;stroke-width:0.5;"/><text fill="#000000" font-family="sans-serif" font-size="14" lengthAdjust="spacing" textLength="91.2871" x="910.4285" y="327.8643">Allocate user</text><text fill="#000000" font-family="sans-serif" font-size="14" lengthAdjust="spacing" textLength="108.3564" x="901.8939" y="344.1612">as game admin</text></g><!--entity Manage organization--><g class="entity" data-entity="Manage organization" data-source-line="25" data-uid="ent0030" id="entity_Manage organization"><ellipse cx="668.9922" cy="457.5484" fill="#F1F1F1" rx="87.1922" ry="19.8384" style="stroke:#181818;stroke-width:0.5;"/><text fill="#000000" font-family="sans-serif" font-size="14" lengthAdjust="spacing" textLength="147.3555" x="595.3145" y="462.1969">Manage organization</text></g><!--entity Create\norganization--><g class="entity" data-entity="Create\norganization" data-source-line="26" data-uid="ent0032" id="entity_Create\norganization"><ellipse cx="956.0691" cy="416.5453" fill="#F1F1F1" rx="59.4991" ry="24.0953" style="stroke:#181818;stroke-width:0.5;"/><text fill="#000000" font-family="sans-serif" font-size="14" lengthAdjust="spacing" textLength="46.8262" x="932.656" y="410.1434">Create</text><text fill="#000000" font-family="sans-serif" font-size="14" lengthAdjust="spacing" textLength="87.2949" x="912.4216" y="426.4403">organization</text></g><!--entity Delete\norganization--><g class="entity" data-entity="Delete\norganization" data-source-line="27" data-uid="ent0034" id="entity_Delete\norganization"><ellipse cx="956.0693" cy="499.5493" fill="#F1F1F1" rx="59.4293" ry="24.0693" style="stroke:#181818;stroke-width:0.5;"/><text fill="#000000" font-family="sans-serif" font-size="14" lengthAdjust="spacing" textLength="45.999" x="933.0698" y="493.1063">Delete</text><text fill="#000000" font-family="sans-serif" font-size="14" lengthAdjust="spacing" textLength="87.2949" x="912.4218" y="509.4032">organization</text></g><!--entity Allocate user\nto organization--><g class="entity" data-entity="Allocate user\nto organization" data-source-line="28" data-uid="ent0036" id="entity_Allocate user\nto organization"><ellipse cx="956.0716" cy="583.5533" fill="#F1F1F1" rx="75.4616" ry="25.3233" style="stroke:#181818;stroke-width:0.5;"/><text fill="#000000" font-family="sans-serif" font-size="14" lengthAdjust="spacing" textLength="91.2871" x="910.4281" y="579.0122">Allocate user</text><text fill="#000000" font-family="sans-serif" font-size="14" lengthAdjust="spacing" textLength="105.7998" x="903.1717" y="595.3091">to organization</text></g><!--reverse link User to Administrator--><g class="link" data-entity-1="User" data-entity-2="Administrator" data-source-line="4" data-uid="lnk5" id="link_User_Administrator"><path d="M54.3782,268.078 C72.8982,258.958 88.86,251.12 115.88,237.82" fill="none" id="User-backto-Administrator" style="stroke:#181818;stroke-width:1;"/><polygon fill="none" points="38.23,276.03,57.0289,273.4607,51.7275,262.6952,38.23,276.03" style="stroke:#181818;stroke-width:1;"/></g><!--reverse link Administrator to PA--><g class="link" data-entity-1="Administrator" data-entity-2="PA" data-source-line="5" data-uid="lnk6" id="link_Administrator_PA"><path d="M228.7461,244.8901 C255.5361,257.6701 273.28,266.14 303.05,280.35" fill="none" id="Administrator-backto-PA" style="stroke:#181818;stroke-width:1;"/><polygon fill="none" points="212.5,237.14,226.1627,250.3055,231.3295,239.4747,212.5,237.14" style="stroke:#181818;stroke-width:1;"/></g><!--link User to Set password--><g class="link" data-entity-1="User" data-entity-2="Set password" data-source-line="7" data-uid="lnk8" id="link_User_Set password"><path d="M38.23,285.73 C54.84,288.09 76.4203,291.1715 101.4103,294.7415" fill="none" id="User-to-Set password" style="stroke:#181818;stroke-width:1;"/><polygon fill="#181818" points="107.35,295.59,99.0061,290.3574,102.4003,294.8829,97.8748,298.277,107.35,295.59" style="stroke:#181818;stroke-width:1;"/></g><!--link Administrator to User administration--><g class="link" data-entity-1="Administrator" data-entity-2="User administration" data-source-line="9" data-uid="lnk10" id="link_Administrator_User administration"><path d="M212.5,199.03 C246.1,188.02 285.3485,175.1489 319.0585,164.0989" fill="none" id="Administrator-to-User administration" style="stroke:#181818;stroke-width:1;"/><polygon fill="#181818" points="324.76,162.23,314.9618,161.2324,320.0087,163.7874,317.4537,168.8344,324.76,162.23" style="stroke:#181818;stroke-width:1;"/></g><!--link User administration to Create user--><g class="link" data-entity-1="User administration" data-entity-2="Create user" data-source-line="15" data-uid="lnk15" id="link_User administration_Create user"><path d="M404.44,128.69 C426.69,115.78 458.06,98.42 486.79,85.55 C535.29,63.82 587.7267,45.8426 624.8267,33.9426" fill="none" id="User administration-to-Create user" style="stroke:#181818;stroke-width:1;"/><polygon fill="#181818" points="630.54,32.11,620.7484,31.05,625.7789,33.6371,623.1918,38.6677,630.54,32.11" style="stroke:#181818;stroke-width:1;"/><text fill="#000000" font-family="sans-serif" font-size="13" lengthAdjust="spacing" textLength="63.0068" x="487.79" y="56.6169">&#171;include&#187;</text></g><!--link User administration to Delete user--><g class="link" data-entity-1="User administration" data-entity-2="Delete user" data-source-line="16" data-uid="lnk17" id="link_User administration_Delete user"><path d="M435.75,133.62 C491.51,121.84 566.7296,105.9401 616.8596,95.3501" fill="none" id="User administration-to-Delete user" style="stroke:#181818;stroke-width:1;"/><polygon fill="#181818" points="622.73,94.11,613.0976,92.0566,617.838,95.1434,614.7511,99.8838,622.73,94.11" style="stroke:#181818;stroke-width:1;"/><text fill="#000000" font-family="sans-serif" font-size="13" lengthAdjust="spacing" textLength="63.0068" x="487.79" y="106.6169">&#171;include&#187;</text></g><!--link User administration to Reset user password--><g class="link" data-entity-1="User administration" data-entity-2="Reset user password" data-source-line="17" data-uid="lnk19" id="link_User administration_Reset user password"><path d="M456.72,148.51 C495.96,149.44 536.9117,150.4163 576.5717,151.3663" fill="none" id="User administration-to-Reset user password" style="stroke:#181818;stroke-width:1;"/><polygon fill="#181818" points="582.57,151.51,573.6684,147.2956,577.5714,151.3903,573.4768,155.2933,582.57,151.51" style="stroke:#181818;stroke-width:1;"/><text fill="#000000" font-family="sans-serif" font-size="13" lengthAdjust="spacing" textLength="63.0068" x="487.79" y="145.6169">&#171;include&#187;</text></g><!--link User administration to Set user access--><g class="link" data-entity-1="User administration" data-entity-2="Set user access" data-source-line="18" data-uid="lnk21" id="link_User administration_Set user access"><path d="M429.1,161.14 C447.43,166.05 467.99,171.54 486.79,176.55 C532.08,188.6 577.9493,200.7465 614.4893,210.4065" fill="none" id="User administration-to-Set user access" style="stroke:#181818;stroke-width:1;"/><polygon fill="#181818" points="620.29,211.94,612.6113,205.7726,615.4561,210.6621,610.5666,213.5069,620.29,211.94" style="stroke:#181818;stroke-width:1;"/><text fill="#000000" font-family="sans-serif" font-size="13" lengthAdjust="spacing" textLength="63.0068" x="487.79" y="172.6169">&#171;include&#187;</text></g><!--link PA to Manage game--><g class="link" data-entity-1="PA" data-entity-2="Manage game" data-source-line="20" data-uid="lnk23" id="link_PA_Manage game"><path d="M444.51,309.26 C492.64,306.3 550.1512,302.777 597.1512,299.897" fill="none" id="PA-to-Manage game" style="stroke:#181818;stroke-width:1;"/><polygon fill="#181818" points="603.14,299.53,593.9122,296.0879,598.1494,299.8358,594.4015,304.073,603.14,299.53" style="stroke:#181818;stroke-width:1;"/></g><!--link Manage game to Create game--><g class="link" data-entity-1="Manage game" data-entity-2="Create game" data-source-line="21" data-uid="lnk25" id="link_Manage game_Create game"><path d="M702.54,281.43 C731.03,269.15 770.26,252.43 786.18,246.55 C829.49,230.53 874.2826,216.4627 908.7126,206.1427" fill="none" id="Manage game-to-Create game" style="stroke:#181818;stroke-width:1;"/><polygon fill="#181818" points="914.46,204.42,904.6905,203.1725,909.6705,205.8556,906.9874,210.8356,914.46,204.42" style="stroke:#181818;stroke-width:1;"/><text fill="#000000" font-family="sans-serif" font-size="13" lengthAdjust="spacing" textLength="61.1851" x="787.18" y="222.6169">&#171;extend&#187;</text></g><!--link Manage game to Delete game--><g class="link" data-entity-1="Manage game" data-entity-2="Delete game" data-source-line="22" data-uid="lnk27" id="link_Manage game_Delete game"><path d="M728.36,287.77 C778.54,281.08 844.4426,272.2927 893.7326,265.7227" fill="none" id="Manage game-to-Delete game" style="stroke:#181818;stroke-width:1;"/><polygon fill="#181818" points="899.68,264.93,890.2304,262.1542,894.7238,265.5906,891.2874,270.0841,899.68,264.93" style="stroke:#181818;stroke-width:1;"/><text fill="#000000" font-family="sans-serif" font-size="13" lengthAdjust="spacing" textLength="61.1851" x="787.18" y="267.6169">&#171;extend&#187;</text></g><!--link Manage game to Allocate user\nas game admin--><g class="link" data-entity-1="Manage game" data-entity-2="Allocate user\nas game admin" data-source-line="23" data-uid="lnk29" id="link_Manage game_Allocate user\nas game admin"><path d="M720.42,306.22 C740.77,310.23 764.52,314.54 786.18,317.55 C816.94,321.81 845.0498,324.6227 874.4998,327.0227" fill="none" id="Manage game-to-Allocate user\nas game admin" style="stroke:#181818;stroke-width:1;"/><polygon fill="#181818" points="880.48,327.51,871.8346,322.7922,875.4965,327.1039,871.1848,330.7658,880.48,327.51" style="stroke:#181818;stroke-width:1;"/><text fill="#000000" font-family="sans-serif" font-size="13" lengthAdjust="spacing" textLength="61.1851" x="787.18" y="313.6169">&#171;extend&#187;</text></g><!--link PA to Manage organization--><g class="link" data-entity-1="PA" data-entity-2="Manage organization" data-source-line="25" data-uid="lnk31" id="link_PA_Manage organization"><path d="M444.51,347.86 C502.98,376.56 578.734,413.736 625.444,436.666" fill="none" id="PA-to-Manage organization" style="stroke:#181818;stroke-width:1;"/><polygon fill="#181818" points="630.83,439.31,624.5136,431.7533,626.3416,437.1067,620.9883,438.9347,630.83,439.31" style="stroke:#181818;stroke-width:1;"/></g><!--link Manage organization to Create\norganization--><g class="link" data-entity-1="Manage organization" data-entity-2="Create\norganization" data-source-line="26" data-uid="lnk33" id="link_Manage organization_Create\norganization"><path d="M743.77,446.93 C792.44,439.94 849.2311,431.7641 893.6611,425.3741" fill="none" id="Manage organization-to-Create\norganization" style="stroke:#181818;stroke-width:1;"/><polygon fill="#181818" points="899.6,424.52,890.1222,421.842,894.6509,425.2318,891.2611,429.7605,899.6,424.52" style="stroke:#181818;stroke-width:1;"/><text fill="#000000" font-family="sans-serif" font-size="13" lengthAdjust="spacing" textLength="61.1851" x="787.18" y="427.6169">&#171;extend&#187;</text></g><!--link Manage organization to Delete\norganization--><g class="link" data-entity-1="Manage organization" data-entity-2="Delete\norganization" data-source-line="27" data-uid="lnk35" id="link_Manage organization_Delete\norganization"><path d="M743.03,468.31 C791.86,475.5 849.1641,483.9456 893.8341,490.5256" fill="none" id="Manage organization-to-Delete\norganization" style="stroke:#181818;stroke-width:1;"/><polygon fill="#181818" points="899.77,491.4,891.449,486.1311,894.8234,490.6714,890.2832,494.0457,899.77,491.4" style="stroke:#181818;stroke-width:1;"/><text fill="#000000" font-family="sans-serif" font-size="13" lengthAdjust="spacing" textLength="61.1851" x="787.18" y="470.6169">&#171;extend&#187;</text></g><!--link Manage organization to Allocate user\nto organization--><g class="link" data-entity-1="Manage organization" data-entity-2="Allocate user\nto organization" data-source-line="28" data-uid="lnk37" id="link_Manage organization_Allocate user\nto organization"><path d="M710.23,475.33 C762.72,498.53 848.8421,536.5946 903.8921,560.9246" fill="none" id="Manage organization-to-Allocate user\nto organization" style="stroke:#181818;stroke-width:1;"/><polygon fill="#181818" points="909.38,563.35,902.7651,556.0532,904.8067,561.3288,899.5312,563.3704,909.38,563.35" style="stroke:#181818;stroke-width:1;"/><text fill="#000000" font-family="sans-serif" font-size="13" lengthAdjust="spacing" textLength="61.1851" x="787.18" y="504.6169">&#171;extend&#187;</text></g><!--SRC=[dPFBJiGm34Nt_WfhLdJH7q1LfGgsI1KZThCnhIcHCacLkE8XFfwawG1zC89PnZxtnjTjD3y9YaMdkcV1LZbkH5a3iAkj4z9OjKTbb1T7OjqEoMDTmODdXyL7di_RC3ib8D09p_CIh_Ois9FtBzQr6IpuaHXP-gw7OJ8mLXWVhOWz0Y9fZKF4vArd7mhAD7febUdG3psxV9G3cnQZ463JD5rtuvY2TxJBy1gBOZ9ZBCjpkblMV8dkddrOmJZzrnx-ez-VrDGqxFrQ2tMLo3ior35sTEGCPgTPybGPNVXLuixY06jy2lnNlDBQDgVD7apuRM8pPLhfbpDRrv5HxzF7twp-p70myzOlqsteKwZBzOkKuHsTS_e4]--></g></svg>