<svg xmlns="http://www.w3.org/2000/svg" xmlns:xlink="http://www.w3.org/1999/xlink" contentStyleType="text/css" data-diagram-type="DESCRIPTION" height="614px" preserveAspectRatio="none" style="width:1075px;height:614px;background:#FFFFFF;" version="1.1" viewBox="0 0 1075 614" width="1075px" zoomAndPan="magnify"><defs/><g><!--entity PA--><g class="entity" data-entity="PA" data-source-line="3" data-uid="ent0002" id="entity_PA"><ellipse cx="373.6072" cy="283.9" fill="#F1F1F1" rx="8" ry="8" style="stroke:#181818;stroke-width:0.5;"/><path d="M373.6072,291.9 L373.6072,318.9 M360.6072,299.9 L386.6072,299.9 M373.6072,318.9 L360.6072,333.9 M373.6072,318.9 L386.6072,333.9" fill="none" style="stroke:#181818;stroke-width:0.5;"/><text fill="#000000" font-family="sans-serif" font-size="14" lengthAdjust="spacing" textLength="140.8545" x="303.18" y="348.3951">Portal Administrator</text></g><!--entity User--><g class="entity" data-entity="User" data-source-line="4" data-uid="ent0003" id="entity_User"><ellipse cx="21.9551" cy="253.9" fill="#F1F1F1" rx="8" ry="8" style="stroke:#181818;stroke-width:0.5;"/><path d="M21.9551,261.9 L21.9551,288.9 M8.9551,269.9 L34.9551,269.9 M21.9551,288.9 L8.9551,303.9 M21.9551,288.9 L34.9551,303.9" fill="none" style="stroke:#181818;stroke-width:0.5;"/><text fill="#000000" font-family="sans-serif" font-size="14" lengthAdjust="spacing" textLength="31.9102" x="6" y="318.3951">User</text></g><!--entity Administrator--><g class="entity" data-entity="Administrator" data-source-line="4" data-uid="ent0004" id="entity_Administrator"><ellipse cx="164.1713" cy="184.9" fill="#F1F1F1" rx="8" ry="8" style="stroke:#181818;stroke-width:0.5;"/><path d="M164.1713,192.9 L164.1713,219.9 M151.1713,200.9 L177.1713,200.9 M164.1713,219.9 L151.1713,234.9 M164.1713,219.9 L177.1713,234.9" fill="none" style="stroke:#181818;stroke-width:0.5;"/><text fill="#000000" font-family="sans-serif" font-size="14" lengthAdjust="spacing" textLength="95.6826" x="116.33" y="249.3951">Administrator</text></g><!--entity Set password--><g class="entity" data-entity="Set password" data-source-line="7" data-uid="ent0007" id="entity_Set password"><ellipse cx="164.1679" cy="303.5516" fill="#F1F1F1" rx="65.2579" ry="15.4516" style="stroke:#181818;stroke-width:0.5;"/><text fill="#000000" font-family="sans-serif" font-size="14" lengthAdjust="spacing" textLength="94.1514" x="117.0922" y="308.2">Set password</text></g><!--entity User administration--><g class="entity" data-entity="User administration" data-source-line="9" data-uid="ent0009" id="entity_User administration"><ellipse cx="373.613" cy="146.5506" fill="#F1F1F1" rx="83.153" ry="19.0306" style="stroke:#181818;stroke-width:0.5;"/><text fill="#000000" font-family="sans-serif" font-size="14" lengthAdjust="spacing" textLength="138.0518" x="304.5871" y="151.199">User administration</text></g><g class="entity" data-entity="GMN11" data-source-line="11" data-uid="ent0012" id="entity_GMN11"><path d="M290.43,200.42 L290.43,240.6856 A0,0 0 0 0 290.43,240.6856 L456.7977,240.6856 A0,0 0 0 0 456.7977,240.6856 L456.7977,210.42 L446.7977,200.42 L377.61,200.42 L373.61,165.77 L369.61,200.42 L290.43,200.42 A0,0 0 0 0 290.43,200.42" fill="#FEFFDD" style="stroke:#181818;stroke-width:0.5;"/><path d="M446.7977,200.42 L446.7977,210.42 L456.7977,210.42 L446.7977,200.42" fill="#FEFFDD" style="stroke:#181818;stroke-width:0.5;"/><text fill="#000000" font-family="sans-serif" font-size="13" lengthAdjust="spacing" textLength="87.623" x="296.43" y="217.4869">all user types</text><text fill="#000000" font-family="sans-serif" font-size="13" lengthAdjust="spacing" textLength="145.3677" x="296.43" y="232.6197">including super-admin</text></g><!--entity Create user--><g class="entity" data-entity="Create user" data-source-line="15" data-uid="ent0014" id="entity_Create user"><ellipse cx="668.9943" cy="20.5469" fill="#F1F1F1" rx="60.7343" ry="14.5469" style="stroke:#181818;stroke-width:0.5;"/><text fill="#000000" font-family="sans-serif" font-size="14" lengthAdjust="spacing" textLength="81.8125" x="628.088" y="25.1953">Create user</text></g><!--entity Delete user--><g class="entity" data-entity="Delete user" data-source-line="16" data-uid="ent0016" id="entity_Delete user"><ellipse cx="668.9853" cy="84.5536" fill="#F1F1F1" rx="60.2653" ry="14.5236" style="stroke:#181818;stroke-width:0.5;"/><text fill="#000000" font-family="sans-serif" font-size="14" lengthAdjust="spacing" textLength="80.9854" x="628.4926" y="89.2021">Delete user</text></g><!--entity Reset user password--><g class="entity" data-entity="Reset user password" data-source-line="17" data-uid="ent0018" id="entity_Reset user password"><ellipse cx="668.9899" cy="153.55" fill="#F1F1F1" rx="86.5499" ry="19.71" style="stroke:#181818;stroke-width:0.5;"/><text fill="#000000" font-family="sans-serif" font-size="14" lengthAdjust="spacing" textLength="145.8857" x="596.047" y="158.1984">Reset user password</text></g><!--entity Set user access--><g class="entity" data-entity="Set user access" data-source-line="18" data-uid="ent0020" id="entity_Set user access"><ellipse cx="668.9861" cy="224.5472" fill="#F1F1F1" rx="71.2861" ry="16.6572" style="stroke:#181818;stroke-width:0.5;"/><text fill="#000000" font-family="sans-serif" font-size="14" lengthAdjust="spacing" textLength="109.6006" x="614.1859" y="229.1957">Set user access</text></g><!--entity Manage game--><g class="entity" data-entity="Manage game" data-source-line="20" data-uid="ent0022" id="entity_Manage game"><ellipse cx="668.9912" cy="295.5522" fill="#F1F1F1" rx="67.4112" ry="15.8822" style="stroke:#181818;stroke-width:0.5;"/><text fill="#000000" font-family="sans-serif" font-size="14" lengthAdjust="spacing" textLength="99.7773" x="619.1025" y="300.2007">Manage game</text></g><!--entity Create game--><g class="entity" data-entity="Create game" data-source-line="21" data-uid="ent0024" id="entity_Create game"><ellipse cx="974.2826" cy="192.5545" fill="#F1F1F1" rx="64.0726" ry="15.2145" style="stroke:#181818;stroke-width:0.5;"/><text fill="#000000" font-family="sans-serif" font-size="14" lengthAdjust="spacing" textLength="90.9932" x="928.786" y="197.203">Create game</text></g><!--entity Delete game--><g class="entity" data-entity="Delete game" data-source-line="22" data-uid="ent0026" id="entity_Delete game"><ellipse cx="974.2751" cy="257.553" fill="#F1F1F1" rx="63.7651" ry="15.153" style="stroke:#181818;stroke-width:0.5;"/><text fill="#000000" font-family="sans-serif" font-size="14" lengthAdjust="spacing" textLength="90.166" x="929.1921" y="262.2015">Delete game</text></g><!--entity Allocate user\nas game admin--><g class="entity" data-entity="Allocate user\nas game admin" data-source-line="23" data-uid="ent0028" id="entity_Allocate user\nas game admin"><ellipse cx="974.2821" cy="332.5468" fill="#F1F1F1" rx="76.8921" ry="25.2268" style="stroke:#181818;stroke-width:0.5;"/><text fill="#000000" font-family="sans-serif" font-size="14" lengthAdjust="spacing" textLength="91.2871" x="928.6385" y="327.8643">Allocate user</text><text fill="#000000" font-family="sans-serif" font-size="14" lengthAdjust="spacing" textLength="108.3564" x="920.1039" y="344.1612">as game admin</text></g><!--entity Manage organization--><g class="entity" data-entity="Manage organization" data-source-line="25" data-uid="ent0030" id="entity_Manage organization"><ellipse cx="668.9922" cy="457.5484" fill="#F1F1F1" rx="87.1922" ry="19.8384" style="stroke:#181818;stroke-width:0.5;"/><text fill="#000000" font-family="sans-serif" font-size="14" lengthAdjust="spacing" textLength="147.3555" x="595.3145" y="462.1969">Manage organization</text></g><!--entity Create\norganization--><g class="entity" data-entity="Create\norganization" data-source-line="26" data-uid="ent0032" id="entity_Create\norganization"><ellipse cx="974.2791" cy="416.5453" fill="#F1F1F1" rx="59.4991" ry="24.0953" style="stroke:#181818;stroke-width:0.5;"/><text fill="#000000" font-family="sans-serif" font-size="14" lengthAdjust="spacing" textLength="46.8262" x="950.866" y="410.1434">Create</text><text fill="#000000" font-family="sans-serif" font-size="14" lengthAdjust="spacing" textLength="87.2949" x="930.6316" y="426.4403">organization</text></g><!--entity Delete\norganization--><g class="entity" data-entity="Delete\norganization" data-source-line="27" data-uid="ent0034" id="entity_Delete\norganization"><ellipse cx="974.2793" cy="499.5493" fill="#F1F1F1" rx="59.4293" ry="24.0693" style="stroke:#181818;stroke-width:0.5;"/><text fill="#000000" font-family="sans-serif" font-size="14" lengthAdjust="spacing" textLength="45.999" x="951.2798" y="493.1063">Delete</text><text fill="#000000" font-family="sans-serif" font-size="14" lengthAdjust="spacing" textLength="87.2949" x="930.6318" y="509.4032">organization</text></g><!--entity Allocate user as\norganization admin--><g class="entity" data-entity="Allocate user as\norganization admin" data-source-line="28" data-uid="ent0036" id="entity_Allocate user as\norganization admin"><ellipse cx="974.2756" cy="583.5473" fill="#F1F1F1" rx="95.1056" ry="25.1373" style="stroke:#181818;stroke-width:0.5;"/><text fill="#000000" font-family="sans-serif" font-size="14" lengthAdjust="spacing" textLength="111.6104" x="918.4704" y="578.7328">Allocate user as</text><text fill="#000000" font-family="sans-serif" font-size="14" lengthAdjust="spacing" textLength="135.6113" x="906.4699" y="595.0296">organization admin</text></g><!--reverse link User to Administrator--><g class="link" data-entity-1="User" data-entity-2="Administrator" data-source-line="4" data-uid="lnk5" id="link_User_Administrator"><path d="M54.3782,268.088 C72.8982,258.968 88.86,251.12 115.88,237.82" fill="none" id="User-backto-Administrator" style="stroke:#181818;stroke-width:1;"/><polygon fill="none" points="38.23,276.04,57.0289,273.4707,51.7275,262.7052,38.23,276.04" style="stroke:#181818;stroke-width:1;"/></g><!--reverse link Administrator to PA--><g class="link" data-entity-1="Administrator" data-entity-2="PA" data-source-line="5" data-uid="lnk6" id="link_Administrator_PA"><path d="M228.7461,244.8901 C255.5361,257.6701 273.28,266.15 303.05,280.35" fill="none" id="Administrator-backto-PA" style="stroke:#181818;stroke-width:1;"/><polygon fill="none" points="212.5,237.14,226.1627,250.3055,231.3295,239.4747,212.5,237.14" style="stroke:#181818;stroke-width:1;"/></g><!--link User to Set password--><g class="link" data-entity-1="User" data-entity-2="Set password" data-source-line="7" data-uid="lnk8" id="link_User_Set password"><path d="M38.23,285.73 C54.84,288.1 76.42,291.1838 101.41,294.7438" fill="none" id="User-to-Set password" style="stroke:#181818;stroke-width:1;"/><polygon fill="#181818" points="107.35,295.59,99.0041,290.3607,102.4,294.8848,97.8758,298.2807,107.35,295.59" style="stroke:#181818;stroke-width:1;"/></g><!--link Administrator to User administration--><g class="link" data-entity-1="Administrator" data-entity-2="User administration" data-source-line="9" data-uid="lnk10" id="link_Administrator_User administration"><path d="M212.5,199.04 C246.1,188.02 285.3485,175.1589 319.0585,164.1089" fill="none" id="Administrator-to-User administration" style="stroke:#181818;stroke-width:1;"/><polygon fill="#181818" points="324.76,162.24,314.9618,161.2424,320.0087,163.7974,317.4537,168.8444,324.76,162.24" style="stroke:#181818;stroke-width:1;"/></g><!--link User administration to Create user--><g class="link" data-entity-1="User administration" data-entity-2="Create user" data-source-line="15" data-uid="lnk15" id="link_User administration_Create user"><path d="M404.44,128.69 C426.69,115.79 458.06,98.42 486.79,85.55 C535.29,63.83 587.7263,45.8412 624.8263,33.9512" fill="none" id="User administration-to-Create user" style="stroke:#181818;stroke-width:1;"/><polygon fill="#181818" points="630.54,32.12,620.7486,31.0576,625.7786,33.646,623.1902,38.6759,630.54,32.12" style="stroke:#181818;stroke-width:1;"/><text fill="#000000" font-family="sans-serif" font-size="13" lengthAdjust="spacing" textLength="63.0068" x="487.79" y="56.6169">&#171;include&#187;</text></g><!--link User administration to Delete user--><g class="link" data-entity-1="User administration" data-entity-2="Delete user" data-source-line="16" data-uid="lnk17" id="link_User administration_Delete user"><path d="M435.75,133.63 C491.51,121.85 566.7296,105.9501 616.8596,95.3601" fill="none" id="User administration-to-Delete user" style="stroke:#181818;stroke-width:1;"/><polygon fill="#181818" points="622.73,94.12,613.0976,92.0666,617.838,95.1534,614.7511,99.8938,622.73,94.12" style="stroke:#181818;stroke-width:1;"/><text fill="#000000" font-family="sans-serif" font-size="13" lengthAdjust="spacing" textLength="63.0068" x="487.79" y="106.6169">&#171;include&#187;</text></g><!--link User administration to Reset user password--><g class="link" data-entity-1="User administration" data-entity-2="Reset user password" data-source-line="17" data-uid="lnk19" id="link_User administration_Reset user password"><path d="M456.72,148.51 C495.96,149.45 536.9117,150.4278 576.5717,151.3678" fill="none" id="User administration-to-Reset user password" style="stroke:#181818;stroke-width:1;"/><polygon fill="#181818" points="582.57,151.51,573.6673,147.2979,577.5714,151.3915,573.4777,155.2956,582.57,151.51" style="stroke:#181818;stroke-width:1;"/><text fill="#000000" font-family="sans-serif" font-size="13" lengthAdjust="spacing" textLength="63.0068" x="487.79" y="145.6169">&#171;include&#187;</text></g><!--link User administration to Set user access--><g class="link" data-entity-1="User administration" data-entity-2="Set user access" data-source-line="18" data-uid="lnk21" id="link_User administration_Set user access"><path d="M429.1,161.15 C447.43,166.05 467.99,171.55 486.79,176.55 C532.08,188.61 577.9493,200.7565 614.4893,210.4165" fill="none" id="User administration-to-Set user access" style="stroke:#181818;stroke-width:1;"/><polygon fill="#181818" points="620.29,211.95,612.6113,205.7826,615.4561,210.6721,610.5666,213.5169,620.29,211.95" style="stroke:#181818;stroke-width:1;"/><text fill="#000000" font-family="sans-serif" font-size="13" lengthAdjust="spacing" textLength="63.0068" x="487.79" y="172.6169">&#171;include&#187;</text></g><!--link PA to Manage game--><g class="link" data-entity-1="PA" data-entity-2="Manage game" data-source-line="20" data-uid="lnk23" id="link_PA_Manage game"><path d="M444.51,309.26 C492.64,306.31 550.1513,302.7882 597.1513,299.8982" fill="none" id="PA-to-Manage game" style="stroke:#181818;stroke-width:1;"/><polygon fill="#181818" points="603.14,299.53,593.9115,296.0899,598.1494,299.8369,594.4025,304.0748,603.14,299.53" style="stroke:#181818;stroke-width:1;"/></g><!--link Manage game to Create game--><g class="link" data-entity-1="Manage game" data-entity-2="Create game" data-source-line="21" data-uid="lnk25" id="link_Manage game_Create game"><path d="M701.69,281.39 C724.85,271.3 757.15,257.78 786.18,247.55 C834.88,230.39 886.1578,215.7252 924.3478,205.4052" fill="none" id="Manage game-to-Create game" style="stroke:#181818;stroke-width:1;"/><polygon fill="#181818" points="930.14,203.84,920.4082,202.3263,925.3131,205.1444,922.4951,210.0493,930.14,203.84" style="stroke:#181818;stroke-width:1;"/><text fill="#000000" font-family="sans-serif" font-size="13" lengthAdjust="spacing" textLength="61.1851" x="787.18" y="224.6169">&#171;extend&#187;</text></g><!--link Manage game to Delete game--><g class="link" data-entity-1="Manage game" data-entity-2="Delete game" data-source-line="22" data-uid="lnk27" id="link_Manage game_Delete game"><path d="M729.18,288.14 C783.57,281.32 857.6665,272.0354 911.0965,265.3454" fill="none" id="Manage game-to-Delete game" style="stroke:#181818;stroke-width:1;"/><polygon fill="#181818" points="917.05,264.6,907.6228,261.7492,912.0887,265.2212,908.6167,269.6872,917.05,264.6" style="stroke:#181818;stroke-width:1;"/><text fill="#000000" font-family="sans-serif" font-size="13" lengthAdjust="spacing" textLength="61.1851" x="787.18" y="268.6169">&#171;extend&#187;</text></g><!--link Manage game to Allocate user\nas game admin--><g class="link" data-entity-1="Manage game" data-entity-2="Allocate user\nas game admin" data-source-line="23" data-uid="lnk29" id="link_Manage game_Allocate user\nas game admin"><path d="M720.12,306.26 C740.54,310.3 764.41,314.63 786.18,317.55 C822.84,322.48 857.7845,325.5636 891.9945,327.9436" fill="none" id="Manage game-to-Allocate user\nas game admin" style="stroke:#181818;stroke-width:1;"/><polygon fill="#181818" points="897.98,328.36,889.2793,323.745,892.9921,328.013,888.7241,331.7257,897.98,328.36" style="stroke:#181818;stroke-width:1;"/><text fill="#000000" font-family="sans-serif" font-size="13" lengthAdjust="spacing" textLength="61.1851" x="787.18" y="313.6169">&#171;extend&#187;</text></g><!--link PA to Manage organization--><g class="link" data-entity-1="PA" data-entity-2="Manage organization" data-source-line="25" data-uid="lnk31" id="link_PA_Manage organization"><path d="M444.51,347.86 C502.98,376.56 578.734,413.746 625.444,436.676" fill="none" id="PA-to-Manage organization" style="stroke:#181818;stroke-width:1;"/><polygon fill="#181818" points="630.83,439.32,624.5136,431.7633,626.3416,437.1167,620.9883,438.9447,630.83,439.32" style="stroke:#181818;stroke-width:1;"/></g><!--link Manage organization to Create\norganization--><g class="link" data-entity-1="Manage organization" data-entity-2="Create\norganization" data-source-line="26" data-uid="lnk33" id="link_Manage organization_Create\norganization"><path d="M744.96,447.42 C798.29,440.21 862.834,431.4833 911.314,424.9333" fill="none" id="Manage organization-to-Create\norganization" style="stroke:#181818;stroke-width:1;"/><polygon fill="#181818" points="917.26,424.13,907.8055,421.371,912.305,424.7995,908.8766,429.299,917.26,424.13" style="stroke:#181818;stroke-width:1;"/><text fill="#000000" font-family="sans-serif" font-size="13" lengthAdjust="spacing" textLength="61.1851" x="787.18" y="428.6169">&#171;extend&#187;</text></g><!--link Manage organization to Delete\norganization--><g class="link" data-entity-1="Manage organization" data-entity-2="Delete\norganization" data-source-line="27" data-uid="lnk35" id="link_Manage organization_Delete\norganization"><path d="M744.18,467.83 C797.67,475.23 862.7868,484.2466 911.5068,490.9966" fill="none" id="Manage organization-to-Delete\norganization" style="stroke:#181818;stroke-width:1;"/><polygon fill="#181818" points="917.45,491.82,909.0841,486.6227,912.4973,491.1338,907.9862,494.547,917.45,491.82" style="stroke:#181818;stroke-width:1;"/><text fill="#000000" font-family="sans-serif" font-size="13" lengthAdjust="spacing" textLength="61.1851" x="787.18" y="470.6169">&#171;extend&#187;</text></g><!--link Manage organization to Allocate user as\norganization admin--><g class="link" data-entity-1="Manage organization" data-entity-2="Allocate user as\norganization admin" data-source-line="28" data-uid="lnk37" id="link_Manage organization_Allocate user as\norganization admin"><path d="M711.63,475.22 C733.75,484.58 761.42,496.24 786.18,506.55 C831.74,525.53 878.098,544.5951 915.658,559.9851" fill="none" id="Manage organization-to-Allocate user as\norganization admin" style="stroke:#181818;stroke-width:1;"/><polygon fill="#181818" points="921.21,562.26,914.3986,555.1463,916.5833,560.3642,911.3654,562.549,921.21,562.26" style="stroke:#181818;stroke-width:1;"/><text fill="#000000" font-family="sans-serif" font-size="13" lengthAdjust="spacing" textLength="61.1851" x="787.18" y="502.6169">&#171;extend&#187;</text></g><!--SRC=[dPFFJeGm4CRlynIJFSc15p24XEZLXBZPsrv66B59QKaxn3_nuIsKLRkWqJrsvlTzdM-WcXy5nQ9JtPDWgnmtegm1sDNM2McisbuPvSMHMBT3ybXNSF3ii7ZFyxGDoIa2WOvudfTujMV1WRn_jgxDu8oVYPcbhteO9WDZXV71YjWU44bh72TCNWVseQ1CeyTMcGxzEB3BPpcmQN4I0coQnkjk75FmdkmolCQYMCmOo_8ttIrhlaHtppwiO9x-Sm__qUzFQceQzdwjXRgAv1qPwXWxwZc3v9GaZvNPXLzasjaqm1fV0lyLhxIspMcpHnD-cwaPCwtqvpDRrv5HRyl7twn-pt0qQUk7wJRqCTJb-YHbU1kfqtRQ3m00]--></g></svg>