<svg xmlns="http://www.w3.org/2000/svg" xmlns:xlink="http://www.w3.org/1999/xlink" contentStyleType="text/css" data-diagram-type="DESCRIPTION" height="656px" preserveAspectRatio="none" style="width:755px;height:656px;background:#FFFFFF;" version="1.1" viewBox="0 0 755 656" width="755px" zoomAndPan="magnify"><defs/><g><!--entity PA--><g class="entity" data-entity="PA" data-source-line="3" data-uid="ent0002" id="entity_PA"><ellipse cx="169.3372" cy="213.56" fill="#F1F1F1" rx="8" ry="8" style="stroke:#181818;stroke-width:0.5;"/><path d="M169.3372,221.56 L169.3372,248.56 M156.3372,229.56 L182.3372,229.56 M169.3372,248.56 L156.3372,263.56 M169.3372,248.56 L182.3372,263.56" fill="none" style="stroke:#181818;stroke-width:0.5;"/><text fill="#000000" font-family="sans-serif" font-size="14" lengthAdjust="spacing" textLength="140.8545" x="98.91" y="278.0551">Portal Administrator</text></g><!--entity User--><g class="entity" data-entity="User" data-source-line="4" data-uid="ent0003" id="entity_User"><ellipse cx="21.9551" cy="282.56" fill="#F1F1F1" rx="8" ry="8" style="stroke:#181818;stroke-width:0.5;"/><path d="M21.9551,290.56 L21.9551,317.56 M8.9551,298.56 L34.9551,298.56 M21.9551,317.56 L8.9551,332.56 M21.9551,317.56 L34.9551,332.56" fill="none" style="stroke:#181818;stroke-width:0.5;"/><text fill="#000000" font-family="sans-serif" font-size="14" lengthAdjust="spacing" textLength="31.9102" x="6" y="347.0551">User</text></g><!--entity Set password--><g class="entity" data-entity="Set password" data-source-line="6" data-uid="ent0005" id="entity_Set password"><ellipse cx="169.3379" cy="332.2116" fill="#F1F1F1" rx="65.2579" ry="15.4516" style="stroke:#181818;stroke-width:0.5;"/><text fill="#000000" font-family="sans-serif" font-size="14" lengthAdjust="spacing" textLength="94.1514" x="122.2622" y="336.86">Set password</text></g><!--entity Manage game--><g class="entity" data-entity="Manage game" data-source-line="8" data-uid="ent0007" id="entity_Manage game"><ellipse cx="387.9612" cy="86.2122" fill="#F1F1F1" rx="67.4112" ry="15.8822" style="stroke:#181818;stroke-width:0.5;"/><text fill="#000000" font-family="sans-serif" font-size="14" lengthAdjust="spacing" textLength="99.7773" x="338.0725" y="90.8607">Manage game</text></g><!--entity Create game--><g class="entity" data-entity="Create game" data-source-line="9" data-uid="ent0009" id="entity_Create game"><ellipse cx="673.6126" cy="21.2145" fill="#F1F1F1" rx="64.0726" ry="15.2145" style="stroke:#181818;stroke-width:0.5;"/><text fill="#000000" font-family="sans-serif" font-size="14" lengthAdjust="spacing" textLength="90.9932" x="628.116" y="25.863">Create game</text></g><!--entity Delete game--><g class="entity" data-entity="Delete game" data-source-line="10" data-uid="ent0011" id="entity_Delete game"><ellipse cx="673.6051" cy="86.213" fill="#F1F1F1" rx="63.7651" ry="15.153" style="stroke:#181818;stroke-width:0.5;"/><text fill="#000000" font-family="sans-serif" font-size="14" lengthAdjust="spacing" textLength="90.166" x="628.5221" y="90.8615">Delete game</text></g><!--entity Manage organization--><g class="entity" data-entity="Manage organization" data-source-line="12" data-uid="ent0013" id="entity_Manage organization"><ellipse cx="387.9622" cy="243.2084" fill="#F1F1F1" rx="87.1922" ry="19.8384" style="stroke:#181818;stroke-width:0.5;"/><text fill="#000000" font-family="sans-serif" font-size="14" lengthAdjust="spacing" textLength="147.3555" x="314.2845" y="247.8569">Manage organization</text></g><!--entity Create\norganization--><g class="entity" data-entity="Create\norganization" data-source-line="13" data-uid="ent0015" id="entity_Create\norganization"><ellipse cx="673.6091" cy="160.2053" fill="#F1F1F1" rx="59.4991" ry="24.0953" style="stroke:#181818;stroke-width:0.5;"/><text fill="#000000" font-family="sans-serif" font-size="14" lengthAdjust="spacing" textLength="46.8262" x="650.196" y="153.8034">Create</text><text fill="#000000" font-family="sans-serif" font-size="14" lengthAdjust="spacing" textLength="87.2949" x="629.9616" y="170.1003">organization</text></g><!--entity Delete\norganization--><g class="entity" data-entity="Delete\norganization" data-source-line="14" data-uid="ent0017" id="entity_Delete\norganization"><ellipse cx="673.6093" cy="243.2093" fill="#F1F1F1" rx="59.4293" ry="24.0693" style="stroke:#181818;stroke-width:0.5;"/><text fill="#000000" font-family="sans-serif" font-size="14" lengthAdjust="spacing" textLength="45.999" x="650.6098" y="236.7663">Delete</text><text fill="#000000" font-family="sans-serif" font-size="14" lengthAdjust="spacing" textLength="87.2949" x="629.9618" y="253.0632">organization</text></g><!--entity Allocate user\nto organization--><g class="entity" data-entity="Allocate user\nto organization" data-source-line="15" data-uid="ent0019" id="entity_Allocate user\nto organization"><ellipse cx="673.6116" cy="327.2133" fill="#F1F1F1" rx="75.4616" ry="25.3233" style="stroke:#181818;stroke-width:0.5;"/><text fill="#000000" font-family="sans-serif" font-size="14" lengthAdjust="spacing" textLength="91.2871" x="627.9681" y="322.6722">Allocate user</text><text fill="#000000" font-family="sans-serif" font-size="14" lengthAdjust="spacing" textLength="105.7998" x="620.7117" y="338.9691">to organization</text></g><!--entity Manage user--><g class="entity" data-entity="Manage user" data-source-line="17" data-uid="ent0021" id="entity_Manage user"><ellipse cx="387.9551" cy="466.205" fill="#F1F1F1" rx="63.9251" ry="15.185" style="stroke:#181818;stroke-width:0.5;"/><text fill="#000000" font-family="sans-serif" font-size="14" lengthAdjust="spacing" textLength="90.5967" x="342.6567" y="470.8535">Manage user</text></g><!--entity Create user--><g class="entity" data-entity="Create user" data-source-line="18" data-uid="ent0023" id="entity_Create user"><ellipse cx="673.6143" cy="402.2069" fill="#F1F1F1" rx="60.7343" ry="14.5469" style="stroke:#181818;stroke-width:0.5;"/><text fill="#000000" font-family="sans-serif" font-size="14" lengthAdjust="spacing" textLength="81.8125" x="632.708" y="406.8553">Create user</text></g><!--entity Delete user--><g class="entity" data-entity="Delete user" data-source-line="19" data-uid="ent0025" id="entity_Delete user"><ellipse cx="673.6053" cy="466.2136" fill="#F1F1F1" rx="60.2653" ry="14.5236" style="stroke:#181818;stroke-width:0.5;"/><text fill="#000000" font-family="sans-serif" font-size="14" lengthAdjust="spacing" textLength="80.9854" x="633.1126" y="470.8621">Delete user</text></g><!--entity Reset\npassword--><g class="entity" data-entity="Reset\npassword" data-source-line="20" data-uid="ent0027" id="entity_Reset\npassword"><ellipse cx="673.6146" cy="540.2099" fill="#F1F1F1" rx="46.5346" ry="24.2699" style="stroke:#181818;stroke-width:0.5;"/><text fill="#000000" font-family="sans-serif" font-size="14" lengthAdjust="spacing" textLength="39.7373" x="653.7459" y="534.0812">Reset</text><text fill="#000000" font-family="sans-serif" font-size="14" lengthAdjust="spacing" textLength="66.7119" x="640.2586" y="550.3781">password</text></g><!--entity Change\naccess--><g class="entity" data-entity="Change\naccess" data-source-line="21" data-uid="ent0029" id="entity_Change\naccess"><ellipse cx="673.609" cy="625.2073" fill="#F1F1F1" rx="39.849" ry="25.4073" style="stroke:#181818;stroke-width:0.5;"/><text fill="#000000" font-family="sans-serif" font-size="14" lengthAdjust="spacing" textLength="53.6006" x="646.8087" y="622.6256">Change</text><text fill="#000000" font-family="sans-serif" font-size="14" lengthAdjust="spacing" textLength="47.1748" x="650.0216" y="638.9225">access</text></g><!--reverse link User to PA--><g class="link" data-entity-1="User" data-entity-2="PA" data-source-line="4" data-uid="lnk4" id="link_User_PA"><path d="M54.5014,297.242 C69.0814,290.322 75.86,287.1 98.53,276.35" fill="none" id="User-backto-PA" style="stroke:#181818;stroke-width:1;"/><polygon fill="none" points="38.24,304.96,57.074,302.6624,51.9287,291.8215,38.24,304.96" style="stroke:#181818;stroke-width:1;"/></g><!--link User to Set password--><g class="link" data-entity-1="User" data-entity-2="Set password" data-source-line="6" data-uid="lnk6" id="link_User_Set password"><path d="M38.24,314.32 C55.74,316.72 79.4757,319.994 106.0657,323.644" fill="none" id="User-to-Set password" style="stroke:#181818;stroke-width:1;"/><polygon fill="#181818" points="112.01,324.46,103.6376,319.2732,107.0565,323.78,102.5496,327.1989,112.01,324.46" style="stroke:#181818;stroke-width:1;"/></g><!--link PA to Manage game--><g class="link" data-entity-1="PA" data-entity-2="Manage game" data-source-line="8" data-uid="lnk8" id="link_PA_Manage game"><path d="M223.61,204.61 C269.46,171.37 328.3713,128.6704 361.0113,105.0204" fill="none" id="PA-to-Manage game" style="stroke:#181818;stroke-width:1;"/><polygon fill="#181818" points="365.87,101.5,356.2351,103.5416,361.8211,104.4337,360.929,110.0198,365.87,101.5" style="stroke:#181818;stroke-width:1;"/></g><!--link Manage game to Create game--><g class="link" data-entity-1="Manage game" data-entity-2="Create game" data-source-line="9" data-uid="lnk10" id="link_Manage game_Create game"><path d="M437.4,75.11 C490.25,63 568.3914,45.0893 620.4014,33.1793" fill="none" id="Manage game-to-Create game" style="stroke:#181818;stroke-width:1;"/><polygon fill="#181818" points="626.25,31.84,616.5842,29.9499,621.3762,32.9561,618.3699,37.748,626.25,31.84" style="stroke:#181818;stroke-width:1;"/><text fill="#000000" font-family="sans-serif" font-size="13" lengthAdjust="spacing" textLength="61.1851" x="506.15" y="42.2769">&#171;extend&#187;</text></g><!--link Manage game to Delete game--><g class="link" data-entity-1="Manage game" data-entity-2="Delete game" data-source-line="10" data-uid="lnk12" id="link_Manage game_Delete game"><path d="M455.82,86.21 C502.34,86.21 557.95,86.21 603.6,86.21" fill="none" id="Manage game-to-Delete game" style="stroke:#181818;stroke-width:1;"/><polygon fill="#181818" points="609.6,86.21,600.6,82.21,604.6,86.21,600.6,90.21,609.6,86.21" style="stroke:#181818;stroke-width:1;"/><text fill="#000000" font-family="sans-serif" font-size="13" lengthAdjust="spacing" textLength="61.1851" x="506.15" y="82.2769">&#171;extend&#187;</text></g><!--link PA to Manage organization--><g class="link" data-entity-1="PA" data-entity-2="Manage organization" data-source-line="12" data-uid="lnk14" id="link_PA_Manage organization"><path d="M240.07,243.21 C259.24,243.21 274.27,243.21 294.27,243.21" fill="none" id="PA-to-Manage organization" style="stroke:#181818;stroke-width:1;"/><polygon fill="#181818" points="300.27,243.21,291.27,239.21,295.27,243.21,291.27,247.21,300.27,243.21" style="stroke:#181818;stroke-width:1;"/></g><!--link Manage organization to Create\norganization--><g class="link" data-entity-1="Manage organization" data-entity-2="Create\norganization" data-source-line="13" data-uid="lnk16" id="link_Manage organization_Create\norganization"><path d="M442.98,227.41 C495.38,212.07 568.3914,190.7049 618.7014,175.9849" fill="none" id="Manage organization-to-Create\norganization" style="stroke:#181818;stroke-width:1;"/><polygon fill="#181818" points="624.46,174.3,614.6989,172.9883,619.6612,175.7041,616.9454,180.6664,624.46,174.3" style="stroke:#181818;stroke-width:1;"/><text fill="#000000" font-family="sans-serif" font-size="13" lengthAdjust="spacing" textLength="61.1851" x="506.15" y="188.2769">&#171;extend&#187;</text></g><!--link Manage organization to Delete\norganization--><g class="link" data-entity-1="Manage organization" data-entity-2="Delete\norganization" data-source-line="14" data-uid="lnk18" id="link_Manage organization_Delete\norganization"><path d="M475.6,243.21 C520.41,243.21 567.92,243.21 607.85,243.21" fill="none" id="Manage organization-to-Delete\norganization" style="stroke:#181818;stroke-width:1;"/><polygon fill="#181818" points="613.85,243.21,604.85,239.21,608.85,243.21,604.85,247.21,613.85,243.21" style="stroke:#181818;stroke-width:1;"/><text fill="#000000" font-family="sans-serif" font-size="13" lengthAdjust="spacing" textLength="61.1851" x="506.15" y="239.2769">&#171;extend&#187;</text></g><!--link Manage organization to Allocate user\nto organization--><g class="link" data-entity-1="Manage organization" data-entity-2="Allocate user\nto organization" data-source-line="15" data-uid="lnk20" id="link_Manage organization_Allocate user\nto organization"><path d="M442.64,259.11 C492.27,273.81 560.0071,293.8659 610.4771,308.8159" fill="none" id="Manage organization-to-Allocate user\nto organization" style="stroke:#181818;stroke-width:1;"/><polygon fill="#181818" points="616.23,310.52,608.7367,304.1286,611.4359,309.0999,606.4646,311.7991,616.23,310.52" style="stroke:#181818;stroke-width:1;"/><text fill="#000000" font-family="sans-serif" font-size="13" lengthAdjust="spacing" textLength="61.1851" x="506.15" y="274.2769">&#171;extend&#187;</text></g><!--link PA to Manage user--><g class="link" data-entity-1="PA" data-entity-2="Manage user" data-source-line="17" data-uid="lnk22" id="link_PA_Manage user"><path d="M220.15,281.68 C226.9,287.38 233.61,293.32 239.76,299.21 C294.2,351.33 347.3757,416.2437 371.4057,446.4637" fill="none" id="PA-to-Manage user" style="stroke:#181818;stroke-width:1;"/><polygon fill="#181818" points="375.14,451.16,372.6694,441.6261,372.0281,447.2464,366.4077,446.6052,375.14,451.16" style="stroke:#181818;stroke-width:1;"/></g><!--link Manage user to Create user--><g class="link" data-entity-1="Manage user" data-entity-2="Create user" data-source-line="18" data-uid="lnk24" id="link_Manage user_Create user"><path d="M435.48,455.72 C488.92,443.66 570.097,425.3401 622.547,413.5101" fill="none" id="Manage user-to-Create user" style="stroke:#181818;stroke-width:1;"/><polygon fill="#181818" points="628.4,412.19,618.7405,410.2682,623.5225,413.2901,620.5006,418.0722,628.4,412.19" style="stroke:#181818;stroke-width:1;"/><text fill="#000000" font-family="sans-serif" font-size="13" lengthAdjust="spacing" textLength="61.1851" x="506.15" y="422.2769">&#171;extend&#187;</text></g><!--link Manage user to Delete user--><g class="link" data-entity-1="Manage user" data-entity-2="Delete user" data-source-line="19" data-uid="lnk26" id="link_Manage user_Delete user"><path d="M452.26,466.21 C500.27,466.21 559.8,466.21 606.89,466.21" fill="none" id="Manage user-to-Delete user" style="stroke:#181818;stroke-width:1;"/><polygon fill="#181818" points="612.89,466.21,603.89,462.21,607.89,466.21,603.89,470.21,612.89,466.21" style="stroke:#181818;stroke-width:1;"/><text fill="#000000" font-family="sans-serif" font-size="13" lengthAdjust="spacing" textLength="61.1851" x="506.15" y="462.2769">&#171;extend&#187;</text></g><!--link Manage user to Reset\npassword--><g class="link" data-entity-1="Manage user" data-entity-2="Reset\npassword" data-source-line="20" data-uid="lnk28" id="link_Manage user_Reset\npassword"><path d="M432.35,477.53 C486.51,491.66 572.6645,514.1346 625.7245,527.9846" fill="none" id="Manage user-to-Reset\npassword" style="stroke:#181818;stroke-width:1;"/><polygon fill="#181818" points="631.53,529.5,623.832,523.3566,626.6921,528.2372,621.8115,531.0973,631.53,529.5" style="stroke:#181818;stroke-width:1;"/><text fill="#000000" font-family="sans-serif" font-size="13" lengthAdjust="spacing" textLength="61.1851" x="506.15" y="492.2769">&#171;extend&#187;</text></g><!--link Manage user to Change\naccess--><g class="link" data-entity-1="Manage user" data-entity-2="Change\naccess" data-source-line="21" data-uid="lnk30" id="link_Manage user_Change\naccess"><path d="M411.89,480.53 C435.17,494.94 472.36,517.64 505.15,536.21 C552.27,562.91 602.6467,589.2913 636.4467,606.7113" fill="none" id="Manage user-to-Change\naccess" style="stroke:#181818;stroke-width:1;"/><polygon fill="#181818" points="641.78,609.46,635.6125,601.7814,637.3355,607.1694,631.9475,608.8925,641.78,609.46" style="stroke:#181818;stroke-width:1;"/><text fill="#000000" font-family="sans-serif" font-size="13" lengthAdjust="spacing" textLength="61.1851" x="506.15" y="532.2769">&#171;extend&#187;</text></g><!--SRC=[dL7BYiCm3BpxAqHFxI4_i8H0QAyBOKjlkOX4TGskN6ILNPRz-2PrNmdDKdgSqOmz6ddQAcW0SNQdq3gXHbrWOsPL44KFPRjtxA8AQf0PO8IgD9j80lbVblKWeImhOBucXGF6-1saNHXJbOd-H4PBO75F2pD0QRuKGhqo7v3dG3zAt49HF9EloDEKVFnd48liVh5VwlxtW7tCKFDmD17cYJ-5UjzVUX-QleLZrsRDtKd-VMcyP- -wxtT6WsuJCn7dGNxfzbNv5qNIccytVy6ot27RhYXi6efnx3W1]--></g></svg>