<svg xmlns="http://www.w3.org/2000/svg" xmlns:xlink="http://www.w3.org/1999/xlink" contentStyleType="text/css" data-diagram-type="DESCRIPTION" height="659px" preserveAspectRatio="none" style="width:1059px;height:659px;background:#FFFFFF;" version="1.1" viewBox="0 0 1059 659" width="1059px" zoomAndPan="magnify"><defs/><g><!--entity SF--><g class="entity" data-entity="SF" data-source-line="3" data-uid="ent0002" id="entity_SF"><ellipse cx="164.1685" cy="182.45" fill="#F1F1F1" rx="8" ry="8" style="stroke:#181818;stroke-width:0.5;"/><path d="M164.1685,190.45 L164.1685,217.45 M151.1685,198.45 L177.1685,198.45 M164.1685,217.45 L151.1685,232.45 M164.1685,217.45 L177.1685,232.45" fill="none" style="stroke:#181818;stroke-width:0.5;"/><text fill="#000000" font-family="sans-serif" font-size="14" lengthAdjust="spacing" textLength="53.416" x="129.23" y="246.9451">Session</text><text fill="#000000" font-family="sans-serif" font-size="14" lengthAdjust="spacing" textLength="69.877" x="129.23" y="263.242">Facilitator</text></g><!--entity User--><g class="entity" data-entity="User" data-source-line="4" data-uid="ent0003" id="entity_User"><ellipse cx="21.9551" cy="267.59" fill="#F1F1F1" rx="8" ry="8" style="stroke:#181818;stroke-width:0.5;"/><path d="M21.9551,275.59 L21.9551,302.59 M8.9551,283.59 L34.9551,283.59 M21.9551,302.59 L8.9551,317.59 M21.9551,302.59 L34.9551,317.59" fill="none" style="stroke:#181818;stroke-width:0.5;"/><text fill="#000000" font-family="sans-serif" font-size="14" lengthAdjust="spacing" textLength="31.9102" x="6" y="332.0851">User</text></g><!--entity Set password--><g class="entity" data-entity="Set password" data-source-line="6" data-uid="ent0005" id="entity_Set password"><ellipse cx="164.1679" cy="317.2416" fill="#F1F1F1" rx="65.2579" ry="15.4516" style="stroke:#181818;stroke-width:0.5;"/><text fill="#000000" font-family="sans-serif" font-size="14" lengthAdjust="spacing" textLength="94.1514" x="117.0922" y="321.89">Set password</text></g><!--entity Brief game--><g class="entity" data-entity="Brief game" data-source-line="8" data-uid="ent0007" id="entity_Brief game"><ellipse cx="366.1282" cy="91.2436" fill="#F1F1F1" rx="57.4182" ry="14.5236" style="stroke:#181818;stroke-width:0.5;"/><text fill="#000000" font-family="sans-serif" font-size="14" lengthAdjust="spacing" textLength="76.959" x="327.6487" y="95.8921">Brief game</text></g><!--entity Facilitate users--><g class="entity" data-entity="Facilitate users" data-source-line="10" data-uid="ent0009" id="entity_Facilitate users"><ellipse cx="366.1282" cy="157.2356" fill="#F1F1F1" rx="70.0282" ry="16.4056" style="stroke:#181818;stroke-width:0.5;"/><text fill="#000000" font-family="sans-serif" font-size="14" lengthAdjust="spacing" textLength="106.4492" x="312.9036" y="161.8841">Facilitate users</text></g><!--entity Allocate user--><g class="entity" data-entity="Allocate user" data-source-line="11" data-uid="ent0011" id="entity_Allocate user"><ellipse cx="652.7922" cy="21.2364" fill="#F1F1F1" rx="64.1822" ry="15.2364" style="stroke:#181818;stroke-width:0.5;"/><text fill="#000000" font-family="sans-serif" font-size="14" lengthAdjust="spacing" textLength="91.2871" x="607.1486" y="25.8849">Allocate user</text></g><!--entity Deallocate user--><g class="entity" data-entity="Deallocate user" data-source-line="12" data-uid="ent0013" id="entity_Deallocate user"><ellipse cx="652.7891" cy="88.2438" fill="#F1F1F1" rx="71.3191" ry="16.6638" style="stroke:#181818;stroke-width:0.5;"/><text fill="#000000" font-family="sans-serif" font-size="14" lengthAdjust="spacing" textLength="109.6826" x="597.9478" y="92.8923">Deallocate user</text></g><!--entity Facilitate session--><g class="entity" data-entity="Facilitate session" data-source-line="14" data-uid="ent0015" id="entity_Facilitate session"><ellipse cx="366.1284" cy="323.2417" fill="#F1F1F1" rx="75.7084" ry="17.5417" style="stroke:#181818;stroke-width:0.5;"/><text fill="#000000" font-family="sans-serif" font-size="14" lengthAdjust="spacing" textLength="120.4424" x="305.9073" y="327.8901">Facilitate session</text></g><!--entity Start game--><g class="entity" data-entity="Start game" data-source-line="15" data-uid="ent0017" id="entity_Start game"><ellipse cx="652.794" cy="154.2436" fill="#F1F1F1" rx="58.414" ry="14.5236" style="stroke:#181818;stroke-width:0.5;"/><text fill="#000000" font-family="sans-serif" font-size="14" lengthAdjust="spacing" textLength="78.3672" x="613.6104" y="158.8921">Start game</text></g><!--entity Change game speed--><g class="entity" data-entity="Change game speed" data-source-line="16" data-uid="ent0019" id="entity_Change game speed"><ellipse cx="652.7908" cy="223.2402" fill="#F1F1F1" rx="85.9508" ry="19.5902" style="stroke:#181818;stroke-width:0.5;"/><text fill="#000000" font-family="sans-serif" font-size="14" lengthAdjust="spacing" textLength="144.5117" x="580.5349" y="227.8886">Change game speed</text></g><!--entity Add news item--><g class="entity" data-entity="Add news item" data-source-line="17" data-uid="ent0021" id="entity_Add news item"><ellipse cx="652.7938" cy="294.2408" fill="#F1F1F1" rx="69.1038" ry="16.2208" style="stroke:#181818;stroke-width:0.5;"/><text fill="#000000" font-family="sans-serif" font-size="14" lengthAdjust="spacing" textLength="104.1113" x="600.7382" y="298.8892">Add news item</text></g><!--entity Add intervention--><g class="entity" data-entity="Add intervention" data-source-line="18" data-uid="ent0023" id="entity_Add intervention"><ellipse cx="652.7938" cy="362.2388" fill="#F1F1F1" rx="74.2938" ry="17.2588" style="stroke:#181818;stroke-width:0.5;"/><text fill="#000000" font-family="sans-serif" font-size="14" lengthAdjust="spacing" textLength="117.0107" x="594.2884" y="366.8872">Add intervention</text></g><!--entity Trigger intervention--><g class="entity" data-entity="Trigger intervention" data-source-line="19" data-uid="ent0025" id="entity_Trigger intervention"><ellipse cx="652.7934" cy="433.2387" fill="#F1F1F1" rx="83.9934" ry="19.1987" style="stroke:#181818;stroke-width:0.5;"/><text fill="#000000" font-family="sans-serif" font-size="14" lengthAdjust="spacing" textLength="140" x="582.7934" y="437.8871">Trigger intervention</text></g><!--entity Stop game--><g class="entity" data-entity="Stop game" data-source-line="20" data-uid="ent0027" id="entity_Stop game"><ellipse cx="652.7867" cy="502.2436" fill="#F1F1F1" rx="56.7367" ry="14.5236" style="stroke:#181818;stroke-width:0.5;"/><text fill="#000000" font-family="sans-serif" font-size="14" lengthAdjust="spacing" textLength="75.9951" x="614.7891" y="506.8921">Stop game</text></g><!--entity Show scores--><g class="entity" data-entity="Show scores" data-source-line="21" data-uid="ent0029" id="entity_Show scores"><ellipse cx="652.7928" cy="567.2426" fill="#F1F1F1" rx="62.7628" ry="14.9526" style="stroke:#181818;stroke-width:0.5;"/><text fill="#000000" font-family="sans-serif" font-size="14" lengthAdjust="spacing" textLength="87.4453" x="609.0702" y="571.891">Show scores</text></g><!--entity Send data to\ngame data platform--><g class="entity" data-entity="Send data to\ngame data platform" data-source-line="23" data-uid="ent0031" id="entity_Send data to\ngame data platform"><ellipse cx="958.6666" cy="331.2394" fill="#F1F1F1" rx="94.9266" ry="24.4194" style="stroke:#181818;stroke-width:0.5;"/><text fill="#000000" font-family="sans-serif" font-size="14" lengthAdjust="spacing" textLength="89.749" x="913.7921" y="325.3424">Send data to</text><text fill="#000000" font-family="sans-serif" font-size="14" lengthAdjust="spacing" textLength="139.8838" x="888.7247" y="341.6392">game data platform</text></g><!--entity Debrief game--><g class="entity" data-entity="Debrief game" data-source-line="28" data-uid="ent0036" id="entity_Debrief game"><ellipse cx="366.1306" cy="579.2441" fill="#F1F1F1" rx="65.8206" ry="15.5641" style="stroke:#181818;stroke-width:0.5;"/><text fill="#000000" font-family="sans-serif" font-size="14" lengthAdjust="spacing" textLength="95.6348" x="318.3132" y="583.8926">Debrief game</text></g><!--entity Show gameplay--><g class="entity" data-entity="Show gameplay" data-source-line="30" data-uid="ent0039" id="entity_Show gameplay"><ellipse cx="652.7941" cy="636.2368" fill="#F1F1F1" rx="72.0841" ry="16.8168" style="stroke:#181818;stroke-width:0.5;"/><text fill="#000000" font-family="sans-serif" font-size="14" lengthAdjust="spacing" textLength="111.583" x="597.0026" y="640.8853">Show gameplay</text></g><!--reverse link User to SF--><g class="link" data-entity-1="User" data-entity-2="SF" data-source-line="4" data-uid="lnk4" id="link_User_SF"><path d="M54.0061,280.193 C75.5761,268.343 99.81,255.04 128.74,239.15" fill="none" id="User-backto-SF" style="stroke:#181818;stroke-width:1;"/><polygon fill="none" points="38.23,288.86,56.895,285.4517,51.1171,274.9344,38.23,288.86" style="stroke:#181818;stroke-width:1;"/></g><!--link User to Set password--><g class="link" data-entity-1="User" data-entity-2="Set password" data-source-line="6" data-uid="lnk6" id="link_User_Set password"><path d="M38.23,299.42 C54.84,301.79 76.42,304.8738 101.41,308.4338" fill="none" id="User-to-Set password" style="stroke:#181818;stroke-width:1;"/><polygon fill="#181818" points="107.35,309.28,99.0041,304.0507,102.4,308.5748,97.8758,311.9707,107.35,309.28" style="stroke:#181818;stroke-width:1;"/></g><!--link SF to Brief game--><g class="link" data-entity-1="SF" data-entity-2="Brief game" data-source-line="8" data-uid="lnk8" id="link_SF_Brief game"><path d="M199.36,189.91 C223.62,169.37 257.59,142.56 290.43,123.24 C303.56,115.52 313.3472,110.8584 326.7072,105.4584" fill="none" id="SF-to-Brief game" style="stroke:#181818;stroke-width:1;"/><polygon fill="#181818" points="332.27,103.21,322.4269,102.8741,327.6343,105.0837,325.4248,110.2912,332.27,103.21" style="stroke:#181818;stroke-width:1;"/></g><!--link SF to Facilitate users--><g class="link" data-entity-1="SF" data-entity-2="Facilitate users" data-source-line="10" data-uid="lnk10" id="link_SF_Facilitate users"><path d="M199.54,209.41 C233.71,198.65 280.4673,183.9231 317.1573,172.3631" fill="none" id="SF-to-Facilitate users" style="stroke:#181818;stroke-width:1;"/><polygon fill="#181818" points="322.88,170.56,313.094,169.4495,318.1111,172.0625,315.498,177.0797,322.88,170.56" style="stroke:#181818;stroke-width:1;"/></g><!--link Facilitate users to Allocate user--><g class="link" data-entity-1="Facilitate users" data-entity-2="Allocate user" data-source-line="11" data-uid="lnk12" id="link_Facilitate users_Allocate user"><path d="M405.11,143.24 C417.36,137.88 430.66,131.13 441.84,123.24 C457.51,112.19 455.92,102.93 471.84,92.24 C509.6,66.9 524.54,70.92 566.84,54.24 C583.62,47.63 596.7049,42.5269 612.2749,36.4969" fill="none" id="Facilitate users-to-Allocate user" style="stroke:#181818;stroke-width:1;"/><polygon fill="#181818" points="617.87,34.33,608.0328,33.8503,613.2075,36.1357,610.922,41.3103,617.87,34.33" style="stroke:#181818;stroke-width:1;"/><text fill="#000000" font-family="sans-serif" font-size="13" lengthAdjust="spacing" textLength="61.1851" x="473.84" y="61.3069">&#171;extend&#187;</text></g><!--link Facilitate users to Deallocate user--><g class="link" data-entity-1="Facilitate users" data-entity-2="Deallocate user" data-source-line="12" data-uid="lnk14" id="link_Facilitate users_Deallocate user"><path d="M416.07,145.38 C468.05,132.78 543.9588,114.3832 596.2388,101.7132" fill="none" id="Facilitate users-to-Deallocate user" style="stroke:#181818;stroke-width:1;"/><polygon fill="#181818" points="602.07,100.3,592.3811,98.5323,597.2107,101.4777,594.2653,106.3072,602.07,100.3" style="stroke:#181818;stroke-width:1;"/><text fill="#000000" font-family="sans-serif" font-size="13" lengthAdjust="spacing" textLength="61.1851" x="473.84" y="113.3069">&#171;extend&#187;</text></g><!--link SF to Facilitate session--><g class="link" data-entity-1="SF" data-entity-2="Facilitate session" data-source-line="14" data-uid="lnk16" id="link_SF_Facilitate session"><path d="M199.54,237.95 C237.18,257.33 291.676,285.4026 328.176,304.2026" fill="none" id="SF-to-Facilitate session" style="stroke:#181818;stroke-width:1;"/><polygon fill="#181818" points="333.51,306.95,327.3406,299.2729,329.065,304.6605,323.6774,306.3849,333.51,306.95" style="stroke:#181818;stroke-width:1;"/></g><!--link Facilitate session to Start game--><g class="link" data-entity-1="Facilitate session" data-entity-2="Start game" data-source-line="15" data-uid="lnk18" id="link_Facilitate session_Start game"><path d="M384.63,306.1 C404.62,287.07 438.85,256.15 471.84,234.24 C511.25,208.08 523.53,205.28 566.84,186.24 C583.29,179.01 596.3024,173.9336 611.9224,168.2436" fill="none" id="Facilitate session-to-Start game" style="stroke:#181818;stroke-width:1;"/><polygon fill="#181818" points="617.56,166.19,607.7345,165.5121,612.862,167.9014,610.4727,173.0289,617.56,166.19" style="stroke:#181818;stroke-width:1;"/><text fill="#000000" font-family="sans-serif" font-size="13" lengthAdjust="spacing" textLength="61.1851" x="473.84" y="196.3069">&#171;extend&#187;</text></g><!--link Facilitate session to Change game speed--><g class="link" data-entity-1="Facilitate session" data-entity-2="Change game speed" data-source-line="16" data-uid="lnk20" id="link_Facilitate session_Change game speed"><path d="M403.19,307.57 C423.25,299.07 448.75,288.63 471.84,280.24 C514.04,264.92 556.8656,251.4126 592.9056,240.5426" fill="none" id="Facilitate session-to-Change game speed" style="stroke:#181818;stroke-width:1;"/><polygon fill="#181818" points="598.65,238.81,588.8783,237.5792,593.863,240.2538,591.1884,245.2385,598.65,238.81" style="stroke:#181818;stroke-width:1;"/><text fill="#000000" font-family="sans-serif" font-size="13" lengthAdjust="spacing" textLength="61.1851" x="473.84" y="255.3069">&#171;extend&#187;</text></g><!--link Facilitate session to Add news item--><g class="link" data-entity-1="Facilitate session" data-entity-2="Add news item" data-source-line="17" data-uid="lnk22" id="link_Facilitate session_Add news item"><path d="M436.04,316.22 C482.61,311.48 537.6409,305.868 582.9009,301.258" fill="none" id="Facilitate session-to-Add news item" style="stroke:#181818;stroke-width:1;"/><polygon fill="#181818" points="588.87,300.65,579.511,297.5826,583.8957,301.1567,580.3217,305.5414,588.87,300.65" style="stroke:#181818;stroke-width:1;"/><text fill="#000000" font-family="sans-serif" font-size="13" lengthAdjust="spacing" textLength="61.1851" x="473.84" y="301.3069">&#171;extend&#187;</text></g><!--link Facilitate session to Add intervention--><g class="link" data-entity-1="Facilitate session" data-entity-2="Add intervention" data-source-line="18" data-uid="lnk24" id="link_Facilitate session_Add intervention"><path d="M432.08,332.14 C478.85,338.55 535.6856,346.3352 582.1556,352.7052" fill="none" id="Facilitate session-to-Add intervention" style="stroke:#181818;stroke-width:1;"/><polygon fill="#181818" points="588.1,353.52,579.7266,348.3348,583.1463,352.841,578.6402,356.2607,588.1,353.52" style="stroke:#181818;stroke-width:1;"/><text fill="#000000" font-family="sans-serif" font-size="13" lengthAdjust="spacing" textLength="61.1851" x="473.84" y="333.3069">&#171;extend&#187;</text></g><!--link Facilitate session to Trigger intervention--><g class="link" data-entity-1="Facilitate session" data-entity-2="Trigger intervention" data-source-line="19" data-uid="lnk26" id="link_Facilitate session_Trigger intervention"><path d="M400.77,339.22 C421.16,348.68 447.78,360.65 471.84,370.24 C515.66,387.71 560.7568,403.3559 597.1868,415.4759" fill="none" id="Facilitate session-to-Trigger intervention" style="stroke:#181818;stroke-width:1;"/><polygon fill="#181818" points="602.88,417.37,595.6029,410.7334,598.1357,415.7916,593.0775,418.3243,602.88,417.37" style="stroke:#181818;stroke-width:1;"/><text fill="#000000" font-family="sans-serif" font-size="13" lengthAdjust="spacing" textLength="61.1851" x="473.84" y="366.3069">&#171;extend&#187;</text></g><!--link Facilitate session to Stop game--><g class="link" data-entity-1="Facilitate session" data-entity-2="Stop game" data-source-line="20" data-uid="lnk28" id="link_Facilitate session_Stop game"><path d="M383.84,340.72 C403.66,360.88 438.25,394.32 471.84,418.24 C511.05,446.16 523.1,450.15 566.84,470.24 C583.17,477.74 596.1554,482.8758 611.8054,488.5158" fill="none" id="Facilitate session-to-Stop game" style="stroke:#181818;stroke-width:1;"/><polygon fill="#181818" points="617.45,490.55,610.3392,483.7356,612.7461,488.8548,607.6269,491.2617,617.45,490.55" style="stroke:#181818;stroke-width:1;"/><text fill="#000000" font-family="sans-serif" font-size="13" lengthAdjust="spacing" textLength="61.1851" x="473.84" y="414.3069">&#171;extend&#187;</text></g><!--link Facilitate session to Show scores--><g class="link" data-entity-1="Facilitate session" data-entity-2="Show scores" data-source-line="21" data-uid="lnk30" id="link_Facilitate session_Show scores"><path d="M375.28,340.86 C390.51,372.3 425.98,438.75 471.84,481.24 C512.23,518.66 566.168,540.9026 605.558,553.8026" fill="none" id="Facilitate session-to-Show scores" style="stroke:#181818;stroke-width:1;"/><polygon fill="#181818" points="611.26,555.67,603.9519,549.0676,606.5083,554.1139,601.4621,556.6703,611.26,555.67" style="stroke:#181818;stroke-width:1;"/><text fill="#000000" font-family="sans-serif" font-size="13" lengthAdjust="spacing" textLength="54.7676" x="477.34" y="477.3069">&#171;iclude&#187;</text></g><!--link Start game to Send data to\ngame data platform--><g class="link" data-entity-1="Start game" data-entity-2="Send data to\ngame data platform" data-source-line="23" data-uid="lnk32" id="link_Start game_Send data to\ngame data platform"><path d="M689.69,165.75 C705.13,171.21 723.17,178.28 738.74,186.24 C809.78,222.56 881.1983,273.3822 922.3183,304.1922" fill="none" id="Start game-to-Send data to\ngame data platform" style="stroke:#181818;stroke-width:1;"/><polygon fill="#181818" points="927.12,307.79,922.316,299.1922,923.1186,304.7919,917.519,305.5945,927.12,307.79" style="stroke:#181818;stroke-width:1;"/><text fill="#000000" font-family="sans-serif" font-size="13" lengthAdjust="spacing" textLength="63.0068" x="769.74" y="199.3069">&#171;include&#187;</text></g><!--link Add news item to Send data to\ngame data platform--><g class="link" data-entity-1="Add news item" data-entity-2="Send data to\ngame data platform" data-source-line="24" data-uid="lnk33" id="link_Add news item_Send data to\ngame data platform"><path d="M714.92,301.69 C760.07,307.18 816.1639,314.0154 866.2239,320.1054" fill="none" id="Add news item-to-Send data to\ngame data platform" style="stroke:#181818;stroke-width:1;"/><polygon fill="#181818" points="872.18,320.83,863.7289,315.7724,867.2166,320.2262,862.7628,323.7139,872.18,320.83" style="stroke:#181818;stroke-width:1;"/><text fill="#000000" font-family="sans-serif" font-size="13" lengthAdjust="spacing" textLength="63.0068" x="769.74" y="304.3069">&#171;include&#187;</text></g><!--link Add intervention to Send data to\ngame data platform--><g class="link" data-entity-1="Add intervention" data-entity-2="Send data to\ngame data platform" data-source-line="25" data-uid="lnk34" id="link_Add intervention_Send data to\ngame data platform"><path d="M727.12,363.17 C759.85,362.82 798.83,361.36 833.74,357.24 C851.65,355.13 864.9248,352.9274 882.6848,349.2474" fill="none" id="Add intervention-to-Send data to\ngame data platform" style="stroke:#181818;stroke-width:1;"/><polygon fill="#181818" points="888.56,348.03,878.9356,345.9393,883.664,349.0445,880.5588,353.7729,888.56,348.03" style="stroke:#181818;stroke-width:1;"/><text fill="#000000" font-family="sans-serif" font-size="13" lengthAdjust="spacing" textLength="63.0068" x="769.74" y="353.3069">&#171;include&#187;</text></g><!--link Stop game to Send data to\ngame data platform--><g class="link" data-entity-1="Stop game" data-entity-2="Send data to\ngame data platform" data-source-line="26" data-uid="lnk35" id="link_Stop game_Send data to\ngame data platform"><path d="M689.2,490.74 C704.72,485.24 722.95,478.13 738.74,470.24 C808.63,435.36 879.4597,387.3864 920.9997,357.8564" fill="none" id="Stop game-to-Send data to\ngame data platform" style="stroke:#181818;stroke-width:1;"/><polygon fill="#181818" points="925.89,354.38,916.237,356.3344,921.8148,357.277,920.8722,362.8548,925.89,354.38" style="stroke:#181818;stroke-width:1;"/><text fill="#000000" font-family="sans-serif" font-size="13" lengthAdjust="spacing" textLength="63.0068" x="769.74" y="413.3069">&#171;include&#187;</text></g><!--link SF to Debrief game--><g class="link" data-entity-1="SF" data-entity-2="Debrief game" data-source-line="28" data-uid="lnk37" id="link_SF_Debrief game"><path d="M199.29,249.79 C209.81,260 220.87,271.98 229.43,284.24 C297.18,381.33 343.2203,511.9388 358.2603,557.7988" fill="none" id="SF-to-Debrief game" style="stroke:#181818;stroke-width:1;"/><polygon fill="#181818" points="360.13,563.5,361.1262,553.7017,358.5719,558.749,353.5246,556.1946,360.13,563.5" style="stroke:#181818;stroke-width:1;"/></g><!--link Debrief game to Show scores--><g class="link" data-entity-1="Debrief game" data-entity-2="Show scores" data-source-line="29" data-uid="lnk38" id="link_Debrief game_Show scores"><path d="M431.64,581.38 C444.93,581.74 458.84,582.06 471.84,582.24 C500.73,582.66 508.01,584.12 536.84,582.24 C557.43,580.91 574.0169,579.0543 593.6269,576.3343" fill="none" id="Debrief game-to-Show scores" style="stroke:#181818;stroke-width:1;"/><polygon fill="#181818" points="599.57,575.51,590.1058,572.7844,594.6174,576.1969,591.2049,580.7086,599.57,575.51" style="stroke:#181818;stroke-width:1;"/><text fill="#000000" font-family="sans-serif" font-size="13" lengthAdjust="spacing" textLength="63.0068" x="472.84" y="578.3069">&#171;include&#187;</text></g><!--link Debrief game to Show gameplay--><g class="link" data-entity-1="Debrief game" data-entity-2="Show gameplay" data-source-line="30" data-uid="lnk40" id="link_Debrief game_Show gameplay"><path d="M408.93,591.46 C428.01,596.77 450.96,602.78 471.84,607.24 C510.68,615.54 548.754,621.7959 583.524,626.9159" fill="none" id="Debrief game-to-Show gameplay" style="stroke:#181818;stroke-width:1;"/><polygon fill="#181818" points="589.46,627.79,581.1387,622.5215,584.5133,627.0616,579.9733,630.4362,589.46,627.79" style="stroke:#181818;stroke-width:1;"/><text fill="#000000" font-family="sans-serif" font-size="13" lengthAdjust="spacing" textLength="61.1851" x="473.84" y="603.3069">&#171;extend&#187;</text></g><!--SRC=[fPDDReD038NtSmehgxBW0XL2IXjn0TfTDbF6m4YJ6JHsIYlry9tm9qXBLD8TVk9xsC_6OCd03hokQWQbFHQidHLYboDHU3hQJ1RQQ9Ri_0uaGPw9Lq8FoLSSNug-YkCK7d9aQ2HHwxoAXCYpNdxo6akev0bducIBS0u658cVKl_ctXXNZ684Zv0aW1-CLa6Qhb87b3UvtngXVkPbAwCuZCZISp_BhKwMq7CjROKT1TGWgWtiNYcms19enjD6Jbj6_uwME_dFw4kuXYhiz4uyPzTiJIYlNGjKE8yqKBemPuNTfXQX3uSM39La6MxtQBjSkwenaaldnvoqdKokS_oFpJANUvrcCTrfCPtm0TzclzYoNCrtrieQSAd3vp-l5_aD]--></g></svg>