<svg xmlns="http://www.w3.org/2000/svg" xmlns:xlink="http://www.w3.org/1999/xlink" contentStyleType="text/css" data-diagram-type="DESCRIPTION" height="719px" preserveAspectRatio="none" style="width:978px;height:719px;background:#FFFFFF;" version="1.1" viewBox="0 0 978 719" width="978px" zoomAndPan="magnify"><defs/><g><!--entity SA--><g class="entity" data-entity="SA" data-source-line="3" data-uid="ent0002" id="entity_SA"><ellipse cx="373.5754" cy="315.9" fill="#F1F1F1" rx="8" ry="8" style="stroke:#181818;stroke-width:0.5;"/><path d="M373.5754,323.9 L373.5754,350.9 M360.5754,331.9 L386.5754,331.9 M373.5754,350.9 L360.5754,365.9 M373.5754,350.9 L386.5754,365.9" fill="none" style="stroke:#181818;stroke-width:0.5;"/><text fill="#000000" font-family="sans-serif" font-size="14" lengthAdjust="spacing" textLength="152.5508" x="297.3" y="380.3951">Session administrator</text></g><!--entity User--><g class="entity" data-entity="User" data-source-line="4" data-uid="ent0003" id="entity_User"><ellipse cx="21.9551" cy="293.9" fill="#F1F1F1" rx="8" ry="8" style="stroke:#181818;stroke-width:0.5;"/><path d="M21.9551,301.9 L21.9551,328.9 M8.9551,309.9 L34.9551,309.9 M21.9551,328.9 L8.9551,343.9 M21.9551,328.9 L34.9551,343.9" fill="none" style="stroke:#181818;stroke-width:0.5;"/><text fill="#000000" font-family="sans-serif" font-size="14" lengthAdjust="spacing" textLength="31.9102" x="6" y="358.3951">User</text></g><!--entity Administrator--><g class="entity" data-entity="Administrator" data-source-line="4" data-uid="ent0004" id="entity_Administrator"><ellipse cx="164.1713" cy="224.9" fill="#F1F1F1" rx="8" ry="8" style="stroke:#181818;stroke-width:0.5;"/><path d="M164.1713,232.9 L164.1713,259.9 M151.1713,240.9 L177.1713,240.9 M164.1713,259.9 L151.1713,274.9 M164.1713,259.9 L177.1713,274.9" fill="none" style="stroke:#181818;stroke-width:0.5;"/><text fill="#000000" font-family="sans-serif" font-size="14" lengthAdjust="spacing" textLength="95.6826" x="116.33" y="289.3951">Administrator</text></g><!--entity Set password--><g class="entity" data-entity="Set password" data-source-line="7" data-uid="ent0007" id="entity_Set password"><ellipse cx="164.1679" cy="343.5516" fill="#F1F1F1" rx="65.2579" ry="15.4516" style="stroke:#181818;stroke-width:0.5;"/><text fill="#000000" font-family="sans-serif" font-size="14" lengthAdjust="spacing" textLength="94.1514" x="117.0922" y="348.2">Set password</text></g><!--entity User administration--><g class="entity" data-entity="User administration" data-source-line="9" data-uid="ent0009" id="entity_User administration"><ellipse cx="373.583" cy="153.5506" fill="#F1F1F1" rx="83.153" ry="19.0306" style="stroke:#181818;stroke-width:0.5;"/><text fill="#000000" font-family="sans-serif" font-size="14" lengthAdjust="spacing" textLength="138.0518" x="304.5571" y="158.199">User administration</text></g><g class="entity" data-entity="GMN11" data-source-line="11" data-uid="ent0012" id="entity_GMN11"><path d="M300.87,207.98 L300.87,233.1128 A0,0 0 0 0 300.87,233.1128 L446.2841,233.1128 A0,0 0 0 0 446.2841,233.1128 L446.2841,217.98 L436.2841,207.98 L377.58,207.98 L373.58,173.02 L369.58,207.98 L300.87,207.98 A0,0 0 0 0 300.87,207.98" fill="#FEFFDD" style="stroke:#181818;stroke-width:0.5;"/><path d="M436.2841,207.98 L436.2841,217.98 L446.2841,217.98 L436.2841,207.98" fill="#FEFFDD" style="stroke:#181818;stroke-width:0.5;"/><text fill="#000000" font-family="sans-serif" font-size="13" lengthAdjust="spacing" textLength="124.4141" x="306.87" y="225.0469">player or facilitator</text></g><!--entity Create user--><g class="entity" data-entity="Create user" data-source-line="14" data-uid="ent0014" id="entity_Create user"><ellipse cx="609.2843" cy="20.5469" fill="#F1F1F1" rx="60.7343" ry="14.5469" style="stroke:#181818;stroke-width:0.5;"/><text fill="#000000" font-family="sans-serif" font-size="14" lengthAdjust="spacing" textLength="81.8125" x="568.378" y="25.1953">Create user</text></g><!--entity Delete user--><g class="entity" data-entity="Delete user" data-source-line="15" data-uid="ent0016" id="entity_Delete user"><ellipse cx="609.2753" cy="84.5536" fill="#F1F1F1" rx="60.2653" ry="14.5236" style="stroke:#181818;stroke-width:0.5;"/><text fill="#000000" font-family="sans-serif" font-size="14" lengthAdjust="spacing" textLength="80.9854" x="568.7826" y="89.2021">Delete user</text></g><!--entity Reset user password--><g class="entity" data-entity="Reset user password" data-source-line="16" data-uid="ent0018" id="entity_Reset user password"><ellipse cx="609.2799" cy="153.55" fill="#F1F1F1" rx="86.5499" ry="19.71" style="stroke:#181818;stroke-width:0.5;"/><text fill="#000000" font-family="sans-serif" font-size="14" lengthAdjust="spacing" textLength="145.8857" x="536.337" y="158.1984">Reset user password</text></g><!--entity Set user access--><g class="entity" data-entity="Set user access" data-source-line="17" data-uid="ent0020" id="entity_Set user access"><ellipse cx="609.2761" cy="224.5472" fill="#F1F1F1" rx="71.2861" ry="16.6572" style="stroke:#181818;stroke-width:0.5;"/><text fill="#000000" font-family="sans-serif" font-size="14" lengthAdjust="spacing" textLength="109.6006" x="554.4759" y="229.1957">Set user access</text></g><!--entity Manage--><g class="entity" data-entity="Manage" data-source-line="19" data-uid="ent0022" id="entity_Manage"><ellipse cx="609.2833" cy="400.5498" fill="#F1F1F1" rx="65.4933" ry="24.2198" style="stroke:#181818;stroke-width:0.5;"/><text fill="#000000" font-family="sans-serif" font-size="14" lengthAdjust="spacing" textLength="55.6104" x="581.4781" y="394.343">Manage</text><text fill="#000000" font-family="sans-serif" font-size="14" lengthAdjust="spacing" textLength="95.9902" x="561.2881" y="410.6398">game session</text></g><!--entity Create game session--><g class="entity" data-entity="Create game session" data-source-line="21" data-uid="ent0024" id="entity_Create game session"><ellipse cx="864.8834" cy="140.5507" fill="#F1F1F1" rx="87.1534" ry="19.8307" style="stroke:#181818;stroke-width:0.5;"/><text fill="#000000" font-family="sans-serif" font-size="14" lengthAdjust="spacing" textLength="147.2666" x="791.2501" y="145.1991">Create game session</text></g><!--entity Set session dates--><g class="entity" data-entity="Set session dates" data-source-line="22" data-uid="ent0026" id="entity_Set session dates"><ellipse cx="864.8841" cy="213.5488" fill="#F1F1F1" rx="76.5941" ry="17.7188" style="stroke:#181818;stroke-width:0.5;"/><text fill="#000000" font-family="sans-serif" font-size="14" lengthAdjust="spacing" textLength="122.5752" x="803.5965" y="218.1973">Set session dates</text></g><!--entity Delete game session--><g class="entity" data-entity="Delete game session" data-source-line="23" data-uid="ent0028" id="entity_Delete game session"><ellipse cx="864.8817" cy="285.5483" fill="#F1F1F1" rx="86.7917" ry="19.7583" style="stroke:#181818;stroke-width:0.5;"/><text fill="#000000" font-family="sans-serif" font-size="14" lengthAdjust="spacing" textLength="146.4395" x="791.662" y="290.1968">Delete game session</text></g><!--entity Allocate user to game--><g class="entity" data-entity="Allocate user to game" data-source-line="24" data-uid="ent0030" id="entity_Allocate user to game"><ellipse cx="864.8763" cy="360.5493" fill="#F1F1F1" rx="90.0963" ry="20.4193" style="stroke:#181818;stroke-width:0.5;"/><text fill="#000000" font-family="sans-serif" font-size="14" lengthAdjust="spacing" textLength="153.959" x="787.8968" y="365.1977">Allocate user to game</text></g><!--entity Allow self registration\nfor users--><g class="entity" data-entity="Allow self registration\nfor users" data-source-line="25" data-uid="ent0032" id="entity_Allow self registration\nfor users"><ellipse cx="864.8785" cy="439.5481" fill="#F1F1F1" rx="99.9485" ry="23.7781" style="stroke:#181818;stroke-width:0.5;"/><text fill="#000000" font-family="sans-serif" font-size="14" lengthAdjust="spacing" textLength="152.0791" x="788.839" y="439.4554">Allow self registration</text><text fill="#000000" font-family="sans-serif" font-size="14" lengthAdjust="spacing" textLength="61.5303" x="834.1134" y="455.7523">for users</text></g><!--entity Generate anonymous users--><g class="entity" data-entity="Generate anonymous users" data-source-line="26" data-uid="ent0034" id="entity_Generate anonymous users"><ellipse cx="864.8832" cy="522.5506" fill="#F1F1F1" rx="108.0532" ry="24.0106" style="stroke:#181818;stroke-width:0.5;"/><text fill="#000000" font-family="sans-serif" font-size="14" lengthAdjust="spacing" textLength="193.6621" x="768.0522" y="527.1991">Generate anonymous users</text></g><!--entity Show sessions with status--><g class="entity" data-entity="Show sessions with status" data-source-line="27" data-uid="ent0036" id="entity_Show sessions with status"><ellipse cx="864.8842" cy="604.5488" fill="#F1F1F1" rx="103.1442" ry="23.0288" style="stroke:#181818;stroke-width:0.5;"/><text fill="#000000" font-family="sans-serif" font-size="14" lengthAdjust="spacing" textLength="182.9639" x="773.4023" y="609.1973">Show sessions with status</text></g><!--entity Show facilitators and\nplayers for session--><g class="entity" data-entity="Show facilitators and\nplayers for session" data-source-line="28" data-uid="ent0038" id="entity_Show facilitators and\nplayers for session"><ellipse cx="864.8821" cy="687.5497" fill="#F1F1F1" rx="104.3821" ry="25.4697" style="stroke:#181818;stroke-width:0.5;"/><text fill="#000000" font-family="sans-serif" font-size="14" lengthAdjust="spacing" textLength="147.0615" x="791.3513" y="684.8773">Show facilitators and</text><text fill="#000000" font-family="sans-serif" font-size="14" lengthAdjust="spacing" textLength="131.2773" x="799.2434" y="701.1742">players for session</text></g><!--reverse link User to Administrator--><g class="link" data-entity-1="User" data-entity-2="Administrator" data-source-line="4" data-uid="lnk5" id="link_User_Administrator"><path d="M54.3817,308.085 C72.9017,298.975 88.86,291.12 115.88,277.82" fill="none" id="User-backto-Administrator" style="stroke:#181818;stroke-width:1;"/><polygon fill="none" points="38.23,316.03,57.03,313.4689,51.7333,302.7011,38.23,316.03" style="stroke:#181818;stroke-width:1;"/></g><!--reverse link Administrator to SA--><g class="link" data-entity-1="Administrator" data-entity-2="SA" data-source-line="5" data-uid="lnk6" id="link_Administrator_SA"><path d="M228.9719,282.5451 C253.9619,293.5151 268.74,299.99 296.99,312.39" fill="none" id="Administrator-backto-SA" style="stroke:#181818;stroke-width:1;"/><polygon fill="none" points="212.49,275.31,226.5602,288.0391,231.3836,277.0512,212.49,275.31" style="stroke:#181818;stroke-width:1;"/></g><!--link User to Set password--><g class="link" data-entity-1="User" data-entity-2="Set password" data-source-line="7" data-uid="lnk8" id="link_User_Set password"><path d="M38.23,325.73 C54.84,328.1 76.4203,331.1715 101.4103,334.7415" fill="none" id="User-to-Set password" style="stroke:#181818;stroke-width:1;"/><polygon fill="#181818" points="107.35,335.59,99.0061,330.3574,102.4003,334.8829,97.8748,338.277,107.35,335.59" style="stroke:#181818;stroke-width:1;"/></g><!--link Administrator to User administration--><g class="link" data-entity-1="Administrator" data-entity-2="User administration" data-source-line="9" data-uid="lnk10" id="link_Administrator_User administration"><path d="M212.48,229.68 C235.81,217.6 264.45,203.03 290.43,190.55 C304.39,183.85 314.3532,179.2405 328.0532,173.1105" fill="none" id="Administrator-to-User administration" style="stroke:#181818;stroke-width:1;"/><polygon fill="#181818" points="333.53,170.66,323.6812,170.6847,328.966,172.7021,326.9486,177.987,333.53,170.66" style="stroke:#181818;stroke-width:1;"/></g><!--link User administration to Create user--><g class="link" data-entity-1="User administration" data-entity-2="Create user" data-source-line="14" data-uid="lnk15" id="link_User administration_Create user"><path d="M397.85,135.07 C426.13,113.23 475.89,76.83 522.73,52.55 C538.08,44.6 550.2096,39.61 565.5696,34.21" fill="none" id="User administration-to-Create user" style="stroke:#181818;stroke-width:1;"/><polygon fill="#181818" points="571.23,32.22,561.4128,31.4314,566.513,33.8783,564.0661,38.9786,571.23,32.22" style="stroke:#181818;stroke-width:1;"/></g><!--link User administration to Delete user--><g class="link" data-entity-1="User administration" data-entity-2="Delete user" data-source-line="15" data-uid="lnk17" id="link_User administration_Delete user"><path d="M425.87,138.41 C469.27,125.59 524.7556,109.2089 564.0456,97.6089" fill="none" id="User administration-to-Delete user" style="stroke:#181818;stroke-width:1;"/><polygon fill="#181818" points="569.8,95.91,560.0357,94.6221,565.0046,97.3258,562.301,102.2947,569.8,95.91" style="stroke:#181818;stroke-width:1;"/></g><!--link User administration to Reset user password--><g class="link" data-entity-1="User administration" data-entity-2="Reset user password" data-source-line="16" data-uid="lnk19" id="link_User administration_Reset user password"><path d="M456.97,153.55 C478.13,153.55 494.94,153.55 516.28,153.55" fill="none" id="User administration-to-Reset user password" style="stroke:#181818;stroke-width:1;"/><polygon fill="#181818" points="522.28,153.55,513.28,149.55,517.28,153.55,513.28,157.55,522.28,153.55" style="stroke:#181818;stroke-width:1;"/></g><!--link User administration to Set user access--><g class="link" data-entity-1="User administration" data-entity-2="Set user access" data-source-line="17" data-uid="lnk21" id="link_User administration_Set user access"><path d="M425,168.87 C466.6,181.51 519.2692,197.5055 558.8892,209.5455" fill="none" id="User administration-to-Set user access" style="stroke:#181818;stroke-width:1;"/><polygon fill="#181818" points="564.63,211.29,557.1819,204.846,559.846,209.8362,554.8558,212.5004,564.63,211.29" style="stroke:#181818;stroke-width:1;"/></g><!--link SA to Manage--><g class="link" data-entity-1="SA" data-entity-2="Manage" data-source-line="20" data-uid="lnk23" id="link_SA_Manage"><path d="M436.26,384.07 C452.13,392.1 469.59,399.38 486.73,403.55 C505.91,408.22 521.295,409.3139 540.715,408.5239" fill="none" id="SA-to-Manage" style="stroke:#181818;stroke-width:1;"/><polygon fill="#181818" points="546.71,408.28,537.5549,404.6491,541.7141,408.4832,537.88,412.6425,546.71,408.28" style="stroke:#181818;stroke-width:1;"/><text fill="#000000" font-family="sans-serif" font-size="13" lengthAdjust="spacing" textLength="4.1323" x="487.73" y="248.6169">&#160;</text><text fill="#000000" font-family="sans-serif" font-size="13" lengthAdjust="spacing" textLength="4.1323" x="487.73" y="263.7497">&#160;</text><text fill="#000000" font-family="sans-serif" font-size="13" lengthAdjust="spacing" textLength="4.1323" x="487.73" y="278.8825">&#160;</text><text fill="#000000" font-family="sans-serif" font-size="13" lengthAdjust="spacing" textLength="4.1323" x="487.73" y="294.0153">&#160;</text><text fill="#000000" font-family="sans-serif" font-size="13" lengthAdjust="spacing" textLength="4.1323" x="487.73" y="309.1481">&#160;</text><text fill="#000000" font-family="sans-serif" font-size="13" lengthAdjust="spacing" textLength="4.1323" x="487.73" y="324.281">&#160;</text><text fill="#000000" font-family="sans-serif" font-size="13" lengthAdjust="spacing" textLength="4.1323" x="487.73" y="339.4138">&#160;</text><text fill="#000000" font-family="sans-serif" font-size="13" lengthAdjust="spacing" textLength="4.1323" x="487.73" y="354.5466">&#160;</text><text fill="#000000" font-family="sans-serif" font-size="13" lengthAdjust="spacing" textLength="4.1323" x="487.73" y="369.6794">&#160;</text><text fill="#000000" font-family="sans-serif" font-size="13" lengthAdjust="spacing" textLength="4.1323" x="487.73" y="384.8122">&#160;</text><text fill="#000000" font-family="sans-serif" font-size="13" lengthAdjust="spacing" textLength="4.1323" x="487.73" y="399.945">&#160;</text></g><!--link Manage to Create game session--><g class="link" data-entity-1="Manage" data-entity-2="Create game session" data-source-line="21" data-uid="lnk25" id="link_Manage_Create game session"><path d="M624.89,376.6 C658.24,322.19 738.51,192.89 756.83,178.55 C770.19,168.1 780.9932,162.3801 796.9732,156.7301" fill="none" id="Manage-to-Create game session" style="stroke:#181818;stroke-width:1;"/><polygon fill="#181818" points="802.63,154.73,792.8114,153.9589,797.916,156.3967,795.4781,161.5013,802.63,154.73" style="stroke:#181818;stroke-width:1;"/></g><!--link Manage to Set session dates--><g class="link" data-entity-1="Manage" data-entity-2="Set session dates" data-source-line="22" data-uid="lnk27" id="link_Manage_Set session dates"><path d="M626.99,377.03 C651.74,343.82 701.23,283.39 756.83,248.55 C772.57,238.69 785.6353,233.0845 803.0553,227.7245" fill="none" id="Manage-to-Set session dates" style="stroke:#181818;stroke-width:1;"/><polygon fill="#181818" points="808.79,225.96,799.0116,224.7837,804.0111,227.4304,801.3643,232.4299,808.79,225.96" style="stroke:#181818;stroke-width:1;"/></g><!--link Manage to Delete game session--><g class="link" data-entity-1="Manage" data-entity-2="Delete game session" data-source-line="23" data-uid="lnk29" id="link_Manage_Delete game session"><path d="M645.35,379.88 C674.57,363.16 717.59,339.65 756.83,322.55 C774.5,314.85 788.6453,309.5495 806.3853,303.5595" fill="none" id="Manage-to-Delete game session" style="stroke:#181818;stroke-width:1;"/><polygon fill="#181818" points="812.07,301.64,802.2633,300.7294,807.3328,303.2396,804.8226,308.309,812.07,301.64" style="stroke:#181818;stroke-width:1;"/></g><!--link Manage to Allocate user to game--><g class="link" data-entity-1="Manage" data-entity-2="Allocate user to game" data-source-line="24" data-uid="lnk31" id="link_Manage_Allocate user to game"><path d="M670.06,391.12 C705.94,385.46 745.9334,379.1555 784.0734,373.1355" fill="none" id="Manage-to-Allocate user to game" style="stroke:#181818;stroke-width:1;"/><polygon fill="#181818" points="790,372.2,780.4864,369.6521,785.0611,372.9795,781.7337,377.5543,790,372.2" style="stroke:#181818;stroke-width:1;"/></g><!--link Manage to Allow self registration\nfor users--><g class="link" data-entity-1="Manage" data-entity-2="Allow self registration\nfor users" data-source-line="25" data-uid="lnk33" id="link_Manage_Allow self registration\nfor users"><path d="M670.38,409.79 C703.19,414.84 738.3999,420.2465 774.2999,425.7765" fill="none" id="Manage-to-Allow self registration\nfor users" style="stroke:#181818;stroke-width:1;"/><polygon fill="#181818" points="780.23,426.69,771.9439,421.3664,775.2883,425.9288,770.7259,429.2732,780.23,426.69" style="stroke:#181818;stroke-width:1;"/></g><!--link Manage to Generate anonymous users--><g class="link" data-entity-1="Manage" data-entity-2="Generate anonymous users" data-source-line="26" data-uid="lnk35" id="link_Manage_Generate anonymous users"><path d="M645.18,421.22 C674.47,438.18 717.7,462.28 756.83,480.55 C772.93,488.07 785.1915,493.2463 801.6215,499.6663" fill="none" id="Manage-to-Generate anonymous users" style="stroke:#181818;stroke-width:1;"/><polygon fill="#181818" points="807.21,501.85,800.283,494.8488,802.5529,500.0302,797.3714,502.3001,807.21,501.85" style="stroke:#181818;stroke-width:1;"/></g><!--link Manage to Show sessions with status--><g class="link" data-entity-1="Manage" data-entity-2="Show sessions with status" data-source-line="27" data-uid="lnk37" id="link_Manage_Show sessions with status"><path d="M625.76,424.2 C649.87,459.35 699.62,525.44 756.83,564.55 C769.77,573.39 779.3254,578.4219 794.0854,584.1419" fill="none" id="Manage-to-Show sessions with status" style="stroke:#181818;stroke-width:1;"/><polygon fill="#181818" points="799.68,586.31,792.7335,579.3281,795.0178,584.5033,789.8427,586.7876,799.68,586.31" style="stroke:#181818;stroke-width:1;"/></g><!--link Manage to Show facilitators and\nplayers for session--><g class="link" data-entity-1="Manage" data-entity-2="Show facilitators and\nplayers for session" data-source-line="28" data-uid="lnk39" id="link_Manage_Show facilitators and\nplayers for session"><path d="M618.72,425.01 C636.66,473.63 683.09,583.08 756.83,645.55 C767.95,654.97 775.9304,660.0543 789.5204,665.9143" fill="none" id="Manage-to-Show facilitators and\nplayers for session" style="stroke:#181818;stroke-width:1;"/><polygon fill="#181818" points="795.03,668.29,788.3494,661.0533,790.4387,666.3102,785.1818,668.3995,795.03,668.29" style="stroke:#181818;stroke-width:1;"/></g><!--SRC=[ZPB1QeGm48RlUOh1qthm1KefI0izzLBPcvTKHmt4PCb4PA4FtqcYHNVjKd99c6_-cVap6ZiFte9J_U2XLGuRhwmH8B8AYVWAiXsLKUITzDPb80cgKfm97Jn_5mMKsx3OlHB0TCABuWLE5NguIABPkZONDtma8hifoZtambYFy6MzjwC0k6XvPOWpEjaehNoiZQQ5m0bng97KNnrAbfeOo1znRwZnFzmd4ayKiCrO3_XgfMNJiC5iGVOXZUonDhqS4IYv7dq-fKWkgZ8cfoSyGLQR-vE99RwTSwkPxu3Go1A0bb7QXvVv_yuljRRDQcLOeO3U8pDdwmuSzhzErARZdmjfDpNVqQ0Baj9OSntjH4TKDKJHs1B1hFm0n0im7M6RzI1MRMkJLeSWjB3EzGC0]--></g></svg>