<svg xmlns="http://www.w3.org/2000/svg" xmlns:xlink="http://www.w3.org/1999/xlink" contentStyleType="text/css" data-diagram-type="DESCRIPTION" height="1070px" preserveAspectRatio="none" style="width:1217px;height:1070px;background:#FFFFFF;" version="1.1" viewBox="0 0 1217 1070" width="1217px" zoomAndPan="magnify"><defs/><g><!--entity SF--><g class="entity" data-entity="SF" data-source-line="3" data-uid="ent0002" id="entity_SF"><ellipse cx="371.5785" cy="397.76" fill="#F1F1F1" rx="8" ry="8" style="stroke:#181818;stroke-width:0.5;"/><path d="M371.5785,405.76 L371.5785,432.76 M358.5785,413.76 L384.5785,413.76 M371.5785,432.76 L358.5785,447.76 M371.5785,432.76 L384.5785,447.76" fill="none" style="stroke:#181818;stroke-width:0.5;"/><text fill="#000000" font-family="sans-serif" font-size="14" lengthAdjust="spacing" textLength="53.416" x="336.64" y="462.2551">Session</text><text fill="#000000" font-family="sans-serif" font-size="14" lengthAdjust="spacing" textLength="69.877" x="336.64" y="478.552">Facilitator</text></g><!--entity User--><g class="entity" data-entity="User" data-source-line="4" data-uid="ent0003" id="entity_User"><ellipse cx="21.9551" cy="292.9" fill="#F1F1F1" rx="8" ry="8" style="stroke:#181818;stroke-width:0.5;"/><path d="M21.9551,300.9 L21.9551,327.9 M8.9551,308.9 L34.9551,308.9 M21.9551,327.9 L8.9551,342.9 M21.9551,327.9 L34.9551,342.9" fill="none" style="stroke:#181818;stroke-width:0.5;"/><text fill="#000000" font-family="sans-serif" font-size="14" lengthAdjust="spacing" textLength="31.9102" x="6" y="357.3951">User</text></g><!--entity Administrator--><g class="entity" data-entity="Administrator" data-source-line="4" data-uid="ent0004" id="entity_Administrator"><ellipse cx="163.1713" cy="247.9" fill="#F1F1F1" rx="8" ry="8" style="stroke:#181818;stroke-width:0.5;"/><path d="M163.1713,255.9 L163.1713,282.9 M150.1713,263.9 L176.1713,263.9 M163.1713,282.9 L150.1713,297.9 M163.1713,282.9 L176.1713,297.9" fill="none" style="stroke:#181818;stroke-width:0.5;"/><text fill="#000000" font-family="sans-serif" font-size="14" lengthAdjust="spacing" textLength="95.6826" x="115.33" y="312.3951">Administrator</text></g><!--entity Set password--><g class="entity" data-entity="Set password" data-source-line="7" data-uid="ent0007" id="entity_Set password"><ellipse cx="163.1679" cy="366.5516" fill="#F1F1F1" rx="65.2579" ry="15.4516" style="stroke:#181818;stroke-width:0.5;"/><text fill="#000000" font-family="sans-serif" font-size="14" lengthAdjust="spacing" textLength="94.1514" x="116.0922" y="371.2">Set password</text></g><!--entity User administration--><g class="entity" data-entity="User administration" data-source-line="9" data-uid="ent0009" id="entity_User administration"><ellipse cx="371.583" cy="153.5506" fill="#F1F1F1" rx="83.153" ry="19.0306" style="stroke:#181818;stroke-width:0.5;"/><text fill="#000000" font-family="sans-serif" font-size="14" lengthAdjust="spacing" textLength="138.0518" x="302.5571" y="158.199">User administration</text></g><g class="entity" data-entity="GMN11" data-source-line="11" data-uid="ent0012" id="entity_GMN11"><path d="M340.65,207.99 L340.65,233.1228 A0,0 0 0 0 340.65,233.1228 L402.5162,233.1228 A0,0 0 0 0 402.5162,233.1228 L402.5162,217.99 L392.5162,207.99 L375.58,207.99 L371.58,173.02 L367.58,207.99 L340.65,207.99 A0,0 0 0 0 340.65,207.99" fill="#FEFFDD" style="stroke:#181818;stroke-width:0.5;"/><path d="M392.5162,207.99 L392.5162,217.99 L402.5162,217.99 L392.5162,207.99" fill="#FEFFDD" style="stroke:#181818;stroke-width:0.5;"/><text fill="#000000" font-family="sans-serif" font-size="13" lengthAdjust="spacing" textLength="40.8662" x="346.65" y="225.0569">player</text></g><!--entity Create user--><g class="entity" data-entity="Create user" data-source-line="14" data-uid="ent0014" id="entity_Create user"><ellipse cx="601.2843" cy="20.5469" fill="#F1F1F1" rx="60.7343" ry="14.5469" style="stroke:#181818;stroke-width:0.5;"/><text fill="#000000" font-family="sans-serif" font-size="14" lengthAdjust="spacing" textLength="81.8125" x="560.378" y="25.1953">Create user</text></g><!--entity Delete user--><g class="entity" data-entity="Delete user" data-source-line="15" data-uid="ent0016" id="entity_Delete user"><ellipse cx="601.2753" cy="84.5536" fill="#F1F1F1" rx="60.2653" ry="14.5236" style="stroke:#181818;stroke-width:0.5;"/><text fill="#000000" font-family="sans-serif" font-size="14" lengthAdjust="spacing" textLength="80.9854" x="560.7826" y="89.2021">Delete user</text></g><!--entity Reset user password--><g class="entity" data-entity="Reset user password" data-source-line="16" data-uid="ent0018" id="entity_Reset user password"><ellipse cx="601.2799" cy="153.55" fill="#F1F1F1" rx="86.5499" ry="19.71" style="stroke:#181818;stroke-width:0.5;"/><text fill="#000000" font-family="sans-serif" font-size="14" lengthAdjust="spacing" textLength="145.8857" x="528.337" y="158.1984">Reset user password</text></g><!--entity Set user access--><g class="entity" data-entity="Set user access" data-source-line="17" data-uid="ent0020" id="entity_Set user access"><ellipse cx="601.2761" cy="224.5472" fill="#F1F1F1" rx="71.2861" ry="16.6572" style="stroke:#181818;stroke-width:0.5;"/><text fill="#000000" font-family="sans-serif" font-size="14" lengthAdjust="spacing" textLength="109.6006" x="546.4759" y="229.1957">Set user access</text></g><!--entity User allocation--><g class="entity" data-entity="User allocation" data-source-line="19" data-uid="ent0022" id="entity_User allocation"><ellipse cx="601.2789" cy="292.5518" fill="#F1F1F1" rx="69.2089" ry="16.2418" style="stroke:#181818;stroke-width:0.5;"/><text fill="#000000" font-family="sans-serif" font-size="14" lengthAdjust="spacing" textLength="104.3779" x="549.0899" y="297.2002">User allocation</text></g><!--entity Allocate user to game--><g class="entity" data-entity="Allocate user to game" data-source-line="20" data-uid="ent0024" id="entity_Allocate user to game"><ellipse cx="854.7463" cy="132.5493" fill="#F1F1F1" rx="90.0963" ry="20.4193" style="stroke:#181818;stroke-width:0.5;"/><text fill="#000000" font-family="sans-serif" font-size="14" lengthAdjust="spacing" textLength="153.959" x="777.7668" y="137.1977">Allocate user to game</text></g><!--entity Deallocate user from game--><g class="entity" data-entity="Deallocate user from game" data-source-line="21" data-uid="ent0026" id="entity_Deallocate user from game"><ellipse cx="854.7539" cy="211.5528" fill="#F1F1F1" rx="106.9139" ry="23.7828" style="stroke:#181818;stroke-width:0.5;"/><text fill="#000000" font-family="sans-serif" font-size="14" lengthAdjust="spacing" textLength="191.1875" x="759.1601" y="216.2012">Deallocate user from game</text></g><!--entity Show players for session--><g class="entity" data-entity="Show players for session" data-source-line="22" data-uid="ent0028" id="entity_Show players for session"><ellipse cx="854.7523" cy="292.5485" fill="#F1F1F1" rx="98.8423" ry="22.1685" style="stroke:#181818;stroke-width:0.5;"/><text fill="#000000" font-family="sans-serif" font-size="14" lengthAdjust="spacing" textLength="173.5029" x="768.0008" y="297.1969">Show players for session</text></g><!--entity Brief game--><g class="entity" data-entity="Brief game" data-source-line="24" data-uid="ent0030" id="entity_Brief game"><ellipse cx="601.2782" cy="402.5536" fill="#F1F1F1" rx="57.4182" ry="14.5236" style="stroke:#181818;stroke-width:0.5;"/><text fill="#000000" font-family="sans-serif" font-size="14" lengthAdjust="spacing" textLength="76.959" x="562.7987" y="407.2021">Brief game</text></g><!--entity Start/stop game--><g class="entity" data-entity="Start/stop game" data-source-line="26" data-uid="ent0032" id="entity_Start/stop game"><ellipse cx="601.2771" cy="468.5474" fill="#F1F1F1" rx="72.7871" ry="16.9574" style="stroke:#181818;stroke-width:0.5;"/><text fill="#000000" font-family="sans-serif" font-size="14" lengthAdjust="spacing" textLength="113.3193" x="544.6175" y="473.1959">Start/stop game</text></g><!--entity Start game--><g class="entity" data-entity="Start game" data-source-line="27" data-uid="ent0034" id="entity_Start game"><ellipse cx="854.754" cy="364.5536" fill="#F1F1F1" rx="58.414" ry="14.5236" style="stroke:#181818;stroke-width:0.5;"/><text fill="#000000" font-family="sans-serif" font-size="14" lengthAdjust="spacing" textLength="78.3672" x="815.5704" y="369.2021">Start game</text></g><!--entity Change game speed--><g class="entity" data-entity="Change game speed" data-source-line="28" data-uid="ent0036" id="entity_Change game speed"><ellipse cx="854.7508" cy="433.5502" fill="#F1F1F1" rx="85.9508" ry="19.5902" style="stroke:#181818;stroke-width:0.5;"/><text fill="#000000" font-family="sans-serif" font-size="14" lengthAdjust="spacing" textLength="144.5117" x="782.4949" y="438.1986">Change game speed</text></g><!--entity Pause game--><g class="entity" data-entity="Pause game" data-source-line="29" data-uid="ent0038" id="entity_Pause game"><ellipse cx="854.7548" cy="502.555" fill="#F1F1F1" rx="62.2248" ry="14.845" style="stroke:#181818;stroke-width:0.5;"/><text fill="#000000" font-family="sans-serif" font-size="14" lengthAdjust="spacing" textLength="85.9688" x="811.7705" y="507.2034">Pause game</text></g><!--entity Stop game--><g class="entity" data-entity="Stop game" data-source-line="30" data-uid="ent0040" id="entity_Stop game"><ellipse cx="854.7467" cy="566.5536" fill="#F1F1F1" rx="56.7367" ry="14.5236" style="stroke:#181818;stroke-width:0.5;"/><text fill="#000000" font-family="sans-serif" font-size="14" lengthAdjust="spacing" textLength="75.9951" x="816.7491" y="571.2021">Stop game</text></g><!--entity Facilitate session--><g class="entity" data-entity="Facilitate session" data-source-line="32" data-uid="ent0042" id="entity_Facilitate session"><ellipse cx="601.2784" cy="771.5517" fill="#F1F1F1" rx="75.7084" ry="17.5417" style="stroke:#181818;stroke-width:0.5;"/><text fill="#000000" font-family="sans-serif" font-size="14" lengthAdjust="spacing" textLength="120.4424" x="541.0573" y="776.2001">Facilitate session</text></g><!--entity Add news item--><g class="entity" data-entity="Add news item" data-source-line="33" data-uid="ent0044" id="entity_Add news item"><ellipse cx="854.7538" cy="632.5508" fill="#F1F1F1" rx="69.1038" ry="16.2208" style="stroke:#181818;stroke-width:0.5;"/><text fill="#000000" font-family="sans-serif" font-size="14" lengthAdjust="spacing" textLength="104.1113" x="802.6982" y="637.1992">Add news item</text></g><!--entity Add intervention--><g class="entity" data-entity="Add intervention" data-source-line="34" data-uid="ent0046" id="entity_Add intervention"><ellipse cx="854.7538" cy="700.5488" fill="#F1F1F1" rx="74.2938" ry="17.2588" style="stroke:#181818;stroke-width:0.5;"/><text fill="#000000" font-family="sans-serif" font-size="14" lengthAdjust="spacing" textLength="117.0107" x="796.2484" y="705.1972">Add intervention</text></g><!--entity Trigger intervention--><g class="entity" data-entity="Trigger intervention" data-source-line="35" data-uid="ent0048" id="entity_Trigger intervention"><ellipse cx="854.7534" cy="771.5487" fill="#F1F1F1" rx="83.9934" ry="19.1987" style="stroke:#181818;stroke-width:0.5;"/><text fill="#000000" font-family="sans-serif" font-size="14" lengthAdjust="spacing" textLength="140" x="784.7534" y="776.1971">Trigger intervention</text></g><!--entity Chat with players--><g class="entity" data-entity="Chat with players" data-source-line="36" data-uid="ent0050" id="entity_Chat with players"><ellipse cx="854.7541" cy="843.5528" fill="#F1F1F1" rx="76.6141" ry="17.7228" style="stroke:#181818;stroke-width:0.5;"/><text fill="#000000" font-family="sans-serif" font-size="14" lengthAdjust="spacing" textLength="122.623" x="793.4425" y="848.2012">Chat with players</text></g><!--entity Show actor map--><g class="entity" data-entity="Show actor map" data-source-line="37" data-uid="ent0052" id="entity_Show actor map"><ellipse cx="854.7493" cy="913.5519" fill="#F1F1F1" rx="73.0093" ry="17.0019" style="stroke:#181818;stroke-width:0.5;"/><text fill="#000000" font-family="sans-serif" font-size="14" lengthAdjust="spacing" textLength="113.8662" x="797.8162" y="918.2003">Show actor map</text></g><!--entity Show scores--><g class="entity" data-entity="Show scores" data-source-line="38" data-uid="ent0054" id="entity_Show scores"><ellipse cx="854.7528" cy="980.5526" fill="#F1F1F1" rx="62.7628" ry="14.9526" style="stroke:#181818;stroke-width:0.5;"/><text fill="#000000" font-family="sans-serif" font-size="14" lengthAdjust="spacing" textLength="87.4453" x="811.0302" y="985.201">Show scores</text></g><!--entity Send data to\ngame data platform--><g class="entity" data-entity="Send data to\ngame data platform" data-source-line="40" data-uid="ent0056" id="entity_Send data to\ngame data platform"><ellipse cx="1116.5866" cy="632.5494" fill="#F1F1F1" rx="94.9266" ry="24.4194" style="stroke:#181818;stroke-width:0.5;"/><text fill="#000000" font-family="sans-serif" font-size="14" lengthAdjust="spacing" textLength="89.749" x="1071.7121" y="626.6524">Send data to</text><text fill="#000000" font-family="sans-serif" font-size="14" lengthAdjust="spacing" textLength="139.8838" x="1046.6447" y="642.9492">game data platform</text></g><!--entity Debrief game--><g class="entity" data-entity="Debrief game" data-source-line="46" data-uid="ent0062" id="entity_Debrief game"><ellipse cx="601.2806" cy="980.5541" fill="#F1F1F1" rx="65.8206" ry="15.5641" style="stroke:#181818;stroke-width:0.5;"/><text fill="#000000" font-family="sans-serif" font-size="14" lengthAdjust="spacing" textLength="95.6348" x="553.4632" y="985.2026">Debrief game</text></g><!--entity Show gameplay--><g class="entity" data-entity="Show gameplay" data-source-line="48" data-uid="ent0065" id="entity_Show gameplay"><ellipse cx="854.7541" cy="1047.5468" fill="#F1F1F1" rx="72.0841" ry="16.8168" style="stroke:#181818;stroke-width:0.5;"/><text fill="#000000" font-family="sans-serif" font-size="14" lengthAdjust="spacing" textLength="111.583" x="798.9626" y="1052.1953">Show gameplay</text></g><!--reverse link User to Administrator--><g class="link" data-entity-1="User" data-entity-2="Administrator" data-source-line="4" data-uid="lnk5" id="link_User_Administrator"><path d="M55.5168,312.0317 C73.9168,306.0817 88.42,301.39 115.1,292.77" fill="none" id="User-backto-Administrator" style="stroke:#181818;stroke-width:1;"/><polygon fill="none" points="38.39,317.57,57.3629,317.7406,53.6707,306.3228,38.39,317.57" style="stroke:#181818;stroke-width:1;"/></g><!--reverse link Administrator to SF--><g class="link" data-entity-1="Administrator" data-entity-2="SF" data-source-line="5" data-uid="lnk6" id="link_Administrator_SF"><path d="M225.553,324.5412 C263.633,353.6912 302.05,383.1 336.23,409.26" fill="none" id="Administrator-backto-SF" style="stroke:#181818;stroke-width:1;"/><polygon fill="none" points="211.26,313.6,221.9059,329.3055,229.2001,319.7769,211.26,313.6" style="stroke:#181818;stroke-width:1;"/></g><!--link User to Set password--><g class="link" data-entity-1="User" data-entity-2="Set password" data-source-line="7" data-uid="lnk8" id="link_User_Set password"><path d="M38.39,327.43 C58.56,333.81 88.9086,343.4029 116.9286,352.2529" fill="none" id="User-to-Set password" style="stroke:#181818;stroke-width:1;"/><polygon fill="#181818" points="122.65,354.06,115.2726,347.5351,117.8822,352.5541,112.8632,355.1636,122.65,354.06" style="stroke:#181818;stroke-width:1;"/></g><!--link Administrator to User administration--><g class="link" data-entity-1="Administrator" data-entity-2="User administration" data-source-line="9" data-uid="lnk10" id="link_Administrator_User administration"><path d="M211.48,241.29 C234.11,224.76 261.98,205.59 288.43,190.55 C301.34,183.21 310.5032,178.648 323.8132,172.758" fill="none" id="Administrator-to-User administration" style="stroke:#181818;stroke-width:1;"/><polygon fill="#181818" points="329.3,170.33,319.4512,170.3142,324.7277,172.3534,322.6885,177.6299,329.3,170.33" style="stroke:#181818;stroke-width:1;"/></g><!--link User administration to Create user--><g class="link" data-entity-1="User administration" data-entity-2="Create user" data-source-line="14" data-uid="lnk15" id="link_User administration_Create user"><path d="M394.54,135.18 C421.5,113.3 469.27,76.68 514.73,52.55 C529.86,44.53 541.7882,39.5661 557.0682,34.2061" fill="none" id="User administration-to-Create user" style="stroke:#181818;stroke-width:1;"/><polygon fill="#181818" points="562.73,32.22,552.9133,31.4246,558.0119,33.8751,555.5614,38.9736,562.73,32.22" style="stroke:#181818;stroke-width:1;"/></g><!--link User administration to Delete user--><g class="link" data-entity-1="User administration" data-entity-2="Delete user" data-source-line="15" data-uid="lnk17" id="link_User administration_Delete user"><path d="M423.11,138.24 C465.3,125.46 518.7581,109.2608 556.8881,97.7008" fill="none" id="User administration-to-Delete user" style="stroke:#181818;stroke-width:1;"/><polygon fill="#181818" points="562.63,95.96,552.8566,94.7432,557.8451,97.4107,555.1777,102.3991,562.63,95.96" style="stroke:#181818;stroke-width:1;"/></g><!--link User administration to Reset user password--><g class="link" data-entity-1="User administration" data-entity-2="Reset user password" data-source-line="16" data-uid="lnk19" id="link_User administration_Reset user password"><path d="M455.11,153.55 C474.45,153.55 489.11,153.55 508.59,153.55" fill="none" id="User administration-to-Reset user password" style="stroke:#181818;stroke-width:1;"/><polygon fill="#181818" points="514.59,153.55,505.59,149.55,509.59,153.55,505.59,157.55,514.59,153.55" style="stroke:#181818;stroke-width:1;"/></g><!--link User administration to Set user access--><g class="link" data-entity-1="User administration" data-entity-2="Set user access" data-source-line="17" data-uid="lnk21" id="link_User administration_Set user access"><path d="M422.27,169.05 C462.57,181.61 513.0716,197.3653 551.4916,209.3353" fill="none" id="User administration-to-Set user access" style="stroke:#181818;stroke-width:1;"/><polygon fill="#181818" points="557.22,211.12,549.8172,204.624,552.4463,209.6327,547.4376,212.2619,557.22,211.12" style="stroke:#181818;stroke-width:1;"/></g><!--link SF to User allocation--><g class="link" data-entity-1="SF" data-entity-2="User allocation" data-source-line="19" data-uid="lnk23" id="link_SF_User allocation"><path d="M406.67,414.14 C453.07,385 529.9091,336.7513 570.6991,311.1313" fill="none" id="SF-to-User allocation" style="stroke:#181818;stroke-width:1;"/><polygon fill="#181818" points="575.78,307.94,566.0311,309.3397,571.5459,310.5994,570.2862,316.1142,575.78,307.94" style="stroke:#181818;stroke-width:1;"/></g><!--link User allocation to Allocate user to game--><g class="link" data-entity-1="User allocation" data-entity-2="Allocate user to game" data-source-line="20" data-uid="lnk25" id="link_User allocation_Allocate user to game"><path d="M647.61,280.22 C661.46,275.02 676.11,267.95 687.83,258.55 C724.78,228.96 710.39,199.52 747.83,170.55 C760.73,160.57 770.8513,155.1108 786.2213,149.5208" fill="none" id="User allocation-to-Allocate user to game" style="stroke:#181818;stroke-width:1;"/><polygon fill="#181818" points="791.86,147.47,782.0349,146.787,787.1611,149.179,784.7692,154.3052,791.86,147.47" style="stroke:#181818;stroke-width:1;"/></g><!--link User allocation to Deallocate user from game--><g class="link" data-entity-1="User allocation" data-entity-2="Deallocate user from game" data-source-line="21" data-uid="lnk27" id="link_User allocation_Deallocate user from game"><path d="M643.52,279.27 C684.07,266.21 740.7291,247.9599 787.0091,233.0499" fill="none" id="User allocation-to-Deallocate user from game" style="stroke:#181818;stroke-width:1;"/><polygon fill="#181818" points="792.72,231.21,782.927,230.1625,787.9609,232.7432,785.3802,237.7771,792.72,231.21" style="stroke:#181818;stroke-width:1;"/></g><!--link User allocation to Show players for session--><g class="link" data-entity-1="User allocation" data-entity-2="Show players for session" data-source-line="22" data-uid="lnk29" id="link_User allocation_Show players for session"><path d="M670.66,292.55 C696.84,292.55 721.24,292.55 749.66,292.55" fill="none" id="User allocation-to-Show players for session" style="stroke:#181818;stroke-width:1;"/><polygon fill="#181818" points="755.66,292.55,746.66,288.55,750.66,292.55,746.66,296.55,755.66,292.55" style="stroke:#181818;stroke-width:1;"/></g><!--link SF to Brief game--><g class="link" data-entity-1="SF" data-entity-2="Brief game" data-source-line="24" data-uid="lnk31" id="link_SF_Brief game"><path d="M406.67,430.61 C444.88,425.07 501.2421,416.9111 544.8221,410.5911" fill="none" id="SF-to-Brief game" style="stroke:#181818;stroke-width:1;"/><polygon fill="#181818" points="550.76,409.73,541.2791,407.0631,545.8118,410.4476,542.4272,414.9803,550.76,409.73" style="stroke:#181818;stroke-width:1;"/></g><!--link SF to Start/stop game--><g class="link" data-entity-1="SF" data-entity-2="Start/stop game" data-source-line="26" data-uid="lnk33" id="link_SF_Start/stop game"><path d="M406.67,440.49 C441.41,445.53 490.1119,452.5901 532.5119,458.7301" fill="none" id="SF-to-Start/stop game" style="stroke:#181818;stroke-width:1;"/><polygon fill="#181818" points="538.45,459.59,530.1162,454.3414,533.5016,458.8734,528.9696,462.2589,538.45,459.59" style="stroke:#181818;stroke-width:1;"/></g><!--link Start/stop game to Start game--><g class="link" data-entity-1="Start/stop game" data-entity-2="Start game" data-source-line="27" data-uid="lnk35" id="link_Start/stop game_Start game"><path d="M642.57,454.32 C657.1,448.72 673.45,441.88 687.83,434.55 C715.95,420.22 719.13,409.68 747.83,396.55 C767.92,387.36 785.5397,381.5425 805.2397,376.1925" fill="none" id="Start/stop game-to-Start game" style="stroke:#181818;stroke-width:1;"/><polygon fill="#181818" points="811.03,374.62,801.2963,373.1185,806.2048,375.9304,803.3929,380.8389,811.03,374.62" style="stroke:#181818;stroke-width:1;"/></g><!--link Start/stop game to Change game speed--><g class="link" data-entity-1="Start/stop game" data-entity-2="Change game speed" data-source-line="28" data-uid="lnk37" id="link_Start/stop game_Change game speed"><path d="M664.76,459.86 C699.82,454.98 737.7972,449.6863 774.4772,444.5863" fill="none" id="Start/stop game-to-Change game speed" style="stroke:#181818;stroke-width:1;"/><polygon fill="#181818" points="780.42,443.76,770.9549,441.0376,775.4676,444.4486,772.0566,448.9613,780.42,443.76" style="stroke:#181818;stroke-width:1;"/></g><!--link Start/stop game to Pause game--><g class="link" data-entity-1="Start/stop game" data-entity-2="Pause game" data-source-line="29" data-uid="lnk39" id="link_Start/stop game_Pause game"><path d="M665.09,477.05 C706.55,482.65 754.364,489.1166 793.884,494.4566" fill="none" id="Start/stop game-to-Pause game" style="stroke:#181818;stroke-width:1;"/><polygon fill="#181818" points="799.83,495.26,791.4467,490.0909,794.875,494.5905,790.3754,498.0188,799.83,495.26" style="stroke:#181818;stroke-width:1;"/></g><!--link Start/stop game to Stop game--><g class="link" data-entity-1="Start/stop game" data-entity-2="Stop game" data-source-line="30" data-uid="lnk41" id="link_Start/stop game_Stop game"><path d="M633.57,484.2 C662.71,498.42 707.58,519.42 747.83,534.55 C769.59,542.73 788.6686,548.6896 808.8286,554.4196" fill="none" id="Start/stop game-to-Stop game" style="stroke:#181818;stroke-width:1;"/><polygon fill="#181818" points="814.6,556.06,807.0365,549.7518,809.7905,554.693,804.8493,557.447,814.6,556.06" style="stroke:#181818;stroke-width:1;"/></g><!--link SF to Facilitate session--><g class="link" data-entity-1="SF" data-entity-2="Facilitate session" data-source-line="32" data-uid="lnk43" id="link_SF_Facilitate session"><path d="M404.24,482.27 C455.44,557.83 550.7639,698.4832 584.9339,748.9032" fill="none" id="SF-to-Facilitate session" style="stroke:#181818;stroke-width:1;"/><polygon fill="#181818" points="588.3,753.87,586.5621,744.1757,585.4949,749.731,579.9397,748.6638,588.3,753.87" style="stroke:#181818;stroke-width:1;"/></g><!--link Facilitate session to Add news item--><g class="link" data-entity-1="Facilitate session" data-entity-2="Add news item" data-source-line="33" data-uid="lnk45" id="link_Facilitate session_Add news item"><path d="M621.64,754.21 C648.31,731.1 698.67,690.26 747.83,665.55 C765.73,656.56 780.7926,651.0745 799.2326,645.7845" fill="none" id="Facilitate session-to-Add news item" style="stroke:#181818;stroke-width:1;"/><polygon fill="#181818" points="805,644.13,795.2459,642.7669,800.1939,645.5088,797.452,650.4567,805,644.13" style="stroke:#181818;stroke-width:1;"/></g><!--link Facilitate session to Add intervention--><g class="link" data-entity-1="Facilitate session" data-entity-2="Add intervention" data-source-line="34" data-uid="lnk47" id="link_Facilitate session_Add intervention"><path d="M650.77,757.86 C695.58,745.21 755.9957,728.1501 800.4857,715.5901" fill="none" id="Facilitate session-to-Add intervention" style="stroke:#181818;stroke-width:1;"/><polygon fill="#181818" points="806.26,713.96,796.5118,712.5557,801.4481,715.3185,798.6853,720.2548,806.26,713.96" style="stroke:#181818;stroke-width:1;"/></g><!--link Facilitate session to Trigger intervention--><g class="link" data-entity-1="Facilitate session" data-entity-2="Trigger intervention" data-source-line="35" data-uid="lnk49" id="link_Facilitate session_Trigger intervention"><path d="M677.39,771.55 C706.77,771.55 734.57,771.55 764.68,771.55" fill="none" id="Facilitate session-to-Trigger intervention" style="stroke:#181818;stroke-width:1;"/><polygon fill="#181818" points="770.68,771.55,761.68,767.55,765.68,771.55,761.68,775.55,770.68,771.55" style="stroke:#181818;stroke-width:1;"/></g><!--link Facilitate session to Chat with players--><g class="link" data-entity-1="Facilitate session" data-entity-2="Chat with players" data-source-line="36" data-uid="lnk51" id="link_Facilitate session_Chat with players"><path d="M650.17,785.27 C694.63,798 754.7317,815.2088 799.4117,827.9988" fill="none" id="Facilitate session-to-Chat with players" style="stroke:#181818;stroke-width:1;"/><polygon fill="#181818" points="805.18,829.65,797.6283,823.3276,800.3731,828.274,795.4267,831.0187,805.18,829.65" style="stroke:#181818;stroke-width:1;"/></g><!--link Facilitate session to Show actor map--><g class="link" data-entity-1="Facilitate session" data-entity-2="Show actor map" data-source-line="37" data-uid="lnk53" id="link_Facilitate session_Show actor map"><path d="M621.22,788.56 C647.81,811.69 698.5,853.09 747.83,878.55 C765.56,887.7 780.4261,893.3928 798.7261,899.0328" fill="none" id="Facilitate session-to-Show actor map" style="stroke:#181818;stroke-width:1;"/><polygon fill="#181818" points="804.46,900.8,797.0373,894.3267,799.6818,899.3274,794.6811,901.9718,804.46,900.8" style="stroke:#181818;stroke-width:1;"/></g><!--link Facilitate session to Show scores--><g class="link" data-entity-1="Facilitate session" data-entity-2="Show scores" data-source-line="38" data-uid="lnk55" id="link_Facilitate session_Show scores"><path d="M611.98,789.31 C632.36,824.94 683.12,905.41 747.83,948.55 C764.29,959.53 778.8462,965.3283 797.3062,970.1683" fill="none" id="Facilitate session-to-Show scores" style="stroke:#181818;stroke-width:1;"/><polygon fill="#181818" points="803.11,971.69,795.4187,965.5382,798.2735,970.4219,793.3898,973.2767,803.11,971.69" style="stroke:#181818;stroke-width:1;"/></g><!--link Start game to Send data to\ngame data platform--><g class="link" data-entity-1="Start game" data-entity-2="Send data to\ngame data platform" data-source-line="40" data-uid="lnk57" id="link_Start game_Send data to\ngame data platform"><path d="M905.44,372.06 C924.41,376.76 945.37,384.34 961.66,396.55 C1037.8,453.61 1084.8484,554.6344 1104.1484,602.5544" fill="none" id="Start game-to-Send data to\ngame data platform" style="stroke:#181818;stroke-width:1;"/><polygon fill="#181818" points="1106.39,608.12,1106.738,598.2773,1104.522,603.482,1099.3173,601.266,1106.39,608.12" style="stroke:#181818;stroke-width:1;"/></g><!--link Add news item to Send data to\ngame data platform--><g class="link" data-entity-1="Add news item" data-entity-2="Send data to\ngame data platform" data-source-line="41" data-uid="lnk58" id="link_Add news item_Send data to\ngame data platform"><path d="M924.02,632.55 C953.79,632.55 983.18,632.55 1015.4,632.55" fill="none" id="Add news item-to-Send data to\ngame data platform" style="stroke:#181818;stroke-width:1;"/><polygon fill="#181818" points="1021.4,632.55,1012.4,628.55,1016.4,632.55,1012.4,636.55,1021.4,632.55" style="stroke:#181818;stroke-width:1;"/></g><!--link Add intervention to Send data to\ngame data platform--><g class="link" data-entity-1="Add intervention" data-entity-2="Send data to\ngame data platform" data-source-line="42" data-uid="lnk59" id="link_Add intervention_Send data to\ngame data platform"><path d="M905.54,687.52 C946.21,676.88 998.2655,663.2593 1042.9655,651.5593" fill="none" id="Add intervention-to-Send data to\ngame data platform" style="stroke:#181818;stroke-width:1;"/><polygon fill="#181818" points="1048.77,650.04,1039.0505,648.4493,1043.9329,651.3061,1041.0762,656.1886,1048.77,650.04" style="stroke:#181818;stroke-width:1;"/></g><!--link Trigger intervention to Send data to\ngame data platform--><g class="link" data-entity-1="Trigger intervention" data-entity-2="Send data to\ngame data platform" data-source-line="43" data-uid="lnk60" id="link_Trigger intervention_Send data to\ngame data platform"><path d="M908.83,756.53 C926.07,750.86 945.03,743.77 961.66,735.55 C1007.5,712.92 1050.9961,682.2914 1080.9961,659.5814" fill="none" id="Trigger intervention-to-Send data to\ngame data platform" style="stroke:#181818;stroke-width:1;"/><polygon fill="#181818" points="1085.78,655.96,1076.1899,658.2028,1081.7934,658.9778,1081.0184,664.5813,1085.78,655.96" style="stroke:#181818;stroke-width:1;"/></g><!--link Stop game to Send data to\ngame data platform--><g class="link" data-entity-1="Stop game" data-entity-2="Send data to\ngame data platform" data-source-line="44" data-uid="lnk61" id="link_Stop game_Send data to\ngame data platform"><path d="M896.35,576.87 C936.81,587.14 993.8647,601.6326 1041.9247,613.8426" fill="none" id="Stop game-to-Send data to\ngame data platform" style="stroke:#181818;stroke-width:1;"/><polygon fill="#181818" points="1047.74,615.32,1040.002,609.227,1042.8939,614.0888,1038.0322,616.9807,1047.74,615.32" style="stroke:#181818;stroke-width:1;"/></g><!--link SF to Debrief game--><g class="link" data-entity-1="SF" data-entity-2="Debrief game" data-source-line="46" data-uid="lnk63" id="link_SF_Debrief game"><path d="M388.86,482.08 C414,552.9 464.6,691.65 514.73,806.55 C540.71,866.1 573.3482,929.4491 589.2182,959.6391" fill="none" id="SF-to-Debrief game" style="stroke:#181818;stroke-width:1;"/><polygon fill="#181818" points="592.01,964.95,591.3629,955.1224,589.6835,960.5242,584.2817,958.8448,592.01,964.95" style="stroke:#181818;stroke-width:1;"/></g><!--link Debrief game to Show scores--><g class="link" data-entity-1="Debrief game" data-entity-2="Show scores" data-source-line="47" data-uid="lnk64" id="link_Debrief game_Show scores"><path d="M667.37,980.55 C705.64,980.55 747.77,980.55 785.53,980.55" fill="none" id="Debrief game-to-Show scores" style="stroke:#181818;stroke-width:1;"/><polygon fill="#181818" points="791.53,980.55,782.53,976.55,786.53,980.55,782.53,984.55,791.53,980.55" style="stroke:#181818;stroke-width:1;"/></g><!--link Debrief game to Show gameplay--><g class="link" data-entity-1="Debrief game" data-entity-2="Show gameplay" data-source-line="48" data-uid="lnk66" id="link_Debrief game_Show gameplay"><path d="M646.37,992.3 C691.02,1004.2 754.0823,1020.995 800.0523,1033.245" fill="none" id="Debrief game-to-Show gameplay" style="stroke:#181818;stroke-width:1;"/><polygon fill="#181818" points="805.85,1034.79,798.1834,1028.6074,801.0186,1033.5025,796.1235,1036.3377,805.85,1034.79" style="stroke:#181818;stroke-width:1;"/></g><!--SRC=[bPF1ReCm38RlUGghft50Uu5fKjUgvsbijrvSS4iaI53Y3KtQmyy1Ig5hWTsmypdOl_yKT6HW2qwVSePCEqfPMwD0hHBoNZxtPeUfBZGZMxS2z93ir8Sd1qy_SGphhDH6UtRXM8sY5X2wnUFu6HuIOgZG-zgwB59NV4CqB5xoqaAaZ6M2WsMsfGAe2lmcfyXa40wKkbdKNhTnX5BxAK0qnMsfe2NS6taP8M23EIRuv4nZcegWCdEo6mvQ53RjXloJQRbrcsXx2xiwOKbtwItXY3ywMqvN9BcjEqaz76KDlbtyeDKNf-dOtT8d4qR7ZvvjTRx_EZFWff5DZkP4JGPyHPJT9LzHffhxNzzHtsjlORfCTolPAPw9iQZse9dAEL0R9lT5XcSkVPSdTXBzb_AY2KEjEJ_lPWfkTeXfU4GbLhEaJwsZuCNXSiv-bLUL8QCuRM-QZJIHDC5YZY37M9v_bOs6NrnvKxh5rScrFsPBUjjiwJ1m_ZYy8UTT8CHXYz4l]--></g></svg>