<svg xmlns="http://www.w3.org/2000/svg" xmlns:xlink="http://www.w3.org/1999/xlink" contentStyleType="text/css" data-diagram-type="DESCRIPTION" height="496px" preserveAspectRatio="none" style="width:1092px;height:496px;background:#FFFFFF;" version="1.1" viewBox="0 0 1092 496" width="1092px" zoomAndPan="magnify"><defs/><g><!--entity SA--><g class="entity" data-entity="SA" data-source-line="3" data-uid="ent0002" id="entity_SA"><ellipse cx="373.5754" cy="273.9" fill="#F1F1F1" rx="8" ry="8" style="stroke:#181818;stroke-width:0.5;"/><path d="M373.5754,281.9 L373.5754,308.9 M360.5754,289.9 L386.5754,289.9 M373.5754,308.9 L360.5754,323.9 M373.5754,308.9 L386.5754,323.9" fill="none" style="stroke:#181818;stroke-width:0.5;"/><text fill="#000000" font-family="sans-serif" font-size="14" lengthAdjust="spacing" textLength="152.5508" x="297.3" y="338.3951">Session administrator</text></g><!--entity User--><g class="entity" data-entity="User" data-source-line="4" data-uid="ent0003" id="entity_User"><ellipse cx="21.9551" cy="251.9" fill="#F1F1F1" rx="8" ry="8" style="stroke:#181818;stroke-width:0.5;"/><path d="M21.9551,259.9 L21.9551,286.9 M8.9551,267.9 L34.9551,267.9 M21.9551,286.9 L8.9551,301.9 M21.9551,286.9 L34.9551,301.9" fill="none" style="stroke:#181818;stroke-width:0.5;"/><text fill="#000000" font-family="sans-serif" font-size="14" lengthAdjust="spacing" textLength="31.9102" x="6" y="316.3951">User</text></g><!--entity Administrator--><g class="entity" data-entity="Administrator" data-source-line="4" data-uid="ent0004" id="entity_Administrator"><ellipse cx="164.1713" cy="182.9" fill="#F1F1F1" rx="8" ry="8" style="stroke:#181818;stroke-width:0.5;"/><path d="M164.1713,190.9 L164.1713,217.9 M151.1713,198.9 L177.1713,198.9 M164.1713,217.9 L151.1713,232.9 M164.1713,217.9 L177.1713,232.9" fill="none" style="stroke:#181818;stroke-width:0.5;"/><text fill="#000000" font-family="sans-serif" font-size="14" lengthAdjust="spacing" textLength="95.6826" x="116.33" y="247.3951">Administrator</text></g><!--entity Set password--><g class="entity" data-entity="Set password" data-source-line="7" data-uid="ent0007" id="entity_Set password"><ellipse cx="164.1679" cy="301.5516" fill="#F1F1F1" rx="65.2579" ry="15.4516" style="stroke:#181818;stroke-width:0.5;"/><text fill="#000000" font-family="sans-serif" font-size="14" lengthAdjust="spacing" textLength="94.1514" x="117.0922" y="306.2">Set password</text></g><!--entity User administration--><g class="entity" data-entity="User administration" data-source-line="9" data-uid="ent0009" id="entity_User administration"><ellipse cx="373.583" cy="150.5506" fill="#F1F1F1" rx="83.153" ry="19.0306" style="stroke:#181818;stroke-width:0.5;"/><text fill="#000000" font-family="sans-serif" font-size="14" lengthAdjust="spacing" textLength="138.0518" x="304.5571" y="155.199">User administration</text></g><g class="entity" data-entity="GMN11" data-source-line="11" data-uid="ent0012" id="entity_GMN11"><path d="M300.87,204.98 L300.87,230.1128 A0,0 0 0 0 300.87,230.1128 L446.2841,230.1128 A0,0 0 0 0 446.2841,230.1128 L446.2841,214.98 L436.2841,204.98 L377.58,204.98 L373.58,170.02 L369.58,204.98 L300.87,204.98 A0,0 0 0 0 300.87,204.98" fill="#FEFFDD" style="stroke:#181818;stroke-width:0.5;"/><path d="M436.2841,204.98 L436.2841,214.98 L446.2841,214.98 L436.2841,204.98" fill="#FEFFDD" style="stroke:#181818;stroke-width:0.5;"/><text fill="#000000" font-family="sans-serif" font-size="13" lengthAdjust="spacing" textLength="124.4141" x="306.87" y="222.0469">player or facilitator</text></g><!--entity Create user--><g class="entity" data-entity="Create user" data-source-line="14" data-uid="ent0014" id="entity_Create user"><ellipse cx="668.2843" cy="20.5469" fill="#F1F1F1" rx="60.7343" ry="14.5469" style="stroke:#181818;stroke-width:0.5;"/><text fill="#000000" font-family="sans-serif" font-size="14" lengthAdjust="spacing" textLength="81.8125" x="627.378" y="25.1953">Create user</text></g><!--entity Delete user--><g class="entity" data-entity="Delete user" data-source-line="15" data-uid="ent0016" id="entity_Delete user"><ellipse cx="668.2753" cy="84.5536" fill="#F1F1F1" rx="60.2653" ry="14.5236" style="stroke:#181818;stroke-width:0.5;"/><text fill="#000000" font-family="sans-serif" font-size="14" lengthAdjust="spacing" textLength="80.9854" x="627.7826" y="89.2021">Delete user</text></g><!--entity Reset user password--><g class="entity" data-entity="Reset user password" data-source-line="16" data-uid="ent0018" id="entity_Reset user password"><ellipse cx="668.2799" cy="153.55" fill="#F1F1F1" rx="86.5499" ry="19.71" style="stroke:#181818;stroke-width:0.5;"/><text fill="#000000" font-family="sans-serif" font-size="14" lengthAdjust="spacing" textLength="145.8857" x="595.337" y="158.1984">Reset user password</text></g><!--entity Set user access--><g class="entity" data-entity="Set user access" data-source-line="17" data-uid="ent0020" id="entity_Set user access"><ellipse cx="668.2761" cy="224.5472" fill="#F1F1F1" rx="71.2861" ry="16.6572" style="stroke:#181818;stroke-width:0.5;"/><text fill="#000000" font-family="sans-serif" font-size="14" lengthAdjust="spacing" textLength="109.6006" x="613.4759" y="229.1957">Set user access</text></g><!--entity Manage--><g class="entity" data-entity="Manage" data-source-line="19" data-uid="ent0022" id="entity_Manage"><ellipse cx="668.2833" cy="303.5498" fill="#F1F1F1" rx="65.4933" ry="24.2198" style="stroke:#181818;stroke-width:0.5;"/><text fill="#000000" font-family="sans-serif" font-size="14" lengthAdjust="spacing" textLength="55.6104" x="640.4781" y="297.343">Manage</text><text fill="#000000" font-family="sans-serif" font-size="14" lengthAdjust="spacing" textLength="95.9902" x="620.2881" y="313.6398">game session</text></g><!--entity Create game session--><g class="entity" data-entity="Create game session" data-source-line="21" data-uid="ent0024" id="entity_Create game session"><ellipse cx="982.2134" cy="158.5507" fill="#F1F1F1" rx="87.1534" ry="19.8307" style="stroke:#181818;stroke-width:0.5;"/><text fill="#000000" font-family="sans-serif" font-size="14" lengthAdjust="spacing" textLength="147.2666" x="908.5801" y="163.1991">Create game session</text></g><!--entity Set session dates--><g class="entity" data-entity="Set session dates" data-source-line="22" data-uid="ent0026" id="entity_Set session dates"><ellipse cx="982.2141" cy="231.5488" fill="#F1F1F1" rx="76.5941" ry="17.7188" style="stroke:#181818;stroke-width:0.5;"/><text fill="#000000" font-family="sans-serif" font-size="14" lengthAdjust="spacing" textLength="122.5752" x="920.9265" y="236.1973">Set session dates</text></g><!--entity Delete game session--><g class="entity" data-entity="Delete game session" data-source-line="23" data-uid="ent0028" id="entity_Delete game session"><ellipse cx="982.2117" cy="303.5483" fill="#F1F1F1" rx="86.7917" ry="19.7583" style="stroke:#181818;stroke-width:0.5;"/><text fill="#000000" font-family="sans-serif" font-size="14" lengthAdjust="spacing" textLength="146.4395" x="908.992" y="308.1968">Delete game session</text></g><!--entity Show sessions with status--><g class="entity" data-entity="Show sessions with status" data-source-line="24" data-uid="ent0030" id="entity_Show sessions with status"><ellipse cx="982.2142" cy="381.5488" fill="#F1F1F1" rx="103.1442" ry="23.0288" style="stroke:#181818;stroke-width:0.5;"/><text fill="#000000" font-family="sans-serif" font-size="14" lengthAdjust="spacing" textLength="182.9639" x="890.7323" y="386.1973">Show sessions with status</text></g><!--entity Show facilitators and\nplayers for session--><g class="entity" data-entity="Show facilitators and\nplayers for session" data-source-line="25" data-uid="ent0032" id="entity_Show facilitators and\nplayers for session"><ellipse cx="982.2121" cy="464.5497" fill="#F1F1F1" rx="104.3821" ry="25.4697" style="stroke:#181818;stroke-width:0.5;"/><text fill="#000000" font-family="sans-serif" font-size="14" lengthAdjust="spacing" textLength="147.0615" x="908.6813" y="461.8773">Show facilitators and</text><text fill="#000000" font-family="sans-serif" font-size="14" lengthAdjust="spacing" textLength="131.2773" x="916.5734" y="478.1742">players for session</text></g><!--reverse link User to Administrator--><g class="link" data-entity-1="User" data-entity-2="Administrator" data-source-line="4" data-uid="lnk5" id="link_User_Administrator"><path d="M54.3817,266.085 C72.9017,256.975 88.86,249.12 115.88,235.82" fill="none" id="User-backto-Administrator" style="stroke:#181818;stroke-width:1;"/><polygon fill="none" points="38.23,274.03,57.03,271.4689,51.7333,260.7011,38.23,274.03" style="stroke:#181818;stroke-width:1;"/></g><!--reverse link Administrator to SA--><g class="link" data-entity-1="Administrator" data-entity-2="SA" data-source-line="5" data-uid="lnk6" id="link_Administrator_SA"><path d="M228.9719,240.5451 C253.9619,251.5151 268.74,257.99 296.99,270.39" fill="none" id="Administrator-backto-SA" style="stroke:#181818;stroke-width:1;"/><polygon fill="none" points="212.49,233.31,226.5602,246.0391,231.3836,235.0512,212.49,233.31" style="stroke:#181818;stroke-width:1;"/></g><!--link User to Set password--><g class="link" data-entity-1="User" data-entity-2="Set password" data-source-line="7" data-uid="lnk8" id="link_User_Set password"><path d="M38.23,283.73 C54.84,286.1 76.4203,289.1715 101.4103,292.7415" fill="none" id="User-to-Set password" style="stroke:#181818;stroke-width:1;"/><polygon fill="#181818" points="107.35,293.59,99.0061,288.3574,102.4003,292.8829,97.8748,296.277,107.35,293.59" style="stroke:#181818;stroke-width:1;"/></g><!--link Administrator to User administration--><g class="link" data-entity-1="Administrator" data-entity-2="User administration" data-source-line="9" data-uid="lnk10" id="link_Administrator_User administration"><path d="M212.49,198.4 C245.13,188.65 282.7314,177.4086 316.0814,167.4386" fill="none" id="Administrator-to-User administration" style="stroke:#181818;stroke-width:1;"/><polygon fill="#181818" points="321.83,165.72,312.0614,164.4654,317.0395,167.1521,314.3528,172.1302,321.83,165.72" style="stroke:#181818;stroke-width:1;"/></g><!--link User administration to Create user--><g class="link" data-entity-1="User administration" data-entity-2="Create user" data-source-line="14" data-uid="lnk15" id="link_User administration_Create user"><path d="M403.9,132.4 C426.15,119.05 457.75,100.97 486.73,87.55 C535.28,65.08 587.9747,46.4077 624.9347,34.1577" fill="none" id="User administration-to-Create user" style="stroke:#181818;stroke-width:1;"/><polygon fill="#181818" points="630.63,32.27,620.8286,31.3046,625.8839,33.843,623.3454,38.8984,630.63,32.27" style="stroke:#181818;stroke-width:1;"/><text fill="#000000" font-family="sans-serif" font-size="13" lengthAdjust="spacing" textLength="63.0068" x="487.73" y="57.6169">&#171;include&#187;</text></g><!--link User administration to Delete user--><g class="link" data-entity-1="User administration" data-entity-2="Delete user" data-source-line="15" data-uid="lnk17" id="link_User administration_Delete user"><path d="M434.16,137.11 C490.16,124.49 566.8268,107.1992 617.1868,95.8492" fill="none" id="User administration-to-Delete user" style="stroke:#181818;stroke-width:1;"/><polygon fill="#181818" points="623.04,94.53,613.3808,92.6066,618.1623,95.6293,615.1397,100.4109,623.04,94.53" style="stroke:#181818;stroke-width:1;"/><text fill="#000000" font-family="sans-serif" font-size="13" lengthAdjust="spacing" textLength="63.0068" x="487.73" y="108.6169">&#171;include&#187;</text></g><!--link User administration to Reset user password--><g class="link" data-entity-1="User administration" data-entity-2="Reset user password" data-source-line="16" data-uid="lnk19" id="link_User administration_Reset user password"><path d="M456.89,151.39 C495.78,151.79 536.1903,152.209 575.5103,152.609" fill="none" id="User administration-to-Reset user password" style="stroke:#181818;stroke-width:1;"/><polygon fill="#181818" points="581.51,152.67,572.5512,148.5787,576.5103,152.6191,572.4698,156.5782,581.51,152.67" style="stroke:#181818;stroke-width:1;"/><text fill="#000000" font-family="sans-serif" font-size="13" lengthAdjust="spacing" textLength="63.0068" x="487.73" y="148.6169">&#171;include&#187;</text></g><!--link User administration to Set user access--><g class="link" data-entity-1="User administration" data-entity-2="Set user access" data-source-line="17" data-uid="lnk21" id="link_User administration_Set user access"><path d="M430.67,164.73 C485.12,178.5 561.0931,197.6989 612.8531,210.7889" fill="none" id="User administration-to-Set user access" style="stroke:#181818;stroke-width:1;"/><polygon fill="#181818" points="618.67,212.26,610.9254,206.1755,613.8226,211.0341,608.964,213.9313,618.67,212.26" style="stroke:#181818;stroke-width:1;"/><text fill="#000000" font-family="sans-serif" font-size="13" lengthAdjust="spacing" textLength="63.0068" x="487.73" y="177.6169">&#171;include&#187;</text></g><!--link SA to Manage--><g class="link" data-entity-1="SA" data-entity-2="Manage" data-source-line="20" data-uid="lnk23" id="link_SA_Manage"><path d="M450.34,303.55 C497.6,303.55 551.77,303.55 596.75,303.55" fill="none" id="SA-to-Manage" style="stroke:#181818;stroke-width:1;"/><polygon fill="#181818" points="602.75,303.55,593.75,299.55,597.75,303.55,593.75,307.55,602.75,303.55" style="stroke:#181818;stroke-width:1;"/></g><!--link Manage to Create game session--><g class="link" data-entity-1="Manage" data-entity-2="Create game session" data-source-line="21" data-uid="lnk25" id="link_Manage_Create game session"><path d="M708.61,284.18 C723.34,276.59 740.07,267.55 754.83,258.55 C768.73,250.08 770.65,245.54 784.83,237.55 C824.19,215.38 835.95,213.46 877.83,196.55 C895.83,189.28 910.1707,183.8589 927.7307,177.4789" fill="none" id="Manage-to-Create game session" style="stroke:#181818;stroke-width:1;"/><polygon fill="#181818" points="933.37,175.43,923.5451,174.7438,928.6706,177.1374,926.277,182.2629,933.37,175.43" style="stroke:#181818;stroke-width:1;"/><text fill="#000000" font-family="sans-serif" font-size="13" lengthAdjust="spacing" textLength="61.1851" x="785.83" y="205.6169">&#171;extend&#187;</text></g><!--link Manage to Set session dates--><g class="link" data-entity-1="Manage" data-entity-2="Set session dates" data-source-line="22" data-uid="lnk27" id="link_Manage_Set session dates"><path d="M724.69,290.76 C781.68,277.61 864.0338,258.5997 920.7338,245.5097" fill="none" id="Manage-to-Set session dates" style="stroke:#181818;stroke-width:1;"/><polygon fill="#181818" points="926.58,244.16,916.9109,242.287,921.7081,245.2847,918.7105,250.082,926.58,244.16" style="stroke:#181818;stroke-width:1;"/><text fill="#000000" font-family="sans-serif" font-size="13" lengthAdjust="spacing" textLength="61.1851" x="785.83" y="258.6169">&#171;extend&#187;</text></g><!--link Manage to Delete game session--><g class="link" data-entity-1="Manage" data-entity-2="Delete game session" data-source-line="23" data-uid="lnk29" id="link_Manage_Delete game session"><path d="M733.91,303.55 C780.58,303.55 838.09,303.55 889.06,303.55" fill="none" id="Manage-to-Delete game session" style="stroke:#181818;stroke-width:1;"/><polygon fill="#181818" points="895.06,303.55,886.06,299.55,890.06,303.55,886.06,307.55,895.06,303.55" style="stroke:#181818;stroke-width:1;"/><text fill="#000000" font-family="sans-serif" font-size="13" lengthAdjust="spacing" textLength="61.1851" x="785.83" y="299.6169">&#171;extend&#187;</text></g><!--link Manage to Show sessions with status--><g class="link" data-entity-1="Manage" data-entity-2="Show sessions with status" data-source-line="24" data-uid="lnk31" id="link_Manage_Show sessions with status"><path d="M723.26,317.05 C775.57,330.13 849.3191,348.575 906.2491,362.805" fill="none" id="Manage-to-Show sessions with status" style="stroke:#181818;stroke-width:1;"/><polygon fill="#181818" points="912.07,364.26,904.3086,358.1969,907.2192,363.0475,902.3686,365.9582,912.07,364.26" style="stroke:#181818;stroke-width:1;"/><text fill="#000000" font-family="sans-serif" font-size="13" lengthAdjust="spacing" textLength="61.1851" x="785.83" y="328.6169">&#171;extend&#187;</text></g><!--link Manage to Show facilitators and\nplayers for session--><g class="link" data-entity-1="Manage" data-entity-2="Show facilitators and\nplayers for session" data-source-line="25" data-uid="lnk33" id="link_Manage_Show facilitators and\nplayers for session"><path d="M702.41,324.52 C742.86,349.63 813.83,392.13 877.83,422.55 C892.79,429.66 903.731,434.4523 919.071,440.6823" fill="none" id="Manage-to-Show facilitators and\nplayers for session" style="stroke:#181818;stroke-width:1;"/><polygon fill="#181818" points="924.63,442.94,917.7966,435.8475,919.9975,441.0586,914.7863,443.2595,924.63,442.94" style="stroke:#181818;stroke-width:1;"/><text fill="#000000" font-family="sans-serif" font-size="13" lengthAdjust="spacing" textLength="61.1851" x="785.83" y="372.6169">&#171;extend&#187;</text></g><!--SRC=[dPBBReGm34Nt-GfhLiE27wWG4cgttHHrDnkN68Z49AFOY5RgnzSGHcNwc3vMIPHpxqri3zGAI83ekbx0kaYDkE2DsTN4h3j0UtJUiKIK47U037Lb7faY5Azv3jNssboS4g1qmlEyX7rD0YTadaAqcVd0ByJ2RaBr3PdnGGYUWaWu6e3JW2yAgQB5nWrEbcpo5cREc2yzaljj95IhKO4CRg0emFbc62r1MLxJtT50_z4z4EkFPzdxj_-YhyzgR1fjo6UjsTsZnuuEliCZ0QUkBNtQfvlCrDLYbeucBHVbs4hN27gMkQ2QiENdvwmSM5NoLNejsk_T-p2TGOR9IG-ilHtvPzLc41ZGsuDFGyBGwfXy4_u6]--></g></svg>