<svg xmlns="http://www.w3.org/2000/svg" xmlns:xlink="http://www.w3.org/1999/xlink" contentStyleType="text/css" data-diagram-type="DESCRIPTION" height="1086px" preserveAspectRatio="none" style="width:1414px;height:1086px;background:#FFFFFF;" version="1.1" viewBox="0 0 1414 1086" width="1414px" zoomAndPan="magnify"><defs/><g><!--entity SF--><g class="entity" data-entity="SF" data-source-line="3" data-uid="ent0002" id="entity_SF"><ellipse cx="373.5785" cy="398.76" fill="#F1F1F1" rx="8" ry="8" style="stroke:#181818;stroke-width:0.5;"/><path d="M373.5785,406.76 L373.5785,433.76 M360.5785,414.76 L386.5785,414.76 M373.5785,433.76 L360.5785,448.76 M373.5785,433.76 L386.5785,448.76" fill="none" style="stroke:#181818;stroke-width:0.5;"/><text fill="#000000" font-family="sans-serif" font-size="14" lengthAdjust="spacing" textLength="53.416" x="338.64" y="463.2551">Session</text><text fill="#000000" font-family="sans-serif" font-size="14" lengthAdjust="spacing" textLength="69.877" x="338.64" y="479.552">Facilitator</text></g><!--entity User--><g class="entity" data-entity="User" data-source-line="4" data-uid="ent0003" id="entity_User"><ellipse cx="21.9551" cy="303.9" fill="#F1F1F1" rx="8" ry="8" style="stroke:#181818;stroke-width:0.5;"/><path d="M21.9551,311.9 L21.9551,338.9 M8.9551,319.9 L34.9551,319.9 M21.9551,338.9 L8.9551,353.9 M21.9551,338.9 L34.9551,353.9" fill="none" style="stroke:#181818;stroke-width:0.5;"/><text fill="#000000" font-family="sans-serif" font-size="14" lengthAdjust="spacing" textLength="31.9102" x="6" y="368.3951">User</text></g><!--entity Administrator--><g class="entity" data-entity="Administrator" data-source-line="4" data-uid="ent0004" id="entity_Administrator"><ellipse cx="164.1713" cy="234.9" fill="#F1F1F1" rx="8" ry="8" style="stroke:#181818;stroke-width:0.5;"/><path d="M164.1713,242.9 L164.1713,269.9 M151.1713,250.9 L177.1713,250.9 M164.1713,269.9 L151.1713,284.9 M164.1713,269.9 L177.1713,284.9" fill="none" style="stroke:#181818;stroke-width:0.5;"/><text fill="#000000" font-family="sans-serif" font-size="14" lengthAdjust="spacing" textLength="95.6826" x="116.33" y="299.3951">Administrator</text></g><!--entity Set password--><g class="entity" data-entity="Set password" data-source-line="7" data-uid="ent0007" id="entity_Set password"><ellipse cx="164.1679" cy="353.5516" fill="#F1F1F1" rx="65.2579" ry="15.4516" style="stroke:#181818;stroke-width:0.5;"/><text fill="#000000" font-family="sans-serif" font-size="14" lengthAdjust="spacing" textLength="94.1514" x="117.0922" y="358.2">Set password</text></g><!--entity User administration--><g class="entity" data-entity="User administration" data-source-line="9" data-uid="ent0009" id="entity_User administration"><ellipse cx="373.583" cy="153.5506" fill="#F1F1F1" rx="83.153" ry="19.0306" style="stroke:#181818;stroke-width:0.5;"/><text fill="#000000" font-family="sans-serif" font-size="14" lengthAdjust="spacing" textLength="138.0518" x="304.5571" y="158.199">User administration</text></g><g class="entity" data-entity="GMN11" data-source-line="11" data-uid="ent0012" id="entity_GMN11"><path d="M342.65,207.99 L342.65,233.1228 A0,0 0 0 0 342.65,233.1228 L404.5162,233.1228 A0,0 0 0 0 404.5162,233.1228 L404.5162,217.99 L394.5162,207.99 L377.58,207.99 L373.58,173.02 L369.58,207.99 L342.65,207.99 A0,0 0 0 0 342.65,207.99" fill="#FEFFDD" style="stroke:#181818;stroke-width:0.5;"/><path d="M394.5162,207.99 L394.5162,217.99 L404.5162,217.99 L394.5162,207.99" fill="#FEFFDD" style="stroke:#181818;stroke-width:0.5;"/><text fill="#000000" font-family="sans-serif" font-size="13" lengthAdjust="spacing" textLength="40.8662" x="348.65" y="225.0569">player</text></g><!--entity Create user--><g class="entity" data-entity="Create user" data-source-line="14" data-uid="ent0014" id="entity_Create user"><ellipse cx="668.2843" cy="20.5469" fill="#F1F1F1" rx="60.7343" ry="14.5469" style="stroke:#181818;stroke-width:0.5;"/><text fill="#000000" font-family="sans-serif" font-size="14" lengthAdjust="spacing" textLength="81.8125" x="627.378" y="25.1953">Create user</text></g><!--entity Delete user--><g class="entity" data-entity="Delete user" data-source-line="15" data-uid="ent0016" id="entity_Delete user"><ellipse cx="668.2753" cy="84.5536" fill="#F1F1F1" rx="60.2653" ry="14.5236" style="stroke:#181818;stroke-width:0.5;"/><text fill="#000000" font-family="sans-serif" font-size="14" lengthAdjust="spacing" textLength="80.9854" x="627.7826" y="89.2021">Delete user</text></g><!--entity Reset user password--><g class="entity" data-entity="Reset user password" data-source-line="16" data-uid="ent0018" id="entity_Reset user password"><ellipse cx="668.2799" cy="153.55" fill="#F1F1F1" rx="86.5499" ry="19.71" style="stroke:#181818;stroke-width:0.5;"/><text fill="#000000" font-family="sans-serif" font-size="14" lengthAdjust="spacing" textLength="145.8857" x="595.337" y="158.1984">Reset user password</text></g><!--entity Set user access--><g class="entity" data-entity="Set user access" data-source-line="17" data-uid="ent0020" id="entity_Set user access"><ellipse cx="668.2761" cy="224.5472" fill="#F1F1F1" rx="71.2861" ry="16.6572" style="stroke:#181818;stroke-width:0.5;"/><text fill="#000000" font-family="sans-serif" font-size="14" lengthAdjust="spacing" textLength="109.6006" x="613.4759" y="229.1957">Set user access</text></g><!--entity User allocation--><g class="entity" data-entity="User allocation" data-source-line="19" data-uid="ent0022" id="entity_User allocation"><ellipse cx="668.2789" cy="292.5518" fill="#F1F1F1" rx="69.2089" ry="16.2418" style="stroke:#181818;stroke-width:0.5;"/><text fill="#000000" font-family="sans-serif" font-size="14" lengthAdjust="spacing" textLength="104.3779" x="616.0899" y="297.2002">User allocation</text></g><!--entity Allocate user to game--><g class="entity" data-entity="Allocate user to game" data-source-line="20" data-uid="ent0024" id="entity_Allocate user to game"><ellipse cx="986.7463" cy="132.5493" fill="#F1F1F1" rx="90.0963" ry="20.4193" style="stroke:#181818;stroke-width:0.5;"/><text fill="#000000" font-family="sans-serif" font-size="14" lengthAdjust="spacing" textLength="153.959" x="909.7668" y="137.1977">Allocate user to game</text></g><!--entity Deallocate user from game--><g class="entity" data-entity="Deallocate user from game" data-source-line="21" data-uid="ent0026" id="entity_Deallocate user from game"><ellipse cx="986.7539" cy="211.5528" fill="#F1F1F1" rx="106.9139" ry="23.7828" style="stroke:#181818;stroke-width:0.5;"/><text fill="#000000" font-family="sans-serif" font-size="14" lengthAdjust="spacing" textLength="191.1875" x="891.1601" y="216.2012">Deallocate user from game</text></g><!--entity Show players for session--><g class="entity" data-entity="Show players for session" data-source-line="22" data-uid="ent0028" id="entity_Show players for session"><ellipse cx="986.7523" cy="292.5485" fill="#F1F1F1" rx="98.8423" ry="22.1685" style="stroke:#181818;stroke-width:0.5;"/><text fill="#000000" font-family="sans-serif" font-size="14" lengthAdjust="spacing" textLength="173.5029" x="900.0008" y="297.1969">Show players for session</text></g><!--entity Brief game--><g class="entity" data-entity="Brief game" data-source-line="24" data-uid="ent0030" id="entity_Brief game"><ellipse cx="668.2782" cy="410.5536" fill="#F1F1F1" rx="57.4182" ry="14.5236" style="stroke:#181818;stroke-width:0.5;"/><text fill="#000000" font-family="sans-serif" font-size="14" lengthAdjust="spacing" textLength="76.959" x="629.7987" y="415.2021">Brief game</text></g><!--entity Start/stop game--><g class="entity" data-entity="Start/stop game" data-source-line="26" data-uid="ent0032" id="entity_Start/stop game"><ellipse cx="668.2771" cy="476.5474" fill="#F1F1F1" rx="72.7871" ry="16.9574" style="stroke:#181818;stroke-width:0.5;"/><text fill="#000000" font-family="sans-serif" font-size="14" lengthAdjust="spacing" textLength="113.3193" x="611.6175" y="481.1959">Start/stop game</text></g><!--entity Start game--><g class="entity" data-entity="Start game" data-source-line="27" data-uid="ent0034" id="entity_Start game"><ellipse cx="986.754" cy="364.5536" fill="#F1F1F1" rx="58.414" ry="14.5236" style="stroke:#181818;stroke-width:0.5;"/><text fill="#000000" font-family="sans-serif" font-size="14" lengthAdjust="spacing" textLength="78.3672" x="947.5704" y="369.2021">Start game</text></g><!--entity Change game speed--><g class="entity" data-entity="Change game speed" data-source-line="28" data-uid="ent0036" id="entity_Change game speed"><ellipse cx="986.7508" cy="433.5502" fill="#F1F1F1" rx="85.9508" ry="19.5902" style="stroke:#181818;stroke-width:0.5;"/><text fill="#000000" font-family="sans-serif" font-size="14" lengthAdjust="spacing" textLength="144.5117" x="914.4949" y="438.1986">Change game speed</text></g><!--entity Pause game--><g class="entity" data-entity="Pause game" data-source-line="29" data-uid="ent0038" id="entity_Pause game"><ellipse cx="986.7548" cy="502.555" fill="#F1F1F1" rx="62.2248" ry="14.845" style="stroke:#181818;stroke-width:0.5;"/><text fill="#000000" font-family="sans-serif" font-size="14" lengthAdjust="spacing" textLength="85.9688" x="943.7705" y="507.2034">Pause game</text></g><!--entity Stop game--><g class="entity" data-entity="Stop game" data-source-line="30" data-uid="ent0040" id="entity_Stop game"><ellipse cx="986.7467" cy="566.5536" fill="#F1F1F1" rx="56.7367" ry="14.5236" style="stroke:#181818;stroke-width:0.5;"/><text fill="#000000" font-family="sans-serif" font-size="14" lengthAdjust="spacing" textLength="75.9951" x="948.7491" y="571.2021">Stop game</text></g><!--entity Facilitate session--><g class="entity" data-entity="Facilitate session" data-source-line="32" data-uid="ent0042" id="entity_Facilitate session"><ellipse cx="668.2784" cy="771.5517" fill="#F1F1F1" rx="75.7084" ry="17.5417" style="stroke:#181818;stroke-width:0.5;"/><text fill="#000000" font-family="sans-serif" font-size="14" lengthAdjust="spacing" textLength="120.4424" x="608.0573" y="776.2001">Facilitate session</text></g><!--entity Add news item--><g class="entity" data-entity="Add news item" data-source-line="33" data-uid="ent0044" id="entity_Add news item"><ellipse cx="986.7538" cy="632.5508" fill="#F1F1F1" rx="69.1038" ry="16.2208" style="stroke:#181818;stroke-width:0.5;"/><text fill="#000000" font-family="sans-serif" font-size="14" lengthAdjust="spacing" textLength="104.1113" x="934.6982" y="637.1992">Add news item</text></g><!--entity Add intervention--><g class="entity" data-entity="Add intervention" data-source-line="34" data-uid="ent0046" id="entity_Add intervention"><ellipse cx="986.7538" cy="700.5488" fill="#F1F1F1" rx="74.2938" ry="17.2588" style="stroke:#181818;stroke-width:0.5;"/><text fill="#000000" font-family="sans-serif" font-size="14" lengthAdjust="spacing" textLength="117.0107" x="928.2484" y="705.1972">Add intervention</text></g><!--entity Trigger intervention--><g class="entity" data-entity="Trigger intervention" data-source-line="35" data-uid="ent0048" id="entity_Trigger intervention"><ellipse cx="986.7534" cy="771.5487" fill="#F1F1F1" rx="83.9934" ry="19.1987" style="stroke:#181818;stroke-width:0.5;"/><text fill="#000000" font-family="sans-serif" font-size="14" lengthAdjust="spacing" textLength="140" x="916.7534" y="776.1971">Trigger intervention</text></g><!--entity Chat with players--><g class="entity" data-entity="Chat with players" data-source-line="36" data-uid="ent0050" id="entity_Chat with players"><ellipse cx="986.7541" cy="843.5528" fill="#F1F1F1" rx="76.6141" ry="17.7228" style="stroke:#181818;stroke-width:0.5;"/><text fill="#000000" font-family="sans-serif" font-size="14" lengthAdjust="spacing" textLength="122.623" x="925.4425" y="848.2012">Chat with players</text></g><!--entity Show actor map--><g class="entity" data-entity="Show actor map" data-source-line="37" data-uid="ent0052" id="entity_Show actor map"><ellipse cx="986.7493" cy="913.5519" fill="#F1F1F1" rx="73.0093" ry="17.0019" style="stroke:#181818;stroke-width:0.5;"/><text fill="#000000" font-family="sans-serif" font-size="14" lengthAdjust="spacing" textLength="113.8662" x="929.8162" y="918.2003">Show actor map</text></g><!--entity Show scores--><g class="entity" data-entity="Show scores" data-source-line="38" data-uid="ent0054" id="entity_Show scores"><ellipse cx="986.7528" cy="984.5526" fill="#F1F1F1" rx="62.7628" ry="14.9526" style="stroke:#181818;stroke-width:0.5;"/><text fill="#000000" font-family="sans-serif" font-size="14" lengthAdjust="spacing" textLength="87.4453" x="943.0302" y="989.201">Show scores</text></g><!--entity Send data to\ngame data platform--><g class="entity" data-entity="Send data to\ngame data platform" data-source-line="40" data-uid="ent0056" id="entity_Send data to\ngame data platform"><ellipse cx="1313.5866" cy="632.5494" fill="#F1F1F1" rx="94.9266" ry="24.4194" style="stroke:#181818;stroke-width:0.5;"/><text fill="#000000" font-family="sans-serif" font-size="14" lengthAdjust="spacing" textLength="89.749" x="1268.7121" y="626.6524">Send data to</text><text fill="#000000" font-family="sans-serif" font-size="14" lengthAdjust="spacing" textLength="139.8838" x="1243.6447" y="642.9492">game data platform</text></g><!--entity Debrief game--><g class="entity" data-entity="Debrief game" data-source-line="46" data-uid="ent0062" id="entity_Debrief game"><ellipse cx="668.2806" cy="1006.5541" fill="#F1F1F1" rx="65.8206" ry="15.5641" style="stroke:#181818;stroke-width:0.5;"/><text fill="#000000" font-family="sans-serif" font-size="14" lengthAdjust="spacing" textLength="95.6348" x="620.4632" y="1011.2026">Debrief game</text></g><!--entity Show gameplay--><g class="entity" data-entity="Show gameplay" data-source-line="48" data-uid="ent0065" id="entity_Show gameplay"><ellipse cx="986.7541" cy="1063.5468" fill="#F1F1F1" rx="72.0841" ry="16.8168" style="stroke:#181818;stroke-width:0.5;"/><text fill="#000000" font-family="sans-serif" font-size="14" lengthAdjust="spacing" textLength="111.583" x="930.9626" y="1068.1953">Show gameplay</text></g><!--reverse link User to Administrator--><g class="link" data-entity-1="User" data-entity-2="Administrator" data-source-line="4" data-uid="lnk5" id="link_User_Administrator"><path d="M54.3782,318.088 C72.8982,308.968 88.86,301.12 115.88,287.82" fill="none" id="User-backto-Administrator" style="stroke:#181818;stroke-width:1;"/><polygon fill="none" points="38.23,326.04,57.0289,323.4707,51.7275,312.7052,38.23,326.04" style="stroke:#181818;stroke-width:1;"/></g><!--reverse link Administrator to SF--><g class="link" data-entity-1="Administrator" data-entity-2="SF" data-source-line="5" data-uid="lnk6" id="link_Administrator_SF"><path d="M225.5731,314.6432 C264.0231,346.5432 303.88,379.59 338.45,408.25" fill="none" id="Administrator-backto-SF" style="stroke:#181818;stroke-width:1;"/><polygon fill="none" points="211.72,303.15,221.742,319.2609,229.4041,310.0255,211.72,303.15" style="stroke:#181818;stroke-width:1;"/></g><!--link User to Set password--><g class="link" data-entity-1="User" data-entity-2="Set password" data-source-line="7" data-uid="lnk8" id="link_User_Set password"><path d="M38.23,335.73 C54.84,338.1 76.42,341.1838 101.41,344.7438" fill="none" id="User-to-Set password" style="stroke:#181818;stroke-width:1;"/><polygon fill="#181818" points="107.35,345.59,99.0041,340.3607,102.4,344.8848,97.8758,348.2807,107.35,345.59" style="stroke:#181818;stroke-width:1;"/></g><!--link Administrator to User administration--><g class="link" data-entity-1="Administrator" data-entity-2="User administration" data-source-line="9" data-uid="lnk10" id="link_Administrator_User administration"><path d="M212.35,235.01 C235.53,220.93 264.08,204.22 290.43,190.55 C303.9,183.57 313.4665,178.9953 326.9765,172.9953" fill="none" id="Administrator-to-User administration" style="stroke:#181818;stroke-width:1;"/><polygon fill="#181818" points="332.46,170.56,322.6111,170.5573,327.8904,172.5894,325.8582,177.8687,332.46,170.56" style="stroke:#181818;stroke-width:1;"/></g><!--link User administration to Create user--><g class="link" data-entity-1="User administration" data-entity-2="Create user" data-source-line="14" data-uid="lnk15" id="link_User administration_Create user"><path d="M402.93,135.39 C425.19,121.56 457.26,102.56 486.73,88.55 C527.51,69.17 539.48,68.46 581.73,52.55 C598.95,46.07 612.5094,40.9897 628.3294,35.0797" fill="none" id="User administration-to-Create user" style="stroke:#181818;stroke-width:1;"/><polygon fill="#181818" points="633.95,32.98,624.1193,32.3825,629.2662,34.7298,626.9189,39.8767,633.95,32.98" style="stroke:#181818;stroke-width:1;"/><text fill="#000000" font-family="sans-serif" font-size="13" lengthAdjust="spacing" textLength="63.0068" x="487.73" y="60.6169">&#171;include&#187;</text></g><!--link User administration to Delete user--><g class="link" data-entity-1="User administration" data-entity-2="Delete user" data-source-line="15" data-uid="lnk17" id="link_User administration_Delete user"><path d="M432.76,139.84 C489.11,126.55 567.4301,108.0967 618.1201,96.1467" fill="none" id="User administration-to-Delete user" style="stroke:#181818;stroke-width:1;"/><polygon fill="#181818" points="623.96,94.77,614.2823,92.9418,619.0934,95.9173,616.118,100.7284,623.96,94.77" style="stroke:#181818;stroke-width:1;"/><text fill="#000000" font-family="sans-serif" font-size="13" lengthAdjust="spacing" textLength="63.0068" x="487.73" y="109.6169">&#171;include&#187;</text></g><!--link User administration to Reset user password--><g class="link" data-entity-1="User administration" data-entity-2="Reset user password" data-source-line="16" data-uid="lnk19" id="link_User administration_Reset user password"><path d="M456.89,153.55 C495.7,153.55 535.99,153.55 575.25,153.55" fill="none" id="User administration-to-Reset user password" style="stroke:#181818;stroke-width:1;"/><polygon fill="#181818" points="581.25,153.55,572.25,149.55,576.25,153.55,572.25,157.55,581.25,153.55" style="stroke:#181818;stroke-width:1;"/><text fill="#000000" font-family="sans-serif" font-size="13" lengthAdjust="spacing" textLength="63.0068" x="487.73" y="149.6169">&#171;include&#187;</text></g><!--link User administration to Set user access--><g class="link" data-entity-1="User administration" data-entity-2="Set user access" data-source-line="17" data-uid="lnk21" id="link_User administration_Set user access"><path d="M432.06,167.5 C486.17,180.62 560.5291,198.6554 611.8891,211.1154" fill="none" id="User administration-to-Set user access" style="stroke:#181818;stroke-width:1;"/><polygon fill="#181818" points="617.72,212.53,609.9168,206.5209,612.8609,211.3512,608.0307,214.2954,617.72,212.53" style="stroke:#181818;stroke-width:1;"/><text fill="#000000" font-family="sans-serif" font-size="13" lengthAdjust="spacing" textLength="63.0068" x="487.73" y="179.6169">&#171;include&#187;</text></g><!--link SF to User allocation--><g class="link" data-entity-1="SF" data-entity-2="User allocation" data-source-line="19" data-uid="lnk23" id="link_SF_User allocation"><path d="M409.02,419.61 C466.74,391.21 576.7165,337.1091 631.5665,310.1191" fill="none" id="SF-to-User allocation" style="stroke:#181818;stroke-width:1;"/><polygon fill="#181818" points="636.95,307.47,627.1087,307.8546,632.4637,309.6776,630.6407,315.0326,636.95,307.47" style="stroke:#181818;stroke-width:1;"/></g><!--link User allocation to Allocate user to game--><g class="link" data-entity-1="User allocation" data-entity-2="Allocate user to game" data-source-line="20" data-uid="lnk25" id="link_User allocation_Allocate user to game"><path d="M711.87,279.52 C726.14,274.16 741.75,267.16 754.83,258.55 C770.59,248.19 770.01,240.21 784.83,228.55 C823.71,197.96 835.21,191.91 879.83,170.55 C896.57,162.54 909.8073,157.2233 926.9673,151.2133" fill="none" id="User allocation-to-Allocate user to game" style="stroke:#181818;stroke-width:1;"/><polygon fill="#181818" points="932.63,149.23,922.8137,148.4298,927.9111,150.8827,925.4581,155.9801,932.63,149.23" style="stroke:#181818;stroke-width:1;"/></g><!--link User allocation to Deallocate user from game--><g class="link" data-entity-1="User allocation" data-entity-2="Deallocate user from game" data-source-line="21" data-uid="lnk27" id="link_User allocation_Deallocate user from game"><path d="M716.32,280.51 C768.92,267.05 848.8572,246.5872 909.4772,231.0772" fill="none" id="User allocation-to-Deallocate user from game" style="stroke:#181818;stroke-width:1;"/><polygon fill="#181818" points="915.29,229.59,905.5794,227.9457,910.446,230.8294,907.5624,235.696,915.29,229.59" style="stroke:#181818;stroke-width:1;"/></g><!--link User allocation to Show players for session--><g class="link" data-entity-1="User allocation" data-entity-2="Show players for session" data-source-line="22" data-uid="lnk29" id="link_User allocation_Show players for session"><path d="M737.95,292.55 C781.67,292.55 832.99,292.55 881.49,292.55" fill="none" id="User allocation-to-Show players for session" style="stroke:#181818;stroke-width:1;"/><polygon fill="#181818" points="887.49,292.55,878.49,288.55,882.49,292.55,878.49,296.55,887.49,292.55" style="stroke:#181818;stroke-width:1;"/></g><!--link SF to Brief game--><g class="link" data-entity-1="SF" data-entity-2="Brief game" data-source-line="24" data-uid="lnk31" id="link_SF_Brief game"><path d="M409.02,433.49 C459.49,429.01 548.0435,421.1403 607.6635,415.8503" fill="none" id="SF-to-Brief game" style="stroke:#181818;stroke-width:1;"/><polygon fill="#181818" points="613.64,415.32,604.3217,412.1311,608.6596,415.7619,605.0287,420.0998,613.64,415.32" style="stroke:#181818;stroke-width:1;"/></g><!--link SF to Start/stop game--><g class="link" data-entity-1="SF" data-entity-2="Start/stop game" data-source-line="26" data-uid="lnk33" id="link_SF_Start/stop game"><path d="M409.02,441.26 C457,447.82 538.8453,458.9974 598.6153,467.1674" fill="none" id="SF-to-Start/stop game" style="stroke:#181818;stroke-width:1;"/><polygon fill="#181818" points="604.56,467.98,596.1846,462.798,599.6061,467.3028,595.1012,470.7243,604.56,467.98" style="stroke:#181818;stroke-width:1;"/></g><!--link Start/stop game to Start game--><g class="link" data-entity-1="Start/stop game" data-entity-2="Start game" data-source-line="27" data-uid="lnk35" id="link_Start/stop game_Start game"><path d="M708.43,462.06 C723.13,456.33 739.9,449.48 754.83,442.55 C768.54,436.2 770.9,432.41 784.83,426.55 C825.65,409.4 837.53,409.62 879.83,396.55 C902.41,389.58 921.9939,383.647 942.2239,377.567" fill="none" id="Start/stop game-to-Start game" style="stroke:#181818;stroke-width:1;"/><polygon fill="#181818" points="947.97,375.84,938.1996,374.5997,943.1816,377.2791,940.5022,382.2612,947.97,375.84" style="stroke:#181818;stroke-width:1;"/><text fill="#000000" font-family="sans-serif" font-size="13" lengthAdjust="spacing" textLength="61.1851" x="786.83" y="401.6169">&#171;extend&#187;</text></g><!--link Start/stop game to Change game speed--><g class="link" data-entity-1="Start/stop game" data-entity-2="Change game speed" data-source-line="28" data-uid="lnk37" id="link_Start/stop game_Change game speed"><path d="M732.18,468.01 C784.01,460.96 851.6347,451.7785 906.1947,444.3585" fill="none" id="Start/stop game-to-Change game speed" style="stroke:#181818;stroke-width:1;"/><polygon fill="#181818" points="912.14,443.55,902.6831,440.7993,907.1856,444.2238,903.7611,448.7263,912.14,443.55" style="stroke:#181818;stroke-width:1;"/><text fill="#000000" font-family="sans-serif" font-size="13" lengthAdjust="spacing" textLength="61.1851" x="786.83" y="447.6169">&#171;extend&#187;</text></g><!--link Start/stop game to Pause game--><g class="link" data-entity-1="Start/stop game" data-entity-2="Pause game" data-source-line="29" data-uid="lnk39" id="link_Start/stop game_Pause game"><path d="M728.52,486.45 C746.55,489.14 766.46,491.8 784.83,493.55 C831.58,498.03 878.6725,500.1084 918.5225,501.2484" fill="none" id="Start/stop game-to-Pause game" style="stroke:#181818;stroke-width:1;"/><polygon fill="#181818" points="924.52,501.42,915.6381,497.1643,919.522,501.277,915.4093,505.161,924.52,501.42" style="stroke:#181818;stroke-width:1;"/><text fill="#000000" font-family="sans-serif" font-size="13" lengthAdjust="spacing" textLength="61.1851" x="786.83" y="489.6169">&#171;extend&#187;</text></g><!--link Start/stop game to Stop game--><g class="link" data-entity-1="Start/stop game" data-entity-2="Stop game" data-source-line="30" data-uid="lnk41" id="link_Start/stop game_Stop game"><path d="M703.39,491.84 C726.12,501.6 756.86,513.98 784.83,522.55 C836.73,538.45 891.9291,549.894 933.0091,557.454" fill="none" id="Start/stop game-to-Stop game" style="stroke:#181818;stroke-width:1;"/><polygon fill="#181818" points="938.91,558.54,930.7826,552.9771,933.9926,557.635,929.3347,560.845,938.91,558.54" style="stroke:#181818;stroke-width:1;"/><text fill="#000000" font-family="sans-serif" font-size="13" lengthAdjust="spacing" textLength="61.1851" x="786.83" y="518.6169">&#171;extend&#187;</text></g><!--link SF to Facilitate session--><g class="link" data-entity-1="SF" data-entity-2="Facilitate session" data-source-line="32" data-uid="lnk43" id="link_SF_Facilitate session"><path d="M409.02,475.97 C472.79,548.96 602.9423,697.9116 648.1123,749.6116" fill="none" id="SF-to-Facilitate session" style="stroke:#181818;stroke-width:1;"/><polygon fill="#181818" points="652.06,754.13,649.1507,744.7206,648.7703,750.3647,643.1262,749.9842,652.06,754.13" style="stroke:#181818;stroke-width:1;"/></g><!--link Facilitate session to Add news item--><g class="link" data-entity-1="Facilitate session" data-entity-2="Add news item" data-source-line="33" data-uid="lnk45" id="link_Facilitate session_Add news item"><path d="M696.86,754.96 C720,741.3 754.1,721.78 784.83,706.55 C826.04,686.14 836.71,681.53 879.83,665.55 C899.88,658.13 916.7051,652.671 935.8551,646.901" fill="none" id="Facilitate session-to-Add news item" style="stroke:#181818;stroke-width:1;"/><polygon fill="#181818" points="941.6,645.17,931.8287,643.9365,936.8126,646.6125,934.1366,651.5964,941.6,645.17" style="stroke:#181818;stroke-width:1;"/><text fill="#000000" font-family="sans-serif" font-size="13" lengthAdjust="spacing" textLength="61.1851" x="786.83" y="673.6169">&#171;extend&#187;</text></g><!--link Facilitate session to Add intervention--><g class="link" data-entity-1="Facilitate session" data-entity-2="Add intervention" data-source-line="34" data-uid="lnk47" id="link_Facilitate session_Add intervention"><path d="M724.04,759.27 C782.33,746.19 868.1356,726.9438 926.0656,713.9438" fill="none" id="Facilitate session-to-Add intervention" style="stroke:#181818;stroke-width:1;"/><polygon fill="#181818" points="931.92,712.63,922.2625,710.6977,927.0413,713.7248,924.0143,718.5036,931.92,712.63" style="stroke:#181818;stroke-width:1;"/><text fill="#000000" font-family="sans-serif" font-size="13" lengthAdjust="spacing" textLength="61.1851" x="786.83" y="727.6169">&#171;extend&#187;</text></g><!--link Facilitate session to Trigger intervention--><g class="link" data-entity-1="Facilitate session" data-entity-2="Trigger intervention" data-source-line="35" data-uid="lnk49" id="link_Facilitate session_Trigger intervention"><path d="M744.28,771.55 C791.8,771.55 847.33,771.55 896.38,771.55" fill="none" id="Facilitate session-to-Trigger intervention" style="stroke:#181818;stroke-width:1;"/><polygon fill="#181818" points="902.38,771.55,893.38,767.55,897.38,771.55,893.38,775.55,902.38,771.55" style="stroke:#181818;stroke-width:1;"/><text fill="#000000" font-family="sans-serif" font-size="13" lengthAdjust="spacing" textLength="61.1851" x="786.83" y="767.6169">&#171;extend&#187;</text></g><!--link Facilitate session to Chat with players--><g class="link" data-entity-1="Facilitate session" data-entity-2="Chat with players" data-source-line="36" data-uid="lnk51" id="link_Facilitate session_Chat with players"><path d="M723.68,783.93 C781.56,797.1 866.7695,816.489 924.8795,829.709" fill="none" id="Facilitate session-to-Chat with players" style="stroke:#181818;stroke-width:1;"/><polygon fill="#181818" points="930.73,831.04,922.8416,825.1432,925.8546,829.9308,921.0669,832.9439,930.73,831.04" style="stroke:#181818;stroke-width:1;"/><text fill="#000000" font-family="sans-serif" font-size="13" lengthAdjust="spacing" textLength="61.1851" x="786.83" y="794.6169">&#171;extend&#187;</text></g><!--link Facilitate session to Show actor map--><g class="link" data-entity-1="Facilitate session" data-entity-2="Show actor map" data-source-line="37" data-uid="lnk53" id="link_Facilitate session_Show actor map"><path d="M696.9,788.08 C720.05,801.69 754.17,821.19 784.83,836.55 C826.11,857.23 836.75,861.96 879.83,878.55 C899.71,886.21 916.3472,891.9158 935.3772,898.0258" fill="none" id="Facilitate session-to-Show actor map" style="stroke:#181818;stroke-width:1;"/><polygon fill="#181818" points="941.09,899.86,933.7437,893.3002,936.3294,898.3315,931.298,900.9172,941.09,899.86" style="stroke:#181818;stroke-width:1;"/><text fill="#000000" font-family="sans-serif" font-size="13" lengthAdjust="spacing" textLength="63.0068" x="785.83" y="832.6169">&#171;include&#187;</text></g><!--link Facilitate session to Show scores--><g class="link" data-entity-1="Facilitate session" data-entity-2="Show scores" data-source-line="38" data-uid="lnk55" id="link_Facilitate session_Show scores"><path d="M683.77,789.05 C704.56,813.52 744.79,858.56 784.83,890.55 C823.48,921.43 835.03,927.58 879.83,948.55 C900.67,958.31 919.1926,964.962 939.2126,971.212" fill="none" id="Facilitate session-to-Show scores" style="stroke:#181818;stroke-width:1;"/><polygon fill="#181818" points="944.94,973,937.5409,966.4997,940.1672,971.51,935.1569,974.1362,944.94,973" style="stroke:#181818;stroke-width:1;"/><text fill="#000000" font-family="sans-serif" font-size="13" lengthAdjust="spacing" textLength="63.0068" x="785.83" y="886.6169">&#171;include&#187;</text></g><!--link Start game to Send data to\ngame data platform--><g class="link" data-entity-1="Start game" data-entity-2="Send data to\ngame data platform" data-source-line="40" data-uid="lnk57" id="link_Start game_Send data to\ngame data platform"><path d="M1034.84,373.12 C1054.06,378.02 1075.9,385.46 1093.66,396.55 C1185.86,454.12 1260.9623,555.4742 1293.3523,603.2342" fill="none" id="Start game-to-Send data to\ngame data platform" style="stroke:#181818;stroke-width:1;"/><polygon fill="#181818" points="1296.72,608.2,1294.979,598.5062,1293.9136,604.0619,1288.358,602.9965,1296.72,608.2" style="stroke:#181818;stroke-width:1;"/><text fill="#000000" font-family="sans-serif" font-size="13" lengthAdjust="spacing" textLength="63.0068" x="1124.66" y="417.6169">&#171;include&#187;</text></g><!--link Add news item to Send data to\ngame data platform--><g class="link" data-entity-1="Add news item" data-entity-2="Send data to\ngame data platform" data-source-line="41" data-uid="lnk58" id="link_Add news item_Send data to\ngame data platform"><path d="M1056.24,632.55 C1103.33,632.55 1160.48,632.55 1212.31,632.55" fill="none" id="Add news item-to-Send data to\ngame data platform" style="stroke:#181818;stroke-width:1;"/><polygon fill="#181818" points="1218.31,632.55,1209.31,628.55,1213.31,632.55,1209.31,636.55,1218.31,632.55" style="stroke:#181818;stroke-width:1;"/><text fill="#000000" font-family="sans-serif" font-size="13" lengthAdjust="spacing" textLength="63.0068" x="1124.66" y="628.6169">&#171;include&#187;</text></g><!--link Add intervention to Send data to\ngame data platform--><g class="link" data-entity-1="Add intervention" data-entity-2="Send data to\ngame data platform" data-source-line="42" data-uid="lnk59" id="link_Add intervention_Send data to\ngame data platform"><path d="M1043.22,688.94 C1097.13,677.66 1173.4573,661.6795 1232.8773,649.2395" fill="none" id="Add intervention-to-Send data to\ngame data platform" style="stroke:#181818;stroke-width:1;"/><polygon fill="#181818" points="1238.75,648.01,1229.1213,645.9391,1233.8561,649.0346,1230.7606,653.7694,1238.75,648.01" style="stroke:#181818;stroke-width:1;"/><text fill="#000000" font-family="sans-serif" font-size="13" lengthAdjust="spacing" textLength="63.0068" x="1124.66" y="655.6169">&#171;include&#187;</text></g><!--link Trigger intervention to Send data to\ngame data platform--><g class="link" data-entity-1="Trigger intervention" data-entity-2="Send data to\ngame data platform" data-source-line="43" data-uid="lnk60" id="link_Trigger intervention_Send data to\ngame data platform"><path d="M1036.78,755.69 C1054.77,749.66 1075.23,742.55 1093.66,735.55 C1136.49,719.28 1147.1,714.83 1188.66,695.55 C1216.36,682.7 1241.6193,669.943 1265.4693,657.513" fill="none" id="Trigger intervention-to-Send data to\ngame data platform" style="stroke:#181818;stroke-width:1;"/><polygon fill="#181818" points="1270.79,654.74,1260.9602,655.3524,1266.356,657.0509,1264.6576,662.4467,1270.79,654.74" style="stroke:#181818;stroke-width:1;"/><text fill="#000000" font-family="sans-serif" font-size="13" lengthAdjust="spacing" textLength="63.0068" x="1124.66" y="691.6169">&#171;include&#187;</text></g><!--link Stop game to Send data to\ngame data platform--><g class="link" data-entity-1="Stop game" data-entity-2="Send data to\ngame data platform" data-source-line="44" data-uid="lnk61" id="link_Stop game_Send data to\ngame data platform"><path d="M1032.23,575.59 C1085.23,586.36 1168.6902,603.3152 1232.2702,616.2352" fill="none" id="Stop game-to-Send data to\ngame data platform" style="stroke:#181818;stroke-width:1;"/><polygon fill="#181818" points="1238.15,617.43,1230.1268,611.7179,1233.2501,616.4343,1228.5337,619.5576,1238.15,617.43" style="stroke:#181818;stroke-width:1;"/><text fill="#000000" font-family="sans-serif" font-size="13" lengthAdjust="spacing" textLength="63.0068" x="1124.66" y="591.6169">&#171;include&#187;</text></g><!--link SF to Debrief game--><g class="link" data-entity-1="SF" data-entity-2="Debrief game" data-source-line="46" data-uid="lnk63" id="link_SF_Debrief game"><path d="M398.53,483.2 C459.97,602.85 618.2793,911.1125 656.3793,985.3125" fill="none" id="SF-to-Debrief game" style="stroke:#181818;stroke-width:1;"/><polygon fill="#181818" points="659.12,990.65,658.5673,980.8167,656.8361,986.2021,651.4507,984.4709,659.12,990.65" style="stroke:#181818;stroke-width:1;"/></g><!--link Debrief game to Show scores--><g class="link" data-entity-1="Debrief game" data-entity-2="Show scores" data-source-line="47" data-uid="lnk64" id="link_Debrief game_Show scores"><path d="M734.06,1008.53 C750.61,1008.96 768.38,1009.34 784.83,1009.55 C813.72,1009.93 821.06,1012.18 849.83,1009.55 C880.3,1006.77 908.2585,1001.795 934.5485,996.265" fill="none" id="Debrief game-to-Show scores" style="stroke:#181818;stroke-width:1;"/><polygon fill="#181818" points="940.42,995.03,930.7894,992.9682,935.5271,996.0592,932.4361,1000.7969,940.42,995.03" style="stroke:#181818;stroke-width:1;"/><text fill="#000000" font-family="sans-serif" font-size="13" lengthAdjust="spacing" textLength="63.0068" x="785.83" y="1005.6169">&#171;include&#187;</text></g><!--link Debrief game to Show gameplay--><g class="link" data-entity-1="Debrief game" data-entity-2="Show gameplay" data-source-line="48" data-uid="lnk66" id="link_Debrief game_Show gameplay"><path d="M712.38,1018.54 C734.01,1024.26 760.67,1030.85 784.83,1035.55 C830.12,1044.37 875.7148,1050.758 915.2548,1055.618" fill="none" id="Debrief game-to-Show gameplay" style="stroke:#181818;stroke-width:1;"/><polygon fill="#181818" points="921.21,1056.35,912.7652,1051.2819,916.2473,1055.74,911.7892,1059.2222,921.21,1056.35" style="stroke:#181818;stroke-width:1;"/><text fill="#000000" font-family="sans-serif" font-size="13" lengthAdjust="spacing" textLength="61.1851" x="786.83" y="1031.6169">&#171;extend&#187;</text></g><!--SRC=[fLF1Ri8m3BtdAonEuu1sdn0I0t6Ubkt6nRG68hL9bPYnIVluEMsXj1G4x5QxxpcsttD6QmPsuCrcov0QJmaRPvKQQ0f1lfPsWOd932CxFm0Ce1VgCv27yUze1DCqDzO4zl6tQaKLGD0LV3IQm9CcXW93s3kV3bK7No9AB3PvQM6eh6E2bMDskG8eClmXhyYc47yerKkgoiqyeN1t0XZ22up7O6oIxLA2oUGQRquPFS9xfo0ZHbepvpryVM1ZaeW0vrob5wUBoZANr4iworIuQPMePebIRp2dY-WvOGk_zYw_pj1Rjwyb2R0M6KDbd67JwgitjAwh79EQqVDpO5SSwdSp9xWwKIw3lZbA7_VOpvXjqMwep40eYD9RYMyeCz_rb6xY3k4uv_5ygDbCNx9MAnLJqpw0OShFkxZACvR9Vv6jnBcP-Y6tln5b7wJBjXdsXhS74zp1BRs3IJp-78kUGxdE38dpr7SZBTFKToMzfCWe5x2qfJNAI7fcCMtUytP7Yl-KQQ_sqKhzGZrQJNUjV7U9eyNdj3gvy7PuWrmN2J6EfkewwWy0]--></g></svg>