<svg xmlns="http://www.w3.org/2000/svg" xmlns:xlink="http://www.w3.org/1999/xlink" contentStyleType="text/css" data-diagram-type="DESCRIPTION" height="916px" preserveAspectRatio="none" style="width:1372px;height:916px;background:#FFFFFF;" version="1.1" viewBox="0 0 1372 916" width="1372px" zoomAndPan="magnify"><defs/><g><!--entity SF--><g class="entity" data-entity="SF" data-source-line="3" data-uid="ent0002" id="entity_SF"><ellipse cx="373.5785" cy="382.76" fill="#F1F1F1" rx="8" ry="8" style="stroke:#181818;stroke-width:0.5;"/><path d="M373.5785,390.76 L373.5785,417.76 M360.5785,398.76 L386.5785,398.76 M373.5785,417.76 L360.5785,432.76 M373.5785,417.76 L386.5785,432.76" fill="none" style="stroke:#181818;stroke-width:0.5;"/><text fill="#000000" font-family="sans-serif" font-size="14" lengthAdjust="spacing" textLength="53.416" x="338.64" y="447.2551">Session</text><text fill="#000000" font-family="sans-serif" font-size="14" lengthAdjust="spacing" textLength="69.877" x="338.64" y="463.552">Facilitator</text></g><!--entity User--><g class="entity" data-entity="User" data-source-line="4" data-uid="ent0003" id="entity_User"><ellipse cx="21.9551" cy="336.9" fill="#F1F1F1" rx="8" ry="8" style="stroke:#181818;stroke-width:0.5;"/><path d="M21.9551,344.9 L21.9551,371.9 M8.9551,352.9 L34.9551,352.9 M21.9551,371.9 L8.9551,386.9 M21.9551,371.9 L34.9551,386.9" fill="none" style="stroke:#181818;stroke-width:0.5;"/><text fill="#000000" font-family="sans-serif" font-size="14" lengthAdjust="spacing" textLength="31.9102" x="6" y="401.3951">User</text></g><!--entity Administrator--><g class="entity" data-entity="Administrator" data-source-line="4" data-uid="ent0004" id="entity_Administrator"><ellipse cx="164.1713" cy="267.9" fill="#F1F1F1" rx="8" ry="8" style="stroke:#181818;stroke-width:0.5;"/><path d="M164.1713,275.9 L164.1713,302.9 M151.1713,283.9 L177.1713,283.9 M164.1713,302.9 L151.1713,317.9 M164.1713,302.9 L177.1713,317.9" fill="none" style="stroke:#181818;stroke-width:0.5;"/><text fill="#000000" font-family="sans-serif" font-size="14" lengthAdjust="spacing" textLength="95.6826" x="116.33" y="332.3951">Administrator</text></g><!--entity Set password--><g class="entity" data-entity="Set password" data-source-line="7" data-uid="ent0007" id="entity_Set password"><ellipse cx="164.1679" cy="386.5516" fill="#F1F1F1" rx="65.2579" ry="15.4516" style="stroke:#181818;stroke-width:0.5;"/><text fill="#000000" font-family="sans-serif" font-size="14" lengthAdjust="spacing" textLength="94.1514" x="117.0922" y="391.2">Set password</text></g><!--entity User administration--><g class="entity" data-entity="User administration" data-source-line="9" data-uid="ent0009" id="entity_User administration"><ellipse cx="373.583" cy="153.5506" fill="#F1F1F1" rx="83.153" ry="19.0306" style="stroke:#181818;stroke-width:0.5;"/><text fill="#000000" font-family="sans-serif" font-size="14" lengthAdjust="spacing" textLength="138.0518" x="304.5571" y="158.199">User administration</text></g><g class="entity" data-entity="GMN11" data-source-line="11" data-uid="ent0012" id="entity_GMN11"><path d="M342.65,207.99 L342.65,233.1228 A0,0 0 0 0 342.65,233.1228 L404.5162,233.1228 A0,0 0 0 0 404.5162,233.1228 L404.5162,217.99 L394.5162,207.99 L377.58,207.99 L373.58,173.02 L369.58,207.99 L342.65,207.99 A0,0 0 0 0 342.65,207.99" fill="#FEFFDD" style="stroke:#181818;stroke-width:0.5;"/><path d="M394.5162,207.99 L394.5162,217.99 L404.5162,217.99 L394.5162,207.99" fill="#FEFFDD" style="stroke:#181818;stroke-width:0.5;"/><text fill="#000000" font-family="sans-serif" font-size="13" lengthAdjust="spacing" textLength="40.8662" x="348.65" y="225.0569">player</text></g><!--entity Create user--><g class="entity" data-entity="Create user" data-source-line="14" data-uid="ent0014" id="entity_Create user"><ellipse cx="668.2843" cy="20.5469" fill="#F1F1F1" rx="60.7343" ry="14.5469" style="stroke:#181818;stroke-width:0.5;"/><text fill="#000000" font-family="sans-serif" font-size="14" lengthAdjust="spacing" textLength="81.8125" x="627.378" y="25.1953">Create user</text></g><!--entity Delete user--><g class="entity" data-entity="Delete user" data-source-line="15" data-uid="ent0016" id="entity_Delete user"><ellipse cx="668.2753" cy="84.5536" fill="#F1F1F1" rx="60.2653" ry="14.5236" style="stroke:#181818;stroke-width:0.5;"/><text fill="#000000" font-family="sans-serif" font-size="14" lengthAdjust="spacing" textLength="80.9854" x="627.7826" y="89.2021">Delete user</text></g><!--entity Reset user password--><g class="entity" data-entity="Reset user password" data-source-line="16" data-uid="ent0018" id="entity_Reset user password"><ellipse cx="668.2799" cy="153.55" fill="#F1F1F1" rx="86.5499" ry="19.71" style="stroke:#181818;stroke-width:0.5;"/><text fill="#000000" font-family="sans-serif" font-size="14" lengthAdjust="spacing" textLength="145.8857" x="595.337" y="158.1984">Reset user password</text></g><!--entity Set user access--><g class="entity" data-entity="Set user access" data-source-line="17" data-uid="ent0020" id="entity_Set user access"><ellipse cx="668.2761" cy="224.5472" fill="#F1F1F1" rx="71.2861" ry="16.6572" style="stroke:#181818;stroke-width:0.5;"/><text fill="#000000" font-family="sans-serif" font-size="14" lengthAdjust="spacing" textLength="109.6006" x="613.4759" y="229.1957">Set user access</text></g><!--entity User allocation--><g class="entity" data-entity="User allocation" data-source-line="19" data-uid="ent0022" id="entity_User allocation"><ellipse cx="668.2789" cy="292.5518" fill="#F1F1F1" rx="69.2089" ry="16.2418" style="stroke:#181818;stroke-width:0.5;"/><text fill="#000000" font-family="sans-serif" font-size="14" lengthAdjust="spacing" textLength="104.3779" x="616.0899" y="297.2002">User allocation</text></g><!--entity Allocate user--><g class="entity" data-entity="Allocate user" data-source-line="20" data-uid="ent0024" id="entity_Allocate user"><ellipse cx="965.7822" cy="207.5464" fill="#F1F1F1" rx="64.1822" ry="15.2364" style="stroke:#181818;stroke-width:0.5;"/><text fill="#000000" font-family="sans-serif" font-size="14" lengthAdjust="spacing" textLength="91.2871" x="920.1386" y="212.1949">Allocate user</text></g><!--entity Deallocate user--><g class="entity" data-entity="Deallocate user" data-source-line="21" data-uid="ent0026" id="entity_Deallocate user"><ellipse cx="965.7791" cy="274.5538" fill="#F1F1F1" rx="71.3191" ry="16.6638" style="stroke:#181818;stroke-width:0.5;"/><text fill="#000000" font-family="sans-serif" font-size="14" lengthAdjust="spacing" textLength="109.6826" x="910.9378" y="279.2023">Deallocate user</text></g><!--entity Brief game--><g class="entity" data-entity="Brief game" data-source-line="23" data-uid="ent0028" id="entity_Brief game"><ellipse cx="668.2782" cy="394.5536" fill="#F1F1F1" rx="57.4182" ry="14.5236" style="stroke:#181818;stroke-width:0.5;"/><text fill="#000000" font-family="sans-serif" font-size="14" lengthAdjust="spacing" textLength="76.959" x="629.7987" y="399.2021">Brief game</text></g><!--entity Start/stop game--><g class="entity" data-entity="Start/stop game" data-source-line="25" data-uid="ent0030" id="entity_Start/stop game"><ellipse cx="668.2771" cy="460.5474" fill="#F1F1F1" rx="72.7871" ry="16.9574" style="stroke:#181818;stroke-width:0.5;"/><text fill="#000000" font-family="sans-serif" font-size="14" lengthAdjust="spacing" textLength="113.3193" x="611.6175" y="465.1959">Start/stop game</text></g><!--entity Start game--><g class="entity" data-entity="Start game" data-source-line="26" data-uid="ent0032" id="entity_Start game"><ellipse cx="965.784" cy="340.5536" fill="#F1F1F1" rx="58.414" ry="14.5236" style="stroke:#181818;stroke-width:0.5;"/><text fill="#000000" font-family="sans-serif" font-size="14" lengthAdjust="spacing" textLength="78.3672" x="926.6004" y="345.2021">Start game</text></g><!--entity Change game speed--><g class="entity" data-entity="Change game speed" data-source-line="27" data-uid="ent0034" id="entity_Change game speed"><ellipse cx="965.7808" cy="409.5502" fill="#F1F1F1" rx="85.9508" ry="19.5902" style="stroke:#181818;stroke-width:0.5;"/><text fill="#000000" font-family="sans-serif" font-size="14" lengthAdjust="spacing" textLength="144.5117" x="893.5249" y="414.1986">Change game speed</text></g><!--entity Pause game--><g class="entity" data-entity="Pause game" data-source-line="28" data-uid="ent0036" id="entity_Pause game"><ellipse cx="965.7848" cy="478.555" fill="#F1F1F1" rx="62.2248" ry="14.845" style="stroke:#181818;stroke-width:0.5;"/><text fill="#000000" font-family="sans-serif" font-size="14" lengthAdjust="spacing" textLength="85.9688" x="922.8005" y="483.2034">Pause game</text></g><!--entity Stop game--><g class="entity" data-entity="Stop game" data-source-line="29" data-uid="ent0038" id="entity_Stop game"><ellipse cx="965.7767" cy="542.5536" fill="#F1F1F1" rx="56.7367" ry="14.5236" style="stroke:#181818;stroke-width:0.5;"/><text fill="#000000" font-family="sans-serif" font-size="14" lengthAdjust="spacing" textLength="75.9951" x="927.7791" y="547.2021">Stop game</text></g><!--entity Facilitate session--><g class="entity" data-entity="Facilitate session" data-source-line="31" data-uid="ent0040" id="entity_Facilitate session"><ellipse cx="668.2784" cy="665.5517" fill="#F1F1F1" rx="75.7084" ry="17.5417" style="stroke:#181818;stroke-width:0.5;"/><text fill="#000000" font-family="sans-serif" font-size="14" lengthAdjust="spacing" textLength="120.4424" x="608.0573" y="670.2001">Facilitate session</text></g><!--entity Add news item--><g class="entity" data-entity="Add news item" data-source-line="32" data-uid="ent0042" id="entity_Add news item"><ellipse cx="965.7838" cy="608.5508" fill="#F1F1F1" rx="69.1038" ry="16.2208" style="stroke:#181818;stroke-width:0.5;"/><text fill="#000000" font-family="sans-serif" font-size="14" lengthAdjust="spacing" textLength="104.1113" x="913.7282" y="613.1992">Add news item</text></g><!--entity Add intervention--><g class="entity" data-entity="Add intervention" data-source-line="33" data-uid="ent0044" id="entity_Add intervention"><ellipse cx="965.7838" cy="676.5488" fill="#F1F1F1" rx="74.2938" ry="17.2588" style="stroke:#181818;stroke-width:0.5;"/><text fill="#000000" font-family="sans-serif" font-size="14" lengthAdjust="spacing" textLength="117.0107" x="907.2784" y="681.1972">Add intervention</text></g><!--entity Trigger intervention--><g class="entity" data-entity="Trigger intervention" data-source-line="34" data-uid="ent0046" id="entity_Trigger intervention"><ellipse cx="965.7834" cy="747.5487" fill="#F1F1F1" rx="83.9934" ry="19.1987" style="stroke:#181818;stroke-width:0.5;"/><text fill="#000000" font-family="sans-serif" font-size="14" lengthAdjust="spacing" textLength="140" x="895.7834" y="752.1971">Trigger intervention</text></g><!--entity Show scores--><g class="entity" data-entity="Show scores" data-source-line="35" data-uid="ent0048" id="entity_Show scores"><ellipse cx="965.7828" cy="821.5526" fill="#F1F1F1" rx="62.7628" ry="14.9526" style="stroke:#181818;stroke-width:0.5;"/><text fill="#000000" font-family="sans-serif" font-size="14" lengthAdjust="spacing" textLength="87.4453" x="922.0602" y="826.201">Show scores</text></g><!--entity Send data to\ngame data platform--><g class="entity" data-entity="Send data to\ngame data platform" data-source-line="37" data-uid="ent0050" id="entity_Send data to\ngame data platform"><ellipse cx="1271.6566" cy="608.5494" fill="#F1F1F1" rx="94.9266" ry="24.4194" style="stroke:#181818;stroke-width:0.5;"/><text fill="#000000" font-family="sans-serif" font-size="14" lengthAdjust="spacing" textLength="89.749" x="1226.7821" y="602.6524">Send data to</text><text fill="#000000" font-family="sans-serif" font-size="14" lengthAdjust="spacing" textLength="139.8838" x="1201.7147" y="618.9492">game data platform</text></g><!--entity Debrief game--><g class="entity" data-entity="Debrief game" data-source-line="43" data-uid="ent0056" id="entity_Debrief game"><ellipse cx="668.2806" cy="836.5541" fill="#F1F1F1" rx="65.8206" ry="15.5641" style="stroke:#181818;stroke-width:0.5;"/><text fill="#000000" font-family="sans-serif" font-size="14" lengthAdjust="spacing" textLength="95.6348" x="620.4632" y="841.2026">Debrief game</text></g><!--entity Show gameplay--><g class="entity" data-entity="Show gameplay" data-source-line="45" data-uid="ent0059" id="entity_Show gameplay"><ellipse cx="965.7841" cy="893.5468" fill="#F1F1F1" rx="72.0841" ry="16.8168" style="stroke:#181818;stroke-width:0.5;"/><text fill="#000000" font-family="sans-serif" font-size="14" lengthAdjust="spacing" textLength="111.583" x="909.9926" y="898.1953">Show gameplay</text></g><!--reverse link User to Administrator--><g class="link" data-entity-1="User" data-entity-2="Administrator" data-source-line="4" data-uid="lnk5" id="link_User_Administrator"><path d="M54.3782,351.088 C72.8982,341.968 88.86,334.12 115.88,320.82" fill="none" id="User-backto-Administrator" style="stroke:#181818;stroke-width:1;"/><polygon fill="none" points="38.23,359.04,57.0289,356.4707,51.7275,345.7052,38.23,359.04" style="stroke:#181818;stroke-width:1;"/></g><!--reverse link Administrator to SF--><g class="link" data-entity-1="Administrator" data-entity-2="SF" data-source-line="5" data-uid="lnk6" id="link_Administrator_SF"><path d="M227.9724,334.8013 C266.3524,357.5613 304.05,379.91 338.39,400.28" fill="none" id="Administrator-backto-SF" style="stroke:#181818;stroke-width:1;"/><polygon fill="none" points="212.49,325.62,224.9119,339.9621,231.0328,329.6405,212.49,325.62" style="stroke:#181818;stroke-width:1;"/></g><!--link User to Set password--><g class="link" data-entity-1="User" data-entity-2="Set password" data-source-line="7" data-uid="lnk8" id="link_User_Set password"><path d="M38.23,368.73 C54.84,371.1 76.42,374.1838 101.41,377.7438" fill="none" id="User-to-Set password" style="stroke:#181818;stroke-width:1;"/><polygon fill="#181818" points="107.35,378.59,99.0041,373.3607,102.4,377.8848,97.8758,381.2807,107.35,378.59" style="stroke:#181818;stroke-width:1;"/></g><!--link Administrator to User administration--><g class="link" data-entity-1="Administrator" data-entity-2="User administration" data-source-line="9" data-uid="lnk10" id="link_Administrator_User administration"><path d="M204.33,259.01 C227.95,237.11 259.39,210.23 290.43,190.55 C302.58,182.85 311.1226,178.3266 324.1026,172.5866" fill="none" id="Administrator-to-User administration" style="stroke:#181818;stroke-width:1;"/><polygon fill="#181818" points="329.59,170.16,319.7412,170.1417,325.0172,172.1822,322.9767,177.4582,329.59,170.16" style="stroke:#181818;stroke-width:1;"/></g><!--link User administration to Create user--><g class="link" data-entity-1="User administration" data-entity-2="Create user" data-source-line="14" data-uid="lnk15" id="link_User administration_Create user"><path d="M402.93,135.39 C425.19,121.56 457.26,102.56 486.73,88.55 C527.51,69.17 539.48,68.46 581.73,52.55 C598.95,46.07 612.5094,40.9897 628.3294,35.0797" fill="none" id="User administration-to-Create user" style="stroke:#181818;stroke-width:1;"/><polygon fill="#181818" points="633.95,32.98,624.1193,32.3825,629.2662,34.7298,626.9189,39.8767,633.95,32.98" style="stroke:#181818;stroke-width:1;"/><text fill="#000000" font-family="sans-serif" font-size="13" lengthAdjust="spacing" textLength="63.0068" x="487.73" y="60.6169">&#171;include&#187;</text></g><!--link User administration to Delete user--><g class="link" data-entity-1="User administration" data-entity-2="Delete user" data-source-line="15" data-uid="lnk17" id="link_User administration_Delete user"><path d="M432.76,139.84 C489.11,126.55 567.4301,108.0967 618.1201,96.1467" fill="none" id="User administration-to-Delete user" style="stroke:#181818;stroke-width:1;"/><polygon fill="#181818" points="623.96,94.77,614.2823,92.9418,619.0934,95.9173,616.118,100.7284,623.96,94.77" style="stroke:#181818;stroke-width:1;"/><text fill="#000000" font-family="sans-serif" font-size="13" lengthAdjust="spacing" textLength="63.0068" x="487.73" y="109.6169">&#171;include&#187;</text></g><!--link User administration to Reset user password--><g class="link" data-entity-1="User administration" data-entity-2="Reset user password" data-source-line="16" data-uid="lnk19" id="link_User administration_Reset user password"><path d="M456.89,153.55 C495.7,153.55 535.99,153.55 575.25,153.55" fill="none" id="User administration-to-Reset user password" style="stroke:#181818;stroke-width:1;"/><polygon fill="#181818" points="581.25,153.55,572.25,149.55,576.25,153.55,572.25,157.55,581.25,153.55" style="stroke:#181818;stroke-width:1;"/><text fill="#000000" font-family="sans-serif" font-size="13" lengthAdjust="spacing" textLength="63.0068" x="487.73" y="149.6169">&#171;include&#187;</text></g><!--link User administration to Set user access--><g class="link" data-entity-1="User administration" data-entity-2="Set user access" data-source-line="17" data-uid="lnk21" id="link_User administration_Set user access"><path d="M432.06,167.5 C486.17,180.62 560.5291,198.6554 611.8891,211.1154" fill="none" id="User administration-to-Set user access" style="stroke:#181818;stroke-width:1;"/><polygon fill="#181818" points="617.72,212.53,609.9168,206.5209,612.8609,211.3512,608.0307,214.2954,617.72,212.53" style="stroke:#181818;stroke-width:1;"/><text fill="#000000" font-family="sans-serif" font-size="13" lengthAdjust="spacing" textLength="63.0068" x="487.73" y="179.6169">&#171;include&#187;</text></g><!--link SF to User allocation--><g class="link" data-entity-1="SF" data-entity-2="User allocation" data-source-line="19" data-uid="lnk23" id="link_SF_User allocation"><path d="M409.02,405.49 C465.84,380.65 572.9925,333.7836 628.8225,309.3736" fill="none" id="SF-to-User allocation" style="stroke:#181818;stroke-width:1;"/><polygon fill="#181818" points="634.32,306.97,624.4713,306.9104,629.7387,308.973,627.6762,314.2404,634.32,306.97" style="stroke:#181818;stroke-width:1;"/></g><!--link User allocation to Allocate user--><g class="link" data-entity-1="User allocation" data-entity-2="Allocate user" data-source-line="20" data-uid="lnk25" id="link_User allocation_Allocate user"><path d="M711.47,279.52 C733.33,272.83 760.47,264.62 784.83,257.55 C831.7,243.95 879.8615,230.6391 916.3715,220.6791" fill="none" id="User allocation-to-Allocate user" style="stroke:#181818;stroke-width:1;"/><polygon fill="#181818" points="922.16,219.1,912.4246,217.6097,917.3363,220.4159,914.53,225.3276,922.16,219.1" style="stroke:#181818;stroke-width:1;"/></g><!--link User allocation to Deallocate user--><g class="link" data-entity-1="User allocation" data-entity-2="Deallocate user" data-source-line="21" data-uid="lnk27" id="link_User allocation_Deallocate user"><path d="M735.6,288.51 C783.5,285.6 842.0211,282.0353 890.3911,279.0853" fill="none" id="User allocation-to-Deallocate user" style="stroke:#181818;stroke-width:1;"/><polygon fill="#181818" points="896.38,278.72,887.1532,275.2753,891.3893,279.0244,887.6402,283.2605,896.38,278.72" style="stroke:#181818;stroke-width:1;"/></g><!--link SF to Brief game--><g class="link" data-entity-1="SF" data-entity-2="Brief game" data-source-line="23" data-uid="lnk29" id="link_SF_Brief game"><path d="M409.02,417.49 C459.49,413.01 548.0435,405.1403 607.6635,399.8503" fill="none" id="SF-to-Brief game" style="stroke:#181818;stroke-width:1;"/><polygon fill="#181818" points="613.64,399.32,604.3217,396.1311,608.6596,399.7619,605.0287,404.0998,613.64,399.32" style="stroke:#181818;stroke-width:1;"/></g><!--link SF to Start/stop game--><g class="link" data-entity-1="SF" data-entity-2="Start/stop game" data-source-line="25" data-uid="lnk31" id="link_SF_Start/stop game"><path d="M409.02,425.26 C457,431.82 538.8453,442.9974 598.6153,451.1674" fill="none" id="SF-to-Start/stop game" style="stroke:#181818;stroke-width:1;"/><polygon fill="#181818" points="604.56,451.98,596.1846,446.798,599.6061,451.3028,595.1012,454.7243,604.56,451.98" style="stroke:#181818;stroke-width:1;"/></g><!--link Start/stop game to Start game--><g class="link" data-entity-1="Start/stop game" data-entity-2="Start game" data-source-line="26" data-uid="lnk33" id="link_Start/stop game_Start game"><path d="M710.72,446.52 C725.06,441.04 740.99,434.22 754.83,426.55 C769.3,418.55 770.22,412.29 784.83,404.55 C830.39,380.41 881.2332,363.6467 918.6532,352.8967" fill="none" id="Start/stop game-to-Start game" style="stroke:#181818;stroke-width:1;"/><polygon fill="#181818" points="924.42,351.24,914.6654,349.8805,919.6144,352.6206,916.8743,357.5695,924.42,351.24" style="stroke:#181818;stroke-width:1;"/><text fill="#000000" font-family="sans-serif" font-size="13" lengthAdjust="spacing" textLength="61.1851" x="786.83" y="372.6169">&#171;extend&#187;</text></g><!--link Start/stop game to Change game speed--><g class="link" data-entity-1="Start/stop game" data-entity-2="Change game speed" data-source-line="27" data-uid="lnk35" id="link_Start/stop game_Change game speed"><path d="M727.66,450.48 C776.1,442.12 839.1673,431.23 890.2373,422.42" fill="none" id="Start/stop game-to-Change game speed" style="stroke:#181818;stroke-width:1;"/><polygon fill="#181818" points="896.15,421.4,886.601,418.9882,891.2228,422.25,887.961,426.8718,896.15,421.4" style="stroke:#181818;stroke-width:1;"/><text fill="#000000" font-family="sans-serif" font-size="13" lengthAdjust="spacing" textLength="61.1851" x="786.83" y="425.6169">&#171;extend&#187;</text></g><!--link Start/stop game to Pause game--><g class="link" data-entity-1="Start/stop game" data-entity-2="Pause game" data-source-line="28" data-uid="lnk37" id="link_Start/stop game_Pause game"><path d="M737.39,466.17 C752.97,467.37 769.47,468.57 784.83,469.55 C824.63,472.1 863.4364,474.0637 898.3664,475.6737" fill="none" id="Start/stop game-to-Pause game" style="stroke:#181818;stroke-width:1;"/><polygon fill="#181818" points="904.36,475.95,895.5537,471.5399,899.3653,475.7198,895.1854,479.5314,904.36,475.95" style="stroke:#181818;stroke-width:1;"/><text fill="#000000" font-family="sans-serif" font-size="13" lengthAdjust="spacing" textLength="61.1851" x="786.83" y="465.6169">&#171;extend&#187;</text></g><!--link Start/stop game to Stop game--><g class="link" data-entity-1="Start/stop game" data-entity-2="Stop game" data-source-line="29" data-uid="lnk39" id="link_Start/stop game_Stop game"><path d="M711.07,474.66 C732.94,481.85 760.22,490.54 784.83,497.55 C831.6,510.87 879.9601,522.763 916.5601,531.393" fill="none" id="Start/stop game-to-Stop game" style="stroke:#181818;stroke-width:1;"/><polygon fill="#181818" points="922.4,532.77,914.5582,526.8113,917.5335,531.6225,912.7222,534.5977,922.4,532.77" style="stroke:#181818;stroke-width:1;"/><text fill="#000000" font-family="sans-serif" font-size="13" lengthAdjust="spacing" textLength="61.1851" x="786.83" y="493.6169">&#171;extend&#187;</text></g><!--link SF to Facilitate session--><g class="link" data-entity-1="SF" data-entity-2="Facilitate session" data-source-line="31" data-uid="lnk41" id="link_SF_Facilitate session"><path d="M409.02,449.38 C470.52,500.86 592.8387,603.2493 642.3087,644.6493" fill="none" id="SF-to-Facilitate session" style="stroke:#181818;stroke-width:1;"/><polygon fill="#181818" points="646.91,648.5,642.5752,639.6564,643.0756,645.2911,637.4409,645.7915,646.91,648.5" style="stroke:#181818;stroke-width:1;"/></g><!--link Facilitate session to Add news item--><g class="link" data-entity-1="Facilitate session" data-entity-2="Add news item" data-source-line="32" data-uid="lnk43" id="link_Facilitate session_Add news item"><path d="M727.66,654.29 C781.15,643.97 853.7787,629.9669 905.5987,619.9669" fill="none" id="Facilitate session-to-Add news item" style="stroke:#181818;stroke-width:1;"/><polygon fill="#181818" points="911.49,618.83,901.8951,616.6078,906.5806,619.7774,903.411,624.4629,911.49,618.83" style="stroke:#181818;stroke-width:1;"/><text fill="#000000" font-family="sans-serif" font-size="13" lengthAdjust="spacing" textLength="61.1851" x="786.83" y="627.6169">&#171;extend&#187;</text></g><!--link Facilitate session to Add intervention--><g class="link" data-entity-1="Facilitate session" data-entity-2="Add intervention" data-source-line="33" data-uid="lnk45" id="link_Facilitate session_Add intervention"><path d="M743.47,668.31 C788.94,670.01 840.9041,671.9471 886.1041,673.6271" fill="none" id="Facilitate session-to-Add intervention" style="stroke:#181818;stroke-width:1;"/><polygon fill="#181818" points="892.1,673.85,883.2548,669.5185,887.1035,673.6643,882.9576,677.513,892.1,673.85" style="stroke:#181818;stroke-width:1;"/><text fill="#000000" font-family="sans-serif" font-size="13" lengthAdjust="spacing" textLength="61.1851" x="786.83" y="665.6169">&#171;extend&#187;</text></g><!--link Facilitate session to Trigger intervention--><g class="link" data-entity-1="Facilitate session" data-entity-2="Trigger intervention" data-source-line="34" data-uid="lnk47" id="link_Facilitate session_Trigger intervention"><path d="M718.08,679.09 C771.19,693.83 850.0985,715.7257 905.1285,730.9957" fill="none" id="Facilitate session-to-Trigger intervention" style="stroke:#181818;stroke-width:1;"/><polygon fill="#181818" points="910.91,732.6,903.3072,726.3392,906.092,731.2631,901.1682,734.0479,910.91,732.6" style="stroke:#181818;stroke-width:1;"/><text fill="#000000" font-family="sans-serif" font-size="13" lengthAdjust="spacing" textLength="61.1851" x="786.83" y="694.6169">&#171;extend&#187;</text></g><!--link Facilitate session to Show scores--><g class="link" data-entity-1="Facilitate session" data-entity-2="Show scores" data-source-line="35" data-uid="lnk49" id="link_Facilitate session_Show scores"><path d="M694.03,682.33 C717.1,697.7 752.68,720.69 784.83,738.55 C825.84,761.34 837.21,764.96 879.83,784.55 C897.52,792.68 911.9478,799.0203 928.0678,805.9503" fill="none" id="Facilitate session-to-Show scores" style="stroke:#181818;stroke-width:1;"/><polygon fill="#181818" points="933.58,808.32,926.8915,801.0906,928.9865,806.3452,923.7319,808.4403,933.58,808.32" style="stroke:#181818;stroke-width:1;"/><text fill="#000000" font-family="sans-serif" font-size="13" lengthAdjust="spacing" textLength="63.0068" x="785.83" y="734.6169">&#171;include&#187;</text></g><!--link Start game to Send data to\ngame data platform--><g class="link" data-entity-1="Start game" data-entity-2="Send data to\ngame data platform" data-source-line="37" data-uid="lnk51" id="link_Start game_Send data to\ngame data platform"><path d="M1006.68,351.33 C1021.56,356.42 1038.13,363.41 1051.73,372.55 C1141.73,433.02 1217.5924,532.4664 1250.7324,579.4664" fill="none" id="Start game-to-Send data to\ngame data platform" style="stroke:#181818;stroke-width:1;"/><polygon fill="#181818" points="1254.19,584.37,1252.2727,574.7096,1251.3087,580.2837,1245.7346,579.3196,1254.19,584.37" style="stroke:#181818;stroke-width:1;"/><text fill="#000000" font-family="sans-serif" font-size="13" lengthAdjust="spacing" textLength="63.0068" x="1082.73" y="393.6169">&#171;include&#187;</text></g><!--link Add news item to Send data to\ngame data platform--><g class="link" data-entity-1="Add news item" data-entity-2="Send data to\ngame data platform" data-source-line="38" data-uid="lnk52" id="link_Add news item_Send data to\ngame data platform"><path d="M1035.36,608.55 C1077.02,608.55 1124.79,608.55 1170.42,608.55" fill="none" id="Add news item-to-Send data to\ngame data platform" style="stroke:#181818;stroke-width:1;"/><polygon fill="#181818" points="1176.42,608.55,1167.42,604.55,1171.42,608.55,1167.42,612.55,1176.42,608.55" style="stroke:#181818;stroke-width:1;"/><text fill="#000000" font-family="sans-serif" font-size="13" lengthAdjust="spacing" textLength="63.0068" x="1082.73" y="604.6169">&#171;include&#187;</text></g><!--link Add intervention to Send data to\ngame data platform--><g class="link" data-entity-1="Add intervention" data-entity-2="Send data to\ngame data platform" data-source-line="39" data-uid="lnk53" id="link_Add intervention_Send data to\ngame data platform"><path d="M1020.41,664.55 C1070.08,653.44 1138.4549,638.1408 1193.1749,625.8908" fill="none" id="Add intervention-to-Send data to\ngame data platform" style="stroke:#181818;stroke-width:1;"/><polygon fill="#181818" points="1199.03,624.58,1189.3735,622.6428,1194.1508,625.6723,1191.1212,630.4495,1199.03,624.58" style="stroke:#181818;stroke-width:1;"/><text fill="#000000" font-family="sans-serif" font-size="13" lengthAdjust="spacing" textLength="63.0068" x="1082.73" y="631.6169">&#171;include&#187;</text></g><!--link Trigger intervention to Send data to\ngame data platform--><g class="link" data-entity-1="Trigger intervention" data-entity-2="Send data to\ngame data platform" data-source-line="40" data-uid="lnk54" id="link_Trigger intervention_Send data to\ngame data platform"><path d="M1011.76,731.2 C1048.54,717.44 1101.64,696.68 1146.73,675.55 C1175.75,661.96 1202.2922,647.6746 1226.4022,634.0946" fill="none" id="Trigger intervention-to-Send data to\ngame data platform" style="stroke:#181818;stroke-width:1;"/><polygon fill="#181818" points="1231.63,631.15,1221.8253,632.0816,1227.2735,633.6038,1225.7514,639.052,1231.63,631.15" style="stroke:#181818;stroke-width:1;"/><text fill="#000000" font-family="sans-serif" font-size="13" lengthAdjust="spacing" textLength="63.0068" x="1082.73" y="671.6169">&#171;include&#187;</text></g><!--link Stop game to Send data to\ngame data platform--><g class="link" data-entity-1="Stop game" data-entity-2="Send data to\ngame data platform" data-source-line="41" data-uid="lnk55" id="link_Stop game_Send data to\ngame data platform"><path d="M1010,551.94 C1058.91,562.56 1133.5267,578.7665 1192.1367,591.4965" fill="none" id="Stop game-to-Send data to\ngame data platform" style="stroke:#181818;stroke-width:1;"/><polygon fill="#181818" points="1198,592.77,1190.0541,586.9509,1193.1139,591.7088,1188.3561,594.7686,1198,592.77" style="stroke:#181818;stroke-width:1;"/><text fill="#000000" font-family="sans-serif" font-size="13" lengthAdjust="spacing" textLength="63.0068" x="1082.73" y="563.6169">&#171;include&#187;</text></g><!--link SF to Debrief game--><g class="link" data-entity-1="SF" data-entity-2="Debrief game" data-source-line="43" data-uid="lnk57" id="link_SF_Debrief game"><path d="M407.3,467.06 C472.5,559.72 612.337,758.4732 652.927,816.1532" fill="none" id="SF-to-Debrief game" style="stroke:#181818;stroke-width:1;"/><polygon fill="#181818" points="656.38,821.06,654.4717,811.3978,653.5025,816.971,647.9293,816.0018,656.38,821.06" style="stroke:#181818;stroke-width:1;"/></g><!--link Debrief game to Show scores--><g class="link" data-entity-1="Debrief game" data-entity-2="Show scores" data-source-line="44" data-uid="lnk58" id="link_Debrief game_Show scores"><path d="M732.46,840.51 C767.15,841.95 810.92,842.58 849.83,839.55 C871.58,837.86 889.5243,835.392 909.8343,831.952" fill="none" id="Debrief game-to-Show scores" style="stroke:#181818;stroke-width:1;"/><polygon fill="#181818" points="915.75,830.95,906.2084,828.5091,910.8202,831.785,907.5444,836.3968,915.75,830.95" style="stroke:#181818;stroke-width:1;"/><text fill="#000000" font-family="sans-serif" font-size="13" lengthAdjust="spacing" textLength="63.0068" x="785.83" y="835.6169">&#171;include&#187;</text></g><!--link Debrief game to Show gameplay--><g class="link" data-entity-1="Debrief game" data-entity-2="Show gameplay" data-source-line="45" data-uid="lnk60" id="link_Debrief game_Show gameplay"><path d="M711.56,848.67 C733.33,854.62 760.36,861.56 784.83,866.55 C823.21,874.39 860.6847,880.1617 895.2547,884.8617" fill="none" id="Debrief game-to-Show gameplay" style="stroke:#181818;stroke-width:1;"/><polygon fill="#181818" points="901.2,885.67,892.8209,880.494,896.2456,884.9964,891.7432,888.4211,901.2,885.67" style="stroke:#181818;stroke-width:1;"/><text fill="#000000" font-family="sans-serif" font-size="13" lengthAdjust="spacing" textLength="61.1851" x="786.83" y="862.6169">&#171;extend&#187;</text></g><!--SRC=[fLJBRi8m4BpxArOzbKFKUuMGA8XpLRStBYPUWgN4Zkobj58_lfj7GruWI6_PySnw7-Eak2SW1zua1m9jFCPad1NYGM88_BMr6nMRr90Yvnz01P0RyH7Gm_mdYc2fCsDD85ySYqvK4PXTqQDe0OyI2N8LmibvFHCzViaekUgCSmapOHqXx1oHomH0dgflz0AjXk90Y55HbMxbKR7so8GPFCDy3iR6wL4ZB1RNT6jCSOhk3GEtMCZEVTwZbtzg5SUyWA5Mo4rxK6dgudf80wJYBIkWxkKIQusgoslkUV46zv2e35kW9ENfAP3BwvC1qkBLGDa9Vb6njs88uuhLGTa4ImH2ZgXl5RugBlokg-GvxWcQFXllSp7LU-1MHy1wr9eTYQS0XZ0RLd5LPooX_qHRxUHcwJi_t8GNEb4k3-u48NOUnwpMMLzjJywe5Id-PsnjkQGouYT9U-Up4Q_tXlAVDDqcfsOQ7zdKRB9lghjJD6PRuwxrrhhX3UkwA2ZYuf_PzyKl]--></g></svg>