<svg xmlns="http://www.w3.org/2000/svg" xmlns:xlink="http://www.w3.org/1999/xlink" contentStyleType="text/css" data-diagram-type="DESCRIPTION" height="496px" preserveAspectRatio="none" style="width:962px;height:496px;background:#FFFFFF;" version="1.1" viewBox="0 0 962 496" width="962px" zoomAndPan="magnify"><defs/><g><!--entity SA--><g class="entity" data-entity="SA" data-source-line="3" data-uid="ent0002" id="entity_SA"><ellipse cx="371.5754" cy="273.9" fill="#F1F1F1" rx="8" ry="8" style="stroke:#181818;stroke-width:0.5;"/><path d="M371.5754,281.9 L371.5754,308.9 M358.5754,289.9 L384.5754,289.9 M371.5754,308.9 L358.5754,323.9 M371.5754,308.9 L384.5754,323.9" fill="none" style="stroke:#181818;stroke-width:0.5;"/><text fill="#000000" font-family="sans-serif" font-size="14" lengthAdjust="spacing" textLength="152.5508" x="295.3" y="338.3951">Session administrator</text></g><!--entity User--><g class="entity" data-entity="User" data-source-line="4" data-uid="ent0003" id="entity_User"><ellipse cx="21.9551" cy="241.9" fill="#F1F1F1" rx="8" ry="8" style="stroke:#181818;stroke-width:0.5;"/><path d="M21.9551,249.9 L21.9551,276.9 M8.9551,257.9 L34.9551,257.9 M21.9551,276.9 L8.9551,291.9 M21.9551,276.9 L34.9551,291.9" fill="none" style="stroke:#181818;stroke-width:0.5;"/><text fill="#000000" font-family="sans-serif" font-size="14" lengthAdjust="spacing" textLength="31.9102" x="6" y="306.3951">User</text></g><!--entity Administrator--><g class="entity" data-entity="Administrator" data-source-line="4" data-uid="ent0004" id="entity_Administrator"><ellipse cx="163.1713" cy="196.9" fill="#F1F1F1" rx="8" ry="8" style="stroke:#181818;stroke-width:0.5;"/><path d="M163.1713,204.9 L163.1713,231.9 M150.1713,212.9 L176.1713,212.9 M163.1713,231.9 L150.1713,246.9 M163.1713,231.9 L176.1713,246.9" fill="none" style="stroke:#181818;stroke-width:0.5;"/><text fill="#000000" font-family="sans-serif" font-size="14" lengthAdjust="spacing" textLength="95.6826" x="115.33" y="261.3951">Administrator</text></g><!--entity Set password--><g class="entity" data-entity="Set password" data-source-line="7" data-uid="ent0007" id="entity_Set password"><ellipse cx="163.1679" cy="315.5516" fill="#F1F1F1" rx="65.2579" ry="15.4516" style="stroke:#181818;stroke-width:0.5;"/><text fill="#000000" font-family="sans-serif" font-size="14" lengthAdjust="spacing" textLength="94.1514" x="116.0922" y="320.2">Set password</text></g><!--entity User administration--><g class="entity" data-entity="User administration" data-source-line="9" data-uid="ent0009" id="entity_User administration"><ellipse cx="371.583" cy="150.5506" fill="#F1F1F1" rx="83.153" ry="19.0306" style="stroke:#181818;stroke-width:0.5;"/><text fill="#000000" font-family="sans-serif" font-size="14" lengthAdjust="spacing" textLength="138.0518" x="302.5571" y="155.199">User administration</text></g><g class="entity" data-entity="GMN11" data-source-line="11" data-uid="ent0012" id="entity_GMN11"><path d="M298.87,204.98 L298.87,230.1128 A0,0 0 0 0 298.87,230.1128 L444.2841,230.1128 A0,0 0 0 0 444.2841,230.1128 L444.2841,214.98 L434.2841,204.98 L375.58,204.98 L371.58,170.02 L367.58,204.98 L298.87,204.98 A0,0 0 0 0 298.87,204.98" fill="#FEFFDD" style="stroke:#181818;stroke-width:0.5;"/><path d="M434.2841,204.98 L434.2841,214.98 L444.2841,214.98 L434.2841,204.98" fill="#FEFFDD" style="stroke:#181818;stroke-width:0.5;"/><text fill="#000000" font-family="sans-serif" font-size="13" lengthAdjust="spacing" textLength="124.4141" x="304.87" y="222.0469">player or facilitator</text></g><!--entity Create user--><g class="entity" data-entity="Create user" data-source-line="14" data-uid="ent0014" id="entity_Create user"><ellipse cx="601.2843" cy="20.5469" fill="#F1F1F1" rx="60.7343" ry="14.5469" style="stroke:#181818;stroke-width:0.5;"/><text fill="#000000" font-family="sans-serif" font-size="14" lengthAdjust="spacing" textLength="81.8125" x="560.378" y="25.1953">Create user</text></g><!--entity Delete user--><g class="entity" data-entity="Delete user" data-source-line="15" data-uid="ent0016" id="entity_Delete user"><ellipse cx="601.2753" cy="84.5536" fill="#F1F1F1" rx="60.2653" ry="14.5236" style="stroke:#181818;stroke-width:0.5;"/><text fill="#000000" font-family="sans-serif" font-size="14" lengthAdjust="spacing" textLength="80.9854" x="560.7826" y="89.2021">Delete user</text></g><!--entity Reset user password--><g class="entity" data-entity="Reset user password" data-source-line="16" data-uid="ent0018" id="entity_Reset user password"><ellipse cx="601.2799" cy="153.55" fill="#F1F1F1" rx="86.5499" ry="19.71" style="stroke:#181818;stroke-width:0.5;"/><text fill="#000000" font-family="sans-serif" font-size="14" lengthAdjust="spacing" textLength="145.8857" x="528.337" y="158.1984">Reset user password</text></g><!--entity Set user access--><g class="entity" data-entity="Set user access" data-source-line="17" data-uid="ent0020" id="entity_Set user access"><ellipse cx="601.2761" cy="224.5472" fill="#F1F1F1" rx="71.2861" ry="16.6572" style="stroke:#181818;stroke-width:0.5;"/><text fill="#000000" font-family="sans-serif" font-size="14" lengthAdjust="spacing" textLength="109.6006" x="546.4759" y="229.1957">Set user access</text></g><!--entity Manage--><g class="entity" data-entity="Manage" data-source-line="19" data-uid="ent0022" id="entity_Manage"><ellipse cx="601.2833" cy="303.5498" fill="#F1F1F1" rx="65.4933" ry="24.2198" style="stroke:#181818;stroke-width:0.5;"/><text fill="#000000" font-family="sans-serif" font-size="14" lengthAdjust="spacing" textLength="55.6104" x="573.4781" y="297.343">Manage</text><text fill="#000000" font-family="sans-serif" font-size="14" lengthAdjust="spacing" textLength="95.9902" x="553.2881" y="313.6398">game session</text></g><!--entity Create game session--><g class="entity" data-entity="Create game session" data-source-line="21" data-uid="ent0024" id="entity_Create game session"><ellipse cx="852.2134" cy="158.5507" fill="#F1F1F1" rx="87.1534" ry="19.8307" style="stroke:#181818;stroke-width:0.5;"/><text fill="#000000" font-family="sans-serif" font-size="14" lengthAdjust="spacing" textLength="147.2666" x="778.5801" y="163.1991">Create game session</text></g><!--entity Set session dates--><g class="entity" data-entity="Set session dates" data-source-line="22" data-uid="ent0026" id="entity_Set session dates"><ellipse cx="852.2141" cy="231.5488" fill="#F1F1F1" rx="76.5941" ry="17.7188" style="stroke:#181818;stroke-width:0.5;"/><text fill="#000000" font-family="sans-serif" font-size="14" lengthAdjust="spacing" textLength="122.5752" x="790.9265" y="236.1973">Set session dates</text></g><!--entity Delete game session--><g class="entity" data-entity="Delete game session" data-source-line="23" data-uid="ent0028" id="entity_Delete game session"><ellipse cx="852.2117" cy="303.5483" fill="#F1F1F1" rx="86.7917" ry="19.7583" style="stroke:#181818;stroke-width:0.5;"/><text fill="#000000" font-family="sans-serif" font-size="14" lengthAdjust="spacing" textLength="146.4395" x="778.992" y="308.1968">Delete game session</text></g><!--entity Show sessions with status--><g class="entity" data-entity="Show sessions with status" data-source-line="24" data-uid="ent0030" id="entity_Show sessions with status"><ellipse cx="852.2142" cy="381.5488" fill="#F1F1F1" rx="103.1442" ry="23.0288" style="stroke:#181818;stroke-width:0.5;"/><text fill="#000000" font-family="sans-serif" font-size="14" lengthAdjust="spacing" textLength="182.9639" x="760.7323" y="386.1973">Show sessions with status</text></g><!--entity Show facilitators and\nplayers for session--><g class="entity" data-entity="Show facilitators and\nplayers for session" data-source-line="25" data-uid="ent0032" id="entity_Show facilitators and\nplayers for session"><ellipse cx="852.2121" cy="464.5497" fill="#F1F1F1" rx="104.3821" ry="25.4697" style="stroke:#181818;stroke-width:0.5;"/><text fill="#000000" font-family="sans-serif" font-size="14" lengthAdjust="spacing" textLength="147.0615" x="778.6813" y="461.8773">Show facilitators and</text><text fill="#000000" font-family="sans-serif" font-size="14" lengthAdjust="spacing" textLength="131.2773" x="786.5734" y="478.1742">players for session</text></g><!--reverse link User to Administrator--><g class="link" data-entity-1="User" data-entity-2="Administrator" data-source-line="4" data-uid="lnk5" id="link_User_Administrator"><path d="M55.5168,261.0217 C73.9168,255.0717 88.42,250.39 115.1,241.76" fill="none" id="User-backto-Administrator" style="stroke:#181818;stroke-width:1;"/><polygon fill="none" points="38.39,266.56,57.3629,266.7306,53.6707,255.3128,38.39,266.56" style="stroke:#181818;stroke-width:1;"/></g><!--reverse link Administrator to SA--><g class="link" data-entity-1="Administrator" data-entity-2="SA" data-source-line="5" data-uid="lnk6" id="link_Administrator_SA"><path d="M228.1254,250.4096 C252.8754,259.6396 266.95,264.89 294.96,275.34" fill="none" id="Administrator-backto-SA" style="stroke:#181818;stroke-width:1;"/><polygon fill="none" points="211.26,244.12,226.0288,256.0314,230.2219,244.7878,211.26,244.12" style="stroke:#181818;stroke-width:1;"/></g><!--link User to Set password--><g class="link" data-entity-1="User" data-entity-2="Set password" data-source-line="7" data-uid="lnk8" id="link_User_Set password"><path d="M38.39,276.43 C58.56,282.8 88.9092,292.3911 116.9292,301.2511" fill="none" id="User-to-Set password" style="stroke:#181818;stroke-width:1;"/><polygon fill="#181818" points="122.65,303.06,115.2747,296.5327,117.8827,301.5526,112.8628,304.1605,122.65,303.06" style="stroke:#181818;stroke-width:1;"/></g><!--link Administrator to User administration--><g class="link" data-entity-1="Administrator" data-entity-2="User administration" data-source-line="9" data-uid="lnk10" id="link_Administrator_User administration"><path d="M211.26,209.21 C245.77,196.5 286.6691,181.4421 320.5291,168.9821" fill="none" id="Administrator-to-User administration" style="stroke:#181818;stroke-width:1;"/><polygon fill="#181818" points="326.16,166.91,316.3323,166.2642,321.4676,168.6367,319.0951,173.772,326.16,166.91" style="stroke:#181818;stroke-width:1;"/></g><!--link User administration to Create user--><g class="link" data-entity-1="User administration" data-entity-2="Create user" data-source-line="14" data-uid="lnk15" id="link_User administration_Create user"><path d="M395.59,132.03 C422.81,110.77 470.08,75.84 514.73,52.55 C530.06,44.56 542.1781,39.5555 557.5481,34.1655" fill="none" id="User administration-to-Create user" style="stroke:#181818;stroke-width:1;"/><polygon fill="#181818" points="563.21,32.18,553.3934,31.3837,558.4917,33.8346,556.0408,38.933,563.21,32.18" style="stroke:#181818;stroke-width:1;"/></g><!--link User administration to Delete user--><g class="link" data-entity-1="User administration" data-entity-2="Delete user" data-source-line="15" data-uid="lnk17" id="link_User administration_Delete user"><path d="M424.53,135.49 C466.14,123.43 517.8374,108.4509 555.5674,97.5109" fill="none" id="User administration-to-Delete user" style="stroke:#181818;stroke-width:1;"/><polygon fill="#181818" points="561.33,95.84,551.5721,94.5046,556.5278,97.2324,553.8,102.1881,561.33,95.84" style="stroke:#181818;stroke-width:1;"/></g><!--link User administration to Reset user password--><g class="link" data-entity-1="User administration" data-entity-2="Reset user password" data-source-line="16" data-uid="lnk19" id="link_User administration_Reset user password"><path d="M454.78,151.63 C474.28,151.89 489.1105,152.0805 508.7405,152.3405" fill="none" id="User administration-to-Reset user password" style="stroke:#181818;stroke-width:1;"/><polygon fill="#181818" points="514.74,152.42,505.7938,148.3012,509.7404,152.3538,505.6878,156.3005,514.74,152.42" style="stroke:#181818;stroke-width:1;"/></g><!--link User administration to Set user access--><g class="link" data-entity-1="User administration" data-entity-2="Set user access" data-source-line="17" data-uid="lnk21" id="link_User administration_Set user access"><path d="M420.87,166.24 C461.6,179.48 513.6035,196.3863 552.4835,209.0163" fill="none" id="User administration-to-Set user access" style="stroke:#181818;stroke-width:1;"/><polygon fill="#181818" points="558.19,210.87,550.8661,204.2851,553.4346,209.3252,548.3945,211.8937,558.19,210.87" style="stroke:#181818;stroke-width:1;"/></g><!--link SA to Manage--><g class="link" data-entity-1="SA" data-entity-2="Manage" data-source-line="20" data-uid="lnk23" id="link_SA_Manage"><path d="M448.08,303.55 C476.44,303.55 502.38,303.55 529.65,303.55" fill="none" id="SA-to-Manage" style="stroke:#181818;stroke-width:1;"/><polygon fill="#181818" points="535.65,303.55,526.65,299.55,530.65,303.55,526.65,307.55,535.65,303.55" style="stroke:#181818;stroke-width:1;"/></g><!--link Manage to Create game session--><g class="link" data-entity-1="Manage" data-entity-2="Create game session" data-source-line="21" data-uid="lnk25" id="link_Manage_Create game session"><path d="M643.91,285 C658.41,277.68 674.4,268.61 687.83,258.55 C718.52,235.56 715.69,217.47 747.83,196.55 C762.26,187.16 773.6727,181.7067 789.7227,175.9467" fill="none" id="Manage-to-Create game session" style="stroke:#181818;stroke-width:1;"/><polygon fill="#181818" points="795.37,173.92,785.5479,173.1952,790.6639,175.6089,788.2501,180.725,795.37,173.92" style="stroke:#181818;stroke-width:1;"/></g><!--link Manage to Set session dates--><g class="link" data-entity-1="Manage" data-entity-2="Set session dates" data-source-line="22" data-uid="lnk27" id="link_Manage_Set session dates"><path d="M653.86,288.63 C697.72,275.95 754.4665,259.5379 797.3165,247.1379" fill="none" id="Manage-to-Set session dates" style="stroke:#181818;stroke-width:1;"/><polygon fill="#181818" points="803.08,245.47,793.3228,244.1294,798.2771,246.8599,795.5466,251.8141,803.08,245.47" style="stroke:#181818;stroke-width:1;"/></g><!--link Manage to Delete game session--><g class="link" data-entity-1="Manage" data-entity-2="Delete game session" data-source-line="23" data-uid="lnk29" id="link_Manage_Delete game session"><path d="M667.04,303.55 C697,303.55 727.01,303.55 759.22,303.55" fill="none" id="Manage-to-Delete game session" style="stroke:#181818;stroke-width:1;"/><polygon fill="#181818" points="765.22,303.55,756.22,299.55,760.22,303.55,756.22,307.55,765.22,303.55" style="stroke:#181818;stroke-width:1;"/></g><!--link Manage to Show sessions with status--><g class="link" data-entity-1="Manage" data-entity-2="Show sessions with status" data-source-line="24" data-uid="lnk31" id="link_Manage_Show sessions with status"><path d="M652.06,319.15 C692.07,331.68 742.6947,347.5454 785.2547,360.8854" fill="none" id="Manage-to-Show sessions with status" style="stroke:#181818;stroke-width:1;"/><polygon fill="#181818" points="790.98,362.68,783.5883,356.1713,786.2089,361.1845,781.1956,363.8051,790.98,362.68" style="stroke:#181818;stroke-width:1;"/></g><!--link Manage to Show facilitators and\nplayers for session--><g class="link" data-entity-1="Manage" data-entity-2="Show facilitators and\nplayers for session" data-source-line="25" data-uid="lnk33" id="link_Manage_Show facilitators and\nplayers for session"><path d="M625.34,326.15 C652.73,352.06 700.68,394.56 747.83,422.55 C761.24,430.51 770.8937,435.3313 785.4337,441.3313" fill="none" id="Manage-to-Show facilitators and\nplayers for session" style="stroke:#181818;stroke-width:1;"/><polygon fill="#181818" points="790.98,443.62,784.1863,436.4894,786.3581,441.7127,781.1347,443.8845,790.98,443.62" style="stroke:#181818;stroke-width:1;"/></g><!--SRC=[ZP6nQiGm38PtFOMuwJBa3Sf1QDSk3TrkKMCbCIJsOUa8XJvybVW2IJb29zlytozPlmPk5JLYybslw7pYHdqCW72gMSIkI6xqmOicqfXEI89r1P_22Lz-oXAhhGoxLmQCpdXPNl1Si-ADHAQON05_-8LOs4rJ-qC18IhZLrID8o3U1leso1mjDNxmklJcu73c09xMoDLV4vELkXjG775lFF1_k0yMcsZ6DcCTyFLAKzDOm1R1wPq2TNmD7OsCabDVSZvdfO2wMipv2VdOZREr5ZjWxlSGq1agU_anve6_ZzEg24vUUnIB-ovFiCqo12cuQyYB4cnjLMlvNm00]--></g></svg>