<svg xmlns="http://www.w3.org/2000/svg" xmlns:xlink="http://www.w3.org/1999/xlink" contentStyleType="text/css" data-diagram-type="DESCRIPTION" height="256px" preserveAspectRatio="none" style="width:721px;height:256px;background:#FFFFFF;" version="1.1" viewBox="0 0 721 256" width="721px" zoomAndPan="magnify"><defs/><g><!--entity SA--><g class="entity" data-entity="SA" data-source-line="3" data-uid="ent0002" id="entity_SA"><ellipse cx="164.1713" cy="88.34" fill="#F1F1F1" rx="8" ry="8" style="stroke:#181818;stroke-width:0.5;"/><path d="M164.1713,96.34 L164.1713,123.34 M151.1713,104.34 L177.1713,104.34 M164.1713,123.34 L151.1713,138.34 M164.1713,123.34 L177.1713,138.34" fill="none" style="stroke:#181818;stroke-width:0.5;"/><text fill="#000000" font-family="sans-serif" font-size="14" lengthAdjust="spacing" textLength="53.416" x="116.33" y="152.8351">Session</text><text fill="#000000" font-family="sans-serif" font-size="14" lengthAdjust="spacing" textLength="95.6826" x="116.33" y="169.132">Administrator</text></g><!--entity User--><g class="entity" data-entity="User" data-source-line="4" data-uid="ent0003" id="entity_User"><ellipse cx="21.9551" cy="173.49" fill="#F1F1F1" rx="8" ry="8" style="stroke:#181818;stroke-width:0.5;"/><path d="M21.9551,181.49 L21.9551,208.49 M8.9551,189.49 L34.9551,189.49 M21.9551,208.49 L8.9551,223.49 M21.9551,208.49 L34.9551,223.49" fill="none" style="stroke:#181818;stroke-width:0.5;"/><text fill="#000000" font-family="sans-serif" font-size="14" lengthAdjust="spacing" textLength="31.9102" x="6" y="237.9851">User</text></g><!--entity Set password--><g class="entity" data-entity="Set password" data-source-line="6" data-uid="ent0005" id="entity_Set password"><ellipse cx="164.1679" cy="223.1416" fill="#F1F1F1" rx="65.2579" ry="15.4516" style="stroke:#181818;stroke-width:0.5;"/><text fill="#000000" font-family="sans-serif" font-size="14" lengthAdjust="spacing" textLength="94.1514" x="117.0922" y="227.79">Set password</text></g><!--entity Manage session--><g class="entity" data-entity="Manage session" data-source-line="8" data-uid="ent0007" id="entity_Manage session"><ellipse cx="362.6256" cy="126.1411" fill="#F1F1F1" rx="72.2056" ry="16.8411" style="stroke:#181818;stroke-width:0.5;"/><text fill="#000000" font-family="sans-serif" font-size="14" lengthAdjust="spacing" textLength="111.8838" x="306.6838" y="130.7896">Manage session</text></g><!--entity Create session--><g class="entity" data-entity="Create session" data-source-line="9" data-uid="ent0009" id="entity_Create session"><ellipse cx="636.4962" cy="22.1412" fill="#F1F1F1" rx="68.7062" ry="16.1412" style="stroke:#181818;stroke-width:0.5;"/><text fill="#000000" font-family="sans-serif" font-size="14" lengthAdjust="spacing" textLength="103.0996" x="584.9464" y="26.7897">Create session</text></g><!--entity Set session dates--><g class="entity" data-entity="Set session dates" data-source-line="10" data-uid="ent0011" id="entity_Set session dates"><ellipse cx="636.5041" cy="91.1388" fill="#F1F1F1" rx="76.5941" ry="17.7188" style="stroke:#181818;stroke-width:0.5;"/><text fill="#000000" font-family="sans-serif" font-size="14" lengthAdjust="spacing" textLength="122.5752" x="575.2165" y="95.7873">Set session dates</text></g><!--entity Set player access--><g class="entity" data-entity="Set player access" data-source-line="11" data-uid="ent0013" id="entity_Set player access"><ellipse cx="636.502" cy="161.1404" fill="#F1F1F1" rx="76.802" ry="17.7604" style="stroke:#181818;stroke-width:0.5;"/><text fill="#000000" font-family="sans-serif" font-size="14" lengthAdjust="spacing" textLength="123.0742" x="574.9649" y="165.7888">Set player access</text></g><!--entity Allocate facilitator--><g class="entity" data-entity="Allocate facilitator" data-source-line="12" data-uid="ent0015" id="entity_Allocate facilitator"><ellipse cx="636.4987" cy="232.1417" fill="#F1F1F1" rx="78.6587" ry="18.1317" style="stroke:#181818;stroke-width:0.5;"/><text fill="#000000" font-family="sans-serif" font-size="14" lengthAdjust="spacing" textLength="127.5039" x="572.7467" y="236.7902">Allocate facilitator</text></g><!--reverse link User to SA--><g class="link" data-entity-1="User" data-entity-2="SA" data-source-line="4" data-uid="lnk4" id="link_User_SA"><path d="M54.0076,186.0859 C72.5276,175.9159 88.86,166.95 115.88,152.11" fill="none" id="User-backto-SA" style="stroke:#181818;stroke-width:1;"/><polygon fill="none" points="38.23,194.75,56.8957,191.3451,51.1196,180.8267,38.23,194.75" style="stroke:#181818;stroke-width:1;"/></g><!--link User to Set password--><g class="link" data-entity-1="User" data-entity-2="Set password" data-source-line="6" data-uid="lnk6" id="link_User_Set password"><path d="M38.23,205.32 C54.84,207.69 76.4203,210.7615 101.4103,214.3315" fill="none" id="User-to-Set password" style="stroke:#181818;stroke-width:1;"/><polygon fill="#181818" points="107.35,215.18,99.0061,209.9474,102.4003,214.4729,97.8748,217.867,107.35,215.18" style="stroke:#181818;stroke-width:1;"/></g><!--link SA to Manage session--><g class="link" data-entity-1="SA" data-entity-2="Manage session" data-source-line="8" data-uid="lnk8" id="link_SA_Manage session"><path d="M212.23,126.14 C235.5,126.14 258.09,126.14 284,126.14" fill="none" id="SA-to-Manage session" style="stroke:#181818;stroke-width:1;"/><polygon fill="#181818" points="290,126.14,281,122.14,285,126.14,281,130.14,290,126.14" style="stroke:#181818;stroke-width:1;"/></g><!--link Manage session to Create session--><g class="link" data-entity-1="Manage session" data-entity-2="Create session" data-source-line="9" data-uid="lnk10" id="link_Manage session_Create session"><path d="M396.15,110.83 C415.85,101.77 441.58,90.31 464.84,81.14 C508.58,63.89 553.9467,48.4634 588.7467,37.0934" fill="none" id="Manage session-to-Create session" style="stroke:#181818;stroke-width:1;"/><polygon fill="#181818" points="594.45,35.23,584.6528,34.2229,589.6972,36.7828,587.1373,41.8273,594.45,35.23" style="stroke:#181818;stroke-width:1;"/><text fill="#000000" font-family="sans-serif" font-size="13" lengthAdjust="spacing" textLength="61.1851" x="465.84" y="55.2069">&#171;extend&#187;</text></g><!--link Manage session to Set session dates--><g class="link" data-entity-1="Manage session" data-entity-2="Set session dates" data-source-line="10" data-uid="lnk12" id="link_Manage session_Set session dates"><path d="M426.69,118.02 C469.35,112.53 519.6691,106.0457 563.0391,100.4657" fill="none" id="Manage session-to-Set session dates" style="stroke:#181818;stroke-width:1;"/><polygon fill="#181818" points="568.99,99.7,559.5531,96.8812,564.0309,100.338,560.574,104.8158,568.99,99.7" style="stroke:#181818;stroke-width:1;"/><text fill="#000000" font-family="sans-serif" font-size="13" lengthAdjust="spacing" textLength="61.1851" x="465.84" y="102.2069">&#171;extend&#187;</text></g><!--link Manage session to Set player access--><g class="link" data-entity-1="Manage session" data-entity-2="Set player access" data-source-line="11" data-uid="lnk14" id="link_Manage session_Set player access"><path d="M426.69,134.26 C469.19,139.73 519.249,146.1747 562.559,151.7447" fill="none" id="Manage session-to-Set player access" style="stroke:#181818;stroke-width:1;"/><polygon fill="#181818" points="568.51,152.51,560.0937,147.3947,563.5508,151.8722,559.0733,155.3293,568.51,152.51" style="stroke:#181818;stroke-width:1;"/><text fill="#000000" font-family="sans-serif" font-size="13" lengthAdjust="spacing" textLength="61.1851" x="465.84" y="136.2069">&#171;extend&#187;</text></g><!--link Manage session to Allocate facilitator--><g class="link" data-entity-1="Manage session" data-entity-2="Allocate facilitator" data-source-line="12" data-uid="lnk16" id="link_Manage session_Allocate facilitator"><path d="M395.68,141.58 C415.43,150.88 441.38,162.71 464.84,172.14 C506.5,188.89 549.1781,203.7521 583.7581,215.2821" fill="none" id="Manage session-to-Allocate facilitator" style="stroke:#181818;stroke-width:1;"/><polygon fill="#181818" points="589.45,217.18,582.1773,210.5386,584.7067,215.5984,579.6469,218.1278,589.45,217.18" style="stroke:#181818;stroke-width:1;"/><text fill="#000000" font-family="sans-serif" font-size="13" lengthAdjust="spacing" textLength="61.1851" x="465.84" y="168.2069">&#171;extend&#187;</text></g><!--SRC=[bP2n2W8n38RtFaMuoHlw0d8S56UdmyqbjBcpKDkZ2QZWmzjI1paGTCl_9r_oaq2pW2J8Vha8E9_9YazHgMuYvbATet5N7prBHacv0sIOZ3enPHYUMbVHbDOZx2OIM97vbhBhbPfCiuyOSI7WjhDNMwDD7JAXV9Xx60QWkr1qC8vVe7hnxO0hEF_1hG4V9JbQMre_SYQ4P6lC6QqFNkfNjkWB]--></g></svg>