<svg xmlns="http://www.w3.org/2000/svg" xmlns:xlink="http://www.w3.org/1999/xlink" contentStyleType="text/css" data-diagram-type="DESCRIPTION" height="588px" preserveAspectRatio="none" style="width:1057px;height:588px;background:#FFFFFF;" version="1.1" viewBox="0 0 1057 588" width="1057px" zoomAndPan="magnify"><defs/><g><!--entity SF--><g class="entity" data-entity="SF" data-source-line="3" data-uid="ent0002" id="entity_SF"><ellipse cx="164.1685" cy="166.45" fill="#F1F1F1" rx="8" ry="8" style="stroke:#181818;stroke-width:0.5;"/><path d="M164.1685,174.45 L164.1685,201.45 M151.1685,182.45 L177.1685,182.45 M164.1685,201.45 L151.1685,216.45 M164.1685,201.45 L177.1685,216.45" fill="none" style="stroke:#181818;stroke-width:0.5;"/><text fill="#000000" font-family="sans-serif" font-size="14" lengthAdjust="spacing" textLength="53.416" x="129.23" y="230.9451">Session</text><text fill="#000000" font-family="sans-serif" font-size="14" lengthAdjust="spacing" textLength="69.877" x="129.23" y="247.242">Facilitator</text></g><!--entity User--><g class="entity" data-entity="User" data-source-line="4" data-uid="ent0003" id="entity_User"><ellipse cx="21.9551" cy="251.59" fill="#F1F1F1" rx="8" ry="8" style="stroke:#181818;stroke-width:0.5;"/><path d="M21.9551,259.59 L21.9551,286.59 M8.9551,267.59 L34.9551,267.59 M21.9551,286.59 L8.9551,301.59 M21.9551,286.59 L34.9551,301.59" fill="none" style="stroke:#181818;stroke-width:0.5;"/><text fill="#000000" font-family="sans-serif" font-size="14" lengthAdjust="spacing" textLength="31.9102" x="6" y="316.0851">User</text></g><!--entity Set password--><g class="entity" data-entity="Set password" data-source-line="6" data-uid="ent0005" id="entity_Set password"><ellipse cx="164.1679" cy="301.2416" fill="#F1F1F1" rx="65.2579" ry="15.4516" style="stroke:#181818;stroke-width:0.5;"/><text fill="#000000" font-family="sans-serif" font-size="14" lengthAdjust="spacing" textLength="94.1514" x="117.0922" y="305.89">Set password</text></g><!--entity Brief game--><g class="entity" data-entity="Brief game" data-source-line="8" data-uid="ent0007" id="entity_Brief game"><ellipse cx="366.1282" cy="84.2436" fill="#F1F1F1" rx="57.4182" ry="14.5236" style="stroke:#181818;stroke-width:0.5;"/><text fill="#000000" font-family="sans-serif" font-size="14" lengthAdjust="spacing" textLength="76.959" x="327.6487" y="88.8921">Brief game</text></g><!--entity Facilitate users--><g class="entity" data-entity="Facilitate users" data-source-line="10" data-uid="ent0009" id="entity_Facilitate users"><ellipse cx="366.1282" cy="150.2356" fill="#F1F1F1" rx="70.0282" ry="16.4056" style="stroke:#181818;stroke-width:0.5;"/><text fill="#000000" font-family="sans-serif" font-size="14" lengthAdjust="spacing" textLength="106.4492" x="312.9036" y="154.8841">Facilitate users</text></g><!--entity Allocate user--><g class="entity" data-entity="Allocate user" data-source-line="11" data-uid="ent0011" id="entity_Allocate user"><ellipse cx="650.7922" cy="21.2364" fill="#F1F1F1" rx="64.1822" ry="15.2364" style="stroke:#181818;stroke-width:0.5;"/><text fill="#000000" font-family="sans-serif" font-size="14" lengthAdjust="spacing" textLength="91.2871" x="605.1486" y="25.8849">Allocate user</text></g><!--entity Deallocate user--><g class="entity" data-entity="Deallocate user" data-source-line="12" data-uid="ent0013" id="entity_Deallocate user"><ellipse cx="650.7891" cy="88.2438" fill="#F1F1F1" rx="71.3191" ry="16.6638" style="stroke:#181818;stroke-width:0.5;"/><text fill="#000000" font-family="sans-serif" font-size="14" lengthAdjust="spacing" textLength="109.6826" x="595.9478" y="92.8923">Deallocate user</text></g><!--entity Facilitate session--><g class="entity" data-entity="Facilitate session" data-source-line="14" data-uid="ent0015" id="entity_Facilitate session"><ellipse cx="366.1284" cy="280.2417" fill="#F1F1F1" rx="75.7084" ry="17.5417" style="stroke:#181818;stroke-width:0.5;"/><text fill="#000000" font-family="sans-serif" font-size="14" lengthAdjust="spacing" textLength="120.4424" x="305.9073" y="284.8901">Facilitate session</text></g><!--entity Start game--><g class="entity" data-entity="Start game" data-source-line="15" data-uid="ent0017" id="entity_Start game"><ellipse cx="650.794" cy="154.2436" fill="#F1F1F1" rx="58.414" ry="14.5236" style="stroke:#181818;stroke-width:0.5;"/><text fill="#000000" font-family="sans-serif" font-size="14" lengthAdjust="spacing" textLength="78.3672" x="611.6104" y="158.8921">Start game</text></g><!--entity Change game speed--><g class="entity" data-entity="Change game speed" data-source-line="16" data-uid="ent0019" id="entity_Change game speed"><ellipse cx="650.7908" cy="223.2402" fill="#F1F1F1" rx="85.9508" ry="19.5902" style="stroke:#181818;stroke-width:0.5;"/><text fill="#000000" font-family="sans-serif" font-size="14" lengthAdjust="spacing" textLength="144.5117" x="578.5349" y="227.8886">Change game speed</text></g><!--entity Add news item--><g class="entity" data-entity="Add news item" data-source-line="17" data-uid="ent0021" id="entity_Add news item"><ellipse cx="650.7938" cy="294.2408" fill="#F1F1F1" rx="69.1038" ry="16.2208" style="stroke:#181818;stroke-width:0.5;"/><text fill="#000000" font-family="sans-serif" font-size="14" lengthAdjust="spacing" textLength="104.1113" x="598.7382" y="298.8892">Add news item</text></g><!--entity Add intervention--><g class="entity" data-entity="Add intervention" data-source-line="18" data-uid="ent0023" id="entity_Add intervention"><ellipse cx="650.7938" cy="362.2388" fill="#F1F1F1" rx="74.2938" ry="17.2588" style="stroke:#181818;stroke-width:0.5;"/><text fill="#000000" font-family="sans-serif" font-size="14" lengthAdjust="spacing" textLength="117.0107" x="592.2884" y="366.8872">Add intervention</text></g><!--entity Stop game--><g class="entity" data-entity="Stop game" data-source-line="19" data-uid="ent0025" id="entity_Stop game"><ellipse cx="650.7867" cy="429.2436" fill="#F1F1F1" rx="56.7367" ry="14.5236" style="stroke:#181818;stroke-width:0.5;"/><text fill="#000000" font-family="sans-serif" font-size="14" lengthAdjust="spacing" textLength="75.9951" x="612.7891" y="433.8921">Stop game</text></g><!--entity Show scores--><g class="entity" data-entity="Show scores" data-source-line="20" data-uid="ent0027" id="entity_Show scores"><ellipse cx="650.7928" cy="495.2426" fill="#F1F1F1" rx="62.7628" ry="14.9526" style="stroke:#181818;stroke-width:0.5;"/><text fill="#000000" font-family="sans-serif" font-size="14" lengthAdjust="spacing" textLength="87.4453" x="607.0702" y="499.891">Show scores</text></g><!--entity Send data to\ngame data platform--><g class="entity" data-entity="Send data to\ngame data platform" data-source-line="22" data-uid="ent0029" id="entity_Send data to\ngame data platform"><ellipse cx="956.6666" cy="331.2394" fill="#F1F1F1" rx="94.9266" ry="24.4194" style="stroke:#181818;stroke-width:0.5;"/><text fill="#000000" font-family="sans-serif" font-size="14" lengthAdjust="spacing" textLength="89.749" x="911.7921" y="325.3424">Send data to</text><text fill="#000000" font-family="sans-serif" font-size="14" lengthAdjust="spacing" textLength="139.8838" x="886.7247" y="341.6392">game data platform</text></g><!--entity Debrief game--><g class="entity" data-entity="Debrief game" data-source-line="27" data-uid="ent0034" id="entity_Debrief game"><ellipse cx="366.1306" cy="508.2441" fill="#F1F1F1" rx="65.8206" ry="15.5641" style="stroke:#181818;stroke-width:0.5;"/><text fill="#000000" font-family="sans-serif" font-size="14" lengthAdjust="spacing" textLength="95.6348" x="318.3132" y="512.8926">Debrief game</text></g><!--entity Show gameplay--><g class="entity" data-entity="Show gameplay" data-source-line="29" data-uid="ent0037" id="entity_Show gameplay"><ellipse cx="650.7941" cy="565.2368" fill="#F1F1F1" rx="72.0841" ry="16.8168" style="stroke:#181818;stroke-width:0.5;"/><text fill="#000000" font-family="sans-serif" font-size="14" lengthAdjust="spacing" textLength="111.583" x="595.0026" y="569.8853">Show gameplay</text></g><!--reverse link User to SF--><g class="link" data-entity-1="User" data-entity-2="SF" data-source-line="4" data-uid="lnk4" id="link_User_SF"><path d="M54.0061,264.193 C75.5761,252.343 99.81,239.04 128.74,223.15" fill="none" id="User-backto-SF" style="stroke:#181818;stroke-width:1;"/><polygon fill="none" points="38.23,272.86,56.895,269.4517,51.1171,258.9344,38.23,272.86" style="stroke:#181818;stroke-width:1;"/></g><!--link User to Set password--><g class="link" data-entity-1="User" data-entity-2="Set password" data-source-line="6" data-uid="lnk6" id="link_User_Set password"><path d="M38.23,283.42 C54.84,285.79 76.42,288.8738 101.41,292.4338" fill="none" id="User-to-Set password" style="stroke:#181818;stroke-width:1;"/><polygon fill="#181818" points="107.35,293.28,99.0041,288.0507,102.4,292.5748,97.8758,295.9707,107.35,293.28" style="stroke:#181818;stroke-width:1;"/></g><!--link SF to Brief game--><g class="link" data-entity-1="SF" data-entity-2="Brief game" data-source-line="8" data-uid="lnk8" id="link_SF_Brief game"><path d="M199.52,177.17 C224,158.63 258.16,134.23 290.43,116.24 C303.86,108.75 313.8444,104.1061 327.2544,98.6361" fill="none" id="SF-to-Brief game" style="stroke:#181818;stroke-width:1;"/><polygon fill="#181818" points="332.81,96.37,322.9659,96.0655,328.1803,98.2585,325.9874,103.473,332.81,96.37" style="stroke:#181818;stroke-width:1;"/></g><!--link SF to Facilitate users--><g class="link" data-entity-1="SF" data-entity-2="Facilitate users" data-source-line="10" data-uid="lnk10" id="link_SF_Facilitate users"><path d="M199.54,194.96 C232.49,186.06 276.6473,174.1335 313.0673,164.3035" fill="none" id="SF-to-Facilitate users" style="stroke:#181818;stroke-width:1;"/><polygon fill="#181818" points="318.86,162.74,309.1286,161.2234,314.0327,164.0429,311.2133,168.947,318.86,162.74" style="stroke:#181818;stroke-width:1;"/></g><!--link Facilitate users to Allocate user--><g class="link" data-entity-1="Facilitate users" data-entity-2="Allocate user" data-source-line="11" data-uid="lnk12" id="link_Facilitate users_Allocate user"><path d="M404.03,136.12 C416.47,130.67 430.16,123.9 441.84,116.24 C456.85,106.41 456.54,98.6 471.84,89.24 C514.87,62.93 564.0296,45.5426 601.3996,34.4126" fill="none" id="Facilitate users-to-Allocate user" style="stroke:#181818;stroke-width:1;"/><polygon fill="#181818" points="607.15,32.7,597.3827,31.4354,602.358,34.1272,599.6662,39.1026,607.15,32.7" style="stroke:#181818;stroke-width:1;"/><text fill="#000000" font-family="sans-serif" font-size="13" lengthAdjust="spacing" textLength="61.1851" x="472.84" y="55.3069">&#171;extend&#187;</text></g><!--link Facilitate users to Deallocate user--><g class="link" data-entity-1="Facilitate users" data-entity-2="Deallocate user" data-source-line="12" data-uid="lnk14" id="link_Facilitate users_Deallocate user"><path d="M418.32,139.02 C469.07,127.88 540.5793,112.1954 591.6893,100.9854" fill="none" id="Facilitate users-to-Deallocate user" style="stroke:#181818;stroke-width:1;"/><polygon fill="#181818" points="597.55,99.7,587.902,97.721,592.6661,100.7712,589.6159,105.5353,597.55,99.7" style="stroke:#181818;stroke-width:1;"/><text fill="#000000" font-family="sans-serif" font-size="13" lengthAdjust="spacing" textLength="61.1851" x="472.84" y="110.3069">&#171;extend&#187;</text></g><!--link SF to Facilitate session--><g class="link" data-entity-1="SF" data-entity-2="Facilitate session" data-source-line="14" data-uid="lnk16" id="link_SF_Facilitate session"><path d="M199.54,217.31 C234.5,230.59 282.9917,249.0177 319.7617,262.9977" fill="none" id="SF-to-Facilitate session" style="stroke:#181818;stroke-width:1;"/><polygon fill="#181818" points="325.37,265.13,318.379,258.1927,320.6964,263.3531,315.536,265.6704,325.37,265.13" style="stroke:#181818;stroke-width:1;"/></g><!--link Facilitate session to Start game--><g class="link" data-entity-1="Facilitate session" data-entity-2="Start game" data-source-line="15" data-uid="lnk18" id="link_Facilitate session_Start game"><path d="M394.59,263.68 C415.41,251.46 444.93,234.84 471.84,222.24 C511.99,203.46 523.44,202.06 564.84,186.24 C582.07,179.66 595.6738,174.5314 611.4738,168.5914" fill="none" id="Facilitate session-to-Start game" style="stroke:#181818;stroke-width:1;"/><polygon fill="#181818" points="617.09,166.48,607.2581,165.903,612.4098,168.2395,610.0733,173.3913,617.09,166.48" style="stroke:#181818;stroke-width:1;"/><text fill="#000000" font-family="sans-serif" font-size="13" lengthAdjust="spacing" textLength="61.1851" x="472.84" y="194.3069">&#171;extend&#187;</text></g><!--link Facilitate session to Change game speed--><g class="link" data-entity-1="Facilitate session" data-entity-2="Change game speed" data-source-line="16" data-uid="lnk20" id="link_Facilitate session_Change game speed"><path d="M424.33,268.71 C470.96,259.31 530.8984,247.2163 579.3884,237.4363" fill="none" id="Facilitate session-to-Change game speed" style="stroke:#181818;stroke-width:1;"/><polygon fill="#181818" points="585.27,236.25,575.6568,234.1083,580.3687,237.2385,577.2385,241.9504,585.27,236.25" style="stroke:#181818;stroke-width:1;"/><text fill="#000000" font-family="sans-serif" font-size="13" lengthAdjust="spacing" textLength="61.1851" x="472.84" y="243.3069">&#171;extend&#187;</text></g><!--link Facilitate session to Add news item--><g class="link" data-entity-1="Facilitate session" data-entity-2="Add news item" data-source-line="17" data-uid="lnk22" id="link_Facilitate session_Add news item"><path d="M440.66,283.88 C484.66,286.06 534.1674,288.5129 576.9274,290.6329" fill="none" id="Facilitate session-to-Add news item" style="stroke:#181818;stroke-width:1;"/><polygon fill="#181818" points="582.92,290.93,574.1291,286.4892,577.9261,290.6824,573.733,294.4794,582.92,290.93" style="stroke:#181818;stroke-width:1;"/><text fill="#000000" font-family="sans-serif" font-size="13" lengthAdjust="spacing" textLength="61.1851" x="472.84" y="281.3069">&#171;extend&#187;</text></g><!--link Facilitate session to Add intervention--><g class="link" data-entity-1="Facilitate session" data-entity-2="Add intervention" data-source-line="18" data-uid="lnk24" id="link_Facilitate session_Add intervention"><path d="M411.61,294.65 C430.18,300.57 452.01,307.39 471.84,313.24 C515.18,326.03 558.9652,338.0445 594.7652,347.6545" fill="none" id="Facilitate session-to-Add intervention" style="stroke:#181818;stroke-width:1;"/><polygon fill="#181818" points="600.56,349.21,592.9048,343.0134,595.731,347.9137,590.8307,350.7399,600.56,349.21" style="stroke:#181818;stroke-width:1;"/><text fill="#000000" font-family="sans-serif" font-size="13" lengthAdjust="spacing" textLength="61.1851" x="472.84" y="309.3069">&#171;extend&#187;</text></g><!--link Facilitate session to Stop game--><g class="link" data-entity-1="Facilitate session" data-entity-2="Stop game" data-source-line="19" data-uid="lnk26" id="link_Facilitate session_Stop game"><path d="M388.82,297.34 C409.47,313.19 441.78,336.86 471.84,354.24 C511.27,377.03 522.84,379.65 564.84,397.24 C581.7,404.31 595.0992,409.4678 610.8592,415.2678" fill="none" id="Facilitate session-to-Stop game" style="stroke:#181818;stroke-width:1;"/><polygon fill="#181818" points="616.49,417.34,609.4253,410.4778,611.7977,415.6131,606.6623,417.9855,616.49,417.34" style="stroke:#181818;stroke-width:1;"/><text fill="#000000" font-family="sans-serif" font-size="13" lengthAdjust="spacing" textLength="61.1851" x="472.84" y="350.3069">&#171;extend&#187;</text></g><!--link Facilitate session to Show scores--><g class="link" data-entity-1="Facilitate session" data-entity-2="Show scores" data-source-line="20" data-uid="lnk28" id="link_Facilitate session_Show scores"><path d="M378.25,297.88 C395.69,324.5 431.67,375.45 471.84,409.24 C508.08,439.73 522.1,440.85 564.84,461.24 C581.04,468.97 593.8918,474.3513 609.4518,480.3513" fill="none" id="Facilitate session-to-Show scores" style="stroke:#181818;stroke-width:1;"/><polygon fill="#181818" points="615.05,482.51,608.0918,475.5398,610.3848,480.7111,605.2135,483.0041,615.05,482.51" style="stroke:#181818;stroke-width:1;"/><text fill="#000000" font-family="sans-serif" font-size="13" lengthAdjust="spacing" textLength="61.1851" x="472.84" y="405.3069">&#171;extend&#187;</text></g><!--link Start game to Send data to\ngame data platform--><g class="link" data-entity-1="Start game" data-entity-2="Send data to\ngame data platform" data-source-line="22" data-uid="lnk30" id="link_Start game_Send data to\ngame data platform"><path d="M687.69,165.75 C703.13,171.21 721.17,178.28 736.74,186.24 C807.78,222.56 879.1983,273.3822 920.3183,304.1922" fill="none" id="Start game-to-Send data to\ngame data platform" style="stroke:#181818;stroke-width:1;"/><polygon fill="#181818" points="925.12,307.79,920.316,299.1922,921.1186,304.7919,915.519,305.5945,925.12,307.79" style="stroke:#181818;stroke-width:1;"/><text fill="#000000" font-family="sans-serif" font-size="13" lengthAdjust="spacing" textLength="63.0068" x="767.74" y="199.3069">&#171;include&#187;</text></g><!--link Add news item to Send data to\ngame data platform--><g class="link" data-entity-1="Add news item" data-entity-2="Send data to\ngame data platform" data-source-line="23" data-uid="lnk31" id="link_Add news item_Send data to\ngame data platform"><path d="M712.92,301.69 C758.07,307.18 814.1639,314.0154 864.2239,320.1054" fill="none" id="Add news item-to-Send data to\ngame data platform" style="stroke:#181818;stroke-width:1;"/><polygon fill="#181818" points="870.18,320.83,861.7289,315.7724,865.2166,320.2262,860.7628,323.7139,870.18,320.83" style="stroke:#181818;stroke-width:1;"/><text fill="#000000" font-family="sans-serif" font-size="13" lengthAdjust="spacing" textLength="63.0068" x="767.74" y="304.3069">&#171;include&#187;</text></g><!--link Add intervention to Send data to\ngame data platform--><g class="link" data-entity-1="Add intervention" data-entity-2="Send data to\ngame data platform" data-source-line="24" data-uid="lnk32" id="link_Add intervention_Send data to\ngame data platform"><path d="M725.12,363.17 C757.85,362.82 796.83,361.36 831.74,357.24 C849.65,355.13 862.9248,352.9274 880.6848,349.2474" fill="none" id="Add intervention-to-Send data to\ngame data platform" style="stroke:#181818;stroke-width:1;"/><polygon fill="#181818" points="886.56,348.03,876.9356,345.9393,881.664,349.0445,878.5588,353.7729,886.56,348.03" style="stroke:#181818;stroke-width:1;"/><text fill="#000000" font-family="sans-serif" font-size="13" lengthAdjust="spacing" textLength="63.0068" x="767.74" y="353.3069">&#171;include&#187;</text></g><!--link Stop game to Send data to\ngame data platform--><g class="link" data-entity-1="Stop game" data-entity-2="Send data to\ngame data platform" data-source-line="25" data-uid="lnk33" id="link_Stop game_Send data to\ngame data platform"><path d="M697.56,420.72 C734.32,413.3 787.02,401.37 831.74,386.24 C858.95,377.04 882.9435,366.6798 906.2835,355.6698" fill="none" id="Stop game-to-Send data to\ngame data platform" style="stroke:#181818;stroke-width:1;"/><polygon fill="#181818" points="911.71,353.11,901.8636,353.332,907.1879,355.2432,905.2767,360.5674,911.71,353.11" style="stroke:#181818;stroke-width:1;"/><text fill="#000000" font-family="sans-serif" font-size="13" lengthAdjust="spacing" textLength="63.0068" x="767.74" y="382.3069">&#171;include&#187;</text></g><!--link SF to Debrief game--><g class="link" data-entity-1="SF" data-entity-2="Debrief game" data-source-line="27" data-uid="lnk35" id="link_SF_Debrief game"><path d="M199.35,234.87 C209.65,244.96 220.55,256.6 229.43,268.24 C288.75,346.11 337.3945,447.2636 355.5745,487.0136" fill="none" id="SF-to-Debrief game" style="stroke:#181818;stroke-width:1;"/><polygon fill="#181818" points="358.07,492.47,357.9643,482.6217,355.9904,487.923,350.6891,485.9491,358.07,492.47" style="stroke:#181818;stroke-width:1;"/></g><!--link Debrief game to Show scores--><g class="link" data-entity-1="Debrief game" data-entity-2="Show scores" data-source-line="28" data-uid="lnk36" id="link_Debrief game_Show scores"><path d="M431.64,510.38 C444.93,510.74 458.84,511.06 471.84,511.24 C499.84,511.64 506.91,513.18 534.84,511.24 C555.85,509.79 572.9259,507.7465 592.8059,504.7765" fill="none" id="Debrief game-to-Show scores" style="stroke:#181818;stroke-width:1;"/><polygon fill="#181818" points="598.74,503.89,589.2478,501.2637,593.7949,504.6288,590.4298,509.1759,598.74,503.89" style="stroke:#181818;stroke-width:1;"/><text fill="#000000" font-family="sans-serif" font-size="13" lengthAdjust="spacing" textLength="61.1851" x="472.84" y="507.3069">&#171;extend&#187;</text></g><!--link Debrief game to Show gameplay--><g class="link" data-entity-1="Debrief game" data-entity-2="Show gameplay" data-source-line="29" data-uid="lnk38" id="link_Debrief game_Show gameplay"><path d="M408.94,520.45 C428.01,525.75 450.96,531.76 471.84,536.24 C510.1,544.45 547.4857,550.6747 581.8057,555.7947" fill="none" id="Debrief game-to-Show gameplay" style="stroke:#181818;stroke-width:1;"/><polygon fill="#181818" points="587.74,556.68,579.4287,551.3958,582.7947,555.9422,578.2483,559.3083,587.74,556.68" style="stroke:#181818;stroke-width:1;"/><text fill="#000000" font-family="sans-serif" font-size="13" lengthAdjust="spacing" textLength="61.1851" x="472.84" y="532.3069">&#171;extend&#187;</text></g><!--SRC=[fLD1ReCm4Bpx5QkSoe4FL0WfRSG7hDnoSV42bXmRUJUbbVhu4XCYI9gqf3Tcx1dlZ1QB5GDx2APk6BG9MBBnJeYLHAB-Q-SALHfhMB4FAr04iX1RmW3PLveUmO3ID8SdYGoj8kfyq8aGiXZebs2mWbhjSKAURH4ElG4bufeQRgwjzUL89l0CMGRumUWqvFbDrGRLNTrFWz2GUJxAI9uYiWeyPBatoLpqsYXNOrG1jOXwWNQjDJZi20pZVg7EECRmZeuZ_MUfPDykZIWRtm6LFY1TLprhxRGf_P5MhFhbsxbOJ4IjLLpvC0OrhhG7ZV7fYoB-OpFlvL6dIKqFMfntS8Dlatza3d_lz-Rz8-vV_xnKV0C0]--></g></svg>