<svg xmlns="http://www.w3.org/2000/svg" xmlns:xlink="http://www.w3.org/1999/xlink" contentStyleType="text/css" data-diagram-type="DESCRIPTION" height="858px" preserveAspectRatio="none" style="width:1372px;height:858px;background:#FFFFFF;" version="1.1" viewBox="0 0 1372 858" width="1372px" zoomAndPan="magnify"><defs/><g><!--entity SF--><g class="entity" data-entity="SF" data-source-line="3" data-uid="ent0002" id="entity_SF"><ellipse cx="373.5785" cy="318.76" fill="#F1F1F1" rx="8" ry="8" style="stroke:#181818;stroke-width:0.5;"/><path d="M373.5785,326.76 L373.5785,353.76 M360.5785,334.76 L386.5785,334.76 M373.5785,353.76 L360.5785,368.76 M373.5785,353.76 L386.5785,368.76" fill="none" style="stroke:#181818;stroke-width:0.5;"/><text fill="#000000" font-family="sans-serif" font-size="14" lengthAdjust="spacing" textLength="53.416" x="338.64" y="383.2551">Session</text><text fill="#000000" font-family="sans-serif" font-size="14" lengthAdjust="spacing" textLength="69.877" x="338.64" y="399.552">Facilitator</text></g><!--entity User--><g class="entity" data-entity="User" data-source-line="4" data-uid="ent0003" id="entity_User"><ellipse cx="21.9551" cy="273.9" fill="#F1F1F1" rx="8" ry="8" style="stroke:#181818;stroke-width:0.5;"/><path d="M21.9551,281.9 L21.9551,308.9 M8.9551,289.9 L34.9551,289.9 M21.9551,308.9 L8.9551,323.9 M21.9551,308.9 L34.9551,323.9" fill="none" style="stroke:#181818;stroke-width:0.5;"/><text fill="#000000" font-family="sans-serif" font-size="14" lengthAdjust="spacing" textLength="31.9102" x="6" y="338.3951">User</text></g><!--entity Administrator--><g class="entity" data-entity="Administrator" data-source-line="4" data-uid="ent0004" id="entity_Administrator"><ellipse cx="164.1713" cy="204.9" fill="#F1F1F1" rx="8" ry="8" style="stroke:#181818;stroke-width:0.5;"/><path d="M164.1713,212.9 L164.1713,239.9 M151.1713,220.9 L177.1713,220.9 M164.1713,239.9 L151.1713,254.9 M164.1713,239.9 L177.1713,254.9" fill="none" style="stroke:#181818;stroke-width:0.5;"/><text fill="#000000" font-family="sans-serif" font-size="14" lengthAdjust="spacing" textLength="95.6826" x="116.33" y="269.3951">Administrator</text></g><!--entity Set password--><g class="entity" data-entity="Set password" data-source-line="7" data-uid="ent0007" id="entity_Set password"><ellipse cx="164.1679" cy="323.5516" fill="#F1F1F1" rx="65.2579" ry="15.4516" style="stroke:#181818;stroke-width:0.5;"/><text fill="#000000" font-family="sans-serif" font-size="14" lengthAdjust="spacing" textLength="94.1514" x="117.0922" y="328.2">Set password</text></g><!--entity User administration--><g class="entity" data-entity="User administration" data-source-line="9" data-uid="ent0009" id="entity_User administration"><ellipse cx="373.583" cy="153.5506" fill="#F1F1F1" rx="83.153" ry="19.0306" style="stroke:#181818;stroke-width:0.5;"/><text fill="#000000" font-family="sans-serif" font-size="14" lengthAdjust="spacing" textLength="138.0518" x="304.5571" y="158.199">User administration</text></g><g class="entity" data-entity="GMN11" data-source-line="11" data-uid="ent0012" id="entity_GMN11"><path d="M342.65,207.99 L342.65,233.1228 A0,0 0 0 0 342.65,233.1228 L404.5162,233.1228 A0,0 0 0 0 404.5162,233.1228 L404.5162,217.99 L394.5162,207.99 L377.58,207.99 L373.58,173.02 L369.58,207.99 L342.65,207.99 A0,0 0 0 0 342.65,207.99" fill="#FEFFDD" style="stroke:#181818;stroke-width:0.5;"/><path d="M394.5162,207.99 L394.5162,217.99 L404.5162,217.99 L394.5162,207.99" fill="#FEFFDD" style="stroke:#181818;stroke-width:0.5;"/><text fill="#000000" font-family="sans-serif" font-size="13" lengthAdjust="spacing" textLength="40.8662" x="348.65" y="225.0569">player</text></g><!--entity Create user--><g class="entity" data-entity="Create user" data-source-line="14" data-uid="ent0014" id="entity_Create user"><ellipse cx="668.2843" cy="20.5469" fill="#F1F1F1" rx="60.7343" ry="14.5469" style="stroke:#181818;stroke-width:0.5;"/><text fill="#000000" font-family="sans-serif" font-size="14" lengthAdjust="spacing" textLength="81.8125" x="627.378" y="25.1953">Create user</text></g><!--entity Delete user--><g class="entity" data-entity="Delete user" data-source-line="15" data-uid="ent0016" id="entity_Delete user"><ellipse cx="668.2753" cy="84.5536" fill="#F1F1F1" rx="60.2653" ry="14.5236" style="stroke:#181818;stroke-width:0.5;"/><text fill="#000000" font-family="sans-serif" font-size="14" lengthAdjust="spacing" textLength="80.9854" x="627.7826" y="89.2021">Delete user</text></g><!--entity Reset user password--><g class="entity" data-entity="Reset user password" data-source-line="16" data-uid="ent0018" id="entity_Reset user password"><ellipse cx="668.2799" cy="153.55" fill="#F1F1F1" rx="86.5499" ry="19.71" style="stroke:#181818;stroke-width:0.5;"/><text fill="#000000" font-family="sans-serif" font-size="14" lengthAdjust="spacing" textLength="145.8857" x="595.337" y="158.1984">Reset user password</text></g><!--entity Set user access--><g class="entity" data-entity="Set user access" data-source-line="17" data-uid="ent0020" id="entity_Set user access"><ellipse cx="668.2761" cy="224.5472" fill="#F1F1F1" rx="71.2861" ry="16.6572" style="stroke:#181818;stroke-width:0.5;"/><text fill="#000000" font-family="sans-serif" font-size="14" lengthAdjust="spacing" textLength="109.6006" x="613.4759" y="229.1957">Set user access</text></g><!--entity Brief game--><g class="entity" data-entity="Brief game" data-source-line="19" data-uid="ent0022" id="entity_Brief game"><ellipse cx="668.2782" cy="290.5536" fill="#F1F1F1" rx="57.4182" ry="14.5236" style="stroke:#181818;stroke-width:0.5;"/><text fill="#000000" font-family="sans-serif" font-size="14" lengthAdjust="spacing" textLength="76.959" x="629.7987" y="295.2021">Brief game</text></g><!--entity Facilitate users--><g class="entity" data-entity="Facilitate users" data-source-line="21" data-uid="ent0024" id="entity_Facilitate users"><ellipse cx="668.2782" cy="356.5456" fill="#F1F1F1" rx="70.0282" ry="16.4056" style="stroke:#181818;stroke-width:0.5;"/><text fill="#000000" font-family="sans-serif" font-size="14" lengthAdjust="spacing" textLength="106.4492" x="615.0536" y="361.1941">Facilitate users</text></g><!--entity Allocate user--><g class="entity" data-entity="Allocate user" data-source-line="22" data-uid="ent0026" id="entity_Allocate user"><ellipse cx="965.7822" cy="220.5464" fill="#F1F1F1" rx="64.1822" ry="15.2364" style="stroke:#181818;stroke-width:0.5;"/><text fill="#000000" font-family="sans-serif" font-size="14" lengthAdjust="spacing" textLength="91.2871" x="920.1386" y="225.1949">Allocate user</text></g><!--entity Deallocate user--><g class="entity" data-entity="Deallocate user" data-source-line="23" data-uid="ent0028" id="entity_Deallocate user"><ellipse cx="965.7791" cy="287.5538" fill="#F1F1F1" rx="71.3191" ry="16.6638" style="stroke:#181818;stroke-width:0.5;"/><text fill="#000000" font-family="sans-serif" font-size="14" lengthAdjust="spacing" textLength="109.6826" x="910.9378" y="292.2023">Deallocate user</text></g><!--entity Facilitate session--><g class="entity" data-entity="Facilitate session" data-source-line="25" data-uid="ent0030" id="entity_Facilitate session"><ellipse cx="668.2784" cy="522.5517" fill="#F1F1F1" rx="75.7084" ry="17.5417" style="stroke:#181818;stroke-width:0.5;"/><text fill="#000000" font-family="sans-serif" font-size="14" lengthAdjust="spacing" textLength="120.4424" x="608.0573" y="527.2001">Facilitate session</text></g><!--entity Start game--><g class="entity" data-entity="Start game" data-source-line="26" data-uid="ent0032" id="entity_Start game"><ellipse cx="965.784" cy="353.5536" fill="#F1F1F1" rx="58.414" ry="14.5236" style="stroke:#181818;stroke-width:0.5;"/><text fill="#000000" font-family="sans-serif" font-size="14" lengthAdjust="spacing" textLength="78.3672" x="926.6004" y="358.2021">Start game</text></g><!--entity Change game speed--><g class="entity" data-entity="Change game speed" data-source-line="27" data-uid="ent0034" id="entity_Change game speed"><ellipse cx="965.7808" cy="422.5502" fill="#F1F1F1" rx="85.9508" ry="19.5902" style="stroke:#181818;stroke-width:0.5;"/><text fill="#000000" font-family="sans-serif" font-size="14" lengthAdjust="spacing" textLength="144.5117" x="893.5249" y="427.1986">Change game speed</text></g><!--entity Add news item--><g class="entity" data-entity="Add news item" data-source-line="28" data-uid="ent0036" id="entity_Add news item"><ellipse cx="965.7838" cy="493.5508" fill="#F1F1F1" rx="69.1038" ry="16.2208" style="stroke:#181818;stroke-width:0.5;"/><text fill="#000000" font-family="sans-serif" font-size="14" lengthAdjust="spacing" textLength="104.1113" x="913.7282" y="498.1992">Add news item</text></g><!--entity Add intervention--><g class="entity" data-entity="Add intervention" data-source-line="29" data-uid="ent0038" id="entity_Add intervention"><ellipse cx="965.7838" cy="561.5488" fill="#F1F1F1" rx="74.2938" ry="17.2588" style="stroke:#181818;stroke-width:0.5;"/><text fill="#000000" font-family="sans-serif" font-size="14" lengthAdjust="spacing" textLength="117.0107" x="907.2784" y="566.1972">Add intervention</text></g><!--entity Trigger intervention--><g class="entity" data-entity="Trigger intervention" data-source-line="30" data-uid="ent0040" id="entity_Trigger intervention"><ellipse cx="965.7834" cy="632.5487" fill="#F1F1F1" rx="83.9934" ry="19.1987" style="stroke:#181818;stroke-width:0.5;"/><text fill="#000000" font-family="sans-serif" font-size="14" lengthAdjust="spacing" textLength="140" x="895.7834" y="637.1971">Trigger intervention</text></g><!--entity Stop game--><g class="entity" data-entity="Stop game" data-source-line="31" data-uid="ent0042" id="entity_Stop game"><ellipse cx="965.7767" cy="701.5536" fill="#F1F1F1" rx="56.7367" ry="14.5236" style="stroke:#181818;stroke-width:0.5;"/><text fill="#000000" font-family="sans-serif" font-size="14" lengthAdjust="spacing" textLength="75.9951" x="927.7791" y="706.2021">Stop game</text></g><!--entity Show scores--><g class="entity" data-entity="Show scores" data-source-line="32" data-uid="ent0044" id="entity_Show scores"><ellipse cx="965.7828" cy="766.5526" fill="#F1F1F1" rx="62.7628" ry="14.9526" style="stroke:#181818;stroke-width:0.5;"/><text fill="#000000" font-family="sans-serif" font-size="14" lengthAdjust="spacing" textLength="87.4453" x="922.0602" y="771.201">Show scores</text></g><!--entity Send data to\ngame data platform--><g class="entity" data-entity="Send data to\ngame data platform" data-source-line="34" data-uid="ent0046" id="entity_Send data to\ngame data platform"><ellipse cx="1271.6566" cy="530.5494" fill="#F1F1F1" rx="94.9266" ry="24.4194" style="stroke:#181818;stroke-width:0.5;"/><text fill="#000000" font-family="sans-serif" font-size="14" lengthAdjust="spacing" textLength="89.749" x="1226.7821" y="524.6524">Send data to</text><text fill="#000000" font-family="sans-serif" font-size="14" lengthAdjust="spacing" textLength="139.8838" x="1201.7147" y="540.9492">game data platform</text></g><!--entity Debrief game--><g class="entity" data-entity="Debrief game" data-source-line="39" data-uid="ent0051" id="entity_Debrief game"><ellipse cx="668.2806" cy="778.5541" fill="#F1F1F1" rx="65.8206" ry="15.5641" style="stroke:#181818;stroke-width:0.5;"/><text fill="#000000" font-family="sans-serif" font-size="14" lengthAdjust="spacing" textLength="95.6348" x="620.4632" y="783.2026">Debrief game</text></g><!--entity Show gameplay--><g class="entity" data-entity="Show gameplay" data-source-line="41" data-uid="ent0054" id="entity_Show gameplay"><ellipse cx="965.7841" cy="835.5468" fill="#F1F1F1" rx="72.0841" ry="16.8168" style="stroke:#181818;stroke-width:0.5;"/><text fill="#000000" font-family="sans-serif" font-size="14" lengthAdjust="spacing" textLength="111.583" x="909.9926" y="840.1953">Show gameplay</text></g><!--reverse link User to Administrator--><g class="link" data-entity-1="User" data-entity-2="Administrator" data-source-line="4" data-uid="lnk5" id="link_User_Administrator"><path d="M54.3782,288.088 C72.8982,278.968 88.86,271.12 115.88,257.82" fill="none" id="User-backto-Administrator" style="stroke:#181818;stroke-width:1;"/><polygon fill="none" points="38.23,296.04,57.0289,293.4707,51.7275,282.7052,38.23,296.04" style="stroke:#181818;stroke-width:1;"/></g><!--reverse link Administrator to SF--><g class="link" data-entity-1="Administrator" data-entity-2="SF" data-source-line="5" data-uid="lnk6" id="link_Administrator_SF"><path d="M228.006,271.5144 C266.386,294.0844 304.05,316.25 338.39,336.44" fill="none" id="Administrator-backto-SF" style="stroke:#181818;stroke-width:1;"/><polygon fill="none" points="212.49,262.39,224.9645,276.6864,231.0474,266.3424,212.49,262.39" style="stroke:#181818;stroke-width:1;"/></g><!--link User to Set password--><g class="link" data-entity-1="User" data-entity-2="Set password" data-source-line="7" data-uid="lnk8" id="link_User_Set password"><path d="M38.23,305.73 C54.84,308.1 76.42,311.1838 101.41,314.7438" fill="none" id="User-to-Set password" style="stroke:#181818;stroke-width:1;"/><polygon fill="#181818" points="107.35,315.59,99.0041,310.3607,102.4,314.8848,97.8758,318.2807,107.35,315.59" style="stroke:#181818;stroke-width:1;"/></g><!--link Administrator to User administration--><g class="link" data-entity-1="Administrator" data-entity-2="User administration" data-source-line="9" data-uid="lnk10" id="link_Administrator_User administration"><path d="M212.49,216.07 C247.88,202.25 290.2706,185.6915 324.4506,172.3515" fill="none" id="Administrator-to-User administration" style="stroke:#181818;stroke-width:1;"/><polygon fill="#181818" points="330.04,170.17,320.2016,169.7159,325.3822,171.9879,323.1102,177.1685,330.04,170.17" style="stroke:#181818;stroke-width:1;"/></g><!--link User administration to Create user--><g class="link" data-entity-1="User administration" data-entity-2="Create user" data-source-line="14" data-uid="lnk15" id="link_User administration_Create user"><path d="M402.93,135.39 C425.19,121.56 457.26,102.56 486.73,88.55 C527.51,69.17 539.48,68.46 581.73,52.55 C598.95,46.07 612.5094,40.9897 628.3294,35.0797" fill="none" id="User administration-to-Create user" style="stroke:#181818;stroke-width:1;"/><polygon fill="#181818" points="633.95,32.98,624.1193,32.3825,629.2662,34.7298,626.9189,39.8767,633.95,32.98" style="stroke:#181818;stroke-width:1;"/><text fill="#000000" font-family="sans-serif" font-size="13" lengthAdjust="spacing" textLength="63.0068" x="487.73" y="60.6169">&#171;include&#187;</text></g><!--link User administration to Delete user--><g class="link" data-entity-1="User administration" data-entity-2="Delete user" data-source-line="15" data-uid="lnk17" id="link_User administration_Delete user"><path d="M432.76,139.84 C489.11,126.55 567.4301,108.0967 618.1201,96.1467" fill="none" id="User administration-to-Delete user" style="stroke:#181818;stroke-width:1;"/><polygon fill="#181818" points="623.96,94.77,614.2823,92.9418,619.0934,95.9173,616.118,100.7284,623.96,94.77" style="stroke:#181818;stroke-width:1;"/><text fill="#000000" font-family="sans-serif" font-size="13" lengthAdjust="spacing" textLength="63.0068" x="487.73" y="109.6169">&#171;include&#187;</text></g><!--link User administration to Reset user password--><g class="link" data-entity-1="User administration" data-entity-2="Reset user password" data-source-line="16" data-uid="lnk19" id="link_User administration_Reset user password"><path d="M456.89,153.55 C495.7,153.55 535.99,153.55 575.25,153.55" fill="none" id="User administration-to-Reset user password" style="stroke:#181818;stroke-width:1;"/><polygon fill="#181818" points="581.25,153.55,572.25,149.55,576.25,153.55,572.25,157.55,581.25,153.55" style="stroke:#181818;stroke-width:1;"/><text fill="#000000" font-family="sans-serif" font-size="13" lengthAdjust="spacing" textLength="63.0068" x="487.73" y="149.6169">&#171;include&#187;</text></g><!--link User administration to Set user access--><g class="link" data-entity-1="User administration" data-entity-2="Set user access" data-source-line="17" data-uid="lnk21" id="link_User administration_Set user access"><path d="M432.06,167.5 C486.17,180.62 560.5291,198.6554 611.8891,211.1154" fill="none" id="User administration-to-Set user access" style="stroke:#181818;stroke-width:1;"/><polygon fill="#181818" points="617.72,212.53,609.9168,206.5209,612.8609,211.3512,608.0307,214.2954,617.72,212.53" style="stroke:#181818;stroke-width:1;"/><text fill="#000000" font-family="sans-serif" font-size="13" lengthAdjust="spacing" textLength="63.0068" x="487.73" y="179.6169">&#171;include&#187;</text></g><!--link SF to Brief game--><g class="link" data-entity-1="SF" data-entity-2="Brief game" data-source-line="19" data-uid="lnk23" id="link_SF_Brief game"><path d="M408.92,348.5 C431.11,343.32 460.61,336.47 486.73,330.55 C533.54,319.94 581.3895,309.3661 617.9795,301.3361" fill="none" id="SF-to-Brief game" style="stroke:#181818;stroke-width:1;"/><polygon fill="#181818" points="623.84,300.05,614.1918,298.0722,618.9562,301.1218,615.9066,305.8862,623.84,300.05" style="stroke:#181818;stroke-width:1;"/></g><!--link SF to Facilitate users--><g class="link" data-entity-1="SF" data-entity-2="Facilitate users" data-source-line="21" data-uid="lnk25" id="link_SF_Facilitate users"><path d="M409.02,356.55 C455.26,356.55 532.48,356.55 591.96,356.55" fill="none" id="SF-to-Facilitate users" style="stroke:#181818;stroke-width:1;"/><polygon fill="#181818" points="597.96,356.55,588.96,352.55,592.96,356.55,588.96,360.55,597.96,356.55" style="stroke:#181818;stroke-width:1;"/></g><!--link Facilitate users to Allocate user--><g class="link" data-entity-1="Facilitate users" data-entity-2="Allocate user" data-source-line="22" data-uid="lnk27" id="link_Facilitate users_Allocate user"><path d="M712.46,343.6 C726.63,338.28 742.02,331.28 754.83,322.55 C770.94,311.58 768.68,301.47 784.83,290.55 C822.37,265.17 837.6,269.98 879.83,253.55 C896.64,247.01 909.7383,241.9355 925.2883,235.8855" fill="none" id="Facilitate users-to-Allocate user" style="stroke:#181818;stroke-width:1;"/><polygon fill="#181818" points="930.88,233.71,921.0421,233.2455,926.2203,235.523,923.9428,240.7011,930.88,233.71" style="stroke:#181818;stroke-width:1;"/><text fill="#000000" font-family="sans-serif" font-size="13" lengthAdjust="spacing" textLength="61.1851" x="786.83" y="259.6169">&#171;extend&#187;</text></g><!--link Facilitate users to Deallocate user--><g class="link" data-entity-1="Facilitate users" data-entity-2="Deallocate user" data-source-line="23" data-uid="lnk29" id="link_Facilitate users_Deallocate user"><path d="M719.08,344.93 C773.35,332.25 853.8972,313.4446 908.4472,300.7046" fill="none" id="Facilitate users-to-Deallocate user" style="stroke:#181818;stroke-width:1;"/><polygon fill="#181818" points="914.29,299.34,904.6161,297.4917,909.421,300.4771,906.4356,305.282,914.29,299.34" style="stroke:#181818;stroke-width:1;"/><text fill="#000000" font-family="sans-serif" font-size="13" lengthAdjust="spacing" textLength="61.1851" x="786.83" y="311.6169">&#171;extend&#187;</text></g><!--link SF to Facilitate session--><g class="link" data-entity-1="SF" data-entity-2="Facilitate session" data-source-line="25" data-uid="lnk31" id="link_SF_Facilitate session"><path d="M409.02,376.08 C467.2,409.08 578.691,472.3098 633.011,503.1198" fill="none" id="SF-to-Facilitate session" style="stroke:#181818;stroke-width:1;"/><polygon fill="#181818" points="638.23,506.08,632.375,498.1605,633.8809,503.6132,628.4281,505.1191,638.23,506.08" style="stroke:#181818;stroke-width:1;"/></g><!--link Facilitate session to Start game--><g class="link" data-entity-1="Facilitate session" data-entity-2="Start game" data-source-line="26" data-uid="lnk33" id="link_Facilitate session_Start game"><path d="M688.83,505.32 C711.11,486.18 749.08,455 784.83,432.55 C824.73,407.51 836.63,404.32 879.83,385.55 C896.31,378.39 909.3247,373.33 924.9447,367.62" fill="none" id="Facilitate session-to-Start game" style="stroke:#181818;stroke-width:1;"/><polygon fill="#181818" points="930.58,365.56,920.7537,364.8932,925.8839,367.2767,923.5004,372.4069,930.58,365.56" style="stroke:#181818;stroke-width:1;"/><text fill="#000000" font-family="sans-serif" font-size="13" lengthAdjust="spacing" textLength="61.1851" x="786.83" y="393.6169">&#171;extend&#187;</text></g><!--link Facilitate session to Change game speed--><g class="link" data-entity-1="Facilitate session" data-entity-2="Change game speed" data-source-line="27" data-uid="lnk35" id="link_Facilitate session_Change game speed"><path d="M708.68,507.34 C730.94,498.88 759.33,488.33 784.83,479.55 C827.59,464.83 870.8048,451.1827 906.8548,440.1027" fill="none" id="Facilitate session-to-Change game speed" style="stroke:#181818;stroke-width:1;"/><polygon fill="#181818" points="912.59,438.34,902.812,437.1606,907.8106,439.8089,905.1623,444.8076,912.59,438.34" style="stroke:#181818;stroke-width:1;"/><text fill="#000000" font-family="sans-serif" font-size="13" lengthAdjust="spacing" textLength="61.1851" x="786.83" y="453.6169">&#171;extend&#187;</text></g><!--link Facilitate session to Add news item--><g class="link" data-entity-1="Facilitate session" data-entity-2="Add news item" data-source-line="28" data-uid="lnk37" id="link_Facilitate session_Add news item"><path d="M738.56,515.75 C787.86,510.92 847.6087,505.0559 895.5087,500.3559" fill="none" id="Facilitate session-to-Add news item" style="stroke:#181818;stroke-width:1;"/><polygon fill="#181818" points="901.48,499.77,892.1324,496.668,896.5039,500.2583,892.9136,504.6298,901.48,499.77" style="stroke:#181818;stroke-width:1;"/><text fill="#000000" font-family="sans-serif" font-size="13" lengthAdjust="spacing" textLength="61.1851" x="786.83" y="500.6169">&#171;extend&#187;</text></g><!--link Facilitate session to Add intervention--><g class="link" data-entity-1="Facilitate session" data-entity-2="Add intervention" data-source-line="29" data-uid="lnk39" id="link_Facilitate session_Add intervention"><path d="M734.86,531.21 C784.17,537.72 845.4416,545.8047 894.4516,552.2747" fill="none" id="Facilitate session-to-Add intervention" style="stroke:#181818;stroke-width:1;"/><polygon fill="#181818" points="900.4,553.06,892.0009,547.9165,895.443,552.4056,890.9539,555.8477,900.4,553.06" style="stroke:#181818;stroke-width:1;"/><text fill="#000000" font-family="sans-serif" font-size="13" lengthAdjust="spacing" textLength="61.1851" x="786.83" y="534.6169">&#171;extend&#187;</text></g><!--link Facilitate session to Trigger intervention--><g class="link" data-entity-1="Facilitate session" data-entity-2="Trigger intervention" data-source-line="30" data-uid="lnk41" id="link_Facilitate session_Trigger intervention"><path d="M706.3,538.16 C728.89,547.54 758.4,559.56 784.83,569.55 C829.42,586.41 875.0989,602.3099 911.5089,614.6799" fill="none" id="Facilitate session-to-Trigger intervention" style="stroke:#181818;stroke-width:1;"/><polygon fill="#181818" points="917.19,616.61,909.9551,609.9275,912.4558,615.0016,907.3816,617.5022,917.19,616.61" style="stroke:#181818;stroke-width:1;"/><text fill="#000000" font-family="sans-serif" font-size="13" lengthAdjust="spacing" textLength="61.1851" x="786.83" y="565.6169">&#171;extend&#187;</text></g><!--link Facilitate session to Stop game--><g class="link" data-entity-1="Facilitate session" data-entity-2="Stop game" data-source-line="31" data-uid="lnk43" id="link_Facilitate session_Stop game"><path d="M688.04,539.85 C710.22,559.84 748.69,593.12 784.83,617.55 C824.71,644.51 836.09,649.46 879.83,669.55 C896.16,677.05 909.1454,682.1858 924.7954,687.8258" fill="none" id="Facilitate session-to-Stop game" style="stroke:#181818;stroke-width:1;"/><polygon fill="#181818" points="930.44,689.86,923.3292,683.0456,925.7361,688.1648,920.6169,690.5717,930.44,689.86" style="stroke:#181818;stroke-width:1;"/><text fill="#000000" font-family="sans-serif" font-size="13" lengthAdjust="spacing" textLength="61.1851" x="786.83" y="613.6169">&#171;extend&#187;</text></g><!--link Facilitate session to Show scores--><g class="link" data-entity-1="Facilitate session" data-entity-2="Show scores" data-source-line="32" data-uid="lnk45" id="link_Facilitate session_Show scores"><path d="M678.78,539.96 C696.4,571.04 736.77,636.83 784.83,679.55 C826.46,716.55 880.9418,739.4213 920.0418,752.7713" fill="none" id="Facilitate session-to-Show scores" style="stroke:#181818;stroke-width:1;"/><polygon fill="#181818" points="925.72,754.71,918.4952,748.0165,920.9882,753.0944,915.9103,755.5874,925.72,754.71" style="stroke:#181818;stroke-width:1;"/><text fill="#000000" font-family="sans-serif" font-size="13" lengthAdjust="spacing" textLength="63.0068" x="785.83" y="675.6169">&#171;include&#187;</text></g><!--link Start game to Send data to\ngame data platform--><g class="link" data-entity-1="Start game" data-entity-2="Send data to\ngame data platform" data-source-line="34" data-uid="lnk47" id="link_Start game_Send data to\ngame data platform"><path d="M1002.68,365.06 C1018.12,370.52 1036.16,377.59 1051.73,385.55 C1122.77,421.87 1194.1883,472.6922 1235.3083,503.5022" fill="none" id="Start game-to-Send data to\ngame data platform" style="stroke:#181818;stroke-width:1;"/><polygon fill="#181818" points="1240.11,507.1,1235.306,498.5022,1236.1086,504.1019,1230.509,504.9045,1240.11,507.1" style="stroke:#181818;stroke-width:1;"/><text fill="#000000" font-family="sans-serif" font-size="13" lengthAdjust="spacing" textLength="63.0068" x="1082.73" y="397.6169">&#171;include&#187;</text></g><!--link Add news item to Send data to\ngame data platform--><g class="link" data-entity-1="Add news item" data-entity-2="Send data to\ngame data platform" data-source-line="35" data-uid="lnk48" id="link_Add news item_Send data to\ngame data platform"><path d="M1027.91,501 C1073.06,506.49 1129.1539,513.3254 1179.2139,519.4154" fill="none" id="Add news item-to-Send data to\ngame data platform" style="stroke:#181818;stroke-width:1;"/><polygon fill="#181818" points="1185.17,520.14,1176.7189,515.0824,1180.2066,519.5362,1175.7528,523.0239,1185.17,520.14" style="stroke:#181818;stroke-width:1;"/><text fill="#000000" font-family="sans-serif" font-size="13" lengthAdjust="spacing" textLength="63.0068" x="1082.73" y="503.6169">&#171;include&#187;</text></g><!--link Add intervention to Send data to\ngame data platform--><g class="link" data-entity-1="Add intervention" data-entity-2="Send data to\ngame data platform" data-source-line="36" data-uid="lnk49" id="link_Add intervention_Send data to\ngame data platform"><path d="M1040.11,562.48 C1072.83,562.13 1111.81,560.67 1146.73,556.55 C1164.64,554.44 1177.9048,552.2374 1195.6648,548.5574" fill="none" id="Add intervention-to-Send data to\ngame data platform" style="stroke:#181818;stroke-width:1;"/><polygon fill="#181818" points="1201.54,547.34,1191.9156,545.2493,1196.644,548.3545,1193.5388,553.0829,1201.54,547.34" style="stroke:#181818;stroke-width:1;"/><text fill="#000000" font-family="sans-serif" font-size="13" lengthAdjust="spacing" textLength="63.0068" x="1082.73" y="552.6169">&#171;include&#187;</text></g><!--link Stop game to Send data to\ngame data platform--><g class="link" data-entity-1="Stop game" data-entity-2="Send data to\ngame data platform" data-source-line="37" data-uid="lnk50" id="link_Stop game_Send data to\ngame data platform"><path d="M1002.19,690.05 C1017.71,684.55 1035.94,677.44 1051.73,669.55 C1121.62,634.67 1192.4497,586.6964 1233.9897,557.1664" fill="none" id="Stop game-to-Send data to\ngame data platform" style="stroke:#181818;stroke-width:1;"/><polygon fill="#181818" points="1238.88,553.69,1229.227,555.6444,1234.8048,556.587,1233.8622,562.1648,1238.88,553.69" style="stroke:#181818;stroke-width:1;"/><text fill="#000000" font-family="sans-serif" font-size="13" lengthAdjust="spacing" textLength="63.0068" x="1082.73" y="612.6169">&#171;include&#187;</text></g><!--link SF to Debrief game--><g class="link" data-entity-1="SF" data-entity-2="Debrief game" data-source-line="39" data-uid="lnk52" id="link_SF_Debrief game"><path d="M407.02,403.33 C472.07,497.11 612.25,699.2201 652.93,757.8601" fill="none" id="SF-to-Debrief game" style="stroke:#181818;stroke-width:1;"/><polygon fill="#181818" points="656.35,762.79,654.5066,753.1152,653.5,758.6818,647.9334,757.6752,656.35,762.79" style="stroke:#181818;stroke-width:1;"/></g><!--link Debrief game to Show scores--><g class="link" data-entity-1="Debrief game" data-entity-2="Show scores" data-source-line="40" data-uid="lnk53" id="link_Debrief game_Show scores"><path d="M732.85,782.13 C767.47,783.45 811.04,784.07 849.83,781.55 C870.42,780.22 887.0069,778.3643 906.6169,775.6443" fill="none" id="Debrief game-to-Show scores" style="stroke:#181818;stroke-width:1;"/><polygon fill="#181818" points="912.56,774.82,903.0958,772.0944,907.6074,775.5069,904.1949,780.0186,912.56,774.82" style="stroke:#181818;stroke-width:1;"/><text fill="#000000" font-family="sans-serif" font-size="13" lengthAdjust="spacing" textLength="63.0068" x="785.83" y="777.6169">&#171;include&#187;</text></g><!--link Debrief game to Show gameplay--><g class="link" data-entity-1="Debrief game" data-entity-2="Show gameplay" data-source-line="41" data-uid="lnk55" id="link_Debrief game_Show gameplay"><path d="M712.69,790.45 C734.27,796.11 760.81,802.68 784.83,807.55 C823.72,815.44 861.7904,821.4708 896.5504,826.4408" fill="none" id="Debrief game-to-Show gameplay" style="stroke:#181818;stroke-width:1;"/><polygon fill="#181818" points="902.49,827.29,894.1468,822.0564,897.5403,826.5823,893.0144,829.9759,902.49,827.29" style="stroke:#181818;stroke-width:1;"/><text fill="#000000" font-family="sans-serif" font-size="13" lengthAdjust="spacing" textLength="61.1851" x="786.83" y="803.6169">&#171;extend&#187;</text></g><!--SRC=[fPJFRi8m3CRlUGgBqthe2qm8YO5uW6MxSGcDAP7If4hCsAGz_9A6Voq5qUvM9z_FiZyxrRWb80jEbJi2gHmMfAnXRCBH-_2rDYjHAAr8a7KJ41xuYdrwT33zpNEOoqePvSd5QzQAaY2eappFP_32aQ0MtX-iandhw1j5enMNyr12nembX8qbiXK3gBNuGSVGI8WNZFL2ATt2eGZiFWWoU8Nf59Gfz5uYp6QFk2Lg7CEzemyjHkpIvn2UdsXH5640jopZgwHySmgtK8eAiylXULQfT9-nswEad6jjYuur-4tHr5ZX7Mg9uY7NLuXFYzGkvNHux9g4ezJBeqhQq68dJ8aD1Rv6b0FOkGoxWmSFYh0Qo2b3wBxGfAazZNw49rQ6mOx4ETbwg4DyPm_W2-kmRv5QhX-NBsIKWaJu8wnDOsmJXGT7M-kgdatk6FcVD6rZncQwycbaYlCEBt5pzSRQuHC6tmLY7FzXtKd-0G00]--></g></svg>