<svg xmlns="http://www.w3.org/2000/svg" xmlns:xlink="http://www.w3.org/1999/xlink" contentStyleType="text/css" data-diagram-type="DESCRIPTION" height="759px" preserveAspectRatio="none" style="width:978px;height:759px;background:#FFFFFF;" version="1.1" viewBox="0 0 978 759" width="978px" zoomAndPan="magnify"><defs/><g><!--entity SA--><g class="entity" data-entity="SA" data-source-line="3" data-uid="ent0002" id="entity_SA"><ellipse cx="373.5754" cy="315.9" fill="#F1F1F1" rx="8" ry="8" style="stroke:#181818;stroke-width:0.5;"/><path d="M373.5754,323.9 L373.5754,350.9 M360.5754,331.9 L386.5754,331.9 M373.5754,350.9 L360.5754,365.9 M373.5754,350.9 L386.5754,365.9" fill="none" style="stroke:#181818;stroke-width:0.5;"/><text fill="#000000" font-family="sans-serif" font-size="14" lengthAdjust="spacing" textLength="152.5508" x="297.3" y="380.3951">Session administrator</text></g><!--entity User--><g class="entity" data-entity="User" data-source-line="4" data-uid="ent0003" id="entity_User"><ellipse cx="21.9551" cy="345.9" fill="#F1F1F1" rx="8" ry="8" style="stroke:#181818;stroke-width:0.5;"/><path d="M21.9551,353.9 L21.9551,380.9 M8.9551,361.9 L34.9551,361.9 M21.9551,380.9 L8.9551,395.9 M21.9551,380.9 L34.9551,395.9" fill="none" style="stroke:#181818;stroke-width:0.5;"/><text fill="#000000" font-family="sans-serif" font-size="14" lengthAdjust="spacing" textLength="31.9102" x="6" y="410.3951">User</text></g><!--entity Administrator--><g class="entity" data-entity="Administrator" data-source-line="4" data-uid="ent0004" id="entity_Administrator"><ellipse cx="164.1713" cy="224.9" fill="#F1F1F1" rx="8" ry="8" style="stroke:#181818;stroke-width:0.5;"/><path d="M164.1713,232.9 L164.1713,259.9 M151.1713,240.9 L177.1713,240.9 M164.1713,259.9 L151.1713,274.9 M164.1713,259.9 L177.1713,274.9" fill="none" style="stroke:#181818;stroke-width:0.5;"/><text fill="#000000" font-family="sans-serif" font-size="14" lengthAdjust="spacing" textLength="95.6826" x="116.33" y="289.3951">Administrator</text></g><!--entity Login--><g class="entity" data-entity="Login" data-source-line="7" data-uid="ent0007" id="entity_Login"><ellipse cx="164.1704" cy="342.5536" fill="#F1F1F1" rx="29.8804" ry="14.5236" style="stroke:#181818;stroke-width:0.5;"/><text fill="#000000" font-family="sans-serif" font-size="14" lengthAdjust="spacing" textLength="38.0146" x="145.1631" y="347.2021">Login</text></g><!--entity Set password--><g class="entity" data-entity="Set password" data-source-line="8" data-uid="ent0009" id="entity_Set password"><ellipse cx="164.1679" cy="407.5516" fill="#F1F1F1" rx="65.2579" ry="15.4516" style="stroke:#181818;stroke-width:0.5;"/><text fill="#000000" font-family="sans-serif" font-size="14" lengthAdjust="spacing" textLength="94.1514" x="117.0922" y="412.2">Set password</text></g><!--entity Logout--><g class="entity" data-entity="Logout" data-source-line="9" data-uid="ent0011" id="entity_Logout"><ellipse cx="164.1682" cy="472.5536" fill="#F1F1F1" rx="37.0682" ry="14.5236" style="stroke:#181818;stroke-width:0.5;"/><text fill="#000000" font-family="sans-serif" font-size="14" lengthAdjust="spacing" textLength="48.1797" x="140.0783" y="477.2021">Logout</text></g><!--entity User administration--><g class="entity" data-entity="User administration" data-source-line="11" data-uid="ent0013" id="entity_User administration"><ellipse cx="373.583" cy="153.5506" fill="#F1F1F1" rx="83.153" ry="19.0306" style="stroke:#181818;stroke-width:0.5;"/><text fill="#000000" font-family="sans-serif" font-size="14" lengthAdjust="spacing" textLength="138.0518" x="304.5571" y="158.199">User administration</text></g><g class="entity" data-entity="GMN15" data-source-line="13" data-uid="ent0016" id="entity_GMN15"><path d="M300.87,207.98 L300.87,233.1128 A0,0 0 0 0 300.87,233.1128 L446.2841,233.1128 A0,0 0 0 0 446.2841,233.1128 L446.2841,217.98 L436.2841,207.98 L377.58,207.98 L373.58,173.02 L369.58,207.98 L300.87,207.98 A0,0 0 0 0 300.87,207.98" fill="#FEFFDD" style="stroke:#181818;stroke-width:0.5;"/><path d="M436.2841,207.98 L436.2841,217.98 L446.2841,217.98 L436.2841,207.98" fill="#FEFFDD" style="stroke:#181818;stroke-width:0.5;"/><text fill="#000000" font-family="sans-serif" font-size="13" lengthAdjust="spacing" textLength="124.4141" x="306.87" y="225.0469">player or facilitator</text></g><!--entity Create user--><g class="entity" data-entity="Create user" data-source-line="16" data-uid="ent0018" id="entity_Create user"><ellipse cx="609.2843" cy="20.5469" fill="#F1F1F1" rx="60.7343" ry="14.5469" style="stroke:#181818;stroke-width:0.5;"/><text fill="#000000" font-family="sans-serif" font-size="14" lengthAdjust="spacing" textLength="81.8125" x="568.378" y="25.1953">Create user</text></g><!--entity Delete user--><g class="entity" data-entity="Delete user" data-source-line="17" data-uid="ent0020" id="entity_Delete user"><ellipse cx="609.2753" cy="84.5536" fill="#F1F1F1" rx="60.2653" ry="14.5236" style="stroke:#181818;stroke-width:0.5;"/><text fill="#000000" font-family="sans-serif" font-size="14" lengthAdjust="spacing" textLength="80.9854" x="568.7826" y="89.2021">Delete user</text></g><!--entity Reset user password--><g class="entity" data-entity="Reset user password" data-source-line="18" data-uid="ent0022" id="entity_Reset user password"><ellipse cx="609.2799" cy="153.55" fill="#F1F1F1" rx="86.5499" ry="19.71" style="stroke:#181818;stroke-width:0.5;"/><text fill="#000000" font-family="sans-serif" font-size="14" lengthAdjust="spacing" textLength="145.8857" x="536.337" y="158.1984">Reset user password</text></g><!--entity Set user access--><g class="entity" data-entity="Set user access" data-source-line="19" data-uid="ent0024" id="entity_Set user access"><ellipse cx="609.2761" cy="224.5472" fill="#F1F1F1" rx="71.2861" ry="16.6572" style="stroke:#181818;stroke-width:0.5;"/><text fill="#000000" font-family="sans-serif" font-size="14" lengthAdjust="spacing" textLength="109.6006" x="554.4759" y="229.1957">Set user access</text></g><!--entity Manage--><g class="entity" data-entity="Manage" data-source-line="21" data-uid="ent0026" id="entity_Manage"><ellipse cx="609.2833" cy="400.5498" fill="#F1F1F1" rx="65.4933" ry="24.2198" style="stroke:#181818;stroke-width:0.5;"/><text fill="#000000" font-family="sans-serif" font-size="14" lengthAdjust="spacing" textLength="55.6104" x="581.4781" y="394.343">Manage</text><text fill="#000000" font-family="sans-serif" font-size="14" lengthAdjust="spacing" textLength="95.9902" x="561.2881" y="410.6398">game session</text></g><!--entity Create game session--><g class="entity" data-entity="Create game session" data-source-line="23" data-uid="ent0028" id="entity_Create game session"><ellipse cx="864.8834" cy="102.5507" fill="#F1F1F1" rx="87.1534" ry="19.8307" style="stroke:#181818;stroke-width:0.5;"/><text fill="#000000" font-family="sans-serif" font-size="14" lengthAdjust="spacing" textLength="147.2666" x="791.2501" y="107.1991">Create game session</text></g><!--entity Set session dates--><g class="entity" data-entity="Set session dates" data-source-line="24" data-uid="ent0030" id="entity_Set session dates"><ellipse cx="864.8841" cy="175.5488" fill="#F1F1F1" rx="76.5941" ry="17.7188" style="stroke:#181818;stroke-width:0.5;"/><text fill="#000000" font-family="sans-serif" font-size="14" lengthAdjust="spacing" textLength="122.5752" x="803.5965" y="180.1973">Set session dates</text></g><!--entity Set allowable strategies--><g class="entity" data-entity="Set allowable strategies" data-source-line="25" data-uid="ent0032" id="entity_Set allowable strategies"><ellipse cx="864.8806" cy="249.5541" fill="#F1F1F1" rx="96.4206" ry="21.6841" style="stroke:#181818;stroke-width:0.5;"/><text fill="#000000" font-family="sans-serif" font-size="14" lengthAdjust="spacing" textLength="168.1367" x="780.8123" y="254.2026">Set allowable strategies</text></g><!--entity Delete game session--><g class="entity" data-entity="Delete game session" data-source-line="26" data-uid="ent0034" id="entity_Delete game session"><ellipse cx="864.8817" cy="325.5483" fill="#F1F1F1" rx="86.7917" ry="19.7583" style="stroke:#181818;stroke-width:0.5;"/><text fill="#000000" font-family="sans-serif" font-size="14" lengthAdjust="spacing" textLength="146.4395" x="791.662" y="330.1968">Delete game session</text></g><!--entity Allocate user to game--><g class="entity" data-entity="Allocate user to game" data-source-line="27" data-uid="ent0036" id="entity_Allocate user to game"><ellipse cx="864.8763" cy="400.5493" fill="#F1F1F1" rx="90.0963" ry="20.4193" style="stroke:#181818;stroke-width:0.5;"/><text fill="#000000" font-family="sans-serif" font-size="14" lengthAdjust="spacing" textLength="153.959" x="787.8968" y="405.1977">Allocate user to game</text></g><!--entity Allow self registration\nfor users--><g class="entity" data-entity="Allow self registration\nfor users" data-source-line="28" data-uid="ent0038" id="entity_Allow self registration\nfor users"><ellipse cx="864.8785" cy="479.5481" fill="#F1F1F1" rx="99.9485" ry="23.7781" style="stroke:#181818;stroke-width:0.5;"/><text fill="#000000" font-family="sans-serif" font-size="14" lengthAdjust="spacing" textLength="152.0791" x="788.839" y="479.4554">Allow self registration</text><text fill="#000000" font-family="sans-serif" font-size="14" lengthAdjust="spacing" textLength="61.5303" x="834.1134" y="495.7523">for users</text></g><!--entity Generate anonymous users--><g class="entity" data-entity="Generate anonymous users" data-source-line="29" data-uid="ent0040" id="entity_Generate anonymous users"><ellipse cx="864.8832" cy="562.5506" fill="#F1F1F1" rx="108.0532" ry="24.0106" style="stroke:#181818;stroke-width:0.5;"/><text fill="#000000" font-family="sans-serif" font-size="14" lengthAdjust="spacing" textLength="193.6621" x="768.0522" y="567.1991">Generate anonymous users</text></g><!--entity Show sessions with status--><g class="entity" data-entity="Show sessions with status" data-source-line="30" data-uid="ent0042" id="entity_Show sessions with status"><ellipse cx="864.8842" cy="644.5488" fill="#F1F1F1" rx="103.1442" ry="23.0288" style="stroke:#181818;stroke-width:0.5;"/><text fill="#000000" font-family="sans-serif" font-size="14" lengthAdjust="spacing" textLength="182.9639" x="773.4023" y="649.1973">Show sessions with status</text></g><!--entity Show facilitators and\nplayers for session--><g class="entity" data-entity="Show facilitators and\nplayers for session" data-source-line="31" data-uid="ent0044" id="entity_Show facilitators and\nplayers for session"><ellipse cx="864.8821" cy="727.5497" fill="#F1F1F1" rx="104.3821" ry="25.4697" style="stroke:#181818;stroke-width:0.5;"/><text fill="#000000" font-family="sans-serif" font-size="14" lengthAdjust="spacing" textLength="147.0615" x="791.3513" y="724.8773">Show facilitators and</text><text fill="#000000" font-family="sans-serif" font-size="14" lengthAdjust="spacing" textLength="131.2773" x="799.2434" y="741.1742">players for session</text></g><!--reverse link User to Administrator--><g class="link" data-entity-1="User" data-entity-2="Administrator" data-source-line="4" data-uid="lnk5" id="link_User_Administrator"><path d="M51.8554,350.6078 C71.0154,334.0678 91.09,316.75 118.66,292.96" fill="none" id="User-backto-Administrator" style="stroke:#181818;stroke-width:1;"/><polygon fill="none" points="38.23,362.37,55.7761,355.1496,47.9346,346.066,38.23,362.37" style="stroke:#181818;stroke-width:1;"/></g><!--reverse link Administrator to SA--><g class="link" data-entity-1="Administrator" data-entity-2="SA" data-source-line="5" data-uid="lnk6" id="link_Administrator_SA"><path d="M228.9719,282.5451 C253.9619,293.5151 268.74,299.99 296.99,312.39" fill="none" id="Administrator-backto-SA" style="stroke:#181818;stroke-width:1;"/><polygon fill="none" points="212.49,275.31,226.5602,288.0391,231.3836,277.0512,212.49,275.31" style="stroke:#181818;stroke-width:1;"/></g><!--link User to Login--><g class="link" data-entity-1="User" data-entity-2="Login" data-source-line="7" data-uid="lnk8" id="link_User_Login"><path d="M38.34,371.73 C47.02,369.59 58.06,366.89 67.91,364.55 C91.03,359.05 111.501,354.3275 130.611,349.9575" fill="none" id="User-to-Login" style="stroke:#181818;stroke-width:1;"/><polygon fill="#181818" points="136.46,348.62,126.7948,346.727,131.5858,349.7346,128.5782,354.5256,136.46,348.62" style="stroke:#181818;stroke-width:1;"/></g><!--link User to Set password--><g class="link" data-entity-1="User" data-entity-2="Set password" data-source-line="8" data-uid="lnk10" id="link_User_Set password"><path d="M38.23,379.04 C56.75,383.26 83.0106,389.2543 110.0306,395.4243" fill="none" id="User-to-Set password" style="stroke:#181818;stroke-width:1;"/><polygon fill="#181818" points="115.88,396.76,107.9963,390.8568,111.0055,395.6469,106.2154,398.6561,115.88,396.76" style="stroke:#181818;stroke-width:1;"/></g><!--link User to Logout--><g class="link" data-entity-1="User" data-entity-2="Logout" data-source-line="9" data-uid="lnk12" id="link_User_Logout"><path d="M38.34,390.71 C53.07,404.73 76.34,425.6 98.91,440.55 C111.28,448.74 120.585,453.7097 132.835,459.3797" fill="none" id="User-to-Logout" style="stroke:#181818;stroke-width:1;"/><polygon fill="#181818" points="138.28,461.9,131.7926,454.4896,133.7425,459.7998,128.4323,461.7496,138.28,461.9" style="stroke:#181818;stroke-width:1;"/></g><!--link Administrator to User administration--><g class="link" data-entity-1="Administrator" data-entity-2="User administration" data-source-line="11" data-uid="lnk14" id="link_Administrator_User administration"><path d="M212.48,229.68 C235.81,217.6 264.45,203.03 290.43,190.55 C304.39,183.85 314.3532,179.2405 328.0532,173.1105" fill="none" id="Administrator-to-User administration" style="stroke:#181818;stroke-width:1;"/><polygon fill="#181818" points="333.53,170.66,323.6812,170.6847,328.966,172.7021,326.9486,177.987,333.53,170.66" style="stroke:#181818;stroke-width:1;"/></g><!--link User administration to Create user--><g class="link" data-entity-1="User administration" data-entity-2="Create user" data-source-line="16" data-uid="lnk19" id="link_User administration_Create user"><path d="M397.85,135.07 C426.13,113.23 475.89,76.83 522.73,52.55 C538.08,44.6 550.2096,39.61 565.5696,34.21" fill="none" id="User administration-to-Create user" style="stroke:#181818;stroke-width:1;"/><polygon fill="#181818" points="571.23,32.22,561.4128,31.4314,566.513,33.8783,564.0661,38.9786,571.23,32.22" style="stroke:#181818;stroke-width:1;"/></g><!--link User administration to Delete user--><g class="link" data-entity-1="User administration" data-entity-2="Delete user" data-source-line="17" data-uid="lnk21" id="link_User administration_Delete user"><path d="M425.87,138.41 C469.27,125.59 524.7556,109.2089 564.0456,97.6089" fill="none" id="User administration-to-Delete user" style="stroke:#181818;stroke-width:1;"/><polygon fill="#181818" points="569.8,95.91,560.0357,94.6221,565.0046,97.3258,562.301,102.2947,569.8,95.91" style="stroke:#181818;stroke-width:1;"/></g><!--link User administration to Reset user password--><g class="link" data-entity-1="User administration" data-entity-2="Reset user password" data-source-line="18" data-uid="lnk23" id="link_User administration_Reset user password"><path d="M456.97,153.55 C478.13,153.55 494.94,153.55 516.28,153.55" fill="none" id="User administration-to-Reset user password" style="stroke:#181818;stroke-width:1;"/><polygon fill="#181818" points="522.28,153.55,513.28,149.55,517.28,153.55,513.28,157.55,522.28,153.55" style="stroke:#181818;stroke-width:1;"/></g><!--link User administration to Set user access--><g class="link" data-entity-1="User administration" data-entity-2="Set user access" data-source-line="19" data-uid="lnk25" id="link_User administration_Set user access"><path d="M425,168.87 C466.6,181.51 519.2692,197.5055 558.8892,209.5455" fill="none" id="User administration-to-Set user access" style="stroke:#181818;stroke-width:1;"/><polygon fill="#181818" points="564.63,211.29,557.1819,204.846,559.846,209.8362,554.8558,212.5004,564.63,211.29" style="stroke:#181818;stroke-width:1;"/></g><!--link SA to Manage--><g class="link" data-entity-1="SA" data-entity-2="Manage" data-source-line="22" data-uid="lnk27" id="link_SA_Manage"><path d="M436.26,384.07 C452.13,392.1 469.59,399.38 486.73,403.55 C505.91,408.22 521.295,409.3139 540.715,408.5239" fill="none" id="SA-to-Manage" style="stroke:#181818;stroke-width:1;"/><polygon fill="#181818" points="546.71,408.28,537.5549,404.6491,541.7141,408.4832,537.88,412.6425,546.71,408.28" style="stroke:#181818;stroke-width:1;"/><text fill="#000000" font-family="sans-serif" font-size="13" lengthAdjust="spacing" textLength="4.1323" x="487.73" y="248.6169">&#160;</text><text fill="#000000" font-family="sans-serif" font-size="13" lengthAdjust="spacing" textLength="4.1323" x="487.73" y="263.7497">&#160;</text><text fill="#000000" font-family="sans-serif" font-size="13" lengthAdjust="spacing" textLength="4.1323" x="487.73" y="278.8825">&#160;</text><text fill="#000000" font-family="sans-serif" font-size="13" lengthAdjust="spacing" textLength="4.1323" x="487.73" y="294.0153">&#160;</text><text fill="#000000" font-family="sans-serif" font-size="13" lengthAdjust="spacing" textLength="4.1323" x="487.73" y="309.1481">&#160;</text><text fill="#000000" font-family="sans-serif" font-size="13" lengthAdjust="spacing" textLength="4.1323" x="487.73" y="324.281">&#160;</text><text fill="#000000" font-family="sans-serif" font-size="13" lengthAdjust="spacing" textLength="4.1323" x="487.73" y="339.4138">&#160;</text><text fill="#000000" font-family="sans-serif" font-size="13" lengthAdjust="spacing" textLength="4.1323" x="487.73" y="354.5466">&#160;</text><text fill="#000000" font-family="sans-serif" font-size="13" lengthAdjust="spacing" textLength="4.1323" x="487.73" y="369.6794">&#160;</text><text fill="#000000" font-family="sans-serif" font-size="13" lengthAdjust="spacing" textLength="4.1323" x="487.73" y="384.8122">&#160;</text><text fill="#000000" font-family="sans-serif" font-size="13" lengthAdjust="spacing" textLength="4.1323" x="487.73" y="399.945">&#160;</text></g><!--link Manage to Create game session--><g class="link" data-entity-1="Manage" data-entity-2="Create game session" data-source-line="23" data-uid="lnk29" id="link_Manage_Create game session"><path d="M625.3,376.71 C642.77,348.72 672.24,300.76 695.83,258.55 C724.64,207.02 712.35,179.36 756.83,140.55 C769.24,129.72 779.2969,123.9585 794.8269,118.3485" fill="none" id="Manage-to-Create game session" style="stroke:#181818;stroke-width:1;"/><polygon fill="#181818" points="800.47,116.31,790.6464,115.6057,795.7674,118.0087,793.3643,123.1298,800.47,116.31" style="stroke:#181818;stroke-width:1;"/></g><!--link Manage to Set session dates--><g class="link" data-entity-1="Manage" data-entity-2="Set session dates" data-source-line="24" data-uid="lnk31" id="link_Manage_Set session dates"><path d="M622.61,376.38 C644.33,336.16 693.2,255.49 756.83,210.55 C771.61,200.12 783.9473,194.4209 801.0073,189.1509" fill="none" id="Manage-to-Set session dates" style="stroke:#181818;stroke-width:1;"/><polygon fill="#181818" points="806.74,187.38,796.9603,186.2145,801.9627,188.8557,799.3215,193.8581,806.74,187.38" style="stroke:#181818;stroke-width:1;"/></g><!--link Manage to Set allowable strategies--><g class="link" data-entity-1="Manage" data-entity-2="Set allowable strategies" data-source-line="25" data-uid="lnk33" id="link_Manage_Set allowable strategies"><path d="M634.85,378 C662.72,353.36 710.35,314 756.83,288.55 C772.1,280.19 783.8764,275.0071 800.1664,269.1271" fill="none" id="Manage-to-Set allowable strategies" style="stroke:#181818;stroke-width:1;"/><polygon fill="#181818" points="805.81,267.09,795.9865,266.3833,801.107,268.7876,798.7027,273.9081,805.81,267.09" style="stroke:#181818;stroke-width:1;"/></g><!--link Manage to Delete game session--><g class="link" data-entity-1="Manage" data-entity-2="Delete game session" data-source-line="26" data-uid="lnk35" id="link_Manage_Delete game session"><path d="M661.3,385.46 C704.69,372.63 761.0264,355.9716 805.0164,342.9616" fill="none" id="Manage-to-Delete game session" style="stroke:#181818;stroke-width:1;"/><polygon fill="#181818" points="810.77,341.26,801.0051,339.9767,805.9753,342.678,803.274,347.6482,810.77,341.26" style="stroke:#181818;stroke-width:1;"/></g><!--link Manage to Allocate user to game--><g class="link" data-entity-1="Manage" data-entity-2="Allocate user to game" data-source-line="27" data-uid="lnk37" id="link_Manage_Allocate user to game"><path d="M675.26,400.55 C705.49,400.55 735.93,400.55 768.69,400.55" fill="none" id="Manage-to-Allocate user to game" style="stroke:#181818;stroke-width:1;"/><polygon fill="#181818" points="774.69,400.55,765.69,396.55,769.69,400.55,765.69,404.55,774.69,400.55" style="stroke:#181818;stroke-width:1;"/></g><!--link Manage to Allow self registration\nfor users--><g class="link" data-entity-1="Manage" data-entity-2="Allow self registration\nfor users" data-source-line="28" data-uid="lnk39" id="link_Manage_Allow self registration\nfor users"><path d="M660.39,416.16 C701.24,428.88 753.3716,445.1254 796.9616,458.7054" fill="none" id="Manage-to-Allow self registration\nfor users" style="stroke:#181818;stroke-width:1;"/><polygon fill="#181818" points="802.69,460.49,795.2871,453.9941,797.9163,459.0028,792.9076,461.632,802.69,460.49" style="stroke:#181818;stroke-width:1;"/></g><!--link Manage to Generate anonymous users--><g class="link" data-entity-1="Manage" data-entity-2="Generate anonymous users" data-source-line="29" data-uid="lnk41" id="link_Manage_Generate anonymous users"><path d="M633.43,423.44 C660.95,449.67 709.17,492.62 756.83,520.55 C771.22,528.98 782.0188,534.1777 797.5788,540.3177" fill="none" id="Manage-to-Generate anonymous users" style="stroke:#181818;stroke-width:1;"/><polygon fill="#181818" points="803.16,542.52,796.2564,535.4957,798.509,540.6847,793.32,542.9373,803.16,542.52" style="stroke:#181818;stroke-width:1;"/></g><!--link Manage to Show sessions with status--><g class="link" data-entity-1="Manage" data-entity-2="Show sessions with status" data-source-line="30" data-uid="lnk43" id="link_Manage_Show sessions with status"><path d="M621.52,424.54 C642.42,466.69 691.18,554.36 756.83,604.55 C768.89,613.77 777.7248,618.8324 792.0048,624.5124" fill="none" id="Manage-to-Show sessions with status" style="stroke:#181818;stroke-width:1;"/><polygon fill="#181818" points="797.58,626.73,790.6956,619.6869,792.934,624.882,787.7389,627.1204,797.58,626.73" style="stroke:#181818;stroke-width:1;"/></g><!--link Manage to Show facilitators and\nplayers for session--><g class="link" data-entity-1="Manage" data-entity-2="Show facilitators and\nplayers for session" data-source-line="31" data-uid="lnk45" id="link_Manage_Show facilitators and\nplayers for session"><path d="M616.4,424.79 C631.27,478.96 674.27,610.94 756.83,685.55 C767.5,695.19 775.1347,700.3214 788.5047,706.1814" fill="none" id="Manage-to-Show facilitators and\nplayers for session" style="stroke:#181818;stroke-width:1;"/><polygon fill="#181818" points="794,708.59,787.3627,701.3136,789.4206,706.5829,784.1513,708.6407,794,708.59" style="stroke:#181818;stroke-width:1;"/></g><!--SRC=[ZPA_QiGm3CPtFuN8T1xo0gKKGWjTsgMXMnPTekGCZdtO3k6W3r_Ple3lJu-I9RP- -lH9igOnGB3Wr7G8C2X7VL3M211LIzxpB-0mAwDyS1Yigm0zj8tuzkJW-QUkeId3ukAK0QOpNjSliFkmapAok6Wfm16zNwqRv2Lebo35bMIA9QhmnJQbC3OGx6q8TXO0HuqdXZXZn5vf5P8zCWD4JeYx6bdzrH6orCA0VCIzaQR_S5_akSU85Oq-uDkDnhxd7V08gayqE55d9fm9V5vCMiKkHwHecvISZ_04LMTklqgSusMVfQQy0AAHSm06Hlrj6BMsA-urAyGcQ5BNr7bAVrTfMABV1XxVOaHlaPMpzGYEIsppwip8-urfLpNVoL1q0sYiESrsyVUezf14aoKFgme7RWB3SWyh7f5drQ4p-O5vY1Qsldu1]--></g></svg>