<svg xmlns="http://www.w3.org/2000/svg" xmlns:xlink="http://www.w3.org/1999/xlink" contentStyleType="text/css" data-diagram-type="DESCRIPTION" height="274px" preserveAspectRatio="none" style="width:141px;height:274px;background:#FFFFFF;" version="1.1" viewBox="0 0 141 274" width="141px" zoomAndPan="magnify"><defs/><g><!--entity GD--><g class="entity" data-entity="GD" data-source-line="2" data-uid="ent0005" id="entity_GD"><rect fill="#F1F1F1" height="36.2969" rx="2.5" ry="2.5" style="stroke:#181818;stroke-width:0.5;" width="112.5723" x="14.35" y="232.45"/><text fill="#000000" font-family="sans-serif" font-size="14" lengthAdjust="spacing" textLength="92.5723" x="24.35" y="255.4451">Game design</text></g><!--entity Game designer--><g class="entity" data-entity="Game designer" data-source-line="1" data-uid="ent0002" id="entity_Game designer"><ellipse cx="70.6407" cy="14" fill="#F1F1F1" rx="8" ry="8" style="stroke:#181818;stroke-width:0.5;"/><path d="M70.6407,22 L70.6407,49 M57.6407,30 L83.6407,30 M70.6407,49 L57.6407,64 M70.6407,49 L83.6407,64" fill="none" style="stroke:#181818;stroke-width:0.5;"/><text fill="#000000" font-family="sans-serif" font-size="14" lengthAdjust="spacing" textLength="106.9414" x="17.17" y="78.4951">Game designer</text></g><!--entity Design game--><g class="entity" data-entity="Design game" data-source-line="1" data-uid="ent0003" id="entity_Design game"><ellipse cx="70.6374" cy="157.1275" fill="#F1F1F1" rx="64.6374" ry="15.3275" style="stroke:#181818;stroke-width:0.5;"/><text fill="#000000" font-family="sans-serif" font-size="14" lengthAdjust="spacing" textLength="92.5039" x="24.3854" y="161.7759">Design game</text></g><!--link Game designer to Design game--><g class="link" data-entity-1="Game designer" data-entity-2="Design game" data-source-line="1" data-uid="lnk4" id="link_Game designer_Design game"><path d="M70.64,82.08 C70.64,102.45 70.64,120.48 70.64,135.52" fill="none" id="Game designer-to-Design game" style="stroke:#181818;stroke-width:1;"/><polygon fill="#181818" points="70.64,141.52,74.64,132.52,70.64,136.52,66.64,132.52,70.64,141.52" style="stroke:#181818;stroke-width:1;"/></g><!--link Design game to GD--><g class="link" data-entity-1="Design game" data-entity-2="GD" data-source-line="4" data-uid="lnk6" id="link_Design game_GD"><path d="M70.64,172.82 C70.64,188.98 70.64,208.94 70.64,226.13" fill="none" id="Design game-to-GD" style="stroke:#181818;stroke-width:1;"/><polygon fill="#181818" points="70.64,232.13,74.64,223.13,70.64,227.13,66.64,223.13,70.64,232.13" style="stroke:#181818;stroke-width:1;"/></g><!--SRC=[it9Fp4rLI4ajpapFIosoKj3LjLFGS05p5TA1KffSHQd99ObvwJcf2af8QfKK4eiLt5qKghbgkL3KWqrmTm40]--></g></svg>