<svg xmlns="http://www.w3.org/2000/svg" xmlns:xlink="http://www.w3.org/1999/xlink" contentStyleType="text/css" data-diagram-type="DESCRIPTION" height="551px" preserveAspectRatio="none" style="width:790px;height:551px;background:#FFFFFF;" version="1.1" viewBox="0 0 790 551" width="790px" zoomAndPan="magnify"><defs/><g><!--entity GD--><g class="entity" data-entity="GD" data-source-line="1" data-uid="ent0002" id="entity_GD"><ellipse cx="392.0707" cy="151.3" fill="#F1F1F1" rx="8" ry="8" style="stroke:#181818;stroke-width:0.5;"/><path d="M392.0707,159.3 L392.0707,186.3 M379.0707,167.3 L405.0707,167.3 M392.0707,186.3 L379.0707,201.3 M392.0707,186.3 L405.0707,201.3" fill="none" style="stroke:#181818;stroke-width:0.5;"/><text fill="#000000" font-family="sans-serif" font-size="14" lengthAdjust="spacing" textLength="106.9414" x="338.6" y="215.7951">Game designer</text></g><!--entity User--><g class="entity" data-entity="User" data-source-line="2" data-uid="ent0003" id="entity_User"><ellipse cx="458.0751" cy="14" fill="#F1F1F1" rx="8" ry="8" style="stroke:#181818;stroke-width:0.5;"/><path d="M458.0751,22 L458.0751,49 M445.0751,30 L471.0751,30 M458.0751,49 L445.0751,64 M458.0751,49 L471.0751,64" fill="none" style="stroke:#181818;stroke-width:0.5;"/><text fill="#000000" font-family="sans-serif" font-size="14" lengthAdjust="spacing" textLength="31.9102" x="442.12" y="78.4951">User</text></g><!--entity Register--><g class="entity" data-entity="Register" data-source-line="4" data-uid="ent0005" id="entity_Register"><ellipse cx="622.0728" cy="180.9536" fill="#F1F1F1" rx="44.2028" ry="14.5236" style="stroke:#181818;stroke-width:0.5;"/><text fill="#000000" font-family="sans-serif" font-size="14" lengthAdjust="spacing" textLength="58.2695" x="592.938" y="185.6021">Register</text></g><!--entity Set password--><g class="entity" data-entity="Set password" data-source-line="5" data-uid="ent0007" id="entity_Set password"><ellipse cx="719.0679" cy="311.5516" fill="#F1F1F1" rx="65.2579" ry="15.4516" style="stroke:#181818;stroke-width:0.5;"/><text fill="#000000" font-family="sans-serif" font-size="14" lengthAdjust="spacing" textLength="94.1514" x="671.9922" y="316.2">Set password</text></g><!--entity Create game--><g class="entity" data-entity="Create game" data-source-line="7" data-uid="ent0009" id="entity_Create game"><ellipse cx="70.0726" cy="311.5545" fill="#F1F1F1" rx="64.0726" ry="15.2145" style="stroke:#181818;stroke-width:0.5;"/><text fill="#000000" font-family="sans-serif" font-size="14" lengthAdjust="spacing" textLength="90.9932" x="24.576" y="316.203">Create game</text></g><!--entity Clone game--><g class="entity" data-entity="Clone game" data-source-line="9" data-uid="ent0011" id="entity_Clone game"><ellipse cx="231.0726" cy="311.5545" fill="#F1F1F1" rx="61.4726" ry="14.6945" style="stroke:#181818;stroke-width:0.5;"/><text fill="#000000" font-family="sans-serif" font-size="14" lengthAdjust="spacing" textLength="83.8838" x="189.1307" y="316.203">Clone game</text></g><!--entity Design game--><g class="entity" data-entity="Design game" data-source-line="11" data-uid="ent0013" id="entity_Design game"><ellipse cx="392.0674" cy="311.5475" fill="#F1F1F1" rx="64.6374" ry="15.3275" style="stroke:#181818;stroke-width:0.5;"/><text fill="#000000" font-family="sans-serif" font-size="14" lengthAdjust="spacing" textLength="92.5039" x="345.8154" y="316.1959">Design game</text></g><!--entity Choose game--><g class="entity" data-entity="Choose game" data-source-line="12" data-uid="ent0015" id="entity_Choose game"><ellipse cx="182.0739" cy="419.5808" fill="#F1F1F1" rx="65.9039" ry="15.5808" style="stroke:#181818;stroke-width:0.5;"/><text fill="#000000" font-family="sans-serif" font-size="14" lengthAdjust="spacing" textLength="95.8535" x="134.1471" y="424.2292">Choose game</text></g><!--entity Set goals--><g class="entity" data-entity="Set goals" data-source-line="13" data-uid="ent0017" id="entity_Set goals"><ellipse cx="332.0675" cy="419.5836" fill="#F1F1F1" rx="48.7175" ry="14.5236" style="stroke:#181818;stroke-width:0.5;"/><text fill="#000000" font-family="sans-serif" font-size="14" lengthAdjust="spacing" textLength="64.6543" x="299.7403" y="424.2321">Set goals</text></g><!--entity Set actors--><g class="entity" data-entity="Set actors" data-source-line="14" data-uid="ent0019" id="entity_Set actors"><ellipse cx="469.0675" cy="419.5836" fill="#F1F1F1" rx="53.0775" ry="14.5236" style="stroke:#181818;stroke-width:0.5;"/><text fill="#000000" font-family="sans-serif" font-size="14" lengthAdjust="spacing" textLength="70.8203" x="433.6574" y="424.2321">Set actors</text></g><!--entity Set scenario--><g class="entity" data-entity="Set scenario" data-source-line="15" data-uid="ent0021" id="entity_Set scenario"><ellipse cx="620.0733" cy="419.5787" fill="#F1F1F1" rx="62.4933" ry="14.8987" style="stroke:#181818;stroke-width:0.5;"/><text fill="#000000" font-family="sans-serif" font-size="14" lengthAdjust="spacing" textLength="86.707" x="576.7198" y="424.2271">Set scenario</text></g><!--entity Set parameters--><g class="entity" data-entity="Set parameters" data-source-line="16" data-uid="ent0023" id="entity_Set parameters"><ellipse cx="544.0727" cy="528.7405" fill="#F1F1F1" rx="70.9027" ry="16.5805" style="stroke:#181818;stroke-width:0.5;"/><text fill="#000000" font-family="sans-serif" font-size="14" lengthAdjust="spacing" textLength="108.6436" x="489.751" y="533.389">Set parameters</text></g><!--entity Delete game--><g class="entity" data-entity="Delete game" data-source-line="19" data-uid="ent0026" id="entity_Delete game"><ellipse cx="555.0651" cy="311.553" fill="#F1F1F1" rx="63.7651" ry="15.153" style="stroke:#181818;stroke-width:0.5;"/><text fill="#000000" font-family="sans-serif" font-size="14" lengthAdjust="spacing" textLength="90.166" x="509.9821" y="316.2015">Delete game</text></g><!--reverse link User to GD--><g class="link" data-entity-1="User" data-entity-2="GD" data-source-line="2" data-uid="lnk4" id="link_User_GD"><path d="M433.8659,94.2666 C424.3159,113.8366 420.15,122.4 410.29,142.6" fill="none" id="User-backto-GD" style="stroke:#181818;stroke-width:1;"/><polygon fill="none" points="441.76,78.09,428.4737,91.6353,439.2581,96.898,441.76,78.09" style="stroke:#181818;stroke-width:1;"/></g><!--link User to Register--><g class="link" data-entity-1="User" data-entity-2="Register" data-source-line="4" data-uid="lnk6" id="link_User_Register"><path d="M474.4,58.12 C505.99,84.18 570.5112,137.4123 601.6712,163.1123" fill="none" id="User-to-Register" style="stroke:#181818;stroke-width:1;"/><polygon fill="#181818" points="606.3,166.93,601.902,158.1176,602.4427,163.7486,596.8118,164.2893,606.3,166.93" style="stroke:#181818;stroke-width:1;"/></g><!--link Register to Set password--><g class="link" data-entity-1="Register" data-entity-2="Set password" data-source-line="5" data-uid="lnk8" id="link_Register_Set password"><path d="M632.09,195.22 C650.39,219.48 685.4669,265.9898 704.4669,291.1798" fill="none" id="Register-to-Set password" style="stroke:#181818;stroke-width:1;"/><polygon fill="#181818" points="708.08,295.97,705.8538,286.376,705.0691,291.9782,699.4669,291.1935,708.08,295.97" style="stroke:#181818;stroke-width:1;"/><text fill="#000000" font-family="sans-serif" font-size="13" lengthAdjust="spacing" textLength="61.1851" x="685.07" y="262.1569">&#171;extend&#187;</text></g><!--link GD to Create game--><g class="link" data-entity-1="GD" data-entity-2="Create game" data-source-line="7" data-uid="lnk10" id="link_GD_Create game"><path d="M338.18,203.47 C270.5,230.5 162.1918,273.7541 107.2218,295.7141" fill="none" id="GD-to-Create game" style="stroke:#181818;stroke-width:1;"/><polygon fill="#181818" points="101.65,297.94,111.4917,298.3157,106.2932,296.0851,108.5238,290.8866,101.65,297.94" style="stroke:#181818;stroke-width:1;"/></g><!--link GD to Clone game--><g class="link" data-entity-1="GD" data-entity-2="Clone game" data-source-line="9" data-uid="lnk12" id="link_GD_Clone game"><path d="M345.07,219.49 C312.4,245.58 275.4586,275.0961 252.6286,293.3261" fill="none" id="GD-to-Clone game" style="stroke:#181818;stroke-width:1;"/><polygon fill="#181818" points="247.94,297.07,257.4689,294.5799,251.8472,293.9501,252.477,288.3284,247.94,297.07" style="stroke:#181818;stroke-width:1;"/></g><!--link GD to Design game--><g class="link" data-entity-1="GD" data-entity-2="Design game" data-source-line="11" data-uid="lnk14" id="link_GD_Design game"><path d="M392.07,219.49 C392.07,244.99 392.07,271.33 392.07,289.81" fill="none" id="GD-to-Design game" style="stroke:#181818;stroke-width:1;"/><polygon fill="#181818" points="392.07,295.81,396.07,286.81,392.07,290.81,388.07,286.81,392.07,295.81" style="stroke:#181818;stroke-width:1;"/></g><!--link Design game to Choose game--><g class="link" data-entity-1="Design game" data-entity-2="Choose game" data-source-line="12" data-uid="lnk16" id="link_Design game_Choose game"><path d="M352.15,323.96 C327.51,331.74 295.64,343.12 269.07,357 C243.32,370.45 221.1155,386.8122 204.1755,400.3622" fill="none" id="Design game-to-Choose game" style="stroke:#181818;stroke-width:1;"/><polygon fill="#181818" points="199.49,404.11,209.0168,401.6119,203.3946,400.9868,204.0197,395.3646,199.49,404.11" style="stroke:#181818;stroke-width:1;"/><text fill="#000000" font-family="sans-serif" font-size="13" lengthAdjust="spacing" textLength="61.1851" x="270.07" y="370.0669">&#171;extend&#187;</text></g><!--link Design game to Set goals--><g class="link" data-entity-1="Design game" data-entity-2="Set goals" data-source-line="13" data-uid="lnk18" id="link_Design game_Set goals"><path d="M372.92,326.63 C363.48,334.54 352.72,345.19 346.07,357 C337.57,372.09 334.8297,386.04 333.5197,399.08" fill="none" id="Design game-to-Set goals" style="stroke:#181818;stroke-width:1;"/><polygon fill="#181818" points="332.92,405.05,337.7996,396.4949,333.4198,400.075,329.8396,395.6952,332.92,405.05" style="stroke:#181818;stroke-width:1;"/><text fill="#000000" font-family="sans-serif" font-size="13" lengthAdjust="spacing" textLength="61.1851" x="347.07" y="370.0669">&#171;extend&#187;</text></g><!--link Design game to Set actors--><g class="link" data-entity-1="Design game" data-entity-2="Set actors" data-source-line="14" data-uid="lnk20" id="link_Design game_Set actors"><path d="M402.46,326.85 C417.32,347.31 440.9333,379.8359 455.5733,399.9859" fill="none" id="Design game-to-Set actors" style="stroke:#181818;stroke-width:1;"/><polygon fill="#181818" points="459.1,404.84,457.0459,395.2077,456.1611,400.7949,450.5738,399.91,459.1,404.84" style="stroke:#181818;stroke-width:1;"/><text fill="#000000" font-family="sans-serif" font-size="13" lengthAdjust="spacing" textLength="61.1851" x="437.07" y="370.0669">&#171;extend&#187;</text></g><!--link Design game to Set scenario--><g class="link" data-entity-1="Design game" data-entity-2="Set scenario" data-source-line="15" data-uid="lnk22" id="link_Design game_Set scenario"><path d="M427.29,324.81 C450.31,333.15 480.85,344.85 507.07,357 C539.51,372.03 570.3582,389.2953 592.8182,402.4053" fill="none" id="Design game-to-Set scenario" style="stroke:#181818;stroke-width:1;"/><polygon fill="#181818" points="598,405.43,592.2437,397.4385,593.6818,402.9094,588.2108,404.3476,598,405.43" style="stroke:#181818;stroke-width:1;"/><text fill="#000000" font-family="sans-serif" font-size="13" lengthAdjust="spacing" textLength="61.1851" x="540.07" y="370.0669">&#171;extend&#187;</text></g><!--link Set scenario to Set parameters--><g class="link" data-entity-1="Set scenario" data-entity-2="Set parameters" data-source-line="16" data-uid="lnk24" id="link_Set scenario_Set parameters"><path d="M610.14,434.59 C595.97,454.56 573.5301,486.2053 558.7201,507.0953" fill="none" id="Set scenario-to-Set parameters" style="stroke:#181818;stroke-width:1;"/><polygon fill="#181818" points="555.25,511.99,563.7183,506.9613,558.1418,507.9111,557.192,502.3345,555.25,511.99" style="stroke:#181818;stroke-width:1;"/><text fill="#000000" font-family="sans-serif" font-size="13" lengthAdjust="spacing" textLength="61.1851" x="588.07" y="478.2269">&#171;extend&#187;</text></g><!--link Set actors to Set parameters--><g class="link" data-entity-1="Set actors" data-entity-2="Set parameters" data-source-line="17" data-uid="lnk25" id="link_Set actors_Set parameters"><path d="M475.22,434.37 C481.25,447.25 491.11,466.74 502.07,482.16 C509.68,492.86 515.3782,499.4269 523.6482,507.8569" fill="none" id="Set actors-to-Set parameters" style="stroke:#181818;stroke-width:1;"/><polygon fill="#181818" points="527.85,512.14,524.4027,502.9142,524.3485,508.5708,518.6919,508.5166,527.85,512.14" style="stroke:#181818;stroke-width:1;"/><text fill="#000000" font-family="sans-serif" font-size="13" lengthAdjust="spacing" textLength="61.1851" x="503.07" y="478.2269">&#171;extend&#187;</text></g><!--link GD to Delete game--><g class="link" data-entity-1="GD" data-entity-2="Delete game" data-source-line="19" data-uid="lnk27" id="link_GD_Delete game"><path d="M439.66,219.49 C472.55,245.44 509.6891,274.7441 532.8891,293.0441" fill="none" id="GD-to-Delete game" style="stroke:#181818;stroke-width:1;"/><polygon fill="#181818" points="537.6,296.76,533.011,288.0456,533.6743,293.6634,528.0565,294.3267,537.6,296.76" style="stroke:#181818;stroke-width:1;"/></g><!--SRC=[ZL113e903BplAnfESjWFc0qNIRXhV403pKg2MzDkeWSVBxWGGJXmwqndEira5Tu96jBM1v8CKA4gpLL9mBsj7K12rXPmE9DlDPBavZUcpOKYF53roTBaS0JdW5wHGWD5OKnL9jL922E1xpFp6TjnM97bzwMHNQ3HT6FMqVMVjo4V_lECdUuLOnrPTgkrfe3Iybg_tCwwalv2tvzkMwRuFOPPPnrDzNu0]--></g></svg>