<svg xmlns="http://www.w3.org/2000/svg" xmlns:xlink="http://www.w3.org/1999/xlink" contentStyleType="text/css" data-diagram-type="DESCRIPTION" height="303px" preserveAspectRatio="none" style="width:984px;height:303px;background:#FFFFFF;" version="1.1" viewBox="0 0 984 303" width="984px" zoomAndPan="magnify"><defs/><g><!--entity GD--><g class="entity" data-entity="GD" data-source-line="3" data-uid="ent0002" id="entity_GD"><ellipse cx="152.3807" cy="121.56" fill="#F1F1F1" rx="8" ry="8" style="stroke:#181818;stroke-width:0.5;"/><path d="M152.3807,129.56 L152.3807,156.56 M139.3807,137.56 L165.3807,137.56 M152.3807,156.56 L139.3807,171.56 M152.3807,156.56 L165.3807,171.56" fill="none" style="stroke:#181818;stroke-width:0.5;"/><text fill="#000000" font-family="sans-serif" font-size="14" lengthAdjust="spacing" textLength="106.9414" x="98.91" y="186.0551">Game designer</text></g><!--entity User--><g class="entity" data-entity="User" data-source-line="4" data-uid="ent0003" id="entity_User"><ellipse cx="21.9551" cy="187.56" fill="#F1F1F1" rx="8" ry="8" style="stroke:#181818;stroke-width:0.5;"/><path d="M21.9551,195.56 L21.9551,222.56 M8.9551,203.56 L34.9551,203.56 M21.9551,222.56 L8.9551,237.56 M21.9551,222.56 L34.9551,237.56" fill="none" style="stroke:#181818;stroke-width:0.5;"/><text fill="#000000" font-family="sans-serif" font-size="14" lengthAdjust="spacing" textLength="31.9102" x="6" y="252.0551">User</text></g><!--entity Register--><g class="entity" data-entity="Register" data-source-line="6" data-uid="ent0005" id="entity_Register"><ellipse cx="152.3828" cy="260.2136" fill="#F1F1F1" rx="44.2028" ry="14.5236" style="stroke:#181818;stroke-width:0.5;"/><text fill="#000000" font-family="sans-serif" font-size="14" lengthAdjust="spacing" textLength="58.2695" x="123.248" y="264.8621">Register</text></g><!--entity Set password--><g class="entity" data-entity="Set password" data-source-line="7" data-uid="ent0007" id="entity_Set password"><ellipse cx="394.1079" cy="282.2116" fill="#F1F1F1" rx="65.2579" ry="15.4516" style="stroke:#181818;stroke-width:0.5;"/><text fill="#000000" font-family="sans-serif" font-size="14" lengthAdjust="spacing" textLength="94.1514" x="347.0322" y="286.86">Set password</text></g><!--entity Create game--><g class="entity" data-entity="Create game" data-source-line="9" data-uid="ent0009" id="entity_Create game"><ellipse cx="394.1126" cy="21.2145" fill="#F1F1F1" rx="64.0726" ry="15.2145" style="stroke:#181818;stroke-width:0.5;"/><text fill="#000000" font-family="sans-serif" font-size="14" lengthAdjust="spacing" textLength="90.9932" x="348.616" y="25.863">Create game</text></g><!--entity Clone game--><g class="entity" data-entity="Clone game" data-source-line="11" data-uid="ent0011" id="entity_Clone game"><ellipse cx="394.1126" cy="86.2145" fill="#F1F1F1" rx="61.4726" ry="14.6945" style="stroke:#181818;stroke-width:0.5;"/><text fill="#000000" font-family="sans-serif" font-size="14" lengthAdjust="spacing" textLength="83.8838" x="352.1707" y="90.863">Clone game</text></g><!--entity Design game--><g class="entity" data-entity="Design game" data-source-line="13" data-uid="ent0013" id="entity_Design game"><ellipse cx="394.1074" cy="151.2075" fill="#F1F1F1" rx="64.6374" ry="15.3275" style="stroke:#181818;stroke-width:0.5;"/><text fill="#000000" font-family="sans-serif" font-size="14" lengthAdjust="spacing" textLength="92.5039" x="347.8554" y="155.8559">Design game</text></g><!--entity Choose game--><g class="entity" data-entity="Choose game" data-source-line="14" data-uid="ent0015" id="entity_Choose game"><ellipse cx="648.2739" cy="56.2108" fill="#F1F1F1" rx="65.9039" ry="15.5808" style="stroke:#181818;stroke-width:0.5;"/><text fill="#000000" font-family="sans-serif" font-size="14" lengthAdjust="spacing" textLength="95.8535" x="600.3471" y="60.8592">Choose game</text></g><!--entity Set goals--><g class="entity" data-entity="Set goals" data-source-line="15" data-uid="ent0017" id="entity_Set goals"><ellipse cx="648.2675" cy="121.2136" fill="#F1F1F1" rx="48.7175" ry="14.5236" style="stroke:#181818;stroke-width:0.5;"/><text fill="#000000" font-family="sans-serif" font-size="14" lengthAdjust="spacing" textLength="64.6543" x="615.9403" y="125.8621">Set goals</text></g><!--entity Set actors--><g class="entity" data-entity="Set actors" data-source-line="16" data-uid="ent0019" id="entity_Set actors"><ellipse cx="648.2675" cy="185.2136" fill="#F1F1F1" rx="53.0775" ry="14.5236" style="stroke:#181818;stroke-width:0.5;"/><text fill="#000000" font-family="sans-serif" font-size="14" lengthAdjust="spacing" textLength="70.8203" x="612.8574" y="189.8621">Set actors</text></g><!--entity Set scenario--><g class="entity" data-entity="Set scenario" data-source-line="17" data-uid="ent0021" id="entity_Set scenario"><ellipse cx="648.2733" cy="249.2087" fill="#F1F1F1" rx="62.4933" ry="14.8987" style="stroke:#181818;stroke-width:0.5;"/><text fill="#000000" font-family="sans-serif" font-size="14" lengthAdjust="spacing" textLength="86.707" x="604.9198" y="253.8571">Set scenario</text></g><!--entity Set parameters--><g class="entity" data-entity="Set parameters" data-source-line="18" data-uid="ent0023" id="entity_Set parameters"><ellipse cx="908.0827" cy="218.2105" fill="#F1F1F1" rx="70.9027" ry="16.5805" style="stroke:#181818;stroke-width:0.5;"/><text fill="#000000" font-family="sans-serif" font-size="14" lengthAdjust="spacing" textLength="108.6436" x="853.761" y="222.859">Set parameters</text></g><!--entity Delete game--><g class="entity" data-entity="Delete game" data-source-line="21" data-uid="ent0026" id="entity_Delete game"><ellipse cx="394.1051" cy="216.213" fill="#F1F1F1" rx="63.7651" ry="15.153" style="stroke:#181818;stroke-width:0.5;"/><text fill="#000000" font-family="sans-serif" font-size="14" lengthAdjust="spacing" textLength="90.166" x="349.0221" y="220.8615">Delete game</text></g><!--reverse link User to GD--><g class="link" data-entity-1="User" data-entity-2="GD" data-source-line="4" data-uid="lnk4" id="link_User_GD"><path d="M54.2009,201.155 C69.1509,193.475 76.81,189.53 98.65,178.31" fill="none" id="User-backto-GD" style="stroke:#181818;stroke-width:1;"/><polygon fill="none" points="38.19,209.38,56.9426,206.492,51.4592,195.818,38.19,209.38" style="stroke:#181818;stroke-width:1;"/></g><!--link User to Register--><g class="link" data-entity-1="User" data-entity-2="Register" data-source-line="6" data-uid="lnk6" id="link_User_Register"><path d="M38.19,222.31 C58.32,229.05 88.5803,239.1854 114.5703,247.8854" fill="none" id="User-to-Register" style="stroke:#181818;stroke-width:1;"/><polygon fill="#181818" points="120.26,249.79,112.9952,243.14,115.5186,248.2028,110.4557,250.7262,120.26,249.79" style="stroke:#181818;stroke-width:1;"/></g><!--link Register to Set password--><g class="link" data-entity-1="Register" data-entity-2="Set password" data-source-line="7" data-uid="lnk8" id="link_Register_Set password"><path d="M195.41,264.07 C233.41,267.55 283.8351,272.1819 326.6751,276.1119" fill="none" id="Register-to-Set password" style="stroke:#181818;stroke-width:1;"/><polygon fill="#181818" points="332.65,276.66,324.053,271.8545,327.6709,276.2032,323.3222,279.8211,332.65,276.66" style="stroke:#181818;stroke-width:1;"/><text fill="#000000" font-family="sans-serif" font-size="13" lengthAdjust="spacing" textLength="61.1851" x="236.85" y="263.2769">&#171;extend&#187;</text></g><!--link GD to Create game--><g class="link" data-entity-1="GD" data-entity-2="Create game" data-source-line="9" data-uid="lnk10" id="link_GD_Create game"><path d="M203.81,112.77 C214.17,105.56 225.17,98.36 235.85,92.21 C276.61,68.74 320.9507,49.5822 353.4607,36.5522" fill="none" id="GD-to-Create game" style="stroke:#181818;stroke-width:1;"/><polygon fill="#181818" points="359.03,34.32,349.1879,33.9554,354.3889,36.1802,352.1641,41.3812,359.03,34.32" style="stroke:#181818;stroke-width:1;"/></g><!--link GD to Clone game--><g class="link" data-entity-1="GD" data-entity-2="Clone game" data-source-line="11" data-uid="lnk12" id="link_GD_Clone game"><path d="M206.03,134.07 C215.91,131.01 226.17,127.93 235.85,125.21 C273.62,114.58 311.091,105.3407 342.681,97.8707" fill="none" id="GD-to-Clone game" style="stroke:#181818;stroke-width:1;"/><polygon fill="#181818" points="348.52,96.49,338.8411,94.6684,343.6542,97.6406,340.682,102.4537,348.52,96.49" style="stroke:#181818;stroke-width:1;"/></g><!--link GD to Design game--><g class="link" data-entity-1="GD" data-entity-2="Design game" data-source-line="13" data-uid="lnk14" id="link_GD_Design game"><path d="M206.29,151.21 C242.55,151.21 284.85,151.21 323.26,151.21" fill="none" id="GD-to-Design game" style="stroke:#181818;stroke-width:1;"/><polygon fill="#181818" points="329.26,151.21,320.26,147.21,324.26,151.21,320.26,155.21,329.26,151.21" style="stroke:#181818;stroke-width:1;"/></g><!--link Design game to Choose game--><g class="link" data-entity-1="Design game" data-entity-2="Choose game" data-source-line="14" data-uid="lnk16" id="link_Design game_Choose game"><path d="M423.64,137.2 C442.15,128.36 466.92,116.99 489.37,108.21 C528.34,92.96 568.0832,80.0575 600.2032,70.2175" fill="none" id="Design game-to-Choose game" style="stroke:#181818;stroke-width:1;"/><polygon fill="#181818" points="605.94,68.46,596.1631,67.2717,601.1593,69.9246,598.5064,74.9208,605.94,68.46" style="stroke:#181818;stroke-width:1;"/><text fill="#000000" font-family="sans-serif" font-size="13" lengthAdjust="spacing" textLength="61.1851" x="490.37" y="83.2769">&#171;extend&#187;</text></g><!--link Design game to Set goals--><g class="link" data-entity-1="Design game" data-entity-2="Set goals" data-source-line="15" data-uid="lnk18" id="link_Design game_Set goals"><path d="M452.64,144.36 C498.14,138.95 554.792,132.2086 596.582,127.2386" fill="none" id="Design game-to-Set goals" style="stroke:#181818;stroke-width:1;"/><polygon fill="#181818" points="602.54,126.53,593.1306,123.6209,597.575,127.1205,594.0754,131.5649,602.54,126.53" style="stroke:#181818;stroke-width:1;"/><text fill="#000000" font-family="sans-serif" font-size="13" lengthAdjust="spacing" textLength="61.1851" x="490.37" y="129.2769">&#171;extend&#187;</text></g><!--link Design game to Set actors--><g class="link" data-entity-1="Design game" data-entity-2="Set actors" data-source-line="16" data-uid="lnk20" id="link_Design game_Set actors"><path d="M449.41,159.48 C462.49,161.41 476.42,163.43 489.37,165.21 C526.19,170.27 561.9449,174.8077 593.2549,178.6577" fill="none" id="Design game-to-Set actors" style="stroke:#181818;stroke-width:1;"/><polygon fill="#181818" points="599.21,179.39,590.7655,174.3215,594.2474,178.7798,589.7891,182.2617,599.21,179.39" style="stroke:#181818;stroke-width:1;"/><text fill="#000000" font-family="sans-serif" font-size="13" lengthAdjust="spacing" textLength="61.1851" x="490.37" y="161.2769">&#171;extend&#187;</text></g><!--link Design game to Set scenario--><g class="link" data-entity-1="Design game" data-entity-2="Set scenario" data-source-line="17" data-uid="lnk22" id="link_Design game_Set scenario"><path d="M423.67,165.22 C434.84,170.75 447.74,177.21 459.37,183.21 C472.8,190.13 475.44,193.35 489.37,199.21 C527.53,215.27 566.9414,227.4651 599.1814,236.4751" fill="none" id="Design game-to-Set scenario" style="stroke:#181818;stroke-width:1;"/><polygon fill="#181818" points="604.96,238.09,597.3687,231.8152,600.1445,236.7442,595.2155,239.52,604.96,238.09" style="stroke:#181818;stroke-width:1;"/><text fill="#000000" font-family="sans-serif" font-size="13" lengthAdjust="spacing" textLength="61.1851" x="490.37" y="195.2769">&#171;extend&#187;</text></g><!--link Set scenario to Set parameters--><g class="link" data-entity-1="Set scenario" data-entity-2="Set parameters" data-source-line="18" data-uid="lnk24" id="link_Set scenario_Set parameters"><path d="M709.94,252.25 C739.43,252.76 775.31,251.95 807.18,247.21 C827.54,244.18 843.8657,239.9293 862.0457,234.1093" fill="none" id="Set scenario-to-Set parameters" style="stroke:#181818;stroke-width:1;"/><polygon fill="#181818" points="867.76,232.28,857.969,231.2145,862.9981,233.8044,860.4081,238.8336,867.76,232.28" style="stroke:#181818;stroke-width:1;"/><text fill="#000000" font-family="sans-serif" font-size="13" lengthAdjust="spacing" textLength="61.1851" x="745.18" y="243.2769">&#171;extend&#187;</text></g><!--link Set actors to Set parameters--><g class="link" data-entity-1="Set actors" data-entity-2="Set parameters" data-source-line="19" data-uid="lnk25" id="link_Set actors_Set parameters"><path d="M697.16,191.34 C738.95,196.69 793.8986,203.7179 839.3486,209.5379" fill="none" id="Set actors-to-Set parameters" style="stroke:#181818;stroke-width:1;"/><polygon fill="#181818" points="845.3,210.3,836.881,205.1893,840.3405,209.6649,835.8648,213.1245,845.3,210.3" style="stroke:#181818;stroke-width:1;"/><text fill="#000000" font-family="sans-serif" font-size="13" lengthAdjust="spacing" textLength="61.1851" x="745.18" y="194.2769">&#171;extend&#187;</text></g><!--link GD to Delete game--><g class="link" data-entity-1="GD" data-entity-2="Delete game" data-source-line="21" data-uid="lnk27" id="link_GD_Delete game"><path d="M206.29,165.55 C249.72,177.33 304.639,192.2201 344.919,203.1401" fill="none" id="GD-to-Delete game" style="stroke:#181818;stroke-width:1;"/><polygon fill="#181818" points="350.71,204.71,343.0702,198.4944,345.8842,203.4017,340.9769,206.2157,350.71,204.71" style="stroke:#181818;stroke-width:1;"/></g><!--SRC=[ZL113e903BplAnfESjWF6C954kuQ7x21kco2MzCsqOEF5mGY20TkdUbCfvaMRmfAmC4t2dLWh3HGD2OftHsXHWa-8YVW1Ch2N0KPihUrFHYGjJaSpkY3A79gVkEmkQ32muayYUiKZf1bW2_5M4EU6rCMW-h4w1J1TvdfZ6qfhiZY-zB8Bj1eQeXaTFtdRSZx_povLlQANQN4kzLIONGSQArVRcTTSNUXwq-sBLFy7iEiinQdUZy0]--></g></svg>