<svg xmlns="http://www.w3.org/2000/svg" xmlns:xlink="http://www.w3.org/1999/xlink" contentStyleType="text/css" data-diagram-type="DESCRIPTION" height="498px" preserveAspectRatio="none" style="width:758px;height:498px;background:#FFFFFF;" version="1.1" viewBox="0 0 758 498" width="758px" zoomAndPan="magnify"><defs/><g><!--entity OA--><g class="entity" data-entity="OA" data-source-line="3" data-uid="ent0002" id="entity_OA"><ellipse cx="164.1713" cy="188.05" fill="#F1F1F1" rx="8" ry="8" style="stroke:#181818;stroke-width:0.5;"/><path d="M164.1713,196.05 L164.1713,223.05 M151.1713,204.05 L177.1713,204.05 M164.1713,223.05 L151.1713,238.05 M164.1713,223.05 L177.1713,238.05" fill="none" style="stroke:#181818;stroke-width:0.5;"/><text fill="#000000" font-family="sans-serif" font-size="14" lengthAdjust="spacing" textLength="89.749" x="116.33" y="252.5451">Organization</text><text fill="#000000" font-family="sans-serif" font-size="14" lengthAdjust="spacing" textLength="95.6826" x="116.33" y="268.842">Administrator</text></g><!--entity User--><g class="entity" data-entity="User" data-source-line="4" data-uid="ent0003" id="entity_User"><ellipse cx="21.9551" cy="273.19" fill="#F1F1F1" rx="8" ry="8" style="stroke:#181818;stroke-width:0.5;"/><path d="M21.9551,281.19 L21.9551,308.19 M8.9551,289.19 L34.9551,289.19 M21.9551,308.19 L8.9551,323.19 M21.9551,308.19 L34.9551,323.19" fill="none" style="stroke:#181818;stroke-width:0.5;"/><text fill="#000000" font-family="sans-serif" font-size="14" lengthAdjust="spacing" textLength="31.9102" x="6" y="337.6851">User</text></g><!--entity Set password--><g class="entity" data-entity="Set password" data-source-line="6" data-uid="ent0005" id="entity_Set password"><ellipse cx="164.1679" cy="322.8416" fill="#F1F1F1" rx="65.2579" ry="15.4516" style="stroke:#181818;stroke-width:0.5;"/><text fill="#000000" font-family="sans-serif" font-size="14" lengthAdjust="spacing" textLength="94.1514" x="117.0922" y="327.49">Set password</text></g><!--entity Manage organization--><g class="entity" data-entity="Manage organization" data-source-line="8" data-uid="ent0007" id="entity_Manage organization"><ellipse cx="377.6222" cy="131.8384" fill="#F1F1F1" rx="87.1922" ry="19.8384" style="stroke:#181818;stroke-width:0.5;"/><text fill="#000000" font-family="sans-serif" font-size="14" lengthAdjust="spacing" textLength="147.3555" x="303.9445" y="136.4869">Manage organization</text></g><!--entity Change description--><g class="entity" data-entity="Change description" data-source-line="9" data-uid="ent0009" id="entity_Change description"><ellipse cx="670.0447" cy="24.8449" fill="#F1F1F1" rx="82.2247" ry="18.8449" style="stroke:#181818;stroke-width:0.5;"/><text fill="#000000" font-family="sans-serif" font-size="14" lengthAdjust="spacing" textLength="135.8916" x="602.0989" y="29.4934">Change description</text></g><!--entity Change logo--><g class="entity" data-entity="Change logo" data-source-line="10" data-uid="ent0011" id="entity_Change logo"><ellipse cx="670.0406" cy="93.8401" fill="#F1F1F1" rx="62.9506" ry="14.9901" style="stroke:#181818;stroke-width:0.5;"/><text fill="#000000" font-family="sans-serif" font-size="14" lengthAdjust="spacing" textLength="87.958" x="626.0616" y="98.4886">Change logo</text></g><!--entity Allocate user\nto organization--><g class="entity" data-entity="Allocate user\nto organization" data-source-line="11" data-uid="ent0013" id="entity_Allocate user\nto organization"><ellipse cx="670.0416" cy="168.8433" fill="#F1F1F1" rx="75.4616" ry="25.3233" style="stroke:#181818;stroke-width:0.5;"/><text fill="#000000" font-family="sans-serif" font-size="14" lengthAdjust="spacing" textLength="91.2871" x="624.3981" y="164.3022">Allocate user</text><text fill="#000000" font-family="sans-serif" font-size="14" lengthAdjust="spacing" textLength="105.7998" x="617.1417" y="180.5991">to organization</text></g><!--entity Manage user--><g class="entity" data-entity="Manage user" data-source-line="13" data-uid="ent0015" id="entity_Manage user"><ellipse cx="377.6151" cy="307.835" fill="#F1F1F1" rx="63.9251" ry="15.185" style="stroke:#181818;stroke-width:0.5;"/><text fill="#000000" font-family="sans-serif" font-size="14" lengthAdjust="spacing" textLength="90.5967" x="332.3167" y="312.4835">Manage user</text></g><!--entity Create user--><g class="entity" data-entity="Create user" data-source-line="14" data-uid="ent0017" id="entity_Create user"><ellipse cx="670.0443" cy="243.8369" fill="#F1F1F1" rx="60.7343" ry="14.5469" style="stroke:#181818;stroke-width:0.5;"/><text fill="#000000" font-family="sans-serif" font-size="14" lengthAdjust="spacing" textLength="81.8125" x="629.138" y="248.4853">Create user</text></g><!--entity Delete user--><g class="entity" data-entity="Delete user" data-source-line="15" data-uid="ent0019" id="entity_Delete user"><ellipse cx="670.0353" cy="307.8436" fill="#F1F1F1" rx="60.2653" ry="14.5236" style="stroke:#181818;stroke-width:0.5;"/><text fill="#000000" font-family="sans-serif" font-size="14" lengthAdjust="spacing" textLength="80.9854" x="629.5426" y="312.4921">Delete user</text></g><!--entity Reset\npassword--><g class="entity" data-entity="Reset\npassword" data-source-line="16" data-uid="ent0021" id="entity_Reset\npassword"><ellipse cx="670.0446" cy="381.8399" fill="#F1F1F1" rx="46.5346" ry="24.2699" style="stroke:#181818;stroke-width:0.5;"/><text fill="#000000" font-family="sans-serif" font-size="14" lengthAdjust="spacing" textLength="39.7373" x="650.1759" y="375.7112">Reset</text><text fill="#000000" font-family="sans-serif" font-size="14" lengthAdjust="spacing" textLength="66.7119" x="636.6886" y="392.0081">password</text></g><!--entity Change\naccess--><g class="entity" data-entity="Change\naccess" data-source-line="17" data-uid="ent0023" id="entity_Change\naccess"><ellipse cx="670.039" cy="466.8373" fill="#F1F1F1" rx="39.849" ry="25.4073" style="stroke:#181818;stroke-width:0.5;"/><text fill="#000000" font-family="sans-serif" font-size="14" lengthAdjust="spacing" textLength="53.6006" x="643.2387" y="464.2556">Change</text><text fill="#000000" font-family="sans-serif" font-size="14" lengthAdjust="spacing" textLength="47.1748" x="646.4516" y="480.5525">access</text></g><!--reverse link User to OA--><g class="link" data-entity-1="User" data-entity-2="OA" data-source-line="4" data-uid="lnk4" id="link_User_OA"><path d="M54.004,285.7894 C72.524,275.6094 88.86,266.65 115.88,251.81" fill="none" id="User-backto-OA" style="stroke:#181818;stroke-width:1;"/><polygon fill="none" points="38.23,294.46,56.8942,291.0474,51.1138,280.5314,38.23,294.46" style="stroke:#181818;stroke-width:1;"/></g><!--link User to Set password--><g class="link" data-entity-1="User" data-entity-2="Set password" data-source-line="6" data-uid="lnk6" id="link_User_Set password"><path d="M38.23,305.02 C54.84,307.39 76.42,310.4738 101.41,314.0338" fill="none" id="User-to-Set password" style="stroke:#181818;stroke-width:1;"/><polygon fill="#181818" points="107.35,314.88,99.0041,309.6507,102.4,314.1748,97.8758,317.5707,107.35,314.88" style="stroke:#181818;stroke-width:1;"/></g><!--link OA to Manage organization--><g class="link" data-entity-1="OA" data-entity-2="Manage organization" data-source-line="8" data-uid="lnk8" id="link_OA_Manage organization"><path d="M212.36,204.86 C249.6,188.31 295.5176,167.8978 330.8476,152.1878" fill="none" id="OA-to-Manage organization" style="stroke:#181818;stroke-width:1;"/><polygon fill="#181818" points="336.33,149.75,326.4811,149.7518,331.7613,151.7815,329.7316,157.0617,336.33,149.75" style="stroke:#181818;stroke-width:1;"/></g><!--link Manage organization to Change description--><g class="link" data-entity-1="Manage organization" data-entity-2="Change description" data-source-line="9" data-uid="lnk10" id="link_Manage organization_Change description"><path d="M420.63,114.23 C442.62,105.16 470.05,94.11 494.81,84.84 C537.36,68.92 580.6184,54.0988 615.7784,42.3688" fill="none" id="Manage organization-to-Change description" style="stroke:#181818;stroke-width:1;"/><polygon fill="#181818" points="621.47,40.47,611.6667,39.5238,616.727,42.0524,614.1985,47.1126,621.47,40.47" style="stroke:#181818;stroke-width:1;"/><text fill="#000000" font-family="sans-serif" font-size="13" lengthAdjust="spacing" textLength="61.1851" x="495.81" y="58.9069">&#171;extend&#187;</text></g><!--link Manage organization to Change logo--><g class="link" data-entity-1="Manage organization" data-entity-2="Change logo" data-source-line="10" data-uid="lnk12" id="link_Manage organization_Change logo"><path d="M454.16,121.96 C504.25,115.4 562.8707,107.7387 608.1007,101.8187" fill="none" id="Manage organization-to-Change logo" style="stroke:#181818;stroke-width:1;"/><polygon fill="#181818" points="614.05,101.04,604.607,98.2418,609.0923,101.6889,605.6452,106.1742,614.05,101.04" style="stroke:#181818;stroke-width:1;"/><text fill="#000000" font-family="sans-serif" font-size="13" lengthAdjust="spacing" textLength="61.1851" x="495.81" y="105.9069">&#171;extend&#187;</text></g><!--link Manage organization to Allocate user\nto organization--><g class="link" data-entity-1="Manage organization" data-entity-2="Allocate user\nto organization" data-source-line="11" data-uid="lnk14" id="link_Manage organization_Allocate user\nto organization"><path d="M443.26,145.28 C460,148.43 478.03,151.54 494.81,153.84 C527.74,158.37 558.3979,161.2972 589.5479,163.7072" fill="none" id="Manage organization-to-Allocate user\nto organization" style="stroke:#181818;stroke-width:1;"/><polygon fill="#181818" points="595.53,164.17,586.8654,159.4877,590.5449,163.7843,586.2483,167.4638,595.53,164.17" style="stroke:#181818;stroke-width:1;"/><text fill="#000000" font-family="sans-serif" font-size="13" lengthAdjust="spacing" textLength="61.1851" x="495.81" y="149.9069">&#171;extend&#187;</text></g><!--link OA to Manage user--><g class="link" data-entity-1="OA" data-entity-2="Manage user" data-source-line="13" data-uid="lnk16" id="link_OA_Manage user"><path d="M212.36,244.14 C251.92,259.48 301.8458,278.8508 337.1258,292.5308" fill="none" id="OA-to-Manage user" style="stroke:#181818;stroke-width:1;"/><polygon fill="#181818" points="342.72,294.7,335.7749,287.7168,338.0582,292.8924,332.8826,295.1757,342.72,294.7" style="stroke:#181818;stroke-width:1;"/></g><!--link Manage user to Create user--><g class="link" data-entity-1="Manage user" data-entity-2="Create user" data-source-line="14" data-uid="lnk18" id="link_Manage user_Create user"><path d="M425.6,297.49 C480.34,285.43 564.2905,266.9209 618.1705,255.0509" fill="none" id="Manage user-to-Create user" style="stroke:#181818;stroke-width:1;"/><polygon fill="#181818" points="624.03,253.76,614.3802,251.79,619.1471,254.8357,616.1013,259.6026,624.03,253.76" style="stroke:#181818;stroke-width:1;"/><text fill="#000000" font-family="sans-serif" font-size="13" lengthAdjust="spacing" textLength="61.1851" x="495.81" y="266.9069">&#171;extend&#187;</text></g><!--link Manage user to Delete user--><g class="link" data-entity-1="Manage user" data-entity-2="Delete user" data-source-line="15" data-uid="lnk20" id="link_Manage user_Delete user"><path d="M441.99,307.84 C491.9,307.84 554.94,307.84 603.76,307.84" fill="none" id="Manage user-to-Delete user" style="stroke:#181818;stroke-width:1;"/><polygon fill="#181818" points="609.76,307.84,600.76,303.84,604.76,307.84,600.76,311.84,609.76,307.84" style="stroke:#181818;stroke-width:1;"/><text fill="#000000" font-family="sans-serif" font-size="13" lengthAdjust="spacing" textLength="61.1851" x="495.81" y="303.9069">&#171;extend&#187;</text></g><!--link Manage user to Reset\npassword--><g class="link" data-entity-1="Manage user" data-entity-2="Reset\npassword" data-source-line="16" data-uid="lnk22" id="link_Manage user_Reset\npassword"><path d="M422.41,319 C478.03,333.17 567.4857,355.9689 621.8957,369.8289" fill="none" id="Manage user-to-Reset\npassword" style="stroke:#181818;stroke-width:1;"/><polygon fill="#181818" points="627.71,371.31,619.9759,365.2121,622.8647,370.0758,618.0011,372.9646,627.71,371.31" style="stroke:#181818;stroke-width:1;"/><text fill="#000000" font-family="sans-serif" font-size="13" lengthAdjust="spacing" textLength="61.1851" x="495.81" y="333.9069">&#171;extend&#187;</text></g><!--link Manage user to Change\naccess--><g class="link" data-entity-1="Manage user" data-entity-2="Change\naccess" data-source-line="17" data-uid="lnk24" id="link_Manage user_Change\naccess"><path d="M402.46,322.25 C425.81,336.25 462.5,357.96 494.81,375.84 C544.38,403.27 597.5703,430.6732 632.6003,448.4632" fill="none" id="Manage user-to-Change\naccess" style="stroke:#181818;stroke-width:1;"/><polygon fill="#181818" points="637.95,451.18,631.7367,443.5383,633.492,448.916,628.1143,450.6712,637.95,451.18" style="stroke:#181818;stroke-width:1;"/><text fill="#000000" font-family="sans-serif" font-size="13" lengthAdjust="spacing" textLength="61.1851" x="495.81" y="371.9069">&#171;extend&#187;</text></g><!--SRC=[bL11QiD03BplAqHEoS4VACPWscinjFJcYzXLdOMjDaWg3I6FZvrDsjGaa1ndD3De9j6dWMMGEAmDGXJo5ZCxj-XaG8uxd63FRVYA7DK4BSi2KA5htOUIGBslgWaKL5KDBD_9O8EgFrd2ohckBVGhCWu4-I9uvQwoHV-yHXulWTHBt9J34zGrqDQ80pJD7UwKX_o8hKqfUpI2xx5Ep-Cq_qMpf7cvoVLNweXExmYTKs- -So5_eKGFoDz8oNh-7VqEIzcdP_IULEUE0m00]--></g></svg>