<svg xmlns="http://www.w3.org/2000/svg" xmlns:xlink="http://www.w3.org/1999/xlink" contentStyleType="text/css" data-diagram-type="DESCRIPTION" height="607px" preserveAspectRatio="none" style="width:742px;height:607px;background:#FFFFFF;" version="1.1" viewBox="0 0 742 607" width="742px" zoomAndPan="magnify"><defs/><g><!--entity SF--><g class="entity" data-entity="SF" data-source-line="3" data-uid="ent0002" id="entity_SF"><ellipse cx="164.1685" cy="174.45" fill="#F1F1F1" rx="8" ry="8" style="stroke:#181818;stroke-width:0.5;"/><path d="M164.1685,182.45 L164.1685,209.45 M151.1685,190.45 L177.1685,190.45 M164.1685,209.45 L151.1685,224.45 M164.1685,209.45 L177.1685,224.45" fill="none" style="stroke:#181818;stroke-width:0.5;"/><text fill="#000000" font-family="sans-serif" font-size="14" lengthAdjust="spacing" textLength="53.416" x="129.23" y="238.9451">Session</text><text fill="#000000" font-family="sans-serif" font-size="14" lengthAdjust="spacing" textLength="69.877" x="129.23" y="255.242">Facilitator</text></g><!--entity User--><g class="entity" data-entity="User" data-source-line="4" data-uid="ent0003" id="entity_User"><ellipse cx="21.9551" cy="259.59" fill="#F1F1F1" rx="8" ry="8" style="stroke:#181818;stroke-width:0.5;"/><path d="M21.9551,267.59 L21.9551,294.59 M8.9551,275.59 L34.9551,275.59 M21.9551,294.59 L8.9551,309.59 M21.9551,294.59 L34.9551,309.59" fill="none" style="stroke:#181818;stroke-width:0.5;"/><text fill="#000000" font-family="sans-serif" font-size="14" lengthAdjust="spacing" textLength="31.9102" x="6" y="324.0851">User</text></g><!--entity Set password--><g class="entity" data-entity="Set password" data-source-line="6" data-uid="ent0005" id="entity_Set password"><ellipse cx="164.1679" cy="309.2416" fill="#F1F1F1" rx="65.2579" ry="15.4516" style="stroke:#181818;stroke-width:0.5;"/><text fill="#000000" font-family="sans-serif" font-size="14" lengthAdjust="spacing" textLength="94.1514" x="117.0922" y="313.89">Set password</text></g><!--entity Brief game--><g class="entity" data-entity="Brief game" data-source-line="8" data-uid="ent0007" id="entity_Brief game"><ellipse cx="366.1282" cy="91.2436" fill="#F1F1F1" rx="57.4182" ry="14.5236" style="stroke:#181818;stroke-width:0.5;"/><text fill="#000000" font-family="sans-serif" font-size="14" lengthAdjust="spacing" textLength="76.959" x="327.6487" y="95.8921">Brief game</text></g><!--entity Facilitate users--><g class="entity" data-entity="Facilitate users" data-source-line="10" data-uid="ent0009" id="entity_Facilitate users"><ellipse cx="366.1282" cy="157.2356" fill="#F1F1F1" rx="70.0282" ry="16.4056" style="stroke:#181818;stroke-width:0.5;"/><text fill="#000000" font-family="sans-serif" font-size="14" lengthAdjust="spacing" textLength="106.4492" x="312.9036" y="161.8841">Facilitate users</text></g><!--entity Allocate user--><g class="entity" data-entity="Allocate user" data-source-line="11" data-uid="ent0011" id="entity_Allocate user"><ellipse cx="650.7922" cy="21.2364" fill="#F1F1F1" rx="64.1822" ry="15.2364" style="stroke:#181818;stroke-width:0.5;"/><text fill="#000000" font-family="sans-serif" font-size="14" lengthAdjust="spacing" textLength="91.2871" x="605.1486" y="25.8849">Allocate user</text></g><!--entity Deallocate user--><g class="entity" data-entity="Deallocate user" data-source-line="12" data-uid="ent0013" id="entity_Deallocate user"><ellipse cx="650.7891" cy="88.2438" fill="#F1F1F1" rx="71.3191" ry="16.6638" style="stroke:#181818;stroke-width:0.5;"/><text fill="#000000" font-family="sans-serif" font-size="14" lengthAdjust="spacing" textLength="109.6826" x="595.9478" y="92.8923">Deallocate user</text></g><!--entity Facilitate session--><g class="entity" data-entity="Facilitate session" data-source-line="14" data-uid="ent0015" id="entity_Facilitate session"><ellipse cx="366.1284" cy="294.2417" fill="#F1F1F1" rx="75.7084" ry="17.5417" style="stroke:#181818;stroke-width:0.5;"/><text fill="#000000" font-family="sans-serif" font-size="14" lengthAdjust="spacing" textLength="120.4424" x="305.9073" y="298.8901">Facilitate session</text></g><!--entity Start game--><g class="entity" data-entity="Start game" data-source-line="15" data-uid="ent0017" id="entity_Start game"><ellipse cx="650.794" cy="154.2436" fill="#F1F1F1" rx="58.414" ry="14.5236" style="stroke:#181818;stroke-width:0.5;"/><text fill="#000000" font-family="sans-serif" font-size="14" lengthAdjust="spacing" textLength="78.3672" x="611.6104" y="158.8921">Start game</text></g><!--entity Change game speed--><g class="entity" data-entity="Change game speed" data-source-line="16" data-uid="ent0019" id="entity_Change game speed"><ellipse cx="650.7908" cy="223.2402" fill="#F1F1F1" rx="85.9508" ry="19.5902" style="stroke:#181818;stroke-width:0.5;"/><text fill="#000000" font-family="sans-serif" font-size="14" lengthAdjust="spacing" textLength="144.5117" x="578.5349" y="227.8886">Change game speed</text></g><!--entity Add news item--><g class="entity" data-entity="Add news item" data-source-line="17" data-uid="ent0021" id="entity_Add news item"><ellipse cx="650.7938" cy="294.2408" fill="#F1F1F1" rx="69.1038" ry="16.2208" style="stroke:#181818;stroke-width:0.5;"/><text fill="#000000" font-family="sans-serif" font-size="14" lengthAdjust="spacing" textLength="104.1113" x="598.7382" y="298.8892">Add news item</text></g><!--entity Add intervention--><g class="entity" data-entity="Add intervention" data-source-line="18" data-uid="ent0023" id="entity_Add intervention"><ellipse cx="650.7938" cy="362.2388" fill="#F1F1F1" rx="74.2938" ry="17.2588" style="stroke:#181818;stroke-width:0.5;"/><text fill="#000000" font-family="sans-serif" font-size="14" lengthAdjust="spacing" textLength="117.0107" x="592.2884" y="366.8872">Add intervention</text></g><!--entity Stop game--><g class="entity" data-entity="Stop game" data-source-line="19" data-uid="ent0025" id="entity_Stop game"><ellipse cx="650.7867" cy="429.2436" fill="#F1F1F1" rx="56.7367" ry="14.5236" style="stroke:#181818;stroke-width:0.5;"/><text fill="#000000" font-family="sans-serif" font-size="14" lengthAdjust="spacing" textLength="75.9951" x="612.7891" y="433.8921">Stop game</text></g><!--entity Show scores--><g class="entity" data-entity="Show scores" data-source-line="20" data-uid="ent0027" id="entity_Show scores"><ellipse cx="650.7928" cy="502.2426" fill="#F1F1F1" rx="62.7628" ry="14.9526" style="stroke:#181818;stroke-width:0.5;"/><text fill="#000000" font-family="sans-serif" font-size="14" lengthAdjust="spacing" textLength="87.4453" x="607.0702" y="506.891">Show scores</text></g><!--entity Debrief game--><g class="entity" data-entity="Debrief game" data-source-line="22" data-uid="ent0029" id="entity_Debrief game"><ellipse cx="366.1306" cy="527.2441" fill="#F1F1F1" rx="65.8206" ry="15.5641" style="stroke:#181818;stroke-width:0.5;"/><text fill="#000000" font-family="sans-serif" font-size="14" lengthAdjust="spacing" textLength="95.6348" x="318.3132" y="531.8926">Debrief game</text></g><!--entity Show gameplay--><g class="entity" data-entity="Show gameplay" data-source-line="24" data-uid="ent0032" id="entity_Show gameplay"><ellipse cx="650.7941" cy="584.2368" fill="#F1F1F1" rx="72.0841" ry="16.8168" style="stroke:#181818;stroke-width:0.5;"/><text fill="#000000" font-family="sans-serif" font-size="14" lengthAdjust="spacing" textLength="111.583" x="595.0026" y="588.8853">Show gameplay</text></g><!--reverse link User to SF--><g class="link" data-entity-1="User" data-entity-2="SF" data-source-line="4" data-uid="lnk4" id="link_User_SF"><path d="M54.0061,272.193 C75.5761,260.343 99.81,247.04 128.74,231.15" fill="none" id="User-backto-SF" style="stroke:#181818;stroke-width:1;"/><polygon fill="none" points="38.23,280.86,56.895,277.4517,51.1171,266.9344,38.23,280.86" style="stroke:#181818;stroke-width:1;"/></g><!--link User to Set password--><g class="link" data-entity-1="User" data-entity-2="Set password" data-source-line="6" data-uid="lnk6" id="link_User_Set password"><path d="M38.23,291.42 C54.84,293.79 76.42,296.8738 101.41,300.4338" fill="none" id="User-to-Set password" style="stroke:#181818;stroke-width:1;"/><polygon fill="#181818" points="107.35,301.28,99.0041,296.0507,102.4,300.5748,97.8758,303.9707,107.35,301.28" style="stroke:#181818;stroke-width:1;"/></g><!--link SF to Brief game--><g class="link" data-entity-1="SF" data-entity-2="Brief game" data-source-line="8" data-uid="lnk8" id="link_SF_Brief game"><path d="M199.48,184.83 C223.94,166.06 258.09,141.38 290.43,123.24 C303.84,115.72 313.8124,111.0612 327.2324,105.6012" fill="none" id="SF-to-Brief game" style="stroke:#181818;stroke-width:1;"/><polygon fill="#181818" points="332.79,103.34,322.9461,103.0266,328.1586,105.2243,325.961,110.4368,332.79,103.34" style="stroke:#181818;stroke-width:1;"/></g><!--link SF to Facilitate users--><g class="link" data-entity-1="SF" data-entity-2="Facilitate users" data-source-line="10" data-uid="lnk10" id="link_SF_Facilitate users"><path d="M199.54,202.79 C232.6,193.7 276.995,181.4919 313.445,171.4619" fill="none" id="SF-to-Facilitate users" style="stroke:#181818;stroke-width:1;"/><polygon fill="#181818" points="319.23,169.87,309.4913,168.4011,314.4092,171.1966,311.6138,176.1144,319.23,169.87" style="stroke:#181818;stroke-width:1;"/></g><!--link Facilitate users to Allocate user--><g class="link" data-entity-1="Facilitate users" data-entity-2="Allocate user" data-source-line="11" data-uid="lnk12" id="link_Facilitate users_Allocate user"><path d="M405.63,143.28 C417.8,137.96 430.9,131.22 441.84,123.24 C457.86,111.56 455.5,101.46 471.84,90.24 C513.1,61.93 561.8293,44.6529 599.5893,33.9029" fill="none" id="Facilitate users-to-Allocate user" style="stroke:#181818;stroke-width:1;"/><polygon fill="#181818" points="605.36,32.26,595.6087,30.8772,600.5511,33.6291,597.7992,38.5714,605.36,32.26" style="stroke:#181818;stroke-width:1;"/><text fill="#000000" font-family="sans-serif" font-size="13" lengthAdjust="spacing" textLength="61.1851" x="472.84" y="54.3069">&#171;extend&#187;</text></g><!--link Facilitate users to Deallocate user--><g class="link" data-entity-1="Facilitate users" data-entity-2="Deallocate user" data-source-line="12" data-uid="lnk14" id="link_Facilitate users_Deallocate user"><path d="M412.92,144.63 C431.21,139.69 452.49,134.06 471.84,129.24 C514.15,118.72 556.4853,108.9822 592.0453,101.0122" fill="none" id="Facilitate users-to-Deallocate user" style="stroke:#181818;stroke-width:1;"/><polygon fill="#181818" points="597.9,99.7,588.2431,97.7652,593.021,100.7935,589.9927,105.5715,597.9,99.7" style="stroke:#181818;stroke-width:1;"/><text fill="#000000" font-family="sans-serif" font-size="13" lengthAdjust="spacing" textLength="61.1851" x="472.84" y="111.3069">&#171;extend&#187;</text></g><!--link SF to Facilitate session--><g class="link" data-entity-1="SF" data-entity-2="Facilitate session" data-source-line="14" data-uid="lnk16" id="link_SF_Facilitate session"><path d="M199.54,226.34 C235.17,240.95 285.1288,261.4331 321.9188,276.5231" fill="none" id="SF-to-Facilitate session" style="stroke:#181818;stroke-width:1;"/><polygon fill="#181818" points="327.47,278.8,320.6612,271.6838,322.844,276.9026,317.6253,279.0854,327.47,278.8" style="stroke:#181818;stroke-width:1;"/></g><!--link Facilitate session to Start game--><g class="link" data-entity-1="Facilitate session" data-entity-2="Start game" data-source-line="15" data-uid="lnk18" id="link_Facilitate session_Start game"><path d="M391.52,277.52 C412.38,263.54 443.45,243.51 471.84,228.24 C511.79,206.77 522.93,203.58 564.84,186.24 C581.59,179.32 594.8003,174.2252 610.4803,168.4452" fill="none" id="Facilitate session-to-Start game" style="stroke:#181818;stroke-width:1;"/><polygon fill="#181818" points="616.11,166.37,606.282,165.7297,611.4186,168.0994,609.049,173.236,616.11,166.37" style="stroke:#181818;stroke-width:1;"/><text fill="#000000" font-family="sans-serif" font-size="13" lengthAdjust="spacing" textLength="61.1851" x="472.84" y="195.3069">&#171;extend&#187;</text></g><!--link Facilitate session to Change game speed--><g class="link" data-entity-1="Facilitate session" data-entity-2="Change game speed" data-source-line="16" data-uid="lnk20" id="link_Facilitate session_Change game speed"><path d="M418.65,281.3 C467.54,269.02 535.0808,252.0619 585.9908,239.2719" fill="none" id="Facilitate session-to-Change game speed" style="stroke:#181818;stroke-width:1;"/><polygon fill="#181818" points="591.81,237.81,582.1066,236.1235,586.9607,239.0283,584.0559,243.8824,591.81,237.81" style="stroke:#181818;stroke-width:1;"/><text fill="#000000" font-family="sans-serif" font-size="13" lengthAdjust="spacing" textLength="61.1851" x="472.84" y="249.3069">&#171;extend&#187;</text></g><!--link Facilitate session to Add news item--><g class="link" data-entity-1="Facilitate session" data-entity-2="Add news item" data-source-line="17" data-uid="lnk22" id="link_Facilitate session_Add news item"><path d="M442.14,294.24 C485.32,294.24 533.18,294.24 575.22,294.24" fill="none" id="Facilitate session-to-Add news item" style="stroke:#181818;stroke-width:1;"/><polygon fill="#181818" points="581.22,294.24,572.22,290.24,576.22,294.24,572.22,298.24,581.22,294.24" style="stroke:#181818;stroke-width:1;"/><text fill="#000000" font-family="sans-serif" font-size="13" lengthAdjust="spacing" textLength="61.1851" x="472.84" y="290.3069">&#171;extend&#187;</text></g><!--link Facilitate session to Add intervention--><g class="link" data-entity-1="Facilitate session" data-entity-2="Add intervention" data-source-line="18" data-uid="lnk24" id="link_Facilitate session_Add intervention"><path d="M419.97,306.95 C470.94,319.22 541.7763,336.257 592.3363,348.417" fill="none" id="Facilitate session-to-Add intervention" style="stroke:#181818;stroke-width:1;"/><polygon fill="#181818" points="598.17,349.82,590.3549,343.8264,593.3086,348.6508,588.4842,351.6046,598.17,349.82" style="stroke:#181818;stroke-width:1;"/><text fill="#000000" font-family="sans-serif" font-size="13" lengthAdjust="spacing" textLength="61.1851" x="472.84" y="315.3069">&#171;extend&#187;</text></g><!--link Facilitate session to Stop game--><g class="link" data-entity-1="Facilitate session" data-entity-2="Stop game" data-source-line="19" data-uid="lnk26" id="link_Facilitate session_Stop game"><path d="M391.84,311.22 C412.63,325.11 443.44,344.76 471.84,359.24 C511.62,379.53 523.28,380.93 564.84,397.24 C582.01,403.98 595.6098,409.1391 611.4198,415.0491" fill="none" id="Facilitate session-to-Stop game" style="stroke:#181818;stroke-width:1;"/><polygon fill="#181818" points="617.04,417.15,610.0104,410.2519,612.3565,415.3993,607.2092,417.7454,617.04,417.15" style="stroke:#181818;stroke-width:1;"/><text fill="#000000" font-family="sans-serif" font-size="13" lengthAdjust="spacing" textLength="61.1851" x="472.84" y="355.3069">&#171;extend&#187;</text></g><!--link Facilitate session to Show scores--><g class="link" data-entity-1="Facilitate session" data-entity-2="Show scores" data-source-line="20" data-uid="lnk28" id="link_Facilitate session_Show scores"><path d="M379.82,311.65 C398.14,335.91 433.96,380.29 471.84,410.24 C508.82,439.48 522.93,439.66 564.84,461.24 C583.33,470.77 598.9576,478.3615 615.4876,486.1915" fill="none" id="Facilitate session-to-Show scores" style="stroke:#181818;stroke-width:1;"/><polygon fill="#181818" points="620.91,488.76,614.4887,481.2923,616.3913,486.6196,611.064,488.5222,620.91,488.76" style="stroke:#181818;stroke-width:1;"/><text fill="#000000" font-family="sans-serif" font-size="13" lengthAdjust="spacing" textLength="61.1851" x="472.84" y="406.3069">&#171;extend&#187;</text></g><!--link SF to Debrief game--><g class="link" data-entity-1="SF" data-entity-2="Debrief game" data-source-line="22" data-uid="lnk30" id="link_SF_Debrief game"><path d="M199.49,242.77 C209.79,252.86 220.66,264.51 229.43,276.24 C290.35,357.8 338.5533,464.6422 356.1333,505.8022" fill="none" id="SF-to-Debrief game" style="stroke:#181818;stroke-width:1;"/><polygon fill="#181818" points="358.49,511.32,358.6334,501.4722,356.5261,506.7219,351.2764,504.6145,358.49,511.32" style="stroke:#181818;stroke-width:1;"/></g><!--link Debrief game to Show scores--><g class="link" data-entity-1="Debrief game" data-entity-2="Show scores" data-source-line="23" data-uid="lnk31" id="link_Debrief game_Show scores"><path d="M431.64,529.38 C444.93,529.74 458.84,530.06 471.84,530.24 C499.84,530.64 507.04,533.58 534.84,530.24 C560.54,527.16 583.0097,521.9388 605.0697,515.7988" fill="none" id="Debrief game-to-Show scores" style="stroke:#181818;stroke-width:1;"/><polygon fill="#181818" points="610.85,514.19,601.107,512.7497,606.0331,515.5307,603.2521,520.4568,610.85,514.19" style="stroke:#181818;stroke-width:1;"/><text fill="#000000" font-family="sans-serif" font-size="13" lengthAdjust="spacing" textLength="61.1851" x="472.84" y="526.3069">&#171;extend&#187;</text></g><!--link Debrief game to Show gameplay--><g class="link" data-entity-1="Debrief game" data-entity-2="Show gameplay" data-source-line="24" data-uid="lnk33" id="link_Debrief game_Show gameplay"><path d="M407.89,539.7 C427.16,545.28 450.55,551.63 471.84,556.24 C509.75,564.45 546.7397,570.4258 580.9397,575.2858" fill="none" id="Debrief game-to-Show gameplay" style="stroke:#181818;stroke-width:1;"/><polygon fill="#181818" points="586.88,576.13,578.5323,570.9036,581.9297,575.4265,577.4068,578.824,586.88,576.13" style="stroke:#181818;stroke-width:1;"/><text fill="#000000" font-family="sans-serif" font-size="13" lengthAdjust="spacing" textLength="61.1851" x="472.84" y="552.3069">&#171;extend&#187;</text></g><!--SRC=[bPB1JiCm44Jl_efLJ-IG7q1Hf4AL7x2uSJ7nDB7asf5t8Qt4nzFM53L02hbvHlj6EojxR8KaKd9TBsHTGYik1gLM6ip7rtDeJEky4oCnhSWmwKOzCH9LxsLv4bcLPKrt6aA3OHvZieLIkidsGtBOKcTsk3A_Oa6lnm0kr4yhJwwzZ-t5BEYUgegm5mHBTJrBRM1kShyjmhdpT9MB-LbHJ9BSvTOcK-YnDw73cI8U0Bk0NLjB0IEJ4-mMSYu8qXk2dEr_erhYiBIYxkD8tCO4dZ_r1YzNNs4g_uwPdJ_fmPl3T-83]--></g></svg>